<svg id="Layer_1" data-name="Layer 1" xmlns="http://www.w3.org/2000/svg" viewBox="0 0 64 64"><title>icon-caseStudy-insurance</title><path d="M62.45,34.47c-1.15-13-12-23.22-25.58-25.2-.05-.14-3.41-8.18-3.46-8.32a1.55,1.55,0,0,0-2.86,0c-.06.13-3.41,8.18-3.46,8.32a31.81,31.81,0,0,0-15.66,6.87A26.94,26.94,0,0,0,1.55,34a1.55,1.55,0,0,0,2.39,1.46,18.06,18.06,0,0,1,15.59-2,1.59,1.59,0,0,0,1.41-.22,22.75,22.75,0,0,1,8.85-2.83v4.46a7,7,0,0,0-5.48,7.19c0,8.08,9.25,6.43,9.25,10.91,0,3.23-4.69,3.19-8.44.73l-1,4.73a10.48,10.48,0,0,0,5.48,1.74V64h3.19V59.88a7.21,7.21,0,0,0,5.7-7.43c0-8.56-9.22-7.11-9.22-11.07,0-3,4-2.69,7.38-.89l.93-4.57a10.34,10.34,0,0,0-4.67-1.33V30.31a22.8,22.8,0,0,1,10.43,3,1.55,1.55,0,0,0,1.36.09A14.82,14.82,0,0,1,59.92,35.8a1.55,1.55,0,0,0,2.54-1.33ZM32,5.58,33.1,8.27H30.86ZM18.5,30A21.13,21.13,0,0,0,5.18,31.29C7.44,22.23,15.05,15.44,24.24,13,20.06,17.29,18.34,24,18.5,30Zm23.87-.61a25.58,25.58,0,0,0-20.77.09,22.26,22.26,0,0,1,3.24-12.22C31.64,6.85,42.43,15.14,42.37,29.35Zm3.1.55c.14-6-1.61-12.66-5.74-16.88,9.68,2.55,16.92,9.68,19.07,18.3A17.88,17.88,0,0,0,45.46,29.9Z"/></svg>