<svg id="Layer_1" data-name="Layer 1" xmlns="http://www.w3.org/2000/svg" viewBox="0 0 64 64"><title>icon-caseStudy-travel</title><circle cx="32" cy="1.23" r="1.23"/><circle cx="32" cy="62.77" r="1.23"/><circle cx="40.05" cy="2.3" r="1.23" transform="translate(27.35 40.36) rotate(-74.84)"/><circle cx="23.95" cy="61.7" r="1.23" transform="translate(-41.86 68.67) rotate(-74.84)"/><circle cx="47.35" cy="5.33" r="1.23" transform="translate(19.1 43.71) rotate(-60.08)"/><circle cx="16.65" cy="58.67" r="1.23" transform="translate(-42.5 43.83) rotate(-60.08)"/><circle cx="58.62" cy="16.58" r="1.23" transform="translate(-0.41 31.62) rotate(-30.09)"/><circle cx="5.38" cy="47.42" r="1.23" transform="translate(-23.05 9.09) rotate(-30.09)"/><circle cx="61.72" cy="24.04" r="1.23" transform="matrix(0.97, -0.26, 0.26, 0.97, -4.12, 16.79)"/><circle cx="2.28" cy="39.96" r="1.23" transform="matrix(0.97, -0.26, 0.26, 0.97, -10.26, 1.95)"/><circle cx="62.77" cy="32.08" r="1.23" transform="translate(30.53 94.76) rotate(-89.85)"/><circle cx="1.23" cy="31.92" r="1.23" transform="translate(-30.69 33.07) rotate(-89.85)"/><circle cx="61.76" cy="39.82" r="1.23" transform="translate(7.54 89.43) rotate(-75.27)"/><circle cx="2.24" cy="24.18" r="1.23" transform="translate(-21.71 20.2) rotate(-75.27)"/><circle cx="58.68" cy="47.33" r="1.23" transform="translate(-11.59 74.63) rotate(-60.12)"/><circle cx="5.32" cy="16.67" r="1.23" transform="translate(-11.79 12.98) rotate(-60.12)"/><circle cx="53.79" cy="53.72" r="1.23" transform="translate(-22.23 53.9) rotate(-45.1)"/><circle cx="10.21" cy="10.28" r="1.23" transform="translate(-4.28 10.25) rotate(-45.1)"/><circle cx="47.45" cy="58.61" r="1.23" transform="translate(-23.01 31.75) rotate(-30.14)"/><circle cx="16.55" cy="5.39" r="1.23" transform="translate(-0.47 9.04) rotate(-30.14)"/><circle cx="39.88" cy="61.74" r="1.23" transform="translate(-14.49 12.28) rotate(-14.85)"/><circle cx="24.12" cy="2.26" r="1.23" transform="translate(0.23 6.25) rotate(-14.85)"/><path d="M53.81,14a3.72,3.72,0,0,0,0-7.45h0a3.72,3.72,0,0,0,0,7.45Zm-.87-4.6a1.23,1.23,0,1,1,0,1.74A1.23,1.23,0,0,1,52.94,9.42Z"/><path d="M10.19,50h0A3.72,3.72,0,1,0,13,51.22,3.72,3.72,0,0,0,10.19,50ZM11,54.62a1.23,1.23,0,1,1,.1-1.74A1.23,1.23,0,0,1,11,54.62Z"/><path d="M32,7.08a24.72,24.72,0,0,0-14,4.35,8.42,8.42,0,0,0-6.82,7A24.84,24.84,0,1,0,32,7.08ZM42,30.62A58.38,58.38,0,0,0,41.52,24H48A28.29,28.29,0,0,1,49,30.62Zm6.91,2.49a27.55,27.55,0,0,1-1,6.22h-6.3a56.93,56.93,0,0,0,.46-6.22ZM41.13,21.49a39.59,39.59,0,0,0-1.65-6.22h4a22.78,22.78,0,0,1,3.68,6.22ZM24.44,30.62c0-.94.06-1.84.12-2.73L26.43,24H39a55.43,55.43,0,0,1,.52,6.64Zm14.91,2.49a54,54,0,0,1-.48,6.22H25.13a54,54,0,0,1-.48-6.22Zm1.54-20.33H38.44a18.29,18.29,0,0,0-1.27-2.23A15.48,15.48,0,0,1,40.89,12.78ZM32,9.5c1.12,0,2.43,1.16,3.64,3.28H28.36C29.57,10.66,30.88,9.5,32,9.5Zm-4.82,5.77h9.64a34.94,34.94,0,0,1,1.79,6.22H27.41a8.31,8.31,0,0,0-.53-5.43C27,15.79,27.08,15.53,27.18,15.27Zm-.35-4.72a18.29,18.29,0,0,0-1.27,2.23H24.14l-.55-.36A27.91,27.91,0,0,1,26.83,10.55ZM13.54,19.34a5.81,5.81,0,1,1,11,2.85l-5.21,11C13.67,21.22,13.45,21.29,13.54,19.34Zm3.12,13.77,2.68,5.62,2.55-5.36a56.93,56.93,0,0,0,.45,6H16a27.54,27.54,0,0,1-1-6.22ZM15,30.62q0-.43,0-.85l.4.85ZM11.08,24h1.18l.8,1.69a31,31,0,0,0-.59,4.95H9.68A22.24,22.24,0,0,1,11.08,24ZM9.73,33.11h2.71a30,30,0,0,0,.9,6.22H11A21.62,21.62,0,0,1,9.73,33.11ZM16.9,48.46a21.89,21.89,0,0,1-4.75-6.22h2a25.68,25.68,0,0,0,3.17,6.22Zm0-6.22h5.87a38.86,38.86,0,0,0,1.63,6.22H20.52A22.29,22.29,0,0,1,16.9,42.24ZM23,51h2.5a18.38,18.38,0,0,0,1.29,2.29A15.51,15.51,0,0,1,23,51Zm9,3.34c-1.13,0-2.45-1.18-3.67-3.34h7.34C34.45,53.12,33.13,54.3,32,54.3Zm-4.72-5.83a34.39,34.39,0,0,1-1.76-6.22h13a34.4,34.4,0,0,1-1.76,6.22Zm9.89,4.78A18.41,18.41,0,0,0,38.47,51H41A15.51,15.51,0,0,1,37.17,53.24Zm2.43-4.78a38.86,38.86,0,0,0,1.63-6.22H47.1a22.29,22.29,0,0,1-3.62,6.22Zm7.5,0h-.43a25.69,25.69,0,0,0,3.17-6.22h2A21.89,21.89,0,0,1,47.1,48.46ZM53,39.34H50.66a30,30,0,0,0,.9-6.22h2.71A21.62,21.62,0,0,1,53,39.34Zm1.33-8.71H51.53a30.83,30.83,0,0,0-1-6.64h2.38A22.23,22.23,0,0,1,54.32,30.62ZM49.8,21.49a26.29,26.29,0,0,0-3.22-6.22h.07V15a22.5,22.5,0,0,1,5.18,6.53Z"/><path d="M21.83,22.4a3.72,3.72,0,1,0-5.26-.29A3.73,3.73,0,0,0,21.83,22.4Zm-3.39-2a1.22,1.22,0,1,1,1.73.1A1.22,1.22,0,0,1,18.44,20.44Z"/></svg>