<svg id="Layer_1" data-name="Layer 1" xmlns="http://www.w3.org/2000/svg" viewBox="0 0 64 64"><title>icon-caseStudy-financialServices</title><path d="M32.16,21.84c-4.92,0-8.91,4.83-8.91,10.8s4,10.8,8.91,10.8,8.91-4.83,8.91-10.8S37.08,21.84,32.16,21.84Zm4.16,16.67a5.1,5.1,0,0,1-8.33,0c-4.18-5.06-1.24-13.89,4.16-13.89S40.52,33.42,36.32,38.51Z"/><path d="M31.22,30.26c0-.45.29-.89,1.23-.89a4.45,4.45,0,0,1,2.08.54l.42-1.8a5,5,0,0,0-2-.52V26.11H31.39V27.7A2.83,2.83,0,0,0,29,30.53c0,3.18,4.15,2.53,4.15,4.29,0,1.27-2.1,1.26-3.78.29L28.91,37a5.36,5.36,0,0,0,2.66.68v1.46h1.21V37.54a2.93,2.93,0,0,0,2.57-2.92C35.35,31.25,31.22,31.82,31.22,30.26Z"/><path d="M63.71,27.79l-2-3.42c0-4.25.05-4.21-.17-4.74a2.19,2.19,0,0,0-2-1.34H58.24L51.52,6.64a2.18,2.18,0,0,0-3-.8L26.95,18.3c-23.7,0-22.25,0-22.56,0a2.18,2.18,0,0,0-1.78,2.15V32.35l-1.52.87a2.18,2.18,0,0,0-.8,3l2.31,4c0,4.9-.24,5.51.79,6.37.75.62,1.36.5,3.16.5l5.92,10.27a2.18,2.18,0,0,0,3,.8L34.64,47.09c26.75,0,25.09,0,25.56-.1a2.19,2.19,0,0,0,1.53-2.09V31.45l1.17-.67A2.18,2.18,0,0,0,63.71,27.79ZM10.43,21.08a6.11,6.11,0,0,1-5,5.05V21.08ZM49.38,8.54l2.53,4.39a6.11,6.11,0,0,1-7-1.82Zm-6.89,4A8.88,8.88,0,0,0,53.3,15.38L55,18.3H32.49ZM5.38,39.05a6.11,6.11,0,0,1,5.06,5.09H5.38Zm9.21,16.29L12,50.94A6.11,6.11,0,0,1,19,52.82Zm6.8-4a8.89,8.89,0,0,0-10.74-2.91l-.87-1.52H29.07ZM59,44.14H53.81A6.11,6.11,0,0,1,59,39Zm0-7.75a8.91,8.91,0,0,0-8,7.92H13.24A8.91,8.91,0,0,0,5.38,36.4V28.95a8.91,8.91,0,0,0,7.86-7.87H51A8.91,8.91,0,0,0,59,29Zm0-10.25a6.11,6.11,0,0,1-5.15-5.07H59Z"/></svg>