<svg id="Layer_1" data-name="Layer 1" xmlns="http://www.w3.org/2000/svg" viewBox="0 0 64 64"><title>icon-caseStudy-communications</title><path d="M43.64,53.35H33.86V33.23a7.12,7.12,0,1,0-3.47,0V53.35H20.61a1.72,1.72,0,0,0-1.72,1.72v0a1.72,1.72,0,0,0,1.72,1.72h23a1.72,1.72,0,0,0,1.72-1.72v0A1.72,1.72,0,0,0,43.64,53.35Zm-15.44-27A3.84,3.84,0,1,1,32,30.16,3.84,3.84,0,0,1,28.19,26.32Z"/><path d="M42.62,31.53A1.73,1.73,0,0,0,45,34.06a10.83,10.83,0,0,0,3.45-8.3A10.79,10.79,0,0,0,45,18.6a1.73,1.73,0,1,0-2.34,2.54A7.29,7.29,0,0,1,45,25.95,7.32,7.32,0,0,1,42.62,31.53Z"/><path d="M56.31,25.34a18.84,18.84,0,0,0-6-12.44,1.64,1.64,0,1,0-2.24,2.4A15.51,15.51,0,0,1,53,25.52a15.58,15.58,0,0,1-4.92,11.85,1.64,1.64,0,0,0,2.25,2.4A18.92,18.92,0,0,0,56.31,25.34Z"/><path d="M64,24.95A26.43,26.43,0,0,0,55.85,7.64,1.64,1.64,0,0,0,53.58,10a23.09,23.09,0,0,1,7.1,15.11c.51,9.44-5.31,15.8-7.11,17.52A1.64,1.64,0,0,0,55.85,45C57.9,43,64.55,35.78,64,24.95Z"/><path d="M20.21,34.52a1.73,1.73,0,0,0,1.17-3A7.32,7.32,0,0,1,19,25.95a7.29,7.29,0,0,1,2.35-4.82A1.73,1.73,0,0,0,19,18.6a10.79,10.79,0,0,0-3.46,7.16A10.83,10.83,0,0,0,19,34.06,1.72,1.72,0,0,0,20.21,34.52Z"/><path d="M11,25.52a15.51,15.51,0,0,1,4.92-10.22,1.64,1.64,0,0,0-2.24-2.4,18.84,18.84,0,0,0-6,12.44,18.93,18.93,0,0,0,6,14.43,1.64,1.64,0,1,0,2.25-2.4A15.58,15.58,0,0,1,11,25.52Z"/><path d="M3.32,25.13A23.1,23.1,0,0,1,10.42,10,1.64,1.64,0,1,0,8.15,7.64,26.43,26.43,0,0,0,0,24.95C-.55,35.78,6.1,43,8.15,45a1.64,1.64,0,0,0,2.28-2.37C8.63,40.92,2.81,34.56,3.32,25.13Z"/></svg>