<svg id="Layer_1" data-name="Layer 1" xmlns="http://www.w3.org/2000/svg" viewBox="0 0 64 64"><title>icon-caseStudy-technology</title><path d="M64,17.91V13.54H55.23V8.74h-5V0H45.81V8.74H42.08V0H37.7V8.74H34V0H29.59V8.74H25.86V0H21.48V8.74H17.75V0H13.37V8.74H8.55v4.81H0v4.37H8.55v3.71H0V26H8.55v3.71H0v4.37H8.55v3.71H0v4.37H8.55v3.71H0v4.37H8.55V55h4.82v9h4.38V55h3.73v9h4.38V55h3.73v9H34V55H37.7v9h4.38V55h3.73v9h4.38V55h5V50.24H64V45.87H55.23V42.16H64V37.79H55.23V34.08H64V29.71H55.23V26H64V21.62H55.23V17.91Zm-25.21,21H25V25.12H38.79Z"/></svg>