<svg id="Layer_1" data-name="Layer 1" xmlns="http://www.w3.org/2000/svg" viewBox="0 0 64 64"><title>icon-caseStudy-education</title><path d="M62.94,16.89,35,5.69a8.38,8.38,0,0,0-6.26,0L1.05,16.89c-1.38.56-1.41,1.54-.07,2.19L29,32.61a6.53,6.53,0,0,0,5.66,0L58,21.45v17h-.82L55.8,58.91h6.71L61.16,38.43h-.95v-18L63,19.08C64.36,18.43,64.33,17.45,62.94,16.89Z"/><path d="M47.49,29.65l-12.8,6.12a6.53,6.53,0,0,1-5.66,0L15.16,29.06,11.9,40.32a6.7,6.7,0,0,0,3,7.42,30.94,30.94,0,0,0,32.56-.05,6.71,6.71,0,0,0,3-7.32Z"/></svg>