<svg id="Layer_1" data-name="Layer 1" xmlns="http://www.w3.org/2000/svg" viewBox="0 0 64 64"><title>icon-caseStudy-healthcare</title><path d="M32,41.54c.37-.25.7-.49,1-.72l.08-3.11c-.36-.15-.71-.28-1.08-.41-.49.17-1,.35-1.42.56l.07,2.69C31.05,40.85,31.5,41.18,32,41.54Z"/><path d="M31.14,58.26l.05,2.1c0,1,1.3,1,1.32,0l.06-2.22L32,57.94Z"/><path d="M63.5,12.63c-3.9-1-6.11-1.8-7.27-2.8a18,18,0,0,0-6.48-3.64c-3.35-1-6.8-.48-9.71,4-2.55,3.88-5.18,3.57-6.32,4.34l.07-2.81a4.62,4.62,0,1,0-3.86,0L30,14.33c-1.25-.59-3.68-.6-6-4.18-2.92-4.44-6.36-5-9.71-4A18,18,0,0,0,7.78,9.83c-1.17,1-3.38,1.82-7.27,2.8-2.61.66,5.54,5.53,10.31,6.2,4.44.62,11.63,2,19.31.28l.27,10.38L32,30l1.29-.38L33.6,19c7.77,1.78,15,.42,19.59-.22C58,18.16,66.11,13.29,63.5,12.63Z"/><path d="M29.38,30.85c-2.49-.73-7.12-1.62-7.48-3.92,0-.92,1.23-2.1,3.48-1.34a2,2,0,0,0,1.29-3.7c-8.18-3-13.84,7.86-2.35,11.72A15.24,15.24,0,0,1,29.38,30.85Z"/><path d="M29.44,51.45a5.35,5.35,0,0,1-.5-.49c-.39-.53.9-1.81,1.4-2.25q-1.51-.88-2.73-1.74c-1.55,1.76-2.41,4-1,5.76A12.83,12.83,0,0,1,29.44,51.45Z"/><path d="M39,35.27c-.68.19-2.75.71-4.85,1.34,2.13.92,2.64,1.55,2.33,2.69-.45,1.63-4.16,4.08-5.6,5a16.24,16.24,0,0,0-2.06,1.53c1.32.88,2.4,1.42,3,1.79,1-.65,4.59-2.41,6.79-4.91S40.69,37.17,39,35.27Z"/><path d="M37,55.65a13.28,13.28,0,0,1-1.93,1.11c.24.17.42.33.57,1.14a4,4,0,0,1,.07.82.95.95,0,0,0,1.88.13A4.8,4.8,0,0,0,37,55.65Z"/><path d="M36.28,47.09c-1.21.85-2.24,1.43-2.75,1.74.5.43,1.39,1.29,1.49,1.94,0,.08-.18.24-.24.3-3,3-8.15,2.08-8.4,6.62a5.92,5.92,0,0,0,0,1.16.95.95,0,0,0,1.88-.17,4,4,0,0,1,.05-.77c.21-1.28.52-1.42,3.48-2.31C37.2,54,40,51.26,36.28,47.09Z"/><path d="M37.39,21.89a2,2,0,1,0,1.29,3.7,4.28,4.28,0,0,1,1.3-.21c2.1,0,4.46,2.67-3.35,4.71-6.1,1.58-15.14,3.85-12.76,10.52a10.12,10.12,0,0,0,3.45,4.14,18.53,18.53,0,0,1,3-2.12c-5.21-4-3.48-5.52,2.86-7.41,2.66-.79,4.93-1.28,6.4-1.75l.06,0C51,29.77,45.57,19.06,37.39,21.89Z"/><polygon points="32.93 50.85 32.93 50.17 32.03 49.83 31.15 50.17 31.15 50.85 32.03 51.19 32.93 50.85"/></svg>