<svg id="Layer_1" data-name="Layer 1" xmlns="http://www.w3.org/2000/svg" viewBox="0 0 64 64"><title>icon-caseStudy-manufacturingLogistics</title><polygon points="45.35 7.62 32.07 15.28 18.79 7.62 32.07 0 45.35 7.62"/><polygon points="31 32.34 18 24.75 18 9.89 31 17.28 31 32.34"/><polygon points="33 32.34 46 24.75 46 9.89 33 17.28 33 32.34"/><path d="M35.92,64c-.12-10.51-3.25-16-2.36-19.58s4.58-4.93,7.08-6.66,6.63-3.75,10-7c2.91-2.79,7.11-.08,5,2.76-2.38,3.14-4.41,4.08-5.62,5.7a1.52,1.52,0,0,0,2.34,1.93A58,58,0,0,0,58,35.32c2.19-2.7.79-6.68-2-8.21,0,0,.16-12.82.16-12.92,0-2.93,4.6-2.93,4.6,0,.68,6.32,1.78,13.08,2.44,18.42.54,4.36-.19,5.25-3.6,9-2.45,2.71-4.75,5.46-7.16,8.2C48.34,54.49,48.26,55.4,48.88,64Z"/><path d="M28.08,64c.12-10.51,3.25-16,2.36-19.58s-4.58-4.93-7.08-6.66-6.63-3.75-10-7c-2.91-2.79-7.11-.08-5,2.76,2.38,3.14,4.41,4.08,5.62,5.7a1.52,1.52,0,0,1-2.34,1.93A58,58,0,0,1,6,35.32c-2.19-2.7-.79-6.68,2-8.21,0,0-.16-12.82-.16-12.92,0-2.93-4.6-2.93-4.6,0C2.57,20.52,1.46,27.28.8,32.62c-.54,4.36.19,5.25,3.6,9,2.45,2.71,4.75,5.46,7.16,8.2,4.09,4.64,4.17,5.56,3.56,14.16Z"/></svg>