<svg id="Layer_1" data-name="Layer 1" xmlns="http://www.w3.org/2000/svg" viewBox="0 0 64 64"><title>icon-caseStudy-lifeSciences</title><path d="M21.16,35.81l6.59,6.59a1.37,1.37,0,1,0,1.94-1.94l-8.23-8.23a15.86,15.86,0,0,1,5.07-8.13L37.77,35.34a1.37,1.37,0,1,0,1.94-1.94L28.78,22.49a17,17,0,0,1,7.43-2.24A1.92,1.92,0,0,0,36,16.42a20.51,20.51,0,0,0-11.65,4.52,19.81,19.81,0,0,0-6.64,10.57c-1.11,5,.37,8.8,1.67,12.19a21.85,21.85,0,0,1,1.76,6.4l-5.83-5.83a1.37,1.37,0,1,0-1.94,1.94l7.44,7.44a15.13,15.13,0,0,1-4,6.9,1.92,1.92,0,0,0,2.75,2.67,18.74,18.74,0,0,0,5.09-9.07c1-4.75-.41-8.5-1.68-11.81A22.28,22.28,0,0,1,21.16,35.81Z"/><path d="M42.88,13.8,49.06,20A1.37,1.37,0,0,0,51,18l-7.77-7.77a15.16,15.16,0,0,1,4-6.83A1.92,1.92,0,1,0,44.48.78a18.74,18.74,0,0,0-5.09,9.07c-1,4.75.41,8.5,1.68,11.81a22.46,22.46,0,0,1,1.77,6.47l-6.59-6.59a1.37,1.37,0,0,0-1.94,1.94l8.24,8.24a15.84,15.84,0,0,1-5,8.13L26.29,28.63a1.37,1.37,0,0,0-1.94,1.94L35.26,41.48a17,17,0,0,1-7.48,2.27,1.92,1.92,0,0,0,.12,3.83H28a20.51,20.51,0,0,0,11.65-4.52,19.81,19.81,0,0,0,6.64-10.57c1.11-5-.37-8.8-1.67-12.19A21.55,21.55,0,0,1,42.88,13.8Z"/><path d="M63.44,16.71a1.92,1.92,0,0,0-2.71,0,14.42,14.42,0,0,1-1.31,1.16L47.9,6.34A1.37,1.37,0,0,0,46,8.28L57,19.36a14.14,14.14,0,0,1-2.26.91,14.42,14.42,0,0,1-6.1.49,1.92,1.92,0,0,0-.52,3.8,18.14,18.14,0,0,0,2.45.16,18.09,18.09,0,0,0,12.82-5.3A1.92,1.92,0,0,0,63.44,16.71Z"/><path d="M16.37,57.19a1.37,1.37,0,0,0,1-2.34L7,44.55a14.13,14.13,0,0,1,2.17-.87,14.42,14.42,0,0,1,6.1-.49,1.92,1.92,0,0,0,.52-3.8A18.11,18.11,0,0,0,.56,44.54a1.92,1.92,0,1,0,2.71,2.71A14.45,14.45,0,0,1,4.66,46L15.4,56.79A1.36,1.36,0,0,0,16.37,57.19Z"/></svg>