<svg id="Layer_1" data-name="Layer 1" xmlns="http://www.w3.org/2000/svg" viewBox="0 0 64 64"><title>icon-caseStudy-hospitality</title><path d="M52.45,0H11.55a6.6,6.6,0,0,0-6.6,6.6V57.4a6.6,6.6,0,0,0,6.6,6.6H52.45a6.6,6.6,0,0,0,6.6-6.6V6.6A6.6,6.6,0,0,0,52.45,0Zm-15,5.06v6.16h-11V5.06ZM55.09,57.4A2.64,2.64,0,0,1,52.45,60H11.55A2.64,2.64,0,0,1,8.91,57.4V6.6A2.64,2.64,0,0,1,11.55,4H22.32V13.2a2.2,2.2,0,0,0,2.2,2.2h15a2.2,2.2,0,0,0,2.2-2.2V4H52.45A2.64,2.64,0,0,1,55.09,6.6Z"/><polygon points="37.32 27.2 33.44 23.84 30.67 27.04 37.35 32.82 48.85 22.68 46.05 19.5 37.32 27.2"/><polygon points="37.32 41.23 33.44 37.88 30.67 41.07 37.35 46.85 48.85 36.71 46.05 33.54 37.32 41.23"/></svg>