<svg xmlns="http://www.w3.org/2000/svg" width="20" height="20" viewBox="0 0 20 20">
  <g fill="none" fill-rule="evenodd">
    <rect width="20" height="20"/>
    <path fill="#000000" d="M12.8411913,14.3769018 C11.4136948,17.4243203 10.3501513,18.4916412 7.9706249,18.3147227 C6.45339653,18.2019113 5.38020105,17.2634363 4.84440756,15.7789401 C4.76556583,15.5604972 4.87100765,15.3165842 5.07991845,15.2341452 C5.28882924,15.1517061 5.52209876,15.2619589 5.60094049,15.4804018 C6.0309502,16.6718082 6.8446433,17.3833567 8.02797871,17.471342 C10.0171232,17.6192355 10.8707974,16.7132915 12.2174385,13.7842877 C12.2287016,13.7478827 12.2444169,13.7139535 12.2638136,13.6830509 C12.2668738,13.6763467 12.2699366,13.6696321 12.273002,13.6629071 L12.2969687,13.6103257 C12.4798829,13.2090272 12.5695528,13.0148391 12.6789995,12.7863155 C13.8513096,10.3398634 14.6859255,8.8172668 15.775207,7.37691391 C15.9137086,7.19377373 16.1679724,7.16270996 16.343121,7.30753105 C16.5182696,7.45235214 16.5479779,7.71821728 16.4094763,7.90135747 C15.3646449,9.28293409 14.5505242,10.7681411 13.4019817,13.1649935 C13.3405053,13.2933556 13.2851267,13.4112711 13.2144047,13.5645677 C14.0961541,13.6344075 15.0591153,13.5516019 15.9630778,13.2215699 C18.6903996,12.2258388 19.9193433,9.3529896 18.7693216,3.76757363 C12.5438647,5.08441357 10.9228341,8.02877257 12.0623006,11.7379407 C12.13059,11.960235 12.0136079,12.1983255 11.8010137,12.2697308 C11.5884195,12.3411361 11.3607183,12.2188164 11.2924289,11.996522 C9.98079726,7.72692557 11.9840471,4.22782808 19.0040894,2.85857355 C19.2170095,2.81704361 19.4234078,2.95833734 19.4721613,3.17900087 C20.850222,9.41624704 19.4469644,12.8451895 16.2296352,14.0198198 C15.1098311,14.4286545 13.9363857,14.500759 12.8805786,14.3814575 C12.8671541,14.3799406 12.8540236,14.378421 12.8411913,14.3769018 Z M0.830630497,7.16058399 L0.404307647,7.16058399 C0.181014699,7.16058399 0,6.96308077 0,6.7194482 C0,6.47581563 0.181014699,6.27831241 0.404307647,6.27831241 L1.16528653,6.27831241 C1.18791408,6.27420406 1.21118694,6.27206259 1.23493814,6.27206259 L8.57173946,6.27206259 C8.59549066,6.27206259 8.61876352,6.27420406 8.64139107,6.27831241 L9.57619616,6.27831241 C9.79948911,6.27831241 9.98050381,6.47581563 9.98050381,6.7194482 C9.98050381,6.96308077 9.79948911,7.16058399 9.57619616,7.16058399 L8.97604711,7.16058399 L8.97604711,10.5842344 C8.97604711,11.8446813 8.20111846,12.9465903 7.09709938,13.3425485 C6.98025962,13.933948 6.48208039,14.3792551 5.88400656,14.3792551 L3.92267104,14.3792551 C3.32459186,14.3792551 2.82640905,13.93394 2.70957508,13.3425326 C1.60565267,12.9465419 0.830630497,11.8445927 0.830630497,10.5842344 L0.830630497,7.16058399 Z M8.16743181,7.16058399 L1.63924579,7.16058399 L1.63924579,10.5842344 C1.63924579,11.5566899 2.29071733,12.3978658 3.18113104,12.6043152 C3.37753516,12.6498531 3.51204158,12.839451 3.49674241,13.0491956 C3.49422739,13.07652 3.49385779,13.0805356 3.49249707,13.0909584 C3.4998145,13.337539 3.69037904,13.5337448 3.92267104,13.5337448 L5.88400656,13.5337448 C6.11608554,13.5337448 6.30651355,13.3378987 6.31415994,13.0916367 C6.31271531,13.0806725 6.31228007,13.0755944 6.30962556,13.0446239 C6.29660997,12.8364466 6.43077428,12.6494658 6.62556299,12.6043114 C7.51607685,12.3978794 8.16743181,11.556788 8.16743181,10.5842344 L8.16743181,7.16058399 Z M2.6438903,2.98618387 L2.6438903,2.0894218 C2.6438903,1.85594058 2.8327752,1.66666667 3.06577654,1.66666667 C3.29877788,1.66666667 3.48766278,1.85594058 3.48766278,2.0894218 L3.48766278,2.98618387 L3.48766278,5.35187524 L2.6438903,5.35187524 L2.6438903,2.98618387 Z M6.35440155,2.98618387 L6.35440155,2.0894218 C6.35440155,1.85594058 6.54328646,1.66666667 6.77628779,1.66666667 C7.00928913,1.66666667 7.19817403,1.85594058 7.19817403,2.0894218 L7.19817403,2.98618387 L7.19817403,5.35187524 L6.35440155,5.35187524 L6.35440155,2.98618387 Z M3.22630198,9.32038319 C3.00300904,9.32038319 2.82199434,9.12287997 2.82199434,8.8792474 C2.82199434,8.63561483 3.00300904,8.43811161 3.22630198,8.43811161 L6.58054256,8.43811161 C6.80383551,8.43811161 6.98485021,8.63561483 6.98485021,8.8792474 C6.98485021,9.12287997 6.80383551,9.32038319 6.58054256,9.32038319 L3.22630198,9.32038319 Z M3.22630198,10.9708655 C3.00300904,10.9708655 2.82199434,10.7733623 2.82199434,10.5297298 C2.82199434,10.2860972 3.00300904,10.088594 3.22630198,10.088594 L6.58054256,10.088594 C6.80383551,10.088594 6.98485021,10.2860972 6.98485021,10.5297298 C6.98485021,10.7733623 6.80383551,10.9708655 6.58054256,10.9708655 L3.22630198,10.9708655 Z"/>
  </g>
</svg>
