<svg id="Layer_1" data-name="Layer 1" xmlns="http://www.w3.org/2000/svg" viewBox="0 0 64 64"><title>icon-caseStudy-retail</title><path d="M63.84,29.74,54.42,13.38A1.16,1.16,0,0,0,52.83,13l-6.1,3.56-8.35-4.86a6.11,6.11,0,0,0-6.92,0,5.8,5.8,0,0,0-5.84,0C23.24,13,19.9,15,17.22,16.54l-6.07-3.49a1.16,1.16,0,0,0-1.59.43L.16,29.76a1.16,1.16,0,0,0,.42,1.59l11,6.4a3.8,3.8,0,0,0,3.77,4.31c.11,0,.21,0,.32,0a3.8,3.8,0,0,0,5.27,4.4A3.79,3.79,0,0,0,24.7,50a3.84,3.84,0,0,0,1.16-.2,3.53,3.53,0,0,0,1,2.47l.13.13a3.52,3.52,0,0,0,4.6.33,4.6,4.6,0,0,0,2.25.54,5,5,0,0,0,2.62-.69,3.6,3.6,0,0,0,1.7-2.5,4.81,4.81,0,0,0,3.06-.43,4.05,4.05,0,0,0,2.23-3,4.58,4.58,0,0,0,3.28-.53,3.82,3.82,0,0,0,1.84-3.64,4.52,4.52,0,0,0,3.84-2.27,3.86,3.86,0,0,0,.44-2.76l10.55-6.12A1.16,1.16,0,0,0,63.84,29.74ZM11,15.65,13.28,17,5,31.25,2.75,29.92Zm3.26,23.64a1.5,1.5,0,0,1,0-2.12l1.65-1.65A1.5,1.5,0,0,1,18,37.64l-1.65,1.65A1.5,1.5,0,0,1,14.26,39.29Zm4,4.71a1.5,1.5,0,0,1,0-2.12L21,39.14a1.5,1.5,0,0,1,2.12,2.12L20.39,44A1.54,1.54,0,0,1,18.28,44Zm5.36,3.2a1.5,1.5,0,0,1,0-2.12l.93-.93a1.5,1.5,0,1,1,2.12,2.12l-.93.93A1.53,1.53,0,0,1,23.64,47.2Zm5,3.52-.13-.13a1.22,1.22,0,0,1,0-1.72l.58-.58a1.22,1.22,0,0,1,1.72,0l.13.13a1.22,1.22,0,0,1,0,1.72l-.58.58A1.22,1.22,0,0,1,28.66,50.72ZM50.41,39.06c-.25.45-1,1.43-3,1A1.16,1.16,0,0,0,46,41.57c.32.84.5,2-.46,2.55a2.21,2.21,0,0,1-2.64-.32A1.16,1.16,0,0,0,41,45a1.78,1.78,0,0,1-.77,2.54c-.78.39-1.92.38-2.31-.27a1.16,1.16,0,0,0-2.11.91c.47,1.72-.21,2.18-.43,2.34a3,3,0,0,1-2.07.32,3.53,3.53,0,0,0-.65-4.07l-.13-.13a3.54,3.54,0,0,0-3.08-1,3.84,3.84,0,0,0,0-.45,3.75,3.75,0,0,0-3.77-3.78,3.75,3.75,0,0,0-.9-3.93,3.91,3.91,0,0,0-4-.86,3.82,3.82,0,0,0-6.52-2.76l-1.65,1.65-.08.1L7,32.42l8.26-14.3,1.35.78a1.16,1.16,0,0,0,1.17,0c2.75-1.62,6.41-3.74,9-5.21a3.49,3.49,0,0,1,2.88-.28c-.07.08-.14.15-.21.23L20.93,25.55c-1.39,2.34-.67,4.28.46,5.32a4.83,4.83,0,0,0,6.05.07c3.12-2.25,6.62-4.72,6.62-4.72a4.08,4.08,0,0,1,5.15.5l11.3,11A1.26,1.26,0,0,1,50.41,39.06Zm1.14-3.54L46,30.07a10.92,10.92,0,0,0,4.28-1.36,1.16,1.16,0,0,0,.31-1.6,1.17,1.17,0,0,0-1.61-.33,10.75,10.75,0,0,1-5.19,1.13l-2.91-2.84a6.75,6.75,0,0,0-4.6-1.89,6.07,6.07,0,0,0-3.52,1.14s-3.51,2.48-6.64,4.73a2.5,2.5,0,0,1-3.12.1,1.77,1.77,0,0,1-.08-2.33L31.31,15C33,12.81,35,12.35,37.2,13.66l8.94,5.21a1.16,1.16,0,0,0,1.17,0l1.28-.75,8.21,14.35Zm7.28-4.22L50.61,16.95,53,15.56l8.26,14.33Z"/></svg>