<svg xmlns="http://www.w3.org/2000/svg" width="147" height="45" viewBox="0 0 147 45">
  <g fill="none" fill-rule="evenodd">
    <polygon fill="#FFFFFF" points="11.729 44.226 14.054 44.226 14.054 22.522 11.729 22.522"/>
    <path fill="#FFFFFF" d="M21.007 31.514C21.007 31.514 22.557 29.033 25.813 29.033 29.378 29.033 31.859 31.514 31.859 35.389L31.859 44.226 29.689 44.226 29.689 35.389C29.689 32.754 27.984 31.049 25.658 31.049 23.023 31.049 21.007 33.064 21.007 36.009L21.007 44.226 18.836 44.226 18.836 29.343 21.007 29.343 21.007 31.514M36.804 24.382L38.82 24.382 38.82 29.343 42.076 29.343 42.076 31.359 38.82 31.359 38.82 40.196C38.82 41.746 39.595 42.521 40.835 42.521 41.92 42.521 42.85 42.056 42.85 42.056L42.85 44.071C42.85 44.071 41.92 44.536 40.742 44.536 38.2 44.536 36.649 42.986 36.649 40.196L36.649 31.359 33.859 31.359 33.859 29.343 35.564 29.343C36.339 29.343 36.804 28.879 36.804 27.793L36.804 24.382M46.277 35.7L56.354 35.7C56.044 33.064 54.029 31.049 51.393 31.049 48.757 31.049 46.587 33.219 46.277 35.7zM46.277 37.56C46.432 40.196 48.757 42.521 51.548 42.521 54.68 42.521 56.354 40.041 56.354 40.041L57.75 41.436C57.75 41.436 55.58 44.536 51.548 44.536 47.517 44.536 44.107 41.126 44.107 36.785 44.107 32.444 47.517 29.033 51.393 29.033 55.424 29.033 58.525 32.134 58.525 36.475 58.525 37.095 58.37 37.591 58.37 37.591L46.277 37.56zM69.392 31.204L68.461 31.204C65.981 31.204 63.811 33.064 63.811 36.009L63.811 44.226 61.64 44.226 61.64 29.343 63.811 29.343 63.811 31.359C63.811 31.359 65.361 29.033 68.772 29.033L69.392 29.033 69.392 31.204M80.638 37.56L80.638 36.63 75.522 37.56C73.662 37.901 72.732 38.8 72.732 40.196 72.732 41.436 73.817 42.521 75.832 42.521 78.623 42.521 80.638 40.506 80.638 37.56zM80.638 34.769C80.638 32.599 79.087 31.049 76.917 31.049 74.282 31.049 72.732 33.219 72.732 33.219L71.336 31.824C71.336 31.824 73.351 29.033 76.917 29.033 80.328 29.033 82.808 31.514 82.808 34.769L82.808 44.226 80.638 44.226 80.638 42.211C80.638 42.211 79.087 44.536 75.832 44.536 72.732 44.536 70.561 42.366 70.561 40.196 70.561 37.715 72.111 36.165 74.902 35.7L80.638 34.769zM93.31 29.033C97.186 29.033 99.356 31.979 99.356 31.979L97.806 33.529C97.806 33.529 96.255 31.049 93.31 31.049 90.519 31.049 88.039 33.529 88.039 36.785 88.039 40.041 90.519 42.521 93.31 42.521 96.255 42.521 97.96 40.041 97.96 40.041L99.511 41.436C99.511 41.436 97.186 44.536 93.31 44.536 89.279 44.536 85.869 41.126 85.869 36.785 85.869 32.444 89.279 29.033 93.31 29.033M104.026 24.382L106.042 24.382 106.042 29.343 109.296 29.343 109.296 31.359 106.042 31.359 106.042 40.196C106.042 41.746 106.816 42.521 108.056 42.521 109.142 42.521 110.072 42.056 110.072 42.056L110.072 44.071C110.072 44.071 109.142 44.536 107.963 44.536 105.421 44.536 103.871 42.986 103.871 40.196L103.871 31.359 101.081 31.359 101.081 29.343 102.786 29.343C103.561 29.343 104.026 28.879 104.026 27.793L104.026 24.382M112.637 44.226L114.808 44.226 114.808 29.343 112.637 29.343 112.637 44.226zM113.722 22.987C114.498 22.987 115.118 23.607 115.118 24.382 115.118 25.158 114.498 25.778 113.722 25.778 112.948 25.778 112.328 25.158 112.328 24.382 112.328 23.607 112.948 22.987 113.722 22.987z"/>
    <polyline fill="#FFFFFF" points="123.029 44.226 116.982 29.343 119.308 29.343 124.114 41.281 128.919 29.343 131.246 29.343 125.199 44.226 123.029 44.226"/>
    <path fill="#FFFFFF" d="M133.994 35.7L144.07 35.7C143.76 33.064 141.745 31.049 139.109 31.049 136.474 31.049 134.303 33.219 133.994 35.7zM133.994 37.56C134.148 40.196 136.474 42.521 139.264 42.521 142.396 42.521 144.07 40.041 144.07 40.041L145.465 41.436C145.465 41.436 143.294 44.536 139.264 44.536 135.234 44.536 131.823 41.126 131.823 36.785 131.823 32.444 135.234 29.033 139.109 29.033 143.14 29.033 146.241 32.134 146.241 36.475 146.241 37.095 146.085 37.591 146.085 37.591L133.994 37.56zM31.146 9.624C31.146 8.317 30.114 7.23 28.825 7.23 27.517 7.23 26.522 8.317 26.522 9.624 26.522 10.932 27.517 12.019 28.825 12.019 30.114 12.019 31.146 10.932 31.146 9.624zM24.054 9.624C24.054 6.972 26.172 4.835 28.825 4.835 31.477 4.835 33.595 6.972 33.595 9.624 33.595 12.277 31.477 14.414 28.825 14.414 26.172 14.414 24.054 12.277 24.054 9.624zM41.099 9.606C41.099 8.243 40.104 7.138 38.742 7.138 37.341 7.138 36.273 8.188 36.273 9.606 36.273 11.024 37.341 12.092 38.742 12.092 40.104 12.092 41.099 10.969 41.099 9.606zM33.908 9.624C33.908 6.364 36.303 4.835 38.384 4.835 39.581 4.835 40.521 5.333 41.128 6.014L41.128 5.019 43.652 5.019 43.652 13.971C43.652 16.569 42.013 18.669 38.9 18.669 36.561 18.669 34.847 17.453 34.111 16.016L36.339 14.763C36.819 15.721 37.665 16.329 38.9 16.329 40.263 16.329 41.128 15.261 41.128 14.064L41.128 13.198C40.521 13.916 39.544 14.414 38.347 14.414 36.395 14.414 33.908 12.866 33.908 9.624zM44.517 5.019L47.023 5.019 47.023 6.051C47.612 5.296 48.515 4.835 49.565 4.835 51.738 4.835 53.045 6.235 53.045 8.612L53.045 14.229 50.486 14.229 50.486 8.943C50.486 7.709 49.915 6.99 48.791 6.99 47.834 6.99 47.042 7.654 47.042 9.201L47.042 14.229 44.517 14.229 44.517 5.019"/>
    <polyline fill="#FFFFFF" points="57.024 11.982 61.868 7.248 57.097 7.248 57.097 5.019 65.257 5.019 65.257 7.285 60.413 12.001 65.349 12.001 65.349 14.229 57.024 14.229 57.024 11.982"/>
    <path fill="#FFFFFF" d="M72.577 9.606C72.577 8.243 71.582 7.138 70.219 7.138 68.82 7.138 67.752 8.188 67.752 9.606 67.752 11.024 68.82 12.092 70.219 12.092 71.582 12.092 72.577 10.969 72.577 9.606zM65.386 9.624C65.386 6.364 67.781 4.835 69.862 4.835 71.059 4.835 71.998 5.278 72.607 5.922L72.607 5.019 75.13 5.019 75.13 14.229 72.607 14.229 72.607 13.198C71.998 13.916 71.023 14.414 69.826 14.414 67.873 14.414 65.386 12.866 65.386 9.624zM75.996 5.019L78.5 5.019 78.5 6.051C79.09 5.296 79.993 4.835 81.042 4.835 83.216 4.835 84.524 6.235 84.524 8.612L84.524 14.229 81.963 14.229 81.963 8.943C81.963 7.709 81.392 6.99 80.269 6.99 79.311 6.99 78.519 7.654 78.519 9.201L78.519 14.229 75.996 14.229 75.996 5.019"/>
    <polygon fill="#FFFFFF" points="53.825 14.226 56.348 14.226 56.348 5.016 53.825 5.016"/>
    <polygon fill="#FFFFFF" points="53.825 4.449 56.349 4.449 56.349 2.177 53.825 2.177"/>
    <path fill="#FFFFFF" d="M90.484 7.282L90.484 5.016 88.752 5.016 88.752 2.177 86.229 2.177 86.229 5.016 84.664 5.016 84.664 7.282 86.229 7.282 86.229 10.229C86.229 13.232 87.187 14.226 90.116 14.226L90.484 14.226 90.484 11.868C88.937 11.868 88.752 11.647 88.752 10.211L88.752 7.282 90.484 7.282M10.955 7.5C10.955 3.484 13.976.592 17.863.592 20.386.592 22.578 1.919 23.756 3.926L21.509 5.363C20.754 3.963 19.576 3.116 17.863 3.116 15.358 3.116 13.497 5.031 13.497 7.5 13.497 9.913 15.339 11.847 17.807 11.847 19.649 11.847 20.939 10.779 21.621 9.341L23.96 10.576C22.781 12.86 20.534 14.407 17.863 14.407 13.7 14.407 10.955 11.331 10.955 7.5"/>
    <polygon fill="#0499EE" points="0 44.226 2.39 44.226 2.39 1 0 1"/>
  </g>
</svg>
