<svg xmlns="http://www.w3.org/2000/svg" width="24" height="24" viewBox="0 0 24 24"><title>account-group</title><path d="M5.5 8.5h-5A.5.5 0 0 0 0 9v3c0 1.083.336 1.73 1 1.932V18a.5.5 0 0 0 .5.5h3A.5.5 0 0 0 5 18v-4.068c.663-.202.999-.849 1-1.932V9a.5.5 0 0 0-.5-.5zM5 12c-.001 1-.278 1-.5 1a.5.5 0 0 0-.5.5v4H2v-4a.5.5 0 0 0-.5-.5c-.223 0-.5 0-.5-1V9.5h4V12zM23.5 8.5h-5a.5.5 0 0 0-.5.5v3c0 1.083.336 1.73 1 1.932V18a.5.5 0 0 0 .5.5h3a.5.5 0 0 0 .5-.5v-4.068c.663-.202.999-.849 1-1.932V9a.5.5 0 0 0-.5-.5zM23 12c-.001 1-.278 1-.5 1a.5.5 0 0 0-.5.5v4h-2v-4a.5.5 0 0 0-.5-.5c-.223 0-.5 0-.5-1V9.5h4V12zM15.5 8.5h-7A.5.5 0 0 0 8 9v5c0 1.208.86 2.217 2 2.45V22a.5.5 0 0 0 .5.5h3a.5.5 0 0 0 .5-.5v-5.55c1.14-.232 2-1.242 2-2.45V9a.5.5 0 0 0-.5-.5zM15 14c0 .827-.673 1.5-1.5 1.5a.5.5 0 0 0-.5.5v5.5h-2V16a.5.5 0 0 0-.5-.5c-.827 0-1.5-.673-1.5-1.5V9.5h6V14zM3 7.5c1.103 0 2-.897 2-2 0-1.104-.897-2-2-2s-2 .896-2 2c0 1.103.897 2 2 2zm0-3c.551 0 1 .449 1 1s-.449 1-1 1-1-.449-1-1c0-.551.449-1 1-1zM21 7.5c1.103 0 2-.897 2-2 0-1.104-.897-2-2-2s-2 .896-2 2c0 1.103.897 2 2 2zm0-3c.551 0 1 .449 1 1s-.449 1-1 1-1-.449-1-1c0-.551.449-1 1-1zM12 7.5c1.654 0 3-1.346 3-3s-1.346-3-3-3-3 1.346-3 3 1.346 3 3 3zm0-5c1.103 0 2 .896 2 2 0 1.103-.897 2-2 2s-2-.897-2-2c0-1.104.897-2 2-2z"/></svg>