<svg xmlns="http://www.w3.org/2000/svg" width="24" height="24" viewBox="0 0 24 24"><title>bank-notes</title><path d="M23.5 4.5H.5A.5.5 0 0 0 0 5v14a.5.5 0 0 0 .5.5h23a.5.5 0 0 0 .5-.5V5a.5.5 0 0 0-.5-.5zm-.5 14H1v-13h22v13z"/><path d="M12 15.5c1.93 0 3.5-1.57 3.5-3.5S13.93 8.5 12 8.5 8.5 10.07 8.5 12s1.57 3.5 3.5 3.5zm0-6c1.379 0 2.5 1.122 2.5 2.5s-1.121 2.5-2.5 2.5-2.5-1.122-2.5-2.5 1.121-2.5 2.5-2.5zM6 9.5a1 1 0 1 1-2 0 1 1 0 0 1 2 0zM20 14.5a1 1 0 1 1-2 0 1 1 0 0 1 2 0z"/><path d="M4.5 17.5h15c1.379 0 2.5-1.122 2.5-2.5V9c0-1.378-1.121-2.5-2.5-2.5h-15A2.503 2.503 0 0 0 2 9v6c0 1.378 1.121 2.5 2.5 2.5zM3 9c0-.827.673-1.5 1.5-1.5h15c.827 0 1.5.673 1.5 1.5v6c0 .827-.673 1.5-1.5 1.5h-15c-.827 0-1.5-.673-1.5-1.5V9z"/></svg>