<svg xmlns="http://www.w3.org/2000/svg" width="24" height="24" viewBox="0 0 24 24"><title>barcode-scan</title><path d="M3.469 22H.5a.5.5 0 0 1-.5-.5v-2.969a.5.5 0 0 1 1 0V21h2.469a.5.5 0 0 1 0 1zM.5 5.969a.5.5 0 0 1-.5-.5V2.5A.5.5 0 0 1 .5 2h2.969a.5.5 0 0 1 0 1H1v2.469a.5.5 0 0 1-.5.5zM23.5 5.969a.5.5 0 0 1-.5-.5V3h-2.469a.5.5 0 0 1 0-1H23.5a.5.5 0 0 1 .5.5v2.969a.5.5 0 0 1-.5.5zM23.5 22h-2.969a.5.5 0 0 1 0-1H23v-2.469a.5.5 0 0 1 1 0V21.5a.5.5 0 0 1-.5.5zM3 7h1v10H3V7zM5 7h1v7H5V7zM7 7h1v7H7V7zM10 7h1v7h-1V7zM12 7h1v7h-1V7zM14 7h1v7h-1V7zM16 7h1v7h-1V7zM18 7h1v7h-1V7zM20 7h1v10h-1V7zM5.998 15H5v1h.998v-1zM7.998 15H7v1h.998v-1zM10.998 15H10v1h.998v-1zM12.998 15H12v1h.998v-1zM14.998 15H14v1h.998v-1zM16.998 15H16v1h.998v-1zM18.998 15H18v1h.998v-1z"/></svg>