<svg xmlns="http://www.w3.org/2000/svg" width="24" height="24" viewBox="0 0 24 24"><title>book-open</title><path d="M22.263 2.124a.495.495 0 0 0-.486-.022L12 6.99 2.224 2.102a.503.503 0 0 0-.724.447v15.5a.5.5 0 0 0 .276.447l10 5c.004.002.01.001.014.003.064.03.134.049.21.049s.146-.02.21-.049c.004-.002.01-.001.014-.003l10-5a.499.499 0 0 0 .276-.447v-15.5a.502.502 0 0 0-.237-.425zM2.5 3.358l9 4.5V22.24l-9-4.5V3.358zm19 14.382-9 4.5V7.858l9-4.5V17.74z"/><path d="m3.773 1.471 8 4.048a.495.495 0 0 0 .452 0l8-4.048a.5.5 0 0 0-.451-.893L12 4.513 4.225.579a.5.5 0 0 0-.452.892z"/></svg>