<svg xmlns="http://www.w3.org/2000/svg" width="24" height="24" viewBox="0 0 24 24"><title>bookmark</title><path d="M23.829 14.637 9.321.121a.504.504 0 0 0-.354-.146H.475a.5.5 0 0 0-.5.5l.008 8.494c0 .133.053.26.146.354l14.507 14.506a.5.5 0 0 0 .707 0l8.485-8.484a.5.5 0 0 0 .001-.708zm-8.839 8.131L.983 8.762.975.975H8.76l14.008 14.016-7.778 7.777z"/><path d="M5.475 2.975c-1.379 0-2.5 1.121-2.5 2.5s1.121 2.5 2.5 2.5 2.5-1.121 2.5-2.5-1.121-2.5-2.5-2.5zm0 4c-.827 0-1.5-.673-1.5-1.5s.673-1.5 1.5-1.5 1.5.673 1.5 1.5-.673 1.5-1.5 1.5z"/></svg>