<svg xmlns="http://www.w3.org/2000/svg" width="24" height="24" viewBox="0 0 24 24"><title>box</title><path d="M24 5.511v-.004c0-.004-.003-.008-.003-.013a.487.487 0 0 0-.052-.201c-.01-.021-.024-.039-.037-.059a.482.482 0 0 0-.106-.115c-.013-.009-.019-.025-.031-.033-.01-.006-.022-.005-.032-.011-.014-.008-.023-.021-.039-.027l-11.5-5a.492.492 0 0 0-.398 0l-11.5 5c-.017.007-.027.021-.043.03-.012.007-.026.006-.036.013-.013.008-.018.023-.03.033a.455.455 0 0 0-.102.113c-.014.02-.028.037-.037.058a.505.505 0 0 0-.051.199c0 .005-.003.009-.003.013v13a.5.5 0 0 0 .308.462l12 5a.51.51 0 0 0 .399-.007l11-5a.499.499 0 0 0 .293-.455V5.511zM12 1.053l10.27 4.465-3.98 1.809-9.897-4.706L12 1.053zm.491 8.91L1.776 5.499l5.399-2.348 9.922 4.718-4.606 2.094zM1 6.258l11 4.583v11.917L1 18.175V6.258zm22 11.928-10 4.545V10.829l10-4.545v11.902z"/><path d="m9.724 12.561-6-3a.5.5 0 0 0-.724.447v5a.5.5 0 0 0 .276.447l6 3a.508.508 0 0 0 .487-.022.5.5 0 0 0 .237-.425v-5a.5.5 0 0 0-.276-.447zM9 17.199l-5-2.5v-3.882l5 2.5v3.882z"/></svg>