<svg xmlns="http://www.w3.org/2000/svg" width="24" height="24" viewBox="0 0 24 24"><title>bubble-chat-typing</title><path d="M22.5 2h-21C.673 2 0 2.673 0 3.5v13c0 .827.673 1.5 1.5 1.5H3v3.5a.5.5 0 0 0 .854.354L7.708 18H22.5c.827 0 1.5-.673 1.5-1.5v-13c0-.827-.673-1.5-1.5-1.5zm.5 14.5a.5.5 0 0 1-.5.5h-15a.504.504 0 0 0-.354.146L4 20.293V17.5a.5.5 0 0 0-.5-.5h-2a.5.5 0 0 1-.5-.5v-13a.5.5 0 0 1 .5-.5h21a.5.5 0 0 1 .5.5v13z"/><path d="M8.5 9a1.001 1.001 0 0 0 0 2 1.001 1.001 0 0 0 0-2zm0 1zM16.5 9a1.001 1.001 0 0 0 0 2 1.001 1.001 0 0 0 0-2zm0 1zM12.5 9a1.001 1.001 0 0 0 0 2 1.001 1.001 0 0 0 0-2zm0 1z"/></svg>