<svg xmlns="http://www.w3.org/2000/svg" width="24" height="24" viewBox="0 0 24 24"><title>camera</title><path d="M21.444 6h-1.631l-.15-.32C19.076 4.424 18.411 3 17 3h-5c-1.071 0-1.635.777-2.658 2.189-.178.247-.374.517-.593.811H6v-.5C6 4.701 5.273 4 4.444 4H3.5c-.798 0-1.472.687-1.472 1.486l-.015.552C.377 6.22 0 7.297 0 8.223v10.388C0 20.13.932 21 2.556 21h18.889C23.068 21 24 20.13 24 18.611V8.223C24 7.209 23.557 6 21.444 6zM3.5 5h.944C4.72 5 5 5.252 5 5.5V6H3.015l.014-.5c-.001-.252.233-.5.471-.5zM23 18.611c0 .961-.48 1.389-1.556 1.389H2.556C1.48 20 1 19.572 1 18.611V8.223C1 7.489 1.255 7 2.5 7H9a.5.5 0 0 0 .4-.2c.284-.378.531-.719.752-1.024C11.108 4.457 11.466 4 12 4h5c.774 0 1.273 1.069 1.756 2.104.099.212.197.422.296.62A.503.503 0 0 0 19.5 7h1.944C22.88 7 23 7.604 23 8.223v10.388z"/><path d="M14.5 7c-3.309 0-6 2.691-6 6s2.691 6 6 6 6-2.691 6-6-2.691-6-6-6zm0 11c-2.757 0-5-2.243-5-5s2.243-5 5-5 5 2.243 5 5-2.243 5-5 5z"/><path d="M14.5 9.5c-1.93 0-3.5 1.57-3.5 3.5s1.57 3.5 3.5 3.5S18 14.93 18 13s-1.57-3.5-3.5-3.5zm0 6c-1.378 0-2.5-1.122-2.5-2.5s1.122-2.5 2.5-2.5S17 11.622 17 13s-1.122 2.5-2.5 2.5zM4 8c-1.103 0-2 .897-2 2s.897 2 2 2 2-.897 2-2-.897-2-2-2zm0 3c-.551 0-1-.449-1-1s.449-1 1-1 1 .449 1 1-.449 1-1 1z"/></svg>