<svg xmlns="http://www.w3.org/2000/svg" width="24" height="24" viewBox="0 0 24 24"><title>check-circle</title><path d="M23.782.143a.498.498 0 0 0-.703.076L8.929 17.785l-4.606-4.606a.5.5 0 0 0-.707.707l5 5a.5.5 0 0 0 .743-.04l14.5-18a.5.5 0 0 0-.077-.703z"/><path d="M18.131 12.038a.5.5 0 0 0-.376.599 8.53 8.53 0 0 1 .214 1.895c0 4.687-3.813 8.5-8.5 8.5s-8.5-3.813-8.5-8.5c0-4.687 3.813-8.5 8.5-8.5 1.326 0 2.597.298 3.778.883a.499.499 0 1 0 .444-.895 9.419 9.419 0 0 0-4.222-.988c-5.238 0-9.5 4.262-9.5 9.5s4.262 9.5 9.5 9.5 9.5-4.262 9.5-9.5c0-.71-.081-1.423-.239-2.118a.499.499 0 0 0-.599-.376z"/></svg>