<svg xmlns="http://www.w3.org/2000/svg" width="24" height="24" viewBox="0 0 24 24"><title>clock-2</title><path d="M15 12h-3V7a.5.5 0 0 0-1 0v5.5a.5.5 0 0 0 .5.5H15a.5.5 0 0 0 0-1z"/><path d="M19.5 0h-15A4.505 4.505 0 0 0 0 4.5v15C0 21.982 2.019 24 4.5 24h15c2.481 0 4.5-2.018 4.5-4.5v-15C24 2.019 21.981 0 19.5 0zM23 19.5c0 1.93-1.57 3.5-3.5 3.5h-15C2.57 23 1 21.43 1 19.5v-15C1 2.57 2.57 1 4.5 1h15C21.43 1 23 2.57 23 4.5v15z"/><path d="M12 3c-4.962 0-9 4.038-9 9s4.038 9 9 9 9-4.038 9-9-4.038-9-9-9zm0 17c-4.411 0-8-3.589-8-8s3.589-8 8-8 8 3.589 8 8-3.589 8-8 8z"/></svg>