<svg xmlns="http://www.w3.org/2000/svg" width="24" height="24" viewBox="0 0 24 24"><title>cloud</title><path d="M18.628 8.507A7.533 7.533 0 0 0 12 4.5a7.502 7.502 0 0 0-7.427 6.512C2.123 10.815 0 12.796 0 15.25c0 2.968 2.348 4.25 4.489 4.25l14.575-.004C19.114 19.489 24 18.798 24 14a5.497 5.497 0 0 0-5.372-5.493zM19 18.5H4.489C4.132 18.5 1 18.409 1 15.25a3.25 3.25 0 0 1 3.92-3.182.5.5 0 0 0 .601-.46A6.498 6.498 0 0 1 12 5.5a6.526 6.526 0 0 1 5.868 3.723c.13.275.365.289.644.282A4.497 4.497 0 0 1 23 14c0 3.912-3.899 4.482-4 4.5z"/></svg>