<svg xmlns="http://www.w3.org/2000/svg" width="24" height="24" viewBox="0 0 24 24"><title>computer-bug</title><path d="M6.528 8.449a.504.504 0 0 0 .126.386.502.502 0 0 0 .371.164h9.949a.497.497 0 0 0 .497-.55c-.164-1.635-1.076-3.047-2.359-3.943.648-.848 1.387-1.875 1.393-3.004l.004-1.001a.5.5 0 0 0-.498-.502h-.001a.5.5 0 0 0-.501.498l-.004 1.001c-.005.844-.667 1.724-1.269 2.507-.69-.315-1.443-.506-2.236-.506s-1.546.191-2.236.506c-.6-.784-1.255-1.662-1.26-2.505L8.5.499A.5.5 0 0 0 8 .001h-.002A.5.5 0 0 0 7.5.503l.004 1.001c.006 1.127.737 2.154 1.385 3.001-1.285.896-2.197 2.308-2.361 3.944zM12 4.499c2.095 0 3.924 1.498 4.387 3.5H7.613c.463-2.002 2.292-3.5 4.387-3.5zM18.25 14.001c1.065 0 1.844.788 2.668 1.623l.229.23a.502.502 0 0 0 .707.001.5.5 0 0 0 0-.707l-.225-.227c-.932-.944-1.896-1.92-3.379-1.92h-.75v-2h.75c1.065 0 1.844.788 2.668 1.623l.229.23a.502.502 0 0 0 .707.001.5.5 0 0 0 0-.707l-.225-.227c-.932-.944-1.896-1.92-3.379-1.92h-1.24L17 9.999H7l-.01.002H5.75c-1.48 0-2.441.972-3.37 1.912l-.233.235a.5.5 0 0 0 .707.707l.237-.238c.856-.867 1.596-1.616 2.659-1.616h.75v2h-.75c-1.48 0-2.441.972-3.37 1.912l-.233.235a.5.5 0 0 0 .707.707l.237-.238c.856-.867 1.596-1.616 2.659-1.616h.75v2h-.75c-1.48 0-2.441.972-3.37 1.912l-.233.235a.5.5 0 0 0 .707.707l.237-.238c.856-.867 1.596-1.616 2.659-1.616h.799c.488 2.914 4.928 6.712 5.128 6.882a.497.497 0 0 0 .646 0c.2-.17 4.64-3.968 5.128-6.882h.799c1.065 0 1.844.788 2.668 1.623l.229.23a.502.502 0 0 0 .707.001.5.5 0 0 0 0-.707l-.225-.227c-.932-.944-1.896-1.92-3.379-1.92h-.75v-2h.75zM12 22.838c-1.505-1.343-4.5-4.412-4.5-6.337v-5.502h9v5.502c0 1.923-2.995 4.993-4.5 6.337z"/></svg>