<svg xmlns="http://www.w3.org/2000/svg" width="24" height="24" viewBox="0 0 24 24"><title>computer-screen</title><path d="M22.5 2.5h-21C.673 2.5 0 3.173 0 4v13c0 .827.673 1.5 1.5 1.5H10v2H7a.5.5 0 0 0 0 1h10a.5.5 0 0 0 0-1h-3v-2h8.5c.827 0 1.5-.673 1.5-1.5V4c0-.827-.673-1.5-1.5-1.5zm-9.5 18h-2v-2h2v2zM23 17a.5.5 0 0 1-.5.5h-21A.5.5 0 0 1 1 17V4a.5.5 0 0 1 .5-.5h21a.5.5 0 0 1 .5.5v13z"/><path d="M21.5 4.5h-19A.5.5 0 0 0 2 5v11a.5.5 0 0 0 .5.5h19a.5.5 0 0 0 .5-.5V5a.5.5 0 0 0-.5-.5zm-.5 11H3v-10h18v10z"/></svg>