<svg xmlns="http://www.w3.org/2000/svg" width="24" height="24" viewBox="0 0 24 24"><title>credit-card</title><path d="M21.5 4.5h-19A2.503 2.503 0 0 0 0 7v10c0 1.378 1.121 2.5 2.5 2.5h19c1.379 0 2.5-1.122 2.5-2.5V7c0-1.378-1.121-2.5-2.5-2.5zm-19 1h19c.827 0 1.5.673 1.5 1.5v1.5H1V7c0-.827.673-1.5 1.5-1.5zm19 13h-19c-.827 0-1.5-.673-1.5-1.5V9.5h22V17c0 .827-.673 1.5-1.5 1.5z"/><path d="M20.5 11.5h-3a.5.5 0 0 0 0 1h3a.5.5 0 0 0 0-1zM11.5 11.5h-8a.5.5 0 0 0 0 1h8a.5.5 0 0 0 0-1zM6.5 13.5h-3a.5.5 0 0 0 0 1h3a.5.5 0 0 0 0-1z"/></svg>