<svg xmlns="http://www.w3.org/2000/svg" width="24" height="24" viewBox="0 0 24 24"><title>file-checklist-edit</title><path d="m23.855 14.645-2.5-2.5a.5.5 0 0 0-.707 0l-7.502 7.502a.493.493 0 0 0-.116.196c-.002.007-.009.013-.012.02l-1 3.5a.5.5 0 0 0 .619.617l3.5-1c.007-.002.011-.008.018-.011a.494.494 0 0 0 .198-.116l7.502-7.502a.497.497 0 0 0 0-.706zM16 21.793 14.207 20l4.795-4.795 1.793 1.793L16 21.793zm-2.252-.838 1.298 1.298-1.818.52.52-1.818zm7.754-4.664-1.793-1.793 1.293-1.293 1.793 1.793-1.293 1.293zM13 10H9a.5.5 0 0 0 0 1h4a.5.5 0 0 0 0-1zM13 14H9a.5.5 0 0 0 0 1h4a.5.5 0 0 0 0-1zM7.854 8.146a.5.5 0 0 0-.707 0L5 10.293 3.854 9.146a.5.5 0 0 0-.707.707l1.5 1.5a.502.502 0 0 0 .707.001l2.5-2.5a.502.502 0 0 0 0-.708zM7.146 12.161 5 14.308l-1.146-1.146a.5.5 0 0 0-.707.707l1.5 1.5a.498.498 0 0 0 .707 0l2.5-2.5a.5.5 0 0 0-.708-.708z"/><path d="M9 21H1V1h9.999L11 5.5a.5.5 0 0 0 .5.5H16v7a.5.5 0 0 0 1 0V5.5a.503.503 0 0 0-.147-.353l-5-5A.515.515 0 0 0 11.499 0H.5a.5.5 0 0 0-.5.5v21a.5.5 0 0 0 .5.5H9a.5.5 0 0 0 0-1zm2.999-19.293L15.293 5H12l-.001-3.293z"/></svg>