<svg xmlns="http://www.w3.org/2000/svg" width="24" height="24" viewBox="0 0 24 24"><title>file-view</title><path d="m23.83 23.146-2.854-2.852c.616-.771 1-1.733 1-2.794 0-2.481-2.018-4.5-4.499-4.5a4.506 4.506 0 0 0-4.501 4.5c0 2.482 2.019 4.5 4.501 4.5 1.06 0 2.022-.384 2.792-1l2.853 2.853a.5.5 0 1 0 .708-.707zM13.976 17.5c0-1.93 1.57-3.5 3.501-3.5 1.929 0 3.499 1.57 3.499 3.5s-1.57 3.5-3.499 3.5a3.504 3.504 0 0 1-3.501-3.5zM3.463 7h4.5a.5.5 0 0 0 0-1h-4.5a.5.5 0 0 0 0 1zM11.962 9.5a.5.5 0 0 0-.5-.5h-8a.5.5 0 0 0 0 1h8a.5.5 0 0 0 .5-.5zM9.963 12.5a.5.5 0 0 0-.5-.5h-6a.5.5 0 0 0 0 1h6a.5.5 0 0 0 .5-.5zM3.463 15a.5.5 0 0 0 0 1h5a.5.5 0 0 0 0-1h-5z"/><path d="M12.463 21H.975V1h10v4.5a.5.5 0 0 0 .5.5h4.5v5a.5.5 0 0 0 1 0V5.5a.499.499 0 0 0-.147-.354L11.829.147a.492.492 0 0 0-.162-.107.482.482 0 0 0-.192-.04h-11a.5.5 0 0 0-.5.5v21a.5.5 0 0 0 .5.5h11.988a.5.5 0 0 0 0-1zm-.487-19.293L15.269 5h-3.293V1.707z"/></svg>