<svg xmlns="http://www.w3.org/2000/svg" width="24" height="24" viewBox="0 0 24 24"><title>file-acrobat</title><path d="M21.961 6.308a.47.47 0 0 0-.108-.161l-5.999-6A.508.508 0 0 0 15.5 0h-13a.5.5 0 0 0-.5.5v23a.5.5 0 0 0 .5.5h19a.5.5 0 0 0 .5-.5v-17a.503.503 0 0 0-.039-.192zM16 1.707 20.293 6H16V1.707zM3 23V1h12v5.5a.5.5 0 0 0 .5.5H21v16H3z"/><path d="M16.72 12.435a12.135 12.135 0 0 0-4.016.528 12.181 12.181 0 0 1-2.606-1.88c-.209-1.95-.705-3.403-.855-3.811-.196-.528-.615-.843-1.121-.843-.489 0-.972.298-1.231.759-.271.48-.252 1.041.051 1.541a14.946 14.946 0 0 0 2.196 2.815 13.12 13.12 0 0 1-.092 3.163c-1.613 1.071-2.578 2.158-2.926 2.585-.379.468-.467 1.007-.242 1.479.228.478.756.799 1.315.799.48 0 .927-.234 1.226-.644.743-1.02 1.259-2.234 1.535-3.613a13.1 13.1 0 0 1 2.663-1.271 12.952 12.952 0 0 0 4.097 1.229c.862.1 1.478-.481 1.493-1.312.013-.729-.494-1.486-1.487-1.524zM7.796 8.209c-.114-.188-.126-.367-.034-.53.091-.161.253-.25.359-.25.031 0 .113 0 .183.19.102.273.369 1.052.585 2.151a14.556 14.556 0 0 1-1.093-1.561zM7.61 18.336c-.233.322-.708.26-.83.005-.068-.144.025-.306.116-.418.248-.304.838-.975 1.793-1.726a7.664 7.664 0 0 1-1.079 2.139zm2.526-4.287c.046-.505.064-1.025.053-1.56.411.332.84.638 1.285.916-.453.189-.899.404-1.338.644zm6.768.234-.069-.004a11.903 11.903 0 0 1-2.658-.653 10.727 10.727 0 0 1 2.504-.191c.508.019.526.425.525.507-.002.102-.035.341-.302.341z"/></svg>