<svg xmlns="http://www.w3.org/2000/svg" width="24" height="24" viewBox="0 0 24 24"><title>file-text-picture</title><path d="M21.961 6.308a.495.495 0 0 0-.108-.162L15.855.147a.492.492 0 0 0-.162-.107A.494.494 0 0 0 15.5 0h-13a.5.5 0 0 0-.5.5v23a.5.5 0 0 0 .5.5h19a.5.5 0 0 0 .5-.5v-17a.499.499 0 0 0-.039-.192zM16 1.707 20.293 6H16V1.707zM3 23V1h12v5.5a.5.5 0 0 0 .5.5H21v16H3z"/><path d="M6.5 8h5a.5.5 0 0 0 0-1h-5a.5.5 0 0 0 0 1zM6.5 11h9a.5.5 0 0 0 0-1h-9a.5.5 0 0 0 0 1zM8.5 13h-2a.5.5 0 0 0 0 1h2a.5.5 0 0 0 0-1zM8.5 16h-2a.5.5 0 0 0 0 1h2a.5.5 0 0 0 0-1zM8.5 19h-2a.5.5 0 0 0 0 1h2a.5.5 0 0 0 0-1zM17.5 13h-6a.5.5 0 0 0-.5.5v7a.5.5 0 0 0 .5.5h6a.496.496 0 0 0 .229-.062c.02-.01.035-.023.053-.036a.48.48 0 0 0 .128-.13c.008-.011.021-.017.027-.029.004-.006.002-.014.005-.02A.493.493 0 0 0 18 20.5v-7a.5.5 0 0 0-.5-.5zm-.5 1v4.744l-1.554-2.507a.5.5 0 0 0-.802-.065L12 19.212V14h5zm-4.36 6 2.314-2.66L16.602 20H12.64z"/><path d="M14 15.5a.5.5 0 1 1-1 0 .5.5 0 0 1 1 0z"/></svg>