<svg xmlns="http://www.w3.org/2000/svg" width="24" height="24" viewBox="0 0 24 24"><title>file-word</title><path d="M21.961 6.308a.47.47 0 0 0-.108-.161l-5.999-6A.508.508 0 0 0 15.5 0h-13a.5.5 0 0 0-.5.5v23a.5.5 0 0 0 .5.5h19a.5.5 0 0 0 .5-.5v-17a.503.503 0 0 0-.039-.192zM16 1.707 20.293 6H16V1.707zM3 23V1h12v5.5a.5.5 0 0 0 .5.5H21v16H3z"/><path d="M16.91 13.999c.303 0 .64.065.808.845a.5.5 0 1 0 .977-.211c-.291-1.35-1.132-1.634-1.786-1.634C15 12.999 15 15.026 15 16s0 3 1.91 3c.654 0 1.495-.283 1.786-1.635a.502.502 0 0 0-.384-.596.506.506 0 0 0-.594.384c-.168.782-.505.847-.808.847-.515 0-.91-.147-.91-2 0-1.854.395-2.001.91-2.001zM12 13c-2 0-2 2.103-2 3 0 .898 0 3 2 3s2-2.102 2-3c0-.897 0-3-2-3zm0 5c-.547 0-1-.15-1-2s.453-2 1-2 1 .15 1 2-.453 2-1 2zM6.5 13h-1a.5.5 0 0 0-.5.5v5a.5.5 0 0 0 .5.5h1C7.925 19 9 17.71 9 16s-1.075-3-2.5-3zm0 5H6v-4h.5c.869 0 1.5.841 1.5 2s-.631 2-1.5 2z"/></svg>