<svg xmlns="http://www.w3.org/2000/svg" width="24" height="24" viewBox="0 0 24 24"><title>file-favorite-star</title><path d="M23.695 16.312a.502.502 0 0 0-.47-.33h-3.19l-1.854-3.723c-.17-.339-.726-.339-.896 0l-1.854 3.723h-3.206a.499.499 0 0 0-.319.885l2.751 2.281-1.406 4.175a.498.498 0 0 0 .172.558.497.497 0 0 0 .584.015l3.725-2.546 3.71 2.545a.506.506 0 0 0 .584-.014.498.498 0 0 0 .173-.558l-1.392-4.176 2.738-2.281a.498.498 0 0 0 .15-.554zm-3.79 2.286a.501.501 0 0 0-.154.543l1.029 3.086-2.764-1.896a.495.495 0 0 0-.565-.001l-2.775 1.897 1.039-3.085a.5.5 0 0 0-.154-.544l-1.949-1.616h2.129a.501.501 0 0 0 .448-.277l1.544-3.102 1.544 3.102c.085.17.259.277.448.277h2.119l-1.939 1.616z"/><path d="M16.233 9.982a.5.5 0 0 0 1 0v-4.5a.5.5 0 0 0-.03-.151c-.004-.013-.003-.027-.008-.039a.502.502 0 0 0-.115-.169L12.087.128a.499.499 0 0 0-.354-.146h-11a.5.5 0 0 0-.5.5v21a.5.5 0 0 0 .5.5h10a.5.5 0 0 0 0-1h-9.5v-20h10v4.5a.5.5 0 0 0 .5.5h4.5v4zm-4-8.292 3.291 3.292h-3.291V1.69z"/></svg>