<svg xmlns="http://www.w3.org/2000/svg" width="24" height="24" viewBox="0 0 24 24"><title>folder-add</title><path d="M17.5 11c-3.584 0-6.5 2.916-6.5 6.5s2.916 6.5 6.5 6.5 6.5-2.916 6.5-6.5-2.916-6.5-6.5-6.5zm0 12c-3.033 0-5.5-2.467-5.5-5.5s2.467-5.5 5.5-5.5 5.5 2.467 5.5 5.5-2.467 5.5-5.5 5.5z"/><path d="M20 17h-2v-2a.5.5 0 0 0-1 0v2h-2a.5.5 0 0 0 0 1h2v2a.5.5 0 0 0 1 0v-2h2a.5.5 0 0 0 0-1zM9 17H3.722c.172-.296.278-.635.278-1V5h16v4a.5.5 0 0 0 1 0V4.5a.5.5 0 0 0-.5-.5H19V2.5a.5.5 0 0 0-.5-.5H6V.5a.5.5 0 0 0-.5-.5h-5a.5.5 0 0 0-.5.5V16c0 1.103.897 2 2 2h7a.5.5 0 0 0 0-1zm-8-1V1h4v1.5a.5.5 0 0 0 .5.5H18v1H3.5a.5.5 0 0 0-.5.5V16c0 .551-.449 1-1 1s-1-.449-1-1z"/></svg>