<svg xmlns="http://www.w3.org/2000/svg" width="24" height="24" viewBox="0 0 24 24"><title>folder-view</title><path d="m23.829 23.146-2.854-2.853c.616-.77 1-1.733 1-2.793 0-2.481-2.018-4.5-4.499-4.5-2.482 0-4.501 2.018-4.501 4.5s2.019 4.5 4.501 4.5c1.06 0 2.022-.384 2.792-1l2.854 2.853a.495.495 0 0 0 .707 0 .5.5 0 0 0 0-.707zM13.975 17.5c0-1.93 1.57-3.5 3.501-3.5 1.929 0 3.499 1.57 3.499 3.5s-1.57 3.5-3.499 3.5a3.505 3.505 0 0 1-3.501-3.5z"/><path d="M9.475 17H3.697c.172-.296.278-.635.278-1V5h16v4.5a.5.5 0 0 0 1 0v-5a.5.5 0 0 0-.5-.5h-1.5V2.5a.5.5 0 0 0-.5-.5h-12.5V.5a.5.5 0 0 0-.5-.5h-5a.5.5 0 0 0-.5.5V16c0 1.103.897 2 2 2h7.5a.5.5 0 0 0 0-1zm-8.5-1V1h4v1.5a.5.5 0 0 0 .5.5h12.5v1h-14.5a.5.5 0 0 0-.5.5V16c0 .551-.449 1-1 1s-1-.449-1-1z"/></svg>