<svg xmlns="http://www.w3.org/2000/svg" width="24" height="24" viewBox="0 0 24 24"><title>gauge</title><path d="M18.364 9.136a.5.5 0 0 0-.707 0l-4.648 4.647A1.97 1.97 0 0 0 12 13.5c-1.103 0-2 .897-2 2s.897 2 2 2 2-.897 2-2c0-.37-.108-.712-.283-1.009l4.647-4.647a.5.5 0 0 0 0-.708zM12 16.5c-.551 0-1-.449-1-1s.449-1 1-1 1 .449 1 1-.449 1-1 1zM4.5 15.5h-2a.5.5 0 0 0 0 1h2a.5.5 0 0 0 0-1zM19 16a.5.5 0 0 0 .5.5h2a.5.5 0 0 0 0-1h-2a.5.5 0 0 0-.5.5zM18.467 12.821a.501.501 0 0 0 .653.271l1.848-.765a.501.501 0 0 0-.382-.925l-1.848.765a.5.5 0 0 0-.271.654zM14.679 9.033a.5.5 0 0 0 .653-.27l.765-1.848a.5.5 0 0 0-.924-.382l-.765 1.848a.5.5 0 0 0 .271.652zM12 8.5a.5.5 0 0 0 .5-.5V6a.5.5 0 0 0-1 0v2a.5.5 0 0 0 .5.5zM8.827 6.532a.5.5 0 0 0-.924.383l.765 1.848a.5.5 0 0 0 .924-.383l-.765-1.848zM5.637 8.429a.5.5 0 1 0-.708.706l1.412 1.415a.5.5 0 1 0 .708-.706L5.637 8.429zM5.262 12.168l-1.847-.765c-.253-.104-.548.016-.653.271s.016.548.271.654l1.847.765a.5.5 0 1 0 .382-.925z"/><path d="M12 3.5c-6.617 0-12 5.383-12 12V20a.5.5 0 0 0 .5.5h23a.5.5 0 0 0 .5-.5v-4.5c0-6.617-5.383-12-12-12zm11 16H1v-4c0-6.065 4.935-11 11-11s11 4.935 11 11v4z"/></svg>