<svg xmlns="http://www.w3.org/2000/svg" width="24" height="24" viewBox="0 0 24 24"><title>globe</title><path d="M12.005 0c-.175 0-.349.003-.52.011C4.938.275 0 5.322 0 11.75 0 18.505 5.369 24 11.968 24 18.603 24 24 18.598 24 11.957 24 5.364 18.619 0 12.005 0zM1.012 12h5.545c.057 1.647.364 3.321.921 5H2.275a11.394 11.394 0 0 1-1.263-5zm5.539-1H1.036c.123-1.844.69-3.544 1.612-5h4.869a15.602 15.602 0 0 0-.966 5zm1.996-5h6.916c.65 1.61.99 3.286 1.042 5h-9c.051-1.714.391-3.39 1.042-5zM7.51 12h8.99c-.062 1.642-.388 3.314-.99 5H8.5c-.603-1.686-.929-3.358-.99-5zm9.942 0h5.546a10.96 10.96 0 0 1-1.228 5h-5.24c.558-1.679.865-3.353.922-5zm.006-1a15.602 15.602 0 0 0-.966-5h4.728a10.841 10.841 0 0 1 1.731 5h-5.493zm3.034-6h-4.409a17.508 17.508 0 0 0-2.386-3.856A11.001 11.001 0 0 1 20.492 5zm-8.215-3.985A17.328 17.328 0 0 1 15.004 5H9.006a17.347 17.347 0 0 1 2.734-3.994c.088-.002.176-.006.265-.006.092 0 .181.012.272.015zm-1.946.108A17.452 17.452 0 0 0 7.927 5H3.359c1.67-2.058 4.117-3.473 6.972-3.877zM2.854 18h4.981c.64 1.636 1.52 3.27 2.634 4.883C7.302 22.436 4.56 20.608 2.854 18zm8.91 4.99c-1.222-1.658-2.172-3.327-2.87-4.99h6.22c-.697 1.662-1.647 3.33-2.867 4.986-.094.003-.185.014-.279.014-.07 0-.136-.009-.204-.01zm1.78-.115c1.111-1.61 1.99-3.242 2.628-4.875h5.019a11.04 11.04 0 0 1-7.647 4.875z"/></svg>