<svg xmlns="http://www.w3.org/2000/svg" width="24" height="24" viewBox="0 0 24 24"><title>graph-pie</title><path d="M13.5 11h10a.5.5 0 0 0 .5-.5C24 4.71 19.29 0 13.5 0a.5.5 0 0 0-.5.5v10a.5.5 0 0 0 .5.5zm.5-9.987c4.841.252 8.734 4.146 8.987 8.987H14V1.013zM23.5 12h-10a.5.5 0 0 0-.354.853l7.071 7.071a.498.498 0 0 0 .708 0A10.428 10.428 0 0 0 24 12.5a.5.5 0 0 0-.5-.5zm-2.938 6.855L14.707 13h8.28a9.422 9.422 0 0 1-2.425 5.855z"/><path d="M11 13.293V3.5a.5.5 0 0 0-.5-.5C4.71 3 0 7.71 0 13.5 0 20.073 5.383 24 10.588 24c2.748 0 5.354-1.092 7.337-3.076a.5.5 0 0 0 0-.707L11 13.293zM10.588 23C5.875 23 1 19.447 1 13.5c0-5.07 3.993-9.226 9-9.487V13.5c0 .133.053.26.146.354l6.709 6.709C15.112 22.139 12.905 23 10.588 23z"/></svg>