<svg xmlns="http://www.w3.org/2000/svg" width="24" height="24" viewBox="0 0 24 24"><title>group-add</title><path d="M23.511 3.5H20.99V1a.5.5 0 0 0-1 0v2.5h-2.479a.5.5 0 0 0 0 1h2.479v2.516a.5.5 0 0 0 1 0V4.5h2.521a.5.5 0 0 0 0-1zM14.1 18.808l-3.61-1.292v-1.45c1.174-.944 1.947-2.532 1.947-4.33 0-2.887-1.995-5.236-4.447-5.236s-4.447 2.349-4.447 5.236c0 1.797.773 3.385 1.947 4.33v1.45l-3.61 1.292a2.873 2.873 0 0 0-1.89 2.704V23a.5.5 0 0 0 .5.5h15a.5.5 0 0 0 .5-.5v-1.488a2.874 2.874 0 0 0-1.89-2.704zM7.989 7.5c1.657 0 3.043 1.445 3.372 3.363-1.058.184-1.705-.171-2.345-1.292a.489.489 0 0 0-.444-.253.502.502 0 0 0-.434.269c-.342.658-1.547 1.256-2.528 1.256a2.69 2.69 0 0 1-.943-.177C5.055 8.85 6.39 7.5 7.989 7.5zm-3.444 4.193c.336.097.685.15 1.065.15 1.064 0 2.228-.487 2.935-1.17.634.838 1.381 1.237 2.324 1.237.176 0 .367-.029.558-.057-.053 2.284-1.57 4.124-3.438 4.124-1.871 0-3.464-1.869-3.444-4.284zM14.989 22.5h-14v-.988a1.87 1.87 0 0 1 1.227-1.762l3.941-1.412a.5.5 0 0 0 .332-.471v-1.219c.471.2.971.328 1.5.328s1.029-.128 1.5-.328v1.219c0 .211.133.399.332.471l3.941 1.412a1.87 1.87 0 0 1 1.227 1.762v.988z"/><path d="m20.1 18.808-3.61-1.292v-1.45c1.174-.944 1.947-2.532 1.947-4.33 0-2.608-1.817-5.236-4.447-5.236a.5.5 0 0 0 0 1c1.657 0 3.043 1.445 3.372 3.363-1.058.184-1.705-.171-2.345-1.292a.5.5 0 1 0-.868.496c.717 1.254 1.574 1.845 2.721 1.845.176 0 .367-.029.558-.057-.053 2.282-1.569 4.122-3.438 4.122a.5.5 0 0 0 0 1c.529 0 1.029-.128 1.5-.328v1.219c0 .211.133.399.332.471l3.941 1.412c.734.262 1.227.97 1.227 1.761v.988h-2.969a.5.5 0 0 0 0 1h3.469a.5.5 0 0 0 .5-.5v-1.488a2.874 2.874 0 0 0-1.89-2.704z"/></svg>