<svg xmlns="http://www.w3.org/2000/svg" width="24" height="24" viewBox="0 0 24 24"><title>headphone</title><path d="M24 15.5c0-1.207-.86-2.217-2-2.449V12.5c0-1.379-1.122-2.5-2.5-2.5h-.025C19.216 6.098 15.967 3 12 3s-7.216 3.098-7.475 7H4.5A2.503 2.503 0 0 0 2 12.5v.551c-1.14.232-2 1.242-2 2.449s.86 2.217 2 2.449v.551C2 19.879 3.122 21 4.5 21h2a.5.5 0 0 0 .5-.5v-10a.5.5 0 0 0-.5-.5h-.975C5.782 6.649 8.585 4 12 4s6.218 2.649 6.475 6H17.5a.5.5 0 0 0-.5.5v10a.5.5 0 0 0 .5.5h2c1.378 0 2.5-1.121 2.5-2.5v-.551c1.14-.232 2-1.242 2-2.449zm-23 0c0-.65.419-1.201 1-1.408v2.816c-.581-.207-1-.758-1-1.408zM6 20H4.5c-.827 0-1.5-.673-1.5-1.5v-6c0-.827.673-1.5 1.5-1.5H6v9zm15-1.5c0 .827-.673 1.5-1.5 1.5H18v-9h1.5c.827 0 1.5.673 1.5 1.5v6zm1-1.592v-2.816c.581.207 1 .758 1 1.408s-.419 1.201-1 1.408z"/></svg>