<svg xmlns="http://www.w3.org/2000/svg" width="24" height="24" viewBox="0 0 24 24"><title>help-circle</title><path d="M12 .5C5.659.5.5 5.659.5 12S5.659 23.5 12 23.5 23.5 18.341 23.5 12 18.341.5 12 .5zm0 22C6.21 22.5 1.5 17.79 1.5 12S6.21 1.5 12 1.5 22.5 6.21 22.5 12 17.79 22.5 12 22.5z"/><path d="M12 6c-1.93 0-3.5 1.57-3.5 3.5a.5.5 0 0 0 1 0C9.5 8.122 10.621 7 12 7s2.5 1.122 2.5 2.5S13.379 12 12 12a.5.5 0 0 0-.5.5v3a.5.5 0 0 0 1 0v-2.535a3.506 3.506 0 0 0 3-3.465C15.5 7.57 13.93 6 12 6zM13 18a1 1 0 1 1-2 0 1 1 0 0 1 2 0z"/></svg>