<svg xmlns="http://www.w3.org/2000/svg" width="24" height="24" viewBox="0 0 24 24"><title>hierarchy</title><path d="M23.5 14H21v-2.5a.5.5 0 0 0-.5-.5h-7.979V9.999h4a.5.5 0 0 0 .5-.5v-9a.5.5 0 0 0-.5-.5h-9a.5.5 0 0 0-.5.5v9a.5.5 0 0 0 .5.5h4V11H3.5a.5.5 0 0 0-.5.5V14H.5a.5.5 0 0 0-.5.5v9a.5.5 0 0 0 .5.5h9a.5.5 0 0 0 .5-.5v-9a.5.5 0 0 0-.5-.5H4v-2h16v2h-5.5a.5.5 0 0 0-.5.5v9a.5.5 0 0 0 .5.5h9a.5.5 0 0 0 .5-.5v-9a.5.5 0 0 0-.5-.5zM8.021.999h8v8h-8v-8zM9 23H1v-8h8v8zm14 0h-8v-8h8v8z"/><path d="M15.5 2.499a.5.5 0 0 0-.5-.5h-5a.5.5 0 0 0 0 1h5a.5.5 0 0 0 .5-.5zM16 16.5a.5.5 0 0 0 .5.5h5a.5.5 0 0 0 0-1h-5a.5.5 0 0 0-.5.5zM2 16.5a.5.5 0 0 0 .5.5h5a.5.5 0 0 0 0-1h-5a.5.5 0 0 0-.5.5z"/></svg>