<svg xmlns="http://www.w3.org/2000/svg" width="24" height="24" viewBox="0 0 24 24"><title>home</title><path d="M20.5 13.024a.5.5 0 0 0-.5.5v9h-5v-6.5a.5.5 0 0 0-.5-.5h-5a.5.5 0 0 0-.5.5v6.5H4v-9.5a.5.5 0 0 0-1 0v10a.5.5 0 0 0 .5.5h6a.5.5 0 0 0 .5-.5v-6.5h4v6.5a.5.5 0 0 0 .5.5h6a.5.5 0 0 0 .5-.5v-9.5a.5.5 0 0 0-.5-.5z"/><path d="m23.854 12.171-11.5-11.5a.5.5 0 0 0-.707 0l-11.5 11.5a.5.5 0 0 0 .707.707L12 1.732l11.146 11.146a.498.498 0 0 0 .708 0 .5.5 0 0 0 0-.707zM16 2.524h3v3a.5.5 0 0 0 1 0v-3.5a.5.5 0 0 0-.5-.5H16a.5.5 0 0 0 0 1z"/></svg>