<svg xmlns="http://www.w3.org/2000/svg" width="24" height="24" viewBox="0 0 24 24"><title>layers</title><path d="M20.5 15a.5.5 0 0 0-.5.5V17H4V7h.5a.5.5 0 0 0 0-1h-1a.5.5 0 0 0-.5.5v11a.5.5 0 0 0 .5.5h17a.5.5 0 0 0 .5-.5v-2a.5.5 0 0 0-.5-.5z"/><path d="M23.5 2h-17a.5.5 0 0 0-.5.5v11a.5.5 0 0 0 .5.5h17a.5.5 0 0 0 .5-.5v-11a.5.5 0 0 0-.5-.5zM23 13H7V3h16v10z"/><path d="M17.5 19a.5.5 0 0 0-.5.5V21H1V11h.5a.5.5 0 0 0 0-1h-1a.5.5 0 0 0-.5.5v11a.5.5 0 0 0 .5.5h17a.5.5 0 0 0 .5-.5v-2a.5.5 0 0 0-.5-.5z"/></svg>