<svg xmlns="http://www.w3.org/2000/svg" width="24" height="24" viewBox="0 0 24 24"><title>leaf</title><path d="M23.049 1.236a.5.5 0 0 0-.408-.144c-.688.076-16.885 1.94-20.552 9.728-1.298 2.756-.842 5.902 1.319 9.35l-.566.566a.5.5 0 0 0 .708.708l.562-.562c2.152 1.35 4.202 2.042 6.096 2.042 10.526 0 12.89-20.409 12.985-21.278a.506.506 0 0 0-.144-.41zM10.207 21.923c-1.648 0-3.453-.6-5.37-1.768l2.565-2.565h4.794a.5.5 0 0 0 0-1H8.402l3-3h3.294a.5.5 0 0 0 0-1h-2.294l3-3h1.294a.5.5 0 0 0 0-1h-1v-1a.5.5 0 0 0-1 0v1.291l-3 3.001V9.59a.5.5 0 0 0-1 0v3.292l-3 3.001V12.09a.5.5 0 0 0-1 0v4.793l-2.56 2.561c-1.864-3.062-2.261-5.82-1.142-8.196 3.037-6.456 16.08-8.65 19.121-9.078-.485 3.449-3.245 19.753-11.908 19.753z"/></svg>