<svg xmlns="http://www.w3.org/2000/svg" width="24" height="24" viewBox="0 0 24 24"><title>lightbulb</title><path d="M12 5a6.508 6.508 0 0 0-6.5 6.5 6.494 6.494 0 0 0 4.5 6.179v.821a.5.5 0 0 0 .5.5h3a.5.5 0 0 0 .5-.5v-.821a6.493 6.493 0 0 0 4.5-6.179C18.5 7.916 15.584 5 12 5zm1.375 11.819a.5.5 0 0 0-.375.484V18h-2v-.697a.5.5 0 0 0-.375-.484A5.493 5.493 0 0 1 6.5 11.5C6.5 8.467 8.968 6 12 6s5.5 2.467 5.5 5.5a5.495 5.495 0 0 1-4.125 5.319zM12.5 22h-1a.5.5 0 0 0 0 1h1a.5.5 0 0 0 0-1zM13.5 20h-3a.5.5 0 0 0 0 1h3a.5.5 0 0 0 0-1zM12 4a.5.5 0 0 0 .5-.5v-2a.5.5 0 0 0-1 0v2a.5.5 0 0 0 .5.5zM22 11h-2a.5.5 0 0 0 0 1h2a.5.5 0 0 0 0-1zM4 11H2a.5.5 0 0 0 0 1h2a.5.5 0 0 0 0-1zM5.989 6.197a.498.498 0 0 0 .708 0 .5.5 0 0 0 0-.707L4.574 3.368a.5.5 0 0 0-.707.707l2.122 2.122zM17.655 6.344a.502.502 0 0 0 .354-.146l2.122-2.122a.5.5 0 0 0-.707-.707l-2.122 2.123a.5.5 0 0 0 .353.852z"/></svg>