<svg xmlns="http://www.w3.org/2000/svg" width="24" height="24" viewBox="0 0 24 24"><title>link</title><path d="m12.001 16.413-3.183 3.182c-.944.944-2.592.944-3.536 0l-.707-.706c-.472-.472-.732-1.1-.732-1.768s.26-1.295.732-1.767l4.597-4.597a2.503 2.503 0 0 1 3.536 0l.707.708a.5.5 0 0 0 .707-.707l-.707-.708a3.504 3.504 0 0 0-4.95 0l-4.597 4.597c-.661.66-1.025 1.539-1.025 2.474s.364 1.814 1.025 2.475l.707.706a3.478 3.478 0 0 0 2.476 1.025c.935 0 1.814-.364 2.475-1.025l3.183-3.182a.5.5 0 0 0-.708-.707z"/><path d="m20.132 4.744-.707-.707a3.504 3.504 0 0 0-4.949 0l-3.182 3.181a.5.5 0 0 0 .707.707l3.182-3.181a2.503 2.503 0 0 1 3.535 0l.707.707c.472.472.732 1.1.732 1.768s-.26 1.296-.732 1.768l-4.596 4.596c-.473.473-1.1.733-1.768.733-.667 0-1.294-.26-1.766-.732a.5.5 0 0 0-.708.706 3.472 3.472 0 0 0 2.474 1.026c.935 0 1.814-.364 2.475-1.026l4.596-4.596c.661-.661 1.025-1.54 1.025-2.475s-.364-1.814-1.025-2.475z"/></svg>