<svg xmlns="http://www.w3.org/2000/svg" width="24" height="24" viewBox="0 0 24 24"><title>location-pin</title><path d="M12 0C6.584 0 2.5 4.299 2.5 10c0 7.173 8.832 13.634 9.207 13.905.087.064.19.095.293.095s.206-.031.293-.095C12.668 23.634 21.5 17.173 21.5 10c0-5.701-4.084-10-9.5-10zm0 22.873C10.472 21.69 3.5 15.961 3.5 10c0-5.131 3.654-9 8.5-9s8.5 3.869 8.5 9c0 5.961-6.972 11.69-8.5 12.873z"/><path d="M12 4C8.967 4 6.5 6.467 6.5 9.5S8.967 15 12 15s5.5-2.467 5.5-5.5S15.033 4 12 4zm0 10a4.505 4.505 0 0 1-4.5-4.5C7.5 7.019 9.519 5 12 5s4.5 2.019 4.5 4.5c0 2.482-2.019 4.5-4.5 4.5z"/></svg>