<svg xmlns="http://www.w3.org/2000/svg" width="24" height="24" viewBox="0 0 24 24"><title>logo-twitter-bird</title><path d="M23.222 5.334c-.814.363-1.5.375-2.227.016.938-.562.981-.957 1.32-2.019-.878.521-1.851.9-2.886 1.104a4.545 4.545 0 0 0-7.743 4.145A12.897 12.897 0 0 1 2.32 3.832a4.525 4.525 0 0 0-.615 2.285c0 1.577.803 2.967 2.021 3.782a4.527 4.527 0 0 1-2.057-.568l-.001.057a4.547 4.547 0 0 0 3.646 4.456 4.575 4.575 0 0 1-2.053.079 4.551 4.551 0 0 0 4.245 3.155 9.138 9.138 0 0 1-6.728 1.881A12.865 12.865 0 0 0 7.744 21c8.358 0 12.928-6.924 12.928-12.929 0-.198-.003-.393-.012-.588.887-.64 1.953-1.237 2.562-2.149z"/></svg>