<svg xmlns="http://www.w3.org/2000/svg" width="24" height="24" viewBox="0 0 24 24"><title>logo-instagram</title><path d="M12 2.162c-3.204 0-3.584.012-4.849.07-1.366.062-2.633.336-3.608 1.311S2.294 5.785 2.232 7.151c-.058 1.265-.07 1.645-.07 4.849s.012 3.584.07 4.849c.062 1.366.336 2.633 1.311 3.608s2.242 1.249 3.608 1.311c1.265.058 1.645.07 4.849.07s3.584-.012 4.849-.07c1.366-.062 2.633-.336 3.608-1.311s1.249-2.242 1.311-3.608c.058-1.265.07-1.645.07-4.849s-.012-3.584-.07-4.849c-.062-1.366-.336-2.633-1.311-3.608s-2.242-1.249-3.608-1.311c-1.265-.058-1.645-.07-4.849-.07zM12 0c3.259 0 3.668.014 4.948.072 1.95.089 3.663.567 5.038 1.942s1.853 3.088 1.942 5.038C23.986 8.332 24 8.741 24 12s-.014 3.668-.072 4.948c-.089 1.95-.567 3.663-1.942 5.038s-3.088 1.853-5.038 1.942c-1.28.058-1.689.072-4.948.072s-3.668-.014-4.948-.072c-1.95-.089-3.663-.567-5.038-1.942S.161 18.898.072 16.948C.014 15.668 0 15.259 0 12s.014-3.668.072-4.948c.089-1.95.567-3.663 1.942-5.038S5.102.161 7.052.072C8.332.014 8.741 0 12 0zm0 5.838a6.162 6.162 0 1 0 0 12.324 6.162 6.162 0 0 0 0-12.324zM12 16a4 4 0 1 1 0-8 4 4 0 0 1 0 8zm6.406-8.966a1.44 1.44 0 1 0 0-2.88 1.44 1.44 0 0 0 0 2.88z"/></svg>