<svg xmlns="http://www.w3.org/2000/svg" width="24" height="24" viewBox="0 0 24 24"><title>logo-slide-share</title><path d="M11.548 17.947c1.548 0-.452 5.473 3.548 5.473 2.206 0 5.729-2.523 3.489-6.532-.715-1.278 3.853-2.529 3.853-4.388-1.082.463-4.145 1.83-8.121 1.825-2.296-.002-2.768 1.086-2.768 1.086s-.472-1.088-2.769-1.086c-3.977.005-7.234-1.392-8.316-1.854 0 1.859 4.764 3.139 4.049 4.417C2.27 20.896 5.794 23.42 8 23.42c4 0 2-5.473 3.548-5.473z"/><path d="M11.5 11.396a4.025 4.025 0 0 1-2.407 1.949c1.147.053 1.94.34 2.453.675.501-.329 1.271-.612 2.376-.671a4.02 4.02 0 0 1-2.422-1.953z"/><path d="M18.5.5h-14a2 2 0 0 0-2 2v9.693a20.63 20.63 0 0 0 3.877.955A4 4 0 0 1 4 9.5c0-2.205 1.794-4 4-4 1.516 0 2.822.857 3.5 2.103C12.178 6.357 13.484 5.5 15 5.5c2.206 0 4 1.795 4 4a4.002 4.002 0 0 1-2.403 3.663 19.234 19.234 0 0 0 3.903-.967V2.5a2 2 0 0 0-2-2z"/><path d="M18 9.5a3 3 0 1 1-6 0 3 3 0 0 1 6 0zM11 9.5a3 3 0 1 1-6 0 3 3 0 0 1 6 0z"/></svg>