<svg xmlns="http://www.w3.org/2000/svg" width="24" height="24" viewBox="0 0 24 24"><title>map-pin</title><path d="m15 1.487 6 4.286v4.742a.5.5 0 0 0 1 0v-5a.5.5 0 0 0-.209-.407l-7-5c-.009-.006-.021-.003-.03-.01-.077-.048-.163-.083-.261-.083s-.184.035-.261.083c-.009.006-.021.003-.03.01L7.5 4.901.791.108A.498.498 0 0 0 0 .515v16a.5.5 0 0 0 .209.407l7 5c.009.007.021.004.03.01.077.048.163.083.261.083s.184-.035.261-.083c.009-.006.021-.003.03-.01l6-4.286a.5.5 0 0 0-.581-.814L8 20.544V5.772l6-4.286v9.029a.5.5 0 0 0 1 0V1.487zm-14 0 6 4.286v14.771l-6-4.285V1.487z"/><path d="M19.5 12.015a4.505 4.505 0 0 0-4.5 4.5c0 2.323 3.695 6.816 4.116 7.32a.5.5 0 0 0 .768 0c.421-.504 4.116-4.997 4.116-7.32 0-2.481-2.019-4.5-4.5-4.5zm0 10.707c-1.245-1.566-3.5-4.715-3.5-6.207 0-1.93 1.57-3.5 3.5-3.5s3.5 1.57 3.5 3.5c0 1.491-2.256 4.64-3.5 6.207z"/><path d="M19.5 14.515c-1.103 0-2 .897-2 2s.897 2 2 2 2-.897 2-2-.897-2-2-2zm0 3c-.551 0-1-.449-1-1s.449-1 1-1 1 .449 1 1-.449 1-1 1z"/></svg>