<svg xmlns="http://www.w3.org/2000/svg" width="24" height="24" viewBox="0 0 24 24"><title>medical-box</title><path d="M16.5 12H14V9.5a.5.5 0 0 0-.5-.5h-3a.5.5 0 0 0-.5.5V12H7.5a.5.5 0 0 0-.5.5v3a.5.5 0 0 0 .5.5H10v2.5a.5.5 0 0 0 .5.5h3a.5.5 0 0 0 .5-.5V16h2.5a.5.5 0 0 0 .5-.5v-3a.5.5 0 0 0-.5-.5zm-.5 3h-2.5a.5.5 0 0 0-.5.5V18h-2v-2.5a.5.5 0 0 0-.5-.5H8v-2h2.5a.5.5 0 0 0 .5-.5V10h2v2.5a.5.5 0 0 0 .5.5H16v2z"/><path d="M21.5 5H16V4c0-1.104-.897-2-2-2h-4c-1.103 0-2 .896-2 2v1H2.5A2.503 2.503 0 0 0 0 7.5v12C0 20.878 1.121 22 2.5 22h19c1.379 0 2.5-1.122 2.5-2.5v-12C24 6.122 22.879 5 21.5 5zM9 4c0-.551.448-1 1-1h4c.552 0 1 .449 1 1v1H9V4zm14 15.5c0 .827-.673 1.5-1.5 1.5h-19c-.827 0-1.5-.673-1.5-1.5v-12C1 6.673 1.673 6 2.5 6h19c.827 0 1.5.673 1.5 1.5v12z"/></svg>