<svg xmlns="http://www.w3.org/2000/svg" width="24" height="24" viewBox="0 0 24 24"><title>mobile-phone-portrait</title><path d="M16.5 0h-9A2.503 2.503 0 0 0 5 2.5v19C5 22.879 6.122 24 7.5 24h9c1.378 0 2.5-1.121 2.5-2.5v-19C19 1.121 17.879 0 16.5 0zM6 5h12v14H6V5zm1.5-4h9c.828 0 1.5.673 1.5 1.5V4H6V2.5C6 1.673 6.673 1 7.5 1zm9 22h-9c-.827 0-1.5-.673-1.5-1.5V20h12v1.5c0 .827-.672 1.5-1.5 1.5z"/><path d="M9.5 3h5a.5.5 0 1 0 0-1h-5a.5.5 0 0 0 0 1zM12 20.5a1.001 1.001 0 0 0 0 2 1.001 1.001 0 0 0 0-2zm0 1.5v-.5h.001L12 22z"/></svg>