<svg xmlns="http://www.w3.org/2000/svg" width="24" height="24" viewBox="0 0 24 24"><title>network-user</title><path d="M24 11.479C23.735 5.313 18.883.439 12.803.04a.48.48 0 0 0-.1-.005C12.469.021 12.237 0 12 0c-.234 0-.464.021-.695.035a.482.482 0 0 0-.114.006C5.149.447.331 5.334.03 11.403c-.007.032-.02.062-.02.097 0 .021.009.038.012.058C.017 11.706 0 11.851 0 12c0 2.054.522 3.988 1.436 5.684.008.021.022.037.033.057 1.932 3.541 5.59 6.014 9.883 6.243l.026.001a.486.486 0 0 0 .271-.09c.009-.006.021-.003.029-.01.008-.006.012-.015.019-.021.028-.023.05-.052.072-.08.017-.022.035-.043.048-.067.016-.028.022-.06.032-.091s.02-.061.022-.093c.001-.008.006-.014.006-.021.001-.023-.008-.044-.01-.065-.003-.036-.005-.071-.016-.105a.422.422 0 0 0-.043-.091c-.012-.021-.016-.045-.03-.064-1.293-1.726-2.288-3.46-3.019-5.187h3.256a.5.5 0 0 0 0-1H8.358c-.611-1.688-.946-3.359-1.019-5H23.521c.032-.002.061-.016.091-.022.031-.008.063-.011.092-.022.029-.014.052-.035.078-.053.026-.02.055-.034.077-.058.023-.023.037-.053.055-.081.017-.025.037-.049.049-.079.014-.033.016-.069.021-.106.004-.027.016-.052.016-.079l-.002-.01.002-.011zM1.051 11a10.917 10.917 0 0 1 1.741-5h4.52a15.495 15.495 0 0 0-.938 5H1.051zm7.288-5h7.321a14.33 14.33 0 0 1 .997 5h-9.33c.04-1.717.37-3.393 1.012-5zm8.364 0h4.523a10.933 10.933 0 0 1 1.726 5h-5.296a15.354 15.354 0 0 0-.953-5zm3.792-1h-4.201a17.421 17.421 0 0 0-2.356-3.822A10.96 10.96 0 0 1 20.495 5zm-7.996-3.976c1.137 1.259 2.036 2.587 2.71 3.976H8.793a17.024 17.024 0 0 1 2.708-3.975c.166-.007.33-.025.499-.025.168 0 .332.017.499.024zm-2.439.158A17.187 17.187 0 0 0 7.716 5H3.521a10.996 10.996 0 0 1 6.539-3.818zm.282 21.695A10.989 10.989 0 0 1 2.78 18h4.919c.645 1.632 1.529 3.264 2.643 4.877zM7.336 17H2.203A10.97 10.97 0 0 1 1 12h5.387c.067 1.646.383 3.319.949 5z"/><path d="m22.661 21.242-2.161-.619v-.804c.904-.679 1.5-1.8 1.5-3.069 0-2.067-1.57-3.75-3.5-3.75S15 14.683 15 16.75c0 1.27.596 2.391 1.5 3.069v.804l-2.161.619C13.588 21.457 13 22.229 13 23v.5a.5.5 0 0 0 .5.5h10a.5.5 0 0 0 .5-.5V23c0-.771-.588-1.543-1.339-1.758zM18.5 14c1.126 0 2.068.827 2.381 1.955a1.282 1.282 0 0 1-.586.044c-.229-.034-.648-.152-.872-.569a.503.503 0 0 0-.368-.258.519.519 0 0 0-.426.142c-.726.726-1.808.786-2.479.532C16.492 14.774 17.411 14 18.5 14zm-2.49 2.855c.883.26 2.004.146 2.892-.472.324.319.757.532 1.248.604a2.256 2.256 0 0 0 .831-.028c-.1 1.416-1.167 2.539-2.48 2.539-1.347.002-2.439-1.176-2.491-2.643zM14 23c0-.319.299-.706.614-.797l2.523-.723A.498.498 0 0 0 17.5 21v-.675c.319.103.65.175 1 .175s.681-.072 1-.175V21c0 .223.147.419.362.48l2.523.723c.316.091.615.478.615.797h-9z"/></svg>