<svg xmlns="http://www.w3.org/2000/svg" width="24" height="24" viewBox="0 0 24 24"><title>newspaper</title><path d="M14.5 3h-11a.5.5 0 0 0 0 1h11a.5.5 0 0 0 0-1zM3.5 13h5a.5.5 0 0 0 .5-.5v-6a.5.5 0 0 0-.5-.5h-5a.5.5 0 0 0-.5.5v6a.5.5 0 0 0 .5.5zM4 7h4v5H4V7zM14.5 8h-3a.5.5 0 0 0 0 1h3a.5.5 0 0 0 0-1zM14.5 10h-4a.5.5 0 0 0 0 1h4a.5.5 0 0 0 0-1zM14.5 12h-4a.5.5 0 0 0 0 1h4a.5.5 0 0 0 0-1zM14.5 14h-11a.5.5 0 0 0 0 1h11a.5.5 0 0 0 0-1zM14.5 16h-11a.5.5 0 0 0 0 1h11a.5.5 0 0 0 0-1zM14.5 18h-11a.5.5 0 0 0 0 1h11a.5.5 0 0 0 0-1z"/><path d="M23.5 3H20V2a.5.5 0 0 0-.5-.5H18v-1a.5.5 0 0 0-.5-.5H.5a.5.5 0 0 0-.5.5v20C0 22.43 1.57 24 3.5 24h17c1.93 0 3.5-1.57 3.5-3.5v-17a.5.5 0 0 0-.5-.5zM20 6h1v14.5a.5.5 0 0 1-1 0V6zM3.5 23A2.503 2.503 0 0 1 1 20.5V1h16v19.5c0 .979.403 1.865 1.053 2.5H3.5zM23 20.5c0 1.378-1.121 2.5-2.5 2.5S18 21.878 18 20.5v-18h1v18c0 .827.673 1.5 1.5 1.5s1.5-.673 1.5-1.5v-15a.5.5 0 0 0-.5-.5H20V4h3v16.5z"/></svg>