<svg xmlns="http://www.w3.org/2000/svg" width="24" height="24" viewBox="0 0 24 24"><title>pencil</title><path d="M23.009 3.099 20.887.977c-.943-.944-2.592-.944-3.536 0L2.007 16.324l-.004.003-.003.004-.248.248a.499.499 0 0 0-.133.239L.102 23.283a.5.5 0 0 0 .601.601l6.466-1.517a.499.499 0 0 0 .239-.133l.248-.247.004-.003.003-.004L23.009 6.634a2.505 2.505 0 0 0 0-3.535zm-2.487 4.608-4.233-4.254.708-.709 4.244 4.243-.719.72zM7.305 20.922 3.063 16.68 15.582 4.159l4.233 4.254-12.51 12.509zm-4.824-3.408 3.991 3.99-5.213 1.223 1.222-5.213zm19.82-11.588-.354.354-4.244-4.244.354-.354c.566-.566 1.555-.567 2.122 0l2.122 2.123a1.503 1.503 0 0 1 0 2.121z"/></svg>