<svg xmlns="http://www.w3.org/2000/svg" width="24" height="24" viewBox="0 0 24 24"><title>person</title><path d="M19.677 17.069 15 15.398v-2.207c1.503-1.162 2.5-3.165 2.5-5.441 0-3.584-2.467-6.5-5.5-6.5S6.5 4.167 6.5 7.751c0 2.276.997 4.279 2.5 5.441v2.207L4.322 17.07A3.506 3.506 0 0 0 2 20.365v1.886a.5.5 0 0 0 .5.5h19a.5.5 0 0 0 .5-.5v-1.886a3.51 3.51 0 0 0-2.323-3.296zM12 2.251c2.204 0 4.039 1.947 4.423 4.507l-.018.002c-1.453.28-2.352-.192-3.206-1.687-.09-.159-.229-.245-.444-.252a.498.498 0 0 0-.434.269c-.46.885-2.013 1.661-3.321 1.661-.509 0-.946-.084-1.376-.26.468-2.427 2.25-4.24 4.376-4.24zM7.5 7.75c0-.081.007-.16.01-.24.469.158.954.24 1.49.24 1.374 0 2.881-.653 3.735-1.55.797 1.109 1.737 1.635 2.931 1.635.264 0 .545-.034.834-.085 0 3.033-2.019 5.5-4.5 5.5s-4.5-2.467-4.5-5.5zM21 21.751H3v-1.386c0-1.053.667-1.999 1.659-2.354l5.009-1.789a.5.5 0 0 0 .332-.471V13.8c.621.288 1.294.451 2 .451s1.379-.164 2-.451v1.951a.5.5 0 0 0 .332.471l5.008 1.789A2.506 2.506 0 0 1 21 20.365v1.386z"/></svg>