<svg xmlns="http://www.w3.org/2000/svg" width="24" height="24" viewBox="0 0 24 24"><title>picture</title><path d="M23.5 5a.5.5 0 0 0-.5.5V23H5.5a.5.5 0 0 0 0 1h18a.5.5 0 0 0 .5-.5v-18a.5.5 0 0 0-.5-.5z"/><path d="M22 21.5v-19a.5.5 0 0 0-1 0V21H2.5a.5.5 0 0 0 0 1h19a.5.5 0 0 0 .5-.5z"/><path d="M20 19.5V.5a.5.5 0 0 0-.5-.5H.5a.5.5 0 0 0-.5.5v19a.5.5 0 0 0 .5.5h19a.5.5 0 0 0 .5-.5zM19 1v14h-1.653l-2.878-7.676a.503.503 0 0 0-.411-.321.497.497 0 0 0-.473.22l-3.628 5.442-2.073-2.485a.5.5 0 0 0-.813.063L4.217 15H1V1h18zm-2.722 14H5.383l2.184-3.639 2.049 2.459a.502.502 0 0 0 .8-.043l3.458-5.188L16.278 15zM1 19v-3h18v3H1z"/><path d="M6 7c1.103 0 2-.897 2-2s-.897-2-2-2-2 .897-2 2 .897 2 2 2zm0-3c.551 0 1 .449 1 1s-.449 1-1 1-1-.449-1-1 .449-1 1-1z"/></svg>