<svg xmlns="http://www.w3.org/2000/svg" width="24" height="24" viewBox="0 0 24 24"><title>podcast</title><path d="M17.833 12.5c0 3.045-2.619 5.5-5.833 5.5s-5.833-2.455-5.833-5.5v-5C6.167 4.455 8.786 2 12 2s5.833 2.455 5.833 5.5v5zm-1-1.5v-1h-2.7a.5.5 0 0 1 0-1h2.7V8h-2.7a.5.5 0 0 1 0-1h2.67c-.208-1.75-1.497-3.203-3.237-3.758V5.5a.5.5 0 0 1-1 0V3.031a5.299 5.299 0 0 0-1.134 0V5.5a.5.5 0 0 1-1 0V3.242C8.692 3.797 7.403 5.25 7.195 7h2.67a.5.5 0 0 1 0 1h-2.7v1h2.7a.5.5 0 0 1 0 1h-2.7v1h2.7a.5.5 0 0 1 0 1h-2.7v.5c0 .527.097 1.033.277 1.503A.544.544 0 0 1 7.499 14h9l.057.003c.179-.47.277-.977.277-1.503V12h-2.7a.5.5 0 0 1 0-1h2.7zm-.814 4H7.981c.866 1.205 2.34 2 4.019 2s3.153-.795 4.019-2zM12.5 19.985V23.5a.5.5 0 0 1-1 0v-3.515c-2.688-.156-5.093-1.566-6.431-3.738a.5.5 0 1 1 .851-.525c1.238 2.008 3.538 3.277 6.08 3.277 2.54 0 4.839-1.267 6.077-3.273a.5.5 0 1 1 .851.525c-1.339 2.169-3.742 3.577-6.428 3.733zm7.478-13.457A4 4 0 0 1 19.5 14.5a.5.5 0 0 1-.5-.5V7.062c0-3.333-3.119-6.063-7-6.063S5 3.728 5 7.062V14a.5.5 0 0 1-.5.5 4 4 0 0 1-.478-7.972C4.331 2.863 7.796 0 12 0s7.668 2.863 7.978 6.528zM1.5 10.5A3.002 3.002 0 0 0 4 13.459V7.542a3 3 0 0 0-2.5 2.959zM20 7.541v5.917a3 3 0 0 0 0-5.918z"/></svg>