<svg xmlns="http://www.w3.org/2000/svg" width="24" height="24" viewBox="0 0 24 24"><title>presentation-code</title><path d="M22.5 4a.5.5 0 0 0 .5-.5v-3a.5.5 0 0 0-.5-.5H.5a.5.5 0 0 0-.5.5v3a.5.5 0 0 0 .5.5H2v13H.521a.5.5 0 0 0 0 1h10.466l.011 2.072A1.997 1.997 0 0 0 9.5 22c0 1.103.897 2 2 2s2-.897 2-2c0-.93-.641-1.707-1.502-1.93L11.987 18h10.492a.5.5 0 0 0 0-1H21V4h1.5zm-10 18a1.001 1.001 0 1 1-1-1c.552 0 1 .449 1 1zM1 1h21v2H1V1zm19 16H3V4h17v13z"/><path d="M7.147 12.854a.497.497 0 0 0 .707-.001.5.5 0 0 0-.002-.707l-1.646-1.635 1.647-1.658a.499.499 0 1 0-.707-.705l-2 2.013a.5.5 0 0 0 .001.707l2 1.986zM15.146 12.854a.502.502 0 0 0 .708 0l2-2a.5.5 0 0 0 0-.707l-2-2a.5.5 0 0 0-.707.707l1.646 1.646-1.646 1.646a.5.5 0 0 0-.001.708zM9.5 14a.5.5 0 0 0 .416-.223l4-6a.5.5 0 1 0-.832-.554l-4 6A.5.5 0 0 0 9.5 14z"/></svg>