<svg xmlns="http://www.w3.org/2000/svg" width="24" height="24" viewBox="0 0 24 24"><title>print</title><path d="M21.5 7h-19A2.503 2.503 0 0 0 0 9.5v6C0 16.878 1.122 18 2.5 18H5v4.5a.5.5 0 0 0 .5.5h13a.5.5 0 0 0 .5-.5V18h2.5c1.378 0 2.5-1.122 2.5-2.5v-6C24 8.122 22.878 7 21.5 7zM18 22H6v-7h12v7zm5-6.5c0 .827-.673 1.5-1.5 1.5H19v-2.5a.5.5 0 0 0-.5-.5h-13a.5.5 0 0 0-.5.5V17H2.5c-.827 0-1.5-.673-1.5-1.5v-6C1 8.673 1.673 8 2.5 8h19c.827 0 1.5.673 1.5 1.5v6zM5.5 6a.5.5 0 0 0 .5-.5V2h9v2.5a.5.5 0 0 0 .5.5H18v.5a.5.5 0 0 0 1 0v-1a.499.499 0 0 0-.147-.354l-2.999-2.999A.51.51 0 0 0 15.5 1h-10a.5.5 0 0 0-.5.5v4a.5.5 0 0 0 .5.5zM16 2.707 17.293 4H16V2.707z"/><path d="M3.5 9C2.673 9 2 9.673 2 10.5S2.673 12 3.5 12 5 11.327 5 10.5 4.327 9 3.5 9zm0 2a.5.5 0 1 1 0-1 .5.5 0 0 1 0 1zM16.5 16h-9a.5.5 0 0 0 0 1h9a.5.5 0 0 0 0-1zM16.5 18h-9a.5.5 0 0 0 0 1h9a.5.5 0 0 0 0-1zM16.5 20h-9a.5.5 0 0 0 0 1h9a.5.5 0 0 0 0-1z"/></svg>