<svg xmlns="http://www.w3.org/2000/svg" width="24" height="24" viewBox="0 0 24 24"><title>programming-website</title><path d="M6.057 12.741a.503.503 0 0 0 .515-.348l.35-1.097.35 1.097a.5.5 0 0 0 .477.349l.038-.001a.502.502 0 0 0 .456-.421l.825-5.187a.502.502 0 0 0-.99-.155l-.494 3.107-.187-.586c-.133-.416-.82-.416-.953 0l-.187.586-.494-3.108a.5.5 0 1 0-.989.158l.826 5.187a.502.502 0 0 0 .457.419zM11.137 12.741a.503.503 0 0 0 .515-.348l.35-1.097.35 1.097a.5.5 0 0 0 .477.349l.038-.001a.502.502 0 0 0 .456-.421l.824-5.187a.501.501 0 0 0-.99-.155l-.493 3.106-.187-.585c-.133-.416-.82-.416-.953 0l-.187.586-.495-3.108a.5.5 0 0 0-.988.158l.826 5.187a.502.502 0 0 0 .457.419zM16.216 12.741a.502.502 0 0 0 .515-.348l.35-1.097.35 1.097a.5.5 0 0 0 .477.349l.038-.001a.502.502 0 0 0 .456-.421l.825-5.187a.501.501 0 0 0-.988-.156l-.494 3.107-.187-.586c-.133-.416-.82-.416-.953 0l-.187.586-.495-3.108a.5.5 0 0 0-.988.158l.826 5.187a.498.498 0 0 0 .455.42z"/><path d="M22 2H2C.897 2 0 2.938 0 4.089v14.822C0 20.062.897 21 2 21h9v1H5a.5.5 0 0 0 0 1h14a.5.5 0 0 0 0-1h-7v-1h10c1.103 0 2-.938 2-2.089V4.089C24 2.938 23.103 2 22 2zM2 3h20c.552 0 1 .488 1 1.089V16H1V4.089C1 3.488 1.448 3 2 3zm20 17H2c-.552 0-1-.488-1-1.089V17h22v1.911c0 .601-.448 1.089-1 1.089z"/><path d="M12.707 17.793a.999.999 0 1 1-1.414 1.414.999.999 0 1 1 1.414-1.414z"/></svg>