<svg xmlns="http://www.w3.org/2000/svg" width="24" height="24" viewBox="0 0 24 24"><title>qr-code</title><path d="M7.5 0h-7a.5.5 0 0 0-.5.5v7a.5.5 0 0 0 .5.5h7a.5.5 0 0 0 .5-.5v-7a.5.5 0 0 0-.5-.5zM7 7H1V1h6v6z"/><path d="M2.5 6h3a.5.5 0 0 0 .5-.5v-3a.5.5 0 0 0-.5-.5h-3a.5.5 0 0 0-.5.5v3a.5.5 0 0 0 .5.5zM3 3h2v2H3V3zM7.5 16h-7a.5.5 0 0 0-.5.5v7a.5.5 0 0 0 .5.5h7a.5.5 0 0 0 .5-.5v-7a.5.5 0 0 0-.5-.5zM7 23H1v-6h6v6z"/><path d="M2.5 22h3a.5.5 0 0 0 .5-.5v-3a.5.5 0 0 0-.5-.5h-3a.5.5 0 0 0-.5.5v3a.5.5 0 0 0 .5.5zm.5-3h2v2H3v-2zM20 16.5a.5.5 0 0 0-.5-.5h-3a.5.5 0 0 0-.5.5v3a.5.5 0 0 0 .5.5h3a.5.5 0 0 0 .5-.5v-3zM19 19h-2v-2h2v2zM23.5 0h-7a.5.5 0 0 0-.5.5v7a.5.5 0 0 0 .5.5h7a.5.5 0 0 0 .5-.5v-7a.5.5 0 0 0-.5-.5zM23 7h-6V1h6v6z"/><path d="M18.5 6h3a.5.5 0 0 0 .5-.5v-3a.5.5 0 0 0-.5-.5h-3a.5.5 0 0 0-.5.5v3a.5.5 0 0 0 .5.5zm.5-3h2v2h-2V3zM9.5 10H13a.5.5 0 0 0 0-1H9.5a.5.5 0 0 0 0 1zM9.5 15H13a.5.5 0 0 0 0-1h-3v-2.5a.5.5 0 0 0-1 0v3a.5.5 0 0 0 .5.5zM7.5 9h-7a.5.5 0 0 0 0 1H7v1.5a.5.5 0 0 0 1 0v-2a.5.5 0 0 0-.5-.5zM23.5 9h-1.005a.5.5 0 0 0-.5.5v5a.5.5 0 0 0 1 0V10h.505a.5.5 0 0 0 0-1zM20.495 15a.5.5 0 0 0 .5-.5v-3a.5.5 0 0 0-1 0v3a.5.5 0 0 0 .5.5zM14.995 11.5a.5.5 0 0 0 1 0V10H20a.5.5 0 0 0 0-1h-4.505a.5.5 0 0 0-.5.5v2zM12.5 4a.5.5 0 0 0-.5.5v2a.5.5 0 0 0 .5.5h2a.5.5 0 0 0 .5-.5v-4a.5.5 0 0 0-1 0V6h-1V4.5a.5.5 0 0 0-.5-.5zM9.5 8a.5.5 0 0 0 .5-.5v-3a.5.5 0 0 0-1 0v3a.5.5 0 0 0 .5.5zM11.5 1h3a.5.5 0 0 0 0-1h-3a.5.5 0 0 0 0 1zM9.5 3h2a.5.5 0 0 0 0-1H10V.5a.5.5 0 0 0-1 0v2a.5.5 0 0 0 .5.5zM5.5 13a.5.5 0 0 0 0-1h-3a.5.5 0 0 0 0 1h3zM.5 15h2a.5.5 0 0 0 0-1H1v-2.5a.5.5 0 0 0-1 0v3a.5.5 0 0 0 .5.5zM23.5 16h-2a.5.5 0 0 0-.5.5V23h-8.5a.5.5 0 0 0 0 1h9a.5.5 0 0 0 .5-.5V17h1v2.5a.5.5 0 0 0 1 0v-3a.5.5 0 0 0-.5-.5zM13 21.5a.5.5 0 0 0-.5-.5H10v-3.5a.5.5 0 0 0-1 0v4a.5.5 0 0 0 .5.5h3a.5.5 0 0 0 .5-.5z"/><path d="M14.5 22h5a.5.5 0 0 0 0-1H15v-2a.5.5 0 0 0-1 0v2.5a.5.5 0 0 0 .5.5zM10.995 16.5v3a.5.5 0 0 0 1 0V17H14.5a.5.5 0 0 0 0-1h-3.005a.5.5 0 0 0-.5.5zM7.5 14h-2a.5.5 0 0 0 0 1h2a.5.5 0 0 0 0-1zM13 11h-2a.5.5 0 0 0 0 1h2a.5.5 0 0 0 0-1zM17.495 12a.5.5 0 0 0-.5.5V14h-1.5a.5.5 0 0 0 0 1h3a.5.5 0 0 0 0-1h-.5v-1.5a.5.5 0 0 0-.5-.5z"/></svg>