<svg xmlns="http://www.w3.org/2000/svg" width="24" height="24" viewBox="0 0 24 24"><title>remove-circle</title><path d="M12 23.5c6.341 0 11.5-5.159 11.5-11.5S18.341.5 12 .5.5 5.659.5 12 5.659 23.5 12 23.5zm0-22c5.79 0 10.5 4.71 10.5 10.5S17.79 22.5 12 22.5 1.5 17.79 1.5 12 6.21 1.5 12 1.5z"/><path d="M7.403 16.597a.5.5 0 0 0 .707 0l3.89-3.89 3.889 3.89a.5.5 0 0 0 .707-.707L12.707 12l3.889-3.889a.5.5 0 0 0-.707-.707L12 11.294l-3.89-3.89a.5.5 0 0 0-.707.707L11.293 12l-3.89 3.89a.5.5 0 0 0 0 .707z"/></svg>