<svg xmlns="http://www.w3.org/2000/svg" width="24" height="24" viewBox="0 0 24 24"><title>report-problem-circle</title><path d="m12.195.499-.205.002C5.624.611.392 5.853.501 12.2c.11 6.338 5.076 11.302 11.305 11.302l.202-.001c6.445-.113 11.6-5.362 11.489-11.701C23.387 5.463 18.423.499 12.195.499zm-.205 22.002-.185.001c-5.678 0-10.204-4.533-10.305-10.32C1.399 6.405 6.179 1.601 12.008 1.501l.187-.002c5.677 0 10.201 4.532 10.302 10.318.101 5.788-4.613 10.581-10.507 10.684z"/><path d="M11.999 13.999a.5.5 0 0 0 .5-.5v-7a.5.5 0 0 0-1 0v7a.5.5 0 0 0 .5.5zM12.999 16.999a1 1 0 1 1-2 0 1 1 0 0 1 2 0z"/></svg>