<svg xmlns="http://www.w3.org/2000/svg" width="24" height="24" viewBox="0 0 24 24"><title>server</title><path d="m23.82 5.116-6-5A.5.5 0 0 0 17.5 0h-11a.5.5 0 0 0-.32.116l-6 5A.497.497 0 0 0 0 5.5v16C0 22.879 1.121 24 2.5 24h19c1.379 0 2.5-1.121 2.5-2.5v-16a.497.497 0 0 0-.18-.384zM23 6v5H1V6h22zM1 12h22v5H1v-5zM6.681 1H17.32l4.8 4H1.881l4.8-4zM21.5 23h-19c-.827 0-1.5-.673-1.5-1.5V18h22v3.5c0 .827-.673 1.5-1.5 1.5z"/><path d="M15 8.5a1 1 0 1 1-2 0 1 1 0 0 1 2 0zM18 8.5a1 1 0 1 1-2 0 1 1 0 0 1 2 0zM21 8.5a1 1 0 1 1-2 0 1 1 0 0 1 2 0zM3.5 10C4.327 10 5 9.327 5 8.5S4.327 7 3.5 7 2 7.673 2 8.5 2.673 10 3.5 10zm0-2c.275 0 .5.225.5.5s-.225.5-.5.5-.5-.225-.5-.5.225-.5.5-.5zM15 14.5a1 1 0 1 1-2 0 1 1 0 0 1 2 0zM18 14.5a1 1 0 1 1-2 0 1 1 0 0 1 2 0zM21 14.5a1 1 0 1 1-2 0 1 1 0 0 1 2 0zM3.5 13c-.827 0-1.5.673-1.5 1.5S2.673 16 3.5 16 5 15.327 5 14.5 4.327 13 3.5 13zm0 2c-.275 0-.5-.225-.5-.5s.225-.5.5-.5.5.225.5.5-.225.5-.5.5zM15 20.5a1 1 0 1 1-2 0 1 1 0 0 1 2 0zM18 20.5a1 1 0 1 1-2 0 1 1 0 0 1 2 0zM21 20.5a1 1 0 1 1-2 0 1 1 0 0 1 2 0zM3.5 19c-.827 0-1.5.673-1.5 1.5S2.673 22 3.5 22 5 21.327 5 20.5 4.327 19 3.5 19zm0 2c-.275 0-.5-.225-.5-.5s.225-.5.5-.5.5.225.5.5-.225.5-.5.5z"/></svg>