<svg xmlns="http://www.w3.org/2000/svg" width="24" height="24" viewBox="0 0 24 24"><title>share</title><path d="M19.5 9C21.981 9 24 6.981 24 4.5S21.981 0 19.5 0c-3.114 0-5.309 3.116-4.221 6.051L8.267 9.558A4.465 4.465 0 0 0 4.5 7.5C2.019 7.5 0 9.519 0 12s2.019 4.5 4.5 4.5c1.543 0 2.942-.78 3.767-2.058l7.016 3.508C14.204 20.862 16.354 24 19.5 24c2.481 0 4.5-2.019 4.5-4.5S21.981 15 19.5 15a4.473 4.473 0 0 0-3.774 2.055l-7.005-3.503a4.456 4.456 0 0 0 .001-3.104l7.004-3.502A4.475 4.475 0 0 0 19.5 9zm0 7c1.93 0 3.5 1.57 3.5 3.5S21.43 23 19.5 23c-2.604 0-4.29-2.747-3.128-5.063A3.484 3.484 0 0 1 19.5 16zm-15-.5C2.57 15.5 1 13.93 1 12s1.57-3.5 3.5-3.5a3.48 3.48 0 0 1 3.127 1.936v.001C8.789 12.745 7.104 15.5 4.5 15.5zM19.5 1C21.43 1 23 2.57 23 4.5S21.43 8 19.5 8a3.483 3.483 0 0 1-3.128-1.938l-.001-.001C15.204 3.717 16.923 1 19.5 1z"/></svg>