<svg xmlns="http://www.w3.org/2000/svg" width="24" height="24" viewBox="0 0 24 24"><title>shopping-cart</title><path d="m20.962 17.159 3-9a.5.5 0 0 0-.475-.659H5.795L4.473 1.885a.499.499 0 0 0-.486-.385h-3.5a.5.5 0 0 0 0 1h3.104l3.79 16.104A1.997 1.997 0 0 0 5.987 20.5c0 1.103.897 2 2 2s2-.897 2-2a1.97 1.97 0 0 0-.278-1h7.557a1.962 1.962 0 0 0-.279 1c0 1.103.897 2 2 2s2-.897 2-2-.897-2-2-2H8.383l-.235-1h12.339a.503.503 0 0 0 .475-.341zM8.988 20.5a1.001 1.001 0 0 1-2 0 1.001 1.001 0 0 1 2 0zm10.999 0a1.001 1.001 0 0 1-2 0 1.001 1.001 0 0 1 2 0zm-12.073-4-1.883-8h16.764l-2.667 8H7.914z"/></svg>