<svg xmlns="http://www.w3.org/2000/svg" width="24" height="24" viewBox="0 0 24 24"><title>smartwatch</title><path d="M17.825 5.033 17 3.382V.5a.5.5 0 0 0-.5-.5h-9a.5.5 0 0 0-.5.5v2.882l-.825 1.651A2.494 2.494 0 0 0 4 7.5v9c0 1.268.951 2.306 2.175 2.467L7 20.618V23.5a.5.5 0 0 0 .5.5h9a.5.5 0 0 0 .5-.5v-2.882l.825-1.651A2.494 2.494 0 0 0 20 16.5v-9a2.494 2.494 0 0 0-2.175-2.467zM7.809 4h8.382l.5 1H7.309l.5-1zM8 1h8v2H8V1zm8.191 19H7.809l-.5-1h9.382l-.5 1zM16 23H8v-2h8v2zm3-6.5c0 .827-.673 1.5-1.5 1.5h-11c-.827 0-1.5-.673-1.5-1.5v-9C5 6.673 5.673 6 6.5 6h11c.827 0 1.5.673 1.5 1.5v9z"/><path d="M17.5 13h-11a.5.5 0 0 0-.5.5v3a.5.5 0 0 0 .5.5h11a.5.5 0 0 0 .5-.5v-3a.5.5 0 0 0-.5-.5zm-.5 3H7v-2h10v2zM16 11.5c1.266 0 1.266-1.454 1.266-2.001 0-.494 0-1.999-1.266-1.999-1.267 0-1.267 1.505-1.267 1.999 0 .547 0 2.001 1.267 2.001zm0-3c.073 0 .266 0 .266.999 0 1.001-.193 1.001-.266 1.001s-.267 0-.267-1.001c0-.999.194-.999.267-.999zM12 10.368h.797v.569a.5.5 0 0 0 1 0v-.646a.5.5 0 0 0 0-.848V8a.501.501 0 0 0-.911-.286l-1.297 1.868a.499.499 0 0 0 .411.786zM8.232 10.267c.055 0 .099-.023.151-.028-.151.255-.408.261-.516.261a.5.5 0 0 0 0 1c.992 0 1.633-.699 1.633-1.781v-.82c0-.818-.509-1.368-1.268-1.368-.757 0-1.266.55-1.266 1.368.001.818.51 1.368 1.266 1.368zm0-1.736c.106 0 .268 0 .268.368s-.161.367-.268.367c-.106 0-.266 0-.266-.367.001-.368.16-.368.266-.368zM11 8.75a.25.25 0 1 1-.5 0 .25.25 0 0 1 .5 0zM11 10.25a.25.25 0 1 1-.5 0 .25.25 0 0 1 .5 0z"/></svg>