<svg xmlns="http://www.w3.org/2000/svg" width="24" height="24" viewBox="0 0 24 24"><title>star</title><path d="M23.969 8.343a.5.5 0 0 0-.469-.327h-8.153L12.468.34c-.146-.39-.789-.39-.936 0L8.653 8.016H.5a.5.5 0 0 0-.325.88l6.744 5.782-2.894 8.681a.5.5 0 0 0 .771.561L12 18.636l7.204 5.283a.497.497 0 0 0 .591.001.501.501 0 0 0 .18-.562l-2.894-8.681 6.744-5.782a.497.497 0 0 0 .144-.552zm-7.794 5.795a.499.499 0 0 0-.149.538l2.504 7.509-6.233-4.571a.502.502 0 0 0-.593 0l-6.233 4.571 2.504-7.509a.501.501 0 0 0-.149-.538L1.852 9.017H9a.5.5 0 0 0 .468-.324L12 1.941l2.532 6.752a.5.5 0 0 0 .468.324h7.148l-5.973 5.121z"/></svg>