<svg xmlns="http://www.w3.org/2000/svg" width="24" height="24" viewBox="0 0 24 24"><title>synchronize</title><path d="M7.027 10.311a.502.502 0 0 0-.704.063l-2.525 3.025A8.024 8.024 0 0 1 4.88 8.157c1.178-1.974 3.102-3.401 5.28-3.915a7.994 7.994 0 0 1 7.835 2.485.497.497 0 0 0 .705.043.498.498 0 0 0 .043-.705A8.973 8.973 0 0 0 9.93 3.269c-2.438.575-4.593 2.17-5.908 4.375a9.055 9.055 0 0 0-1.295 4.839L1.13 10.104a.498.498 0 1 0-.83.556l2.787 4.15a.5.5 0 0 0 .799.042l3.205-3.838a.5.5 0 0 0-.064-.703zM20.917 10.254c-.224-.333-.659-.278-.869.042l-3.136 3.754a.5.5 0 0 0 .767.641l2.405-2.879c.086 3.618-2.555 7.129-6.244 8a7.96 7.96 0 0 1-7.465-2.094.5.5 0 0 0-.701.713 8.956 8.956 0 0 0 8.396 2.354c4.039-.953 6.893-4.551 7.021-8.476l1.78 2.652a.5.5 0 0 0 .83-.556l-2.784-4.151z"/></svg>