<svg xmlns="http://www.w3.org/2000/svg" width="24" height="24" viewBox="0 0 24 24"><title>tablet-ipad</title><path d="M18.5 0h-13A2.503 2.503 0 0 0 3 2.5v19C3 22.879 4.122 24 5.5 24h13c1.378 0 2.5-1.121 2.5-2.5v-19C21 1.121 19.878 0 18.5 0zM20 21.5c0 .827-.673 1.5-1.5 1.5h-13c-.827 0-1.5-.673-1.5-1.5v-19C4 1.673 4.673 1 5.5 1h13c.827 0 1.5.673 1.5 1.5v19z"/><path d="M18.5 3h-13a.5.5 0 0 0-.5.5v16a.5.5 0 0 0 .5.5h13a.5.5 0 0 0 .5-.5v-16a.5.5 0 0 0-.5-.5zM18 19H6V4h12v15zM12.5 2a.5.5 0 1 1-1 0 .5.5 0 0 1 1 0zM12 20.5a1.001 1.001 0 0 0 0 2 1.001 1.001 0 0 0 0-2zm0 1z"/></svg>