<svg xmlns="http://www.w3.org/2000/svg" width="24" height="24" viewBox="0 0 24 24"><title>truck</title><path d="M8 15c-1.654 0-3 1.346-3 3s1.346 3 3 3 3-1.346 3-3-1.346-3-3-3zm0 5c-1.103 0-2-.897-2-2s.897-2 2-2 2 .897 2 2-.897 2-2 2zM19 15c-1.654 0-3 1.346-3 3s1.346 3 3 3 3-1.346 3-3-1.346-3-3-3zm0 5c-1.103 0-2-.897-2-2s.897-2 2-2 2 .897 2 2-.897 2-2 2z"/><path d="M23.5 3h-15a.5.5 0 0 0-.5.5V7H4.5A4.505 4.505 0 0 0 0 11.5v7a.5.5 0 0 0 .5.5h3a.5.5 0 0 0 0-1H1v-1h3a.5.5 0 0 0 0-1H1v-4.5C1 9.57 2.57 8 4.5 8H8v5.5a.5.5 0 0 0 1 0V4h14v13.5a.5.5 0 0 0 1 0v-14a.5.5 0 0 0-.5-.5z"/><path d="M14.5 17h-2a.5.5 0 0 0 0 1h2a.5.5 0 0 0 0-1zM7 9.5a.5.5 0 0 0-.5-.5H4c-1.103 0-2 .897-2 2v2.5a.5.5 0 0 0 1 0V11c0-.551.448-1 1-1h2.5a.5.5 0 0 0 .5-.5z"/></svg>