<svg xmlns="http://www.w3.org/2000/svg" width="24" height="24" viewBox="0 0 24 24"><title>video-camera</title><path d="M14.5 5h-13C.673 5 0 5.673 0 6.5v11c0 .827.673 1.5 1.5 1.5h13c.827 0 1.5-.673 1.5-1.5v-11c0-.827-.673-1.5-1.5-1.5zm.5 12.5a.5.5 0 0 1-.5.5h-13a.5.5 0 0 1-.5-.5v-11a.5.5 0 0 1 .5-.5h13a.5.5 0 0 1 .5.5v11zM23.763 6.074a.5.5 0 0 0-.486-.021l-6 3A.5.5 0 0 0 17 9.5v5a.5.5 0 0 0 .276.447l6 3a.505.505 0 0 0 .487-.021A.503.503 0 0 0 24 17.5v-11a.503.503 0 0 0-.237-.426zM23 16.691l-5-2.5V9.809l5-2.5v9.382z"/></svg>