<svg xmlns="http://www.w3.org/2000/svg" width="24" height="24" viewBox="0 0 24 24"><title>video-meeting-square</title><path d="M18.742 8.062a.498.498 0 0 0-.507.014L15 10.098V7.5a.5.5 0 0 0-.5-.5h-9a.5.5 0 0 0-.5.5v9a.5.5 0 0 0 .5.5h9a.5.5 0 0 0 .5-.5v-2.598l3.235 2.021A.498.498 0 0 0 19 15.5v-7a.501.501 0 0 0-.258-.438zM18 14.598l-3.235-2.021A.498.498 0 0 0 14 13v3H6V8h8v3a.501.501 0 0 0 .765.424L18 9.402v5.196z"/><path d="M20.5 0h-17C1.57 0 0 1.57 0 3.5v17C0 22.43 1.57 24 3.5 24h17c1.93 0 3.5-1.57 3.5-3.5v-17C24 1.57 22.43 0 20.5 0zM23 20.5c0 1.379-1.122 2.5-2.5 2.5h-17A2.503 2.503 0 0 1 1 20.5v-17C1 2.121 2.122 1 3.5 1h17C21.878 1 23 2.121 23 3.5v17z"/></svg>