<svg xmlns="http://www.w3.org/2000/svg" width="24" height="24" viewBox="0 0 24 24"><title>view</title><path d="M23.892 11.689C23.676 11.417 18.519 5 12 5S.324 11.417.108 11.689a.5.5 0 0 0 0 .621C.324 12.583 5.481 19 12 19s11.676-6.417 11.892-6.689a.502.502 0 0 0 0-.622zM12 18c-5.247 0-9.734-4.729-10.845-6C2.266 10.729 6.753 6 12 6s9.734 4.729 10.845 6c-1.111 1.271-5.598 6-10.845 6z"/><path d="M12 7.5c-2.481 0-4.5 2.019-4.5 4.5s2.019 4.5 4.5 4.5 4.5-2.019 4.5-4.5-2.019-4.5-4.5-4.5zm0 8c-1.93 0-3.5-1.57-3.5-3.5s1.57-3.5 3.5-3.5 3.5 1.57 3.5 3.5-1.57 3.5-3.5 3.5z"/><path d="M12 9.5a.5.5 0 0 0 0 1c.827 0 1.5.673 1.5 1.5s-.673 1.5-1.5 1.5-1.5-.673-1.5-1.5a.5.5 0 0 0-1 0c0 1.378 1.122 2.5 2.5 2.5s2.5-1.122 2.5-2.5-1.122-2.5-2.5-2.5z"/></svg>