<svg xmlns="http://www.w3.org/2000/svg" width="24" height="24" viewBox="0 0 24 24"><title>volume-off-solid</title><path d="M2 15h3.172L13 7.173V1.5a.5.5 0 0 0-.854-.354L5.293 8H2c-1.102 0-2 .898-2 2v3c0 1.104.897 2 2 2zM12.146 21.854A.501.501 0 0 0 13 21.5v-8.672l-4.939 4.941 4.085 4.085zM16.322 9.506c1.107 1.519.952 3.586-1.115 5.09a.498.498 0 1 0 .586.809c2.494-1.81 2.825-4.552 1.242-6.611l-.713.712zM22.207.793a1 1 0 0 0-1.414 0l-20 20c-.435.435-.35 1.136.016 1.427.38.364 1.025.361 1.398-.013l20-20a1.005 1.005 0 0 0 0-1.414z"/></svg>