<svg xmlns="http://www.w3.org/2000/svg" width="24" height="24" viewBox="0 0 24 24"><title>volume-low</title><path d="M12.5 22a.504.504 0 0 1-.354-.146L5.293 15H2c-1.103 0-2-.897-2-2v-3c0-1.103.897-2 2-2h3.293l6.854-6.854A.501.501 0 0 1 13 1.5v20a.5.5 0 0 1-.5.5zM2 9c-.551 0-1 .448-1 1v3c0 .552.449 1 1 1h3.5c.133 0 .26.053.354.146L12 20.293V2.707L5.854 8.854A.504.504 0 0 1 5.5 9H2zM15.5 15.5a.499.499 0 0 1-.295-.904c1.16-.843 1.798-1.942 1.799-3.095s-.639-2.253-1.799-3.097a.498.498 0 0 1-.11-.698.498.498 0 0 1 .698-.11c1.426 1.037 2.211 2.424 2.211 3.905s-.786 2.868-2.211 3.903a.49.49 0 0 1-.293.096z"/></svg>