<svg xmlns="http://www.w3.org/2000/svg" width="24" height="24" viewBox="0 0 24 24"><title>volume-off</title><path d="M4.5 15a.5.5 0 0 0 0-1H2c-.551 0-1-.448-1-1v-3c0-.552.449-1 1-1h3.5c.133 0 .26-.053.354-.146L12 2.707V7a.5.5 0 0 0 1 0V1.5a.5.5 0 0 0-.854-.354L5.293 8H2c-1.103 0-2 .897-2 2v3c0 1.103.897 2 2 2h2.5zM15.5 11a.5.5 0 0 0-.5.5c0 1.103-.897 2-2 2V13a.5.5 0 0 0-1 0v7.293l-2.646-2.646a.5.5 0 0 0-.707.707l3.5 3.5A.5.5 0 0 0 13 21.5v-7c1.654 0 3-1.346 3-3a.5.5 0 0 0-.5-.5zM21.854 1.146a.5.5 0 0 0-.707 0l-20 20a.5.5 0 0 0 .707.708l20-20a.502.502 0 0 0 0-.708z"/></svg>