<svg xmlns="http://www.w3.org/2000/svg" width="24" height="24" viewBox="0 0 24 24"><title>volume-medium-solid</title><path d="M12.146 1.146 5.293 8H2c-1.102 0-2 .898-2 2v3c0 1.104.897 2 2 2h3.293l6.853 6.854c.314.312.854.09.854-.354v-20a.501.501 0 0 0-.854-.354zM17.818 5.114a.5.5 0 1 0-.637.771c3.717 3.067 3.73 8.14 0 11.229a.5.5 0 1 0 .638.77c4.22-3.491 4.189-9.312-.001-12.77z"/><path d="M15.794 7.596a.5.5 0 1 0-.588.808c2.428 1.768 2.373 4.467 0 6.191a.5.5 0 1 0 .588.808c2.94-2.134 2.949-5.663 0-7.807z"/></svg>