<svg xmlns="http://www.w3.org/2000/svg" width="24" height="24" viewBox="0 0 24 24"><title>window-code</title><path d="M7.854 7.646a.5.5 0 0 0-.707.707L9.293 10.5l-2.146 2.146a.5.5 0 0 0 .707.708l2.5-2.5a.5.5 0 0 0 0-.707l-2.5-2.501zM17 10.5h-4a.5.5 0 0 0 0 1h4a.5.5 0 0 0 0-1z"/><path d="M23.5 1.5H.5A.5.5 0 0 0 0 2v20a.5.5 0 0 0 .5.5h23a.5.5 0 0 0 .5-.5V2a.5.5 0 0 0-.5-.5zm-.5 20H1v-19h22v19z"/><path d="M2.5 20.5h19a.5.5 0 0 0 .5-.5V4a.5.5 0 0 0-.5-.5h-19A.5.5 0 0 0 2 4v16a.5.5 0 0 0 .5.5zm.5-16h18v15H3v-15z"/></svg>