<svg xmlns="http://www.w3.org/2000/svg" width="24" height="24" viewBox="0 0 24 24"><title>window-search-engine</title><path d="M15.146 15.939A3.946 3.946 0 0 0 16 13.5c0-2.206-1.794-4-4-4s-4 1.794-4 4 1.794 4 4 4c.923 0 1.763-.326 2.439-.854l2.707 2.707a.5.5 0 1 0 .708-.706l-2.708-2.708zM9 13.5c0-1.654 1.346-3 3-3s3 1.346 3 3c0 .812-.327 1.547-.853 2.087-.011.01-.025.014-.036.024s-.015.025-.024.037A2.982 2.982 0 0 1 12 16.5c-1.654 0-3-1.346-3-3z"/><path d="M21.5 2.5h-19A2.502 2.502 0 0 0 0 5v14c0 1.379 1.121 2.5 2.5 2.5h19c1.379 0 2.5-1.121 2.5-2.5V5c0-1.379-1.121-2.5-2.5-2.5zm-19 1h19c.827 0 1.5.673 1.5 1.5v2.5H1V5c0-.827.673-1.5 1.5-1.5zm19 17h-19c-.827 0-1.5-.673-1.5-1.5V8.5h22V19c0 .827-.673 1.5-1.5 1.5z"/><path d="M5 5.5a1 1 0 1 1-2 0 1 1 0 0 1 2 0zM8 5.5a1 1 0 1 1-2 0 1 1 0 0 1 2 0zM11 5.5a1 1 0 1 1-2 0 1 1 0 0 1 2 0z"/></svg>