<svg xmlns="http://www.w3.org/2000/svg" width="24" height="24" viewBox="0 0 24 24"><title>zoom-in</title><path d="m23.83 23.122-9.009-9.009a8.455 8.455 0 0 0 2.155-5.637c0-4.687-3.813-8.5-8.5-8.5s-8.5 3.813-8.5 8.5 3.813 8.5 8.5 8.5a8.45 8.45 0 0 0 5.637-2.156l9.009 9.009a.5.5 0 0 0 .708-.707zM.976 8.476c0-4.136 3.364-7.5 7.5-7.5s7.5 3.364 7.5 7.5-3.364 7.5-7.5 7.5-7.5-3.364-7.5-7.5z"/><path d="M11.976 7.976h-3v-3a.5.5 0 0 0-1 0v3h-3a.5.5 0 0 0 0 1h3v3a.5.5 0 0 0 1 0v-3h3a.5.5 0 0 0 0-1z"/></svg>