<svg xmlns="http://www.w3.org/2000/svg" width="20" height="26" viewBox="0 0 20 26">
  <path fill="#00B140" stroke="#FFFFFF" stroke-width="2" d="M6.35560891,21.4720801 L6.35467484,21.4707283 C5.40507627,20.0940921 1.94358596,15.1620219 1.32000267,14.2280032 C0.123283416,12.435527 -0.449118496,11.349085 -0.746859416,10.2185295 C-0.925826975,9.53896964 -1,8.85239983 -1,8 C-1,3.02942358 3.02942358,-1 8,-1 C12.9705764,-1 17,3.02942358 17,8 C17,8.85239983 16.925827,9.53896964 16.7468594,10.2185295 C16.4491185,11.349085 15.8767166,12.435527 14.6799973,14.2280032 C14.056414,15.1620219 10.5949237,20.0940921 9.6443825,21.4720925 C8.84944544,22.6204368 7.15050926,22.6204084 6.35560891,21.4720801 Z" transform="translate(2 2)"/>
</svg>
