<svg version="1" xmlns="http://www.w3.org/2000/svg" width="933.333" height="933.333" viewBox="0 0 700.000000 700.000000"><path d="M0 350v350h700V0H0v350zM386 61c85.9 5.9 159.5 45.6 210.6 113.5 6.4 8.4 18.8 27.5 18.2 27.9-.7.6-92.5 59.1-95.4 60.8l-3.2 1.9-6.2-10.4c-27.1-45.5-63.9-72.2-111.6-80.8-14.1-2.6-43.2-3.1-57.9-1C251 185.7 189 257.5 189 348.5c0 48.4 18.1 92.8 51.2 125.7 27 26.7 59.5 42.9 98.8 48.9 13.5 2.1 41.2 1.6 55.1-.9 52.6-9.6 94.6-41.6 121.6-92.8l4.8-9.1 50.8 26.7c27.9 14.7 51 26.9 51.3 27.3.9.9-10.8 21.5-19.7 34.7-25.7 38.1-57.1 67.8-95.5 90.6-29.6 17.5-63.3 29.1-101.4 35.1-17.6 2.7-67.3 2.5-86-.4-84.8-13.3-150.7-53.7-194.9-119.4C93.2 467.6 77 412 77 350c0-29.5 2.6-51.7 9-77C119.9 138.7 243.8 51.2 386 61z"/></svg>