<?xml version="1.0" standalone="no"?>
<!DOCTYPE svg PUBLIC "-//W3C//DTD SVG 20010904//EN"
 "http://www.w3.org/TR/2001/REC-SVG-20010904/DTD/svg10.dtd">
<svg version="1.0" xmlns="http://www.w3.org/2000/svg"
 width="700.000000pt" height="700.000000pt" viewBox="0 0 700.000000 700.000000"
 preserveAspectRatio="xMidYMid meet">
<metadata>
Created by potrace 1.14, written by Peter Selinger 2001-2017
</metadata>
<g transform="translate(0.000000,700.000000) scale(0.100000,-0.100000)"
fill="#000000" stroke="none">
<path d="M2040 6458 c0 -3 15 -15 33 -26 89 -53 816 -487 839 -501 15 -9 129
-77 253 -151 124 -74 238 -142 253 -151 15 -9 142 -85 282 -169 140 -84 270
-161 289 -172 19 -11 217 -129 440 -262 223 -134 525 -314 671 -401 146 -87
316 -189 378 -227 63 -37 116 -68 120 -68 3 0 13 -6 21 -14 9 -7 36 -25 61
-38 25 -14 132 -78 238 -142 106 -64 195 -116 198 -116 3 0 20 -11 38 -25 18
-14 36 -25 40 -25 3 0 46 -24 94 -53 48 -30 221 -134 385 -232 163 -97 299
-181 302 -185 3 -4 -82 -59 -188 -122 -105 -63 -383 -229 -617 -369 -234 -139
-434 -259 -445 -265 -19 -10 -320 -190 -748 -445 -109 -66 -200 -119 -203
-119 -3 0 -10 -5 -17 -11 -7 -5 -104 -64 -217 -131 -113 -66 -221 -130 -240
-143 -19 -12 -62 -38 -95 -57 -33 -19 -190 -113 -350 -208 -159 -95 -299 -178
-310 -184 -23 -13 -864 -515 -1065 -636 -8 -5 -107 -64 -220 -131 -113 -67
-210 -127 -217 -133 -9 -8 376 -11 1459 -11 l1472 0 21 30 c27 40 462 680 592
870 56 83 140 206 187 275 80 119 130 192 401 590 66 96 169 248 230 337 60
89 151 222 201 295 49 73 156 230 236 348 l146 215 -55 80 c-31 44 -121 177
-201 295 -80 118 -175 258 -211 310 -74 107 -196 287 -337 495 -53 77 -137
201 -187 275 -51 74 -159 234 -241 355 -82 121 -202 297 -266 390 -64 94 -173
253 -242 355 -69 102 -161 237 -204 300 l-79 115 -1463 0 c-804 0 -1462 -3
-1462 -7z"/>
<path d="M1810 6165 c-63 -91 -119 -173 -125 -182 -5 -9 -18 -26 -27 -37 -10
-11 -18 -23 -18 -26 0 -4 -8 -16 -17 -28 -10 -11 -63 -86 -118 -167 -55 -80
-121 -176 -147 -213 -26 -37 -52 -74 -58 -82 -102 -146 -887 -1278 -910 -1310
-108 -153 -353 -508 -360 -521 -8 -14 122 -16 1486 -16 l1495 0 20 26 c20 26
112 152 137 187 85 124 445 623 456 635 9 9 16 18 16 22 0 5 389 553 422 593
8 11 -6 22 -112 81 -33 19 -208 123 -240 143 -8 5 -44 27 -80 48 -36 21 -184
110 -330 197 -146 87 -277 165 -293 174 -15 9 -120 72 -235 140 -694 415 -825
493 -836 497 -6 2 -63 -70 -126 -161z"/>
<path d="M30 3401 c9 -18 223 -327 243 -351 7 -9 26 -35 42 -60 49 -73 311
-452 347 -501 18 -26 85 -121 148 -213 63 -92 181 -262 263 -379 208 -299 225
-323 553 -797 163 -234 297 -426 299 -428 2 -2 111 61 242 140 131 78 241 144
245 146 3 2 57 34 120 72 62 37 429 258 815 490 l702 421 -17 27 c-9 15 -62
91 -117 169 -55 78 -134 190 -175 249 -41 59 -111 158 -155 220 -44 63 -141
200 -215 306 -74 105 -161 228 -192 272 -31 45 -80 115 -109 157 l-52 76
-1498 0 c-1374 0 -1497 -1 -1489 -16z"/>
</g>
</svg>
