<svg xmlns="http://www.w3.org/2000/svg" width="138" height="60" viewBox="0 0 138 60"><g fill="none" fill-rule="evenodd"><path fill="#FFF" d="M17.45 17.557c4.782 0 7.172 3.647 7.172 3.647l-1.258 1.13s-1.887-3.016-5.914-3.016c-4.027 0-7.174 3.142-7.174 7.29S13.423 33.9 17.45 33.9c4.027 0 6.04-3.017 6.04-3.017l1.258 1.132s-2.516 3.645-7.298 3.645a9.018 9.018 0 0 1-9.062-9.05 9.018 9.018 0 0 1 9.062-9.052M27.038 35.407H28.8V17.809h-1.762zM37.56 24.722c-2.391 0-4.404 2.012-4.404 4.652 0 2.614 2.013 4.65 4.404 4.65s4.405-2.01 4.405-4.65c0-2.64-2.014-4.652-4.405-4.652zm0-1.633c3.398 0 6.167 2.765 6.167 6.285 0 3.519-2.769 6.285-6.167 6.285-3.398 0-6.167-2.766-6.167-6.285 0-3.52 2.77-6.285 6.167-6.285zm17.412 10.684s-1.258 1.886-3.901 1.886c-2.77 0-4.908-2.137-4.908-5.28V23.34h1.761v7.04c0 2.137 1.51 3.645 3.398 3.645 2.014 0 3.65-1.635 3.65-4.023V23.34h1.762v12.067h-1.762v-1.634m10.183-9.05c-2.014 0-4.027 2.011-4.027 4.651 0 2.64 2.013 4.65 4.027 4.65 2.14 0 4.28-2.136 4.28-4.65 0-2.514-2.14-4.652-4.28-4.652zm4.28-6.914h1.76v17.598h-1.76v-1.885s-1.511 2.137-4.28 2.137c-3.02 0-5.789-2.766-5.789-6.285 0-3.52 2.769-6.285 5.79-6.285 2.768 0 4.278 2.136 4.278 2.136V17.81zM21.854 57.971v1.761H9.521V42.134h12.081v1.759H11.409v5.783h8.18v1.76h-8.18v6.535h10.445M25.893 49.425s1.259-2.011 3.902-2.011c2.895 0 4.908 2.01 4.908 5.152v7.166H32.94v-7.166c0-2.136-1.384-3.52-3.272-3.52-2.14 0-3.776 1.635-3.776 4.023v6.663h-1.76V47.664h1.76v1.76m19.376 4.903v-.755l-4.154.755c-1.51.276-2.265 1.005-2.265 2.137 0 1.005.881 1.885 2.518 1.885 2.264 0 3.9-1.634 3.9-4.022zm0-2.263c0-1.76-1.26-3.017-3.02-3.017-2.14 0-3.399 1.76-3.399 1.76l-1.132-1.131s1.636-2.262 4.53-2.262c2.768 0 4.782 2.01 4.782 4.65v7.668H45.27v-1.635s-1.26 1.886-3.901 1.886c-2.518 0-4.28-1.76-4.28-3.519 0-2.012 1.259-3.268 3.524-3.645l4.657-.755zm11.16 6.285c2.013 0 4.026-2.011 4.026-4.65 0-2.64-2.013-4.652-4.027-4.652-2.139 0-4.279 2.137-4.279 4.651s2.14 4.651 4.28 4.651zm-4.28-8.8s1.511-2.135 4.28-2.135c3.02 0 5.789 2.765 5.789 6.284 0 3.52-2.77 6.285-5.79 6.285-2.768 0-4.279-2.137-4.279-2.137v1.886h-1.761V42.134h1.761v7.415zM64.837 59.732h1.762V42.134h-1.762zM70.955 52.819h8.18c-.252-2.138-1.888-3.772-4.028-3.772-2.14 0-3.9 1.76-4.152 3.772zm0 1.508c.126 2.137 2.013 4.022 4.279 4.022 2.542 0 3.9-2.011 3.9-2.011l1.133 1.131s-1.762 2.514-5.033 2.514c-3.273 0-6.042-2.766-6.042-6.285 0-3.52 2.77-6.284 5.915-6.284 3.273 0 5.79 2.512 5.79 6.033 0 .502-.126.904-.126.904l-9.816-.024zm28.579-1.76c0-2.288-1.259-3.52-3.02-3.52-1.762 0-3.272 1.509-3.272 4.022v6.663h-1.763v-7.166c0-2.262-1.257-3.52-3.02-3.52-1.76 0-3.272 1.51-3.272 4.023v6.663h-1.761V47.664h1.761v1.508s1.008-1.758 3.398-1.758c2.894 0 3.902 2.135 3.902 2.135s1.132-2.135 4.153-2.135c2.643 0 4.656 1.784 4.656 5.152v7.166h-1.762v-7.166m6.032.253h8.18c-.252-2.138-1.888-3.772-4.027-3.772-2.14 0-3.901 1.76-4.153 3.772zm0 1.508c.126 2.137 2.013 4.022 4.279 4.022 2.541 0 3.901-2.011 3.901-2.011l1.133 1.131s-1.762 2.514-5.034 2.514-6.04-2.766-6.04-6.285c0-3.52 2.768-6.284 5.914-6.284 3.271 0 5.789 2.512 5.789 6.033 0 .502-.126.904-.126.904l-9.816-.024zm14.233-4.902s1.259-2.011 3.901-2.011c2.895 0 4.909 2.01 4.909 5.152v7.166h-1.763v-7.166c0-2.136-1.384-3.52-3.272-3.52-2.139 0-3.775 1.635-3.775 4.023v6.663h-1.762V47.664h1.762v1.76m12.823-5.782h1.637v4.022h2.642V49.3h-2.642v7.165c0 1.257.629 1.885 1.635 1.885.881 0 1.637-.378 1.637-.378v1.635s-.756.377-1.712.377c-2.064 0-3.322-1.257-3.322-3.519V49.3h-2.266v-1.635h1.384c.63 0 1.007-.377 1.007-1.256v-2.766M25.283 7.352c0-1.06-.838-1.942-1.884-1.942-1.062 0-1.87.881-1.87 1.942 0 1.06.808 1.942 1.87 1.942 1.046 0 1.884-.882 1.884-1.942zm-5.757 0c0-2.15 1.72-3.883 3.873-3.883a3.865 3.865 0 0 1 3.873 3.883c0 2.15-1.72 3.883-3.873 3.883a3.865 3.865 0 0 1-3.873-3.883zm13.837-.016c0-1.104-.807-2-1.914-2-1.136 0-2.004.85-2.004 2s.868 2.017 2.004 2.017c1.107 0 1.914-.91 1.914-2.017zm-5.838.016c0-2.644 1.944-3.883 3.634-3.883.971 0 1.735.403 2.228.956v-.807h2.048v7.258c0 2.106-1.33 3.809-3.857 3.809-1.9 0-3.29-.986-3.888-2.15l1.81-1.017c.388.777 1.076 1.27 2.078 1.27 1.106 0 1.81-.866 1.81-1.837v-.702c-.494.583-1.287.986-2.258.986-1.586 0-3.605-1.255-3.605-3.883zm8.613-3.734h2.034v.837c.478-.613 1.21-.986 2.063-.986 1.764 0 2.826 1.135 2.826 3.061v4.555h-2.078V6.8c0-1-.464-1.583-1.376-1.583-.778 0-1.42.538-1.42 1.792v4.077h-2.049V3.618M46.29 9.264l3.932-3.839H46.35V3.618h6.623v1.837l-3.932 3.823h4.008v1.807H46.29V9.264M58.915 7.336c0-1.104-.807-2-1.913-2-1.136 0-2.003.85-2.003 2s.867 2.017 2.003 2.017c1.106 0 1.913-.91 1.913-2.017zm-5.837.016c0-2.644 1.944-3.883 3.634-3.883.972 0 1.734.358 2.228.881v-.732h2.048v7.467H58.94v-.836c-.494.583-1.287.986-2.259.986-1.584 0-3.603-1.255-3.603-3.883zm8.613-3.734h2.033v.837a2.575 2.575 0 0 1 2.063-.986c1.765 0 2.827 1.135 2.827 3.061v4.555h-2.079V6.8c0-1-.463-1.583-1.375-1.583-.778 0-1.421.538-1.421 1.792v4.077h-2.048V3.618M43.693 11.083h2.048V3.615h-2.048zM43.693 3.156h2.049V1.314h-2.049zM73.452 5.453V3.615h-1.406V1.314h-2.048v2.301h-1.27v1.838h1.27v2.39c0 2.433.777 3.24 3.155 3.24h.299V9.171c-1.256 0-1.406-.18-1.406-1.344V5.453h1.406m-64.56.176c0-3.256 2.453-5.6 5.609-5.6 2.048 0 3.827 1.075 4.784 2.703l-1.824 1.165c-.614-1.135-1.57-1.822-2.96-1.822-2.035 0-3.545 1.553-3.545 3.554 0 1.956 1.496 3.525 3.5 3.525 1.494 0 2.542-.867 3.094-2.032l1.9 1.002c-.957 1.85-2.781 3.106-4.95 3.106-3.379 0-5.607-2.495-5.607-5.601"/><path fill="#00B140" d="M0 59.87h1.94V.189H0z"/></g></svg>