<svg xmlns="http://www.w3.org/2000/svg" width="161" height="60" viewBox="0 0 161 60"><g fill="none" fill-rule="evenodd"><path fill="#FFF" d="M17.39 17.557c4.767 0 7.15 3.647 7.15 3.647l-1.255 1.13s-1.88-3.016-5.895-3.016c-4.013 0-7.15 3.142-7.15 7.29s3.137 7.291 7.15 7.291c4.014 0 6.021-3.017 6.021-3.017l1.254 1.132s-2.508 3.645-7.275 3.645a9.003 9.003 0 0 1-9.03-9.05 9.003 9.003 0 0 1 9.03-9.052m15.008 7.165c-2.383 0-4.39 2.012-4.39 4.652 0 2.614 2.007 4.65 4.39 4.65 2.383 0 4.39-2.01 4.39-4.65 0-2.64-2.007-4.652-4.39-4.652zm0-1.633c3.387 0 6.146 2.765 6.146 6.285 0 3.519-2.76 6.285-6.146 6.285s-6.146-2.766-6.146-6.285c0-3.52 2.76-6.285 6.146-6.285zm14.938 1.76h-.753c-2.006 0-3.763 1.508-3.763 3.896v6.662h-1.755V23.34h1.755v1.635s1.255-1.886 4.014-1.886h.502v1.76m2.313 3.645h8.153c-.25-2.137-1.882-3.772-4.013-3.772-2.133 0-3.889 1.76-4.14 3.772zm0 1.508c.126 2.138 2.007 4.023 4.265 4.023 2.534 0 3.888-2.01 3.888-2.01l1.129 1.13s-1.756 2.514-5.017 2.514-6.02-2.766-6.02-6.285c0-3.52 2.759-6.285 5.895-6.285 3.26 0 5.769 2.513 5.769 6.034 0 .502-.126.904-.126.904l-9.783-.025zM18.394 54.704l-7.024-9.302v14.33H9.489V42.134h1.631l7.274 9.553 7.275-9.553h1.63v17.598h-1.881v-14.33l-7.024 9.302M36.574 49.047c-2.383 0-4.39 2.011-4.39 4.651 0 2.614 2.007 4.651 4.39 4.651 2.383 0 4.39-2.011 4.39-4.65 0-2.64-2.007-4.652-4.39-4.652zm0-1.633c3.386 0 6.146 2.765 6.146 6.284 0 3.52-2.76 6.285-6.146 6.285s-6.146-2.766-6.146-6.285c0-3.52 2.76-6.284 6.146-6.284zm13.639 1.633c-2.008 0-4.014 2.011-4.014 4.651 0 2.64 2.006 4.651 4.014 4.651 2.131 0 4.264-2.137 4.264-4.65 0-2.515-2.133-4.652-4.264-4.652zm4.264-6.913h1.756v17.598h-1.756v-1.886s-1.506 2.137-4.264 2.137c-3.01 0-5.77-2.766-5.77-6.285 0-3.52 2.76-6.284 5.77-6.284 2.758 0 4.264 2.135 4.264 2.135v-7.415zm6.092 10.685h8.154c-.252-2.138-1.882-3.772-4.014-3.772-2.133 0-3.889 1.76-4.14 3.772zm0 1.508c.126 2.137 2.007 4.022 4.265 4.022 2.534 0 3.889-2.011 3.889-2.011l1.128 1.131s-1.756 2.514-5.017 2.514c-3.26 0-6.02-2.766-6.02-6.285 0-3.52 2.76-6.284 5.895-6.284 3.26 0 5.769 2.512 5.769 6.033 0 .502-.125.904-.125.904l-9.784-.024zm18.701-5.155h-.752c-2.007 0-3.763 1.51-3.763 3.897v6.663h-1.756V47.664h1.756V49.3s1.254-1.885 4.014-1.885h.501v1.758m3.525.253s1.255-2.011 3.889-2.011c2.885 0 4.892 2.01 4.892 5.152v7.166h-1.757v-7.166c0-2.136-1.379-3.52-3.26-3.52-2.133 0-3.764 1.635-3.764 4.023v6.663H81.04V47.664h1.755v1.76m12.01 10.308h1.757V47.664h-1.756v12.068zm.878-17.221c.627 0 1.129.503 1.129 1.13 0 .63-.502 1.133-1.129 1.133a1.125 1.125 0 0 1-1.128-1.132c0-.628.501-1.131 1.128-1.131zM108.032 49.299l-7.274 8.798h7.525v1.635h-9.658v-1.635l7.275-8.798h-7.024v-1.635h9.156v1.635M117.931 54.327v-.755l-4.139.755c-1.505.276-2.258 1.005-2.258 2.137 0 1.005.878 1.885 2.509 1.885 2.257 0 3.888-1.634 3.888-4.022zm0-2.263c0-1.76-1.255-3.017-3.01-3.017-2.133 0-3.387 1.76-3.387 1.76l-1.128-1.131s1.63-2.262 4.515-2.262c2.759 0 4.766 2.01 4.766 4.65v7.668h-1.756v-1.635s-1.255 1.886-3.888 1.886c-2.509 0-4.264-1.76-4.264-3.519 0-2.012 1.254-3.268 3.51-3.645l4.642-.755zm5.795-8.422h1.63v4.022h2.634V49.3h-2.633v7.165c0 1.257.626 1.885 1.63 1.885.878 0 1.63-.378 1.63-.378v1.635s-.752.377-1.706.377c-2.057 0-3.31-1.257-3.31-3.519V49.3h-2.258v-1.635h1.38c.626 0 1.003-.377 1.003-1.256v-2.766m6.966 16.09h1.756V47.664h-1.756v12.068zm.878-17.221c.628 0 1.13.503 1.13 1.13 0 .63-.502 1.133-1.13 1.133a1.125 1.125 0 0 1-1.128-1.132c0-.628.501-1.131 1.128-1.131zm9.506 6.536c-2.383 0-4.39 2.011-4.39 4.651 0 2.614 2.007 4.651 4.39 4.651 2.383 0 4.39-2.011 4.39-4.65 0-2.64-2.007-4.652-4.39-4.652zm0-1.633c3.387 0 6.146 2.765 6.146 6.284 0 3.52-2.759 6.285-6.146 6.285-3.386 0-6.146-2.766-6.146-6.285 0-3.52 2.76-6.284 6.146-6.284zm10.423 2.01s1.254-2.01 3.889-2.01c2.884 0 4.891 2.01 4.891 5.152v7.166h-1.755v-7.166c0-2.136-1.38-3.52-3.263-3.52-2.131 0-3.762 1.635-3.762 4.023v6.663h-1.756V47.664h1.756v1.76M25.2 7.353c0-1.06-.835-1.942-1.878-1.942-1.059 0-1.863.881-1.863 1.942 0 1.06.804 1.942 1.863 1.942 1.043 0 1.878-.882 1.878-1.942zm-5.738 0a3.859 3.859 0 0 1 3.86-3.883 3.859 3.859 0 0 1 3.86 3.883 3.859 3.859 0 0 1-3.86 3.883 3.859 3.859 0 0 1-3.86-3.883zm13.79-.016c0-1.104-.804-2-1.907-2-1.133 0-1.997.85-1.997 2s.864 2.017 1.997 2.017c1.103 0 1.907-.91 1.907-2.017zm-5.817.016c0-2.644 1.937-3.883 3.62-3.883.97 0 1.73.403 2.221.956v-.807h2.041v7.258c0 2.106-1.326 3.809-3.844 3.809-1.892 0-3.278-.986-3.875-2.15l1.804-1.017c.387.777 1.072 1.27 2.07 1.27 1.104 0 1.804-.866 1.804-1.837v-.702c-.492.583-1.281.986-2.25.986-1.58 0-3.591-1.255-3.591-3.883zm8.583-3.734h2.027v.837a2.562 2.562 0 0 1 2.056-.986c1.758 0 2.817 1.135 2.817 3.061v4.555h-2.072V6.8c0-1-.462-1.583-1.37-1.583-.775 0-1.416.538-1.416 1.792v4.077h-2.042V3.618M46.135 9.264l3.919-3.839h-3.859V3.618h6.602v1.837l-3.92 3.823h3.994v1.807h-6.736V9.264M58.718 7.336c0-1.104-.804-2-1.907-2-1.133 0-1.997.85-1.997 2s.864 2.017 1.997 2.017c1.103 0 1.907-.91 1.907-2.017zm-5.818.016c0-2.644 1.938-3.883 3.622-3.883.969 0 1.728.358 2.22.881v-.732h2.042v7.467h-2.042v-.836c-.492.583-1.281.986-2.25.986-1.58 0-3.592-1.255-3.592-3.883zm8.584-3.734h2.027v.837a2.561 2.561 0 0 1 2.056-.986c1.759 0 2.817 1.135 2.817 3.061v4.555h-2.071V6.8c0-1-.462-1.583-1.372-1.583-.774 0-1.416.538-1.416 1.792v4.077h-2.04V3.618M43.547 11.083h2.041V3.615h-2.041zM43.547 3.156h2.042V1.314h-2.042zM73.206 5.453V3.615h-1.4V1.314h-2.042v2.301h-1.267v1.838h1.267v2.39c0 2.433.774 3.24 3.144 3.24h.298V9.171c-1.252 0-1.4-.18-1.4-1.344V5.453h1.4m-64.343.176c0-3.256 2.444-5.6 5.589-5.6a5.494 5.494 0 0 1 4.768 2.703l-1.817 1.165c-.611-1.135-1.565-1.822-2.951-1.822-2.027 0-3.532 1.553-3.532 3.554 0 1.956 1.49 3.525 3.487 3.525 1.49 0 2.534-.867 3.085-2.032l1.893 1.002c-.954 1.85-2.772 3.106-4.933 3.106-3.368 0-5.589-2.495-5.589-5.601"/><path fill="#00B140" d="M0 59.87h1.933V.189H0z"/></g></svg>