<svg xmlns="http://www.w3.org/2000/svg" width="147" height="45" viewBox="0 0 147 45"><g fill="none" fill-rule="evenodd"><path fill="#FFF" d="M11.729 44.226h2.325V22.522h-2.325zM21.007 31.514s1.55-2.481 4.806-2.481c3.565 0 6.046 2.481 6.046 6.356v8.837h-2.17v-8.837c0-2.635-1.705-4.34-4.031-4.34-2.635 0-4.651 2.015-4.651 4.96v8.217h-2.171V29.343h2.171v2.171m15.797-7.132h2.016v4.961h3.256v2.016H38.82v8.837c0 1.55.775 2.325 2.015 2.325 1.085 0 2.015-.465 2.015-.465v2.015s-.93.465-2.108.465c-2.542 0-4.093-1.55-4.093-4.34v-8.837h-2.79v-2.016h1.705c.775 0 1.24-.464 1.24-1.55v-3.411M46.277 35.7h10.077c-.31-2.636-2.325-4.651-4.961-4.651s-4.806 2.17-5.116 4.651zm0 1.86c.155 2.636 2.48 4.961 5.271 4.961 3.132 0 4.806-2.48 4.806-2.48l1.396 1.395s-2.17 3.1-6.202 3.1c-4.031 0-7.441-3.41-7.441-7.751s3.41-7.752 7.286-7.752c4.031 0 7.132 3.101 7.132 7.442 0 .62-.155 1.116-.155 1.116l-12.093-.031zm23.115-6.356h-.931c-2.48 0-4.65 1.86-4.65 4.805v8.217H61.64V29.343h2.171v2.016s1.55-2.326 4.961-2.326h.62v2.171m11.246 6.356v-.93l-5.116.93c-1.86.341-2.79 1.24-2.79 2.636 0 1.24 1.085 2.325 3.1 2.325 2.791 0 4.806-2.015 4.806-4.961zm0-2.791c0-2.17-1.551-3.72-3.721-3.72-2.635 0-4.185 2.17-4.185 2.17l-1.396-1.395s2.015-2.791 5.581-2.791c3.411 0 5.891 2.481 5.891 5.736v9.457h-2.17v-2.015s-1.551 2.325-4.806 2.325c-3.1 0-5.271-2.17-5.271-4.34 0-2.481 1.55-4.031 4.341-4.496l5.736-.931zm12.672-5.736c3.876 0 6.046 2.946 6.046 2.946l-1.55 1.55s-1.551-2.48-4.496-2.48c-2.791 0-5.271 2.48-5.271 5.736s2.48 5.736 5.271 5.736c2.945 0 4.65-2.48 4.65-2.48l1.551 1.395s-2.325 3.1-6.201 3.1c-4.031 0-7.441-3.41-7.441-7.751s3.41-7.752 7.441-7.752m10.716-4.651h2.016v4.961h3.254v2.016h-3.254v8.837c0 1.55.774 2.325 2.014 2.325 1.086 0 2.016-.465 2.016-.465v2.015s-.93.465-2.109.465c-2.542 0-4.092-1.55-4.092-4.34v-8.837h-2.79v-2.016h1.705c.775 0 1.24-.464 1.24-1.55v-3.411m8.611 19.844h2.171V29.343h-2.171v14.883zm1.085-21.239c.776 0 1.396.62 1.396 1.395a1.39 1.39 0 0 1-1.396 1.396 1.39 1.39 0 0 1-1.394-1.396c0-.775.62-1.395 1.394-1.395zM123.029 44.226l-6.047-14.883h2.326l4.806 11.938 4.805-11.938h2.327l-6.047 14.883h-2.17M133.994 35.7h10.076c-.31-2.636-2.325-4.651-4.961-4.651-2.635 0-4.806 2.17-5.115 4.651zm0 1.86c.154 2.636 2.48 4.961 5.27 4.961 3.132 0 4.806-2.48 4.806-2.48l1.395 1.395s-2.171 3.1-6.201 3.1c-4.03 0-7.441-3.41-7.441-7.751s3.411-7.752 7.286-7.752c4.031 0 7.132 3.101 7.132 7.442a4.13 4.13 0 0 1-.156 1.116l-12.091-.031zM31.146 9.624c0-1.307-1.032-2.394-2.321-2.394-1.308 0-2.303 1.087-2.303 2.394 0 1.308.995 2.395 2.303 2.395 1.289 0 2.321-1.087 2.321-2.395zm-7.092 0a4.764 4.764 0 0 1 4.771-4.789 4.764 4.764 0 0 1 4.77 4.789 4.764 4.764 0 0 1-4.77 4.79 4.764 4.764 0 0 1-4.771-4.79zm17.045-.018c0-1.363-.995-2.468-2.357-2.468-1.401 0-2.469 1.05-2.469 2.468s1.068 2.486 2.469 2.486c1.362 0 2.357-1.123 2.357-2.486zm-7.191.018c0-3.26 2.395-4.789 4.476-4.789 1.197 0 2.137.498 2.744 1.179v-.995h2.524v8.952c0 2.598-1.639 4.698-4.752 4.698-2.339 0-4.053-1.216-4.789-2.653l2.228-1.253c.48.958 1.326 1.566 2.561 1.566 1.363 0 2.228-1.068 2.228-2.265v-.866c-.607.718-1.584 1.216-2.781 1.216-1.952 0-4.439-1.548-4.439-4.79zm10.609-4.605h2.506v1.032c.589-.755 1.492-1.216 2.542-1.216 2.173 0 3.48 1.4 3.48 3.777v5.617h-2.559V8.943c0-1.234-.571-1.953-1.695-1.953-.957 0-1.749.664-1.749 2.211v5.028h-2.525v-9.21M57.024 11.982l4.844-4.734h-4.771V5.019h8.16v2.266l-4.844 4.716h4.936v2.228h-8.325v-2.247M72.577 9.606c0-1.363-.995-2.468-2.358-2.468-1.399 0-2.467 1.05-2.467 2.468s1.068 2.486 2.467 2.486c1.363 0 2.358-1.123 2.358-2.486zm-7.191.018c0-3.26 2.395-4.789 4.476-4.789 1.197 0 2.136.443 2.745 1.087v-.903h2.523v9.21h-2.523v-1.031c-.609.718-1.584 1.216-2.781 1.216-1.953 0-4.44-1.548-4.44-4.79zm10.61-4.605H78.5v1.032c.59-.755 1.493-1.216 2.542-1.216 2.174 0 3.482 1.4 3.482 3.777v5.617h-2.561V8.943c0-1.234-.571-1.953-1.694-1.953-.958 0-1.75.664-1.75 2.211v5.028h-2.523v-9.21M53.825 14.226h2.523v-9.21h-2.523zM53.825 4.449h2.524V2.177h-2.524zM90.484 7.282V5.016h-1.732V2.177h-2.523v2.839h-1.565v2.266h1.565v2.947c0 3.003.958 3.997 3.887 3.997h.368v-2.358c-1.547 0-1.732-.221-1.732-1.657V7.282h1.732M10.955 7.5c0-4.016 3.021-6.908 6.908-6.908 2.523 0 4.715 1.327 5.893 3.334l-2.247 1.437c-.755-1.4-1.933-2.247-3.646-2.247-2.505 0-4.366 1.915-4.366 4.384 0 2.413 1.842 4.347 4.31 4.347 1.842 0 3.132-1.068 3.814-2.506l2.339 1.235c-1.179 2.284-3.426 3.831-6.097 3.831-4.163 0-6.908-3.076-6.908-6.907"/><path fill="#0499EE" d="M0 44.226h2.39V1H0z"/></g></svg>