<svg id="Layer_1" data-name="Layer 1" xmlns="http://www.w3.org/2000/svg" xmlns:xlink="http://www.w3.org/1999/xlink" viewBox="0 0 121.15 71.05"><defs><style>.cls-1,.cls-2{fill:none;}.cls-1{clip-rule:evenodd;}.cls-3{fill:#babcbe;}.cls-4{clip-path:url(#clip-path);}.cls-5{fill:url(#linear-gradient);}.cls-6{fill:#fff;fill-rule:evenodd;}.cls-7{clip-path:url(#clip-path-2);}.cls-8{fill:url(#linear-gradient-2);}.cls-9{clip-path:url(#clip-path-3);}.cls-10{fill:url(#linear-gradient-3);}.cls-11{fill:#888a8c;}.cls-12{fill:#5a9fe0;}</style><clipPath id="clip-path"><polygon id="SVGID" class="cls-1" points="0 44.17 45.12 44.17 89.28 0 0 0 0 44.17"/></clipPath><linearGradient id="linear-gradient" x1="-360.76" y1="332.75" x2="-359.76" y2="332.75" gradientTransform="matrix(0, 44.17, 44.17, 0, -14652.12, 15933.68)" gradientUnits="userSpaceOnUse"><stop offset="0" stop-color="#68b7ef"/><stop offset="0.26" stop-color="#579ad8"/><stop offset="0.53" stop-color="#4b83c6"/><stop offset="0.78" stop-color="#4375bb"/><stop offset="1" stop-color="#4070b7"/></linearGradient><clipPath id="clip-path-2"><polygon id="SVGID-2" data-name="SVGID" class="cls-2" points="76.03 26.89 31.86 71.05 33.36 70.43 76.28 27.51 120.53 27.51 121.15 26.89 76.03 26.89"/></clipPath><linearGradient id="linear-gradient-2" x1="-360.76" y1="332.75" x2="-359.76" y2="332.75" gradientTransform="matrix(0, 44.17, 44.17, 0, -14620.04, 15960.34)" gradientUnits="userSpaceOnUse"><stop offset="0" stop-color="#fff"/><stop offset="0.05" stop-color="#fff"/><stop offset="0.57" stop-color="#f0f0f1"/><stop offset="1" stop-color="#eaeaeb"/></linearGradient><clipPath id="clip-path-3"><polygon id="SVGID-3" data-name="SVGID" class="cls-2" points="120.53 27.51 76.28 27.51 33.36 70.43 31.86 71.05 121.15 71.05 121.15 26.89 120.53 27.51"/></clipPath><linearGradient id="linear-gradient-3" x1="-360.76" y1="332.75" x2="-359.76" y2="332.75" gradientTransform="matrix(0, 44.17, 44.17, 0, -14620.04, 15960.34)" gradientUnits="userSpaceOnUse"><stop offset="0" stop-color="#f7f7f8"/><stop offset="0.05" stop-color="#f7f7f8"/><stop offset="0.58" stop-color="#dedfe0"/><stop offset="1" stop-color="#cfd1d2"/></linearGradient></defs><title>logo-sap-global-partner</title><polygon class="cls-3" points="121.15 71.05 0 44.17 0 0 121.15 26.89 121.15 71.05"/><g class="cls-4"><rect class="cls-5" width="89.28" height="44.17"/></g><path class="cls-6" d="M53,8.31H44.2V29.2L36.52,8.3H28.91L22.35,25.78c-.7-4.41-5.26-5.93-8.84-7.07-2.37-.76-4.88-1.88-4.86-3.12,0-1,1.35-2,4-1.82a14.38,14.38,0,0,1,6.43,1.73l3.05-5.32a23.77,23.77,0,0,0-10-2.36h0A12.09,12.09,0,0,0,3.35,11a7.41,7.41,0,0,0-2.1,5.13,6.88,6.88,0,0,0,3,6.13,20.53,20.53,0,0,0,6,2.73c2.44.76,4.43,1.41,4.41,2.82a2.07,2.07,0,0,1-.58,1.37,3.86,3.86,0,0,1-2.83.89A12.17,12.17,0,0,1,4,28L1.25,33.43a20.31,20.31,0,0,0,9.95,2.65h.46a12,12,0,0,0,7.56-2.54l.32-.28-.88,2.35h8L28,31.54a14.58,14.58,0,0,0,4.69.74,14.74,14.74,0,0,0,4.58-.7l1.29,4h13V27.18H54.4c6.87,0,10.93-3.5,10.93-9.35,0-6.52-3.95-9.52-12.34-9.52M32.67,26.19a8,8,0,0,1-2.82-.49l2.79-8.79h.05l2.74,8.81a8.26,8.26,0,0,1-2.76.47M53.5,21.14H51.56V14.05H53.5c2.58,0,4.64.86,4.64,3.49s-2.06,3.59-4.64,3.59"/><g class="cls-7"><rect class="cls-8" x="31.86" y="26.89" width="89.29" height="44.17"/></g><g class="cls-9"><rect class="cls-10" x="31.86" y="26.89" width="89.29" height="44.17"/></g><polygon class="cls-11" points="23.9 68.03 26.12 68.03 26.12 68.48 25.27 68.48 25.27 71.05 24.74 71.05 24.74 68.48 23.9 68.48 23.9 68.03"/><polygon class="cls-11" points="29.17 68.66 29.16 68.66 28.29 71.05 27.85 71.05 26.98 68.66 26.98 68.66 26.98 71.05 26.44 71.05 26.44 68.03 27.26 68.03 28.07 70.25 28.89 68.03 29.71 68.03 29.71 71.05 29.17 71.05 29.17 68.66"/><path class="cls-12" d="M66.34,62.37V52.08h3.74c2.2,0,4.2.58,4.2,3.3s-2.17,3.34-4.23,3.34H68.6v3.66ZM68.6,57h1.54c1.4,0,1.93-.54,1.93-1.53s-.51-1.5-1.93-1.5H68.6Z"/><path class="cls-12" d="M74.54,60.48c0-1.71,1.45-2.65,4.7-2.92v-.18c0-.54-.28-.89-1-.89a3.94,3.94,0,0,0-2.43.92l-.95-1.28a5.2,5.2,0,0,1,3.7-1.32c2,0,2.87,1,2.87,2.91v2.85a5.05,5.05,0,0,0,.21,1.81H79.41a3.55,3.55,0,0,1-.17-1.09,3.27,3.27,0,0,1-2.59,1.2,2,2,0,0,1-2.11-2m4.7-.32V58.78c-1.77.18-2.52.63-2.52,1.31,0,.47.33.71.82.71a2.29,2.29,0,0,0,1.7-.64"/><path class="cls-12" d="M83.05,62.37V55h2.24V56.2h0a2.8,2.8,0,0,1,2.5-1.39h.07l0,2c-.08,0-.45,0-.58,0a2.48,2.48,0,0,0-2,1v4.6Z"/><path class="cls-12" d="M89.64,60.29v-3.7H88.41V55h1.24V52.42h2.23V55h1.9v1.63h-1.9V59.8c0,.79.22,1,1,1a2.73,2.73,0,0,0,.74-.09v1.6a11,11,0,0,1-1.48.11c-2.2,0-2.52-.79-2.52-2.18"/><path class="cls-12" d="M95,62.37V55h2.24v1.17a3.17,3.17,0,0,1,2.56-1.32A1.94,1.94,0,0,1,101.95,57v5.41H99.72v-4.7c0-.67-.25-1-.87-1a2.51,2.51,0,0,0-1.61.74v5Z"/><path class="cls-12" d="M103.12,58.67a3.64,3.64,0,0,1,3.73-3.87c1.53,0,3.41.77,3.41,4.13v.33h-4.91a1.61,1.61,0,0,0,1.72,1.7,3.41,3.41,0,0,0,2.2-.89l.86,1.33a4.79,4.79,0,0,1-3.23,1.11,3.49,3.49,0,0,1-3.78-3.85m5.13-.72c-.11-1-.58-1.54-1.42-1.54s-1.29.46-1.46,1.54Z"/><path class="cls-12" d="M111.53,62.37V55h2.24V56.2h0a2.8,2.8,0,0,1,2.5-1.39h.07l0,2c-.08,0-.45,0-.58,0a2.48,2.48,0,0,0-2,1v4.6Z"/><path class="cls-12" d="M73.55,44.1c0-3.23,1.79-5.3,4.69-5.3a3.89,3.89,0,0,1,4.16,3.3l-2.07.57c-.43-1.43-1.08-2-2.1-2-.83,0-2.39.49-2.39,3.38s1.39,3.6,2.49,3.6a2.07,2.07,0,0,0,2.11-1.85h-1.8V44.13h4v5.16H80.76V47.87h0a2.84,2.84,0,0,1-2.68,1.61c-3.11,0-4.5-2.28-4.5-5.38"/><rect class="cls-12" x="84.38" y="39" width="2.23" height="10.29"/><path class="cls-12" d="M88,45.59a3.79,3.79,0,1,1,7.58,0,3.79,3.79,0,1,1-7.58,0m5.34,0c0-1.24-.43-2.24-1.54-2.24s-1.56.9-1.56,2.24.42,2.27,1.56,2.27,1.54-.92,1.54-2.27"/><path class="cls-12" d="M99,48.41v.88H96.76V39H99v4a2.72,2.72,0,0,1,2.28-1.3c1.68,0,2.85,1.3,2.85,3.85S103,49.4,101.25,49.4a2.81,2.81,0,0,1-2.25-1m2.89-2.82c0-1.24-.43-2-1.43-2A2.17,2.17,0,0,0,99,44.3V47a2,2,0,0,0,1.49.68c.93,0,1.41-.78,1.41-2.13"/><path class="cls-12" d="M104.81,47.4c0-1.71,1.45-2.65,4.7-2.92V44.3c0-.54-.28-.89-1-.89a4,4,0,0,0-2.43.92L105.13,43a5.19,5.19,0,0,1,3.7-1.32c2,0,2.86,1,2.86,2.91v2.85a5.05,5.05,0,0,0,.21,1.81h-2.23a3.52,3.52,0,0,1-.17-1.09,3.28,3.28,0,0,1-2.59,1.2,2,2,0,0,1-2.11-2m4.7-.32V45.7c-1.77.18-2.52.63-2.52,1.31,0,.47.33.71.82.71a2.29,2.29,0,0,0,1.7-.64"/><rect class="cls-12" x="113.4" y="39" width="2.23" height="10.29"/></svg>