<svg id="Layer_1" data-name="Layer 1" xmlns="http://www.w3.org/2000/svg" viewBox="0 0 702.49 184.23"><defs><style>.cls-1{fill:#5a9fdc;}.cls-2{fill:#fff;}.cls-3{fill:#7c838a;}</style></defs><title>logo-salesforce-globalStrategicPartner</title><path class="cls-1" d="M109.66,20.09a46.27,46.27,0,0,1,74.07,9.74,56.24,56.24,0,0,1,23-4.88c31.37,0,56.81,25.63,56.81,57.24s-25.44,57.24-56.81,57.24a56.68,56.68,0,0,1-11.19-1.11,41.56,41.56,0,0,1-54.41,17.07A47.4,47.4,0,0,1,53,153.25a43.72,43.72,0,0,1-9,.94A44.47,44.47,0,0,1,22,71.36a51.17,51.17,0,0,1,87.67-51.26"/><path class="cls-2" d="M38.17,95.54c-.17.43.06.52.11.6a15.89,15.89,0,0,0,9.38,2.75c5.41,0,8.76-2.87,8.76-7.49V91.3c0-4.27-3.79-5.83-7.34-6.95l-.46-.15c-2.68-.87-5-1.62-5-3.38v-.09c0-1.51,1.35-2.62,3.45-2.62a15.62,15.62,0,0,1,6.87,1.75s.52.34.72-.17c.1-.27,1-2.69,1.1-3a.5.5,0,0,0-.26-.61,15.34,15.34,0,0,0-7.75-2.08h-.54c-4.95,0-8.4,3-8.4,7.26v.09c0,4.51,3.81,6,7.38,7l.57.18c2.6.8,4.84,1.49,4.84,3.31V92c0,1.67-1.46,2.92-3.81,2.92a12.77,12.77,0,0,1-7-2c-.38-.22-.6-.38-.89-.56a.43.43,0,0,0-.71.24Z"/><path class="cls-2" d="M117.3,95.54c-.17.43.06.52.11.6a15.87,15.87,0,0,0,9.38,2.75c5.41,0,8.76-2.87,8.76-7.49V91.3c0-4.27-3.79-5.83-7.34-6.95l-.46-.15c-2.68-.87-5-1.62-5-3.38v-.09c0-1.51,1.35-2.62,3.45-2.62a15.62,15.62,0,0,1,6.87,1.75s.52.34.72-.17l1.1-3a.5.5,0,0,0-.26-.61,15.34,15.34,0,0,0-7.74-2.08h-.54c-4.95,0-8.4,3-8.4,7.26v.09c0,4.51,3.81,6,7.38,7l.57.18c2.6.8,4.84,1.49,4.84,3.31V92c0,1.67-1.46,2.92-3.81,2.92a12.77,12.77,0,0,1-7-2c-.38-.22-.6-.37-.89-.56a.46.46,0,0,0-.71.24Z"/><path class="cls-2" d="M171.32,86.48a11.1,11.1,0,0,1-1.45,6.13,4.85,4.85,0,0,1-4.39,2.14,4.8,4.8,0,0,1-4.37-2.14,11.24,11.24,0,0,1-1.43-6.13,11.12,11.12,0,0,1,1.43-6.1,4.82,4.82,0,0,1,4.37-2.12,4.87,4.87,0,0,1,4.4,2.12,11,11,0,0,1,1.45,6.1m4.51-4.84a10.9,10.9,0,0,0-2.05-3.92,9.92,9.92,0,0,0-3.47-2.63,12.56,12.56,0,0,0-9.67,0,9.93,9.93,0,0,0-3.47,2.63,10.91,10.91,0,0,0-2.05,3.91,18,18,0,0,0,0,9.69,10.89,10.89,0,0,0,2.05,3.92,9.71,9.71,0,0,0,3.47,2.61,12.84,12.84,0,0,0,9.67,0,9.7,9.7,0,0,0,3.47-2.61,10.91,10.91,0,0,0,2.05-3.92,18,18,0,0,0,0-9.69"/><path class="cls-2" d="M212.89,94.05a.43.43,0,0,0-.58-.27,10.44,10.44,0,0,1-2.1.6,16,16,0,0,1-2.47.18,6.88,6.88,0,0,1-5.16-1.93c-1.25-1.28-1.95-3.36-1.94-6.16a9.56,9.56,0,0,1,1.73-5.94,5.89,5.89,0,0,1,5-2.2,15.14,15.14,0,0,1,4.77.68s.35.16.52-.31c.4-1.09.69-1.87,1.11-3.08a.41.41,0,0,0-.28-.53,17.8,17.8,0,0,0-3-.76,22.93,22.93,0,0,0-3.39-.23,12.32,12.32,0,0,0-5,1,10.43,10.43,0,0,0-3.63,2.63,11.1,11.1,0,0,0-2.2,3.91,15.53,15.53,0,0,0-.74,4.85c0,3.74,1,6.76,3,9s5,3.35,8.91,3.35a18.41,18.41,0,0,0,6.39-1.14.41.41,0,0,0,.18-.54Z"/><path class="cls-2" d="M220.79,84a8.91,8.91,0,0,1,1.23-3.6,4.87,4.87,0,0,1,4.37-2.21,4.74,4.74,0,0,1,4.28,2.21,7.53,7.53,0,0,1,1,3.6ZM236,80.79a9.5,9.5,0,0,0-2-3.57,8.91,8.91,0,0,0-2.9-2.21,11.14,11.14,0,0,0-4.37-.89,12,12,0,0,0-5,1,10,10,0,0,0-3.52,2.68,11,11,0,0,0-2.07,4,17.14,17.14,0,0,0-.67,4.87,16.32,16.32,0,0,0,.69,4.87,9.78,9.78,0,0,0,6.05,6.42,15.3,15.3,0,0,0,5.54.9c4.41,0,6.73-1,7.69-1.53.17-.09.33-.26.13-.73l-1-2.79a.44.44,0,0,0-.58-.27,14.71,14.71,0,0,1-6.27,1.13,7.26,7.26,0,0,1-5.23-1.79c-1.13-1.12-1.68-2.76-1.78-5.07H236a.45.45,0,0,0,.44-.4,16.29,16.29,0,0,0-.46-6.57"/><path class="cls-2" d="M98.46,84a8.91,8.91,0,0,1,1.23-3.6,4.87,4.87,0,0,1,4.37-2.21,4.74,4.74,0,0,1,4.28,2.21,7.53,7.53,0,0,1,1,3.6Zm15.19-3.19a9.5,9.5,0,0,0-2-3.57A8.9,8.9,0,0,0,108.8,75a11.14,11.14,0,0,0-4.37-.89,12,12,0,0,0-5,1,10.05,10.05,0,0,0-3.52,2.68,11,11,0,0,0-2.07,4,17.14,17.14,0,0,0-.67,4.87,16.32,16.32,0,0,0,.69,4.87,9.78,9.78,0,0,0,6.05,6.42,15.3,15.3,0,0,0,5.54.9c4.41,0,6.73-1,7.69-1.53.17-.09.33-.26.13-.73l-1-2.79a.44.44,0,0,0-.58-.27,14.72,14.72,0,0,1-6.27,1.13,7.25,7.25,0,0,1-5.22-1.79c-1.13-1.12-1.68-2.76-1.78-5.07h15.27a.45.45,0,0,0,.44-.4,16.26,16.26,0,0,0-.46-6.57"/><path class="cls-2" d="M65.44,94a3,3,0,0,1-.88-.9,3.65,3.65,0,0,1-.46-2,3.34,3.34,0,0,1,1.36-3S66.79,87,69.9,87a31.27,31.27,0,0,1,4.15.35v6.94h0a31.1,31.1,0,0,1-4.13.55C66.81,95,65.43,94,65.44,94m6.08-10.72c-.62,0-1.42-.07-2.39-.07a14.48,14.48,0,0,0-3.76.48,9.9,9.9,0,0,0-3.19,1.48,7.13,7.13,0,0,0-3,6,8,8,0,0,0,.7,3.48,6.33,6.33,0,0,0,2,2.39A8.42,8.42,0,0,0,65,98.38a18.31,18.31,0,0,0,4,.41,27.8,27.8,0,0,0,4.64-.39c1.5-.25,3.34-.63,3.85-.75s1.07-.27,1.07-.27a.48.48,0,0,0,.35-.5v-14c0-3.06-.82-5.33-2.43-6.74s-4-2.11-7-2.11a25.24,25.24,0,0,0-4.1.38s-3.33.65-4.71,1.72a.47.47,0,0,0-.14.61l1.08,2.9a.39.39,0,0,0,.5.25,2.1,2.1,0,0,0,.25-.13A15.56,15.56,0,0,1,69,78.28a6.16,6.16,0,0,1,3.77,1c.83.64,1.26,1.6,1.26,3.63v.65c-1.31-.19-2.52-.3-2.52-.3"/><path class="cls-2" d="M194.72,75.39a.41.41,0,0,0-.23-.55,13.36,13.36,0,0,0-2.56-.44A7.59,7.59,0,0,0,188,75a6.87,6.87,0,0,0-2.58,1.9V75.08a.44.44,0,0,0-.44-.46h-3.92a.44.44,0,0,0-.44.46V97.84a.46.46,0,0,0,.46.46h4a.46.46,0,0,0,.46-.46V86.46a13.4,13.4,0,0,1,.5-4,5.72,5.72,0,0,1,1.34-2.24,4.65,4.65,0,0,1,1.89-1.13,7.37,7.37,0,0,1,2-.29A8.65,8.65,0,0,1,193,79c.3,0,.46-.15.56-.41.26-.7,1-2.79,1.15-3.2"/><path class="cls-2" d="M157,64.84a12.71,12.71,0,0,0-1.51-.36,11.91,11.91,0,0,0-2.08-.16A8.75,8.75,0,0,0,147,66.64a12.59,12.59,0,0,0-3.07,6.92l-.19,1h-3.47a.52.52,0,0,0-.51.44l-.57,3.17c0,.3.09.49.5.49h3.37l-3.42,19.09a23.9,23.9,0,0,1-.91,3.76,7.72,7.72,0,0,1-1.07,2.17,2.82,2.82,0,0,1-1.4,1.08,5.67,5.67,0,0,1-1.8.26,7,7,0,0,1-1.22-.13,3.66,3.66,0,0,1-.82-.27.42.42,0,0,0-.55.24c-.13.32-1,2.8-1.13,3.1a.45.45,0,0,0,.24.61,11.27,11.27,0,0,0,1.4.41,9.22,9.22,0,0,0,2.24.21,11.16,11.16,0,0,0,3.75-.58,7,7,0,0,0,2.82-2,10.15,10.15,0,0,0,2-3.41,29.13,29.13,0,0,0,1.34-5.12l3.44-19.45h5a.51.51,0,0,0,.51-.44l.57-3.17c0-.3-.09-.49-.5-.49h-4.88a20.82,20.82,0,0,1,.81-3.44,4.43,4.43,0,0,1,1.07-1.63,3.19,3.19,0,0,1,1.28-.8,5.36,5.36,0,0,1,1.64-.23,6.25,6.25,0,0,1,1.25.13c.47.1.66.15.78.19.5.15.57,0,.66-.24l1.17-3.2a.41.41,0,0,0-.28-.53"/><path class="cls-2" d="M88.81,97.83a.44.44,0,0,1-.44.46H84.33a.44.44,0,0,1-.44-.46V65.28a.44.44,0,0,1,.44-.46h4.05a.44.44,0,0,1,.44.46Z"/><path class="cls-3" d="M296.26,28.93a2.09,2.09,0,0,1-.2,1,.58.58,0,0,1-.51.32h-2.67a4.2,4.2,0,0,1,1,1.65,6.1,6.1,0,0,1,.29,1.88,7.39,7.39,0,0,1-.52,2.86,5.74,5.74,0,0,1-1.48,2.1,6.63,6.63,0,0,1-2.29,1.32,9,9,0,0,1-2.94.46,7.67,7.67,0,0,1-2.17-.3,4.51,4.51,0,0,1-1.58-.76,3.24,3.24,0,0,0-.61.85,2.42,2.42,0,0,0-.24,1.1,1.42,1.42,0,0,0,.67,1.2,3.26,3.26,0,0,0,1.79.52l4.87.21a10.07,10.07,0,0,1,2.55.38,6.32,6.32,0,0,1,2,1,4.48,4.48,0,0,1,1.33,1.55,4.61,4.61,0,0,1,.48,2.14,5.74,5.74,0,0,1-.54,2.44,5.64,5.64,0,0,1-1.65,2A8.27,8.27,0,0,1,291,54.31a14.43,14.43,0,0,1-4.06.51,16.6,16.6,0,0,1-3.84-.38,8.34,8.34,0,0,1-2.6-1,4.06,4.06,0,0,1-1.47-1.58,4.45,4.45,0,0,1-.46-2,5.27,5.27,0,0,1,.17-1.33,4.7,4.7,0,0,1,.51-1.22,6,6,0,0,1,.85-1.11,11,11,0,0,1,1.17-1,3.65,3.65,0,0,1-1.5-1.31,3.17,3.17,0,0,1-.49-1.7,4.81,4.81,0,0,1,.52-2.26,7.5,7.5,0,0,1,1.28-1.78,6.11,6.11,0,0,1-1-1.73,6.47,6.47,0,0,1-.37-2.33,7.23,7.23,0,0,1,.54-2.86A6.07,6.07,0,0,1,281.76,29,6.55,6.55,0,0,1,284,27.66a8.79,8.79,0,0,1,2.91-.47,12.67,12.67,0,0,1,1.58.09,11.21,11.21,0,0,1,1.38.26h5.64a.57.57,0,0,1,.53.34A2.39,2.39,0,0,1,296.26,28.93Zm-3.63,19.68a2.1,2.1,0,0,0-1-1.85,5,5,0,0,0-2.66-.69l-4.83-.17a8.78,8.78,0,0,0-1.09,1,5.39,5.39,0,0,0-.67.89,2.93,2.93,0,0,0-.34.84,3.84,3.84,0,0,0-.09.85,2.2,2.2,0,0,0,1.37,2,8.57,8.57,0,0,0,3.81.69,9.58,9.58,0,0,0,2.6-.3,5,5,0,0,0,1.69-.8,2.93,2.93,0,0,0,.92-1.14A3.34,3.34,0,0,0,292.63,48.62Zm-1.72-14.77a4.07,4.07,0,0,0-1-3,4,4,0,0,0-3-1.07,4.18,4.18,0,0,0-1.73.33,3.39,3.39,0,0,0-1.22.91,3.86,3.86,0,0,0-.73,1.34A5.24,5.24,0,0,0,283,34a3.64,3.64,0,0,0,4,4,4.43,4.43,0,0,0,1.76-.32,3.32,3.32,0,0,0,1.23-.89,3.78,3.78,0,0,0,.73-1.32A5.08,5.08,0,0,0,290.91,33.85Z"/><path class="cls-3" d="M302.37,46.73a.47.47,0,0,1-.08.28.65.65,0,0,1-.27.2,1.91,1.91,0,0,1-.52.12,7.15,7.15,0,0,1-.85,0,6.92,6.92,0,0,1-.83,0,2.06,2.06,0,0,1-.53-.12A.57.57,0,0,1,299,47a.51.51,0,0,1-.07-.28V19.05a.57.57,0,0,1,.07-.29.54.54,0,0,1,.27-.21,2.06,2.06,0,0,1,.53-.12,6.92,6.92,0,0,1,.83,0,7.15,7.15,0,0,1,.85,0,1.91,1.91,0,0,1,.52.12.61.61,0,0,1,.27.21.52.52,0,0,1,.08.29Z"/><path class="cls-3" d="M324.34,37.2a14,14,0,0,1-.6,4.2,9.26,9.26,0,0,1-1.79,3.3,8.12,8.12,0,0,1-3,2.17,10.37,10.37,0,0,1-4.15.78,10.76,10.76,0,0,1-4-.68,7.33,7.33,0,0,1-2.85-2,8.42,8.42,0,0,1-1.7-3.17,14.7,14.7,0,0,1-.56-4.23,14.19,14.19,0,0,1,.59-4.2,9.13,9.13,0,0,1,1.78-3.3,8,8,0,0,1,3-2.15,10.47,10.47,0,0,1,4.16-.77,10.75,10.75,0,0,1,4,.68,7.32,7.32,0,0,1,2.85,2A8.54,8.54,0,0,1,323.77,33,14.38,14.38,0,0,1,324.34,37.2Zm-3.54.23a13.94,13.94,0,0,0-.28-2.86,7,7,0,0,0-.93-2.36,4.62,4.62,0,0,0-1.76-1.61,5.82,5.82,0,0,0-2.76-.59,5.9,5.9,0,0,0-2.62.54,4.82,4.82,0,0,0-1.81,1.52,6.83,6.83,0,0,0-1.06,2.33,11.84,11.84,0,0,0-.34,2.94,14,14,0,0,0,.28,2.88,6.78,6.78,0,0,0,.94,2.35,4.73,4.73,0,0,0,1.77,1.6,5.82,5.82,0,0,0,2.76.59,5.91,5.91,0,0,0,2.61-.54,4.82,4.82,0,0,0,1.82-1.51,6.58,6.58,0,0,0,1-2.32A12.28,12.28,0,0,0,320.8,37.43Z"/><path class="cls-3" d="M344.83,37.16a16.58,16.58,0,0,1-.53,4.36,9.7,9.7,0,0,1-1.55,3.3,6.87,6.87,0,0,1-2.52,2.09,7.73,7.73,0,0,1-3.42.73,7.27,7.27,0,0,1-1.65-.18,5.92,5.92,0,0,1-1.48-.57,9,9,0,0,1-1.45-1,18,18,0,0,1-1.53-1.45v2.28a.51.51,0,0,1-.08.29.55.55,0,0,1-.27.2,2.21,2.21,0,0,1-.47.11,6.09,6.09,0,0,1-1.42,0,2.21,2.21,0,0,1-.48-.11.44.44,0,0,1-.25-.2.64.64,0,0,1-.06-.29V19.05a.57.57,0,0,1,.07-.29.54.54,0,0,1,.27-.21,2.06,2.06,0,0,1,.53-.12,6.92,6.92,0,0,1,.83,0,7.15,7.15,0,0,1,.85,0,1.91,1.91,0,0,1,.52.12.61.61,0,0,1,.27.21.52.52,0,0,1,.08.29V30.22a13.81,13.81,0,0,1,1.61-1.43,9.53,9.53,0,0,1,1.52-.94,6.79,6.79,0,0,1,1.49-.53,7.25,7.25,0,0,1,1.57-.17,7,7,0,0,1,3.47.81,6.72,6.72,0,0,1,2.34,2.17,9.51,9.51,0,0,1,1.32,3.18A17.38,17.38,0,0,1,344.83,37.16Zm-3.54.39a17.33,17.33,0,0,0-.22-2.78,7.82,7.82,0,0,0-.76-2.38,4.62,4.62,0,0,0-1.44-1.67,3.78,3.78,0,0,0-2.23-.63,4.72,4.72,0,0,0-1.31.19,4.91,4.91,0,0,0-1.31.62A9.84,9.84,0,0,0,332.63,32a16,16,0,0,0-1.53,1.72v7.44a14.1,14.1,0,0,0,2.71,2.62,4.63,4.63,0,0,0,2.69.9,3.84,3.84,0,0,0,2.21-.62,4.75,4.75,0,0,0,1.49-1.65,8,8,0,0,0,.83-2.3A12.87,12.87,0,0,0,341.29,37.55Z"/><path class="cls-3" d="M362.32,46.75a.43.43,0,0,1-.17.37,1.16,1.16,0,0,1-.46.19,4.34,4.34,0,0,1-.85.06,4.71,4.71,0,0,1-.86-.06,1,1,0,0,1-.47-.19.46.46,0,0,1-.15-.37V44.89a9.2,9.2,0,0,1-2.72,2,7.23,7.23,0,0,1-3.18.73,8.67,8.67,0,0,1-2.66-.38,5.75,5.75,0,0,1-2-1.11,5,5,0,0,1-1.31-1.78A5.89,5.89,0,0,1,347,42a5.56,5.56,0,0,1,.64-2.74,5.34,5.34,0,0,1,1.84-1.93,9.08,9.08,0,0,1,2.94-1.15,18.29,18.29,0,0,1,3.92-.38h2.57V34.32a7.22,7.22,0,0,0-.23-1.91A3.27,3.27,0,0,0,358,31a3.16,3.16,0,0,0-1.32-.83,6.14,6.14,0,0,0-2-.28,7.92,7.92,0,0,0-2.27.3,12.17,12.17,0,0,0-1.76.66q-.76.36-1.26.66a1.75,1.75,0,0,1-.76.3.51.51,0,0,1-.29-.08.7.7,0,0,1-.22-.25,1.27,1.27,0,0,1-.13-.42,4.32,4.32,0,0,1,0-1.39,1.19,1.19,0,0,1,.35-.57,4.53,4.53,0,0,1,1-.63,10.64,10.64,0,0,1,1.58-.66,14.32,14.32,0,0,1,1.95-.5,11.62,11.62,0,0,1,2.13-.2,11.2,11.2,0,0,1,3.42.46,5.53,5.53,0,0,1,2.28,1.34,5.18,5.18,0,0,1,1.26,2.19,10.59,10.59,0,0,1,.39,3Zm-3.4-8.52H356a11,11,0,0,0-2.44.24,5,5,0,0,0-1.72.7,2.92,2.92,0,0,0-1,1.12,3.36,3.36,0,0,0-.32,1.5,3,3,0,0,0,.92,2.31A3.64,3.64,0,0,0,354,45a4.8,4.8,0,0,0,2.5-.68,10.77,10.77,0,0,0,2.41-2.09Z"/><path class="cls-3" d="M370.32,46.73a.47.47,0,0,1-.08.28.65.65,0,0,1-.27.2,1.91,1.91,0,0,1-.52.12,7.15,7.15,0,0,1-.85,0,6.92,6.92,0,0,1-.83,0,2.06,2.06,0,0,1-.53-.12A.57.57,0,0,1,367,47a.51.51,0,0,1-.07-.28V19.05a.57.57,0,0,1,.07-.29.54.54,0,0,1,.27-.21,2.06,2.06,0,0,1,.53-.12,6.92,6.92,0,0,1,.83,0,7.15,7.15,0,0,1,.85,0,1.91,1.91,0,0,1,.52.12.61.61,0,0,1,.27.21.52.52,0,0,1,.08.29Z"/><path class="cls-3" d="M394.55,41.66a5.9,5.9,0,0,1-.53,2.55,5.2,5.2,0,0,1-1.5,1.89,6.78,6.78,0,0,1-2.32,1.16,10.54,10.54,0,0,1-3,.39,11.36,11.36,0,0,1-3.51-.55,8.36,8.36,0,0,1-1.21-.5,3.54,3.54,0,0,1-.73-.47,1.19,1.19,0,0,1-.33-.58,4,4,0,0,1-.1-1,4.44,4.44,0,0,1,0-.66,2.27,2.27,0,0,1,.1-.44.46.46,0,0,1,.18-.24.47.47,0,0,1,.26-.07,1.48,1.48,0,0,1,.67.28q.45.28,1.1.61a10.09,10.09,0,0,0,1.54.61,6.85,6.85,0,0,0,2.05.28,6.17,6.17,0,0,0,1.57-.19,3.81,3.81,0,0,0,1.22-.55,2.44,2.44,0,0,0,.8-.92,2.93,2.93,0,0,0,.28-1.33,2.15,2.15,0,0,0-.4-1.33,3.89,3.89,0,0,0-1.07-1,8.88,8.88,0,0,0-1.49-.74l-1.71-.67a17.65,17.65,0,0,1-1.72-.8,6.58,6.58,0,0,1-1.5-1.09,5,5,0,0,1-1.07-1.53,5.14,5.14,0,0,1-.4-2.13,5.35,5.35,0,0,1,.42-2.1,4.87,4.87,0,0,1,1.27-1.76,6.38,6.38,0,0,1,2.12-1.21,8.83,8.83,0,0,1,3-.46,9,9,0,0,1,1.49.12,10.21,10.21,0,0,1,1.35.31,6.45,6.45,0,0,1,1,.4,4.49,4.49,0,0,1,.64.38,1.14,1.14,0,0,1,.29.29.92.92,0,0,1,.1.28c0,.1,0,.23.06.38a4.28,4.28,0,0,1,0,.56,5.26,5.26,0,0,1,0,.61,1.52,1.52,0,0,1-.1.42.55.55,0,0,1-.18.24.39.39,0,0,1-.23.07,1.14,1.14,0,0,1-.54-.23,7.65,7.65,0,0,0-.91-.49,10.17,10.17,0,0,0-1.32-.49,6,6,0,0,0-1.73-.23A5.41,5.41,0,0,0,387,30a2.94,2.94,0,0,0-1.09.56,2.37,2.37,0,0,0-.64.86,2.66,2.66,0,0,0-.22,1.08,2.19,2.19,0,0,0,.41,1.36,4,4,0,0,0,1.08,1,9,9,0,0,0,1.51.75l1.73.68q.88.35,1.74.79a6.53,6.53,0,0,1,1.52,1.06,4.78,4.78,0,0,1,1.07,1.49A4.88,4.88,0,0,1,394.55,41.66Z"/><path class="cls-3" d="M407,45.37a4.37,4.37,0,0,1-.08,1,1.07,1.07,0,0,1-.25.52,1.63,1.63,0,0,1-.5.31,4.06,4.06,0,0,1-.76.24q-.42.09-.9.16a7.35,7.35,0,0,1-1,.06,7.18,7.18,0,0,1-2.49-.38,4,4,0,0,1-1.7-1.16,4.77,4.77,0,0,1-1-2,11.59,11.59,0,0,1-.3-2.81V30.39h-2.61a.56.56,0,0,1-.5-.33,2.32,2.32,0,0,1-.19-1.08,3.62,3.62,0,0,1,.05-.66,1.91,1.91,0,0,1,.13-.45.52.52,0,0,1,.22-.25.62.62,0,0,1,.3-.07h2.59V23.11a.53.53,0,0,1,.07-.27.59.59,0,0,1,.27-.22,1.78,1.78,0,0,1,.53-.13,6.93,6.93,0,0,1,.83,0,7.17,7.17,0,0,1,.85,0,1.65,1.65,0,0,1,.52.13.68.68,0,0,1,.27.22.48.48,0,0,1,.08.27v4.43h4.79a.57.57,0,0,1,.29.07.61.61,0,0,1,.22.25,1.42,1.42,0,0,1,.13.45,4.51,4.51,0,0,1,0,.66,2.32,2.32,0,0,1-.19,1.08.56.56,0,0,1-.5.33h-4.79v10.4a5.93,5.93,0,0,0,.57,2.91,2.16,2.16,0,0,0,2,1,3.52,3.52,0,0,0,.85-.09q.37-.09.66-.2l.5-.2a.91.91,0,0,1,.37-.09.4.4,0,0,1,.2.05.35.35,0,0,1,.15.2,2.44,2.44,0,0,1,.09.39A3.92,3.92,0,0,1,407,45.37Z"/><path class="cls-3" d="M420.68,29.31q0,.46,0,.77a1.91,1.91,0,0,1-.08.49.71.71,0,0,1-.16.27.35.35,0,0,1-.26.09,1.15,1.15,0,0,1-.4-.09l-.54-.19-.67-.18a3.73,3.73,0,0,0-.81-.08,2.61,2.61,0,0,0-1,.21,4,4,0,0,0-1,.68,8.54,8.54,0,0,0-1.15,1.26q-.6.79-1.33,1.93V46.73a.47.47,0,0,1-.08.28.65.65,0,0,1-.27.2,1.91,1.91,0,0,1-.52.12,7.15,7.15,0,0,1-.85,0,6.92,6.92,0,0,1-.83,0,2.06,2.06,0,0,1-.53-.12.57.57,0,0,1-.27-.2.51.51,0,0,1-.07-.28V28.09a.58.58,0,0,1,.06-.28.55.55,0,0,1,.25-.21,1.42,1.42,0,0,1,.48-.12,7.59,7.59,0,0,1,.77,0q.46,0,.76,0a1.23,1.23,0,0,1,.47.12.66.66,0,0,1,.24.21.51.51,0,0,1,.07.28V30.8A14.55,14.55,0,0,1,414.31,29a7.9,7.9,0,0,1,1.27-1.11,3.93,3.93,0,0,1,1.19-.56,4.66,4.66,0,0,1,1.19-.16l.61,0a5.76,5.76,0,0,1,.71.11,6.27,6.27,0,0,1,.67.19,1.43,1.43,0,0,1,.42.21.59.59,0,0,1,.17.2,1.23,1.23,0,0,1,.07.24,2.72,2.72,0,0,1,0,.42C420.68,28.74,420.68,29,420.68,29.31Z"/><path class="cls-3" d="M436.06,46.75a.43.43,0,0,1-.17.37,1.16,1.16,0,0,1-.46.19,4.34,4.34,0,0,1-.85.06,4.71,4.71,0,0,1-.86-.06,1,1,0,0,1-.47-.19.46.46,0,0,1-.15-.37V44.89a9.2,9.2,0,0,1-2.72,2,7.23,7.23,0,0,1-3.18.73,8.67,8.67,0,0,1-2.66-.38,5.75,5.75,0,0,1-2-1.11,5,5,0,0,1-1.31-1.78,5.89,5.89,0,0,1-.47-2.4,5.56,5.56,0,0,1,.64-2.74,5.34,5.34,0,0,1,1.84-1.93,9.08,9.08,0,0,1,2.94-1.15,18.29,18.29,0,0,1,3.92-.38h2.57V34.32a7.22,7.22,0,0,0-.23-1.91A3.27,3.27,0,0,0,431.7,31a3.16,3.16,0,0,0-1.32-.83,6.14,6.14,0,0,0-2-.28,7.92,7.92,0,0,0-2.27.3,12.17,12.17,0,0,0-1.76.66q-.76.36-1.26.66a1.75,1.75,0,0,1-.76.3.51.51,0,0,1-.29-.08.7.7,0,0,1-.22-.25,1.27,1.27,0,0,1-.13-.42,4.32,4.32,0,0,1,0-1.39,1.19,1.19,0,0,1,.35-.57,4.53,4.53,0,0,1,1-.63,10.64,10.64,0,0,1,1.58-.66,14.32,14.32,0,0,1,1.95-.5,11.62,11.62,0,0,1,2.13-.2,11.2,11.2,0,0,1,3.42.46,5.53,5.53,0,0,1,2.28,1.34,5.18,5.18,0,0,1,1.26,2.19,10.59,10.59,0,0,1,.39,3Zm-3.4-8.52h-2.92a11,11,0,0,0-2.44.24,5,5,0,0,0-1.72.7,2.92,2.92,0,0,0-1,1.12,3.36,3.36,0,0,0-.32,1.5,3,3,0,0,0,.92,2.31,3.64,3.64,0,0,0,2.58.86,4.8,4.8,0,0,0,2.5-.68,10.77,10.77,0,0,0,2.41-2.09Z"/><path class="cls-3" d="M449.94,45.37a4.37,4.37,0,0,1-.08,1,1.07,1.07,0,0,1-.25.52,1.63,1.63,0,0,1-.5.31,4.06,4.06,0,0,1-.76.24q-.42.09-.9.16a7.35,7.35,0,0,1-1,.06,7.18,7.18,0,0,1-2.49-.38,4,4,0,0,1-1.7-1.16,4.77,4.77,0,0,1-1-2,11.59,11.59,0,0,1-.3-2.81V30.39h-2.61a.56.56,0,0,1-.5-.33,2.32,2.32,0,0,1-.19-1.08,3.62,3.62,0,0,1,.05-.66,1.91,1.91,0,0,1,.13-.45.52.52,0,0,1,.22-.25.62.62,0,0,1,.3-.07h2.59V23.11a.53.53,0,0,1,.07-.27.59.59,0,0,1,.27-.22,1.78,1.78,0,0,1,.53-.13,6.93,6.93,0,0,1,.83,0,7.17,7.17,0,0,1,.85,0,1.65,1.65,0,0,1,.52.13.68.68,0,0,1,.27.22.48.48,0,0,1,.08.27v4.43h4.79a.57.57,0,0,1,.29.07.61.61,0,0,1,.22.25,1.42,1.42,0,0,1,.13.45,4.51,4.51,0,0,1,0,.66,2.32,2.32,0,0,1-.19,1.08.56.56,0,0,1-.5.33h-4.79v10.4A5.93,5.93,0,0,0,445,43.7a2.16,2.16,0,0,0,2,1,3.52,3.52,0,0,0,.85-.09q.37-.09.66-.2l.5-.2a.91.91,0,0,1,.37-.09.4.4,0,0,1,.2.05.35.35,0,0,1,.15.2,2.44,2.44,0,0,1,.09.39A3.92,3.92,0,0,1,449.94,45.37Z"/><path class="cls-3" d="M468.22,36.6a1.43,1.43,0,0,1-.41,1.15,1.4,1.4,0,0,1-.93.34H454.6a11.51,11.51,0,0,0,.31,2.8A5.39,5.39,0,0,0,456,43a4.68,4.68,0,0,0,1.89,1.37,7.55,7.55,0,0,0,2.85.48,11.67,11.67,0,0,0,2.37-.22,14,14,0,0,0,1.8-.49q.76-.27,1.25-.49a2,2,0,0,1,.74-.22.48.48,0,0,1,.26.07.46.46,0,0,1,.18.22,1.42,1.42,0,0,1,.09.4,5.26,5.26,0,0,1,0,.63,4.61,4.61,0,0,1,0,.47,3.56,3.56,0,0,1-.05.35.86.86,0,0,1-.1.28,1.17,1.17,0,0,1-.19.24,3,3,0,0,1-.67.37,9.84,9.84,0,0,1-1.45.51,20.32,20.32,0,0,1-2.06.45,15.05,15.05,0,0,1-2.5.2,11.57,11.57,0,0,1-4-.64,7.47,7.47,0,0,1-2.91-1.91,8.15,8.15,0,0,1-1.78-3.17,14.77,14.77,0,0,1-.6-4.43,14,14,0,0,1,.62-4.32,9.15,9.15,0,0,1,1.79-3.25,7.83,7.83,0,0,1,2.83-2.05,9.27,9.27,0,0,1,3.71-.72,9,9,0,0,1,3.74.7,7.08,7.08,0,0,1,2.54,1.9,7.64,7.64,0,0,1,1.46,2.8,12.26,12.26,0,0,1,.47,3.43Zm-3.44-1a6.23,6.23,0,0,0-1.2-4.23,4.57,4.57,0,0,0-3.74-1.53,5,5,0,0,0-2.23.48A4.83,4.83,0,0,0,456,31.57a5.8,5.8,0,0,0-1,1.83,7.65,7.65,0,0,0-.4,2.19Z"/><path class="cls-3" d="M487.3,28.93a2.09,2.09,0,0,1-.2,1,.58.58,0,0,1-.51.32h-2.67a4.19,4.19,0,0,1,1,1.65,6.09,6.09,0,0,1,.29,1.88,7.4,7.4,0,0,1-.52,2.86,5.73,5.73,0,0,1-1.48,2.1,6.63,6.63,0,0,1-2.29,1.32,9,9,0,0,1-2.94.46,7.67,7.67,0,0,1-2.17-.3,4.51,4.51,0,0,1-1.58-.76,3.22,3.22,0,0,0-.61.85,2.42,2.42,0,0,0-.24,1.1,1.42,1.42,0,0,0,.67,1.2,3.25,3.25,0,0,0,1.79.52l4.87.21a10.07,10.07,0,0,1,2.55.38,6.32,6.32,0,0,1,2,1,4.49,4.49,0,0,1,1.33,1.55,4.61,4.61,0,0,1,.48,2.14,5.73,5.73,0,0,1-.54,2.44,5.63,5.63,0,0,1-1.65,2,8.26,8.26,0,0,1-2.83,1.39,14.43,14.43,0,0,1-4.06.51,16.6,16.6,0,0,1-3.84-.38,8.34,8.34,0,0,1-2.6-1,4.06,4.06,0,0,1-1.47-1.58,4.45,4.45,0,0,1-.46-2,5.29,5.29,0,0,1,.17-1.33,4.72,4.72,0,0,1,.51-1.22,6,6,0,0,1,.85-1.11,11,11,0,0,1,1.17-1,3.65,3.65,0,0,1-1.5-1.31,3.17,3.17,0,0,1-.49-1.7,4.82,4.82,0,0,1,.52-2.26,7.51,7.51,0,0,1,1.29-1.78,6.1,6.1,0,0,1-1-1.73,6.48,6.48,0,0,1-.37-2.33,7.23,7.23,0,0,1,.54-2.86A6.07,6.07,0,0,1,472.8,29a6.55,6.55,0,0,1,2.29-1.34,8.79,8.79,0,0,1,2.91-.47,12.66,12.66,0,0,1,1.58.09,11.19,11.19,0,0,1,1.38.26h5.64a.57.57,0,0,1,.53.34A2.39,2.39,0,0,1,487.3,28.93Zm-3.63,19.68a2.1,2.1,0,0,0-1-1.85,5,5,0,0,0-2.66-.69l-4.83-.17a8.82,8.82,0,0,0-1.09,1,5.42,5.42,0,0,0-.67.89,3,3,0,0,0-.34.84,3.9,3.9,0,0,0-.09.85,2.2,2.2,0,0,0,1.37,2,8.57,8.57,0,0,0,3.81.69,9.58,9.58,0,0,0,2.6-.3,5,5,0,0,0,1.69-.8A2.92,2.92,0,0,0,483.4,50,3.34,3.34,0,0,0,483.68,48.62ZM482,33.85a4.06,4.06,0,0,0-1-3,4,4,0,0,0-3-1.07,4.19,4.19,0,0,0-1.73.33A3.39,3.39,0,0,0,475,31a3.86,3.86,0,0,0-.72,1.34A5.24,5.24,0,0,0,474,34a3.64,3.64,0,0,0,4,4,4.43,4.43,0,0,0,1.76-.32,3.31,3.31,0,0,0,1.23-.89,3.78,3.78,0,0,0,.73-1.32A5.1,5.1,0,0,0,482,33.85Z"/><path class="cls-3" d="M493.81,21.79a2.25,2.25,0,0,1-.46,1.64,2.45,2.45,0,0,1-1.68.44,2.41,2.41,0,0,1-1.65-.42,2.21,2.21,0,0,1-.45-1.61,2.25,2.25,0,0,1,.46-1.64,2.45,2.45,0,0,1,1.68-.44,2.41,2.41,0,0,1,1.65.42A2.21,2.21,0,0,1,493.81,21.79Zm-.39,24.95a.46.46,0,0,1-.08.28.64.64,0,0,1-.27.2,1.92,1.92,0,0,1-.52.12,7.14,7.14,0,0,1-.85,0,7,7,0,0,1-.83,0,2.07,2.07,0,0,1-.53-.12.56.56,0,0,1-.27-.2.51.51,0,0,1-.07-.28V28.09a.52.52,0,0,1,.07-.27.54.54,0,0,1,.27-.21,2.07,2.07,0,0,1,.53-.12,7,7,0,0,1,.83,0,7.15,7.15,0,0,1,.85,0,1.92,1.92,0,0,1,.52.12.61.61,0,0,1,.27.21.47.47,0,0,1,.08.27Z"/><path class="cls-3" d="M511.45,43.89q0,.35,0,.61a2.2,2.2,0,0,1-.07.44,1.62,1.62,0,0,1-.12.31,2,2,0,0,1-.33.39,5.08,5.08,0,0,1-.88.64,8.47,8.47,0,0,1-1.4.68,10.46,10.46,0,0,1-1.69.49,9.38,9.38,0,0,1-1.89.19,9,9,0,0,1-3.56-.66,6.73,6.73,0,0,1-2.6-1.94,8.78,8.78,0,0,1-1.6-3.13,15.1,15.1,0,0,1-.55-4.28,14.76,14.76,0,0,1,.67-4.73,8.93,8.93,0,0,1,1.84-3.24A7.28,7.28,0,0,1,502,27.79a9.45,9.45,0,0,1,3.43-.61,8.93,8.93,0,0,1,1.73.17,9.46,9.46,0,0,1,1.54.44,6.85,6.85,0,0,1,1.25.62,5,5,0,0,1,.8.6,2.69,2.69,0,0,1,.34.39,1.39,1.39,0,0,1,.16.34,2,2,0,0,1,.08.45q0,.25,0,.62a2.42,2.42,0,0,1-.19,1.13.53.53,0,0,1-.46.32,1.18,1.18,0,0,1-.71-.34,11.45,11.45,0,0,0-1-.76,7.76,7.76,0,0,0-1.5-.76,5.74,5.74,0,0,0-2.08-.34,4.32,4.32,0,0,0-3.78,1.9,9.62,9.62,0,0,0-1.32,5.5,13,13,0,0,0,.34,3.16,6.53,6.53,0,0,0,1,2.27,4.14,4.14,0,0,0,1.63,1.36,5.21,5.21,0,0,0,2.21.45,5.33,5.33,0,0,0,2.07-.37,8.68,8.68,0,0,0,1.54-.82q.65-.45,1.1-.81a1.3,1.3,0,0,1,.69-.36.39.39,0,0,1,.25.08.62.62,0,0,1,.18.28,2.05,2.05,0,0,1,.1.5A6.86,6.86,0,0,1,511.45,43.89Z"/><path class="cls-3" d="M302.06,94.37q0,.52,0,.91a3.27,3.27,0,0,1-.11.64,2.39,2.39,0,0,1-.18.46,3,3,0,0,1-.49.58,7.56,7.56,0,0,1-1.3,1,12.58,12.58,0,0,1-2.07,1,15.62,15.62,0,0,1-2.5.72,13.87,13.87,0,0,1-2.79.28,13.35,13.35,0,0,1-5.28-1,10,10,0,0,1-3.85-2.87,13,13,0,0,1-2.36-4.63,22.37,22.37,0,0,1-.81-6.34,21.85,21.85,0,0,1,1-7,13.22,13.22,0,0,1,2.73-4.8,10.79,10.79,0,0,1,4.08-2.78,14,14,0,0,1,5.08-.91,13.2,13.2,0,0,1,2.56.25,14.08,14.08,0,0,1,2.29.64,10.18,10.18,0,0,1,1.86.92,7.46,7.46,0,0,1,1.18.89,4,4,0,0,1,.51.58,2.12,2.12,0,0,1,.23.51,3.06,3.06,0,0,1,.12.66q0,.37,0,.92a3.59,3.59,0,0,1-.28,1.67.79.79,0,0,1-.67.48,1.75,1.75,0,0,1-1.06-.51,17.07,17.07,0,0,0-1.52-1.12,11.6,11.6,0,0,0-2.23-1.12,8.51,8.51,0,0,0-3.08-.51,6.4,6.4,0,0,0-5.6,2.81q-1.95,2.81-1.95,8.15a19.29,19.29,0,0,0,.51,4.68,9.68,9.68,0,0,0,1.49,3.36,6.13,6.13,0,0,0,2.41,2,7.7,7.7,0,0,0,3.27.66,7.9,7.9,0,0,0,3.07-.55,12.87,12.87,0,0,0,2.29-1.21q1-.66,1.63-1.2a1.93,1.93,0,0,1,1-.54.57.57,0,0,1,.37.12.94.94,0,0,1,.26.41,3.1,3.1,0,0,1,.15.74A10.46,10.46,0,0,1,302.06,94.37Z"/><path class="cls-3" d="M331.43,84.46a20.68,20.68,0,0,1-.89,6.21,13.7,13.7,0,0,1-2.65,4.89,12,12,0,0,1-4.42,3.21,15.35,15.35,0,0,1-6.15,1.15,15.93,15.93,0,0,1-5.94-1A10.84,10.84,0,0,1,307.15,96a12.48,12.48,0,0,1-2.52-4.69,21.78,21.78,0,0,1-.83-6.26,21,21,0,0,1,.87-6.21,13.52,13.52,0,0,1,2.64-4.89,11.91,11.91,0,0,1,4.4-3.19,15.52,15.52,0,0,1,6.17-1.14,15.93,15.93,0,0,1,5.94,1,10.86,10.86,0,0,1,4.22,2.95,12.66,12.66,0,0,1,2.53,4.7A21.29,21.29,0,0,1,331.43,84.46Zm-5.25.34a20.64,20.64,0,0,0-.42-4.23,10.43,10.43,0,0,0-1.38-3.5,6.84,6.84,0,0,0-2.6-2.38,8.62,8.62,0,0,0-4.09-.87,8.74,8.74,0,0,0-3.89.8,7.13,7.13,0,0,0-2.68,2.26,10.12,10.12,0,0,0-1.56,3.45,17.55,17.55,0,0,0-.51,4.36,20.72,20.72,0,0,0,.42,4.27,10,10,0,0,0,1.39,3.48,7,7,0,0,0,2.62,2.36,8.61,8.61,0,0,0,4.09.88,8.76,8.76,0,0,0,3.87-.8,7.14,7.14,0,0,0,2.69-2.24,9.74,9.74,0,0,0,1.55-3.44A18.21,18.21,0,0,0,326.18,84.8Z"/><path class="cls-3" d="M360.15,98.58A.68.68,0,0,1,360,99a1,1,0,0,1-.4.29,2.82,2.82,0,0,1-.77.18,10.15,10.15,0,0,1-1.23.06,10.47,10.47,0,0,1-1.26-.06,2.82,2.82,0,0,1-.77-.18,1,1,0,0,1-.4-.29.68.68,0,0,1-.12-.41V82.41a15.92,15.92,0,0,0-.37-3.8,7.89,7.89,0,0,0-1.07-2.49,4.66,4.66,0,0,0-1.83-1.6,5.8,5.8,0,0,0-2.59-.55,6.54,6.54,0,0,0-3.8,1.35,20.61,20.61,0,0,0-4,4v19.3a.68.68,0,0,1-.12.41,1,1,0,0,1-.4.29,2.82,2.82,0,0,1-.77.18,10.47,10.47,0,0,1-1.26.06,10.15,10.15,0,0,1-1.23-.06,3.05,3.05,0,0,1-.78-.18.84.84,0,0,1-.4-.29.75.75,0,0,1-.11-.41V71a.85.85,0,0,1,.09-.41.82.82,0,0,1,.37-.31,2.09,2.09,0,0,1,.71-.18,11.12,11.12,0,0,1,1.14,0q.67,0,1.12,0a1.82,1.82,0,0,1,.69.18,1,1,0,0,1,.35.31.76.76,0,0,1,.11.41v3.65a17,17,0,0,1,4.65-3.82,10,10,0,0,1,4.68-1.21,10.4,10.4,0,0,1,4.65.94A8.37,8.37,0,0,1,358,73a10,10,0,0,1,1.67,3.67,21.81,21.81,0,0,1,.51,5Z"/><path class="cls-3" d="M384.21,91.06a8.73,8.73,0,0,1-.78,3.77,7.68,7.68,0,0,1-2.22,2.79,10,10,0,0,1-3.44,1.72,15.62,15.62,0,0,1-4.39.58,16.81,16.81,0,0,1-5.2-.81,12.32,12.32,0,0,1-1.79-.74,5.25,5.25,0,0,1-1.07-.69,1.76,1.76,0,0,1-.49-.86,5.83,5.83,0,0,1-.15-1.5,6.6,6.6,0,0,1,.06-1,3.37,3.37,0,0,1,.15-.64.69.69,0,0,1,.26-.35.7.7,0,0,1,.38-.11,2.19,2.19,0,0,1,1,.41q.66.41,1.63.91a15,15,0,0,0,2.29.91,10.14,10.14,0,0,0,3,.41,9.12,9.12,0,0,0,2.33-.28,5.64,5.64,0,0,0,1.81-.81,3.62,3.62,0,0,0,1.18-1.37,4.35,4.35,0,0,0,.41-2,3.18,3.18,0,0,0-.6-2A5.76,5.76,0,0,0,377,88.08,13.11,13.11,0,0,0,374.82,87l-2.53-1a26,26,0,0,1-2.55-1.18,9.73,9.73,0,0,1-2.22-1.61,7.34,7.34,0,0,1-1.58-2.27,7.61,7.61,0,0,1-.6-3.16,7.92,7.92,0,0,1,.63-3.11A7.24,7.24,0,0,1,367.85,72,9.46,9.46,0,0,1,371,70.25a13.07,13.07,0,0,1,4.4-.68,13.43,13.43,0,0,1,2.21.18,15.24,15.24,0,0,1,2,.46,9.6,9.6,0,0,1,1.52.6,6.64,6.64,0,0,1,1,.57,1.68,1.68,0,0,1,.43.43,1.34,1.34,0,0,1,.15.41q0,.23.09.57a6.27,6.27,0,0,1,0,.83,7.7,7.7,0,0,1,0,.91,2.25,2.25,0,0,1-.15.63.82.82,0,0,1-.26.35.58.58,0,0,1-.34.11,1.69,1.69,0,0,1-.8-.34,11.3,11.3,0,0,0-1.35-.72,14.91,14.91,0,0,0-1.95-.72,8.89,8.89,0,0,0-2.56-.34,8,8,0,0,0-2.27.29,4.37,4.37,0,0,0-1.61.83,3.51,3.51,0,0,0-1,1.27,4,4,0,0,0-.32,1.6,3.24,3.24,0,0,0,.61,2,5.86,5.86,0,0,0,1.6,1.43,13.39,13.39,0,0,0,2.24,1.1l2.56,1q1.3.52,2.58,1.17A9.67,9.67,0,0,1,382,85.78,7.09,7.09,0,0,1,383.61,88,7.24,7.24,0,0,1,384.21,91.06Z"/><path class="cls-3" d="M412.6,98.58a.76.76,0,0,1-.11.41.84.84,0,0,1-.38.29,2.74,2.74,0,0,1-.72.18,8.14,8.14,0,0,1-1.09.06,8.7,8.7,0,0,1-1.15-.06,2.51,2.51,0,0,1-.71-.18.74.74,0,0,1-.35-.29.85.85,0,0,1-.09-.41V94.93a17.2,17.2,0,0,1-4.66,3.81,10,10,0,0,1-4.66,1.2A10.55,10.55,0,0,1,394,99a8.17,8.17,0,0,1-3.05-2.5,10.1,10.1,0,0,1-1.67-3.68,22.15,22.15,0,0,1-.51-5.11V71a.76.76,0,0,1,.11-.41.93.93,0,0,1,.41-.31,2.56,2.56,0,0,1,.8-.18q.49,0,1.23,0t1.23,0a2.39,2.39,0,0,1,.78.18,1.07,1.07,0,0,1,.41.31.69.69,0,0,1,.12.41V87a17.11,17.11,0,0,0,.35,3.88,7.24,7.24,0,0,0,1.07,2.49,5,5,0,0,0,1.83,1.6,5.56,5.56,0,0,0,2.58.57,6.48,6.48,0,0,0,3.79-1.35,21.53,21.53,0,0,0,4-4V71a.75.75,0,0,1,.11-.41.93.93,0,0,1,.41-.31,2.52,2.52,0,0,1,.78-.18q.48,0,1.24,0t1.23,0a2.23,2.23,0,0,1,.77.18,1.25,1.25,0,0,1,.41.31.63.63,0,0,1,.14.41Z"/><path class="cls-3" d="M424.51,98.58a.68.68,0,0,1-.12.41,1,1,0,0,1-.4.29,2.82,2.82,0,0,1-.77.18,10.47,10.47,0,0,1-1.26.06,10.15,10.15,0,0,1-1.23-.06,3.05,3.05,0,0,1-.78-.18.84.84,0,0,1-.4-.29.75.75,0,0,1-.11-.41v-41a.84.84,0,0,1,.11-.43.8.8,0,0,1,.4-.31,3.08,3.08,0,0,1,.78-.18A10.26,10.26,0,0,1,422,56.6a10.59,10.59,0,0,1,1.26.06,2.84,2.84,0,0,1,.77.18.91.91,0,0,1,.4.31.76.76,0,0,1,.12.43Z"/><path class="cls-3" d="M445.71,96.55a6.44,6.44,0,0,1-.12,1.41,1.58,1.58,0,0,1-.37.77,2.4,2.4,0,0,1-.74.46,6,6,0,0,1-1.12.35q-.63.14-1.33.23a10.87,10.87,0,0,1-1.41.09,10.65,10.65,0,0,1-3.68-.57,5.94,5.94,0,0,1-2.52-1.72A7.06,7.06,0,0,1,433,94.66a17.13,17.13,0,0,1-.45-4.16V74.37h-3.87a.83.83,0,0,1-.74-.49,3.43,3.43,0,0,1-.28-1.6,5.3,5.3,0,0,1,.08-1,2.83,2.83,0,0,1,.2-.66.77.77,0,0,1,.32-.37.93.93,0,0,1,.45-.11h3.84V63.59a.78.78,0,0,1,.11-.4.88.88,0,0,1,.4-.32,2.62,2.62,0,0,1,.78-.2,10.24,10.24,0,0,1,1.23-.06,10.58,10.58,0,0,1,1.26.06,2.43,2.43,0,0,1,.77.2,1,1,0,0,1,.4.32.71.71,0,0,1,.12.4v6.57h7.09a.84.84,0,0,1,.43.11.9.9,0,0,1,.32.37,2.11,2.11,0,0,1,.2.66,6.59,6.59,0,0,1,.06,1,3.43,3.43,0,0,1-.28,1.6.83.83,0,0,1-.74.49h-7.09v15.4a8.77,8.77,0,0,0,.84,4.31,3.19,3.19,0,0,0,3,1.46,5.19,5.19,0,0,0,1.26-.14q.55-.14,1-.29t.74-.29a1.37,1.37,0,0,1,.55-.14.59.59,0,0,1,.29.08.51.51,0,0,1,.21.29,3.56,3.56,0,0,1,.14.58A5.73,5.73,0,0,1,445.71,96.55Z"/><path class="cls-3" d="M455.53,61.63a3.34,3.34,0,0,1-.68,2.42,3.63,3.63,0,0,1-2.49.64,3.56,3.56,0,0,1-2.44-.63,3.27,3.27,0,0,1-.66-2.38,3.33,3.33,0,0,1,.68-2.42,3.63,3.63,0,0,1,2.49-.64,3.57,3.57,0,0,1,2.44.63A3.27,3.27,0,0,1,455.53,61.63ZM455,98.58a.68.68,0,0,1-.12.41,1,1,0,0,1-.4.29,2.82,2.82,0,0,1-.77.18,10.47,10.47,0,0,1-1.26.06,10.15,10.15,0,0,1-1.23-.06,3.05,3.05,0,0,1-.78-.18A.84.84,0,0,1,450,99a.75.75,0,0,1-.11-.41V71a.78.78,0,0,1,.11-.4.8.8,0,0,1,.4-.31,3.05,3.05,0,0,1,.78-.18,10.15,10.15,0,0,1,1.23-.06,10.47,10.47,0,0,1,1.26.06,2.82,2.82,0,0,1,.77.18.91.91,0,0,1,.4.31.71.71,0,0,1,.12.4Z"/><path class="cls-3" d="M485.58,98.58a.68.68,0,0,1-.12.41.94.94,0,0,1-.4.29,2.81,2.81,0,0,1-.77.18,10.13,10.13,0,0,1-1.23.06,10.45,10.45,0,0,1-1.26-.06,2.81,2.81,0,0,1-.77-.18,1,1,0,0,1-.4-.29.68.68,0,0,1-.12-.41V82.41a15.86,15.86,0,0,0-.37-3.8,7.89,7.89,0,0,0-1.07-2.49,4.68,4.68,0,0,0-1.83-1.6,5.8,5.8,0,0,0-2.59-.55,6.55,6.55,0,0,0-3.8,1.35,20.65,20.65,0,0,0-4,4v19.3a.69.69,0,0,1-.12.41,1,1,0,0,1-.4.29,2.81,2.81,0,0,1-.77.18,10.51,10.51,0,0,1-1.26.06,10.14,10.14,0,0,1-1.23-.06,3.05,3.05,0,0,1-.78-.18.84.84,0,0,1-.4-.29.75.75,0,0,1-.11-.41V71a.85.85,0,0,1,.09-.41.82.82,0,0,1,.37-.31,2.09,2.09,0,0,1,.71-.18,13.88,13.88,0,0,1,2.26,0,1.81,1.81,0,0,1,.69.18,1,1,0,0,1,.35.31.75.75,0,0,1,.11.41v3.65A17,17,0,0,1,471,70.79a10,10,0,0,1,4.68-1.21,10.41,10.41,0,0,1,4.65.94A8.37,8.37,0,0,1,483.4,73a10,10,0,0,1,1.67,3.67,21.81,21.81,0,0,1,.51,5Z"/><path class="cls-3" d="M515.38,72.22a3.09,3.09,0,0,1-.29,1.55.86.86,0,0,1-.75.48h-4a6.21,6.21,0,0,1,1.5,2.44,9,9,0,0,1,.43,2.78,11,11,0,0,1-.77,4.23,8.49,8.49,0,0,1-2.19,3.11A9.81,9.81,0,0,1,506,88.76a13.34,13.34,0,0,1-4.36.68,11.34,11.34,0,0,1-3.21-.44A6.69,6.69,0,0,1,496,87.87a4.81,4.81,0,0,0-.91,1.26,3.59,3.59,0,0,0-.35,1.63,2.11,2.11,0,0,0,1,1.78,4.82,4.82,0,0,0,2.65.77l7.21.31a14.89,14.89,0,0,1,3.77.57,9.38,9.38,0,0,1,3,1.44,6.64,6.64,0,0,1,2,2.3,6.82,6.82,0,0,1,.71,3.18,8.5,8.5,0,0,1-.8,3.62,8.34,8.34,0,0,1-2.44,3,12.24,12.24,0,0,1-4.19,2.06,21.38,21.38,0,0,1-6,.75,24.58,24.58,0,0,1-5.69-.57,12.34,12.34,0,0,1-3.85-1.55,6,6,0,0,1-2.18-2.35,6.59,6.59,0,0,1-.68-3,7.81,7.81,0,0,1,.25-2,7,7,0,0,1,.75-1.81,8.83,8.83,0,0,1,1.26-1.64,16.41,16.41,0,0,1,1.73-1.55A5.42,5.42,0,0,1,491,94.22a4.7,4.7,0,0,1-.72-2.52,7.13,7.13,0,0,1,.77-3.35,11.11,11.11,0,0,1,1.9-2.64,9,9,0,0,1-1.5-2.56,9.58,9.58,0,0,1-.55-3.45,10.7,10.7,0,0,1,.8-4.23,9,9,0,0,1,2.21-3.16,9.7,9.7,0,0,1,3.39-2,13,13,0,0,1,4.31-.69,18.68,18.68,0,0,1,2.35.14,16.42,16.42,0,0,1,2,.38h8.35a.84.84,0,0,1,.78.51A3.53,3.53,0,0,1,515.38,72.22ZM510,101.37a3.1,3.1,0,0,0-1.46-2.75,7.39,7.39,0,0,0-3.94-1l-7.15-.25a13.05,13.05,0,0,0-1.61,1.46,7.92,7.92,0,0,0-1,1.32,4.36,4.36,0,0,0-.51,1.24,5.73,5.73,0,0,0-.14,1.26,3.25,3.25,0,0,0,2,3,12.68,12.68,0,0,0,5.65,1,14.18,14.18,0,0,0,3.85-.44,7.4,7.4,0,0,0,2.5-1.18,4.33,4.33,0,0,0,1.37-1.69A4.94,4.94,0,0,0,510,101.37Zm-2.55-21.88a6,6,0,0,0-1.55-4.4,5.89,5.89,0,0,0-4.4-1.58,6.19,6.19,0,0,0-2.56.49,5,5,0,0,0-1.81,1.35,5.71,5.71,0,0,0-1.07,2,7.76,7.76,0,0,0-.35,2.35,5.4,5.4,0,0,0,5.89,5.86,6.56,6.56,0,0,0,2.61-.48A4.91,4.91,0,0,0,506,83.74a5.58,5.58,0,0,0,1.07-1.95A7.52,7.52,0,0,0,507.46,79.49Z"/><path class="cls-3" d="M556.47,84.34a24.88,24.88,0,0,1-.78,6.51,14.18,14.18,0,0,1-2.3,4.89,10.3,10.3,0,0,1-3.76,3.1,11.57,11.57,0,0,1-5.12,1.09,9.92,9.92,0,0,1-2.27-.25,8.67,8.67,0,0,1-2-.77,11.84,11.84,0,0,1-2-1.32q-1-.8-2.09-1.87v13.81a.76.76,0,0,1-.12.43.9.9,0,0,1-.4.31,2.82,2.82,0,0,1-.77.18,10.59,10.59,0,0,1-1.26.06,10.26,10.26,0,0,1-1.23-.06,3.06,3.06,0,0,1-.78-.18.8.8,0,0,1-.4-.31.83.83,0,0,1-.11-.43V71a.93.93,0,0,1,.09-.44.74.74,0,0,1,.37-.29,2.39,2.39,0,0,1,.71-.17,12.05,12.05,0,0,1,2.1,0,2.36,2.36,0,0,1,.69.17.85.85,0,0,1,.38.29.82.82,0,0,1,.11.44v3.71a29.43,29.43,0,0,1,2.42-2.24,14.55,14.55,0,0,1,2.35-1.58,11.05,11.05,0,0,1,2.42-1,11.49,11.49,0,0,1,7.75.84,9.66,9.66,0,0,1,3.45,3.19,14.25,14.25,0,0,1,1.95,4.71A25.49,25.49,0,0,1,556.47,84.34Zm-5.25.58a25.35,25.35,0,0,0-.32-4.1,11.86,11.86,0,0,0-1.11-3.51,6.58,6.58,0,0,0-2.11-2.45,5.66,5.66,0,0,0-3.3-.92,6.65,6.65,0,0,0-1.95.29,8,8,0,0,0-1.95.92,13.8,13.8,0,0,0-2.07,1.66,25.58,25.58,0,0,0-2.29,2.53v11a22,22,0,0,0,4,3.9,6.68,6.68,0,0,0,4,1.35,5.77,5.77,0,0,0,3.29-.92,7,7,0,0,0,2.22-2.46,12.3,12.3,0,0,0,1.25-3.44A18.53,18.53,0,0,0,551.22,84.92Z"/><path class="cls-3" d="M582.37,98.61a.65.65,0,0,1-.25.55,1.73,1.73,0,0,1-.68.28,6.46,6.46,0,0,1-1.26.09,7,7,0,0,1-1.27-.09,1.51,1.51,0,0,1-.69-.28.69.69,0,0,1-.21-.55V95.85a13.63,13.63,0,0,1-4,3,10.69,10.69,0,0,1-4.71,1.07,12.83,12.83,0,0,1-3.94-.57,8.51,8.51,0,0,1-3-1.64,7.35,7.35,0,0,1-1.93-2.64,8.74,8.74,0,0,1-.69-3.56,8.23,8.23,0,0,1,1-4.05,7.9,7.9,0,0,1,2.73-2.85,13.43,13.43,0,0,1,4.36-1.7,27.08,27.08,0,0,1,5.8-.57h3.81V80.2a10.7,10.7,0,0,0-.34-2.82,4.85,4.85,0,0,0-1.09-2A4.69,4.69,0,0,0,574,74.1a9.07,9.07,0,0,0-2.95-.41,11.73,11.73,0,0,0-3.36.45,18,18,0,0,0-2.61,1q-1.12.54-1.87,1a2.58,2.58,0,0,1-1.12.44.75.75,0,0,1-.43-.12,1,1,0,0,1-.32-.37,1.88,1.88,0,0,1-.2-.63,5.34,5.34,0,0,1-.06-.84,5.41,5.41,0,0,1,.11-1.21,1.76,1.76,0,0,1,.52-.84,6.65,6.65,0,0,1,1.43-.94,15.7,15.7,0,0,1,2.33-1,21.3,21.3,0,0,1,2.88-.74,17.26,17.26,0,0,1,3.16-.29,16.6,16.6,0,0,1,5.06.68,8.19,8.19,0,0,1,3.38,2,7.67,7.67,0,0,1,1.87,3.24,15.68,15.68,0,0,1,.58,4.51Zm-5-12.61H573a16.34,16.34,0,0,0-3.62.35,7.47,7.47,0,0,0-2.55,1A4.32,4.32,0,0,0,565.36,89a5,5,0,0,0-.48,2.23,4.45,4.45,0,0,0,1.37,3.42A5.38,5.38,0,0,0,570.07,96a7.11,7.11,0,0,0,3.7-1,15.92,15.92,0,0,0,3.58-3.1Z"/><path class="cls-3" d="M605.3,72.77c0,.45,0,.83,0,1.14a2.84,2.84,0,0,1-.12.72,1.05,1.05,0,0,1-.23.4.52.52,0,0,1-.38.14,1.69,1.69,0,0,1-.6-.14c-.24-.09-.5-.18-.8-.28s-.63-.18-1-.26a5.53,5.53,0,0,0-1.2-.12,3.89,3.89,0,0,0-1.5.31,5.89,5.89,0,0,0-1.55,1,12.68,12.68,0,0,0-1.7,1.87q-.89,1.17-2,2.85V98.58a.69.69,0,0,1-.12.41,1,1,0,0,1-.4.29,2.82,2.82,0,0,1-.77.18,10.49,10.49,0,0,1-1.26.06,10.16,10.16,0,0,1-1.23-.06,3.06,3.06,0,0,1-.78-.18.84.84,0,0,1-.4-.29.75.75,0,0,1-.11-.41V71a.85.85,0,0,1,.09-.41.82.82,0,0,1,.37-.31,2.09,2.09,0,0,1,.71-.18,13.87,13.87,0,0,1,2.25,0,1.82,1.82,0,0,1,.69.18,1,1,0,0,1,.35.31.76.76,0,0,1,.11.41v4a21.62,21.62,0,0,1,2.13-2.7,11.77,11.77,0,0,1,1.89-1.64,5.84,5.84,0,0,1,1.76-.83,6.89,6.89,0,0,1,1.76-.23q.4,0,.91,0a8.47,8.47,0,0,1,1.06.17,9.3,9.3,0,0,1,1,.28,2.12,2.12,0,0,1,.63.31.86.86,0,0,1,.25.29,1.8,1.8,0,0,1,.11.35,3.91,3.91,0,0,1,.06.63Q605.3,72.06,605.3,72.77Z"/><path class="cls-3" d="M622.91,96.55a6.48,6.48,0,0,1-.12,1.41,1.59,1.59,0,0,1-.37.77,2.41,2.41,0,0,1-.74.46,6,6,0,0,1-1.12.35q-.63.14-1.33.23a10.88,10.88,0,0,1-1.41.09,10.64,10.64,0,0,1-3.68-.57,5.94,5.94,0,0,1-2.52-1.72,7.06,7.06,0,0,1-1.43-2.92,17.13,17.13,0,0,1-.45-4.16V74.37h-3.87a.83.83,0,0,1-.74-.49,3.42,3.42,0,0,1-.28-1.6,5.25,5.25,0,0,1,.08-1,2.81,2.81,0,0,1,.2-.66.77.77,0,0,1,.32-.37.92.92,0,0,1,.44-.11h3.84V63.59a.77.77,0,0,1,.11-.4.87.87,0,0,1,.4-.32,2.61,2.61,0,0,1,.78-.2,10.25,10.25,0,0,1,1.23-.06,10.58,10.58,0,0,1,1.26.06,2.43,2.43,0,0,1,.77.2,1,1,0,0,1,.4.32.71.71,0,0,1,.12.4v6.57h7.09a.84.84,0,0,1,.43.11.89.89,0,0,1,.32.37,2.11,2.11,0,0,1,.2.66,6.74,6.74,0,0,1,.06,1,3.44,3.44,0,0,1-.28,1.6.83.83,0,0,1-.74.49h-7.09v15.4a8.78,8.78,0,0,0,.84,4.31,3.19,3.19,0,0,0,3,1.46,5.19,5.19,0,0,0,1.26-.14,10.24,10.24,0,0,0,1-.29q.43-.15.74-.29a1.37,1.37,0,0,1,.55-.14.59.59,0,0,1,.29.08.51.51,0,0,1,.21.29,3.66,3.66,0,0,1,.14.58A5.86,5.86,0,0,1,622.91,96.55Z"/><path class="cls-3" d="M650.87,98.58a.68.68,0,0,1-.12.41,1,1,0,0,1-.4.29,2.83,2.83,0,0,1-.77.18,10.14,10.14,0,0,1-1.23.06,10.48,10.48,0,0,1-1.26-.06,2.81,2.81,0,0,1-.77-.18,1,1,0,0,1-.4-.29.68.68,0,0,1-.12-.41V82.41a15.87,15.87,0,0,0-.37-3.8,7.89,7.89,0,0,0-1.07-2.49,4.67,4.67,0,0,0-1.83-1.6,5.79,5.79,0,0,0-2.59-.55,6.55,6.55,0,0,0-3.81,1.35,20.65,20.65,0,0,0-4,4v19.3A.69.69,0,0,1,632,99a1,1,0,0,1-.4.29,2.82,2.82,0,0,1-.77.18,10.49,10.49,0,0,1-1.26.06,10.16,10.16,0,0,1-1.23-.06,3.06,3.06,0,0,1-.78-.18.84.84,0,0,1-.4-.29.75.75,0,0,1-.11-.41V71a.85.85,0,0,1,.09-.41.82.82,0,0,1,.37-.31,2.09,2.09,0,0,1,.71-.18,13.87,13.87,0,0,1,2.25,0,1.82,1.82,0,0,1,.69.18,1,1,0,0,1,.35.31.76.76,0,0,1,.11.41v3.65a17,17,0,0,1,4.65-3.82A10,10,0,0,1,641,69.58a10.4,10.4,0,0,1,4.65.94,8.37,8.37,0,0,1,3.05,2.5,10,10,0,0,1,1.67,3.67,21.86,21.86,0,0,1,.51,5Z"/><path class="cls-3" d="M681.16,83.57a2.12,2.12,0,0,1-.6,1.7,2.07,2.07,0,0,1-1.37.51H661a17,17,0,0,0,.46,4.14A8,8,0,0,0,663,93.08a6.93,6.93,0,0,0,2.81,2,11.17,11.17,0,0,0,4.22.71,17.27,17.27,0,0,0,3.51-.32,20.82,20.82,0,0,0,2.67-.72q1.13-.4,1.85-.72a3,3,0,0,1,1.1-.32.67.67,0,0,1,.65.43,2.31,2.31,0,0,1,.14.6,8.13,8.13,0,0,1,0,.94c0,.27,0,.5,0,.69s0,.37-.08.52a1.33,1.33,0,0,1-.15.41,1.76,1.76,0,0,1-.28.35,4.47,4.47,0,0,1-1,.55,14.48,14.48,0,0,1-2.15.75,30.07,30.07,0,0,1-3.05.66,22.31,22.31,0,0,1-3.7.29,17.12,17.12,0,0,1-6-1,11.06,11.06,0,0,1-4.31-2.82,12.06,12.06,0,0,1-2.64-4.69,21.87,21.87,0,0,1-.89-6.57,20.7,20.7,0,0,1,.92-6.4,13.54,13.54,0,0,1,2.65-4.82,11.6,11.6,0,0,1,4.19-3A13.74,13.74,0,0,1,669,69.58a13.29,13.29,0,0,1,5.54,1,10.49,10.49,0,0,1,3.76,2.81,11.3,11.3,0,0,1,2.16,4.14,18.12,18.12,0,0,1,.69,5.08Zm-5.09-1.5a9.22,9.22,0,0,0-1.78-6.26,6.76,6.76,0,0,0-5.54-2.27,7.33,7.33,0,0,0-3.3.71,7.14,7.14,0,0,0-2.38,1.87,8.56,8.56,0,0,0-1.48,2.72,11.33,11.33,0,0,0-.59,3.24Z"/><path class="cls-3" d="M702.49,72.77c0,.45,0,.83,0,1.14a2.84,2.84,0,0,1-.12.72,1.05,1.05,0,0,1-.23.4.52.52,0,0,1-.38.14,1.69,1.69,0,0,1-.6-.14c-.24-.09-.5-.18-.8-.28s-.63-.18-1-.26a5.53,5.53,0,0,0-1.2-.12,3.89,3.89,0,0,0-1.5.31,5.89,5.89,0,0,0-1.55,1,12.68,12.68,0,0,0-1.7,1.87q-.89,1.17-2,2.85V98.58a.69.69,0,0,1-.12.41,1,1,0,0,1-.4.29,2.82,2.82,0,0,1-.77.18,10.49,10.49,0,0,1-1.26.06,10.16,10.16,0,0,1-1.23-.06,3.06,3.06,0,0,1-.78-.18.84.84,0,0,1-.4-.29.75.75,0,0,1-.11-.41V71a.85.85,0,0,1,.09-.41.82.82,0,0,1,.37-.31,2.09,2.09,0,0,1,.71-.18,13.87,13.87,0,0,1,2.25,0,1.82,1.82,0,0,1,.69.18,1,1,0,0,1,.35.31.76.76,0,0,1,.11.41v4a21.62,21.62,0,0,1,2.13-2.7,11.77,11.77,0,0,1,1.89-1.64,5.84,5.84,0,0,1,1.76-.83,6.89,6.89,0,0,1,1.76-.23q.4,0,.91,0a8.47,8.47,0,0,1,1.06.17,9.3,9.3,0,0,1,1,.28,2.12,2.12,0,0,1,.63.31.86.86,0,0,1,.25.29,1.8,1.8,0,0,1,.11.35,3.91,3.91,0,0,1,.06.63Q702.49,72.06,702.49,72.77Z"/></svg>