<svg xmlns="http://www.w3.org/2000/svg" width="629.796" height="161.917" viewBox="0 0 629.796 161.917"><defs><linearGradient id="a" x1="-735.348" y1="-1531.986" x2="-726.778" y2="-1531.986" gradientTransform="matrix(13.36897 0 0 -9.4464 9830.85 -14350.308)" gradientUnits="userSpaceOnUse"><stop offset="0" stop-color="#3d54ce"/><stop offset="1" stop-color="#35cacf"/></linearGradient><linearGradient id="b" x1="-737.998" y1="-1531.986" x2="-729.428" y2="-1531.986" gradientTransform="matrix(15.83638 0 0 -9.4464 11743.478 -14350.308)" gradientUnits="userSpaceOnUse"><stop offset="0" stop-color="#13457d"/><stop offset="1" stop-color="#279698"/></linearGradient><linearGradient id="c" x1="-735.378" y1="-1524.415" x2="-726.808" y2="-1524.415" gradientTransform="matrix(13.37977 0 0 -9.44641 9839.188 -14359.778)" gradientUnits="userSpaceOnUse"><stop offset="0" stop-color="#090086"/><stop offset="1" stop-color="#2f96a9"/></linearGradient><linearGradient id="d" x1="-737.998" y1="-1524.415" x2="-729.428" y2="-1524.415" gradientTransform="matrix(15.83638 0 0 -9.44641 11743.478 -14359.778)" gradientUnits="userSpaceOnUse"><stop offset="0" stop-color="#3b62ca"/><stop offset="1" stop-color="#93dfe3"/></linearGradient></defs><path d="M433.832 55.813h8.287v49.711h-8.287Zm-30.341-1.11a22.707 22.707 0 0 0-14.501 5.208v-4.104h-8.288v49.711h8.288V77.485a14.501 14.501 0 0 1 29.002 0v28.033h8.287V77.491a22.785 22.785 0 0 0-22.788-22.788ZM364.14 55.8h8.287v47.84c0 14.33-12.514 25.942-25.942 25.942-12.378 0-21.467-7.553-24.707-17.98h8.904c2.747 5.75 8.127 9.693 15.803 9.693 8.837 0 17.654-7.904 17.654-17.654v-3.999a25.941 25.941 0 1 1 0-38.01Zm0 24.843a17.654 17.654 0 1 0-17.655 17.654 17.655 17.655 0 0 0 17.654-17.654ZM235.908 62.99a17.657 17.657 0 0 1 16 10.181h8.843a25.941 25.941 0 1 0 0 14.946h-8.843a17.656 17.656 0 1 1-16-25.127Zm80.644 17.654a25.941 25.941 0 1 1-25.941-25.941 25.94 25.94 0 0 1 25.941 25.941Zm-8.287 0a17.654 17.654 0 1 0-17.654 17.654 17.655 17.655 0 0 0 17.654-17.654Zm271.038-25.941a22.707 22.707 0 0 0-14.501 5.208V55.82h-8.287v49.698h8.287V77.485a14.501 14.501 0 1 1 29.002 0v28.033h8.287V77.491a22.785 22.785 0 0 0-22.788-22.788Zm-39.356 1.123h8.287v49.698h-8.287v-5.875a25.94 25.94 0 1 1-17.654-44.946v.006a25.856 25.856 0 0 1 17.654 6.936Zm0 24.824a17.654 17.654 0 1 0-17.654 17.654 17.655 17.655 0 0 0 17.654-17.654Zm89.848-16.556v-8.287h-12.428V42.25h-8.287v46.7a16.567 16.567 0 0 0 16.568 16.568h4.147V97.23h-4.147l.007.006a8.293 8.293 0 0 1-8.288-8.287V64.094ZM437.985 37.882a5.501 5.501 0 1 0 5.504 5.504 5.5 5.5 0 0 0-5.504-5.504ZM491.91 55.82h-41.43v8.287h30.686l-30.686 33.13v8.287h41.43v-8.287h-30.705l30.686-33.13Z" fill="#00004a"/><path fill="url(#a)" d="M81.89 80.959H0l56.258 80.958 58.318-34.839L81.89 80.959z"/><path fill="url(#b)" d="M191.98 80.959 56.258 161.917h80.545l55.177-80.958z"/><path fill="url(#c)" d="M.003 80.959H81.89l32.779-46.113L56.258 0 .003 80.959z"/><path fill="url(#d)" d="M191.98 80.959 56.258 0h80.545l55.177 80.959z"/></svg>