<svg xmlns="http://www.w3.org/2000/svg" width="121" height="144" viewBox="0 0 121 144"><path fill="#FFF" fill-rule="evenodd" d="M13.141 20.927C12.745 31.92 20.67 8.532 20.468 6.103c-.948-6.924-7.228 13.82-7.327 14.824M8.315 47.854c.873-12.992-9.48 11.858-6.569 14.478 8.189 9.072 4.778-11.253 6.569-14.478M42.18 28.642c-.154-10.765-21.28 35.042-20.407 37.903-1.972 5.746 5.512 7.053 7.587 11.53 1.128 1.477 1.894 4.474 3.536 4.01 1.514-.427 1.266-3.455 1.481-5.417C35.94 60.5 38.92 44.544 42.181 28.642m-26.214 85.094c-1.644 45.675 13.655 24.634 16.565-4.698.044-11.779 2.769-24.477-7.108-33.232-9.769-13.201-9.151 31.32-9.457 37.93m3.221 29.724c-8.177-13.292-3.92-30.086-4.689-44.909.251-7.806 2.178-15.428 3.532-23.105.741-4.197-.423-5.778-4.553-6.7-4.28-1.063-3.215 4.425-3.427 7.01.036 8.662-.98 17.226-2.514 25.729-.202 1.116.019 3.24-1.715 3.03-3.901-4.16 1.202-27.268.843-34.687.234-1.78-.434-2.842-2.096-3.431-8.588-3.676-2.987-15.278.032-21.099C12.957 31.345 9.46 13.496 20.19.674c.516-.634 1.233-.818 1.64-.563.067.042.27.186.362.563.603 11.754-6.294 21.8-10.333 32.416-2.547 8.014-1.617 16.805-2.649 25.121-.04.61-.166 1.698.48 1.693 1.604-6.556 1.66-14.53 2.79-21.51-.072-2.092 1.938-1.845 1.395.224.561 5.728-6.445 27.836-.001 28.766 2.415.7 5.797 3.09 6.433-.818 3.927-15.877 12.24-30.197 21.253-43.69 7.878-10.948-7.814 51.668-5.793 56.138.151 1.85-2.473 26.582 1.152 19.73 1.886-6.545 3.698-13.115 5.558-19.666.19-.612.324-1.446 1.213-1.208 1.947 3.14-2.347 15.516.218 17.228 2.67.353 4.896-12.29 7.127-14.67.898-1.649 2.074-.661 1.313.667-1.344 5.44-2.617 11.605-1.638 17.019 3.626-3.788 4.144-13.416 8.505-15.687 2.713 1.147-2.76 14.438-.132 14.981 1.365.333 1.562-1.48 2.046-2.437 1.75-2.718 5.002-12.372 8.063-12.51 2.844-.037-2.667 24.687 1.006 17.46 2.117-4.084 3.058-14.186 6.874-16.05 2.174.542.925 3.102.896 4.745.295 3.182-2.337 7.923-.094 10.42 1.9-2.76 2.944-6.246 6.326-7.97.617-.377.945-1.353 1.233-2.116 3.93-10.408 8.922-20.384 12.503-30.937 1.188-2.406 2.08-6.06 4.329-7.535 1.854 1.902-2.52 8.249-2.98 10.948-3.752 9.33-5.316 19.192-7.029 29.005-.312 1.795-1.17 4.4.927 5.416 1.744.844 3.291-1.07 4.614-2.317 4.482-3.789 10.771-7.03 16.407-3.606 1.575.923 3.108 2.01 5.105 1.613a1.26 1.26 0 0 1 .884-.035c.52.185.877.743.795 1.145-.123.6-1.223.804-1.679.887-2.828.522-5.832-2.525-7.865-3.462-2.668-1.231-7.385-.545-16.365 7.304-9.821 4.045-1.162-15.468-2.626-19.69-4.948 5.453-4.306 14.349-10.94 18.93-2.855 2.131-3.184 7.063-4.822 10.255-5.3 4.232.401-14.347-1.115-16.214-3.884 2.83-3.843 16.26-7.368 18.826-3.163-.332 2.027-27.063-1.986-21.052-4.686 9.098-11.767 28.866-8.886 3.925.35-1.441-1.218-2.035-1.792-.486-2.611 6.405-7.582 22.459-7.188 4.55-.407-8.646-4.683 10.445-6.088 2.201 1.066-23.349-8.285 15.408-9.479 19.96-1.734 9.249-5.033 17.839-11.598 24.88-.023.032-.38.552-1.027.539-.615-.014-.947-.497-.976-.54"/></svg>