<svg xmlns="http://www.w3.org/2000/svg" width="104" height="55" viewBox="0 0 104 55"><g fill="none" fill-rule="evenodd"><text fill="#00B140" font-family="TTNorms-Light, TT Norms" font-size="30" font-weight="300" letter-spacing="-.8">
      <tspan x="0" y="48">Security</tspan>
    </text><path fill="#0033A1" fill-rule="nonzero" d="m50.09 11.04 4.995-4.913h-4.919V3.813h8.414v2.352l-4.995 4.895h5.09v2.314h-8.582l-.002-2.333ZM46.543.67h2.602v2.379h-2.602V.668Zm-.035 3.173h2.602v9.56h-2.602v-9.56Zm-31.47 4.752c.01-2.733 2.217-4.94 4.932-4.934 2.714.007 4.91 2.226 4.906 4.959-.003 2.732-2.205 4.946-4.919 4.946a4.895 4.895 0 0 1-3.487-1.455 4.962 4.962 0 0 1-1.432-3.516Zm7.312 0c0-1.358-1.064-2.488-2.393-2.488-1.348 0-2.374 1.129-2.374 2.488 0 1.358 1.026 2.487 2.374 2.487 1.33-.002 2.393-1.13 2.393-2.487Zm14.268-4.78h2.584v1.07c.607-.785 1.537-1.262 2.62-1.262 2.242 0 3.59 1.453 3.59 3.92v5.832h-2.64V7.886c0-1.281-.59-2.03-1.747-2.03-.988 0-1.804.689-1.804 2.292v5.22h-2.601l-.002-9.555Zm22.206 4.78c0-3.385 2.47-4.975 4.616-4.975 1.236 0 2.204.458 2.83 1.128v-.934h2.6v9.56h-2.6v-1.07c-.626.745-1.634 1.262-2.868 1.262-2.013 0-4.578-1.604-4.578-4.971Zm7.52-.02c0-1.415-1.025-2.562-2.43-2.562-1.444 0-2.545 1.09-2.545 2.563 0 1.472 1.101 2.58 2.545 2.58 1.406 0 2.432-1.166 2.432-2.58h-.002Zm3.578-4.76h2.583v1.07c.608-.785 1.539-1.262 2.621-1.262 2.241 0 3.59 1.453 3.59 3.92v5.832h-2.64V7.886c0-1.281-.586-2.03-1.748-2.03-.987 0-1.804.689-1.804 2.292v5.22h-2.6l-.002-9.555Zm-19.83 9.56V11.04l4.994-4.914h-4.919V3.813h8.414v2.352l-4.995 4.895M12.262 8.51l-.036.076c-.719 1.525-2.04 2.4-3.625 2.4-2.298 0-4.096-1.83-4.096-4.164 0-2.393 1.786-4.198 4.153-4.198 1.535 0 2.7.723 3.466 2.15l.04.077 2.317-1.49-.04-.066C13.24 1.233 11.077.001 8.659.001c-3.863 0-6.777 2.933-6.777 6.823 0 3.953 2.85 6.823 6.777 6.823 2.532 0 4.767-1.415 5.982-3.784l.036-.071-2.414-1.282Zm13.269.084c0-3.385 2.47-4.975 4.616-4.975 1.235 0 2.202.516 2.83 1.223V3.813h2.6v9.295c0 2.696-1.69 4.876-4.9 4.876-2.412 0-4.178-1.263-4.942-2.754l2.299-1.3c.493.994 1.365 1.625 2.64 1.625 1.405 0 2.297-1.109 2.297-2.352v-.9c-.627.745-1.633 1.262-2.867 1.262-2.01 0-4.573-1.604-4.573-4.971Zm7.52-.02c0-1.415-1.025-2.562-2.431-2.562-1.443 0-2.545 1.09-2.545 2.563 0 1.472 1.102 2.58 2.545 2.58 1.406 0 2.431-1.166 2.431-2.58Zm52.072-2.409V3.813h-1.786V.66h-2.6v3.153H79.12v2.352h1.612v3.06c0 3.116.988 4.149 4.008 4.149h.38v-2.448c-1.596 0-1.786-.23-1.786-1.72v-3.04h1.788Zm.552-4.364a.66.66 0 0 1-.94 0 .652.652 0 0 1-.196-.475.662.662 0 0 1 1.24-.332.672.672 0 0 1-.107.807h.003ZM84.8.92a.557.557 0 0 0-.167.406.568.568 0 0 0 .57.58.568.568 0 0 0 .404-.17.564.564 0 0 0 .167-.41.573.573 0 0 0-.352-.534.567.567 0 0 0-.624.127h.002Zm.39.037a.552.552 0 0 1 .199.026c.074.03.12.105.113.186a.162.162 0 0 1-.071.145.276.276 0 0 1-.105.035c.05.005.095.032.124.072a.197.197 0 0 1 .04.114v.108c0 .013.002.026.006.038l.005.01h-.12v-.098a.181.181 0 0 0-.07-.168.308.308 0 0 0-.143-.023h-.101v.288h-.13V.958h.253Zm.138.115a.329.329 0 0 0-.155-.027h-.11v.266h.116a.343.343 0 0 0 .123-.017.13.13 0 0 0 .026-.222Z"/></g></svg>