<svg version="1.1" id="Layer_1" xmlns="http://www.w3.org/2000/svg" x="0" y="0" width="186" height="50" viewBox="0 0 186 50" xml:space="preserve"><style>.st0{fill:#fff}</style><path class="st0" d="M48.9 25.2c0 13.3-11 24.5-24.9 24.2C11 49.1.1 38.3.4 24.5.8 11.6 11.6.7 25.4 1c13 .3 23.6 11 23.5 24.2zm-7.7 1.1v-4c0-1.6 0-1.5-1.6-1.6-.6 0-.7.2-.7.7v7.4c0 .7-.2.8-.8.8-.6 0-.8-.1-.8-.7v-4.6c0-1.7 0-1.7-1.7-1.7-.5 0-.6.1-.6.6v5.3c0 1.1 0 1.1-1.1 1.1-.3 0-.5-.1-.5-.5v-2.3c0-1.7 0-1.7-1.7-1.6-.5 0-.6.2-.6.6v5.4c0 .4.1.6.5.6h8.9c.5 0 .6-.2.6-.6 0-1.6.1-3.2.1-4.9zm-10.9.3c-.1-.7.2-1.3-.7-1.3-.8-.1-1.1-.9-.6-1.5.3-.4.3-.7-.1-1l-.6-.6c-.3-.3-.6-.3-.9-.1-.7.5-1.4.2-1.6-.6-.1-.5-.3-.7-.7-.6h-.7c-.5-.1-.7.1-.8.6-.1.8-.9 1.1-1.6.6-.4-.3-.6-.3-.9.1l-.6.6c-.4.3-.4.6-.1 1 .5.7.2 1.4-.7 1.6-.2 0-.4.1-.5.2-.2.5-.1 1.1 0 1.6.1.4.5.3.8.4.4.1.9.9.6 1.2-.8.8-.2 1.2.3 1.7.4.4.7.5 1.2.1s1.4-.1 1.4.5c.1.9.7.8 1.3.9.6 0 1-.2 1-.9 0-.6.9-.9 1.3-.6.5.5.9.4 1.4-.1.4-.5 1-.8.3-1.5-.4-.4 0-1.3.5-1.3.8-.1 1.1-.4 1-1zm-16.8 1.3v2.3c0 1.7 0 1.7 1.7 1.7.5 0 .6-.2.6-.7v-2.6c0-1.4 0-1.4 1.3-1.4h.4c.4.1.5-.2.5-.5 0-1.4 0-1.4-1.2-1.4-1.1 0-1.3-.3-.8-1.3.2-.5.6-1 1.2-1.1.7-.1.9-.5.8-1.1v-.9c0-.4-.1-.5-.5-.5-2.2.2-3.9 2-4 4.2v3.3zm3.8-13.3c-5 .1-9.2 4-9.7 9-.1 1.2-.2 1 1 1.1.6 0 .9-.1.8-.8 0-.3.1-.6.1-.8.8-3.9 4-6.5 8-6.6.2 0 .5.1.6-.1.1-.5.1-1.1 0-1.6-.1-.4-.6-.2-.8-.2zm-5.7 10c.8 0 .8 0 .9-.8.2-1.3.8-2.3 1.8-3.2.9-.8 2-1.2 3.2-1.1.6 0 .8-.2.7-.7v-.4c.1-.6-.2-.7-.7-.7-3.4 0-6.3 2.6-6.7 5.9-.1 1-.1 1 .8 1z"/><path class="st0" d="M24.7 28.6c-1.2 0-2.2-1-2.2-2.2 0-1.2 1-2.2 2.2-2.2 1.2 0 2.2 1 2.2 2.2 0 1.2-1 2.2-2.2 2.2zM57.1 7.6h.6v35.5h-.6z"/><g><path class="st0" d="m76 15.1-1.3 1.3s-.9-1.3-2.6-1.3c-1.7 0-3 1.3-3 3s1.3 3 3 3c1.8 0 2.7-1.3 2.7-1.3l1.2 1.3S74.7 23 72.1 23c-2.8 0-5-2.2-5-4.8s2.2-4.8 5-4.8c2.7-.1 3.9 1.7 3.9 1.7zM78.8 20.1c.1.7.7 1.3 1.7 1.3 1.1 0 1.7-.8 1.7-.8l.9 1.2s-1 1.1-2.8 1.1c-1.9 0-3.4-1.5-3.4-3.4s1.5-3.4 3.4-3.4 3.2 1.4 3.2 3.2c0 .5-.1.7-.1.7h-4.6zm0-1.3h3c-.1-.7-.7-1.2-1.5-1.2s-1.4.6-1.5 1.2zM86.6 17.1s.7-.9 1.9-.9c1.5 0 2.5 1.1 2.5 2.8v3.8h-1.8v-3.6c0-.8-.5-1.3-1.3-1.3s-1.3.5-1.3 1.5v3.4h-1.8v-6.5h1.8v.8zM93.5 14.3h1.6v2.1h1.3V18h-1.3v2.6c0 .4.3.7.8.7.4 0 .7-.1.7-.1v1.5s-.5.2-1.2.2c-1.3 0-2.1-.7-2.1-2.2V18h-1.1v-1.6h.6c.4 0 .7-.3.7-.9v-1.2zM99.3 20.1c.1.7.7 1.3 1.7 1.3 1.1 0 1.7-.8 1.7-.8l.9 1.2s-1 1.1-2.8 1.1c-1.9 0-3.4-1.5-3.4-3.4s1.5-3.4 3.4-3.4 3.2 1.4 3.2 3.2c0 .5-.1.7-.1.7h-4.6zm0-1.3h3c-.1-.7-.7-1.2-1.5-1.2s-1.3.6-1.5 1.2zM109.2 18s-.2-.1-.6-.1c-.9 0-1.5.6-1.5 1.7v3.1h-1.8v-6.5h1.8v.8s.7-.9 1.9-.9h.3V18zM116.6 18h-1.5v4.7h-1.8V18h-.9v-1.6h.9v-.9c0-1.5.7-2.2 2.1-2.2.7 0 1.2.2 1.2.2V15s-.3-.1-.7-.1c-.5 0-.8.3-.8.7v.8h1.5V18zM120.8 22.9c-1.9 0-3.4-1.6-3.4-3.4 0-1.8 1.6-3.4 3.4-3.4s3.4 1.6 3.4 3.4c.1 1.8-1.5 3.4-3.4 3.4zm0-1.7c.9 0 1.6-.7 1.6-1.7s-.7-1.7-1.6-1.7-1.6.7-1.6 1.7.8 1.7 1.6 1.7zM129.5 18s-.2-.1-.6-.1c-.9 0-1.5.6-1.5 1.7v3.1h-1.8v-6.5h1.8v.8s.7-.9 1.9-.9h.3V18zM74.1 28.5v1.8h-2.6v7.5h-2v-7.5h-2.6v-1.8h7.2zM77 32.1s.7-.9 1.9-.9c1.5 0 2.5 1.1 2.5 2.8v3.8h-1.8v-3.6c0-.8-.5-1.3-1.3-1.3s-1.3.5-1.3 1.5v3.4h-1.8v-9.3H77v3.6zM84.5 35.1c.1.7.7 1.3 1.7 1.3 1.1 0 1.7-.8 1.7-.8l.9 1.2s-1 1.1-2.8 1.1c-1.9 0-3.4-1.5-3.4-3.4s1.5-3.4 3.4-3.4 3.2 1.4 3.2 3.2c0 .5-.1.7-.1.7h-4.6zm0-1.2h3c-.1-.7-.7-1.2-1.5-1.2s-1.3.5-1.5 1.2zM100.5 28.5v1.8h-4.8v2.1h3.8v1.8h-3.8v3.6h-2v-9.3h6.8zM105.7 37.1s-.7.8-1.9.8c-1.5 0-2.5-1.1-2.5-2.7v-3.9h1.8V35c0 .7.5 1.3 1.3 1.3s1.3-.5 1.3-1.5v-3.4h1.8v6.5h-1.8v-.8zM110 29.4h1.6v2.1h1.3V33h-1.3v2.6c0 .4.3.7.8.7.4 0 .7-.1.7-.1v1.5s-.5.2-1.2.2c-1.3 0-2.1-.7-2.1-2.2V33h-1.1v-1.6h.6c.4 0 .7-.3.7-.9v-1.1zM119 37.1s-.7.8-1.9.8c-1.5 0-2.5-1.1-2.5-2.7v-3.9h1.8V35c0 .7.5 1.3 1.3 1.3s1.3-.5 1.3-1.5v-3.4h1.8v6.5H119v-.8zM126.4 33s-.2-.1-.6-.1c-.9 0-1.5.6-1.5 1.7v3.1h-1.8v-6.5h1.8v.8s.7-.9 1.9-.9h.3V33zM128.9 35.1c.1.7.7 1.3 1.7 1.3 1.1 0 1.7-.8 1.7-.8l.9 1.2s-1 1.1-2.8 1.1c-1.9 0-3.4-1.5-3.4-3.4s1.5-3.4 3.4-3.4 3.2 1.4 3.2 3.2c0 .5-.1.7-.1.7h-4.6zm0-1.2h3c-.1-.7-.7-1.2-1.5-1.2s-1.3.5-1.5 1.2zM140.7 37.9c-1.9 0-3.4-1.6-3.4-3.4 0-1.8 1.6-3.4 3.4-3.4s3.4 1.6 3.4 3.4c.1 1.8-1.5 3.4-3.4 3.4zm0-1.6c.9 0 1.6-.7 1.6-1.7s-.7-1.7-1.6-1.7-1.6.7-1.6 1.7c0 .9.8 1.7 1.6 1.7zM149.1 33.1h-1.5v4.7h-1.8v-4.7h-.8v-1.6h.9v-.9c0-1.5.7-2.2 2.1-2.2.7 0 1.2.2 1.2.2v1.5s-.3-.1-.7-.1c-.5 0-.8.3-.8.7v.8h1.5v1.6zM160.3 28.5l1.9 6.4 1.9-6.4h2.1l-3 9.3h-1.9l-2-6.2-2 6.2h-1.9l-3-9.3h2.1l1.9 6.4 1.9-6.4h2zM169.8 37.9c-1.9 0-3.4-1.6-3.4-3.4 0-1.8 1.6-3.4 3.4-3.4s3.4 1.6 3.4 3.4c.1 1.8-1.5 3.4-3.4 3.4zm0-1.6c.9 0 1.6-.7 1.6-1.7s-.7-1.7-1.6-1.7-1.6.7-1.6 1.7c0 .9.8 1.7 1.6 1.7zM178.5 33s-.2-.1-.6-.1c-.9 0-1.5.6-1.5 1.7v3.1h-1.8v-6.5h1.8v.8s.7-.9 1.9-.9h.3V33zM181.3 36.2v1.6h-1.8v-9.3h1.8V34l2.3-2.6h2.1l-2.4 2.8 2.6 3.7h-2l-1.7-2.5-.9.8z"/></g></svg>