<svg xmlns="http://www.w3.org/2000/svg" width="176" height="38" viewBox="0 0 176 38"><g fill="#FFF" fill-rule="evenodd"><path d="M5.074 14.907c5.197 0 9.034 3.836 9.034 8.662 0 4.827-3.837 8.663-9.034 8.663H0V14.907h5.074zm-3.836 1.238v14.85h3.836c4.579 0 7.797-3.218 7.797-7.426 0-4.207-3.218-7.424-7.797-7.424H1.238zm16.126-.867c.495 0 .865.371.865.866s-.37.867-.865.867a.846.846 0 0 1-.867-.867c0-.495.372-.866.867-.866zm-.62 16.954h1.114v-11.88h-1.114v11.88zm13.286-2.723s-1.362 2.476-4.456 2.476c-2.846 0-5.444-2.6-5.444-5.94 0-3.342 2.598-5.941 5.444-5.941 3.094 0 4.456 2.475 4.456 2.475v-2.227h1.113v11.137c0 3.342-2.598 5.94-5.692 5.94-3.218 0-4.703-2.475-4.703-2.475l.743-.743s1.36 2.105 3.96 2.105c2.475 0 4.579-2.105 4.579-4.827v-1.98zm-4.456 1.361c2.227 0 4.456-2.103 4.456-4.826 0-2.722-2.229-4.826-4.456-4.826-2.226 0-4.33 2.104-4.33 4.826 0 2.723 2.104 4.826 4.33 4.826zm9.345-15.592c.495 0 .867.371.867.866a.846.846 0 0 1-.867.867.846.846 0 0 1-.866-.867c0-.495.371-.866.866-.866zm-.62 16.954h1.114v-11.88H34.3v11.88zm5.31-15.84h.989v3.96h2.722v1.114h-2.722v7.795c0 1.362.743 2.105 1.856 2.105.866 0 1.608-.372 1.608-.372v1.115s-.742.37-1.608.37c-1.856 0-2.97-1.113-2.97-3.218v-7.795h-2.35V20.35h1.608c.494 0 .867-.37.867-.99v-2.97zm13.829 8.415c0-2.054-1.436-3.59-3.341-3.59-2.179 0-3.465 1.733-3.465 1.733l-.742-.741s1.533-2.105 4.207-2.105c2.548 0 4.456 2.054 4.456 4.703v7.425h-1.115v-1.98s-1.362 2.227-4.331 2.227c-2.35 0-3.96-1.608-3.96-3.341 0-1.856 1.36-3.243 3.59-3.59l4.7-.741zm0 2.228V25.92l-4.454.743c-1.857.297-2.724 1.237-2.724 2.475 0 1.114 1.114 2.228 2.847 2.228 2.475 0 4.33-1.857 4.33-4.331zM57.584 32.232h1.115V14.907h-1.115zM74.91 32.48c-4.85 0-8.787-3.96-8.787-8.911 0-4.95 3.96-8.91 8.786-8.91 4.876 0 8.787 3.96 8.787 8.91s-3.911 8.91-8.787 8.91m0-16.582c-4.207 0-7.549 3.341-7.549 7.672 0 4.331 3.342 7.673 7.55 7.673 4.207 0 7.548-3.342 7.548-7.673 0-4.331-3.341-7.672-7.549-7.672M87.484 37.43h-1.116V20.352h1.116v2.352s1.484-2.6 4.578-2.6c2.845 0 5.57 2.723 5.57 6.188s-2.725 6.187-5.57 6.187c-3.094 0-4.578-2.598-4.578-2.598v7.549zm4.578-6.064c2.227 0 4.455-2.227 4.455-5.074 0-2.846-2.228-5.073-4.455-5.073-2.35 0-4.578 2.227-4.578 5.073 0 2.847 2.227 5.074 4.578 5.074zm8.228-4.579c.124 2.475 2.228 4.579 4.702 4.579 2.599 0 3.96-2.08 3.96-2.08l.742.719s-1.61 2.474-4.702 2.474c-3.095 0-5.817-2.722-5.817-6.187 0-3.465 2.722-6.187 5.693-6.187 2.97 0 5.446 2.474 5.446 6.187v.495H100.29zm0-1.113h8.91c-.124-2.6-1.98-4.456-4.332-4.456-2.35 0-4.454 2.104-4.578 4.456zm18.122-4.456h-.494c-2.228 0-4.208 1.733-4.208 4.331v6.683h-1.114v-11.88h1.114v1.98s1.114-2.227 4.208-2.227h.494v1.113zm8.593 3.589c0-2.054-1.435-3.59-3.341-3.59-2.178 0-3.466 1.733-3.466 1.733l-.74-.741s1.533-2.105 4.206-2.105c2.549 0 4.455 2.054 4.455 4.703v7.425h-1.114v-1.98s-1.361 2.227-4.33 2.227c-2.351 0-3.961-1.608-3.961-3.341 0-1.856 1.36-3.243 3.59-3.59l4.701-.741zm0 2.228V25.92l-4.454.743c-1.858.297-2.723 1.237-2.723 2.475 0 1.114 1.113 2.228 2.846 2.228 2.475 0 4.331-1.857 4.331-4.331zm4.67-10.643h.99v3.96h2.722v1.114h-2.722v7.795c0 1.362.742 2.105 1.857 2.105.865 0 1.607-.372 1.607-.372v1.115s-.742.37-1.607.37c-1.857 0-2.971-1.113-2.971-3.218v-7.795h-2.35V20.35h1.608c.494 0 .866-.37.866-.99v-2.97zm6.89-1.114c.495 0 .866.371.866.866a.846.846 0 0 1-.866.867.846.846 0 0 1-.867-.867c0-.495.372-.866.867-.866zm-.619 16.954h1.114v-11.88h-1.114v11.88zm9.325-12.127c3.218 0 5.94 2.722 5.94 6.187 0 3.465-2.722 6.187-5.94 6.187-3.218 0-5.94-2.722-5.94-6.187 0-3.465 2.722-6.187 5.94-6.187m0 1.113c-2.598 0-4.826 2.228-4.826 5.074 0 2.846 2.228 5.074 4.826 5.074 2.598 0 4.826-2.228 4.826-5.074 0-2.846-2.228-5.074-4.826-5.074m9.386 1.237s1.114-2.35 4.084-2.35c2.722 0 4.826 2.103 4.826 5.073v7.054h-1.114v-7.054c0-2.351-1.607-3.96-3.712-3.96-2.227 0-4.084 1.857-4.084 4.33v6.684h-1.114v-11.88h1.114v2.103zm17.792.248s-.99-1.485-2.846-1.485c-1.733 0-2.722 1.015-2.722 2.104 0 2.846 6.806 1.484 6.806 5.568 0 1.98-1.61 3.59-4.207 3.59-2.723 0-4.209-1.981-4.209-1.981l.866-.866s1.238 1.732 3.343 1.732c1.98 0 3.094-1.113 3.094-2.475 0-2.97-6.807-1.608-6.807-5.568 0-1.609 1.608-3.217 3.836-3.217 2.351 0 3.713 1.732 3.713 1.732l-.867.866zM34.14 7.765l3.537-3.456h-3.484V2.682h5.958v1.654l-3.537 3.443h3.603v1.627H34.14v-1.64zm-2.514-5.622h1.842V.47h-1.842v1.673zm-.024 7.283h1.843V2.702H31.6v6.724zM12.8 9.54a3.479 3.479 0 0 0 3.483-3.497A3.478 3.478 0 0 0 12.8 2.548a3.478 3.478 0 0 0-3.482 3.496A3.479 3.479 0 0 0 12.8 9.54zm0-1.75c-.955 0-1.68-.792-1.68-1.747 0-.955.725-1.748 1.68-1.748.941 0 1.695.793 1.695 1.748S13.74 7.792 12.8 7.792zm11.798-5.11h1.83v.754a2.31 2.31 0 0 1 1.855-.887c1.588 0 2.542 1.021 2.542 2.756v4.102h-1.87v-3.86c0-.9-.417-1.425-1.237-1.425-.698 0-1.278.484-1.278 1.613v3.672h-1.842V2.682zm18.966 6.86c.874 0 1.586-.364 2.03-.888v.753h1.843V2.682h-1.843v.66c-.444-.472-1.13-.794-2.004-.794-1.519 0-3.268 1.115-3.268 3.496 0 2.366 1.816 3.497 3.242 3.497zm.363-1.695c-1.022 0-1.803-.78-1.803-1.815 0-1.036.78-1.803 1.803-1.803.995 0 1.72.807 1.72 1.803 0 .994-.725 1.815-1.72 1.815zm4.252-5.164h1.83v.753a2.313 2.313 0 0 1 1.855-.887c1.587 0 2.542 1.021 2.542 2.756v4.102h-1.87v-3.86c0-.9-.415-1.425-1.236-1.425-.7 0-1.277.484-1.277 1.613v3.672h-1.844V2.682zM7.353 5.986l-.026.053c-.51 1.072-1.444 1.687-2.567 1.687-1.627 0-2.901-1.286-2.901-2.928 0-1.683 1.263-2.953 2.94-2.953 1.087 0 1.912.509 2.453 1.513l.03.054 1.64-1.048-.027-.047C8.04.867 6.512 0 4.798 0 2.062 0 0 2.062 0 4.798 0 7.58 2.018 9.597 4.798 9.597c1.794 0 3.376-.995 4.236-2.661l.027-.05-1.708-.9zM19.989 9.54c.874 0 1.586-.364 2.03-.888v.632c0 .874-.632 1.654-1.628 1.654-.9 0-1.518-.443-1.867-1.143l-1.628.914c.538 1.049 1.788 1.937 3.495 1.937 2.274 0 3.47-1.533 3.47-3.43V2.683H22.02v.727c-.444-.498-1.129-.861-2.003-.861-1.52 0-3.269 1.115-3.269 3.496 0 2.366 1.816 3.497 3.242 3.497zm.363-1.695c-1.023 0-1.802-.78-1.802-1.815 0-1.036.78-1.803 1.802-1.803.994 0 1.722.807 1.722 1.803 0 .994-.728 1.815-1.722 1.815zm38.591-3.51V2.682H57.68V.464h-1.841v2.218h-1.143v1.654h1.143v2.151c0 2.193.698 2.919 2.837 2.919h.268V7.684c-1.128 0-1.264-.161-1.264-1.21V4.336h1.264z"/></g></svg>