<svg xmlns="http://www.w3.org/2000/svg" width="287" height="38" viewBox="0 0 287 38"><g fill="#FFF" fill-rule="evenodd"><path d="M5.362 15.236c5.199 0 9.035 3.836 9.035 8.662 0 4.827-3.836 8.663-9.035 8.663H.29V15.236h5.073zm-3.835 1.238v14.85h3.835c4.58 0 7.797-3.218 7.797-7.426 0-4.207-3.218-7.424-7.797-7.424H1.527zm16.125-.866c.495 0 .867.371.867.866a.845.845 0 0 1-.867.866.845.845 0 0 1-.866-.866c0-.495.371-.866.866-.866zm-.62 16.954h1.115v-11.88h-1.114v11.88zm13.286-2.723s-1.362 2.475-4.454 2.475c-2.847 0-5.445-2.599-5.445-5.94s2.598-5.94 5.445-5.94c3.092 0 4.454 2.474 4.454 2.474v-2.226h1.114v11.137c0 3.34-2.598 5.94-5.693 5.94-3.217 0-4.702-2.475-4.702-2.475l.743-.743s1.36 2.104 3.96 2.104c2.475 0 4.578-2.104 4.578-4.826v-1.98zM25.864 31.2c2.228 0 4.454-2.103 4.454-4.826 0-2.723-2.226-4.826-4.454-4.826-2.228 0-4.332 2.103-4.332 4.826 0 2.723 2.104 4.826 4.332 4.826zm9.344-15.592c.495 0 .866.371.866.866a.845.845 0 0 1-.866.866.845.845 0 0 1-.867-.866c0-.495.372-.866.867-.866zm-.62 16.954h1.115v-11.88h-1.115v11.88zm5.31-15.841h.99v3.96h2.721v1.114h-2.722v7.796c0 1.361.742 2.104 1.857 2.104.865 0 1.607-.372 1.607-.372v1.115s-.742.37-1.607.37c-1.857 0-2.97-1.113-2.97-3.217v-7.796h-2.351v-1.114h1.608c.494 0 .866-.37.866-.99v-2.97zm13.83 8.416c0-2.054-1.437-3.59-3.343-3.59-2.177 0-3.464 1.733-3.464 1.733l-.743-.742s1.534-2.104 4.207-2.104c2.549 0 4.457 2.054 4.457 4.703v7.425h-1.115v-1.98s-1.362 2.227-4.332 2.227c-2.35 0-3.96-1.609-3.96-3.341 0-1.857 1.361-3.243 3.59-3.59l4.702-.741zm0 2.227V26.25l-4.455.743c-1.858.297-2.724 1.237-2.724 2.475 0 1.114 1.113 2.227 2.846 2.227 2.476 0 4.332-1.856 4.332-4.33zM57.873 32.561h1.114V15.236h-1.114zM66.535 19.568c0-2.475 2.105-4.58 5.445-4.58 3.218 0 4.95 2.105 4.95 2.105l-.867.866s-1.36-1.732-4.083-1.732-4.207 1.485-4.207 3.34c0 4.703 9.652 2.476 9.652 8.416 0 2.723-2.104 4.826-5.692 4.826-3.836 0-5.693-2.6-5.693-2.6l.867-.865s1.484 2.227 4.826 2.227c2.97 0 4.454-1.485 4.454-3.588 0-4.703-9.652-2.475-9.652-8.415M82.448 32.56l-4.826-11.88h1.238l4.206 10.395 4.208-10.395h1.239L82.82 34.79c-.842 2.103-1.733 2.97-3.466 2.97-.618 0-1.114-.247-1.114-.247v-1.115s.496.248 1.114.248c1.114 0 1.733-.62 2.228-1.856l.866-2.228zm13.573-9.528s-.991-1.485-2.847-1.485c-1.732 0-2.722 1.015-2.722 2.103 0 2.847 6.807 1.485 6.807 5.57 0 1.98-1.61 3.588-4.209 3.588-2.722 0-4.208-1.98-4.208-1.98l.867-.866s1.237 1.732 3.341 1.732c1.98 0 3.094-1.113 3.094-2.475 0-2.97-6.806-1.608-6.806-5.569 0-1.608 1.608-3.216 3.836-3.216 2.352 0 3.712 1.732 3.712 1.732l-.865.866zm4.764-6.312h.99v3.96h2.723v1.114h-2.723v7.796c0 1.361.743 2.104 1.857 2.104.866 0 1.608-.372 1.608-.372v1.115s-.742.37-1.608.37c-1.857 0-2.97-1.113-2.97-3.217v-7.796h-2.35v-1.114h1.607c.495 0 .867-.37.867-.99v-2.97zm6.084 10.395c.123 2.475 2.227 4.58 4.702 4.58 2.6 0 3.96-2.08 3.96-2.08l.743.718s-1.609 2.475-4.703 2.475c-3.093 0-5.816-2.723-5.816-6.188 0-3.464 2.723-6.187 5.693-6.187 2.97 0 5.445 2.475 5.445 6.187v.495h-10.024zm0-1.113h8.91c-.124-2.6-1.98-4.456-4.331-4.456-2.352 0-4.456 2.105-4.58 4.456zm28.394-.495c0-2.475-1.485-3.96-3.341-3.96-1.98 0-3.59 1.608-3.59 4.331v6.682h-1.113v-7.053c0-2.475-1.485-3.96-3.34-3.96-1.98 0-3.59 1.608-3.59 4.331v6.682h-1.114v-11.88h1.114v1.733s.99-1.98 3.59-1.98c2.969 0 3.959 2.722 3.959 2.722s.915-2.722 4.084-2.722c2.45 0 4.454 1.856 4.454 5.074v7.053h-1.113v-7.053zm10.073-2.475s-.99-1.485-2.846-1.485c-1.732 0-2.722 1.015-2.722 2.103 0 2.847 6.807 1.485 6.807 5.57 0 1.98-1.61 3.588-4.208 3.588-2.722 0-4.208-1.98-4.208-1.98l.866-.866s1.237 1.732 3.342 1.732c1.98 0 3.093-1.113 3.093-2.475 0-2.97-6.806-1.608-6.806-5.569 0-1.608 1.608-3.216 3.836-3.216 2.351 0 3.713 1.732 3.713 1.732l-.867.866zm12.869.495 4.455 5.444s1.237-1.905 1.237-4.826h1.115c0 3.441-1.61 5.693-1.61 5.693s1.114 1.733 2.228 1.733c.371 0 .743-.124.743-.124v1.113s-.372.124-.743.124c-1.733 0-2.97-1.98-2.97-1.98s-1.535 2.103-4.579 2.103c-2.846 0-4.827-1.98-4.827-4.206 0-3.094 3.467-5.074 3.467-5.074s-2.724-2.574-2.724-4.703c0-2.104 1.734-3.837 3.836-3.837 2.105 0 3.714 1.61 3.714 3.714 0 2.648-3.342 4.826-3.342 4.826zm-.867.742s-2.97 1.98-2.97 4.332c0 1.732 1.363 3.093 3.713 3.093 2.55 0 3.836-1.856 3.836-1.856l-4.579-5.57zm.25-1.485s2.845-2.054 2.845-4.083c0-1.486-1.114-2.6-2.6-2.6-1.484 0-2.721 1.239-2.721 2.723 0 1.708 2.475 3.96 2.475 3.96zM183.449 15.236v1.238h-5.693v16.087h-1.238V16.474h-5.692v-1.238zM183.11 27.116c.124 2.475 2.229 4.58 4.702 4.58 2.6 0 3.96-2.08 3.96-2.08l.743.718s-1.61 2.475-4.703 2.475c-3.094 0-5.817-2.723-5.817-6.188 0-3.464 2.723-6.187 5.694-6.187 2.97 0 5.445 2.475 5.445 6.187v.495h-10.023zm0-1.113h8.91c-.124-2.6-1.979-4.456-4.331-4.456-2.35 0-4.455 2.105-4.578 4.456zm17.336-5.57c3.094 0 4.703 2.476 4.703 2.476l-.866.742s-1.238-2.104-3.837-2.104c-2.474 0-4.702 2.228-4.702 5.074 0 2.846 2.228 5.074 4.702 5.074 2.599 0 3.837-2.104 3.837-2.104l.866.743s-1.61 2.475-4.703 2.475-5.815-2.723-5.815-6.188c0-3.464 2.722-6.187 5.815-6.187m7.712 2.35s1.113-2.35 4.084-2.35c2.722 0 4.826 2.104 4.826 5.073v7.054h-1.114v-7.053c0-2.352-1.609-3.96-3.712-3.96-2.228 0-4.084 1.856-4.084 4.33v6.683h-1.115V15.236h1.115v7.549zm13.034 0s1.114-2.35 4.085-2.35c2.721 0 4.826 2.104 4.826 5.073v7.054h-1.115v-7.053c0-2.352-1.608-3.96-3.711-3.96-2.228 0-4.085 1.856-4.085 4.33v6.683h-1.115v-11.88h1.115v2.104zm17.01-2.35c3.217 0 5.94 2.723 5.94 6.187 0 3.465-2.723 6.188-5.94 6.188-3.218 0-5.94-2.723-5.94-6.188 0-3.464 2.722-6.187 5.94-6.187m0 1.113c-2.599 0-4.826 2.228-4.826 5.074 0 2.846 2.227 5.074 4.826 5.074 2.599 0 4.826-2.228 4.826-5.074 0-2.846-2.227-5.074-4.826-5.074M246.507 32.561h1.114V15.236h-1.114zM255.968 20.434c3.217 0 5.94 2.723 5.94 6.187 0 3.465-2.723 6.188-5.94 6.188-3.218 0-5.94-2.723-5.94-6.188 0-3.464 2.722-6.187 5.94-6.187m0 1.113c-2.599 0-4.826 2.228-4.826 5.074 0 2.846 2.227 5.074 4.826 5.074 2.598 0 4.826-2.228 4.826-5.074 0-2.846-2.228-5.074-4.826-5.074m17.335 8.292s-1.361 2.475-4.453 2.475c-2.847 0-5.447-2.599-5.447-5.94s2.6-5.94 5.447-5.94c3.092 0 4.453 2.474 4.453 2.474v-2.226h1.114v11.137c0 3.34-2.598 5.94-5.692 5.94-3.218 0-4.703-2.475-4.703-2.475l.744-.743s1.36 2.104 3.96 2.104c2.474 0 4.577-2.104 4.577-4.826v-1.98zM268.85 31.2c2.226 0 4.453-2.103 4.453-4.826 0-2.723-2.227-4.826-4.453-4.826-2.228 0-4.333 2.103-4.333 4.826 0 2.723 2.105 4.826 4.333 4.826zm11.987 1.361-4.826-11.88h1.237l4.207 10.395 4.208-10.395h1.237l-5.692 14.108c-.842 2.103-1.734 2.97-3.466 2.97-.618 0-1.114-.247-1.114-.247v-1.115s.496.248 1.114.248c1.115 0 1.732-.62 2.23-1.856l.865-2.228zM34.28 7.765l3.537-3.456h-3.484V2.682h5.959v1.654l-3.538 3.443h3.603v1.627H34.28v-1.64zm-2.514-5.622h1.842V.47h-1.842v1.673zm-.023 7.283h1.842V2.702h-1.842v6.724zm-18.801.115a3.479 3.479 0 0 0 3.483-3.497 3.478 3.478 0 0 0-3.483-3.496 3.478 3.478 0 0 0-3.483 3.496 3.479 3.479 0 0 0 3.483 3.497zm0-1.75c-.955 0-1.68-.792-1.68-1.747 0-.955.725-1.748 1.68-1.748.941 0 1.695.793 1.695 1.748s-.754 1.748-1.695 1.748zm11.798-5.11h1.829v.754a2.312 2.312 0 0 1 1.855-.887c1.588 0 2.542 1.021 2.542 2.756v4.102h-1.87v-3.86c0-.9-.417-1.425-1.236-1.425-.7 0-1.279.484-1.279 1.613v3.672h-1.84V2.682zm18.965 6.86c.874 0 1.586-.364 2.03-.888v.753h1.843V2.682h-1.843v.66c-.444-.472-1.13-.794-2.003-.794-1.52 0-3.268 1.115-3.268 3.496 0 2.366 1.815 3.497 3.24 3.497zm.363-1.695c-1.022 0-1.802-.78-1.802-1.815 0-1.036.78-1.803 1.802-1.803.995 0 1.721.807 1.721 1.803 0 .994-.726 1.815-1.721 1.815zm4.253-5.164h1.83v.753a2.312 2.312 0 0 1 1.855-.887c1.587 0 2.541 1.021 2.541 2.756v4.102H52.68v-3.86c0-.9-.417-1.425-1.238-1.425-.698 0-1.277.484-1.277 1.613v3.672h-1.843V2.682zM7.494 5.986l-.025.053c-.51 1.072-1.445 1.687-2.567 1.687C3.275 7.726 2 6.44 2 4.798c0-1.683 1.263-2.953 2.94-2.953 1.087 0 1.913.509 2.454 1.513l.029.054 1.64-1.048-.027-.047C8.183.867 6.653 0 4.94 0 2.204 0 .14 2.062.14 4.798c0 2.781 2.019 4.799 4.8 4.799 1.793 0 3.376-.995 4.236-2.661l.026-.05-1.708-.9zM20.13 9.54c.874 0 1.586-.364 2.03-.888v.632c0 .874-.63 1.654-1.627 1.654-.9 0-1.519-.443-1.868-1.143l-1.628.914c.538 1.049 1.788 1.937 3.496 1.937 2.273 0 3.47-1.533 3.47-3.43V2.683H22.16v.727c-.445-.498-1.13-.861-2.004-.861-1.52 0-3.268 1.115-3.268 3.496 0 2.366 1.815 3.497 3.24 3.497zm.364-1.695c-1.023 0-1.803-.78-1.803-1.815 0-1.036.78-1.803 1.803-1.803.994 0 1.721.807 1.721 1.803 0 .994-.727 1.815-1.721 1.815zm38.591-3.51V2.682h-1.264V.464h-1.842v2.218h-1.143v1.654h1.143v2.151c0 2.193.7 2.919 2.838 2.919h.268V7.684c-1.13 0-1.264-.161-1.264-1.21V4.336h1.264z"/></g></svg>