<svg xmlns="http://www.w3.org/2000/svg" xmlns:xlink="http://www.w3.org/1999/xlink" width="149" height="38" viewBox="0 0 149 38"><defs><path id="a" d="M0 .927h57.506v12.339H0z"/></defs><g fill="none" fill-rule="evenodd"><path fill="#FFF" d="M5.094 15.47c5.07 0 8.813 3.743 8.813 8.45 0 4.71-3.742 8.452-8.813 8.452H.144V15.47h4.95zM1.35 16.677v14.488h3.743c4.467 0 7.606-3.14 7.606-7.244 0-4.105-3.139-7.244-7.606-7.244H1.35zm15.732-.845c.483 0 .846.363.846.845a.825.825 0 0 1-.846.845.825.825 0 0 1-.845-.845c0-.482.363-.845.845-.845zm-.603 16.54h1.086v-11.59H16.48v11.59zm12.96-2.656s-1.327 2.414-4.346 2.414c-2.776 0-5.312-2.534-5.312-5.795 0-3.259 2.536-5.795 5.312-5.795 3.02 0 4.346 2.415 4.346 2.415v-2.173h1.087v10.866c0 3.26-2.535 5.795-5.553 5.795-3.14 0-4.588-2.415-4.588-2.415l.724-.724s1.328 2.052 3.864 2.052c2.414 0 4.466-2.052 4.466-4.708v-1.932zm-4.346 1.328c2.174 0 4.346-2.053 4.346-4.71 0-2.654-2.172-4.707-4.346-4.707-2.173 0-4.226 2.053-4.226 4.708 0 2.656 2.053 4.71 4.226 4.71zm9.116-15.212c.483 0 .846.363.846.845a.825.825 0 0 1-.846.845.825.825 0 0 1-.845-.845c0-.482.362-.845.845-.845zm-.603 16.54h1.086v-11.59h-1.086v11.59zm5.178-15.453h.966v3.863h2.656v1.087h-2.656v7.605c0 1.329.725 2.052 1.811 2.052.845 0 1.57-.361 1.57-.361v1.086s-.725.363-1.57.363c-1.811 0-2.897-1.088-2.897-3.14V21.87H36.37v-1.087h1.569c.483 0 .845-.363.845-.966v-2.897zm13.492 8.209c0-2.004-1.4-3.5-3.26-3.5-2.124 0-3.38 1.689-3.38 1.689l-.724-.724s1.497-2.053 4.104-2.053c2.487 0 4.347 2.004 4.347 4.588v7.244h-1.087V30.44s-1.328 2.173-4.225 2.173c-2.294 0-3.863-1.569-3.863-3.26 0-1.81 1.327-3.163 3.5-3.5l4.588-.725zm0 2.172v-1.086l-4.346.725c-1.81.29-2.656 1.207-2.656 2.414 0 1.087 1.086 2.174 2.777 2.174 2.414 0 4.225-1.811 4.225-4.227zM56.322 32.372h1.088V15.471h-1.088zM77.57 27.663c0 2.657-2.052 4.709-5.19 4.709h-6.52V15.47h6.277c2.777 0 4.588 1.81 4.588 4.225 0 2.777-2.172 3.623-2.172 3.623s3.017.966 3.017 4.345zM67.067 16.677v6.157h5.07c2.174 0 3.381-1.207 3.381-3.139 0-1.81-1.207-3.018-3.38-3.018h-5.071zm5.312 14.488c2.535 0 3.984-1.449 3.984-3.502 0-2.172-1.449-3.622-3.984-3.622h-5.312v7.124h5.312zm16.485-.845s-1.086 2.294-3.983 2.294c-2.657 0-4.71-2.053-4.71-4.95v-6.882h1.088v6.881c0 2.294 1.569 3.863 3.622 3.863 2.172 0 3.983-1.81 3.983-4.225v-6.52h1.087v11.59h-1.087V30.32zm9.985-7.244s-.965-1.448-2.776-1.448c-1.69 0-2.657.99-2.657 2.052 0 2.776 6.641 1.448 6.641 5.433 0 1.931-1.57 3.501-4.105 3.501-2.656 0-4.105-1.931-4.105-1.931l.845-.846s1.207 1.69 3.26 1.69c1.932 0 3.018-1.086 3.018-2.414 0-2.898-6.64-1.57-6.64-5.433 0-1.57 1.57-3.14 3.743-3.14 2.294 0 3.622 1.69 3.622 1.69l-.846.846zm3.96-7.244c.482 0 .844.363.844.845a.824.824 0 0 1-.845.845.825.825 0 0 1-.845-.845c0-.482.362-.845.845-.845zm-.605 16.54h1.086v-11.59h-1.086v11.59zm5.276-9.538s1.087-2.293 3.984-2.293c2.656 0 4.709 2.053 4.709 4.95v6.881h-1.086v-6.881c0-2.294-1.57-3.863-3.623-3.863-2.173 0-3.984 1.81-3.984 4.225v6.52h-1.086v-11.59h1.086v2.051zm11.886 4.226c.12 2.414 2.173 4.467 4.588 4.467 2.535 0 3.863-2.029 3.863-2.029l.725.701s-1.57 2.415-4.588 2.415c-3.019 0-5.675-2.657-5.675-6.037s2.656-6.036 5.554-6.036 5.312 2.414 5.312 6.036v.483h-9.779zm0-1.086h8.693c-.122-2.536-1.932-4.347-4.226-4.347s-4.347 2.053-4.467 4.347zm17.787-2.898s-.966-1.448-2.777-1.448c-1.69 0-2.656.99-2.656 2.052 0 2.776 6.64 1.448 6.64 5.433 0 1.931-1.57 3.501-4.105 3.501-2.656 0-4.105-1.931-4.105-1.931l.846-.846s1.206 1.69 3.26 1.69c1.93 0 3.017-1.086 3.017-2.414 0-2.898-6.64-1.57-6.64-5.433 0-1.57 1.57-3.14 3.743-3.14 2.294 0 3.622 1.69 3.622 1.69l-.845.846zm9.454 0s-.966-1.448-2.777-1.448c-1.69 0-2.656.99-2.656 2.052 0 2.776 6.64 1.448 6.64 5.433 0 1.931-1.57 3.501-4.104 3.501-2.657 0-4.105-1.931-4.105-1.931l.845-.846s1.207 1.69 3.26 1.69c1.931 0 3.017-1.086 3.017-2.414 0-2.898-6.64-1.57-6.64-5.433 0-1.57 1.57-3.14 3.743-3.14 2.294 0 3.622 1.69 3.622 1.69l-.845.846z"/><mask id="b" fill="#fff"><use xlink:href="#a"/></mask><path fill="#FFF" d="m33.306 8.503 3.45-3.372h-3.398V3.543h5.812v1.614l-3.45 3.359h3.516v1.587h-5.93v-1.6Zm-2.452-5.485h1.797V1.386h-1.797v1.632Zm-.024 7.105h1.797v-6.56H30.83v6.56Zm-18.342.112a3.394 3.394 0 0 0 3.398-3.412 3.393 3.393 0 0 0-3.398-3.41 3.393 3.393 0 0 0-3.398 3.41 3.394 3.394 0 0 0 3.398 3.412Zm0-1.706c-.931 0-1.64-.774-1.64-1.706 0-.931.709-1.705 1.64-1.705.919 0 1.654.774 1.654 1.705 0 .932-.735 1.706-1.654 1.706Zm11.51-4.986h1.785v.735a2.256 2.256 0 0 1 1.81-.866c1.548 0 2.48.997 2.48 2.69v4.001h-1.824V6.338c0-.88-.407-1.39-1.207-1.39-.682 0-1.246.471-1.246 1.573v3.582h-1.798v-6.56Zm18.503 6.692c.852 0 1.548-.355 1.98-.867v.735h1.798v-6.56h-1.798v.643c-.432-.46-1.102-.774-1.954-.774-1.482 0-3.189 1.089-3.189 3.411 0 2.309 1.772 3.412 3.163 3.412Zm.354-1.654c-.997 0-1.758-.76-1.758-1.77 0-1.011.76-1.759 1.758-1.759.971 0 1.68.787 1.68 1.758 0 .97-.709 1.771-1.68 1.771Zm4.15-5.038h1.784v.735a2.256 2.256 0 0 1 1.81-.866c1.548 0 2.48.997 2.48 2.69v4.001h-1.823V6.338c0-.88-.407-1.39-1.207-1.39-.682 0-1.247.471-1.247 1.573v3.582h-1.798v-6.56ZM7.172 6.767l-.024.052c-.497 1.045-1.41 1.646-2.505 1.646-1.587 0-2.831-1.255-2.831-2.857 0-1.642 1.233-2.881 2.869-2.881 1.06 0 1.865.496 2.394 1.476l.028.053 1.6-1.023-.027-.046C7.846 1.772 6.353.927 4.682.927 2.012.927 0 2.939 0 5.608 0 8.321 1.97 10.29 4.682 10.29c1.748 0 3.293-.97 4.132-2.596l.025-.049-1.666-.878Zm12.329 3.468c.852 0 1.547-.355 1.98-.867v.618c0 .852-.616 1.613-1.588 1.613-.878 0-1.482-.433-1.823-1.115l-1.587.892c.524 1.023 1.745 1.89 3.41 1.89 2.218 0 3.385-1.496 3.385-3.346V3.543h-1.797v.71c-.433-.486-1.102-.84-1.955-.84-1.482 0-3.188 1.088-3.188 3.41 0 2.309 1.771 3.412 3.163 3.412Zm.354-1.654c-.998 0-1.759-.76-1.759-1.77 0-1.011.761-1.759 1.759-1.759.97 0 1.679.787 1.679 1.758 0 .97-.71 1.771-1.68 1.771Zm37.65-3.424V3.543h-1.233V1.38h-1.798v2.164H53.36v1.614h1.115v2.1c0 2.138.683 2.846 2.769 2.846h.262v-1.68c-1.102 0-1.233-.157-1.233-1.18V5.157h1.233Z" mask="url(#b)"/></g></svg>