<svg xmlns="http://www.w3.org/2000/svg" width="144" height="37.021" viewBox="0 0 144 37.021"><defs><linearGradient id="linear-gradient" x1="-231.415" y1="540.574" x2="-229.456" y2="540.574" gradientTransform="matrix(13.36895 0 0 -9.44641 3093.778 5134.256)" gradientUnits="userSpaceOnUse"><stop offset="0" stop-color="#4c5ca3"/><stop offset="1" stop-color="#68bfc9"/></linearGradient><linearGradient id="linear-gradient-2" x1="-230.399" y1="540.574" x2="-228.44" y2="540.574" gradientTransform="matrix(15.83641 0 0 -9.44641 3661.558 5134.256)" gradientUnits="userSpaceOnUse"><stop offset="0" stop-color="#24467a"/><stop offset="1" stop-color="#479699"/></linearGradient><linearGradient id="linear-gradient-3" x1="-231.412" y1="541.534" x2="-229.452" y2="541.534" gradientTransform="matrix(13.37975 0 0 -9.44638 3096.233 5124.79)" gradientUnits="userSpaceOnUse"><stop offset="0" stop-color="#292d77"/><stop offset="1" stop-color="#4c97aa"/></linearGradient><linearGradient id="linear-gradient-4" x1="-230.399" y1="541.534" x2="-228.44" y2="541.534" gradientTransform="matrix(15.83641 0 0 -9.44638 3661.558 5124.79)" gradientUnits="userSpaceOnUse"><stop offset="0" stop-color="#4b63a8"/><stop offset="1" stop-color="#a6d6de"/></linearGradient><style>.cls-1{fill:#101443}.cls-1,.cls-2,.cls-3,.cls-4,.cls-5{fill-rule:evenodd}.cls-2{fill:url(#linear-gradient)}.cls-3{fill:url(#linear-gradient-2)}.cls-4{fill:url(#linear-gradient-3)}.cls-5{fill:url(#linear-gradient-4)}</style></defs><g id="Layer_2" data-name="Layer 2"><g id="Layer_1-2" data-name="Layer 1"><path class="cls-1" d="M143.053 22.233a1.896 1.896 0 0 1-1.895-1.895v-5.683H144V12.76h-2.842v-3.1h-1.894v10.678a3.788 3.788 0 0 0 3.788 3.788H144v-1.895h-.948ZM53.94 12.507a5.934 5.934 0 0 1 5.68 4.223h-2.021a4.037 4.037 0 1 0 0 3.417h2.021a5.931 5.931 0 1 1-5.68-7.64Zm46.204-3.846a1.258 1.258 0 1 1-1.257 1.259 1.258 1.258 0 0 1 1.257-1.259Zm-14.99 15.036a6.067 6.067 0 0 1-5.93 5.931 5.742 5.742 0 0 1-5.65-4.11h2.036a3.816 3.816 0 0 0 3.613 2.216 4.177 4.177 0 0 0 4.037-4.037v-.914a5.931 5.931 0 1 1 0-8.691v-1.333h1.895v10.938Zm-5.93-9.295a4.037 4.037 0 1 1-4.037 4.037 4.037 4.037 0 0 1 4.036-4.037Zm58.442 3.316a5.21 5.21 0 0 0-8.526-4.02v-.935h-1.895v11.363h1.895v-6.41a3.316 3.316 0 0 1 6.631 0v6.41h1.895v-6.408Zm-71.218-5.21a5.931 5.931 0 1 1-5.932 5.93 5.931 5.931 0 0 1 5.932-5.93Zm0 1.894a4.037 4.037 0 1 1-4.037 4.037 4.037 4.037 0 0 1 4.037-4.037Zm31.02 3.316a5.21 5.21 0 0 0-8.527-4.02v-.938h-1.894v11.366h1.894v-6.41a3.316 3.316 0 0 1 6.631 0v6.41h1.895v-6.408Zm3.621 6.41h-1.895V12.76h1.895Zm11.384 0v-1.895h-7.02l7.016-7.575.004-1.895H103v1.895h7.016L103 22.233v1.894Zm6.948-11.62a5.912 5.912 0 0 1 4.036 1.587v-1.33h1.895v11.362h-1.895v-1.343a5.931 5.931 0 1 1-4.036-10.276Zm0 1.896a4.037 4.037 0 1 1-4.037 4.036 4.037 4.037 0 0 1 4.037-4.036Z"/><path class="cls-2" d="M18.724 18.511H0l12.863 18.51 13.334-7.965-7.473-10.545z"/><path class="cls-3" d="m43.895 18.511-31.032 18.51h18.418l12.614-18.51z"/><path class="cls-4" d="M0 18.511h18.724l7.494-10.544L12.863 0 0 18.511z"/><path class="cls-5" d="M43.895 18.511 12.863 0h18.418l12.614 18.511z"/></g></g></svg>