<svg xmlns="http://www.w3.org/2000/svg" width="400" height="400" viewBox="0 0 400 400"><g fill="none" fill-rule="evenodd"><path fill="#DDD" d="M69.039-13.014v305.272L400 99.222v-303.447z"/><path fill="#003D99" d="M202-251.285-41.136-392H-212v534.053L60.639 299.778 202 217.689z"/><path fill="#89BB4B" d="M-120.259 400h23.056L400 112.623V97.391z"/><path stroke="#DDD" stroke-width="1.5" d="m203.475 208.486-102.904-59.412V26.513L235.036-51.12"/><path fill="#DDD" d="m135.921 17.235 31.458 18.162 31.46 18.163-31.46 18.163-31.458 18.162v-72.65zm-1.5-2.598v77.846l33.708-19.462 33.71-19.461-33.71-19.461-33.708-19.462zm-39.066 2.237 9.863 5.694 9.863 5.695-9.863 5.694-9.863 5.694V16.873zm-1.5-2.598v27.973l12.113-6.993 12.113-6.993-12.113-6.994-12.113-6.993zM30.889 112.069l-12.113 6.993-12.113 6.994V98.082l12.113 6.994zM78.934 60.281l-12.113 6.993-12.113 6.994V46.294l12.113 6.994zM103.159 185.554l-12.113 6.993-12.113 6.994v-27.974l12.113 6.994zM134.392 104.241v72.65l-31.458-18.162-31.459-18.162 31.46-18.163 31.457-18.163Zm1.5-2.597-33.708 19.462-33.709 19.46 33.71 19.463 33.707 19.46v-77.845Z"/><path fill="#003D99" d="m267.69 42.93-12.113 6.993-12.113 6.994V28.943l12.113 6.994zM311.254 42.93l-12.113 6.993-12.113 6.994V28.943l12.113 6.994zM354.819 42.93l-12.113 6.993-12.113 6.994V28.943l12.113 6.994zM212.878 139.738l9.863 5.694 9.863 5.695-9.863 5.694-9.863 5.694v-22.778zm-1.5-2.598v27.973l12.113-6.993 12.113-6.993-12.113-6.994-12.113-6.993zM203.5 56.074l31.458 18.162L266.417 92.4l-31.459 18.162-31.458 18.163v-72.65zm-1.5-2.598v77.846l33.708-19.462 33.709-19.46-33.709-19.463L202 53.477z"/><path fill="#DDD" d="m135.921 94.982 31.458 18.163 31.46 18.162-31.46 18.162-31.458 18.163v-72.65Zm-1.5-2.598v77.846l33.708-19.462 33.71-19.46-33.71-19.463-33.708-19.46Z"/><path stroke="#003D99" stroke-width="1.5" d="m201.511-70.476 100.941 58.278v116.556l-100.94 58.278m-.758-211.865 34.954 20.181 33.708 19.462-33.708 19.461-34.819 20.103"/><path fill="#DDD" d="m100.904 98.718-.75-1.299-134.465 77.633-.375.217v69.362l1.5.868v-69.364z"/><path fill="#003D99" d="m243.821-38.151-.375.216v69.796h1.5v-68.929L400-126.589v-1.732z"/><path fill="#01573F" d="M356.2 333.139h-.839v1.55h.84c.517 0 .903-.303.903-.768 0-.468-.386-.782-.904-.782Zm.937 3.78-1.066-1.77h-.71v1.77h-.485v-4.25h1.38c.709 0 1.334.53 1.334 1.252 0 .623-.411 1.028-.981 1.186l1.088 1.812h-.56Zm-1.034-5.59c-1.892 0-3.443 1.614-3.443 3.524s1.55 3.522 3.443 3.522 3.446-1.612 3.446-3.522c0-1.91-1.553-3.524-3.446-3.524Zm0 7.458c-2.151 0-3.897-1.762-3.897-3.934 0-2.174 1.746-3.934 3.897-3.934 2.154 0 3.897 1.76 3.897 3.934 0 2.172-1.743 3.934-3.897 3.934Zm-55.8-7.767c-.131 0-.176.045-1.346.09-1.21.048-3.499.094-8.128.094h-5.622c-4.629 0-6.917-.046-8.127-.093-1.17-.046-1.216-.09-1.348-.09-.54 0-.54.361-.54 1.404v4.17c0 .226 0 .77.453.77.493 0 .583-.182 1.39-1.858.528-1.159 1.588-2.84 7.694-2.893.632.02.899.166.899 1.171v21.071c0 1.77 0 2.994-2.246 3.13-.944.088-1.569.133-1.569.769 0 .679.58.679.941.679.852 0 4.49-.179 5.25-.179 1.483 0 3.819.179 5.3.179.359 0 .942 0 .942-.679 0-.681-.628-.726-1.572-.77-2.243-.135-2.243-1.359-2.243-3.219v-20.664c0-1.177.144-1.425 1.456-1.478 5.593.15 6.604 1.762 7.114 2.883.81 1.676.897 1.857 1.392 1.857.451 0 .451-.543.451-.769v-4.17c0-1.043 0-1.405-.54-1.405m-48.53 21.21c-.404 0-.494.181-1.303 1.765-1.975 3.856-4.758 3.856-6.733 3.856-3.77 0-4.714-.5-4.714-3.718v-7.795c0-1.36.359-1.36 2.513-1.36 3.68 0 4.94.046 5.884 3.537.221.86.49 1.086.849 1.086.54 0 .54-.633.54-.907 0-.362-.134-1.948-.134-2.265 0-.998.313-5.666.313-6.3 0-.497-.224-.635-.493-.635-.226 0-.45.093-.674.681-.81 2.4-1.21 3.398-6.195 3.398-2.603 0-2.603-.364-2.603-1.812v-6.573c0-2.265.18-2.581 2.423-2.581 6.375 0 7.45 1.721 7.993 2.9.807 1.674.896 1.858 1.392 1.858.448 0 .448-.543.448-.772v-4.167c0-1.043 0-1.405-.54-1.405-.135 0-.18.045-1.345.09-1.215.048-3.503.09-8.127.09h-2.154c-3.817 0-5.747-.042-6.735-.09-.989-.045-1.034-.09-1.123-.09-.312 0-.9 0-.9.636 0 .678.633.723 1.62.769 2.245.135 2.245 1.36 2.245 3.217v19.123c0 1.858 0 3.085-2.246 3.218-.943.09-1.618.136-1.618.772 0 .678.587.678.944.678.313 0 .674-.045 1.394-.09.717-.046 1.84-.09 3.68-.09h.535c.274 0 2.383.044 4.943.09 2.602.045 5.745.09 8.033.09 1.305 0 1.75-.498 1.795-1.36.137-1.674.63-4.577.63-5.165 0-.272-.132-.679-.538-.679m73.272 0c-.403 0-.493.181-1.302 1.765-1.974 3.856-4.758 3.856-6.733 3.856-3.77 0-4.713-.5-4.713-3.718v-7.795c0-1.36.358-1.36 2.51-1.36 3.682 0 4.942.046 5.886 3.537.222.86.49 1.086.85 1.086.54 0 .54-.633.54-.907 0-.362-.135-1.948-.135-2.265 0-.998.314-5.666.314-6.3 0-.497-.224-.635-.493-.635-.227 0-.451.093-.675.681-.81 2.4-1.21 3.398-6.195 3.398-2.602 0-2.602-.364-2.602-1.812v-6.573c0-2.265.179-2.581 2.422-2.581 6.375 0 7.45 1.721 7.993 2.9.807 1.674.897 1.858 1.39 1.858.45 0 .45-.543.45-.772v-4.167c0-1.043 0-1.405-.542-1.405-.132 0-.177.045-1.342.09-1.216.048-3.504.09-8.128.09h-2.154c-3.817 0-5.747-.042-6.735-.09-.989-.045-1.033-.09-1.123-.09-.314 0-.899 0-.899.636 0 .678.633.723 1.619.769 2.246.135 2.246 1.36 2.246 3.217v19.123c0 1.858 0 3.085-2.246 3.218-.944.09-1.619.136-1.619.772 0 .678.585.678.944.678.316 0 .675-.045 1.394-.09.717-.046 1.84-.09 3.68-.09h.536c.274 0 2.383.044 4.942.09 2.602.045 5.745.09 8.033.09 1.305 0 1.75-.498 1.795-1.36.137-1.674.63-4.577.63-5.165 0-.272-.134-.679-.538-.679m-59.12-10.261c-3.666-1.526-6.322-2.682-6.322-5.965 0-1.802 1.441-4.416 4.994-4.383 3.803.035 4.624 2.581 5.175 4.383.458 1.433.642 1.712 1.098 1.712.642 0 .642-.372.642-1.387 0-4.07 0-4.485-.55-4.809-.643-.324-3.342-1.06-5.999-1.06-5.814 0-9.023 3.694-9.023 7.947 0 4.904 3.618 6.704 7.328 8.37 3.297 1.524 6.412 3.28 6.412 6.885 0 3.745-3.611 5.015-5.533 5.015-3.25 0-6.392-2.775-7.269-6.8-.09-.414-.149-.894-.56-.894-.55 0-.58.646-.58.834-.035 1.68.18 3.645.244 4.248.125 1.149.306 2.081.812 2.453.824.601 3.085 1.481 6.656 1.481 6.093 0 9.85-4.3 9.85-9.431 0-5.226-4.808-7.49-7.375-8.599m-107.701 16.757c-6.046 0-10.356-7.084-10.356-14.531 0-6.533 4.044-12.465 9.596-12.465 7.12 0 10.324 7.726 10.324 13.199 0 6.668-3.294 13.797-9.564 13.797M158 330.458c-8.8 0-15.436 6.38-15.436 14.702 0 8.827 7.363 14.84 15.301 14.84 7.717 0 15.246-6.289 15.246-15.257 0-7.951-6.62-14.285-15.111-14.285M139.692 320c-.065 0-.13.065-1.88.13-1.685.064-5.082.129-11.827.129h-1.417c-6.42 0-8.767-.065-10.45-.128-1.624-.066-1.689-.131-1.82-.131-.454 0-1.298 0-1.298.915 0 .917.976.985 2.336 1.113 3.244.197 3.244 1.964 3.244 4.65V353.8c0 2.177 0 3.683-2.769 3.849-1.16.113-1.927.168-1.927.95 0 .834.712.834 1.155.834 1.051 0 5.63-.221 6.566-.221 1.828 0 4.796.221 6.619.221.44 0 1.16 0 1.16-.834 0-.837-.774-.893-1.937-.95-2.761-.166-2.761-1.672-2.761-3.96V343.63c0-1.857 0-2.594 1.055-2.885.693-.191 3.683-.191 5.588-.191 1.618 0 5.774 0 6.68 3.534.13.329.558 2.026.713 2.488.112.33.36 1.079 1.038 1.046.777-.035.78-.782.78-1.24l-.26-3.076c-.13-1.508-.13-2.622-.13-3.21 0-.98.193-5.434.193-6.35 0-.653-.197-1.078-.775-1.115-.58-.038-.911.528-1.038 1.05-.824 3.399-1.753 4.844-7.007 4.844-.971 0-4.826 0-5.8-.13-.84-.131-1.037-.2-1.037-3.733V325.5c0-3.077 1.105-3.21 3.311-3.21 10.092 0 10.936 1.395 12.873 5.761.24.543.496 1.31 1.21 1.31.715 0 .715-1.046.715-1.245v-6.937c0-.852-.067-1.179-1.103-1.179m45.357 24.435c-2.246 0-2.246-.09-2.246-1.68v-7.61c0-1.77.044-2.856 2.111-2.856 5.568 0 6.195 4.849 6.195 6.48 0 5.666-4.442 5.666-6.06 5.666m14.272 13.638c-1.252-.188-1.885-1.314-2.779-2.898l-4.355-7.794c-1.033-1.906-1.57-2.175-2.158-2.54 1.528-.316 6.152-1.402 6.152-6.705 0-1.587-.674-7.116-8.617-7.116-1.35 0-7.319.183-8.531.183-.538 0-2.74-.183-3.187-.183-1.482 0-1.664 0-1.664.636 0 .633.633.678 1.619.723 2.196.136 2.196 1.36 2.196 3.218v19.214c0 1.902 0 3.084-2.196 3.262-.944.046-1.619.09-1.619.727 0 .678.588.633.944.633.81 0 4.445-.178 5.21-.178.178 0 4.533.178 5.387.178.356 0 .944.045.944-.588 0-.681-.63-.726-1.618-.772-2.246-.133-2.246-1.36-2.246-3.262v-8.154c0-.772.092-1.044.854-1.044 2.022 0 2.246.181 3.232 2.13l5.433 10.33c.49.953.672 1.36 1.481 1.36h5.914c.316 0 .762-.075.762-.543 0-.495-.217-.673-1.158-.817m13.89-13.638c-2.247 0-2.247-.09-2.247-1.68v-7.61c0-1.77.045-2.856 2.112-2.856 5.567 0 6.195 4.849 6.195 6.48 0 5.666-4.442 5.666-6.06 5.666m14.272 13.638c-1.253-.188-1.885-1.314-2.779-2.898l-4.355-7.794c-1.033-1.906-1.571-2.175-2.159-2.54 1.53-.316 6.153-1.402 6.153-6.705 0-1.587-.675-7.116-8.618-7.116-1.35 0-7.318.183-8.53.183-.538 0-2.74-.183-3.188-.183-1.481 0-1.663 0-1.663.636 0 .633.632.678 1.618.723 2.197.136 2.197 1.36 2.197 3.218v19.214c0 1.902 0 3.084-2.197 3.262-.943.046-1.618.09-1.618.727 0 .678.588.633.944.633.809 0 4.444-.178 5.209-.178.179 0 4.534.178 5.388.178.356 0 .944.045.944-.588 0-.681-.633-.726-1.619-.772-2.246-.133-2.246-1.36-2.246-3.262v-8.154c0-.772.092-1.044.854-1.044 2.022 0 2.246.181 3.232 2.13l5.433 10.33c.491.953.673 1.36 1.482 1.36h5.914c.316 0 .762-.075.762-.543 0-.495-.217-.673-1.158-.817m111.492-13.638c-2.246 0-2.246-.09-2.246-1.68v-7.61c0-1.77.045-2.856 2.112-2.856 5.567 0 6.195 4.849 6.195 6.48 0 5.666-4.442 5.666-6.06 5.666m14.272 13.638c-1.253-.188-1.885-1.314-2.779-2.898l-4.355-7.794c-1.033-1.906-1.574-2.175-2.159-2.54 1.53-.316 6.153-1.402 6.153-6.705 0-1.587-.675-7.116-8.618-7.116-1.35 0-7.318.183-8.53.183-.538 0-2.74-.183-3.188-.183-1.481 0-1.663 0-1.663.636 0 .633.632.678 1.618.723 2.197.136 2.197 1.36 2.197 3.218v19.214c0 1.902 0 3.084-2.197 3.262-.943.046-1.618.09-1.618.727 0 .678.585.633.944.633.809 0 4.444-.178 5.209-.178.179 0 4.534.178 5.388.178.356 0 .944.045.944-.588 0-.681-.633-.726-1.619-.772-2.246-.133-2.246-1.36-2.246-3.262v-8.154c0-.772.092-1.044.854-1.044 2.022 0 2.246.181 3.232 2.13l5.434 10.33c.49.953.672 1.36 1.481 1.36h5.914c.316 0 .762-.075.762-.543 0-.495-.217-.673-1.158-.817"/></g></svg>