<svg xmlns="http://www.w3.org/2000/svg" width="20" height="20" viewBox="0 0 20 20"><g fill="none" fill-rule="evenodd"><path d="M0 0h20v20H0z"/><path fill="#666" d="m11.073 8.333 3.93 10.832 1.27.001c.218 0 .394.224.394.5s-.176.5-.393.5H3.726c-.217 0-.393-.224-.393-.5s.176-.5.393-.5h1.302L8.96 8.332h2.113zm-3.82 7.022-1.382 3.81h.095l3.35-2.359-2.063-1.45zm5.528.01-2.044 1.441 3.353 2.36h.07l-1.379-3.8zm-2.755 1.941-2.638 1.86h5.28l-2.642-1.86zm1.614-2.137H8.41l1.616 1.137 1.614-1.137zm.172-2.475H8.22l-.535 1.475h4.663l-.535-1.475zm-1.28-3.527H9.5l-.918 2.527h2.867l-.916-2.527zM16.299 6.7c-.008.807-1.05 1.881-2.001 2.072-.994.198-1.956-.123-2.86-.932l-.331-.296.317-.312c1.043-1.024 1.945-1.62 2.734-1.778 1.246-.249 2.15.232 2.141 1.246zM3.703 6.694c0-1.018.937-1.495 2.2-1.242.78.156 1.665.754 2.68 1.782l.305.309-.32.292c-.888.81-1.84 1.131-2.829.934-.963-.193-2.036-1.272-2.036-2.075zm10.618-.423c-.523.104-1.187.513-1.974 1.232.597.426 1.187.57 1.786.45.589-.117 1.328-.88 1.332-1.262.004-.388-.355-.578-1.144-.42zm-8.582-.002c-.812-.163-1.202.037-1.202.425 0 .369.764 1.137 1.366 1.258.594.119 1.175-.026 1.76-.452-.765-.72-1.413-1.129-1.923-1.23zM9.98.417c1.187 0 2.099.781 2.103 2.082.005 1.266-.581 2.73-1.74 4.405L10 7.399l-.343-.496c-1.15-1.665-1.736-3.129-1.74-4.402C7.912 1.211 8.813.417 9.98.417zm0 .833c-.728 0-1.233.445-1.23 1.249.003.955.416 2.095 1.25 3.414.84-1.325 1.253-2.465 1.25-3.412-.003-.81-.517-1.251-1.27-1.251z"/></g></svg>