<svg xmlns="http://www.w3.org/2000/svg" width="138" height="60" viewBox="0 0 138 60">
  <g fill="none" fill-rule="evenodd">
    <path fill="#FFFFFF" d="M17.4496941,17.5572973 C22.2318,17.5572973 24.6224471,21.2035135 24.6224471,21.2035135 L23.3642118,22.3345946 C23.3642118,22.3345946 21.4768588,19.3175676 17.4496941,19.3175676 C13.4225294,19.3175676 10.2761294,22.4602703 10.2761294,26.6083784 C10.2761294,30.7564865 13.4225294,33.8991892 17.4496941,33.8991892 C21.4768588,33.8991892 23.4900353,30.8821622 23.4900353,30.8821622 L24.7482706,32.0140541 C24.7482706,32.0140541 22.2318,35.6586486 17.4496941,35.6586486 C12.4151294,35.6586486 8.38796471,31.6362162 8.38796471,26.6083784 C8.38796471,21.5797297 12.4151294,17.5572973 17.4496941,17.5572973"/>
    <polygon fill="#FFFFFF" points="27.038 35.407 28.8 35.407 28.8 17.809 27.038 17.809"/>
    <path fill="#FFFFFF" d="M37.5603529 24.7224324C35.1688941 24.7224324 33.1557176 26.7340541 33.1557176 29.3740541 33.1557176 31.9881081 35.1688941 34.0248649 37.5603529 34.0248649 39.951 34.0248649 41.9649882 32.0140541 41.9649882 29.3740541 41.9649882 26.7340541 39.951 24.7224324 37.5603529 24.7224324zM37.5603529 23.0894595C40.9584 23.0894595 43.7265176 25.8543243 43.7265176 29.3740541 43.7265176 32.892973 40.9584 35.6586486 37.5603529 35.6586486 34.1623059 35.6586486 31.3933765 32.892973 31.3933765 29.3740541 31.3933765 25.8543243 34.1623059 23.0894595 37.5603529 23.0894595zM54.9718941 33.7727027C54.9718941 33.7727027 53.7136588 35.6586486 51.0705529 35.6586486 48.3016235 35.6586486 46.1626235 33.5221622 46.1626235 30.3794595L46.1626235 23.34 47.9241529 23.34 47.9241529 30.3794595C47.9241529 32.5167568 49.4340353 34.0248649 51.3222 34.0248649 53.3361882 34.0248649 54.9718941 32.3902703 54.9718941 30.0024324L54.9718941 23.34 56.7342353 23.34 56.7342353 35.4072973 54.9718941 35.4072973 54.9718941 33.7727027M65.1554824 24.7224324C63.1414941 24.7224324 61.1283176 26.7340541 61.1283176 29.3740541 61.1283176 32.0140541 63.1414941 34.0248649 65.1554824 34.0248649 67.2944824 34.0248649 69.4342941 31.8875676 69.4342941 29.3740541 69.4342941 26.8597297 67.2944824 24.7224324 65.1554824 24.7224324zM69.4342941 17.8094595L71.1958235 17.8094595 71.1958235 35.4072973 69.4342941 35.4072973 69.4342941 33.5221622C69.4342941 33.5221622 67.9236 35.6586486 65.1554824 35.6586486 62.1349059 35.6586486 59.3659765 32.892973 59.3659765 29.3740541 59.3659765 25.8543243 62.1349059 23.0894595 65.1554824 23.0894595 67.9236 23.0894595 69.4342941 25.2251351 69.4342941 25.2251351L69.4342941 17.8094595z"/>
    <polyline fill="#FFFFFF" points="21.854 57.971 21.854 59.732 9.521 59.732 9.521 42.134 21.602 42.134 21.602 43.893 11.409 43.893 11.409 49.676 19.589 49.676 19.589 51.436 11.409 51.436 11.409 57.971 21.854 57.971"/>
    <path fill="#FFFFFF" d="M25.8928588 49.4245946C25.8928588 49.4245946 27.1519059 47.4137838 29.7950118 47.4137838 32.6897647 47.4137838 34.7029412 49.4245946 34.7029412 52.5664865L34.7029412 59.7316216 32.9406 59.7316216 32.9406 52.5664865C32.9406 50.43 31.5565412 49.0467568 29.6691882 49.0467568 27.5293765 49.0467568 25.8928588 50.6813514 25.8928588 53.0691892L25.8928588 59.7316216 24.1321412 59.7316216 24.1321412 47.6643243 25.8928588 47.6643243 25.8928588 49.4245946M45.2688706 54.3267568L45.2688706 53.5718919 41.1150706 54.3267568C39.6051882 54.6032432 38.8502471 55.3321622 38.8502471 56.4640541 38.8502471 57.4694595 39.7310118 58.3491892 41.3675294 58.3491892 43.6323529 58.3491892 45.2688706 56.7145946 45.2688706 54.3267568zM45.2688706 52.0637838C45.2688706 50.3043243 44.0098235 49.0467568 42.2482941 49.0467568 40.1084824 49.0467568 38.8502471 50.807027 38.8502471 50.807027L37.7178353 49.6759459C37.7178353 49.6759459 39.3535412 47.4137838 42.2482941 47.4137838 45.0164118 47.4137838 47.0304 49.4245946 47.0304 52.0637838L47.0304 59.7316216 45.2688706 59.7316216 45.2688706 58.097027C45.2688706 58.097027 44.0098235 59.982973 41.3675294 59.982973 38.8502471 59.982973 37.0879059 58.2235135 37.0879059 56.4640541 37.0879059 54.4524324 38.3469529 53.1956757 40.6117765 52.8186486L45.2688706 52.0637838zM56.4282 58.3491892C58.4421882 58.3491892 60.4553647 56.3375676 60.4553647 53.6983784 60.4553647 51.0583784 58.4421882 49.0467568 56.4282 49.0467568 54.2892 49.0467568 52.1493882 51.1840541 52.1493882 53.6983784 52.1493882 56.2118919 54.2892 58.3491892 56.4282 58.3491892zM52.1493882 49.5494595C52.1493882 49.5494595 53.6600824 47.4137838 56.4282 47.4137838 59.4487765 47.4137838 62.2177059 50.1786486 62.2177059 53.6983784 62.2177059 57.2172973 59.4487765 59.982973 56.4282 59.982973 53.6600824 59.982973 52.1493882 57.8464865 52.1493882 57.8464865L52.1493882 59.7316216 50.3878588 59.7316216 50.3878588 42.1337838 52.1493882 42.1337838 52.1493882 49.5494595z"/>
    <polygon fill="#FFFFFF" points="64.837 59.732 66.599 59.732 66.599 42.134 64.837 42.134"/>
    <path fill="#FFFFFF" d="M70.9547294 52.8186486L79.1340706 52.8186486C78.8832353 50.6813514 77.2467176 49.0467568 75.1069059 49.0467568 72.9679059 49.0467568 71.2063765 50.807027 70.9547294 52.8186486zM70.9547294 54.3267568C71.0805529 56.4640541 72.9679059 58.3491892 75.2335412 58.3491892 77.7759882 58.3491892 79.1340706 56.3375676 79.1340706 56.3375676L80.2672941 57.4694595C80.2672941 57.4694595 78.5049529 59.982973 75.2335412 59.982973 71.9613176 59.982973 69.1923882 57.2172973 69.1923882 53.6983784 69.1923882 50.1786486 71.9613176 47.4137838 75.1069059 47.4137838 78.3799412 47.4137838 80.8964118 49.9264865 80.8964118 53.447027 80.8964118 53.9489189 80.7705882 54.3510811 80.7705882 54.3510811L70.9547294 54.3267568zM99.5337176 52.5664865C99.5337176 50.2791892 98.2754824 49.0467568 96.5139529 49.0467568 94.7524235 49.0467568 93.2417294 50.5556757 93.2417294 53.0691892L93.2417294 59.7316216 91.4793882 59.7316216 91.4793882 52.5664865C91.4793882 50.3043243 90.2219647 49.0467568 88.4596235 49.0467568 86.6980941 49.0467568 85.1874 50.5556757 85.1874 53.0691892L85.1874 59.7316216 83.4258706 59.7316216 83.4258706 47.6643243 85.1874 47.6643243 85.1874 49.1724324C85.1874 49.1724324 86.1948 47.4137838 88.5854471 47.4137838 91.4793882 47.4137838 92.4867882 49.5494595 92.4867882 49.5494595 92.4867882 49.5494595 93.6192 47.4137838 96.6397765 47.4137838 99.2828824 47.4137838 101.296059 49.1983784 101.296059 52.5664865L101.296059 59.7316216 99.5337176 59.7316216 99.5337176 52.5664865M105.565941 52.8186486L113.746094 52.8186486C113.494447 50.6813514 111.857929 49.0467568 109.718929 49.0467568 107.579118 49.0467568 105.817588 50.807027 105.565941 52.8186486zM105.565941 54.3267568C105.691765 56.4640541 107.579118 58.3491892 109.844753 58.3491892 112.386388 58.3491892 113.746094 56.3375676 113.746094 56.3375676L114.878506 57.4694595C114.878506 57.4694595 113.116976 59.982973 109.844753 59.982973 106.572529 59.982973 103.804412 57.2172973 103.804412 53.6983784 103.804412 50.1786486 106.572529 47.4137838 109.718929 47.4137838 112.990341 47.4137838 115.507624 49.9264865 115.507624 53.447027 115.507624 53.9489189 115.3818 54.3510811 115.3818 54.3510811L105.565941 54.3267568zM119.798612 49.4245946C119.798612 49.4245946 121.057659 47.4137838 123.699953 47.4137838 126.594706 47.4137838 128.608694 49.4245946 128.608694 52.5664865L128.608694 59.7316216 126.846353 59.7316216 126.846353 52.5664865C126.846353 50.43 125.462294 49.0467568 123.574129 49.0467568 121.435129 49.0467568 119.798612 50.6813514 119.798612 53.0691892L119.798612 59.7316216 118.037082 59.7316216 118.037082 47.6643243 119.798612 47.6643243 119.798612 49.4245946M132.622059 43.6418919L134.258576 43.6418919 134.258576 47.6643243 136.900871 47.6643243 136.900871 49.2989189 134.258576 49.2989189 134.258576 56.4640541C134.258576 57.7208108 134.887694 58.3491892 135.894282 58.3491892 136.775047 58.3491892 137.5308 57.9713514 137.5308 57.9713514L137.5308 59.6059459C137.5308 59.6059459 136.775047 59.982973 135.818788 59.982973 133.755282 59.982973 132.497047 58.7262162 132.497047 56.4640541L132.497047 49.2989189 130.231412 49.2989189 130.231412 47.6643243 131.615471 47.6643243C132.244588 47.6643243 132.622059 47.2872973 132.622059 46.4075676L132.622059 43.6418919M25.2832235 7.35162162C25.2832235 6.29108108 24.4454824 5.40972973 23.3991176 5.40972973 22.3373294 5.40972973 21.5296235 6.29108108 21.5296235 7.35162162 21.5296235 8.41216216 22.3373294 9.29351351 23.3991176 9.29351351 24.4454824 9.29351351 25.2832235 8.41216216 25.2832235 7.35162162zM19.5261882 7.35162162C19.5261882 5.20135135 21.2455059 3.46864865 23.3991176 3.46864865 25.5527294 3.46864865 27.2720471 5.20135135 27.2720471 7.35162162 27.2720471 9.50189189 25.5527294 11.2345946 23.3991176 11.2345946 21.2455059 11.2345946 19.5261882 9.50189189 19.5261882 7.35162162zM33.3627176 7.33621622C33.3627176 6.23189189 32.5558235 5.33513514 31.4493882 5.33513514 30.3129176 5.33513514 29.4451412 6.18648649 29.4451412 7.33621622 29.4451412 8.48675676 30.3129176 9.3527027 31.4493882 9.3527027 32.5558235 9.3527027 33.3627176 8.44216216 33.3627176 7.33621622zM27.5253176 7.35162162C27.5253176 4.70837838 29.4694941 3.46864865 31.1587765 3.46864865 32.1304588 3.46864865 32.8935176 3.87162162 33.3870706 4.42459459L33.3870706 3.61783784 35.4351529 3.61783784 35.4351529 10.8762162C35.4351529 12.9818919 34.1046706 14.6845946 31.5776471 14.6845946 29.6789294 14.6845946 28.2883765 13.6994595 27.6901059 12.5343243L29.4995294 11.5183784C29.8883647 12.2951351 30.5759294 12.7881081 31.5776471 12.7881081 32.6840824 12.7881081 33.3870706 11.9221622 33.3870706 10.9508108L33.3870706 10.2494595C32.8935176 10.8316216 32.1012353 11.2345946 31.1295529 11.2345946 29.5441765 11.2345946 27.5253176 9.98027027 27.5253176 7.35162162zM36.1381412 3.61783784L38.1716118 3.61783784 38.1716118 4.45459459C38.6497412 3.84162162 39.3827647 3.46864865 40.2351176 3.46864865 41.9990824 3.46864865 43.0608706 4.60378378 43.0608706 6.53027027L43.0608706 11.0854054 40.9827529 11.0854054 40.9827529 6.79864865C40.9827529 5.79810811 40.5192353 5.21594595 39.6068118 5.21594595 38.8291412 5.21594595 38.1862235 5.75351351 38.1862235 7.00783784L38.1862235 11.0854054 36.1381412 11.0854054 36.1381412 3.61783784"/>
    <polyline fill="#FFFFFF" points="46.29 9.264 50.222 5.425 46.35 5.425 46.35 3.618 52.973 3.618 52.973 5.455 49.041 9.278 53.049 9.278 53.049 11.085 46.29 11.085 46.29 9.264"/>
    <path fill="#FFFFFF" d="M58.9154471 7.33621622C58.9154471 6.23189189 58.1077412 5.33513514 57.0021176 5.33513514 55.8656471 5.33513514 54.9986824 6.18648649 54.9986824 7.33621622 54.9986824 8.48675676 55.8656471 9.3527027 57.0021176 9.3527027 58.1077412 9.3527027 58.9154471 8.44216216 58.9154471 7.33621622zM53.0780471 7.35162162C53.0780471 4.70837838 55.0222235 3.46864865 56.7115059 3.46864865 57.684 3.46864865 58.4462471 3.82702703 58.9398 4.35L58.9398 3.61783784 60.9878824 3.61783784 60.9878824 11.0854054 58.9398 11.0854054 58.9398 10.2494595C58.4462471 10.8316216 57.6531529 11.2345946 56.6814706 11.2345946 55.0969059 11.2345946 53.0780471 9.98027027 53.0780471 7.35162162zM61.6908706 3.61783784L63.7235294 3.61783784 63.7235294 4.45459459C64.2024706 3.84162162 64.9354941 3.46864865 65.7870353 3.46864865 67.5518118 3.46864865 68.6136 4.60378378 68.6136 6.53027027L68.6136 11.0854054 66.5354824 11.0854054 66.5354824 6.79864865C66.5354824 5.79810811 66.0719647 5.21594595 65.1595412 5.21594595 64.3818706 5.21594595 63.7389529 5.75351351 63.7389529 7.00783784L63.7389529 11.0854054 61.6908706 11.0854054 61.6908706 3.61783784"/>
    <polygon fill="#FFFFFF" points="43.693 11.083 45.741 11.083 45.741 3.615 43.693 3.615"/>
    <polygon fill="#FFFFFF" points="43.693 3.156 45.742 3.156 45.742 1.314 43.693 1.314"/>
    <path fill="#FFFFFF" d="M73.4517176 5.4527027L73.4517176 3.61540541 72.0457412 3.61540541 72.0457412 1.31351351 69.9976588 1.31351351 69.9976588 3.61540541 68.7272471 3.61540541 68.7272471 5.4527027 69.9976588 5.4527027 69.9976588 7.84216216C69.9976588 10.2762162 70.7753294 11.082973 73.1529882 11.082973L73.4517176 11.082973 73.4517176 9.17108108C72.1959176 9.17108108 72.0457412 8.99189189 72.0457412 7.82675676L72.0457412 5.4527027 73.4517176 5.4527027M8.89288235 5.62864865C8.89288235 2.37324324 11.3452235.0283783784 14.5005529.0283783784 16.5486353.0283783784 18.3280235 1.10351351 19.2850941 2.73162162L17.4610588 3.89675676C16.8473647 2.76162162 15.8911059 2.07486486 14.5005529 2.07486486 12.4662706 2.07486486 10.9563882 3.62756757 10.9563882 5.62864865 10.9563882 7.58513514 12.4516588 9.15405405 14.4559059 9.15405405 15.9503647 9.15405405 16.9975412 8.2872973 17.5503529 7.12216216L19.4490706 8.12351351C18.4928118 9.97459459 16.6687765 11.2297297 14.5005529 11.2297297 11.1211765 11.2297297 8.89288235 8.73486486 8.89288235 5.62864865"/>
    <polygon fill="#00B140" points="0 59.87 1.94 59.87 1.94 .189 0 .189"/>
  </g>
</svg>
