<svg xmlns="http://www.w3.org/2000/svg" width="198" height="60" viewBox="0 0 198 60"><g fill="none" fill-rule="evenodd"><path fill="#FFF" d="M9.364 35.291h1.857V17.928H9.364zM16.772 25.122s1.238-1.985 3.837-1.985c2.847 0 4.827 1.985 4.827 5.085v7.07h-1.733v-7.07c0-2.108-1.362-3.472-3.218-3.472-2.105 0-3.713 1.612-3.713 3.968v6.573h-1.733V23.385h1.733v1.737m16.8-.372c-1.98 0-3.96 1.984-3.96 4.588 0 2.605 1.98 4.59 3.96 4.59 2.105 0 4.208-2.11 4.208-4.59s-2.103-4.588-4.208-4.588zm4.208-6.822h1.734v17.363H37.78v-1.86s-1.485 2.108-4.208 2.108c-2.97 0-5.693-2.728-5.693-6.2 0-3.473 2.723-6.202 5.693-6.202 2.723 0 4.208 2.109 4.208 2.109v-7.318zm13.687 15.751s-1.238 1.86-3.837 1.86c-2.723 0-4.828-2.108-4.828-5.209v-6.945h1.734v6.945c0 2.11 1.485 3.597 3.342 3.597 1.98 0 3.59-1.612 3.59-3.969v-6.573H53.2V35.29h-1.733V33.68m11.072-7.69s-.866-1.24-2.598-1.24c-1.363 0-2.229.869-2.229 1.737 0 2.604 6.437 1.24 6.437 5.457 0 1.984-1.61 3.596-4.332 3.596-2.971 0-4.332-2.108-4.332-2.108l1.237-1.24s1.114 1.736 3.095 1.736c1.732 0 2.599-.868 2.599-1.984 0-2.729-6.436-1.365-6.436-5.457 0-1.736 1.608-3.35 3.96-3.35 2.476 0 3.838 1.614 3.838 1.614l-1.239 1.24m5.278-6.574h1.61v3.969h2.599v1.613h-2.6v7.068c0 1.241.619 1.861 1.61 1.861.866 0 1.608-.372 1.608-.372v1.612s-.742.372-1.683.372c-2.03 0-3.267-1.24-3.267-3.473v-7.068h-2.229v-1.613h1.362c.62 0 .99-.371.99-1.24v-2.729m13.064 5.458h-.743c-1.98 0-3.712 1.488-3.712 3.844v6.573h-1.734V23.385h1.734v1.613s1.236-1.861 3.96-1.861h.495v1.737m5.795 10.417L81.85 23.385h1.856l3.837 9.674 3.837-9.674h1.856l-5.445 13.643c-.99 2.48-1.981 3.472-3.714 3.472-.866 0-1.485-.248-1.485-.248V38.64s.62.248 1.238.248c1.114 0 1.782-.62 2.228-1.86l.618-1.737m17.326-10.17s2.475-1.86 2.475-3.596c0-1.241-.99-2.233-2.352-2.233-1.361 0-2.351.992-2.351 2.233 0 1.489 2.228 3.597 2.228 3.597zm-.248 2.109s-2.723 1.984-2.723 4.092c0 1.588 1.238 2.605 3.341 2.605 2.229 0 3.466-1.488 3.466-1.488l-4.084-5.21zm1.114-.992 3.96 4.836s1.115-1.612 1.115-4.216h1.608c0 3.348-1.608 5.581-1.608 5.581s.915 1.488 1.98 1.488c.321 0 .742-.124.742-.124v1.613s-.445.123-.866.123c-1.733 0-2.846-1.984-2.846-1.984s-1.61 1.984-4.58 1.984c-2.97 0-4.951-1.984-4.951-4.217 0-3.1 3.342-5.084 3.342-5.084s-2.6-2.605-2.6-4.713c0-2.109 1.733-3.845 3.96-3.845 2.23 0 3.962 1.736 3.962 3.72 0 2.606-3.218 4.838-3.218 4.838zM11.221 43.664v7.442h4.703c2.228 0 3.713-1.488 3.713-3.721 0-2.232-1.485-3.721-3.713-3.721H11.22zm4.703-1.736c3.218 0 5.57 2.356 5.57 5.457 0 3.1-2.352 5.457-5.57 5.457H11.22v6.45H9.364V41.927h6.56zM23.914 59.291h1.733V41.928h-1.733zM36.201 53.958v-.744l-4.084.744c-1.485.273-2.228.992-2.228 2.108 0 .993.866 1.861 2.475 1.861 2.229 0 3.837-1.612 3.837-3.969zm0-2.232c0-1.736-1.237-2.976-2.97-2.976-2.104 0-3.342 1.736-3.342 1.736l-1.114-1.116s1.61-2.233 4.455-2.233c2.724 0 4.705 1.985 4.705 4.589v7.565H36.2V57.68s-1.237 1.86-3.837 1.86c-2.475 0-4.208-1.736-4.208-3.473 0-1.984 1.237-3.224 3.466-3.596l4.58-.744zm5.718-8.31h1.61v3.969h2.599v1.613h-2.6v7.068c0 1.241.62 1.861 1.61 1.861.866 0 1.61-.372 1.61-.372v1.612s-.744.372-1.685.372c-2.03 0-3.267-1.24-3.267-3.473v-7.068h-2.228v-1.613h1.361c.62 0 .99-.371.99-1.24v-2.729m12.393 5.582h-2.846V59.29h-1.733V48.998h-1.857v-1.613h1.857v-2.232c0-2.233 1.238-3.473 3.218-3.473.99 0 1.733.372 1.733.372v1.612s-.743-.372-1.609-.372c-.99 0-1.61.62-1.61 1.86v2.233h2.847v1.613m6.885-.248c-2.351 0-4.331 1.984-4.331 4.588 0 2.58 1.98 4.59 4.331 4.59 2.352 0 4.333-1.985 4.333-4.59 0-2.604-1.98-4.588-4.333-4.588zm0-1.613c3.342 0 6.066 2.729 6.066 6.201 0 3.473-2.724 6.201-6.066 6.201-3.341 0-6.064-2.728-6.064-6.2 0-3.473 2.723-6.202 6.064-6.202zm14.742 1.737h-.743c-1.98 0-3.713 1.488-3.713 3.844v6.573h-1.734V47.385h1.734v1.613s1.237-1.861 3.96-1.861h.496v1.737m17.589 3.348c0-2.257-1.238-3.472-2.97-3.472-1.734 0-3.22 1.488-3.22 3.968v6.573h-1.732v-7.07c0-2.231-1.238-3.471-2.97-3.471-1.734 0-3.219 1.488-3.219 3.968v6.573h-1.732V47.385h1.732v1.489s.99-1.737 3.342-1.737c2.847 0 3.837 2.109 3.837 2.109s1.114-2.11 4.085-2.11c2.599 0 4.579 1.762 4.579 5.086v7.07h-1.732v-7.07m9.277-5.83c0-2.529 2.13-4.712 5.57-4.712 3.317 0 5.075 2.233 5.075 2.233l-1.238 1.24s-1.263-1.737-3.837-1.737c-2.376 0-3.713 1.414-3.713 2.977 0 4.465 9.407 1.985 9.407 8.185 0 2.853-2.105 4.961-5.818 4.961-3.96 0-5.817-2.604-5.817-2.604l1.14-1.265s1.46 2.133 4.677 2.133c2.6 0 3.96-1.364 3.96-3.225 0-4.464-9.406-1.984-9.406-8.185m19.182 2.357c-2.352 0-4.332 1.984-4.332 4.588 0 2.58 1.98 4.59 4.332 4.59 2.351 0 4.332-1.985 4.332-4.59 0-2.604-1.98-4.588-4.332-4.588zm0-1.613c3.342 0 6.065 2.729 6.065 6.201 0 3.473-2.723 6.201-6.065 6.201-3.342 0-6.065-2.728-6.065-6.2 0-3.473 2.723-6.202 6.065-6.202zM130.629 59.291h1.732V41.928h-1.732zM144.304 57.68s-1.238 1.86-3.837 1.86c-2.723 0-4.827-2.109-4.827-5.21v-6.945h1.733v6.945c0 2.11 1.486 3.597 3.342 3.597 1.98 0 3.59-1.612 3.59-3.969v-6.573h1.732V59.29h-1.733V57.68m6.085-14.263h1.609v3.969h2.6v1.613h-2.6v7.068c0 1.241.618 1.861 1.608 1.861.867 0 1.61-.372 1.61-.372v1.612s-.743.372-1.683.372c-2.03 0-3.268-1.24-3.268-3.473v-7.068h-2.228v-1.613h1.361c.619 0 .991-.371.991-1.24v-2.729m6.875 15.875h1.732V47.385h-1.732V59.29zm.866-16.991a1.11 1.11 0 0 1 1.114 1.116 1.11 1.11 0 0 1-1.114 1.117 1.11 1.11 0 0 1-1.114-1.117c0-.62.495-1.116 1.114-1.116zm9.381 6.45c-2.352 0-4.332 1.984-4.332 4.588 0 2.58 1.98 4.59 4.332 4.59 2.351 0 4.332-1.985 4.332-4.59 0-2.604-1.98-4.588-4.332-4.588zm0-1.613c3.342 0 6.065 2.729 6.065 6.201 0 3.473-2.723 6.201-6.065 6.201-3.342 0-6.065-2.728-6.065-6.2 0-3.473 2.723-6.202 6.065-6.202zm10.285 1.985s1.238-1.985 3.837-1.985c2.846 0 4.827 1.985 4.827 5.085v7.07h-1.732v-7.07c0-2.108-1.362-3.472-3.219-3.472-2.104 0-3.713 1.612-3.713 3.968v6.573h-1.733V47.385h1.733v1.737m17.835.868s-.866-1.24-2.599-1.24c-1.362 0-2.228.868-2.228 1.736 0 2.604 6.437 1.24 6.437 5.457 0 1.984-1.61 3.596-4.332 3.596-2.971 0-4.332-2.108-4.332-2.108l1.237-1.24s1.115 1.736 3.095 1.736c1.732 0 2.598-.868 2.598-1.984 0-2.729-6.435-1.365-6.435-5.457 0-1.736 1.608-3.35 3.96-3.35 2.475 0 3.837 1.614 3.837 1.614l-1.238 1.24M24.867 7.61c0-1.046-.824-1.916-1.853-1.916-1.045 0-1.838.87-1.838 1.916 0 1.047.793 1.916 1.838 1.916 1.029 0 1.853-.87 1.853-1.916zm-5.663 0a3.807 3.807 0 0 1 3.81-3.83 3.807 3.807 0 0 1 3.809 3.83 3.807 3.807 0 0 1-3.81 3.832 3.807 3.807 0 0 1-3.809-3.832zm13.609-.014c0-1.091-.794-1.975-1.883-1.975-1.117 0-1.97.84-1.97 1.975 0 1.134.853 1.989 1.97 1.989 1.09 0 1.883-.899 1.883-1.989zm-5.741.014c0-2.608 1.912-3.83 3.573-3.83.956 0 1.706.397 2.192.942v-.796h2.014v7.162c0 2.078-1.308 3.758-3.794 3.758-1.867 0-3.235-.973-3.823-2.122l1.78-1.002c.381.766 1.058 1.252 2.043 1.252 1.088 0 1.78-.855 1.78-1.812v-.693c-.486.575-1.266.973-2.221.973-1.559 0-3.544-1.238-3.544-3.832zm8.47-3.684h2v.825a2.532 2.532 0 0 1 2.03-.972c1.735 0 2.78 1.12 2.78 3.021v4.494h-2.045v-4.23c0-.986-.456-1.56-1.353-1.56-.765 0-1.397.53-1.397 1.767v4.023h-2.014V3.926M45.527 9.496l3.868-3.786h-3.809V3.926H52.1v1.813l-3.867 3.772h3.942v1.783h-6.648V9.496M57.945 7.596c0-1.091-.794-1.975-1.883-1.975-1.118 0-1.97.84-1.97 1.975 0 1.134.852 1.989 1.97 1.989 1.089 0 1.883-.899 1.883-1.989zm-5.742.014c0-2.608 1.912-3.83 3.574-3.83.956 0 1.706.353 2.191.869v-.723h2.015v7.368h-2.015v-.825c-.485.575-1.264.973-2.22.973-1.56 0-3.545-1.238-3.545-3.832zm8.471-3.684h2v.825a2.534 2.534 0 0 1 2.029-.972c1.736 0 2.78 1.12 2.78 3.021v4.494h-2.045v-4.23c0-.986-.455-1.56-1.352-1.56-.765 0-1.397.53-1.397 1.767v4.023h-2.015V3.926M42.972 11.292h2.016V3.924h-2.016zM42.973 3.47h2.015V1.653h-2.015zM72.241 5.736V3.924h-1.383V1.653h-2.014v2.271h-1.25v1.812h1.25v2.358c0 2.402.765 3.198 3.103 3.198h.294V9.406c-1.235 0-1.383-.177-1.383-1.327V5.736h1.383M8.746 5.91c0-3.212 2.412-5.525 5.515-5.525 2.015 0 3.765 1.06 4.706 2.667l-1.794 1.149c-.603-1.12-1.544-1.798-2.912-1.798-2 0-3.485 1.533-3.485 3.507 0 1.93 1.47 3.478 3.44 3.478 1.472 0 2.501-.854 3.045-2.004l1.868.987c-.94 1.828-2.736 3.066-4.868 3.066-3.323 0-5.515-2.461-5.515-5.527"/><path fill="#F4633A" d="M0 59.429h1.908V.543H0z"/></g></svg>