<svg xmlns="http://www.w3.org/2000/svg" width="161" height="60" viewBox="0 0 161 60">
  <g fill="none" fill-rule="evenodd">
    <path fill="#FFFFFF" d="M17.3904271 17.5572973C22.1565126 17.5572973 24.5399598 21.2035135 24.5399598 21.2035135L23.2851307 22.3345946C23.2851307 22.3345946 21.4041005 19.3175676 17.3904271 19.3175676 13.3767538 19.3175676 10.2408945 22.4602703 10.2408945 26.6083784 10.2408945 30.7564865 13.3767538 33.8991892 17.3904271 33.8991892 21.4041005 33.8991892 23.4113417 30.8821622 23.4113417 30.8821622L24.6653618 32.0140541C24.6653618 32.0140541 22.1565126 35.6586486 17.3904271 35.6586486 12.3735377 35.6586486 8.35986432 31.6362162 8.35986432 26.6083784 8.35986432 21.5797297 12.3735377 17.5572973 17.3904271 17.5572973M32.3982161 24.7224324C30.0147688 24.7224324 28.0083367 26.7340541 28.0083367 29.3740541 28.0083367 31.9881081 30.0147688 34.0248649 32.3982161 34.0248649 34.7808543 34.0248649 36.7880955 32.0140541 36.7880955 29.3740541 36.7880955 26.7340541 34.7808543 24.7224324 32.3982161 24.7224324zM32.3982161 23.0894595C35.7848794 23.0894595 38.5437236 25.8543243 38.5437236 29.3740541 38.5437236 32.892973 35.7848794 35.6586486 32.3982161 35.6586486 29.0115528 35.6586486 26.2518995 32.892973 26.2518995 29.3740541 26.2518995 25.8543243 29.0115528 23.0894595 32.3982161 23.0894595zM47.3356181 24.8481081L46.583206 24.8481081C44.5767739 24.8481081 42.8203367 26.357027 42.8203367 28.7448649L42.8203367 35.4072973 41.0647085 35.4072973 41.0647085 23.34 42.8203367 23.34 42.8203367 24.9745946C42.8203367 24.9745946 44.0751658 23.0894595 46.8340101 23.0894595L47.3356181 23.0894595 47.3356181 24.8481081M49.6494874 28.4943243L57.8022362 28.4943243C57.5514322 26.357027 55.920397 24.7224324 53.7885628 24.7224324 51.6559196 24.7224324 49.9002915 26.4827027 49.6494874 28.4943243zM49.6494874 30.0024324C49.7748894 32.1397297 51.6559196 34.0248649 53.9139648 34.0248649 56.4478945 34.0248649 57.8022362 32.0140541 57.8022362 32.0140541L58.9308543 33.1451351C58.9308543 33.1451351 57.1752261 35.6586486 53.9139648 35.6586486 50.6527035 35.6586486 47.8930503 32.892973 47.8930503 29.3740541 47.8930503 25.8543243 50.6527035 23.0894595 53.7885628 23.0894595 57.0498241 23.0894595 59.5578643 25.6021622 59.5578643 29.1227027 59.5578643 29.6245946 59.4324623 30.0267568 59.4324623 30.0267568L49.6494874 30.0024324z"/>
    <polyline fill="#FFFFFF" points="18.394 54.704 11.37 45.402 11.37 59.732 9.489 59.732 9.489 42.134 11.12 42.134 18.394 51.687 25.669 42.134 27.299 42.134 27.299 59.732 25.418 59.732 25.418 45.402 18.394 54.704"/>
    <path fill="#FFFFFF" d="M36.5736985 49.0467568C34.1910603 49.0467568 32.1838191 51.0583784 32.1838191 53.6983784 32.1838191 56.3124324 34.1910603 58.3491892 36.5736985 58.3491892 38.9571457 58.3491892 40.9635779 56.3375676 40.9635779 53.6983784 40.9635779 51.0583784 38.9571457 49.0467568 36.5736985 49.0467568zM36.5736985 47.4137838C39.9603618 47.4137838 42.7200151 50.1786486 42.7200151 53.6983784 42.7200151 57.2172973 39.9603618 59.982973 36.5736985 59.982973 33.1878442 59.982973 30.428191 57.2172973 30.428191 53.6983784 30.428191 50.1786486 33.1878442 47.4137838 36.5736985 47.4137838zM50.2125829 49.0467568C48.2053417 49.0467568 46.1989095 51.0583784 46.1989095 53.6983784 46.1989095 56.3375676 48.2053417 58.3491892 50.2125829 58.3491892 52.3444171 58.3491892 54.4770603 56.2118919 54.4770603 53.6983784 54.4770603 51.1840541 52.3444171 49.0467568 50.2125829 49.0467568zM54.4770603 42.1337838L56.2326884 42.1337838 56.2326884 59.7316216 54.4770603 59.7316216 54.4770603 57.8464865C54.4770603 57.8464865 52.9714271 59.982973 50.2125829 59.982973 47.2021256 59.982973 44.4424724 57.2172973 44.4424724 53.6983784 44.4424724 50.1786486 47.2021256 47.4137838 50.2125829 47.4137838 52.9714271 47.4137838 54.4770603 49.5494595 54.4770603 49.5494595L54.4770603 42.1337838zM60.5691709 52.8186486L68.7227286 52.8186486C68.4711156 50.6813514 66.8408894 49.0467568 64.7090553 49.0467568 62.5764121 49.0467568 60.8199749 50.807027 60.5691709 52.8186486zM60.5691709 54.3267568C60.6953819 56.4640541 62.5764121 58.3491892 64.8336482 58.3491892 67.3675779 58.3491892 68.7227286 56.3375676 68.7227286 56.3375676L69.8513467 57.4694595C69.8513467 57.4694595 68.0949095 59.982973 64.8336482 59.982973 61.573196 59.982973 58.8135427 57.2172973 58.8135427 53.6983784 58.8135427 50.1786486 61.573196 47.4137838 64.7090553 47.4137838 67.9695075 47.4137838 70.4775477 49.9264865 70.4775477 53.447027 70.4775477 53.9489189 70.3529548 54.3510811 70.3529548 54.3510811L60.5691709 54.3267568zM79.2702513 49.1724324L78.5178392 49.1724324C76.510598 49.1724324 74.7549698 50.6813514 74.7549698 53.0691892L74.7549698 59.7316216 72.9993417 59.7316216 72.9993417 47.6643243 74.7549698 47.6643243 74.7549698 49.2989189C74.7549698 49.2989189 76.0089899 47.4137838 78.7686432 47.4137838L79.2702513 47.4137838 79.2702513 49.1724324M82.7952613 49.4245946C82.7952613 49.4245946 84.0500905 47.4137838 86.6835327 47.4137838 89.5685879 47.4137838 91.5758291 49.4245946 91.5758291 52.5664865L91.5758291 59.7316216 89.819392 59.7316216 89.819392 52.5664865C89.819392 50.43 88.4399698 49.0467568 86.5581307 49.0467568 84.4262965 49.0467568 82.7952613 50.6813514 82.7952613 53.0691892L82.7952613 59.7316216 81.0396332 59.7316216 81.0396332 47.6643243 82.7952613 47.6643243 82.7952613 49.4245946M94.8055377 59.7316216L96.5619749 59.7316216 96.5619749 47.6643243 94.8055377 47.6643243 94.8055377 59.7316216zM95.6833518 42.5108108C96.3103618 42.5108108 96.8119698 43.0135135 96.8119698 43.6418919 96.8119698 44.2710811 96.3103618 44.7737838 95.6833518 44.7737838 95.0563417 44.7737838 94.5547337 44.2710811 94.5547337 43.6418919 94.5547337 43.0135135 95.0563417 42.5108108 95.6833518 42.5108108z"/>
    <polyline fill="#FFFFFF" points="108.032 49.299 100.758 58.097 108.283 58.097 108.283 59.732 98.625 59.732 98.625 58.097 105.9 49.299 98.876 49.299 98.876 47.664 108.032 47.664 108.032 49.299"/>
    <path fill="#FFFFFF" d="M117.931286 54.3267568L117.931286 53.5718919 113.792211 54.3267568C112.286578 54.6032432 111.534166 55.3321622 111.534166 56.4640541 111.534166 57.4694595 112.41198 58.3491892 114.043015 58.3491892 116.300251 58.3491892 117.931286 56.7145946 117.931286 54.3267568zM117.931286 52.0637838C117.931286 50.3043243 116.676457 49.0467568 114.920829 49.0467568 112.788186 49.0467568 111.534166 50.807027 111.534166 50.807027L110.405548 49.6759459C110.405548 49.6759459 112.035774 47.4137838 114.920829 47.4137838 117.679673 47.4137838 119.686915 49.4245946 119.686915 52.0637838L119.686915 59.7316216 117.931286 59.7316216 117.931286 58.097027C117.931286 58.097027 116.676457 59.982973 114.043015 59.982973 111.534166 59.982973 109.778538 58.2235135 109.778538 56.4640541 109.778538 54.4524324 111.032558 53.1956757 113.289794 52.8186486L117.931286 52.0637838zM123.725668 43.6418919L125.356704 43.6418919 125.356704 47.6643243 127.990146 47.6643243 127.990146 49.2989189 125.356704 49.2989189 125.356704 56.4640541C125.356704 57.7208108 125.982905 58.3491892 126.98693 58.3491892 127.864744 58.3491892 128.617156 57.9713514 128.617156 57.9713514L128.617156 59.6059459C128.617156 59.6059459 127.864744 59.982973 126.910879 59.982973 124.854286 59.982973 123.600266 58.7262162 123.600266 56.4640541L123.600266 49.2989189 121.34303 49.2989189 121.34303 47.6643243 122.722452 47.6643243C123.349462 47.6643243 123.725668 47.2872973 123.725668 46.4075676L123.725668 43.6418919M130.692357 59.7316216L132.447985 59.7316216 132.447985 47.6643243 130.692357 47.6643243 130.692357 59.7316216zM131.570171 42.5108108C132.19799 42.5108108 132.699598 43.0135135 132.699598 43.6418919 132.699598 44.2710811 132.19799 44.7737838 131.570171 44.7737838 130.943161 44.7737838 130.441553 44.2710811 130.441553 43.6418919 130.441553 43.0135135 130.943161 42.5108108 131.570171 42.5108108zM141.076452 49.0467568C138.693005 49.0467568 136.686573 51.0583784 136.686573 53.6983784 136.686573 56.3124324 138.693005 58.3491892 141.076452 58.3491892 143.45909 58.3491892 145.466332 56.3375676 145.466332 53.6983784 145.466332 51.0583784 143.45909 49.0467568 141.076452 49.0467568zM141.076452 47.4137838C144.463116 47.4137838 147.22196 50.1786486 147.22196 53.6983784 147.22196 57.2172973 144.463116 59.982973 141.076452 59.982973 137.689789 59.982973 134.930136 57.2172973 134.930136 53.6983784 134.930136 50.1786486 137.689789 47.4137838 141.076452 47.4137838zM151.499382 49.4245946C151.499382 49.4245946 152.753402 47.4137838 155.387653 47.4137838 158.271899 47.4137838 160.279141 49.4245946 160.279141 52.5664865L160.279141 59.7316216 158.523513 59.7316216 158.523513 52.5664865C158.523513 50.43 157.143281 49.0467568 155.261442 49.0467568 153.129608 49.0467568 151.499382 50.6813514 151.499382 53.0691892L151.499382 59.7316216 149.742945 59.7316216 149.742945 47.6643243 151.499382 47.6643243 151.499382 49.4245946M25.1985226 7.35162162C25.1985226 6.29108108 24.3635879 5.40972973 23.3207286 5.40972973 22.2624975 5.40972973 21.4583065 6.29108108 21.4583065 7.35162162 21.4583065 8.41216216 22.2624975 9.29351351 23.3207286 9.29351351 24.3635879 9.29351351 25.1985226 8.41216216 25.1985226 7.35162162zM19.4607739 7.35162162C19.4607739 5.20135135 21.1743317 3.46864865 23.3207286 3.46864865 25.4671256 3.46864865 27.1806834 5.20135135 27.1806834 7.35162162 27.1806834 9.50189189 25.4671256 11.2345946 23.3207286 11.2345946 21.1743317 11.2345946 19.4607739 9.50189189 19.4607739 7.35162162zM33.2509497 7.33621622C33.2509497 6.23189189 32.4467588 5.33513514 31.3440302 5.33513514 30.2113668 5.33513514 29.3473065 6.18648649 29.3473065 7.33621622 29.3473065 8.48675676 30.2113668 9.3527027 31.3440302 9.3527027 32.4467588 9.3527027 33.2509497 8.44216216 33.2509497 7.33621622zM27.4339146 7.35162162C27.4339146 4.70837838 29.3707688 3.46864865 31.054392 3.46864865 32.0236281 3.46864865 32.7833216 3.87162162 33.2752211 4.42459459L33.2752211 3.61783784 35.3164422 3.61783784 35.3164422 10.8762162C35.3164422 12.9818919 33.9904171 14.6845946 31.4718593 14.6845946 29.5795025 14.6845946 28.193608 13.6994595 27.5973417 12.5343243L29.4007035 11.5183784C29.7882362 12.2951351 30.4734975 12.7881081 31.4718593 12.7881081 32.5745879 12.7881081 33.2752211 11.9221622 33.2752211 10.9508108L33.2752211 10.2494595C32.7833216 10.8316216 31.9936935 11.2345946 31.0252663 11.2345946 29.445201 11.2345946 27.4339146 9.98027027 27.4339146 7.35162162zM36.0170754 3.61783784L38.0437337 3.61783784 38.0437337 4.45459459C38.5210704 3.84162162 39.2508291 3.46864865 40.1003266 3.46864865 41.8583819 3.46864865 42.9166131 4.60378378 42.9166131 6.53027027L42.9166131 11.0854054 40.8454573 11.0854054 40.8454573 6.79864865C40.8454573 5.79810811 40.3834925 5.21594595 39.4741256 5.21594595 38.6998693 5.21594595 38.0591055 5.75351351 38.0591055 7.00783784L38.0591055 11.0854054 36.0170754 11.0854054 36.0170754 3.61783784"/>
    <polyline fill="#FFFFFF" points="46.135 9.264 50.054 5.425 46.195 5.425 46.195 3.618 52.797 3.618 52.797 5.455 48.877 9.278 52.871 9.278 52.871 11.085 46.135 11.085 46.135 9.264"/>
    <path fill="#FFFFFF" d="M58.7180754 7.33621622C58.7180754 6.23189189 57.9138844 5.33513514 56.8111558 5.33513514 55.6784925 5.33513514 54.8144322 6.18648649 54.8144322 7.33621622 54.8144322 8.48675676 55.6784925 9.3527027 56.8111558 9.3527027 57.9138844 9.3527027 58.7180754 8.44216216 58.7180754 7.33621622zM52.9002312 7.35162162C52.9002312 4.70837838 54.8378945 3.46864865 56.5223266 3.46864865 57.4907538 3.46864865 58.2504472 3.82702703 58.7423467 4.35L58.7423467 3.61783784 60.7843769 3.61783784 60.7843769 11.0854054 58.7423467 11.0854054 58.7423467 10.2494595C58.2504472 10.8316216 57.4608191 11.2345946 56.492392 11.2345946 54.9123266 11.2345946 52.9002312 9.98027027 52.9002312 7.35162162zM61.484201 3.61783784L63.5108593 3.61783784 63.5108593 4.45459459C63.9873869 3.84162162 64.7179548 3.46864865 65.5674523 3.46864865 67.3255075 3.46864865 68.3837387 4.60378378 68.3837387 6.53027027L68.3837387 11.0854054 66.3125829 11.0854054 66.3125829 6.79864865C66.3125829 5.79810811 65.8506181 5.21594595 64.9412513 5.21594595 64.166995 5.21594595 63.5254221 5.75351351 63.5254221 7.00783784L63.5254221 11.0854054 61.484201 11.0854054 61.484201 3.61783784"/>
    <polygon fill="#FFFFFF" points="43.547 11.083 45.588 11.083 45.588 3.615 43.547 3.615"/>
    <polygon fill="#FFFFFF" points="43.547 3.156 45.589 3.156 45.589 1.314 43.547 1.314"/>
    <path fill="#FFFFFF" d="M73.2064573 5.4527027L73.2064573 3.61540541 71.805191 3.61540541 71.805191 1.31351351 69.7639698 1.31351351 69.7639698 3.61540541 68.497005 3.61540541 68.497005 5.4527027 69.7639698 5.4527027 69.7639698 7.84216216C69.7639698 10.2762162 70.5382261 11.082973 72.9079196 11.082973L73.2064573 11.082973 73.2064573 9.17108108C71.9540553 9.17108108 71.805191 8.99189189 71.805191 7.82675676L71.805191 5.4527027 73.2064573 5.4527027M8.86309045 5.62864865C8.86309045 2.37324324 11.3072161.0283783784 14.4519749.0283783784 16.493196.0283783784 18.2666231 1.10351351 19.2204874 2.73162162L17.4025628 3.89675676C16.7917337 2.76162162 15.8378693 2.07486486 14.4519749 2.07486486 12.4253166 2.07486486 10.9196834 3.62756757 10.9196834 5.62864865 10.9196834 7.58513514 12.4107538 9.15405405 14.4074774 9.15405405 15.8977387 9.15405405 16.940598 8.2872973 17.4923668 7.12216216L19.3847236 8.12351351C18.4308593 9.97459459 16.6129347 11.2297297 14.4519749 11.2297297 11.0839196 11.2297297 8.86309045 8.73486486 8.86309045 5.62864865"/>
    <polygon fill="#00B140" points="0 59.87 1.933 59.87 1.933 .189 0 .189"/>
  </g>
</svg>
