<svg xmlns="http://www.w3.org/2000/svg" width="187" height="51" viewBox="0 0 187 51">
  <g fill="none" fill-rule="evenodd">
    <path fill="#FFFFFF" d="M19.326,25.778 L15.139,36.009 L23.511,36.009 L19.326,25.778 Z M14.209,38.18 L11.729,44.226 L9.248,44.226 L18.24,22.522 L20.411,22.522 L29.402,44.226 L26.921,44.226 L24.441,38.18 L14.209,38.18 Z"/>
    <polygon fill="#FFFFFF" points="32.57 44.226 34.895 44.226 34.895 22.522 32.57 22.522"/>
    <path fill="#FFFFFF" d="M51.015 31.514C51.015 31.514 54.116 29.188 54.116 27.018 54.116 25.467 52.876 24.227 51.17 24.227 49.465 24.227 48.225 25.467 48.225 27.018 48.225 28.879 51.015 31.514 51.015 31.514zM50.706 34.149C50.706 34.149 47.294 36.63 47.294 39.265 47.294 41.25 48.845 42.521 51.48 42.521 54.271 42.521 55.822 40.661 55.822 40.661L50.706 34.149zM52.101 32.909L57.062 38.955C57.062 38.955 58.456 36.94 58.456 33.684L60.472 33.684C60.472 37.87 58.456 40.661 58.456 40.661 58.456 40.661 59.604 42.521 60.937 42.521 61.34 42.521 61.868 42.366 61.868 42.366L61.868 44.382C61.868 44.382 61.309 44.536 60.783 44.536 58.612 44.536 57.216 42.056 57.216 42.056 57.216 42.056 55.201 44.536 51.48 44.536 47.759 44.536 45.279 42.056 45.279 39.265 45.279 35.389 49.465 32.909 49.465 32.909 49.465 32.909 46.21 29.653 46.21 27.018 46.21 24.382 48.38 22.212 51.17 22.212 53.96 22.212 56.131 24.382 56.131 26.863 56.131 30.119 52.101 32.909 52.101 32.909zM78.294 25.778L74.109 36.009 82.481 36.009 78.294 25.778zM73.179 38.18L70.699 44.226 68.218 44.226 77.209 22.522 79.38 22.522 88.372 44.226 85.891 44.226 83.411 38.18 73.179 38.18zM93.05 31.514C93.05 31.514 94.6 29.033 97.856 29.033 101.421 29.033 103.902 31.514 103.902 35.389L103.902 44.226 101.732 44.226 101.732 35.389C101.732 32.754 100.027 31.049 97.701 31.049 95.066 31.049 93.05 33.064 93.05 36.009L93.05 44.226 90.879 44.226 90.879 29.343 93.05 29.343 93.05 31.514M116.918 37.56L116.918 36.63 111.802 37.56C109.942 37.901 109.011 38.8 109.011 40.196 109.011 41.436 110.097 42.521 112.113 42.521 114.903 42.521 116.918 40.506 116.918 37.56zM116.918 34.769C116.918 32.599 115.368 31.049 113.198 31.049 110.562 31.049 109.011 33.219 109.011 33.219L107.617 31.824C107.617 31.824 109.632 29.033 113.198 29.033 116.608 29.033 119.088 31.514 119.088 34.769L119.088 44.226 116.918 44.226 116.918 42.211C116.918 42.211 115.368 44.536 112.113 44.536 109.011 44.536 106.841 42.366 106.841 40.196 106.841 37.715 108.392 36.165 111.182 35.7L116.918 34.769z"/>
    <polygon fill="#FFFFFF" points="123.243 44.226 125.414 44.226 125.414 22.522 123.243 22.522"/>
    <path fill="#FFFFFF" d="M133.709 44.226L127.664 29.343 129.989 29.343 134.794 41.436 139.6 29.343 141.925 29.343 135.105 46.397C133.865 49.497 132.625 50.738 130.454 50.738 129.369 50.738 128.593 50.427 128.593 50.427L128.593 48.412C128.593 48.412 129.369 48.722 130.144 48.722 131.539 48.722 132.376 47.947 132.934 46.397L133.709 44.226M146.325 24.382L148.34 24.382 148.34 29.343 151.595 29.343 151.595 31.359 148.34 31.359 148.34 40.196C148.34 41.746 149.115 42.521 150.355 42.521 151.441 42.521 152.371 42.056 152.371 42.056L152.371 44.071C152.371 44.071 151.441 44.536 150.262 44.536 147.72 44.536 146.169 42.986 146.169 40.196L146.169 31.359 143.379 31.359 143.379 29.343 145.084 29.343C145.86 29.343 146.325 28.879 146.325 27.793L146.325 24.382M154.936 44.226L157.107 44.226 157.107 29.343 154.936 29.343 154.936 44.226zM156.021 22.987C156.796 22.987 157.417 23.607 157.417 24.382 157.417 25.158 156.796 25.778 156.021 25.778 155.247 25.778 154.626 25.158 154.626 24.382 154.626 23.607 155.247 22.987 156.021 22.987zM167.616 29.033C171.492 29.033 173.662 31.979 173.662 31.979L172.112 33.529C172.112 33.529 170.561 31.049 167.616 31.049 164.826 31.049 162.345 33.529 162.345 36.785 162.345 40.041 164.826 42.521 167.616 42.521 170.561 42.521 172.267 40.041 172.267 40.041L173.817 41.436C173.817 41.436 171.492 44.536 167.616 44.536 163.585 44.536 160.174 41.126 160.174 36.785 160.174 32.444 163.585 29.033 167.616 29.033M184.393 32.599C184.393 32.599 183.308 31.049 181.138 31.049 179.432 31.049 178.347 32.134 178.347 33.219 178.347 36.475 186.409 34.769 186.409 40.041 186.409 42.521 184.393 44.536 180.983 44.536 177.262 44.536 175.556 41.901 175.556 41.901L177.107 40.35C177.107 40.35 178.502 42.521 180.983 42.521 183.153 42.521 184.238 41.436 184.238 40.041 184.238 36.63 176.177 38.335 176.177 33.219 176.177 31.049 178.192 29.033 181.138 29.033 184.238 29.033 185.944 31.049 185.944 31.049L184.393 32.599M31.146 9.624C31.146 8.317 30.115 7.23 28.825 7.23 27.517 7.23 26.522 8.317 26.522 9.624 26.522 10.932 27.517 12.019 28.825 12.019 30.115 12.019 31.146 10.932 31.146 9.624zM24.054 9.624C24.054 6.972 26.172 4.835 28.825 4.835 31.477 4.835 33.595 6.972 33.595 9.624 33.595 12.277 31.477 14.414 28.825 14.414 26.172 14.414 24.054 12.277 24.054 9.624zM41.099 9.606C41.099 8.243 40.105 7.138 38.742 7.138 37.341 7.138 36.273 8.188 36.273 9.606 36.273 11.024 37.341 12.092 38.742 12.092 40.105 12.092 41.099 10.969 41.099 9.606zM33.909 9.624C33.909 6.364 36.303 4.835 38.384 4.835 39.581 4.835 40.521 5.333 41.129 6.014L41.129 5.019 43.653 5.019 43.653 13.971C43.653 16.569 42.013 18.669 38.9 18.669 36.561 18.669 34.848 17.453 34.111 16.016L36.34 14.763C36.819 15.721 37.666 16.329 38.9 16.329 40.263 16.329 41.129 15.261 41.129 14.064L41.129 13.198C40.521 13.916 39.544 14.414 38.347 14.414 36.395 14.414 33.909 12.866 33.909 9.624zM44.518 5.019L47.023 5.019 47.023 6.051C47.612 5.296 48.515 4.835 49.565 4.835 51.738 4.835 53.046 6.235 53.046 8.612L53.046 14.229 50.486 14.229 50.486 8.943C50.486 7.709 49.915 6.99 48.79 6.99 47.833 6.99 47.041 7.654 47.041 9.201L47.041 14.229 44.518 14.229 44.518 5.019"/>
    <polyline fill="#FFFFFF" points="57.024 11.982 61.869 7.248 57.097 7.248 57.097 5.019 65.257 5.019 65.257 7.285 60.414 12.001 65.349 12.001 65.349 14.229 57.024 14.229 57.024 11.982"/>
    <path fill="#FFFFFF" d="M72.578 9.606C72.578 8.243 71.582 7.138 70.219 7.138 68.82 7.138 67.752 8.188 67.752 9.606 67.752 11.024 68.82 12.092 70.219 12.092 71.582 12.092 72.578 10.969 72.578 9.606zM65.386 9.624C65.386 6.364 67.781 4.835 69.862 4.835 71.06 4.835 71.999 5.278 72.607 5.922L72.607 5.019 75.13 5.019 75.13 14.229 72.607 14.229 72.607 13.198C71.999 13.916 71.023 14.414 69.826 14.414 67.873 14.414 65.386 12.866 65.386 9.624zM75.996 5.019L78.5 5.019 78.5 6.051C79.09 5.296 79.993 4.835 81.042 4.835 83.216 4.835 84.524 6.235 84.524 8.612L84.524 14.229 81.963 14.229 81.963 8.943C81.963 7.709 81.393 6.99 80.269 6.99 79.311 6.99 78.519 7.654 78.519 9.201L78.519 14.229 75.996 14.229 75.996 5.019"/>
    <polygon fill="#FFFFFF" points="53.825 14.226 56.348 14.226 56.348 5.016 53.825 5.016"/>
    <polygon fill="#FFFFFF" points="53.825 4.449 56.349 4.449 56.349 2.177 53.825 2.177"/>
    <path fill="#FFFFFF" d="M90.484 7.282L90.484 5.016 88.752 5.016 88.752 2.177 86.229 2.177 86.229 5.016 84.664 5.016 84.664 7.282 86.229 7.282 86.229 10.229C86.229 13.232 87.187 14.226 90.116 14.226L90.484 14.226 90.484 11.868C88.937 11.868 88.752 11.647 88.752 10.211L88.752 7.282 90.484 7.282M10.956 7.5C10.956 3.484 13.976.592 17.863.592 20.386.592 22.578 1.919 23.757 3.926L21.51 5.363C20.754 3.963 19.576 3.116 17.863 3.116 15.358 3.116 13.498 5.031 13.498 7.5 13.498 9.913 15.339 11.847 17.807 11.847 19.649 11.847 20.939 10.779 21.621 9.341L23.959 10.576C22.781 12.86 20.534 14.407 17.863 14.407 13.7 14.407 10.956 11.331 10.956 7.5"/>
    <polygon fill="#0499EE" points="0 44 2.389 44 2.389 .592 0 .592"/>
  </g>
</svg>
