<svg xmlns="http://www.w3.org/2000/svg"><defs><font id="Cognizant-Icons" horiz-adv-x="1024"><font-face units-per-em="1024" ascent="870.4" descent="-153.6"/><glyph horiz-adv-x="512"/><glyph unicode="" glyph-name="account-group" data-tags="account-group" d="M234.666 490.666H21.333C9.557 490.666 0 481.109 0 469.333v-128c0-46.208 14.336-73.813 42.667-82.432V85.333C42.667 73.557 52.224 64 64 64h128c11.776 0 21.333 9.557 21.333 21.333v173.568c28.288 8.619 42.624 36.224 42.667 82.432v128c0 11.776-9.557 21.333-21.333 21.333zm-21.334-149.333c-.043-42.667-11.861-42.667-21.333-42.667-11.776 0-21.333-9.557-21.333-21.333V106.666H85.333v170.667c0 11.776-9.557 21.333-21.333 21.333-9.515 0-21.333 0-21.333 42.667V448h170.667V341.333zm789.334 149.333H789.333c-11.776 0-21.333-9.557-21.333-21.333v-128c0-46.208 14.336-73.813 42.667-82.432V85.333C810.667 73.557 820.224 64 832 64h128c11.776 0 21.333 9.557 21.333 21.333v173.568c28.288 8.619 42.624 36.224 42.667 82.432v128c0 11.776-9.557 21.333-21.333 21.333zm-21.334-149.333c-.043-42.667-11.861-42.667-21.333-42.667-11.776 0-21.333-9.557-21.333-21.333V106.666h-85.333v170.667c0 11.776-9.557 21.333-21.333 21.333-9.515 0-21.333 0-21.333 42.667V448h170.667V341.333zm-320 149.333H362.665c-11.776 0-21.333-9.557-21.333-21.333V256c0-51.541 36.693-94.592 85.333-104.533v-236.8c0-11.776 9.557-21.333 21.333-21.333h128c11.776 0 21.333 9.557 21.333 21.333v236.8c48.64 9.899 85.333 52.992 85.333 104.533v213.333c0 11.776-9.557 21.333-21.333 21.333zm-21.333-234.667c0-35.285-28.715-64-64-64-11.776 0-21.333-9.557-21.333-21.333V-64.001h-85.333v234.667c0 11.776-9.557 21.333-21.333 21.333-35.285 0-64 28.715-64 64v192h256v-192zm-512 277.334c47.061 0 85.333 38.272 85.333 85.333 0 47.104-38.272 85.333-85.333 85.333s-85.333-38.229-85.333-85.333c0-47.061 38.272-85.333 85.333-85.333zm0 128c23.509 0 42.667-19.157 42.667-42.667s-19.157-42.667-42.667-42.667-42.667 19.157-42.667 42.667c0 23.509 19.157 42.667 42.667 42.667zm768-128c47.061 0 85.333 38.272 85.333 85.333 0 47.104-38.272 85.333-85.333 85.333s-85.333-38.229-85.333-85.333c0-47.061 38.272-85.333 85.333-85.333zm0 128c23.509 0 42.667-19.157 42.667-42.667s-19.157-42.667-42.667-42.667-42.667 19.157-42.667 42.667c0 23.509 19.157 42.667 42.667 42.667zm-384-128c70.571 0 128 57.429 128 128s-57.429 128-128 128-128-57.429-128-128 57.429-128 128-128zm0 213.333c47.061 0 85.333-38.229 85.333-85.333 0-47.061-38.272-85.333-85.333-85.333s-85.333 38.272-85.333 85.333c0 47.104 38.272 85.333 85.333 85.333z"/><glyph unicode="" glyph-name="add-circle" data-tags="add-circle" d="M512 832C241.451 832 21.333 611.883 21.333 341.333S241.45-149.334 512-149.334s490.667 220.117 490.667 490.667S782.55 832 512 832zm0-938.667c-247.04 0-448 200.96-448 448s200.96 448 448 448 448-200.96 448-448-200.96-448-448-448zm256 469.334H533.333v234.667c0 11.776-9.557 21.333-21.333 21.333s-21.333-9.557-21.333-21.333V362.667H256c-11.776 0-21.333-9.557-21.333-21.333s9.557-21.333 21.333-21.333h234.667V85.334c0-11.776 9.557-21.333 21.333-21.333s21.333 9.557 21.333 21.333v234.667H768c11.776 0 21.333 9.557 21.333 21.333s-9.557 21.333-21.333 21.333z"/><glyph unicode="" glyph-name="arrow-box-up" data-tags="arrow-box-up" d="M307.2 234.666h409.6L512 439.466zm695.467 618.667H21.334C8.534 853.333.001 844.8.001 832v-981.333c0-12.8 8.533-21.333 21.333-21.333h981.333c12.8 0 21.333 8.533 21.333 21.333V832c0 12.8-8.533 21.333-21.333 21.333zm-213.334-640V204.8c0-4.266-4.267-4.267-4.267-4.267l-4.267-4.267H247.466c-4.267 4.267-8.533 4.267-12.8 12.8v17.066c0 4.266 4.267 4.267 4.267 8.533l256 256c8.533 8.533 21.333 8.533 29.867 0l256-256s4.267-4.267 4.267-8.533c4.267-8.533 4.267-8.533 4.267-12.8z"/><glyph unicode="" glyph-name="arrow-down" data-tags="arrow-down" d="M0 618.666v8.533c4.267 8.533 12.8 12.8 21.333 12.8h981.333c8.533 0 17.067-4.267 21.333-12.8 0-8.533 0-17.067-4.267-21.333L529.065 51.199c-4.267-4.267-8.533-8.533-17.067-8.533s-12.8 4.267-17.067 8.533L4.264 605.866c-4.267 4.267-4.267 8.533-4.267 12.8zm955.733-21.333H68.266l443.733-499.2 443.733 499.2z"/><glyph unicode="" glyph-name="arrow-down-solid" data-tags="arrow-down-solid" d="M1019.733 605.866 529.066 51.199c-4.267-4.267-8.533-8.533-17.067-8.533s-12.8 4.267-17.067 8.533L4.265 605.866c-4.267 4.267-4.267 12.8-4.267 21.333 4.267 8.533 12.8 12.8 21.333 12.8h981.333c8.533 0 17.067-4.267 21.333-12.8v-8.533c0-4.266 0-8.533-4.267-12.8z"/><glyph unicode="" glyph-name="arrow-left" data-tags="arrow-left" d="M776.533-166.4 221.866 324.267c-4.267 4.267-8.533 8.533-8.533 17.067s4.267 12.8 8.533 17.067l554.667 490.667c4.267 4.267 12.8 4.267 21.333 4.267 8.533-4.267 12.8-12.8 12.8-21.333v-981.333c0-8.533-4.267-17.067-12.8-21.333h-8.533c-4.266 0-8.533 0-12.8 4.267zM268.8 341.333 768-102.4v887.467L268.8 341.334z"/><glyph unicode="" glyph-name="arrow-left-solid" data-tags="arrow-left-solid" d="M776.533-166.4 221.866 324.267c-4.267 4.267-8.533 8.533-8.533 17.067s4.267 12.8 8.533 17.067l554.667 490.667c4.267 4.267 12.8 4.267 21.333 4.267 8.533-4.267 12.8-12.8 12.8-21.333v-981.333c0-8.533-4.267-17.067-12.8-21.333h-8.533c-4.266 0-8.533 0-12.8 4.267z"/><glyph unicode="" glyph-name="arrow-right" data-tags="arrow-right" d="M234.666-170.665h-8.533c-8.533 4.267-12.8 12.8-12.8 21.333v981.333c0 8.533 4.267 17.067 12.8 21.333 8.533 0 17.067 0 21.333-4.267L802.133 358.4c4.267-4.267 8.533-8.533 8.533-17.067s-4.267-12.8-8.533-17.067L247.466-166.401c-4.267-4.267-8.533-4.267-12.8-4.267zm21.333 955.733v-887.467l499.2 443.733-499.2 443.733z"/><glyph unicode="" glyph-name="arrow-solid-right" data-tags="arrow-solid-right" d="M234.667-170.667h-8.533c-8.533 4.267-12.8 12.8-12.8 21.333v981.333c0 8.533 4.267 17.067 12.8 21.333 8.533 0 17.067 0 21.333-4.267l554.667-490.667c4.267-4.267 8.533-8.533 8.533-17.067s-4.267-12.8-8.533-17.067L247.467-166.403c-4.267-4.267-8.533-4.267-12.8-4.267z"/><glyph unicode="" glyph-name="arrow-up" data-tags="arrow-up" d="m4.267 76.8 490.667 554.667c4.267 4.267 8.533 8.533 17.067 8.533s12.8-4.267 17.067-8.533L1019.735 76.8c4.267-4.267 4.267-12.8 4.267-21.333-4.267-8.533-12.8-12.8-21.333-12.8H21.336c-8.533 0-17.067 4.267-21.333 12.8V64c0 4.266 0 8.533 4.267 12.8zM512 584.533 68.267 85.333h887.467l-443.733 499.2z"/><glyph unicode="" glyph-name="arrow-up-solid" data-tags="arrow-up-solid" d="m4.267 76.8 490.667 554.667c4.267 4.267 8.533 8.533 17.067 8.533s12.8-4.267 17.067-8.533L1019.735 76.8c4.267-4.267 4.267-12.8 4.267-21.333-4.267-8.533-12.8-12.8-21.333-12.8H21.336c-8.533 0-17.067 4.267-21.333 12.8V64c0 4.266 0 8.533 4.267 12.8z"/><glyph unicode="" glyph-name="bank-notes" data-tags="bank-notes" d="M1002.667 661.333H21.334C9.558 661.333.001 651.776.001 640V42.667c0-11.776 9.557-21.333 21.333-21.333h981.333c11.776 0 21.333 9.557 21.333 21.333V640c0 11.776-9.557 21.333-21.333 21.333zM981.333 64H42.666v554.667h938.667V64zM512 192c82.347 0 149.333 66.987 149.333 149.333S594.346 490.666 512 490.666s-149.333-66.987-149.333-149.333S429.654 192 512 192zm0 256c58.837 0 106.667-47.872 106.667-106.667S570.838 234.666 512 234.666s-106.667 47.872-106.667 106.667S453.162 448 512 448zm-256 0c0-23.564-19.103-42.667-42.667-42.667S170.666 424.436 170.666 448s19.103 42.667 42.667 42.667S256 471.564 256 448zm597.333-213.333c0-23.564-19.103-42.667-42.667-42.667s-42.667 19.103-42.667 42.667 19.103 42.667 42.667 42.667 42.667-19.103 42.667-42.667zM192 106.667h640c58.837 0 106.667 47.872 106.667 106.667v256c0 58.795-47.829 106.667-106.667 106.667H192c-58.837 0-106.667-47.872-106.667-106.667v-256c0-58.795 47.829-106.667 106.667-106.667zm-64 362.666c0 35.285 28.715 64 64 64h640c35.285 0 64-28.715 64-64v-256c0-35.285-28.715-64-64-64H192c-35.285 0-64 28.715-64 64v256z"/><glyph unicode="" glyph-name="barcode-scan" data-tags="barcode-scan" d="M148.011-85.333H21.334C9.558-85.333.001-75.776.001-64V62.677c0 11.776 9.557 21.333 21.333 21.333s21.333-9.557 21.333-21.333V-42.667h105.344c11.776 0 21.333-9.557 21.333-21.333s-9.557-21.333-21.333-21.333zM21.334 598.657c-11.776 0-21.333 9.557-21.333 21.333v126.677C.001 758.443 9.558 768 21.334 768h126.677c11.776 0 21.333-9.557 21.333-21.333s-9.557-21.333-21.333-21.333H42.667V619.99c0-11.776-9.557-21.333-21.333-21.333zm981.333 0c-11.776 0-21.333 9.557-21.333 21.333v105.344H875.99c-11.776 0-21.333 9.557-21.333 21.333S864.214 768 875.99 768h126.677c11.776 0 21.333-9.557 21.333-21.333V619.99c0-11.776-9.557-21.333-21.333-21.333zm0-683.99H875.99c-11.776 0-21.333 9.557-21.333 21.333s9.557 21.333 21.333 21.333h105.344V62.677c0 11.776 9.557 21.333 21.333 21.333S1024 74.453 1024 62.677V-64c0-11.776-9.557-21.333-21.333-21.333zM128 554.667h42.667V128H128v426.667zm85.334 0h42.667V256h-42.667v298.667zm85.333 0h42.667V256h-42.667v298.667zm128 0h42.667V256h-42.667v298.667zm85.333 0h42.667V256H512v298.667zm85.334 0h42.667V256h-42.667v298.667zm85.333 0h42.667V256h-42.667v298.667zm85.333 0h42.667V256H768v298.667zm85.334 0h42.667V128h-42.667v426.667zM255.915 213.334h-42.581v-42.667h42.581v42.667zm85.333 0h-42.581v-42.667h42.581v42.667zm128 0h-42.581v-42.667h42.581v42.667zm85.334 0h-42.581v-42.667h42.581v42.667zm85.333 0h-42.581v-42.667h42.581v42.667zm85.333 0h-42.581v-42.667h42.581v42.667zm85.334 0h-42.581v-42.667h42.581v42.667z"/><glyph unicode="" glyph-name="bin" data-tags="bin" d="M981.333 725.333H682.666V832c0 11.776-9.557 21.333-21.333 21.333H320c-11.776 0-21.333-9.557-21.333-21.333V725.333h-256c-11.776 0-21.333-9.557-21.333-21.333s9.557-21.333 21.333-21.333H128v-832c0-11.776 9.557-21.333 21.333-21.333H832c11.776 0 21.333 9.557 21.333 21.333v832h128c11.776 0 21.333 9.557 21.333 21.333s-9.557 21.333-21.333 21.333zm-640 85.333H640v-85.333H341.333v85.333zM810.667-128h-640v810.667h640V-128zM320 576c-11.776 0-21.333-9.557-21.333-21.333v-512c0-11.776 9.557-21.333 21.333-21.333s21.333 9.557 21.333 21.333v512c0 11.776-9.557 21.333-21.333 21.333zm170.667 0c-11.776 0-21.333-9.557-21.333-21.333v-512c0-11.776 9.557-21.333 21.333-21.333S512 30.891 512 42.667v512c0 11.776-9.557 21.333-21.333 21.333zM640 554.666v-512c0-11.776 9.557-21.333 21.333-21.333s21.333 9.557 21.333 21.333v512c0 11.776-9.557 21.333-21.333 21.333S640 566.442 640 554.666z"/><glyph unicode="" glyph-name="bluetooth" data-tags="bluetooth" d="m805.931 591.125-258.261 256c-13.312 13.269-36.352 3.84-36.352-15.147V392.682L248.449 634.346a21.37 21.37 0 0 1-30.165-1.28c-7.979-8.704-7.424-22.187 1.237-30.165l284.331-261.376L218.497 79.68c-8.704-7.979-9.259-21.461-1.28-30.165 8.021-8.747 21.547-9.216 30.123-1.323l264.021 242.261v-439.808c0-19.157 23.125-28.373 36.352-15.147l258.261 256c8.789 8.704 8.235 22.741-.555 30.848L566.998 341.525l238.379 218.709c8.875 8.235 9.301 22.272.555 30.891zm-45.909-485.077L553.985-98.197v393.685l206.037-189.44zM553.984 387.52v393.259l205.995-204.203L553.984 387.52z"/><glyph unicode="" glyph-name="book-open" data-tags="book-open" d="M949.888 762.709c-6.272 3.883-14.123 4.309-20.736.939L512 555.093 94.891 763.648c-6.656 3.285-14.464 2.944-20.779-.939C67.84 758.826 64 751.914 64 744.576V83.243c0-8.107 4.565-15.445 11.776-19.072l426.667-213.333c.171-.085.427-.043.597-.128 2.731-1.28 5.717-2.091 8.96-2.091s6.229.853 8.96 2.091c.171.085.427.043.597.128L948.224 64.171C955.435 67.755 960 75.136 960 83.243v661.333c0 7.339-3.84 14.251-10.112 18.133zm-843.222-52.651 384-192V-95.574l-384 192v613.632zM917.333 96.426l-384-192v613.632l384 192V96.426zM160.981 790.57l341.333-172.715c2.987-1.536 6.315-2.304 9.643-2.304s6.613.768 9.643 2.304L862.933 790.57c10.496 5.333 14.763 18.176 9.429 28.672-5.333 10.581-18.219 14.805-28.672 9.429L511.999 660.778 180.266 828.629c-10.496 5.376-23.381 1.152-28.672-9.387-5.333-10.539-1.109-23.339 9.387-28.672z"/><glyph unicode="" glyph-name="bookmark" data-tags="bookmark" d="M1016.725 228.8 397.717 848.149a21.486 21.486 0 0 1-15.104 6.229H20.288c-11.819 0-21.333-9.643-21.333-21.333l.341-362.411a21.486 21.486 0 0 1 6.229-15.104L624.49-163.393c8.32-8.32 21.845-8.32 30.165 0l362.027 361.984c8.363 8.363 8.363 21.888.043 30.208zM639.594-118.122 41.962 479.467l-.341 332.245h332.16l597.675-598.016-331.861-331.819zM233.621 726.379c-58.837 0-106.667-47.829-106.667-106.667s47.829-106.667 106.667-106.667 106.667 47.829 106.667 106.667-47.829 106.667-106.667 106.667zm0-170.667c-35.285 0-64 28.715-64 64s28.715 64 64 64 64-28.715 64-64-28.715-64-64-64z"/><glyph unicode="" glyph-name="box" data-tags="box" d="M1024.001 618.176v.171c0 .171-.128.341-.128.555-.085 2.987-.896 5.888-2.219 8.576-.427.896-1.024 1.664-1.579 2.517a20.585 20.585 0 0 1-4.523 4.907c-.555.384-.811 1.067-1.323 1.408-.427.256-.939.213-1.365.469-.597.341-.981.896-1.664 1.152L520.533 851.264a21.013 21.013 0 0 1-16.981 0L12.885 637.931c-.725-.299-1.152-.896-1.835-1.28-.512-.299-1.109-.256-1.536-.555-.555-.341-.768-.981-1.28-1.408-1.749-1.408-3.2-2.987-4.352-4.821-.597-.853-1.195-1.579-1.579-2.475-1.28-2.645-2.048-5.504-2.176-8.491 0-.213-.128-.384-.128-.555V63.679A21.338 21.338 0 0 1 13.14 43.967l512-213.333a21.732 21.732 0 0 1 8.192-1.621c2.987 0 6.016.597 8.832 1.92l469.333 213.333a21.28 21.28 0 0 1 12.501 19.413v554.496zm-512 190.208 438.187-190.507-169.813-77.184-422.272 200.789 153.899 66.901zm20.949-380.118L75.777 618.73l230.357 100.181L729.473 517.61 532.95 428.266zM42.668 586.346l469.333-195.541v-508.459L42.668 77.887v508.459zm938.666-508.97-426.667-193.92v507.819l426.667 193.92V77.376zM414.892 317.418l-256 128a21.243 21.243 0 0 1-20.736-.939 21.298 21.298 0 0 1-10.155-18.133V213.013c0-8.107 4.565-15.445 11.776-19.072l256-128c3.029-1.493 6.315-2.261 9.557-2.261 3.925 0 7.808 1.067 11.221 3.2a21.354 21.354 0 0 1 10.112 18.133v213.333c0 8.064-4.565 15.445-11.776 19.072zM384.001 119.53 170.668 226.197v165.632l213.333-106.667V119.53z"/><glyph unicode="" glyph-name="bubble-chat-typing" data-tags="bubble-chat-typing" d="M960 767.999H64c-35.285 0-64-28.715-64-64V149.332c0-35.285 28.715-64 64-64h64V-64.001c0-8.619 5.205-16.427 13.184-19.712 2.645-1.067 5.419-1.621 8.149-1.621a21.497 21.497 0 0 1 15.104 6.229L328.874 85.332h631.125c35.285 0 64 28.715 64 64v554.667c0 35.285-28.715 64-64 64zm21.333-618.667c0-11.733-9.557-21.333-21.333-21.333H320a21.486 21.486 0 0 1-15.104-6.229L170.667-12.502v119.168c0 11.776-9.557 21.333-21.333 21.333H64.001c-11.776 0-21.333 9.6-21.333 21.333v554.667c0 11.733 9.557 21.333 21.333 21.333h896c11.776 0 21.333-9.6 21.333-21.333V149.332zm-618.666 320c-23.509 0-42.667-19.115-42.667-42.667s19.157-42.667 42.667-42.667 42.667 19.115 42.667 42.667-19.157 42.667-42.667 42.667zm0-42.667zM704 469.332c-23.509 0-42.667-19.115-42.667-42.667S680.49 383.998 704 383.998s42.667 19.115 42.667 42.667S727.51 469.332 704 469.332zm0-42.667zm-170.667 42.667c-23.509 0-42.667-19.115-42.667-42.667s19.157-42.667 42.667-42.667S576 403.113 576 426.665s-19.157 42.667-42.667 42.667zm0-42.667z"/><glyph unicode="" glyph-name="calendar" data-tags="calendar" d="M1002.665 768H853.332v64c0 11.776-9.557 21.333-21.333 21.333h-128c-11.776 0-21.333-9.557-21.333-21.333v-64H341.333v64c0 11.776-9.557 21.333-21.333 21.333H192c-11.776 0-21.333-9.557-21.333-21.333v-64H21.334C9.558 768 .001 758.443.001 746.667v-896c0-11.776 9.557-21.333 21.333-21.333h981.333c11.776 0 21.333 9.557 21.333 21.333v896c0 11.776-9.557 21.333-21.333 21.333zm-277.334 42.666h85.333v-128h-85.333v128zm-512 0h85.333v-128h-85.333v128zm-42.666-85.333v-64c0-11.776 9.557-21.333 21.333-21.333h128c11.776 0 21.333 9.557 21.333 21.333v64h341.333v-64c0-11.776 9.557-21.333 21.333-21.333h128c11.776 0 21.333 9.557 21.333 21.333v64h128V554.666H42.663v170.667h128zM42.665-128v640h938.667v-640H42.665zm874.666 469.333c11.776 0 21.333 9.557 21.333 21.333s-9.557 21.333-21.333 21.333h-192v64c0 11.776-9.557 21.333-21.333 21.333s-21.333-9.557-21.333-21.333v-64H511.998v64c0 11.776-9.557 21.333-21.333 21.333s-21.333-9.557-21.333-21.333v-64H298.665v64c0 11.776-9.557 21.333-21.333 21.333s-21.333-9.557-21.333-21.333v-64H106.666c-11.776 0-21.333-9.557-21.333-21.333s9.557-21.333 21.333-21.333h149.333v-128H106.666c-11.776 0-21.333-9.557-21.333-21.333s9.557-21.333 21.333-21.333h149.333v-128H106.666c-11.776 0-21.333-9.557-21.333-21.333S94.89.001 106.666.001h149.333v-64c0-11.776 9.557-21.333 21.333-21.333s21.333 9.557 21.333 21.333v64h170.667v-64c0-11.776 9.557-21.333 21.333-21.333s21.333 9.557 21.333 21.333v64h170.667v-64c0-11.776 9.557-21.333 21.333-21.333s21.333 9.557 21.333 21.333v64h192c11.776 0 21.333 9.557 21.333 21.333s-9.557 21.333-21.333 21.333h-192v128h192c11.776 0 21.333 9.557 21.333 21.333s-9.557 21.333-21.333 21.333h-192v128h192zm-618.666 0h170.667v-128H298.665v128zm0-298.667v128h170.667v-128H298.665zm384 0H511.998v128h170.667v-128zm0 170.667H511.998v128h170.667v-128z"/><glyph unicode="" glyph-name="camera" data-tags="camera" d="M914.942 597.333h-69.589c-2.133 4.48-4.267 9.045-6.4 13.653-25.045 53.589-53.419 114.347-113.621 114.347H511.999c-45.696 0-69.76-33.152-113.408-93.397-7.595-10.539-15.957-22.059-25.301-34.603H255.999v21.333c0 34.091-31.019 64-66.389 64h-40.277c-34.048 0-62.805-29.312-62.805-63.403l-.64-23.552C16.085 587.946 0 541.994 0 502.484V59.263C0-5.548 39.765-42.668 109.056-42.668h805.931C984.235-42.668 1024-5.548 1024 59.263v443.221c0 43.264-18.901 94.848-109.056 94.848zM149.331 640h40.277c11.776 0 23.723-10.752 23.723-21.333v-21.333h-84.693l.597 21.333c-.043 10.752 9.941 21.333 20.096 21.333zm832-580.736C981.331 18.261 960.851 0 914.942 0H109.054C63.145 0 42.665 18.261 42.665 59.264v443.221c0 31.317 10.88 52.181 64 52.181h277.333c6.699 0 13.056 3.157 17.067 8.533 12.117 16.128 22.656 30.677 32.085 43.691 40.789 56.277 56.064 75.776 78.848 75.776h213.333c33.024 0 54.315-45.611 74.923-89.771 4.224-9.045 8.405-18.005 12.629-26.453 3.669-7.211 11.051-11.776 19.115-11.776h82.944c61.269 0 66.389-25.771 66.389-52.181V59.264zM618.665 554.666c-141.184 0-256-114.816-256-256s114.816-256 256-256 256 114.816 256 256-114.816 256-256 256zm0-469.333c-117.632 0-213.333 95.701-213.333 213.333s95.701 213.333 213.333 213.333 213.333-95.701 213.333-213.333S736.297 85.333 618.665 85.333zm0 362.667c-82.347 0-149.333-66.987-149.333-149.333s66.987-149.333 149.333-149.333 149.333 66.987 149.333 149.333S701.011 448 618.665 448zm0-256c-58.795 0-106.667 47.872-106.667 106.667s47.872 106.667 106.667 106.667 106.667-47.872 106.667-106.667S677.46 192 618.665 192zm-448 320c-47.061 0-85.333-38.272-85.333-85.333s38.272-85.333 85.333-85.333 85.333 38.272 85.333 85.333S217.726 512 170.665 512zm0-128c-23.509 0-42.667 19.157-42.667 42.667s19.157 42.667 42.667 42.667 42.667-19.157 42.667-42.667S194.175 384 170.665 384z"/><glyph unicode="" glyph-name="check-box" data-tags="check-box" d="M972.075 799.253c-9.216 7.424-22.613 5.973-29.995-3.2L423.637 153.194 227.114 349.717c-8.32 8.32-21.845 8.32-30.165 0-8.32-8.363-8.32-21.845 0-30.165l213.333-213.333c8.875-8.875 23.68-8.277 31.701 1.707l533.333 661.333c7.339 9.173 5.931 22.571-3.243 29.995zM830.678 409.322c-11.776 0-21.333-9.557-21.333-21.333V-81.344H84.012v725.333h512c11.776 0 21.333 9.557 21.333 21.333s-9.557 21.333-21.333 21.333H62.679c-11.776 0-21.333-9.557-21.333-21.333v-768c0-11.776 9.557-21.333 21.333-21.333h768c11.776 0 21.333 9.557 21.333 21.333v490.667c0 11.776-9.557 21.333-21.333 21.333z"/><glyph unicode="" glyph-name="check-circle" data-tags="check-circle" d="M1014.699 847.252c-9.173 7.424-22.613 5.973-29.995-3.243L380.971 94.526 184.448 291.049c-8.32 8.32-21.845 8.32-30.165 0s-8.32-21.845 0-30.165L367.616 47.551c8.875-8.917 23.68-8.277 31.701 1.707l618.667 768c7.339 9.173 5.931 22.613-3.285 29.995zM773.59 339.732c-11.477-2.645-18.688-14.08-16.043-25.557 6.059-26.539 9.131-53.76 9.131-80.853 0-199.979-162.688-362.667-362.667-362.667S41.344 33.343 41.344 233.322c0 199.979 162.688 362.667 362.667 362.667 56.576 0 110.805-12.715 161.195-37.675 10.539-5.291 23.339-.939 28.587 9.643 5.248 10.539.939 23.339-9.643 28.544-56.32 27.947-116.949 42.155-180.139 42.155-223.488 0-405.333-181.845-405.333-405.333S180.523-172.01 404.011-172.01 809.344 9.835 809.344 233.323c0 30.293-3.456 60.715-10.197 90.368-2.645 11.477-14.08 18.773-25.557 16.043z"/><glyph unicode="" glyph-name="check-circle-2" data-tags="check-circle-2" d="M710.784 506.24 405.888 221.653l-92.117 92.075c-8.32 8.32-21.845 8.32-30.165 0s-8.32-21.845 0-30.165l106.667-106.667c8.107-8.107 21.205-8.363 29.653-.512l320 298.667c8.619 8.021 9.045 21.547 1.024 30.165-8.064 8.619-21.547 9.088-30.165 1.024zM512 853.333c-282.325 0-512-229.675-512-512s229.675-512 512-512 512 229.675 512 512-229.675 512-512 512zM512-128C253.227-128 42.667 82.517 42.667 341.333c0 258.773 210.56 469.333 469.333 469.333s469.333-210.56 469.333-469.333C981.333 82.517 770.773-128 512-128z"/><glyph unicode="" glyph-name="clock" data-tags="clock" d="M512-170.667c-282.325 0-512 229.675-512 512s229.675 512 512 512 512-229.675 512-512-229.675-512-512-512zm0 981.333c-258.773 0-469.333-210.56-469.333-469.333C42.667 82.517 253.227-128 512-128S981.333 82.517 981.333 341.333c0 258.773-210.56 469.333-469.333 469.333zM732.245 90.922l-256 234.667a21.447 21.447 0 0 0-6.912 15.744V576c0 11.776 9.557 21.333 21.333 21.333s21.333-9.557 21.333-21.333V350.72l249.088-228.309c8.704-7.979 9.259-21.461 1.323-30.165-8.021-8.704-21.461-9.259-30.165-1.323z"/><glyph unicode="" glyph-name="clock-2" data-tags="clock-2" d="M640 341.333H512v213.333c0 11.776-9.557 21.333-21.333 21.333s-21.333-9.557-21.333-21.333V319.999c0-11.776 9.557-21.333 21.333-21.333H640c11.776 0 21.333 9.557 21.333 21.333s-9.557 21.333-21.333 21.333zm192 512H192c-105.856 0-192-86.144-192-192v-640c0-105.899 86.144-192 192-192h640c105.856 0 192 86.101 192 192v640c0 105.856-86.144 192-192 192zm149.333-832C981.333-61.014 914.346-128 832-128H192C109.653-128 42.667-61.013 42.667 21.333v640c0 82.347 66.987 149.333 149.333 149.333h640c82.347 0 149.333-66.987 149.333-149.333v-640zM512 725.333c-211.712 0-384-172.288-384-384s172.288-384 384-384 384 172.288 384 384-172.288 384-384 384zM512 0C323.797 0 170.667 153.131 170.667 341.333S323.798 682.666 512 682.666s341.333-153.131 341.333-341.333S700.202 0 512 0z"/><glyph unicode="" glyph-name="close" data-tags="close" d="m542.165 341.333 475.605 475.563c8.32 8.32 8.32 21.845 0 30.165s-21.845 8.32-30.165 0L512 371.498 36.437 847.103c-8.32 8.32-21.845 8.32-30.165 0s-8.32-21.845 0-30.165l475.563-475.605L6.23-134.23c-8.32-8.32-8.32-21.845 0-30.165s21.845-8.32 30.165 0L512 311.168l475.563-475.605c8.32-8.32 21.845-8.32 30.165 0s8.32 21.845 0 30.165L542.165 341.333z"/><glyph unicode="" glyph-name="cloud" data-tags="cloud" d="M794.795 490.368C739.712 594.688 630.187 661.333 512 661.333c-161.152 0-296.149-120.277-316.885-277.845C90.582 391.893 0 307.371 0 202.667 0 76.032 100.181 21.334 191.531 21.334l621.867.171c2.133.299 210.603 29.781 210.603 234.496 0 127.616-102.357 231.765-229.205 234.368zM810.667 64H191.531c-15.232 0-148.864 3.883-148.864 138.667 0 85.931 78.421 153.941 167.253 135.765 13.013-2.603 24.832 6.741 25.643 19.627C244.182 504.15 365.611 618.667 512 618.667c106.368 0 204.672-62.336 250.368-158.848 5.547-11.733 15.573-12.331 27.477-12.032 105.557 0 191.488-86.016 191.488-191.787 0-166.912-166.357-191.232-170.667-192z"/><glyph unicode="" glyph-name="cog" data-tags="cog" d="M1002.665 426.664H880.852c-8.491 33.707-19.371 71.125-33.152 99.499l86.699 86.699c4.011 4.011 6.229 9.429 6.229 15.104s-2.261 11.093-6.229 15.104L813.652 763.689c-8.32 8.363-21.845 8.363-30.165 0l-86.741-86.699c-28.331 13.781-65.749 24.661-99.413 33.152v121.856c0 11.776-9.557 21.333-21.333 21.333H448c-11.776 0-21.333-9.557-21.333-21.333V710.142c-33.707-8.491-71.125-19.371-99.456-33.152l-86.741 86.699c-8.32 8.363-21.845 8.363-30.165 0L89.601 643.028c-4.011-4.011-6.272-9.429-6.272-15.104s2.261-11.051 6.272-15.061l86.741-86.784c-13.739-28.245-24.661-65.707-33.237-99.413H21.334c-11.776 0-21.333-9.557-21.333-21.333v-128C.001 265.557 9.558 256 21.334 256h121.771c8.576-33.749 19.456-71.168 33.195-99.499L89.601 69.76c-4.011-3.968-6.229-9.387-6.229-15.061s2.261-11.093 6.229-15.104L210.305-81.066c8.021-8.021 22.187-8.021 30.165 0l86.699 86.784c28.331-13.824 65.749-24.704 99.499-33.28v-121.771c0-11.776 9.557-21.333 21.333-21.333h128c11.776 0 21.333 9.557 21.333 21.333v121.771c33.749 8.576 71.168 19.456 99.413 33.195l86.784-86.699c8.32-8.32 21.845-8.32 30.165 0L934.357 39.595c8.32 8.32 8.32 21.845 0 30.165l-86.699 86.741c13.739 28.288 24.661 65.749 33.195 99.499h121.813c11.776 0 21.333 9.557 21.333 21.333v128c0 11.776-9.557 21.333-21.333 21.333zm-21.334-128H864.168c-9.856 0-18.432-6.784-20.736-16.299-5.76-23.808-21.077-87.083-40.32-118.528-5.12-8.405-3.84-19.243 3.115-26.197l82.859-82.901-90.496-90.496-82.944 82.859c-7.04 7.04-17.877 8.277-26.197 3.115-31.445-19.243-94.677-34.56-118.485-40.32-9.557-2.347-16.299-10.88-16.299-20.736v-117.163h-85.333v117.163c0 9.856-6.741 18.389-16.299 20.736-23.808 5.76-87.04 21.077-118.528 40.32-8.448 5.205-19.243 3.883-26.24-3.072l-82.859-82.944-90.581 90.496 82.901 82.901c6.997 6.955 8.235 17.792 3.115 26.197-19.243 31.445-34.56 94.72-40.32 118.528-2.261 9.557-10.837 16.341-20.693 16.341H42.665v85.333h117.163c9.856 0 18.432 6.741 20.736 16.299 5.76 23.808 21.077 87.04 40.32 118.485a21.418 21.418 0 0 1-3.115 26.24l-82.944 82.901 90.539 90.539 82.901-82.859c7.04-6.997 17.792-8.277 26.197-3.157 31.659 19.328 94.763 34.517 118.528 40.235a21.312 21.312 0 0 1 16.341 20.736v117.248h85.333V693.416a21.312 21.312 0 0 1 16.341-20.736c37.291-8.96 90.069-22.912 118.485-40.235 8.363-5.12 19.157-3.84 26.197 3.115l82.901 82.859 90.539-90.539-82.859-82.859c-6.955-6.955-8.235-17.792-3.115-26.155 19.328-31.701 34.56-94.805 40.277-118.571 2.261-9.557 10.837-16.299 20.693-16.299h117.205v-85.333zm-469.333 256c-117.632 0-213.333-95.701-213.333-213.333s95.701-213.333 213.333-213.333 213.333 95.701 213.333 213.333-95.701 213.333-213.333 213.333zm0-384c-94.123 0-170.667 76.544-170.667 170.667s76.544 170.667 170.667 170.667 170.667-76.544 170.667-170.667-76.544-170.667-170.667-170.667z"/><glyph unicode="" glyph-name="computer-bug" data-tags="computer-bug" d="M278.508 492.843a21.508 21.508 0 0 1 5.376-16.469 21.419 21.419 0 0 1 15.829-6.997h424.491c6.059 0 11.776 2.56 15.829 6.997a21.186 21.186 0 0 1 5.376 16.469c-6.997 69.76-45.909 130.005-100.651 168.235 27.648 36.181 59.179 80 59.435 128.171l.171 42.709c.043 11.776-9.472 21.376-21.248 21.419h-.043c-11.776 0-21.333-9.515-21.376-21.248l-.171-42.709c-.213-36.011-28.459-73.557-54.144-106.965-29.44 13.44-61.568 21.589-95.403 21.589s-65.963-8.149-95.403-21.589c-25.6 33.451-53.547 70.912-53.76 106.88l-.171 42.709c-.043 11.733-9.6 21.248-21.333 21.248h-.085c-11.776-.043-21.291-9.643-21.248-21.419l.171-42.709c.256-48.085 31.445-91.904 59.093-128.043-54.827-38.229-93.739-98.475-100.736-168.277zM511.98 661.376c89.387 0 167.424-63.915 187.179-149.333H324.802c19.755 85.419 97.792 149.333 187.179 149.333zm266.666-405.418c45.44 0 78.677-33.621 113.835-69.248l9.771-9.813c4.139-4.181 9.6-6.272 15.061-6.272s10.923 2.091 15.104 6.229c8.32 8.277 8.32 21.803 0 30.165l-9.6 9.685c-39.765 40.277-80.896 81.92-144.171 81.92h-32v85.333h32c45.44 0 78.677-33.621 113.835-69.248l9.771-9.813c4.139-4.181 9.6-6.272 15.061-6.272s10.923 2.091 15.104 6.229c8.32 8.277 8.32 21.803 0 30.165l-9.6 9.685c-39.765 40.277-80.896 81.92-144.171 81.92h-52.907c-.171 0-.256.085-.427.085H298.645c-.171 0-.256-.085-.427-.085h-52.907c-63.147 0-104.149-41.472-143.787-81.579l-9.941-10.027c-8.32-8.32-8.32-21.845 0-30.165 4.139-4.139 9.6-6.229 15.061-6.229s10.923 2.091 15.104 6.229l10.112 10.155c36.523 36.992 68.096 68.949 113.451 68.949h32v-85.333h-32c-63.147 0-104.149-41.472-143.787-81.579l-9.941-10.027c-8.32-8.32-8.32-21.845 0-30.165 4.139-4.139 9.6-6.229 15.061-6.229s10.923 2.091 15.104 6.229l10.112 10.155c36.523 36.992 68.096 68.949 113.451 68.949h32v-85.333h-32c-63.147 0-104.149-41.472-143.787-81.579l-9.941-10.027c-8.32-8.32-8.32-21.845 0-30.165 4.139-4.139 9.6-6.229 15.061-6.229s10.923 2.091 15.104 6.229l10.112 10.155c36.523 36.992 68.096 68.949 113.451 68.949h34.091C300.223 3.625 489.663-158.423 498.197-165.676c3.968-3.371 8.875-5.035 13.781-5.035s9.813 1.664 13.781 5.035c8.533 7.253 197.973 169.301 218.795 293.632h34.091c45.44 0 78.677-33.621 113.835-69.248l9.771-9.813c4.139-4.181 9.6-6.272 15.061-6.272s10.923 2.091 15.104 6.229c8.32 8.277 8.32 21.803 0 30.165l-9.6 9.685c-39.765 40.277-80.896 81.92-144.171 81.92h-32v85.333h32zM511.98-121.088c-64.213 57.301-192 188.245-192 270.379v234.752h384V149.291c0-82.048-127.787-213.035-192-270.379z"/><glyph unicode="" glyph-name="computer-screen" data-tags="computer-screen" d="M960 746.666H64c-35.285 0-64-28.715-64-64V127.999c0-35.285 28.715-64 64-64h362.667v-85.333h-128c-11.776 0-21.333-9.557-21.333-21.333S286.891-64 298.667-64h426.667c11.776 0 21.333 9.557 21.333 21.333s-9.557 21.333-21.333 21.333h-128v85.333h362.667c35.285 0 64 28.715 64 64v554.667c0 35.285-28.715 64-64 64zm-405.333-768h-85.333v85.333h85.333v-85.333zm426.666 149.333c0-11.733-9.557-21.333-21.333-21.333H64c-11.776 0-21.333 9.6-21.333 21.333v554.667c0 11.733 9.557 21.333 21.333 21.333h896c11.776 0 21.333-9.6 21.333-21.333V127.999zm-64 533.333H106.666c-11.776 0-21.333-9.557-21.333-21.333V170.666c0-11.776 9.557-21.333 21.333-21.333h810.667c11.776 0 21.333 9.557 21.333 21.333v469.333c0 11.776-9.557 21.333-21.333 21.333zM896 191.999H128v426.667h768V191.999z"/><glyph unicode="" glyph-name="credit-card" data-tags="credit-card" d="M917.333 661.333H106.666c-58.837 0-106.667-47.872-106.667-106.667V127.999c0-58.795 47.829-106.667 106.667-106.667h810.667C976.17 21.332 1024 69.204 1024 127.999v426.667c0 58.795-47.829 106.667-106.667 106.667zm-810.666-42.667h810.667c35.285 0 64-28.715 64-64v-64H42.667v64c0 35.285 28.715 64 64 64zM917.333 63.999H106.666c-35.285 0-64 28.715-64 64v320h938.667v-320c0-35.285-28.715-64-64-64zm-42.666 298.667h-128c-11.776 0-21.333-9.557-21.333-21.333S734.891 320 746.667 320h128c11.776 0 21.333 9.557 21.333 21.333s-9.557 21.333-21.333 21.333zm-384 0H149.334c-11.776 0-21.333-9.557-21.333-21.333S137.558 320 149.334 320h341.333c11.776 0 21.333 9.557 21.333 21.333s-9.557 21.333-21.333 21.333zm-213.334-85.333h-128C137.557 277.333 128 267.776 128 256s9.557-21.333 21.333-21.333h128c11.776 0 21.333 9.557 21.333 21.333s-9.557 21.333-21.333 21.333z"/><glyph unicode="" glyph-name="download" data-tags="download" d="M165.076-149.334h693.845c79.232 0 143.744 64.469 143.744 143.744v81.621c0 11.776-9.557 21.333-21.333 21.333s-21.333-9.557-21.333-21.333V-5.59c0-55.723-45.312-101.077-101.077-101.077H165.077C109.312-106.667 64-61.312 64-5.59v81.621c0 11.776-9.557 21.333-21.333 21.333s-21.333-9.515-21.333-21.333V-5.59c0-79.275 64.512-143.744 143.744-143.744zm346.923 981.333c-11.776 0-21.333-9.557-21.333-21.333V132.223L228.437 394.452c-8.32 8.32-21.845 8.32-30.165 0s-8.32-21.845 0-30.165L496.896 65.62c8.107-8.107 21.717-8.576 30.251 0l298.624 298.667c8.32 8.32 8.32 21.845 0 30.165s-21.845 8.32-30.165 0L533.334 132.223v678.443c0 11.776-9.557 21.333-21.333 21.333z"/><glyph unicode="" glyph-name="email" data-tags="email" d="M896 661.333H128c-47.061 0-85.333-38.229-85.333-85.333V106.667c0-47.061 38.272-85.333 85.333-85.333h768c47.061 0 85.333 38.272 85.333 85.333V576c0 47.104-38.272 85.333-85.333 85.333zm0-42.666c2.432 0 4.48-.981 6.784-1.365L512 304.641 121.216 617.302c2.304.384 4.352 1.365 6.784 1.365h768zm42.667-512C938.667 83.158 919.51 64 896 64H128c-23.509 0-42.667 19.157-42.667 42.667V576c0 4.651 1.28 8.96 2.645 13.184l410.667-328.533C502.57 257.579 507.306 256 512 256s9.429 1.579 13.312 4.651l410.667 328.533c1.408-4.224 2.688-8.533 2.688-13.184V106.667z"/><glyph unicode="" glyph-name="expand" data-tags="expand" d="M64-21.334h896c35.285 0 64 28.715 64 64v597.333c0 35.285-28.715 64-64 64H64c-35.285 0-64-28.715-64-64V42.666c0-35.285 28.715-64 64-64zm-21.333 64v170.667c0 11.776 9.557 21.333 21.333 21.333h320v-192c0-11.776-9.557-21.333-21.333-21.333H64c-11.776 0-21.333 9.557-21.333 21.333zM64 661.333h896c11.776 0 21.333-9.557 21.333-21.333V42.667c0-11.776-9.557-21.333-21.333-21.333H422.741c2.389 6.699 3.925 13.824 3.925 21.333V256c0 11.776-9.557 21.333-21.333 21.333H64c-7.509 0-14.635-1.536-21.333-3.925V640c0 11.776 9.557 21.333 21.333 21.333z"/><glyph unicode="" glyph-name="file-acrobat" data-tags="file-acrobat" d="M937.003 584.192a20.08 20.08 0 0 1-4.608 6.869l-255.957 256a21.668 21.668 0 0 1-6.912 4.565 20.57 20.57 0 0 1-8.192 1.707H106.667c-11.776 0-21.333-9.557-21.333-21.333v-981.333c0-11.776 9.557-21.333 21.333-21.333h810.667c11.776 0 21.333 9.557 21.333 21.333V576c0 2.816-.597 5.632-1.664 8.192zM682.667 780.501l183.168-183.168H682.667v183.168zM128-128v938.667h512V576c0-11.776 9.557-21.333 21.333-21.333H896V-128H128zm585.387 450.773c-58.24 2.133-114.987-5.376-171.349-22.528-40.149 21.504-77.483 48.427-111.189 80.213-8.917 83.2-30.08 145.195-36.48 162.603-8.363 22.528-26.24 35.968-47.829 35.968-20.864 0-41.472-12.715-52.523-32.384-11.563-20.48-10.752-44.416 2.176-65.749 27.264-44.843 58.752-85.205 93.696-120.107 4.053-47.872 2.731-93.184-3.925-134.955-68.821-45.696-109.995-92.075-124.843-110.293-16.171-19.968-19.925-42.965-10.325-63.104 9.728-20.395 32.256-34.091 56.107-34.091 20.48 0 39.552 9.984 52.309 27.477 31.701 43.52 53.717 95.317 65.493 154.155 36.565 22.699 74.709 40.917 113.621 54.229 69.12-34.005 132.821-47.275 174.805-52.437 36.779-4.267 63.061 20.523 63.701 55.979.555 31.104-21.077 63.403-63.445 65.024zM332.629 503.082c-4.864 8.021-5.376 15.659-1.451 22.613 3.883 6.869 10.795 10.667 15.317 10.667 1.323 0 4.821 0 7.808-8.107 4.352-11.648 15.744-44.885 24.96-91.776-16.683 20.736-32.256 42.965-46.635 66.603zm-7.936-432.085c-9.941-13.739-30.208-11.093-35.413-.213-2.901 6.144 1.067 13.056 4.949 17.835 10.581 12.971 35.755 41.6 76.501 73.643-11.093-33.92-26.539-64.469-46.037-91.264zm107.776 182.912c1.963 21.547 2.731 43.733 2.261 66.56a556.581 556.581 0 0 1 54.827-39.083c-19.328-8.064-38.357-17.237-57.088-27.477zm288.768-9.984-2.944.171c-28.757 3.541-68.608 11.264-113.408 27.861 35.499 6.784 70.656 9.728 106.837 8.149 21.675-.811 22.443-18.133 22.4-21.632-.085-4.352-1.493-14.549-12.885-14.549z"/><glyph unicode="" glyph-name="file-favorite-star" data-tags="file-favorite-star" d="M1010.986 157.354c-3.072 8.405-11.093 14.08-20.053 14.08H854.826l-79.104 158.848c-7.253 14.464-30.976 14.464-38.229 0l-79.104-158.848H521.6a21.262 21.262 0 0 1-20.053-14.123c-3.072-8.448-.469-17.92 6.443-23.637l117.376-97.323-59.989-178.133a21.25 21.25 0 0 1 7.339-23.808 21.203 21.203 0 0 1 24.917-.64L756.566-57.601l158.293-108.587a21.606 21.606 0 0 1 12.075-3.712c4.523 0 9.045 1.451 12.843 4.309a21.25 21.25 0 0 1 7.381 23.808L887.766 36.393l116.821 97.323c6.912 5.717 9.472 15.189 6.4 23.637zM849.28 59.818c-6.741-5.632-9.344-14.805-6.571-23.168l43.904-131.669-117.931 80.896c-3.627 2.517-7.851 3.755-12.075 3.755s-8.405-1.237-12.032-3.712l-118.4-80.939 44.331 131.627a21.306 21.306 0 0 1-6.571 23.211l-83.157 68.949h90.837a21.393 21.393 0 0 1 19.115 11.819l65.877 132.352 65.877-132.352a21.395 21.395 0 0 1 19.115-11.819h90.411l-82.731-68.949zM692.608 427.434c0-11.776 9.557-21.333 21.333-21.333s21.333 9.557 21.333 21.333v192c0 2.304-.64 4.395-1.28 6.443-.171.555-.128 1.152-.341 1.664-1.109 2.731-2.816 5.163-4.907 7.211l-213.035 213.12c-1.963 1.92-4.309 3.541-6.912 4.565a21.282 21.282 0 0 1-8.192 1.664H31.274c-11.776 0-21.333-9.557-21.333-21.333v-896c0-11.776 9.557-21.333 21.333-21.333h426.667c11.776 0 21.333 9.557 21.333 21.333s-9.557 21.333-21.333 21.333H52.608v853.333h426.667v-192c0-11.776 9.557-21.333 21.333-21.333h192V427.434zM521.941 781.226l140.416-140.459H521.941v140.459z"/><glyph unicode="" glyph-name="file-new" data-tags="file-new" d="M894.336 584.192a21.108 21.108 0 0 1-4.608 6.912L633.771 847.061c-1.963 1.92-4.309 3.541-6.912 4.565a20.57 20.57 0 0 1-8.192 1.707H149.334c-11.776 0-21.333-9.557-21.333-21.333v-981.333c0-11.776 9.557-21.333 21.333-21.333h725.333c11.776 0 21.333 9.557 21.333 21.333V576c0 2.859-.597 5.632-1.664 8.192zM640 780.501l183.168-183.168H640v183.168zM170.667-128v938.667h426.667V576c0-11.776 9.557-21.333 21.333-21.333h234.667V-128H170.667z"/><glyph unicode="" glyph-name="file-view" data-tags="file-view" d="M1016.726-134.23 894.955-12.545c26.283 32.896 42.667 73.941 42.667 119.211 0 105.856-86.101 192-191.957 192-105.899 0-192.043-86.144-192.043-192 0-105.899 86.144-192 192.043-192 45.227 0 86.272 16.384 119.125 42.667l121.728-121.728c4.181-4.181 9.643-6.272 15.104-6.272s10.923 2.091 15.104 6.229c8.32 8.32 8.32 21.845 0 30.208zM596.288 106.666c0 82.347 66.987 149.333 149.376 149.333 82.304 0 149.291-66.987 149.291-149.333S827.968-42.667 745.664-42.667c-82.389 0-149.376 66.987-149.376 149.333zm-448.554 448h192c11.776 0 21.333 9.557 21.333 21.333s-9.515 21.333-21.333 21.333h-192c-11.776 0-21.333-9.557-21.333-21.333s9.557-21.333 21.333-21.333zM510.4 448c0 11.776-9.557 21.333-21.333 21.333H147.734c-11.776 0-21.333-9.557-21.333-21.333s9.557-21.333 21.333-21.333h341.333c11.819 0 21.333 9.557 21.333 21.333zm-85.333-128c0 11.776-9.557 21.333-21.333 21.333h-256c-11.776 0-21.333-9.557-21.333-21.333s9.557-21.333 21.333-21.333h256c11.819 0 21.333 9.557 21.333 21.333zM147.734 213.333c-11.776 0-21.333-9.557-21.333-21.333s9.557-21.333 21.333-21.333h213.333c11.776 0 21.333 9.557 21.333 21.333s-9.515 21.333-21.333 21.333H147.734zm384.042-256H41.621v853.333h426.667v-192c0-11.776 9.557-21.333 21.333-21.333h192V384c0-11.776 9.557-21.333 21.333-21.333s21.333 9.557 21.333 21.333v234.667c0 2.859-.597 5.632-1.664 8.192a21.108 21.108 0 0 1-4.608 6.912L504.724 847.062c-1.963 1.92-4.309 3.541-6.912 4.565a20.57 20.57 0 0 1-8.192 1.707H20.287c-11.776 0-21.333-9.557-21.333-21.333v-896c0-11.776 9.557-21.333 21.333-21.333h511.488c11.776 0 21.333 9.557 21.333 21.333s-9.515 21.333-21.333 21.333zm-20.821 823.168L651.456 640H510.955v140.501z"/><glyph unicode="" glyph-name="file-word" data-tags="file-word" d="M937.003 584.192a20.08 20.08 0 0 1-4.608 6.869l-255.957 256a21.668 21.668 0 0 1-6.912 4.565 20.57 20.57 0 0 1-8.192 1.707H106.667c-11.776 0-21.333-9.557-21.333-21.333v-981.333c0-11.776 9.557-21.333 21.333-21.333h810.667c11.776 0 21.333 9.557 21.333 21.333V576c0 2.816-.597 5.632-1.664 8.192zM682.667 780.501l183.168-183.168H682.667v183.168zM128-128v938.667h512V576c0-11.776 9.557-21.333 21.333-21.333H896V-128H128zm593.493 384.042c12.928 0 27.307-2.773 34.475-36.053 2.475-11.52 13.653-18.645 25.344-16.384 11.52 2.517 18.816 13.824 16.341 25.387-12.416 57.6-48.299 69.717-76.203 69.717-81.451 0-81.451-86.485-81.451-128.043s0-128 81.493-128c27.904 0 63.787 12.075 76.203 69.76 2.475 11.563-4.864 22.912-16.384 25.429-11.52 2.219-22.869-4.907-25.344-16.384-7.168-33.365-21.547-36.139-34.475-36.139-21.973 0-38.827 6.272-38.827 85.333 0 79.104 16.853 85.376 38.827 85.376zM512 298.666c-85.333 0-85.333-89.728-85.333-128 0-38.315 0-128 85.333-128s85.333 89.685 85.333 128c0 38.272 0 128-85.333 128zm0-213.333c-23.339 0-42.667 6.4-42.667 85.333s19.328 85.333 42.667 85.333 42.667-6.4 42.667-85.333S535.339 85.333 512 85.333zM277.333 298.666h-42.667c-11.776 0-21.333-9.557-21.333-21.333V64c0-11.776 9.557-21.333 21.333-21.333h42.667c60.8 0 106.667 55.04 106.667 128s-45.867 128-106.667 128zm0-213.333H256V256h21.333c37.077 0 64-35.883 64-85.333s-26.923-85.333-64-85.333z"/><glyph unicode="" glyph-name="filter" data-tags="filter" d="M1021.951 841.088c-3.499 7.467-11.051 12.245-19.285 12.245H21.333c-8.235 0-15.787-4.779-19.285-12.245a21.347 21.347 0 0 1 2.816-22.699l421.803-509.952v-457.771c0-8.619 5.205-16.427 13.184-19.712 2.603-1.109 5.419-1.621 8.149-1.621a21.497 21.497 0 0 1 15.104 6.229l128 128a21.486 21.486 0 0 1 6.229 15.104v329.771l421.803 509.952a21.347 21.347 0 0 1 2.816 22.699zM559.53 329.77c-3.115-3.84-4.864-8.661-4.864-13.611V-12.502l-85.333-85.333V316.16c0 4.949-1.749 9.771-4.864 13.611L66.645 810.667h890.667L559.531 329.771z"/><glyph unicode="" glyph-name="folder" data-tags="folder" d="M1002.666 597.334H895.999v64c0 11.819-9.557 21.333-21.333 21.333H341.333v64c0 11.819-9.557 21.333-21.333 21.333H21.333C9.557 768 0 758.485 0 746.667v-704c0-70.571 57.429-128 128-128h746.667C957.014-85.333 1024-18.346 1024 64v512c0 11.819-9.557 21.333-21.333 21.333zm-789.334-21.333V42.668c0-47.061-38.272-85.333-85.333-85.333S42.666-4.393 42.666 42.668v682.667h256v-64c0-11.776 9.557-21.333 21.333-21.333h533.333v-42.667H234.665c-11.776 0-21.333-9.515-21.333-21.333zm768-512c0-58.795-47.872-106.667-106.667-106.667H223.316c20.309 22.656 32.683 52.608 32.683 85.333v512h725.333V64z"/><glyph unicode="" glyph-name="folder-add" data-tags="folder-add" d="M746.667 384c-152.917 0-277.333-124.416-277.333-277.333S593.75-170.666 746.667-170.666 1024-46.25 1024 106.667 899.584 384 746.667 384zm0-512C617.259-128 512-22.741 512 106.667s105.259 234.667 234.667 234.667 234.667-105.259 234.667-234.667S876.075-128 746.667-128zm106.666 256H768v85.333c0 11.776-9.557 21.333-21.333 21.333s-21.333-9.515-21.333-21.333V128h-85.333c-11.776 0-21.333-9.557-21.333-21.333s9.557-21.333 21.333-21.333h85.333V.001c0-11.776 9.557-21.333 21.333-21.333S768-11.775 768 .001v85.333h85.333c11.776 0 21.333 9.557 21.333 21.333S865.109 128 853.333 128zM384 128H158.805c7.339 12.629 11.861 27.093 11.861 42.667V640h682.667V469.333c0-11.776 9.557-21.333 21.333-21.333s21.333 9.557 21.333 21.333v192c0 11.819-9.557 21.333-21.333 21.333h-64v64c0 11.819-9.557 21.333-21.333 21.333H256v64c0 11.819-9.557 21.333-21.333 21.333H21.334c-11.776 0-21.333-9.515-21.333-21.333V170.666c0-47.061 38.272-85.333 85.333-85.333h298.667c11.776 0 21.333 9.557 21.333 21.333s-9.557 21.333-21.333 21.333zM42.667 170.666v640h170.667v-64c0-11.776 9.557-21.333 21.333-21.333H768v-42.667H149.333c-11.776 0-21.333-9.515-21.333-21.333V170.666c0-23.509-19.157-42.667-42.667-42.667s-42.667 19.157-42.667 42.667z"/><glyph unicode="" glyph-name="folder-view" data-tags="folder-view" d="M1016.725-134.23 894.954-12.502c26.283 32.853 42.667 73.941 42.667 119.168 0 105.856-86.101 192-191.957 192-105.899 0-192.043-86.101-192.043-192s86.144-192 192.043-192c45.227 0 86.272 16.384 119.125 42.667L986.56-164.395c4.139-4.181 9.6-6.272 15.061-6.272s10.923 2.091 15.104 6.272c8.32 8.32 8.32 21.845 0 30.165zM596.287 106.666c0 82.347 66.987 149.333 149.376 149.333 82.304 0 149.291-66.987 149.291-149.333S827.967-42.667 745.663-42.667c-82.389 0-149.376 67.029-149.376 149.333zm-192 21.334H157.759c7.339 12.629 11.861 27.093 11.861 42.667V640h682.667V448c0-11.776 9.557-21.333 21.333-21.333s21.333 9.557 21.333 21.333v213.333c0 11.819-9.557 21.333-21.333 21.333h-64v64c0 11.819-9.557 21.333-21.333 21.333H254.954v64c0 11.819-9.557 21.333-21.333 21.333H20.288c-11.776 0-21.333-9.515-21.333-21.333V170.666c0-47.061 38.272-85.333 85.333-85.333h320c11.776 0 21.333 9.557 21.333 21.333s-9.557 21.333-21.333 21.333zM41.621 170.666v640h170.667v-64c0-11.776 9.557-21.333 21.333-21.333h533.333v-42.667H148.287c-11.776 0-21.333-9.515-21.333-21.333V170.666c0-23.509-19.157-42.667-42.667-42.667S41.62 147.156 41.62 170.666z"/><glyph unicode="" glyph-name="gauge" data-tags="gauge" d="M783.531 463.53c-8.32 8.32-21.845 8.32-30.165 0L555.051 265.258c-12.672 7.509-27.264 12.075-43.051 12.075-47.061 0-85.333-38.272-85.333-85.333s38.272-85.333 85.333-85.333 85.333 38.272 85.333 85.333c0 15.787-4.608 30.379-12.075 43.051L783.53 433.323a21.322 21.322 0 0 1 0 30.208zM512 149.333c-23.509 0-42.667 19.157-42.667 42.667S488.49 234.667 512 234.667 554.667 215.51 554.667 192 535.51 149.333 512 149.333zm-320 42.666h-85.333c-11.776 0-21.333-9.557-21.333-21.333s9.557-21.333 21.333-21.333H192c11.776 0 21.333 9.557 21.333 21.333s-9.557 21.333-21.333 21.333zm618.667-21.333c0-11.776 9.557-21.333 21.333-21.333h85.333c11.776 0 21.333 9.557 21.333 21.333s-9.557 21.333-21.333 21.333H832c-11.776 0-21.333-9.557-21.333-21.333zm-22.742 135.637a21.396 21.396 0 0 1 19.712-13.184c2.731 0 5.504.512 8.149 1.621l78.848 32.64c10.88 4.523 16.043 16.981 11.563 27.904-4.48 10.88-17.067 16-27.861 11.563l-78.848-32.64c-10.923-4.565-16.085-17.024-11.563-27.904zM626.304 467.925a21.043 21.043 0 0 1 8.149-1.621c8.363 0 16.299 4.949 19.712 13.141l32.64 78.848c4.48 10.88-.683 23.381-11.563 27.861-10.795 4.437-23.381-.64-27.861-11.563l-32.64-78.848c-4.48-10.837.683-23.296 11.563-27.819zM512 490.666c11.776 0 21.333 9.557 21.333 21.333v85.333c0 11.776-9.557 21.333-21.333 21.333s-21.333-9.557-21.333-21.333v-85.333c0-11.776 9.557-21.333 21.333-21.333zm-135.381 83.968c-4.523 10.923-16.981 16-27.861 11.563-10.88-4.523-16.043-16.981-11.563-27.904l32.64-78.848c3.413-8.192 11.349-13.141 19.712-13.141 2.731 0 5.504.512 8.149 1.621 10.88 4.48 16.043 16.981 11.563 27.861l-32.64 78.848zm-136.107-80.939c-8.32 8.405-21.845 8.32-30.165.043-8.363-8.32-8.363-21.845-.043-30.165l60.245-60.373c4.181-4.181 9.643-6.272 15.104-6.272s10.88 2.091 15.061 6.229c8.363 8.32 8.363 21.803.043 30.165l-60.245 60.373zm-16-159.53-78.805 32.64c-10.795 4.437-23.381-.683-27.861-11.563s.683-23.381 11.563-27.904l78.805-32.64c2.645-1.067 5.419-1.621 8.149-1.621 8.363 0 16.299 4.949 19.712 13.184 4.48 10.923-.683 23.381-11.563 27.904zM512 703.999c-282.325 0-512-229.675-512-512v-192c0-11.776 9.557-21.333 21.333-21.333h981.333c11.776 0 21.333 9.557 21.333 21.333v192c0 282.325-229.675 512-512 512zM981.333 21.333H42.666V192c0 258.773 210.56 469.333 469.333 469.333S981.332 450.773 981.332 192V21.333z"/><glyph unicode="" glyph-name="globe" data-tags="globe" d="M512.214 853.333c-7.467 0-14.891-.128-22.187-.469C210.688 841.6 0 626.261 0 352 0 63.787 229.077-170.667 510.635-170.667 793.728-170.667 1024 59.818 1024 343.168c0 281.301-229.589 510.165-511.787 510.165zm-469.034-512h236.587c2.432-70.272 15.531-141.696 39.296-213.333H97.068C64.001 191.957 44.844 264.405 43.18 341.333zM279.51 384H44.203c5.248 78.677 29.44 151.211 68.779 213.333h207.744C295.297 528.512 281.515 457.045 279.51 384zm85.163 213.333h295.083C687.489 528.64 701.996 457.13 704.215 384h-384c2.176 73.131 16.683 144.64 44.459 213.333zm-44.245-256h383.573c-2.645-70.059-16.555-141.397-42.24-213.333H362.668c-25.728 71.936-39.637 143.275-42.24 213.333zm424.192 0h236.629C980.95 264.49 961.921 192.042 928.854 128H705.281c23.808 71.637 36.907 143.061 39.339 213.333zm.256 42.667c-2.005 73.045-15.787 144.512-41.216 213.333h201.728C946.22 534.869 972.417 462.208 979.244 384H744.876zm129.45 256H686.209c-25.643 57.173-59.477 112.256-101.803 164.523C700.459 786.518 802.774 726.528 874.326 640zM523.82 810.026c48.725-53.888 87.296-110.848 116.352-170.027H384.257c29.099 59.307 67.797 116.395 116.651 170.411 3.755.085 7.509.256 11.307.256 3.925 0 7.723-.512 11.605-.64zm-83.03-4.608c-42.709-52.523-76.8-107.904-102.571-165.419H143.318c71.253 87.808 175.659 148.181 297.472 165.419zM121.772 85.333h212.523c27.307-69.803 64.853-139.52 112.384-208.341-135.125 19.072-252.117 97.067-324.907 208.341zm380.16-212.907C449.793-56.833 409.26 14.378 379.479 85.333h265.387c-29.739-70.912-70.272-142.08-122.325-212.736-4.011-.128-7.893-.597-11.904-.597-2.987 0-5.803.384-8.704.427zm75.946 4.907c47.403 68.693 84.907 138.325 112.128 208H904.15c-72.491-110.464-190.037-188.331-326.272-208z"/><glyph unicode="" glyph-name="graph-bar" data-tags="graph-bar" d="M1002.663 42.666H981.33v618.667c0 11.776-9.557 21.333-21.333 21.333h-128c-11.776 0-21.333-9.557-21.333-21.333V42.666h-85.333v320c0 11.776-9.557 21.333-21.333 21.333h-128c-11.776 0-21.333-9.557-21.333-21.333v-320h-85.333v405.333c0 11.776-9.557 21.333-21.333 21.333h-128c-11.776 0-21.333-9.557-21.333-21.333V42.666h-85.333v192c0 11.776-9.557 21.333-21.333 21.333H64c-11.776 0-21.333-9.557-21.333-21.333v-192H21.334C9.558 42.666.001 33.109.001 21.333S9.558 0 21.334 0h981.333C1014.443 0 1024 9.557 1024 21.333s-9.557 21.333-21.333 21.333zM853.329 639.999h85.333V42.666h-85.333v597.333zm-256-298.667h85.333V42.665h-85.333v298.667zm-256 85.334h85.333v-384h-85.333v384zm-256-213.334h85.333V42.665H85.329v170.667z"/><glyph unicode="" glyph-name="graph-pie" data-tags="graph-pie" d="M576 384h426.667c11.776 0 21.333 9.557 21.333 21.333 0 247.04-200.96 448-448 448-11.776 0-21.333-9.557-21.333-21.333V405.333c0-11.776 9.557-21.333 21.333-21.333zm21.333 426.112c206.549-10.752 372.651-176.896 383.445-383.445H597.333v383.445zm405.334-468.779H576c-8.619 0-16.427-5.205-19.712-13.184s-1.451-17.109 4.608-23.211L862.592 3.242c4.181-4.181 9.643-6.229 15.104-6.229S888.619-.896 892.8 3.242C977.408 87.807 1024 200.319 1024 319.999c0 11.776-9.557 21.333-21.333 21.333zM877.312 48.853 627.499 298.666h353.28C976 205.482 939.776 118.143 877.312 48.853zM469.333 286.165V704c0 11.776-9.557 21.333-21.333 21.333-247.04 0-448-200.96-448-448 0-280.448 229.675-448 451.755-448 117.248 0 228.437 46.592 313.045 131.243 8.32 8.32 8.32 21.845 0 30.165L469.333 286.165zM451.755-128C250.667-128 42.667 23.595 42.667 277.333c0 216.32 170.368 393.643 384 404.779V277.333a21.486 21.486 0 0 1 6.229-15.104L719.147-24.022c-74.368-67.243-168.533-103.979-267.392-103.979z"/><glyph unicode="" glyph-name="group-add" data-tags="group-add" d="M1003.115 703.999H895.552v106.667c0 11.776-9.557 21.333-21.333 21.333s-21.333-9.557-21.333-21.333V703.999H747.115c-11.776 0-21.333-9.557-21.333-21.333s9.557-21.333 21.333-21.333h105.771V553.984c0-11.776 9.557-21.333 21.333-21.333s21.333 9.557 21.333 21.333v107.349h107.563c11.776 0 21.333 9.557 21.333 21.333s-9.557 21.333-21.333 21.333zM601.579 50.858l-154.027 55.125v61.867c50.091 40.277 83.072 108.032 83.072 184.747 0 123.179-85.12 223.403-189.739 223.403S151.146 475.776 151.146 352.597c0-76.672 32.981-144.427 83.072-184.747v-61.867L80.191 50.858C31.935 33.578-.449-12.843-.449-64.513v-63.488c0-11.776 9.557-21.333 21.333-21.333h640c11.776 0 21.333 9.557 21.333 21.333v63.488c0 51.669-32.384 98.048-80.64 115.371zM340.885 533.333c70.699 0 129.835-61.653 143.872-143.488-45.141-7.851-72.747 7.296-100.053 55.125-3.883 6.827-10.837 11.008-18.944 10.795a21.43 21.43 0 0 1-18.517-11.477c-14.592-28.075-66.005-53.589-107.861-53.589-14.848 0-27.648 2.987-40.235 7.552 16.555 77.483 73.515 135.083 141.739 135.083zM193.941 354.431c14.336-4.139 29.227-6.4 45.44-6.4 45.397 0 95.061 20.779 125.227 49.92 27.051-35.755 58.923-52.779 99.157-52.779 7.509 0 15.659 1.237 23.808 2.432-2.261-97.451-66.987-175.957-146.688-175.957-79.829 0-147.797 79.744-146.944 182.784zm445.611-461.098H42.219v42.155c0 33.749 21.035 63.957 52.352 75.179L262.72 70.912a21.355 21.355 0 0 1 14.165 20.096v52.011c20.096-8.533 41.429-13.995 64-13.995s43.904 5.461 64 13.995V91.008c0-9.003 5.675-17.024 14.165-20.096l168.149-60.245c31.317-11.221 52.352-41.429 52.352-75.179v-42.155zM857.579 50.858l-154.027 55.125v61.867c50.091 40.277 83.072 108.032 83.072 184.747C786.624 463.872 709.099 576 596.885 576c-11.776 0-21.333-9.557-21.333-21.333s9.557-21.333 21.333-21.333c70.699 0 129.835-61.653 143.872-143.488-45.141-7.851-72.747 7.296-100.053 55.125-5.845 10.197-18.901 13.824-29.099 7.936-10.24-5.845-13.781-18.859-7.936-29.099 30.592-53.504 67.157-78.72 116.096-78.72 7.509 0 15.659 1.237 23.808 2.432-2.261-97.365-66.944-175.872-146.688-175.872-11.776 0-21.333-9.557-21.333-21.333s9.557-21.333 21.333-21.333c22.571 0 43.904 5.461 64 13.995V90.966c0-9.003 5.675-17.024 14.165-20.096l168.149-60.245c31.317-11.179 52.352-41.387 52.352-75.136v-42.155H768.874c-11.776 0-21.333-9.557-21.333-21.333s9.557-21.333 21.333-21.333h148.011c11.776 0 21.333 9.557 21.333 21.333v63.488c0 51.669-32.384 98.048-80.64 115.371z"/><glyph unicode="" glyph-name="headphone" data-tags="headphone" d="M1024 192c0 51.499-36.693 94.592-85.333 104.491V320c0 58.837-47.872 106.667-106.667 106.667h-1.067C819.882 593.152 681.258 725.334 512 725.334S204.117 593.153 193.067 426.667H192c-58.795 0-106.667-47.829-106.667-106.667v-23.509C36.693 286.592 0 243.499 0 192S36.693 97.408 85.333 87.509V64C85.333 5.163 133.205-42.667 192-42.667h85.333c11.776 0 21.333 9.557 21.333 21.333v426.667c0 11.776-9.557 21.333-21.333 21.333h-41.6c10.965 142.976 130.56 256 276.267 256s265.301-113.024 276.267-256h-41.6c-11.776 0-21.333-9.557-21.333-21.333V-21.334c0-11.776 9.557-21.333 21.333-21.333H832c58.795 0 106.667 47.829 106.667 106.667v23.509C987.307 97.408 1024 140.501 1024 192zm-981.333 0c0 27.733 17.877 51.243 42.667 60.075V131.926c-24.789 8.832-42.667 32.341-42.667 60.075zM256 0h-64c-35.285 0-64 28.715-64 64v256c0 35.285 28.715 64 64 64h64V0zm640 64c0-35.285-28.715-64-64-64h-64v384h64c35.285 0 64-28.715 64-64V64zm42.667 67.925v120.149c24.789-8.832 42.667-32.341 42.667-60.075s-17.877-51.243-42.667-60.075z"/><glyph unicode="" glyph-name="help-circle" data-tags="help-circle" d="M512 832C241.451 832 21.333 611.883 21.333 341.333S241.45-149.334 512-149.334s490.667 220.117 490.667 490.667C1002.667 611.882 782.55 832 512 832zm0-938.666c-247.04 0-448 200.96-448 448s200.96 448 448 448 448-200.96 448-448-200.96-448-448-448zm0 704c-82.347 0-149.333-66.987-149.333-149.333 0-11.776 9.557-21.333 21.333-21.333s21.333 9.557 21.333 21.333c0 58.795 47.829 106.667 106.667 106.667s106.667-47.872 106.667-106.667S570.838 341.334 512 341.334c-11.776 0-21.333-9.557-21.333-21.333v-128c0-11.776 9.557-21.333 21.333-21.333s21.333 9.557 21.333 21.333v108.16c72.277 10.411 128 72.704 128 147.84 0 82.347-66.987 149.333-149.333 149.333zm42.666-512c0-23.564-19.103-42.667-42.667-42.667s-42.667 19.103-42.667 42.667 19.103 42.667 42.667 42.667 42.667-19.103 42.667-42.667z"/><glyph unicode="" glyph-name="hierarchy" data-tags="hierarchy" d="M1002.666 255.979H895.999v106.667c0 11.776-9.557 21.333-21.333 21.333H534.229v42.709h170.667c11.776 0 21.333 9.557 21.333 21.333v384c0 11.776-9.557 21.333-21.333 21.333h-384c-11.776 0-21.333-9.557-21.333-21.333v-384c0-11.776 9.557-21.333 21.333-21.333h170.667v-42.709H149.334c-11.776 0-21.333-9.557-21.333-21.333V255.979H21.334c-11.776 0-21.333-9.557-21.333-21.333v-384c0-11.776 9.557-21.333 21.333-21.333h384c11.776 0 21.333 9.557 21.333 21.333v384c0 11.776-9.557 21.333-21.333 21.333H170.667v85.333h682.667v-85.333H618.667c-11.776 0-21.333-9.557-21.333-21.333v-384c0-11.776 9.557-21.333 21.333-21.333h384c11.776 0 21.333 9.557 21.333 21.333v384c0 11.776-9.557 21.333-21.333 21.333zM342.228 810.688h341.333V469.355H342.228v341.333zm41.771-938.709H42.666v341.333h341.333v-341.333zm597.333 0H639.999v341.333h341.333v-341.333zm-320 874.709c0 11.776-9.557 21.333-21.333 21.333H426.666c-11.776 0-21.333-9.557-21.333-21.333s9.557-21.333 21.333-21.333h213.333c11.776 0 21.333 9.557 21.333 21.333zm21.334-597.376c0-11.776 9.557-21.333 21.333-21.333h213.333c11.776 0 21.333 9.557 21.333 21.333s-9.557 21.333-21.333 21.333H703.999c-11.776 0-21.333-9.557-21.333-21.333zm-597.334 0c0-11.776 9.557-21.333 21.333-21.333h213.333c11.776 0 21.333 9.557 21.333 21.333s-9.557 21.333-21.333 21.333H106.665c-11.776 0-21.333-9.557-21.333-21.333z"/><glyph unicode="" glyph-name="home" data-tags="home" d="M874.646 297.642c-11.776 0-21.333-9.557-21.333-21.333v-384H639.98v277.333c0 11.776-9.557 21.333-21.333 21.333H405.314c-11.776 0-21.333-9.557-21.333-21.333v-277.333H170.648v405.333c0 11.776-9.557 21.333-21.333 21.333s-21.333-9.557-21.333-21.333v-426.667c0-11.819 9.557-21.333 21.333-21.333h256c11.776 0 21.333 9.557 21.333 21.333v277.333h170.667v-277.333c0-11.776 9.557-21.333 21.333-21.333h256c11.776 0 21.333 9.557 21.333 21.333v405.333c0 11.776-9.557 21.333-21.333 21.333zm143.104 36.395L527.083 824.704c-8.32 8.32-21.845 8.32-30.165 0L6.251 334.037c-8.32-8.32-8.32-21.845 0-30.165s21.845-8.32 30.165 0l475.563 475.563 475.563-475.563c4.181-4.181 9.643-6.229 15.104-6.229s10.923 2.091 15.104 6.229c8.32 8.32 8.32 21.845 0 30.165zM682.646 745.642h128v-128c0-11.776 9.557-21.333 21.333-21.333s21.333 9.515 21.333 21.333v149.333c0 11.776-9.557 21.333-21.333 21.333H682.646c-11.776 0-21.333-9.557-21.333-21.333s9.557-21.333 21.333-21.333z"/><glyph unicode="" glyph-name="launch" data-tags="launch" d="M704 297.685c-11.776 0-21.333-9.557-21.333-21.333V42.965H213.334v469.333h234.667c11.776 0 21.333 9.557 21.333 21.333s-9.557 21.333-21.333 21.333h-256c-11.776 0-21.333-9.557-21.333-21.333v-512c0-11.776 9.557-21.333 21.333-21.333h512c11.776 0 21.333 9.557 21.333 21.333v254.72c0 11.819-9.557 21.333-21.333 21.333zm128 384.682H576c-11.776 0-21.333-9.557-21.333-21.333s9.557-21.333 21.333-21.333h204.501L304.896 164.138c-8.32-8.32-8.32-21.845 0-30.165s21.845-8.32 30.165 0l475.605 475.563V405.035c0-11.776 9.557-21.333 21.333-21.333s21.333 9.557 21.333 21.333v256c0 11.776-9.557 21.333-21.333 21.333z"/><glyph unicode="" glyph-name="layers" data-tags="layers" d="M874.667 213.332c-11.776 0-21.333-9.557-21.333-21.333v-64H170.667v426.667H192c11.776 0 21.333 9.557 21.333 21.333s-9.557 21.333-21.333 21.333h-42.667c-11.776 0-21.333-9.557-21.333-21.333V106.666c0-11.776 9.557-21.333 21.333-21.333h725.333c11.776 0 21.333 9.557 21.333 21.333v85.333c0 11.776-9.557 21.333-21.333 21.333zm128 554.667H277.334c-11.776 0-21.333-9.557-21.333-21.333V277.333c0-11.776 9.557-21.333 21.333-21.333h725.333c11.776 0 21.333 9.557 21.333 21.333v469.333c0 11.776-9.557 21.333-21.333 21.333zm-21.334-469.333H298.666v426.667h682.667V298.666zm-234.666-256c-11.776 0-21.333-9.557-21.333-21.333v-64H42.667V384H64c11.776 0 21.333 9.557 21.333 21.333S75.776 426.666 64 426.666H21.333C9.557 426.666 0 417.109 0 405.333V-64c0-11.776 9.557-21.333 21.333-21.333h725.333c11.776 0 21.333 9.557 21.333 21.333v85.333c0 11.776-9.557 21.333-21.333 21.333z"/><glyph unicode="" glyph-name="leaf" data-tags="leaf" d="M983.423 800.596c-4.565 4.565-10.88 6.827-17.408 6.144-29.355-3.243-720.427-82.773-876.885-415.061C33.749 274.09 53.205 139.86 145.407-7.254l-24.149-24.149c-8.32-8.32-8.32-21.845 0-30.165 4.181-4.181 9.643-6.272 15.104-6.272s10.923 2.091 15.104 6.229l23.979 23.979c91.819-57.6 179.285-87.125 260.096-87.125 449.109 0 549.973 870.784 554.027 907.861a21.604 21.604 0 0 1-6.144 17.493zM435.498-82.05c-70.315 0-147.328 25.6-229.12 75.435l109.44 109.44h204.544c11.776 0 21.333 9.557 21.333 21.333s-9.557 21.333-21.333 21.333H358.485l128 128h140.544c11.776 0 21.333 9.557 21.333 21.333s-9.557 21.333-21.333 21.333h-97.877l128 128h55.211c11.776 0 21.333 9.557 21.333 21.333s-9.557 21.333-21.333 21.333h-42.667v42.667c0 11.776-9.557 21.333-21.333 21.333s-21.333-9.557-21.333-21.333v-55.083l-128-128.043v97.792c0 11.776-9.557 21.333-21.333 21.333s-21.333-9.557-21.333-21.333V303.697l-128-128.043v161.835c0 11.776-9.557 21.333-21.333 21.333s-21.333-9.557-21.333-21.333V132.988L176.471 23.719c-79.531 130.645-96.469 248.32-48.725 349.696 129.579 275.456 686.08 369.067 815.829 387.328C922.882 613.586 805.122-82.052 435.5-82.052z"/><glyph unicode="" glyph-name="lightbulb" data-tags="lightbulb" d="M512 640c-152.917 0-277.333-124.416-277.333-277.333 0-120.832 78.165-226.901 192-263.637V64.001c0-11.776 9.557-21.333 21.333-21.333h128c11.776 0 21.333 9.557 21.333 21.333V99.03c113.877 36.736 192 142.848 192 263.637C789.333 515.584 664.917 640 512 640zm58.666-504.278a21.317 21.317 0 0 1-16-20.651V85.332h-85.333v29.739a21.317 21.317 0 0 1-16 20.651c-103.637 26.709-176 120.021-176 226.944 0 129.408 105.301 234.667 234.667 234.667s234.667-105.259 234.667-234.667c0-106.88-72.363-200.192-176-226.944zM533.333-85.334h-42.667c-11.776 0-21.333-9.557-21.333-21.333S478.89-128 490.666-128h42.667c11.776 0 21.333 9.557 21.333 21.333s-9.557 21.333-21.333 21.333zM576 0H448c-11.776 0-21.333-9.557-21.333-21.333S436.224-42.666 448-42.666h128c11.776 0 21.333 9.557 21.333 21.333S587.776 0 576 0zm-64 682.666c11.776 0 21.333 9.557 21.333 21.333v85.333c0 11.776-9.557 21.333-21.333 21.333s-21.333-9.557-21.333-21.333v-85.333c0-11.776 9.557-21.333 21.333-21.333zM938.666 384h-85.333C841.557 384 832 374.443 832 362.667s9.557-21.333 21.333-21.333h85.333c11.776 0 21.333 9.557 21.333 21.333S950.442 384 938.666 384zm-768 0H85.333C73.557 384 64 374.443 64 362.667s9.557-21.333 21.333-21.333h85.333c11.776 0 21.333 9.557 21.333 21.333S182.442 384 170.666 384zm84.864 204.928c4.181-4.181 9.643-6.229 15.104-6.229s10.923 2.091 15.104 6.229c8.32 8.32 8.32 21.845 0 30.165l-90.581 90.539c-8.32 8.32-21.845 8.32-30.165 0s-8.32-21.845 0-30.165l90.539-90.539zm497.75-6.272a21.43 21.43 0 0 1 15.104 6.229l90.539 90.539c8.32 8.32 8.32 21.845 0 30.165s-21.845 8.32-30.165 0l-90.539-90.581c-8.32-8.32-8.32-21.803 0-30.165a21.394 21.394 0 0 1 15.061-6.187z"/><glyph unicode="" glyph-name="link" data-tags="link" d="M512.043 153.066 376.235 17.301c-40.277-40.277-110.592-40.277-150.869 0l-30.165 30.123c-20.139 20.139-31.232 46.933-31.232 75.435s11.093 55.253 31.232 75.392L391.34 394.39c41.6 41.6 109.312 41.6 150.869 0l30.165-30.208c8.32-8.32 21.845-8.32 30.165 0s8.32 21.845 0 30.165l-30.165 30.208c-58.197 58.24-153.003 58.24-211.2 0L165.035 228.416c-28.203-28.16-43.733-65.664-43.733-105.557s15.531-77.397 43.733-105.6L195.2-12.864c28.203-28.203 65.707-43.733 105.643-43.733 39.893 0 77.397 15.531 105.6 43.733l135.808 135.765c8.32 8.32 8.32 21.845 0 30.165-8.363 8.363-21.888 8.363-30.208 0zm346.922 497.835L828.8 681.066c-58.197 58.197-152.96 58.197-211.157 0L481.878 545.343c-8.32-8.32-8.32-21.845 0-30.165s21.845-8.32 30.165 0l135.765 135.723c41.6 41.6 109.269 41.557 150.827 0l30.165-30.165c20.139-20.139 31.232-46.933 31.232-75.435s-11.093-55.296-31.232-75.435L632.704 273.77c-20.181-20.181-46.933-31.275-75.435-31.275-28.459 0-55.211 11.093-75.349 31.232-8.32 8.363-21.888 8.32-30.165.043-8.363-8.32-8.363-21.845-.043-30.165 28.203-28.245 65.664-43.776 105.557-43.776s77.397 15.531 105.6 43.776l196.096 196.096c28.203 28.203 43.733 65.707 43.733 105.6s-15.531 77.397-43.733 105.6z"/><glyph unicode="" glyph-name="location-pin" data-tags="location-pin" d="M512 853.333c-231.083 0-405.333-183.424-405.333-426.667 0-306.048 376.832-581.717 392.832-593.28 3.712-2.731 8.107-4.053 12.501-4.053s8.789 1.323 12.501 4.053c16 11.563 392.832 287.232 392.832 593.28 0 243.243-174.251 426.667-405.333 426.667zm0-975.915C446.805-72.107 149.333 172.33 149.333 426.666c0 218.923 155.904 384 362.667 384s362.667-165.077 362.667-384c0-254.336-297.472-498.773-362.667-549.248zm0 805.248c-129.408 0-234.667-105.259-234.667-234.667S382.592 213.332 512 213.332s234.667 105.259 234.667 234.667S641.408 682.666 512 682.666zM512 256c-105.856 0-192 86.101-192 192 0 105.856 86.144 192 192 192s192-86.144 192-192c0-105.899-86.144-192-192-192z"/><glyph unicode="" glyph-name="location-pin-solid" data-tags="location-pin-solid" d="M512 853.333c-231.083 0-405.333-183.381-405.333-426.667 0-306.048 376.789-581.717 392.832-593.28 3.712-2.731 8.149-4.053 12.501-4.053s8.747 1.323 12.501 4.053c16 11.563 392.832 287.232 392.832 593.28 0 243.243-174.251 426.667-405.333 426.667zm0-640c-129.408 0-234.667 105.301-234.667 234.667 0 129.408 105.259 234.667 234.667 234.667 129.365 0 234.667-105.259 234.667-234.667S641.366 213.333 512 213.333z"/><glyph unicode="" glyph-name="lock-close" data-tags="lock-close" d="M512.001 256c-23.552 0-42.667-19.157-42.667-42.667 0-15.573 8.832-28.672 21.333-36.139V63.999c0-11.776 9.557-21.333 21.333-21.333s21.333 9.557 21.333 21.333v113.195c12.501 7.467 21.333 20.565 21.333 36.139 0 23.509-19.115 42.667-42.667 42.667zM149.334-170.667h725.333c11.776 0 21.333 9.557 21.333 21.333v597.333c0 11.776-9.557 21.333-21.333 21.333H768v128c0 141.184-114.816 256-256 256s-256-114.816-256-256v-128H149.333c-11.776 0-21.333-9.557-21.333-21.333v-597.333c0-11.776 9.557-21.333 21.333-21.333zm149.334 768c0 117.632 95.701 213.333 213.333 213.333s213.333-95.701 213.333-213.333v-128H298.667v128zm-128-170.667h682.667v-554.667H170.668v554.667z"/><glyph unicode="" glyph-name="lock-open" data-tags="lock-open" d="M512.001 256c-23.552 0-42.667-19.157-42.667-42.667 0-15.573 8.832-28.672 21.333-36.139V63.999c0-11.776 9.557-21.333 21.333-21.333s21.333 9.557 21.333 21.333v113.195c12.501 7.467 21.333 20.565 21.333 36.139 0 23.509-19.115 42.667-42.667 42.667zM149.334-170.667h725.333c11.776 0 21.333 9.557 21.333 21.333v597.333c0 11.776-9.557 21.333-21.333 21.333H768v128c0 141.184-114.816 256-256 256s-256-114.816-256-256c0-11.776 9.557-21.333 21.333-21.333s21.333 9.557 21.333 21.333c0 117.632 95.701 213.333 213.333 213.333s213.333-95.701 213.333-213.333v-128h-576c-11.776 0-21.333-9.557-21.333-21.333v-597.333c0-11.776 9.557-21.333 21.333-21.333zm21.334 597.333h682.667v-554.667H170.668v554.667z"/><glyph unicode="" glyph-name="logo-facebook" data-tags="logo-facebook" d="M773.717 534.057H591.616v81.28c0 38.229 25.344 47.147 43.179 47.147h127.488v168.192l-184.704.555c-167.552 0-199.296-125.355-199.296-205.653v-91.477h-128V363.434h128v-512h213.333v512h164.309l17.792 170.624z"/><glyph unicode="" glyph-name="logo-linkedin" data-tags="logo-linkedin" d="M277.909-83.051H64.576v554.667h213.333V-83.051zm-107.05 640h-1.28c-64.469 0-106.155 50.432-106.155 105.856 0 56.704 43.008 102.912 108.672 102.912 65.749 0 106.155-47.701 107.477-104.405-.043-55.424-41.728-104.363-108.715-104.363zm491.05-256c-47.147 0-85.333-38.229-85.333-85.333V-83.051H363.243s2.517 512 0 554.667h213.333v-63.36s66.048 61.568 168.021 61.568c126.379 0 215.979-91.477 215.979-268.971V-83.051H747.243v298.667c0 47.104-38.187 85.333-85.333 85.333z"/><glyph unicode="" glyph-name="logo-twitter-bird" data-tags="logo-twitter-bird" d="M990.805 625.749c-34.731-15.488-64-16-95.019-.683 40.021 23.979 41.856 40.832 56.32 86.144-37.461-22.229-78.976-38.4-123.136-47.104-35.328 37.632-85.717 61.227-141.483 61.227-107.093 0-193.877-86.869-193.877-193.877 0-15.189 1.707-29.995 4.992-44.203-161.109 8.064-304 85.248-399.616 202.581-16.683-28.629-26.24-61.952-26.24-97.493 0-67.285 34.261-126.592 86.229-161.365-31.787 1.024-61.653 9.728-87.765 24.235-.043-.811-.043-1.579-.043-2.432 0-93.952 66.816-172.288 155.563-190.123-28.416-7.723-58.368-8.917-87.595-3.371 24.704-76.971 96.299-133.035 181.12-134.613-82.987-65.024-185.856-92.117-287.061-80.256 85.845-54.997 187.691-87.083 297.216-87.083 356.608 0 551.595 295.424 551.595 551.637 0 8.448-.128 16.768-.512 25.088 37.845 27.307 83.328 52.779 109.312 91.691z"/><glyph unicode="" glyph-name="logout" data-tags="logout" d="M574.976 85.332c-11.776 0-21.333-9.557-21.333-21.333V-85.334h-512v853.333h512V618.666c0-11.776 9.557-21.333 21.333-21.333s21.333 9.557 21.333 21.333v170.667c0 11.776-9.557 21.333-21.333 21.333H20.309c-11.776 0-21.333-9.557-21.333-21.333v-896c0-11.776 9.557-21.333 21.333-21.333h554.667c11.776 0 21.333 9.557 21.333 21.333V64c0 11.776-9.557 21.333-21.333 21.333zm441.728 249.771L803.371 548.436c-8.32 8.32-21.845 8.32-30.165 0s-8.32-21.845 0-30.165l176.939-176.939H233.644c-11.776 0-21.333-9.557-21.333-21.333s9.557-21.333 21.333-21.333h716.501L773.249 121.77c-8.32-8.32-8.32-21.845 0-30.165s21.845-8.32 30.165 0l213.333 213.333c8.235 8.277 8.277 21.803-.043 30.165z"/><glyph unicode="" glyph-name="map-pin" data-tags="map-pin" d="m640.001 789.867 256-182.869V404.673c0-11.776 9.557-21.333 21.333-21.333s21.333 9.557 21.333 21.333v213.333a21.35 21.35 0 0 1-8.917 17.365L631.083 848.704c-.384.256-.896.128-1.28.427-3.285 2.048-6.955 3.541-11.136 3.541s-7.851-1.493-11.136-3.541c-.384-.256-.896-.128-1.28-.427L320 644.203 33.749 848.704c-6.485 4.693-15.061 5.291-22.187 1.621S-.001 839.36-.001 831.338V148.671a21.35 21.35 0 0 1 8.917-17.365L307.583-82.027c.384-.299.896-.171 1.28-.427 3.285-2.048 6.955-3.541 11.136-3.541s7.851 1.493 11.136 3.541c.384.256.896.128 1.28.427l256 182.869c9.6 6.827 11.819 20.181 4.949 29.739-6.869 9.6-20.139 11.819-29.739 4.992L341.332-23.232V607.04l256 182.869V404.672c0-11.776 9.557-21.333 21.333-21.333s21.333 9.557 21.333 21.333v385.195zm-597.333 0 256-182.869V-23.231l-256 182.827v630.272zm789.333-449.195c-105.856 0-192-86.144-192-192 0-99.115 157.653-290.816 175.616-312.32 4.053-4.864 10.069-7.68 16.384-7.68s12.331 2.816 16.384 7.68c17.963 21.504 175.616 213.205 175.616 312.32 0 105.856-86.144 192-192 192zm0-456.832c-53.12 66.816-149.333 201.173-149.333 264.832 0 82.347 66.987 149.333 149.333 149.333s149.333-66.987 149.333-149.333c0-63.616-96.256-197.973-149.333-264.832zm0 350.165c-47.061 0-85.333-38.272-85.333-85.333s38.272-85.333 85.333-85.333 85.333 38.272 85.333 85.333-38.272 85.333-85.333 85.333zm0-128c-23.509 0-42.667 19.157-42.667 42.667s19.157 42.667 42.667 42.667 42.667-19.157 42.667-42.667-19.157-42.667-42.667-42.667z"/><glyph unicode="" glyph-name="medical-box" data-tags="medical-box" d="M704 341.333H597.333V448c0 11.776-9.557 21.333-21.333 21.333H448c-11.776 0-21.333-9.557-21.333-21.333V341.333H320c-11.776 0-21.333-9.557-21.333-21.333V192c0-11.776 9.557-21.333 21.333-21.333h106.667V64c0-11.776 9.557-21.333 21.333-21.333h128c11.776 0 21.333 9.557 21.333 21.333v106.667H704c11.776 0 21.333 9.557 21.333 21.333v128c0 11.776-9.557 21.333-21.333 21.333zm-21.333-128H576c-11.776 0-21.333-9.557-21.333-21.333V85.333h-85.333V192c0 11.776-9.557 21.333-21.333 21.333H341.334v85.333h106.667c11.776 0 21.333 9.557 21.333 21.333v106.667h85.333V319.999c0-11.776 9.557-21.333 21.333-21.333h106.667v-85.333zM917.333 640H682.666v42.667c0 47.104-38.272 85.333-85.333 85.333H426.666c-47.061 0-85.333-38.229-85.333-85.333V640H106.666C47.829 640-.001 592.128-.001 533.333v-512c0-58.795 47.829-106.667 106.667-106.667h810.667C976.17-85.334 1024-37.462 1024 21.333v512C1024 592.128 976.171 640 917.333 640zM384 682.666c0 23.509 19.115 42.667 42.667 42.667h170.667c23.552 0 42.667-19.157 42.667-42.667v-42.667h-256v42.667zM981.333 21.333c0-35.285-28.715-64-64-64H106.666c-35.285 0-64 28.715-64 64v512c0 35.285 28.715 64 64 64h810.667c35.285 0 64-28.715 64-64v-512z"/><glyph unicode="" glyph-name="mobile-phone-portrait" data-tags="mobile-phone-portrait" d="M704 853.333H320c-58.795 0-106.667-47.829-106.667-106.667V-64.001c0-58.837 47.872-106.667 106.667-106.667h384c58.795 0 106.667 47.829 106.667 106.667v810.667c0 58.837-47.829 106.667-106.667 106.667zM256 640h512V42.667H256V640zm64 170.666h384c35.328 0 64-28.715 64-64v-64H256v64c0 35.285 28.715 64 64 64zM704-128H320c-35.285 0-64 28.715-64 64V0h512v-64c0-35.285-28.672-64-64-64zM405.333 725.333h213.333c11.819 0 21.333 9.557 21.333 21.333s-9.515 21.333-21.333 21.333H405.333c-11.776 0-21.333-9.557-21.333-21.333s9.557-21.333 21.333-21.333zM512-21.334c-23.509 0-42.667-19.115-42.667-42.667S488.49-106.668 512-106.668s42.667 19.115 42.667 42.667S535.552-21.334 512-21.334zm0-64v21.333h.043L512-85.334z"/><glyph unicode="" glyph-name="navigation-drawer" data-tags="navigation-drawer" d="M874.667 640H149.334c-12.8 0-21.333-8.533-21.333-21.333V576c0-12.8 8.533-21.333 21.333-21.333h725.333c12.8 0 21.333 8.533 21.333 21.333v42.667c0 12.8-8.533 21.333-21.333 21.333zm0-256H149.334c-12.8 0-21.333-8.533-21.333-21.333V320c0-12.8 8.533-21.333 21.333-21.333h725.333c12.8 0 21.333 8.533 21.333 21.333v42.667c0 12.8-8.533 21.333-21.333 21.333zm0-256H149.334c-12.8 0-21.333-8.533-21.333-21.333V64c0-12.8 8.533-21.333 21.333-21.333h725.333C887.467 42.667 896 51.2 896 64v42.667c0 12.8-8.533 21.333-21.333 21.333z"/><glyph unicode="" glyph-name="network-signal" data-tags="network-signal" d="M798.614 363.285c8.32-8.32 21.845-8.32 30.165 0s8.32 21.845 0 30.165c-173.995 174.123-458.539 175.104-633.557 0-8.32-8.32-8.32-21.845 0-30.165s21.845-8.32 30.165 0c155.179 155.179 412.117 161.152 573.227 0zM104.683 526.613c224.64 224.597 589.995 224.597 814.635 0 8.32-8.32 21.845-8.32 30.165 0s8.32 21.845 0 30.165c-241.237 241.195-633.728 241.195-874.965 0-8.32-8.32-8.32-21.845 0-30.165s21.803-8.32 30.165 0zm603.435-296.448c-108.117 108.075-284.032 108.117-392.235 0-8.32-8.32-8.32-21.845 0-30.165s21.845-8.32 30.165 0c89.771 89.728 240.896 90.923 331.904 0 8.32-8.32 21.845-8.32 30.165 0s8.32 21.803 0 30.165zM405.313-8.64c0-58.795 47.829-106.667 106.667-106.667S618.647-67.435 618.647-8.64 570.818 98.027 511.98 98.027 405.313 50.155 405.313-8.64zm170.666 0c0-35.285-28.715-64-64-64s-64 28.715-64 64 28.715 64 64 64 64-28.715 64-64z"/><glyph unicode="" glyph-name="network-user" data-tags="network-user" d="M1024.001 363.562c-11.307 263.083-218.325 471.04-477.739 488.064-1.451.213-2.816.299-4.267.213-9.984.597-19.883 1.493-29.995 1.493-9.984 0-19.797-.896-29.653-1.493-1.664.128-3.243 0-4.864-.256C219.691 834.26 14.123 625.748 1.28 366.804c-.299-1.365-.853-2.645-.853-4.139 0-.896.384-1.621.512-2.475C.726 353.875 0 347.689 0 341.331c0-87.637 22.272-170.155 61.269-242.517.341-.896.939-1.579 1.408-2.432 82.432-151.083 238.507-256.597 421.675-266.368.384-.043.768-.043 1.109-.043 4.352 0 8.149 1.579 11.563 3.84.384.256.896.128 1.237.427.341.256.512.64.811.896 1.195.981 2.133 2.219 3.072 3.413.725.939 1.493 1.835 2.048 2.859.683 1.195.939 2.56 1.365 3.883.384 1.323.853 2.603.939 3.968.043.341.256.597.256.896.043.981-.341 1.877-.427 2.773-.128 1.536-.213 3.029-.683 4.48-.427 1.408-1.109 2.645-1.835 3.883-.512.896-.683 1.92-1.28 2.731-55.168 73.643-97.621 147.627-128.811 221.312h138.923c11.776 0 21.333 9.557 21.333 21.333s-9.557 21.333-21.333 21.333H356.607c-26.069 72.021-40.363 143.317-43.477 213.333H1003.562c1.365.085 2.603.683 3.883.939 1.323.341 2.688.469 3.925.939 1.237.597 2.219 1.493 3.328 2.261 1.109.853 2.347 1.451 3.285 2.475.981.981 1.579 2.261 2.347 3.456.725 1.067 1.579 2.091 2.091 3.371.597 1.408.683 2.944.896 4.523.171 1.152.683 2.219.683 3.371 0 .171-.085.256-.085.427s.085.341.085.469zM44.844 384c7.083 78.251 33.451 150.869 74.283 213.333H311.98C286.935 528.597 273.495 457.13 271.959 384H44.844zm310.954 213.333h312.363C695.126 529.365 709.036 458.069 710.7 384H312.62c1.707 73.259 15.787 144.768 43.179 213.333zm356.864 0h192.981c40.533-62.251 66.56-134.784 73.643-213.333H753.323c-1.621 73.216-15.317 144.725-40.661 213.333zM874.454 640H695.211c-25.515 56.96-58.965 111.573-100.523 163.072C706.731 783.317 804.949 724.224 874.453 640zM533.292 809.642c48.512-53.717 86.869-110.379 115.627-169.643H375.17c28.715 59.093 67.029 115.925 115.541 169.6 7.083.299 14.08 1.067 21.291 1.067 7.168 0 14.165-.725 21.291-1.024zm-104.064-6.741c-41.685-51.755-74.88-106.24-100.011-162.901H150.23c69.376 83.925 167.467 142.933 278.997 162.901zm12.032-925.653C305.708-102.229 189.911-24.149 118.615 85.333h209.877c27.52-69.632 65.237-139.264 112.768-208.085zM313.004 128H93.996c-32.725 64.128-51.328 136.619-51.328 213.333h229.845c2.859-70.229 16.341-141.611 40.491-213.333zM966.87-52.992l-92.203 26.411V7.723c38.571 28.971 64 76.8 64 130.944 0 88.192-66.987 160-149.333 160s-149.333-71.808-149.333-160c0-54.187 25.429-102.016 64-130.944v-34.304l-92.203-26.411c-32.043-9.173-57.131-42.112-57.131-75.008v-21.333c0-11.776 9.557-21.333 21.333-21.333h426.667c11.776 0 21.333 9.557 21.333 21.333V-128c0 32.896-25.088 65.835-57.131 75.008zM789.334 256c48.043 0 88.235-35.285 101.589-83.413-6.571-2.176-15.275-3.328-25.003-1.877-9.771 1.451-27.648 6.485-37.205 24.277-3.2 5.931-9.003 9.984-15.701 11.008-6.315.811-13.355-1.237-18.176-6.059-30.976-30.976-77.141-33.536-105.771-22.699C703.659 222.976 742.87 256 789.334 256zm-106.24-121.814c37.675-11.093 85.504-6.229 123.392 20.139 13.824-13.611 32.299-22.699 53.248-25.771 5.163-.768 10.325-1.109 15.403-1.109 6.955 0 13.611.939 20.053 2.304-4.267-60.416-49.792-108.331-105.813-108.331-57.472-.085-104.064 50.176-106.283 112.768zM597.334-128c0 13.611 12.757 30.123 26.197 34.005l107.648 30.848a21.237 21.237 0 0 1 15.488 20.48v28.8c13.611-4.395 27.733-7.467 42.667-7.467s29.056 3.072 42.667 7.467v-28.8c0-9.515 6.272-17.877 15.445-20.48l107.648-30.848c13.483-3.883 26.24-20.395 26.24-34.005h-384z"/><glyph unicode="" glyph-name="pencil" data-tags="pencil" d="m981.738 721.13-90.539 90.539c-40.235 40.277-110.592 40.277-150.869 0 0 0-633.941-634.069-654.677-654.805-.043-.043-.128-.043-.171-.128s-.085-.128-.128-.171l-10.581-10.581a21.273 21.273 0 0 1-5.675-10.197L4.373-140.053C.746-155.456 14.57-169.28 30.016-165.696l275.883 64.725a21.273 21.273 0 0 1 10.197 5.675l10.581 10.539c.043.043.128.043.171.128.043.043.085.128.128.171l654.763 654.763c41.515 41.6 41.515 109.269 0 150.827zM875.626 524.522 695.018 706.026l30.208 30.251 181.077-181.035-30.677-30.72zM311.701-39.36 130.709 141.632l534.144 534.229 180.608-181.504L311.701-39.36zM105.877 106.09 276.16-64.15 53.739-116.331l52.139 222.421zM951.53 600.469l-15.104-15.104-181.077 181.077 15.104 15.104c24.149 24.149 66.347 24.192 90.539 0l90.539-90.581c24.917-24.917 24.917-65.536 0-90.496z"/><glyph unicode="" glyph-name="person" data-tags="person" d="M839.552 125.077 640 196.373v94.165c64.128 49.579 106.667 135.04 106.667 232.149 0 152.917-105.259 277.333-234.667 277.333S277.333 675.561 277.333 522.644c0-97.109 42.539-182.571 106.667-232.149V196.33l-199.595-71.296c-59.264-21.163-99.072-77.653-99.072-140.587v-80.469c0-11.776 9.557-21.333 21.333-21.333h810.667c11.776 0 21.333 9.557 21.333 21.333v80.469c0 62.933-39.851 119.424-99.115 140.629zM512 757.311c94.037 0 172.331-83.072 188.715-192.299-.299-.043-.469-.043-.768-.085-61.995-11.947-100.352 8.192-136.789 71.979-3.84 6.784-9.771 10.453-18.944 10.752-7.808-.128-14.891-4.523-18.517-11.477-19.627-37.76-85.888-70.869-141.696-70.869-21.717 0-40.363 3.584-58.709 11.093 19.968 103.552 96 180.907 186.709 180.907zM320 522.645c0 3.456.299 6.827.427 10.24 20.011-6.741 40.704-10.24 63.573-10.24 58.624 0 122.923 27.861 159.36 66.133 34.005-47.317 74.112-69.76 125.056-69.76 11.264 0 23.253 1.451 35.584 3.627 0-129.408-86.144-234.667-192-234.667S320 393.237 320 522.645zM896-74.689H128v59.136c0 44.928 28.459 85.291 70.784 100.437l213.717 76.331a21.355 21.355 0 0 1 14.165 20.096v83.243c26.496-12.288 55.211-19.243 85.333-19.243s58.837 6.997 85.333 19.243v-83.243a21.356 21.356 0 0 1 14.165-20.096l213.675-76.331c42.368-15.147 70.827-55.509 70.827-100.437v-59.136z"/><glyph unicode="" glyph-name="picture" data-tags="picture" d="M1002.667 640c-11.776 0-21.333-9.557-21.333-21.333V-128H234.667c-11.776 0-21.333-9.557-21.333-21.333s9.557-21.333 21.333-21.333h768c11.776 0 21.333 9.557 21.333 21.333v768c0 11.776-9.557 21.333-21.333 21.333zm-64-704v810.667c0 11.776-9.557 21.333-21.333 21.333s-21.333-9.557-21.333-21.333V-42.666H106.668c-11.776 0-21.333-9.557-21.333-21.333s9.557-21.333 21.333-21.333h810.667c11.776 0 21.333 9.557 21.333 21.333zm-85.334 85.333V832c0 11.776-9.557 21.333-21.333 21.333H21.333C9.557 853.333 0 843.776 0 832V21.333C0 9.557 9.557 0 21.333 0H832c11.776 0 21.333 9.557 21.333 21.333zm-42.666 789.333V213.333h-70.528L617.344 540.842c-2.816 7.467-9.6 12.757-17.536 13.696-7.979.939-15.744-2.688-20.181-9.387L424.832 312.959l-88.448 106.027c-4.437 5.291-11.136 8.149-18.048 7.595s-13.099-4.395-16.64-10.283L179.925 213.333H42.666v597.333h768zM694.528 213.333H229.675l93.184 155.264 87.424-104.917c4.309-5.163 10.112-7.851 17.536-7.637 6.699.384 12.885 3.883 16.597 9.472L591.957 486.87l102.571-273.536zM42.667 42.666v128h768v-128h-768zm213.333 512c47.061 0 85.333 38.272 85.333 85.333S303.061 725.332 256 725.332s-85.333-38.272-85.333-85.333 38.272-85.333 85.333-85.333zm0 128c23.509 0 42.667-19.157 42.667-42.667S279.51 597.332 256 597.332s-42.667 19.157-42.667 42.667S232.49 682.666 256 682.666z"/><glyph unicode="" glyph-name="play-button" data-tags="play-button" d="M512-170.667c-282.325 0-512 229.675-512 512s229.675 512 512 512 512-229.675 512-512-229.675-512-512-512zm0 981.333c-258.773 0-469.333-210.56-469.333-469.333S253.227-128 512-128 981.333 82.56 981.333 341.333 770.773 810.666 512 810.666zM362.667 128a21.573 21.573 0 0 0-11.221 3.157c-6.272 3.925-10.112 10.795-10.112 18.176v384c0 7.381 3.84 14.251 10.112 18.176 6.272 3.883 14.165 4.224 20.736.896l384-192c7.253-3.627 11.819-11.008 11.819-19.072s-4.565-15.445-11.776-19.072l-384-192c-3.029-1.493-6.272-2.261-9.557-2.261zM384 498.816V183.808l314.965 157.525L384 498.816z"/><glyph unicode="" glyph-name="projector-screen" data-tags="projector-screen" d="M1002.667 854.356H21.334c-11.776 0-21.333-9.557-21.333-21.333V150.356c0-11.776 9.557-21.333 21.333-21.333h417.835L176.94-133.206c-8.32-8.32-8.32-21.845 0-30.165s21.845-8.32 30.165 0L469.334 98.858V-148.31c0-11.776 9.557-21.333 21.333-21.333S512-160.086 512-148.31V98.858l262.229-262.272a21.426 21.426 0 0 1 30.208 0c8.32 8.32 8.32 21.845 0 30.165L542.165 129.023h460.501c11.776 0 21.333 9.557 21.333 21.333v682.667c0 11.776-9.557 21.333-21.333 21.333zm-21.334-42.667v-128H42.666v128h938.667zm-938.666-640v469.333h938.667V171.689H42.667z"/><glyph unicode="" glyph-name="qr-code" data-tags="qr-code" d="M320 853.333H21.333C9.557 853.333 0 843.776 0 832V533.333C0 521.557 9.557 512 21.333 512H320c11.776 0 21.333 9.557 21.333 21.333V832c0 11.776-9.557 21.333-21.333 21.333zm-21.333-298.667h-256v256h256v-256zm-192 42.667h128c11.776 0 21.333 9.557 21.333 21.333v128c0 11.776-9.557 21.333-21.333 21.333h-128c-11.776 0-21.333-9.557-21.333-21.333v-128c0-11.776 9.557-21.333 21.333-21.333zm21.333 128h85.333V640H128v85.333zm192-554.667H21.333C9.557 170.666 0 161.109 0 149.333v-298.667c0-11.776 9.557-21.333 21.333-21.333H320c11.776 0 21.333 9.557 21.333 21.333v298.667c0 11.776-9.557 21.333-21.333 21.333zM298.667-128h-256v256h256v-256zm-192 42.666h128c11.776 0 21.333 9.557 21.333 21.333v128c0 11.776-9.557 21.333-21.333 21.333h-128c-11.776 0-21.333-9.557-21.333-21.333v-128c0-11.776 9.557-21.333 21.333-21.333zm21.333 128h85.333v-85.333H128v85.333zm725.334 106.667c0 11.776-9.557 21.333-21.333 21.333h-128c-11.776 0-21.333-9.557-21.333-21.333v-128C682.668 9.557 692.225 0 704.001 0h128c11.776 0 21.333 9.557 21.333 21.333v128zM810.667 42.666h-85.333v85.333h85.333V42.666zm192 810.667H704c-11.776 0-21.333-9.557-21.333-21.333V533.333c0-11.776 9.557-21.333 21.333-21.333h298.667c11.776 0 21.333 9.557 21.333 21.333V832c0 11.776-9.557 21.333-21.333 21.333zm-21.333-298.667h-256v256h256v-256zm-192 42.667h128c11.776 0 21.333 9.557 21.333 21.333v128c0 11.776-9.557 21.333-21.333 21.333h-128c-11.776 0-21.333-9.557-21.333-21.333v-128c0-11.776 9.557-21.333 21.333-21.333zm21.333 128H896V640h-85.333v85.333zM405.334 426.666h149.333c11.776 0 21.333 9.557 21.333 21.333s-9.557 21.333-21.333 21.333H405.334c-11.776 0-21.333-9.557-21.333-21.333s9.557-21.333 21.333-21.333zm0-213.333h149.333c11.776 0 21.333 9.557 21.333 21.333s-9.557 21.333-21.333 21.333h-128v106.667c0 11.776-9.557 21.333-21.333 21.333s-21.333-9.557-21.333-21.333v-128c0-11.776 9.557-21.333 21.333-21.333zm-85.334 256H21.333C9.557 469.333 0 459.776 0 448s9.557-21.333 21.333-21.333h277.333v-64c0-11.776 9.557-21.333 21.333-21.333s21.333 9.557 21.333 21.333V448c0 11.776-9.557 21.333-21.333 21.333zm682.667 0h-42.88c-11.776 0-21.333-9.557-21.333-21.333V234.667c0-11.776 9.557-21.333 21.333-21.333s21.333 9.557 21.333 21.333v192h21.547c11.776 0 21.333 9.557 21.333 21.333s-9.557 21.333-21.333 21.333zm-128.213-256c11.776 0 21.333 9.557 21.333 21.333v128c0 11.776-9.557 21.333-21.333 21.333s-21.333-9.557-21.333-21.333v-128c0-11.776 9.557-21.333 21.333-21.333zM639.787 362.666c0-11.776 9.557-21.333 21.333-21.333s21.333 9.557 21.333 21.333v64h170.88c11.776 0 21.333 9.557 21.333 21.333s-9.557 21.333-21.333 21.333H661.12c-11.776 0-21.333-9.557-21.333-21.333v-85.333zm-106.453 320c-11.776 0-21.333-9.557-21.333-21.333V576c0-11.776 9.557-21.333 21.333-21.333h85.333c11.776 0 21.333 9.557 21.333 21.333v170.667c0 11.776-9.557 21.333-21.333 21.333s-21.333-9.557-21.333-21.333V597.334h-42.667v64c0 11.776-9.557 21.333-21.333 21.333zM405.334 512c11.776 0 21.333 9.557 21.333 21.333v128c0 11.776-9.557 21.333-21.333 21.333s-21.333-9.557-21.333-21.333v-128c0-11.776 9.557-21.333 21.333-21.333zm85.333 298.666h128c11.776 0 21.333 9.557 21.333 21.333s-9.557 21.333-21.333 21.333h-128c-11.776 0-21.333-9.557-21.333-21.333s9.557-21.333 21.333-21.333zm-85.333-85.333h85.333c11.776 0 21.333 9.557 21.333 21.333s-9.557 21.333-21.333 21.333h-64v64c0 11.776-9.557 21.333-21.333 21.333s-21.333-9.557-21.333-21.333v-85.333c0-11.776 9.557-21.333 21.333-21.333zM234.667 298.666c11.776 0 21.333 9.557 21.333 21.333s-9.557 21.333-21.333 21.333h-128c-11.776 0-21.333-9.557-21.333-21.333s9.557-21.333 21.333-21.333h128zM21.334 213.333h85.333c11.776 0 21.333 9.557 21.333 21.333s-9.557 21.333-21.333 21.333h-64v106.667c0 11.776-9.557 21.333-21.333 21.333S.001 374.442.001 362.666v-128c0-11.776 9.557-21.333 21.333-21.333zm981.333-42.667h-85.333c-11.776 0-21.333-9.557-21.333-21.333V-128H533.334c-11.776 0-21.333-9.557-21.333-21.333s9.557-21.333 21.333-21.333h384c11.776 0 21.333 9.557 21.333 21.333V128h42.667V21.333C981.334 9.557 990.891 0 1002.667 0S1024 9.557 1024 21.333v128c0 11.776-9.557 21.333-21.333 21.333zM554.667-64c0 11.776-9.557 21.333-21.333 21.333H426.667v149.333c0 11.776-9.557 21.333-21.333 21.333s-21.333-9.557-21.333-21.333V-64.001c0-11.776 9.557-21.333 21.333-21.333h128c11.776 0 21.333 9.557 21.333 21.333zm64-21.334H832c11.776 0 21.333 9.557 21.333 21.333S843.776-42.668 832-42.668H640v85.333c0 11.776-9.557 21.333-21.333 21.333s-21.333-9.557-21.333-21.333V-64.002c0-11.776 9.557-21.333 21.333-21.333zM469.12 149.333v-128C469.12 9.557 478.677 0 490.453 0s21.333 9.557 21.333 21.333V128h106.88c11.776 0 21.333 9.557 21.333 21.333s-9.557 21.333-21.333 21.333H490.453c-11.776 0-21.333-9.557-21.333-21.333zM320 256h-85.333c-11.776 0-21.333-9.557-21.333-21.333s9.557-21.333 21.333-21.333H320c11.776 0 21.333 9.557 21.333 21.333S331.776 256 320 256zm234.667 128h-85.333c-11.776 0-21.333-9.557-21.333-21.333s9.557-21.333 21.333-21.333h85.333c11.776 0 21.333 9.557 21.333 21.333S566.443 384 554.667 384zm191.787-42.667c-11.776 0-21.333-9.557-21.333-21.333v-64h-64c-11.776 0-21.333-9.557-21.333-21.333s9.557-21.333 21.333-21.333h128c11.776 0 21.333 9.557 21.333 21.333S800.897 256 789.121 256h-21.333v64c0 11.776-9.557 21.333-21.333 21.333z"/><glyph unicode="" glyph-name="remove-circle" data-tags="remove-circle" d="M512-149.334c270.549 0 490.667 220.117 490.667 490.667S782.55 832 512 832 21.333 611.883 21.333 341.333 241.45-149.334 512-149.334zm0 938.666c247.04 0 448-200.96 448-448s-200.96-448-448-448-448 200.96-448 448 200.96 448 448 448zM315.861 145.194c8.32-8.32 21.845-8.32 30.165 0l165.973 165.973L677.93 145.194c8.32-8.32 21.845-8.32 30.165 0s8.32 21.845 0 30.165L542.164 341.332l165.931 165.931c8.32 8.32 8.32 21.845 0 30.165s-21.845 8.32-30.165 0L511.999 371.455 346.026 537.428c-8.32 8.32-21.845 8.32-30.165 0s-8.32-21.845 0-30.165l165.973-165.931-165.973-165.973c-8.32-8.32-8.32-21.803 0-30.165z"/><glyph unicode="" glyph-name="remove-circle-solid" data-tags="remove circle-solid" d="M512 832C240.981 832 21.333 612.352 21.333 341.333S240.981-149.334 512-149.334s490.667 219.648 490.667 490.667S783.019 832 512 832zm196.096-656.597c8.32-8.32 8.32-21.845 0-30.165s-21.845-8.32-30.165 0L512 311.169 346.069 145.238c-8.32-8.32-21.845-8.32-30.165 0s-8.32 21.845 0 30.165l165.931 165.931-165.931 165.931c-8.32 8.32-8.32 21.845 0 30.165s21.845 8.32 30.165 0L512 371.499 677.931 537.43c8.32 8.32 21.845 8.32 30.165 0s8.32-21.845 0-30.165L542.165 341.334l165.931-165.931z"/><glyph unicode="" glyph-name="report-problem-circle" data-tags="report-problem-circle" d="m520.32 832.063-8.747-.085C239.957 827.285 16.725 603.626 21.376 332.821 26.069 62.4 237.952-149.398 503.723-149.398l8.619.043c274.987 4.821 494.933 228.779 490.197 499.243-4.693 270.379-216.491 482.176-482.219 482.176zm-8.746-938.752-7.893-.043c-242.261 0-435.371 193.408-439.68 440.32-4.309 246.485 199.637 451.456 448.341 455.723l7.979.085c242.219 0 435.243-193.365 439.552-440.235 4.309-246.955-196.821-451.456-448.299-455.851zm.384 362.752c11.776 0 21.333 9.557 21.333 21.333v298.667c0 11.776-9.557 21.333-21.333 21.333s-21.333-9.557-21.333-21.333V277.396c0-11.776 9.557-21.333 21.333-21.333zm42.666-128c0-23.564-19.103-42.667-42.667-42.667s-42.667 19.103-42.667 42.667 19.103 42.667 42.667 42.667 42.667-19.103 42.667-42.667z"/><glyph unicode="" glyph-name="report-problem-triangle" data-tags="report-problem-triangle" d="M489.322 482.816V156.331c0-11.776 9.557-21.333 21.333-21.333s21.333 9.557 21.333 21.333v326.485c0 11.776-9.557 21.333-21.333 21.333s-21.333-9.557-21.333-21.333zm40.406 336.085c-7.253 14.464-30.933 14.464-38.187 0L22.208-119.766c-7.083-14.293 3.371-30.891 19.115-30.891H979.99c.299 0 .64-.043.853 0 18.688 0 28.032 22.144 15.872 35.584L529.728 818.9zM75.84-107.989l434.816 869.632 434.816-869.632H75.84zm477.482 128c0-23.564-19.103-42.667-42.667-42.667s-42.667 19.103-42.667 42.667 19.103 42.667 42.667 42.667 42.667-19.103 42.667-42.667z"/><glyph unicode="" glyph-name="rss-feed" data-tags="rss-feed" d="M0 469.333v-42.667c329.387 0 597.333-267.947 597.333-597.333H640c0 352.896-287.104 640-640 640zm0 384v-42.667c541.141 0 981.333-440.235 981.333-981.333H1024c0 564.608-459.392 1024-1024 1024zm128-768c-70.571 0-128-57.429-128-128s57.429-128 128-128 128 57.429 128 128-57.429 128-128 128zM128-128c-47.061 0-85.333 38.272-85.333 85.333 0 47.104 38.272 85.333 85.333 85.333s85.333-38.229 85.333-85.333C213.333-89.728 175.061-128 128-128z"/><glyph unicode="" glyph-name="search" data-tags="search" d="M1016.726-133.205 632.342 251.179c57.003 64.085 91.947 148.181 91.947 240.512 0 199.979-162.688 362.667-362.667 362.667S-1.045 691.67-1.045 491.691s162.688-362.667 362.667-362.667c92.331 0 176.427 34.944 240.512 91.989l384.384-384.384c8.32-8.32 21.845-8.32 30.165 0 8.363 8.32 8.363 21.803.043 30.165zM41.622 491.691c0 176.469 143.531 320 320 320s320-143.531 320-320-143.531-320-320-320-320 143.531-320 320z"/><glyph unicode="" glyph-name="server" data-tags="server" d="m1016.319 635.051-256 213.333a21.308 21.308 0 0 1-13.653 4.949H277.333a21.308 21.308 0 0 1-13.653-4.949l-256-213.333C2.773 630.998 0 624.982 0 618.667V-64c0-58.837 47.829-106.667 106.667-106.667h810.667c58.837 0 106.667 47.829 106.667 106.667v682.667c0 6.315-2.773 12.331-7.68 16.384zm-34.987-37.717V384.001H42.665v213.333h938.667zm-938.666-256h938.667V128.001H42.666v213.333zm242.389 469.333h453.931L943.786 640H80.255l204.8 170.667zm632.277-938.666H106.665c-35.285 0-64 28.715-64 64V85.334h938.667V-63.999c0-35.285-28.715-64-64-64zM639.999 490.667c0-23.564-19.103-42.667-42.667-42.667s-42.667 19.103-42.667 42.667 19.103 42.667 42.667 42.667 42.667-19.103 42.667-42.667zm128 0c0-23.564-19.103-42.667-42.667-42.667s-42.667 19.103-42.667 42.667 19.103 42.667 42.667 42.667 42.667-19.103 42.667-42.667zm128 0c0-23.564-19.103-42.667-42.667-42.667s-42.667 19.103-42.667 42.667 19.103 42.667 42.667 42.667 42.667-19.103 42.667-42.667zm-746.667-64c35.285 0 64 28.715 64 64s-28.715 64-64 64-64-28.715-64-64 28.715-64 64-64zm0 85.334c11.733 0 21.333-9.6 21.333-21.333s-9.6-21.333-21.333-21.333-21.333 9.6-21.333 21.333 9.6 21.333 21.333 21.333zm490.667-277.334c0-23.564-19.103-42.667-42.667-42.667s-42.667 19.103-42.667 42.667 19.103 42.667 42.667 42.667 42.667-19.103 42.667-42.667zm128 0c0-23.564-19.103-42.667-42.667-42.667s-42.667 19.103-42.667 42.667 19.103 42.667 42.667 42.667 42.667-19.103 42.667-42.667zm128 0c0-23.564-19.103-42.667-42.667-42.667s-42.667 19.103-42.667 42.667 19.103 42.667 42.667 42.667 42.667-19.103 42.667-42.667zm-746.667 64c-35.285 0-64-28.715-64-64s28.715-64 64-64 64 28.715 64 64-28.715 64-64 64zm0-85.333c-11.733 0-21.333 9.6-21.333 21.333S137.599 256 149.332 256s21.333-9.6 21.333-21.333-9.6-21.333-21.333-21.333zM639.999-21.333c0-23.564-19.103-42.667-42.667-42.667s-42.667 19.103-42.667 42.667 19.103 42.667 42.667 42.667 42.667-19.103 42.667-42.667zm128 0c0-23.564-19.103-42.667-42.667-42.667s-42.667 19.103-42.667 42.667 19.103 42.667 42.667 42.667 42.667-19.103 42.667-42.667zm128 0c0-23.564-19.103-42.667-42.667-42.667s-42.667 19.103-42.667 42.667 19.103 42.667 42.667 42.667 42.667-19.103 42.667-42.667zm-746.667 64c-35.285 0-64-28.715-64-64s28.715-64 64-64 64 28.715 64 64-28.715 64-64 64zm0-85.333c-11.733 0-21.333 9.6-21.333 21.333S137.599 0 149.332 0s21.333-9.6 21.333-21.333-9.6-21.333-21.333-21.333z"/><glyph unicode="" glyph-name="share" data-tags="share" d="M832 469.333c105.856 0 192 86.144 192 192s-86.144 192-192 192c-132.864 0-226.517-132.949-180.096-258.176L352.725 445.525c-35.2 54.528-94.891 87.808-160.725 87.808-105.856 0-192-86.144-192-192s86.144-192 192-192c65.835 0 125.525 33.28 160.725 87.808L652.074 87.466C606.037-36.779 697.77-170.667 831.999-170.667c105.856 0 192 86.144 192 192s-86.144 192-192 192c-65.835 0-125.781-33.109-161.024-87.68l-298.88 149.461a190.13 190.13 0 0 1 .043 132.437L670.975 556.97c35.243-54.528 95.189-87.637 161.024-87.637zm0-298.667c82.347 0 149.333-66.987 149.333-149.333S914.346-128 832-128C720.896-128 648.96-10.795 698.539 88.021c25.557 50.987 76.715 82.645 133.461 82.645zM192 192c-82.347 0-149.333 66.987-149.333 149.333S109.654 490.666 192 490.666c56.789 0 107.904-31.659 133.419-82.603v-.043C374.998 309.545 303.104 191.999 192 191.999zm640 618.666c82.347 0 149.333-66.987 149.333-149.333S914.346 512 832 512c-56.747 0-107.904 31.659-133.461 82.688l-.043.043C648.704 694.742 722.048 810.667 832 810.667z"/><glyph unicode="" glyph-name="share-solid" data-tags="share-solid" d="M832 213.333c-67.541 0-126.848-34.944-161.024-87.68l-298.88 149.461c15.829 42.411 16 89.515 0 132.437l298.88 149.419c34.176-52.736 93.483-87.637 161.024-87.637 105.984 0 192 85.973 192 192s-86.016 192-192 192c-132.693 0-226.432-132.053-180.096-258.176L352.683 445.525c-35.2 54.528-94.848 87.808-160.683 87.808-105.856 0-192-86.144-192-192s86.144-192 192-192c65.835 0 125.483 33.237 160.725 87.808L651.946 87.509c-46.336-126.208 47.36-258.176 180.053-258.176 105.984 0 192 85.973 192 192s-86.016 192-192 192z"/><glyph unicode="" glyph-name="shopping-cart" data-tags="shopping-cart" d="m894.4 121.215 128 384c2.133 6.528 1.067 13.696-2.987 19.243-3.968 5.589-10.411 8.875-17.28 8.875H247.274l-56.405 239.573c-2.219 9.6-10.837 16.427-20.736 16.427H20.8C9.024 789.333-.533 779.776-.533 768s9.557-21.333 21.333-21.333h132.437L314.944 59.563c-34.347-11.051-59.477-42.923-59.477-80.896 0-47.061 38.272-85.333 85.333-85.333s85.333 38.272 85.333 85.333c0 15.573-4.48 30.08-11.861 42.667h322.432C729.28 8.747 724.8-5.759 724.8-21.333c0-47.061 38.272-85.333 85.333-85.333s85.333 38.272 85.333 85.333S857.194 64 810.133 64H357.696l-10.027 42.667h526.464c9.173 0 17.323 5.888 20.267 14.549zM383.467-21.335c0-23.509-19.115-42.667-42.667-42.667s-42.667 19.157-42.667 42.667 19.115 42.667 42.667 42.667 42.667-19.157 42.667-42.667zm469.333 0c0-23.509-19.115-42.667-42.667-42.667s-42.667 19.157-42.667 42.667 19.115 42.667 42.667 42.667S852.8 2.175 852.8-21.335zM337.643 149.332l-80.341 341.333h715.264L858.774 149.332H337.643z"/><glyph unicode="" glyph-name="smartwatch" data-tags="smartwatch" d="m760.533 638.592-35.2 70.443V832c0 11.776-9.557 21.333-21.333 21.333H320c-11.776 0-21.333-9.557-21.333-21.333V709.035l-35.2-70.443c-52.224-6.869-92.8-51.157-92.8-105.259v-384c0-54.101 40.576-98.389 92.8-105.259l35.2-70.443v-122.965c0-11.776 9.557-21.333 21.333-21.333h384c11.776 0 21.333 9.557 21.333 21.333v122.965l35.2 70.443c52.224 6.869 92.8 51.157 92.8 105.259v384c0 54.101-40.576 98.389-92.8 105.259zm-427.349 44.074h357.632l21.333-42.667H311.85l21.333 42.667zm8.149 128h341.333v-85.333H341.333v85.333zM690.816 0H333.184l-21.333 42.667H712.15L690.817 0zm-8.149-128H341.334v85.333h341.333V-128zm128 277.333c0-35.285-28.715-64-64-64H277.334c-35.285 0-64 28.715-64 64v384c0 35.285 28.715 64 64 64h469.333c35.285 0 64-28.715 64-64v-384zm-64 149.333H277.334c-11.776 0-21.333-9.557-21.333-21.333v-128c0-11.776 9.557-21.333 21.333-21.333h469.333c11.776 0 21.333 9.557 21.333 21.333v128c0 11.776-9.557 21.333-21.333 21.333zm-21.334-128H298.666v85.333h426.667v-85.333zm-42.666 192c54.016 0 54.016 62.037 54.016 85.376 0 21.077 0 85.291-54.016 85.291-54.059 0-54.059-64.213-54.059-85.291 0-23.339 0-85.376 54.059-85.376zm0 128c3.115 0 11.349 0 11.349-42.624 0-42.709-8.235-42.709-11.349-42.709s-11.392 0-11.392 42.709c0 42.624 8.277 42.624 11.392 42.624zM512 410.965h34.005v-24.277c0-11.776 9.557-21.333 21.333-21.333s21.333 9.557 21.333 21.333v27.563c6.016 3.755 10.027 10.453 10.027 18.091s-4.011 14.336-10.027 18.091v61.568c0 9.344-6.059 17.579-14.976 20.395-8.875 2.645-18.56-.597-23.893-8.192l-55.339-79.701c-4.523-6.528-5.077-15.019-1.365-22.059a21.261 21.261 0 0 1 18.901-11.477zm-160.768 4.309c2.347 0 4.224.981 6.443 1.195-6.443-10.88-17.408-11.136-22.016-11.136-11.776 0-21.333-9.557-21.333-21.333s9.557-21.333 21.333-21.333c42.325 0 69.675 29.824 69.675 75.989v34.987c0 34.901-21.717 58.368-54.101 58.368-32.299 0-54.016-23.467-54.016-58.368.043-34.901 21.76-58.368 54.016-58.368zm0 74.07c4.523 0 11.435 0 11.435-15.701 0-15.659-6.869-15.659-11.435-15.659-4.523 0-11.349 0-11.349 15.659.043 15.701 6.827 15.701 11.349 15.701zM469.333 480c0-5.891-4.776-10.667-10.667-10.667s-10.667 4.776-10.667 10.667 4.776 10.667 10.667 10.667 10.667-4.776 10.667-10.667zm0-64c0-5.891-4.776-10.667-10.667-10.667s-10.667 4.776-10.667 10.667 4.776 10.667 10.667 10.667 10.667-4.776 10.667-10.667z"/><glyph unicode="" glyph-name="star" data-tags="star" d="M1022.676 497.344c-3.115 8.405-11.093 13.952-20.011 13.952H654.804L531.967 838.805c-6.229 16.64-33.664 16.64-39.936 0L369.194 511.296H21.333c-8.917 0-16.896-5.547-20.011-13.952a21.227 21.227 0 0 1 6.144-23.595L295.21 227.05 171.733-143.339c-2.901-8.832.171-18.517 7.68-23.979s17.707-5.461 25.216.043L512 58.176l307.371-225.408c3.755-2.773 8.192-4.139 12.629-4.139s8.832 1.365 12.587 4.096c7.509 5.461 10.581 15.189 7.68 23.979L728.79 227.093l287.744 246.699a21.213 21.213 0 0 1 6.144 23.552zM690.132 250.133c-6.571-5.589-9.131-14.677-6.357-22.955L790.612-93.206 524.671 101.823c-3.797 2.773-8.235 4.139-12.672 4.139s-8.875-1.365-12.629-4.139L233.429-93.206l106.837 320.384c2.731 8.235.213 17.323-6.357 22.955L79.018 468.629h304.981c8.875 0 16.853 5.504 19.968 13.824l108.032 288.085 108.032-288.085c3.115-8.32 11.093-13.824 19.968-13.824H944.98L690.132 250.133z"/><glyph unicode="" glyph-name="subtract-circle" data-tags="subtract-circle" d="M512-149.334c270.549 0 490.667 220.117 490.667 490.667S782.55 832 512 832 21.333 611.883 21.333 341.333 241.45-149.334 512-149.334zm0 938.666c247.04 0 448-200.96 448-448s-200.96-448-448-448-448 200.96-448 448 200.96 448 448 448zM256 319.999h512c11.776 0 21.333 9.557 21.333 21.333s-9.557 21.333-21.333 21.333H256c-11.776 0-21.333-9.557-21.333-21.333s9.557-21.333 21.333-21.333z"/><glyph unicode="" glyph-name="synchronize" data-tags="synchronize" d="M299.798 413.397c-9.003 7.509-22.443 6.315-30.037-2.688L162.028 281.642c-10.624 76.715 5.035 154.795 46.165 223.659 50.261 84.224 132.352 145.109 225.28 167.04 122.496 29.013 250.667-11.605 334.293-106.027 7.851-8.875 21.291-9.685 30.08-1.835 8.832 7.808 9.685 21.291 1.835 30.08-93.995 106.283-238.037 152.149-376.021 119.296-104.021-24.533-195.968-92.587-252.075-186.667-38.229-63.957-56.619-134.997-55.253-206.464L48.193 422.228c-6.613 9.899-19.968 12.373-29.568 5.845-9.771-6.571-12.416-19.84-5.845-29.568l118.912-177.067c7.936-11.733 24.875-12.8 34.091-1.792L302.53 383.401c7.509 9.003 6.315 22.443-2.731 29.995zm592.64 2.432c-9.557 14.208-28.117 11.861-37.077-1.792L721.558 253.866c-7.552-9.045-6.315-22.485 2.688-30.037 9.088-7.552 22.485-6.357 30.037 2.688l102.613 122.837C860.565 194.986 747.883 45.183 590.485 8.021c-114.944-27.349-234.112 6.187-318.507 89.344-8.32 8.192-21.845 8.192-30.165-.256-8.235-8.363-8.149-21.888.256-30.165C337.258-26.923 471.402-64.043 600.298-33.493 772.629 7.168 894.399 160.683 899.861 328.15l75.947-113.152c6.656-9.941 20.053-12.288 29.568-5.845 9.771 6.571 12.416 19.84 5.845 29.568L892.437 415.83z"/><glyph unicode="" glyph-name="synchronize-2" data-tags="synchronize-2" d="M577.472 767.998c-233.173 0-422.997-188.075-426.325-420.437L61.888 481.406c-6.571 9.813-19.925 12.416-29.568 5.931-9.813-6.528-12.459-19.797-5.931-29.568l128-192c7.253-11.008 25.131-12.672 33.792-2.219l149.333 170.667c7.808 8.875 6.869 22.315-2.005 30.08-8.789 7.68-22.315 6.912-30.08-2.005L193.472 334.335c0 229.845 180.736 390.997 384 390.997 211.755 0 384-172.245 384-384s-172.245-384-384-384c-11.776 0-21.333-9.557-21.333-21.333s9.557-21.333 21.333-21.333c235.264 0 426.667 191.403 426.667 426.667S812.736 768 577.472 768z"/><glyph unicode="" glyph-name="tablet-ipad" data-tags="tablet-ipad" d="M789.333 853.333H234.666c-58.795 0-106.667-47.829-106.667-106.667V-64.001c0-58.837 47.872-106.667 106.667-106.667h554.667C848.128-170.668 896-122.839 896-64.001v810.667c0 58.837-47.872 106.667-106.667 106.667zm64-917.333c0-35.285-28.715-64-64-64H234.666c-35.285 0-64 28.715-64 64v810.667c0 35.285 28.715 64 64 64h554.667c35.285 0 64-28.715 64-64V-64zm-64 789.333H234.666c-11.776 0-21.333-9.557-21.333-21.333V21.333C213.333 9.557 222.89 0 234.666 0h554.667c11.776 0 21.333 9.557 21.333 21.333V704c0 11.776-9.557 21.333-21.333 21.333zM768 42.666H256v640h512v-640zM533.333 768c0-11.782-9.551-21.333-21.333-21.333s-21.333 9.551-21.333 21.333c0 11.782 9.551 21.333 21.333 21.333s21.333-9.551 21.333-21.333zM512-21.334c-23.509 0-42.667-19.115-42.667-42.667S488.49-106.668 512-106.668s42.667 19.115 42.667 42.667S535.51-21.334 512-21.334zM512-64z"/></font>
</defs>
</svg>
