<svg xmlns="http://www.w3.org/2000/svg" width="198" height="60" viewBox="0 0 198 60"><g fill="none" fill-rule="evenodd"><path fill="#FFF" d="M9.401 35.291h1.865V17.928H9.401zM16.84 25.122s1.242-1.985 3.851-1.985c2.859 0 4.847 1.985 4.847 5.085v7.07h-1.74v-7.07c0-2.108-1.366-3.472-3.23-3.472-2.113 0-3.728 1.612-3.728 3.968v6.573H15.1V23.385h1.74v1.737m12.663-5.706h1.615v3.969h2.61v1.613h-2.61v7.068c0 1.241.621 1.861 1.615 1.861.87 0 1.616-.372 1.616-.372v1.612s-.745.372-1.69.372c-2.038 0-3.281-1.24-3.281-3.473v-7.068H27.14v-1.613h1.367c.622 0 .995-.371.995-1.24v-2.729m7.594 9.054h8.077c-.248-2.108-1.864-3.72-3.977-3.72-2.112 0-3.852 1.736-4.1 3.72zm0 1.488c.124 2.108 1.988 3.97 4.225 3.97 2.51 0 3.852-1.985 3.852-1.985l1.119 1.116s-1.74 2.48-4.971 2.48-5.966-2.728-5.966-6.2c0-3.473 2.735-6.202 5.84-6.202 3.233 0 5.718 2.48 5.718 5.953 0 .496-.124.893-.124.893l-9.693-.025zM49.501 35.291h1.739V17.928h-1.739zM54.62 35.291h1.739V17.928H54.62zM59.694 35.291h1.74V23.385h-1.74V35.29zm.87-16.991c.621 0 1.118.496 1.118 1.116 0 .62-.497 1.117-1.118 1.117-.622 0-1.12-.496-1.12-1.117 0-.62.498-1.116 1.12-1.116zm8.87 15.131c2.112 0 3.976-1.86 3.976-4.34 0-2.481-1.864-4.341-3.977-4.341-1.988 0-3.853 1.86-3.853 4.34 0 2.48 1.865 4.341 3.853 4.341zm3.976-.372s-1.243 1.984-3.977 1.984c-2.983 0-5.592-2.604-5.592-5.953 0-3.348 2.61-5.953 5.592-5.953 2.734 0 3.977 1.985 3.977 1.985v-1.737h1.74v11.162c0 3.349-2.61 5.953-5.841 5.953-3.356 0-4.971-2.48-4.971-2.48l1.118-1.116s1.368 1.984 3.853 1.984c2.237 0 4.1-1.86 4.1-4.34v-1.489zm6.02-4.589h8.077c-.248-2.108-1.864-3.72-3.977-3.72-2.112 0-3.852 1.736-4.1 3.72zm0 1.488c.124 2.108 1.988 3.97 4.225 3.97 2.51 0 3.852-1.985 3.852-1.985l1.118 1.116s-1.74 2.48-4.97 2.48c-3.232 0-5.965-2.728-5.965-6.2 0-3.473 2.733-6.202 5.84-6.202 3.232 0 5.717 2.48 5.717 5.953 0 .496-.124.893-.124.893l-9.694-.025zm14.055-4.836s1.242-1.985 3.852-1.985c2.858 0 4.846 1.985 4.846 5.085v7.07h-1.738v-7.07c0-2.108-1.368-3.472-3.233-3.472-2.112 0-3.727 1.612-3.727 3.968v6.573h-1.74V23.385h1.74v1.737m12.663-5.706h1.615v3.969h2.61v1.613h-2.61v7.068c0 1.241.622 1.861 1.616 1.861a4.05 4.05 0 0 0 1.616-.372v1.612s-.746.372-1.691.372c-2.038 0-3.28-1.24-3.28-3.473v-7.068h-2.238v-1.613h1.368c.621 0 .994-.371.994-1.24v-2.729m14.412.249v7.44h4.723c2.237 0 3.728-1.487 3.728-3.72 0-2.232-1.491-3.72-3.728-3.72h-4.723zm4.723-1.737c3.231 0 5.592 2.356 5.592 5.457 0 3.1-2.361 5.457-5.592 5.457h-4.723v6.45h-1.863V17.927h6.586zm14.176 6.946h-.745c-1.989 0-3.729 1.488-3.729 3.844v6.573h-1.739V23.385h1.74v1.613s1.242-1.861 3.976-1.861h.497v1.737m6.63-.124c-2.362 0-4.35 1.984-4.35 4.588 0 2.58 1.988 4.59 4.35 4.59 2.36 0 4.35-1.985 4.35-4.59 0-2.604-1.99-4.588-4.35-4.588zm0-1.613c3.355 0 6.09 2.729 6.09 6.201 0 3.473-2.735 6.201-6.09 6.201-3.357 0-6.09-2.728-6.09-6.2 0-3.473 2.733-6.202 6.09-6.202zm13.761 0c3.107 0 4.847 2.357 4.847 2.357l-1.243 1.24s-1.243-1.984-3.604-1.984c-2.237 0-4.225 1.984-4.225 4.588 0 2.605 1.988 4.59 4.225 4.59 2.36 0 3.728-1.985 3.728-1.985l1.243 1.116s-1.864 2.48-4.97 2.48c-3.232 0-5.966-2.728-5.966-6.2 0-3.473 2.734-6.202 5.965-6.202m7.82 5.333h8.077c-.248-2.108-1.864-3.72-3.977-3.72-2.113 0-3.852 1.736-4.1 3.72zm0 1.488c.123 2.108 1.987 3.97 4.224 3.97 2.511 0 3.853-1.985 3.853-1.985l1.12 1.116s-1.74 2.48-4.973 2.48c-3.23 0-5.964-2.728-5.964-6.2 0-3.473 2.733-6.202 5.84-6.202 3.232 0 5.717 2.48 5.717 5.953 0 .496-.124.893-.124.893l-9.694-.025zm18.22-3.968s-.869-1.24-2.609-1.24c-1.367 0-2.237.868-2.237 1.736 0 2.604 6.463 1.24 6.463 5.457 0 1.984-1.616 3.596-4.35 3.596-2.983 0-4.35-2.108-4.35-2.108l1.243-1.24s1.12 1.736 3.107 1.736c1.74 0 2.61-.868 2.61-1.984 0-2.729-6.462-1.365-6.462-5.457 0-1.736 1.615-3.35 3.976-3.35 2.485 0 3.853 1.614 3.853 1.614l-1.243 1.24m10.184 0s-.87-1.24-2.61-1.24c-1.367 0-2.237.868-2.237 1.736 0 2.604 6.463 1.24 6.463 5.457 0 1.984-1.616 3.596-4.35 3.596-2.982 0-4.35-2.108-4.35-2.108l1.242-1.24s1.12 1.736 3.108 1.736c1.74 0 2.608-.868 2.608-1.984 0-2.729-6.46-1.365-6.46-5.457 0-1.736 1.615-3.35 3.976-3.35 2.484 0 3.853 1.614 3.853 1.614l-1.243 1.24M15.49 44.533l-3.354 8.185h6.71l-3.356-8.185zm-4.1 9.921L9.4 59.291H7.413l7.209-17.363h1.74l7.207 17.363h-1.988l-1.989-4.837H11.39zm22.48 3.225s-1.243 1.86-3.853 1.86c-2.734 0-4.846-2.108-4.846-5.209v-6.945h1.74v6.945c0 2.11 1.491 3.597 3.355 3.597 1.989 0 3.604-1.612 3.604-3.969v-6.573h1.74V59.29h-1.74V57.68m6.109-14.263h1.616v3.969h2.61v1.613h-2.61v7.068c0 1.241.62 1.861 1.615 1.861a4.05 4.05 0 0 0 1.616-.372v1.612s-.746.372-1.691.372c-2.038 0-3.28-1.24-3.28-3.473v-7.068h-2.237v-1.613h1.367c.621 0 .994-.371.994-1.24v-2.729m11.943 5.334c-2.361 0-4.35 1.984-4.35 4.588 0 2.58 1.989 4.59 4.35 4.59 2.362 0 4.35-1.985 4.35-4.59 0-2.604-1.988-4.588-4.35-4.588zm0-1.613c3.356 0 6.09 2.729 6.09 6.201 0 3.473-2.734 6.201-6.09 6.201-3.355 0-6.089-2.728-6.089-6.2 0-3.473 2.734-6.202 6.09-6.202zm24.495 5.085c0-2.257-1.244-3.472-2.983-3.472-1.74 0-3.232 1.488-3.232 3.968v6.573h-1.74v-7.07c0-2.231-1.242-3.471-2.982-3.471-1.74 0-3.231 1.488-3.231 3.968v6.573h-1.74V47.385h1.74v1.489s.994-1.737 3.355-1.737c2.859 0 3.853 2.109 3.853 2.109s1.118-2.11 4.101-2.11c2.61 0 4.598 1.762 4.598 5.086v7.07h-1.74v-7.07m12.197 1.736v-.744l-4.1.744c-1.492.273-2.237.992-2.237 2.108 0 .993.869 1.861 2.485 1.861 2.237 0 3.852-1.612 3.852-3.969zm0-2.232c0-1.736-1.242-2.976-2.983-2.976-2.112 0-3.354 1.736-3.354 1.736l-1.12-1.116s1.617-2.233 4.474-2.233c2.735 0 4.724 1.985 4.724 4.589v7.565h-1.74V57.68s-1.243 1.86-3.853 1.86c-2.485 0-4.226-1.736-4.226-3.473 0-1.984 1.243-3.224 3.48-3.596l4.598-.744zm5.741-8.31h1.616v3.969h2.61v1.613h-2.61v7.068c0 1.241.622 1.861 1.616 1.861.87 0 1.616-.372 1.616-.372v1.612s-.746.372-1.69.372c-2.04 0-3.281-1.24-3.281-3.473v-7.068h-2.237v-1.613h1.366c.622 0 .994-.371.994-1.24v-2.729m6.903 15.875h1.74V47.385h-1.74V59.29zm.87-16.991c.622 0 1.119.496 1.119 1.116 0 .62-.497 1.117-1.12 1.117a1.113 1.113 0 0 1-1.117-1.117c0-.62.497-1.116 1.118-1.116zm9.419 6.45c-2.362 0-4.35 1.984-4.35 4.588 0 2.58 1.988 4.59 4.35 4.59 2.36 0 4.35-1.985 4.35-4.59 0-2.604-1.99-4.588-4.35-4.588zm0-1.613c3.356 0 6.09 2.729 6.09 6.201 0 3.473-2.734 6.201-6.09 6.201s-6.09-2.728-6.09-6.2c0-3.473 2.734-6.202 6.09-6.202zm10.327 1.985s1.243-1.985 3.853-1.985c2.858 0 4.846 1.985 4.846 5.085v7.07h-1.74v-7.07c0-2.108-1.367-3.472-3.231-3.472-2.113 0-3.728 1.612-3.728 3.968v6.573h-1.74V47.385h1.74v1.737M24.967 7.61c0-1.046-.826-1.916-1.86-1.916-1.049 0-1.846.87-1.846 1.916 0 1.047.797 1.916 1.846 1.916 1.034 0 1.86-.87 1.86-1.916zm-5.684 0a3.814 3.814 0 0 1 3.824-3.83 3.815 3.815 0 0 1 3.824 3.83 3.815 3.815 0 0 1-3.824 3.832 3.815 3.815 0 0 1-3.824-3.832zm13.663-.014c0-1.091-.797-1.975-1.89-1.975-1.122 0-1.979.84-1.979 1.975 0 1.134.857 1.989 1.98 1.989 1.092 0 1.889-.899 1.889-1.989zm-5.764.014c0-2.608 1.92-3.83 3.588-3.83.96 0 1.712.397 2.2.942v-.796h2.023v7.162c0 2.078-1.315 3.758-3.81 3.758-1.875 0-3.248-.973-3.839-2.122l1.787-1.002c.384.766 1.063 1.252 2.052 1.252 1.093 0 1.787-.855 1.787-1.812v-.693c-.488.575-1.27.973-2.23.973-1.565 0-3.558-1.238-3.558-3.832zm8.504-3.684h2.009v.825a2.546 2.546 0 0 1 2.037-.972c1.743 0 2.79 1.12 2.79 3.021v4.494h-2.051v-4.23c0-.986-.458-1.56-1.36-1.56-.767 0-1.402.53-1.402 1.767v4.023h-2.023V3.926M45.712 9.496l3.883-3.786h-3.824V3.926h6.541v1.813l-3.884 3.772h3.958v1.783h-6.674V9.496M58.18 7.596c0-1.091-.798-1.975-1.89-1.975-1.123 0-1.98.84-1.98 1.975 0 1.134.857 1.989 1.98 1.989 1.092 0 1.89-.899 1.89-1.989zm-5.765.014c0-2.608 1.92-3.83 3.589-3.83.96 0 1.712.353 2.2.869v-.723h2.022v7.368h-2.023v-.825c-.487.575-1.27.973-2.23.973-1.565 0-3.558-1.238-3.558-3.832zm8.505-3.684h2.008v.825a2.546 2.546 0 0 1 2.038-.972c1.742 0 2.79 1.12 2.79 3.021v4.494h-2.052v-4.23c0-.986-.458-1.56-1.359-1.56-.768 0-1.403.53-1.403 1.767v4.023H60.92V3.926M43.147 11.292h2.023V3.924h-2.023zM43.147 3.47h2.023V1.653h-2.023zM72.534 5.736V3.924h-1.388V1.653h-2.023v2.271h-1.255v1.812h1.255v2.358c0 2.402.768 3.198 3.116 3.198h.295V9.406c-1.24 0-1.388-.177-1.388-1.327V5.736h1.388M8.782 5.91c0-3.212 2.421-5.525 5.537-5.525 2.023 0 3.78 1.06 4.725 2.667l-1.801 1.149c-.605-1.12-1.55-1.798-2.924-1.798-2.008 0-3.5 1.533-3.5 3.507 0 1.93 1.477 3.478 3.455 3.478 1.478 0 2.511-.854 3.057-2.004l1.876.987c-.945 1.828-2.747 3.066-4.888 3.066-3.337 0-5.537-2.461-5.537-5.527"/><path fill="#F4633A" d="M0 59.429h1.916V.543H0z"/></g></svg>