<svg xmlns="http://www.w3.org/2000/svg" width="198" height="60" viewBox="0 0 198 60">
  <g fill="none" fill-rule="evenodd">
    <polygon fill="#FFFFFF" points="9.401 35.291 11.266 35.291 11.266 17.928 9.401 17.928"/>
    <path fill="#FFFFFF" d="M16.8396194 25.1216C16.8396194 25.1216 18.0821296 23.1368 20.6914008 23.1368 23.5499757 23.1368 25.5379919 25.1216 25.5379919 28.2216L25.5379919 35.2912 23.7984777 35.2912 23.7984777 28.2216C23.7984777 26.1136 22.4317166 24.7496 20.5671498 24.7496 18.4548826 24.7496 16.8396194 26.3616 16.8396194 28.7176L16.8396194 35.2912 15.0993036 35.2912 15.0993036 23.3848 16.8396194 23.3848 16.8396194 25.1216M29.5028016 19.416L31.1180648 19.416 31.1180648 23.3848 33.7281377 23.3848 33.7281377 24.9976 31.1180648 24.9976 31.1180648 32.0664C31.1180648 33.3072 31.7393198 33.9272 32.7333279 33.9272 33.6038866 33.9272 34.3485911 33.5552 34.3485911 33.5552L34.3485911 35.1672C34.3485911 35.1672 33.6038866 35.5392 32.6587773 35.5392 30.6210607 35.5392 29.377749 34.2992 29.377749 32.0664L29.377749 24.9976 27.1412308 24.9976 27.1412308 23.3848 28.5079919 23.3848C29.1300486 23.3848 29.5028016 23.0136 29.5028016 22.1448L29.5028016 19.416M37.0965425 28.4704L45.1736599 28.4704C44.9259595 26.3616 43.3098947 24.7496 41.1968259 24.7496 39.0845587 24.7496 37.3450445 26.4856 37.0965425 28.4704zM37.0965425 29.9584C37.2207935 32.0664 39.0845587 33.9272 41.3218785 33.9272 43.8325506 33.9272 45.1736599 31.9432 45.1736599 31.9432L46.2927206 33.0592C46.2927206 33.0592 44.5524049 35.5392 41.3218785 35.5392 38.0905506 35.5392 35.3562267 32.8112 35.3562267 29.3384 35.3562267 25.8656 38.0905506 23.1368 41.1968259 23.1368 44.4289555 23.1368 46.9139757 25.6176 46.9139757 29.0904 46.9139757 29.5864 46.7897247 29.9832 46.7897247 29.9832L37.0965425 29.9584z"/>
    <polygon fill="#FFFFFF" points="49.501 35.291 51.24 35.291 51.24 17.928 49.501 17.928"/>
    <polygon fill="#FFFFFF" points="54.62 35.291 56.359 35.291 56.359 17.928 54.62 17.928"/>
    <path fill="#FFFFFF" d="M59.6941943 35.2912L61.4337085 35.2912 61.4337085 23.3848 59.6941943 23.3848 59.6941943 35.2912zM60.5639514 18.3C61.1852065 18.3 61.6822105 18.796 61.6822105 19.416 61.6822105 20.0368 61.1852065 20.5328 60.5639514 20.5328 59.9418947 20.5328 59.4448907 20.0368 59.4448907 19.416 59.4448907 18.796 59.9418947 18.3 60.5639514 18.3zM69.4330688 33.4312C71.5461377 33.4312 73.4099028 31.5704 73.4099028 29.0904 73.4099028 26.6096 71.5461377 24.7496 69.4330688 24.7496 67.4450526 24.7496 65.5804858 26.6096 65.5804858 29.0904 65.5804858 31.5704 67.4450526 33.4312 69.4330688 33.4312zM73.4099028 33.0592C73.4099028 33.0592 72.1673927 35.0432 69.4330688 35.0432 66.4502429 35.0432 63.8409717 32.4392 63.8409717 29.0904 63.8409717 25.7416 66.4502429 23.1368 69.4330688 23.1368 72.1673927 23.1368 73.4099028 25.1216 73.4099028 25.1216L73.4099028 23.3848 75.1502186 23.3848 75.1502186 34.5472C75.1502186 37.896 72.5401457 40.5 69.3088178 40.5 65.9532389 40.5 64.3379757 38.02 64.3379757 38.02L65.4562348 36.904C65.4562348 36.904 66.8237976 38.888 69.3088178 38.888 71.5461377 38.888 73.4099028 37.028 73.4099028 34.5472L73.4099028 33.0592zM79.4292632 28.4704L87.5071822 28.4704C87.2586802 26.3616 85.643417 24.7496 83.5303482 24.7496 81.418081 24.7496 79.6777652 26.4856 79.4292632 28.4704zM79.4292632 29.9584C79.5535142 32.0664 81.418081 33.9272 83.6545992 33.9272 86.1652713 33.9272 87.5071822 31.9432 87.5071822 31.9432L88.6254413 33.0592C88.6254413 33.0592 86.8859271 35.5392 83.6545992 35.5392 80.4232713 35.5392 77.689749 32.8112 77.689749 29.3384 77.689749 25.8656 80.4232713 23.1368 83.5303482 23.1368 86.7616761 23.1368 89.247498 25.6176 89.247498 29.0904 89.247498 29.5864 89.123247 29.9832 89.123247 29.9832L79.4292632 29.9584zM93.4848583 25.1216C93.4848583 25.1216 94.7273684 23.1368 97.3374413 23.1368 100.195215 23.1368 102.183231 25.1216 102.183231 28.2216L102.183231 35.2912 100.444518 35.2912 100.444518 28.2216C100.444518 26.1136 99.0769555 24.7496 97.2123887 24.7496 95.1001215 24.7496 93.4848583 26.3616 93.4848583 28.7176L93.4848583 35.2912 91.7445425 35.2912 91.7445425 23.3848 93.4848583 23.3848 93.4848583 25.1216M106.14804 19.416L107.763304 19.416 107.763304 23.3848 110.373377 23.3848 110.373377 24.9976 107.763304 24.9976 107.763304 32.0664C107.763304 33.3072 108.38536 33.9272 109.379368 33.9272 110.249126 33.9272 110.994632 33.5552 110.994632 33.5552L110.994632 35.1672C110.994632 35.1672 110.249126 35.5392 109.304016 35.5392 107.2663 35.5392 106.023789 34.2992 106.023789 32.0664L106.023789 24.9976 103.78647 24.9976 103.78647 23.3848 105.154032 23.3848C105.775287 23.3848 106.14804 23.0136 106.14804 22.1448L106.14804 19.416M120.560356 19.6648L120.560356 27.1056 125.283498 27.1056C127.520016 27.1056 129.011028 25.6176 129.011028 23.3848 129.011028 21.1528 127.520016 19.6648 125.283498 19.6648L120.560356 19.6648zM125.283498 17.928C128.514024 17.928 130.874794 20.284 130.874794 23.3848 130.874794 26.4856 128.514024 28.8424 125.283498 28.8424L120.560356 28.8424 120.560356 35.2912 118.696591 35.2912 118.696591 17.928 125.283498 17.928zM139.459336 24.8736L138.71383 24.8736C136.725012 24.8736 134.985498 26.3616 134.985498 28.7176L134.985498 35.2912 133.245984 35.2912 133.245984 23.3848 134.985498 23.3848 134.985498 24.9976C134.985498 24.9976 136.228008 23.1368 138.962332 23.1368L139.459336 23.1368 139.459336 24.8736M146.088729 24.7496C143.727158 24.7496 141.73834 26.7336 141.73834 29.3384 141.73834 31.9176 143.727158 33.9272 146.088729 33.9272 148.449498 33.9272 150.438316 31.9432 150.438316 29.3384 150.438316 26.7336 148.449498 24.7496 146.088729 24.7496zM146.088729 23.1368C149.444308 23.1368 152.178632 25.8656 152.178632 29.3384 152.178632 32.8112 149.444308 35.5392 146.088729 35.5392 142.732348 35.5392 139.998826 32.8112 139.998826 29.3384 139.998826 25.8656 142.732348 23.1368 146.088729 23.1368zM159.85013 23.1368C162.957206 23.1368 164.696721 25.4936 164.696721 25.4936L163.454211 26.7336C163.454211 26.7336 162.210899 24.7496 159.85013 24.7496 157.61281 24.7496 155.624794 26.7336 155.624794 29.3384 155.624794 31.9432 157.61281 33.9272 159.85013 33.9272 162.210899 33.9272 163.57766 31.9432 163.57766 31.9432L164.820972 33.0592C164.820972 33.0592 162.957206 35.5392 159.85013 35.5392 156.618802 35.5392 153.885279 32.8112 153.885279 29.3384 153.885279 25.8656 156.618802 23.1368 159.85013 23.1368M167.669126 28.4704L175.747045 28.4704C175.498543 26.3616 173.883279 24.7496 171.770211 24.7496 169.657142 24.7496 167.917628 26.4856 167.669126 28.4704zM167.669126 29.9584C167.793377 32.0664 169.657142 33.9272 171.894462 33.9272 174.405134 33.9272 175.747045 31.9432 175.747045 31.9432L176.866105 33.0592C176.866105 33.0592 175.126591 35.5392 171.894462 35.5392 168.663134 35.5392 165.929611 32.8112 165.929611 29.3384 165.929611 25.8656 168.663134 23.1368 171.770211 23.1368 175.001538 23.1368 177.48736 25.6176 177.48736 29.0904 177.48736 29.5864 177.363109 29.9832 177.363109 29.9832L167.669126 29.9584zM185.890737 25.9896C185.890737 25.9896 185.02098 24.7496 183.281466 24.7496 181.913903 24.7496 181.044146 25.6176 181.044146 26.4856 181.044146 29.0904 187.506802 27.7256 187.506802 31.9432 187.506802 33.9272 185.890737 35.5392 183.157215 35.5392 180.174389 35.5392 178.806826 33.4312 178.806826 33.4312L180.050138 32.1904C180.050138 32.1904 181.169198 33.9272 183.157215 33.9272 184.896729 33.9272 185.766486 33.0592 185.766486 31.9432 185.766486 29.2144 179.305433 30.5784 179.305433 26.4856 179.305433 24.7496 180.919895 23.1368 183.281466 23.1368 185.766486 23.1368 187.134049 24.7496 187.134049 24.7496L185.890737 25.9896M196.07451 25.9896C196.07451 25.9896 195.204753 24.7496 193.465239 24.7496 192.098478 24.7496 191.227919 25.6176 191.227919 26.4856 191.227919 29.0904 197.690575 27.7256 197.690575 31.9432 197.690575 33.9272 196.07451 35.5392 193.340988 35.5392 190.358964 35.5392 188.990599 33.4312 188.990599 33.4312L190.233109 32.1904C190.233109 32.1904 191.352972 33.9272 193.340988 33.9272 195.080502 33.9272 195.949457 33.0592 195.949457 31.9432 195.949457 29.2144 189.488405 30.5784 189.488405 26.4856 189.488405 24.7496 191.103668 23.1368 193.465239 23.1368 195.949457 23.1368 197.317822 24.7496 197.317822 24.7496L196.07451 25.9896M15.4912955 44.5328L12.1365182 52.7176 18.8468745 52.7176 15.4912955 44.5328zM11.3902105 54.4544L9.40139271 59.2912 7.41337652 59.2912 14.6215385 41.928 16.3610526 41.928 23.5692146 59.2912 21.5811984 59.2912 19.5923806 54.4544 11.3902105 54.4544zM33.8708259 57.6792C33.8708259 57.6792 32.6283158 59.5392 30.0182429 59.5392 27.283919 59.5392 25.1716518 57.4312 25.1716518 54.3304L25.1716518 47.3848 26.911166 47.3848 26.911166 54.3304C26.911166 56.4392 28.4029798 57.9272 30.2667449 57.9272 32.2555628 57.9272 33.8708259 56.3152 33.8708259 53.9584L33.8708259 47.3848 35.6111417 47.3848 35.6111417 59.2912 33.8708259 59.2912 33.8708259 57.6792M39.9799676 43.416L41.5960324 43.416 41.5960324 47.3848 44.2053036 47.3848 44.2053036 48.9976 41.5960324 48.9976 41.5960324 56.0664C41.5960324 57.3072 42.2164858 57.9272 43.2112955 57.9272 44.0810526 57.9272 44.8265587 57.5552 44.8265587 57.5552L44.8265587 59.1672C44.8265587 59.1672 44.0810526 59.5392 43.1359433 59.5392 41.0982267 59.5392 39.8557166 58.2992 39.8557166 56.0664L39.8557166 48.9976 37.6191984 48.9976 37.6191984 47.3848 38.9859595 47.3848C39.6072146 47.3848 39.9799676 47.0136 39.9799676 46.1448L39.9799676 43.416M51.9232955 48.7496C49.5617247 48.7496 47.5737085 50.7336 47.5737085 53.3384 47.5737085 55.9176 49.5617247 57.9272 51.9232955 57.9272 54.2848664 57.9272 56.2728826 55.9432 56.2728826 53.3384 56.2728826 50.7336 54.2848664 48.7496 51.9232955 48.7496zM51.9232955 47.1368C55.2788745 47.1368 58.0123968 49.8656 58.0123968 53.3384 58.0123968 56.8112 55.2788745 59.5392 51.9232955 59.5392 48.5677166 59.5392 45.8341943 56.8112 45.8341943 53.3384 45.8341943 49.8656 48.5677166 47.1368 51.9232955 47.1368zM76.4175789 52.2216C76.4175789 49.9648 75.1742672 48.7496 73.434753 48.7496 71.6944372 48.7496 70.2034251 50.2376 70.2034251 52.7176L70.2034251 59.2912 68.4639109 59.2912 68.4639109 52.2216C68.4639109 49.9896 67.2205992 48.7496 65.481085 48.7496 63.7407692 48.7496 62.2497571 50.2376 62.2497571 52.7176L62.2497571 59.2912 60.5102429 59.2912 60.5102429 47.3848 62.2497571 47.3848 62.2497571 48.8736C62.2497571 48.8736 63.2437652 47.1368 65.605336 47.1368 68.4639109 47.1368 69.457919 49.2456 69.457919 49.2456 69.457919 49.2456 70.5761781 47.1368 73.559004 47.1368 76.1682753 47.1368 78.1570931 48.8984 78.1570931 52.2216L78.1570931 59.2912 76.4175789 59.2912 76.4175789 52.2216M88.6142186 53.9584L88.6142186 53.2144 84.5131336 53.9584C83.0221215 54.2312 82.2766154 54.9504 82.2766154 56.0664 82.2766154 57.0592 83.1455709 57.9272 84.7616356 57.9272 86.9989555 57.9272 88.6142186 56.3152 88.6142186 53.9584zM88.6142186 51.7256C88.6142186 49.9896 87.3717085 48.7496 85.6313927 48.7496 83.5191255 48.7496 82.2766154 50.4856 82.2766154 50.4856L81.1575547 49.3696C81.1575547 49.3696 82.7736194 47.1368 85.6313927 47.1368 88.3657166 47.1368 90.3545344 49.1216 90.3545344 51.7256L90.3545344 59.2912 88.6142186 59.2912 88.6142186 57.6792C88.6142186 57.6792 87.3717085 59.5392 84.7616356 59.5392 82.2766154 59.5392 80.5362996 57.8032 80.5362996 56.0664 80.5362996 54.0824 81.7788097 52.8424 84.0161296 52.4704L88.6142186 51.7256zM94.355417 43.416L95.9706802 43.416 95.9706802 47.3848 98.580753 47.3848 98.580753 48.9976 95.9706802 48.9976 95.9706802 56.0664C95.9706802 57.3072 96.5927368 57.9272 97.5867449 57.9272 98.456502 57.9272 99.2028097 57.5552 99.2028097 57.5552L99.2028097 59.1672C99.2028097 59.1672 98.456502 59.5392 97.5121943 59.5392 95.4736761 59.5392 94.2319676 58.2992 94.2319676 56.0664L94.2319676 48.9976 91.9946478 48.9976 91.9946478 47.3848 93.3614089 47.3848C93.982664 47.3848 94.355417 47.0136 94.355417 46.1448L94.355417 43.416M101.258162 59.2912L102.997676 59.2912 102.997676 47.3848 101.258162 47.3848 101.258162 59.2912zM102.127919 42.3C102.749976 42.3 103.24698 42.796 103.24698 43.416 103.24698 44.0368 102.749976 44.5328 102.127919 44.5328 101.506664 44.5328 101.00966 44.0368 101.00966 43.416 101.00966 42.796 101.506664 42.3 102.127919 42.3zM111.546947 48.7496C109.185377 48.7496 107.196559 50.7336 107.196559 53.3384 107.196559 55.9176 109.185377 57.9272 111.546947 57.9272 113.907717 57.9272 115.896534 55.9432 115.896534 53.3384 115.896534 50.7336 113.907717 48.7496 111.546947 48.7496zM111.546947 47.1368C114.902526 47.1368 117.63685 49.8656 117.63685 53.3384 117.63685 56.8112 114.902526 59.5392 111.546947 59.5392 108.191368 59.5392 105.457045 56.8112 105.457045 53.3384 105.457045 49.8656 108.191368 47.1368 111.546947 47.1368zM121.874211 49.1216C121.874211 49.1216 123.116721 47.1368 125.726794 47.1368 128.584567 47.1368 130.573385 49.1216 130.573385 52.2216L130.573385 59.2912 128.83387 59.2912 128.83387 52.2216C128.83387 50.1136 127.466308 48.7496 125.601741 48.7496 123.489474 48.7496 121.874211 50.3616 121.874211 52.7176L121.874211 59.2912 120.133895 59.2912 120.133895 47.3848 121.874211 47.3848 121.874211 49.1216M24.9672389 7.6104C24.9672389 6.564 24.1407692 5.6944 23.1066802 5.6944 22.0581619 5.6944 21.2613522 6.564 21.2613522 7.6104 21.2613522 8.6568 22.0581619 9.5264 23.1066802 9.5264 24.1407692 9.5264 24.9672389 8.6568 24.9672389 7.6104zM19.2829555 7.6104C19.2829555 5.488 20.9807854 3.7792 23.1066802 3.7792 25.2333765 3.7792 26.9312065 5.488 26.9312065 7.6104 26.9312065 9.732 25.2333765 11.4416 23.1066802 11.4416 20.9807854 11.4416 19.2829555 9.732 19.2829555 7.6104zM32.9457571 7.596C32.9457571 6.5048 32.1489474 5.6208 31.0563401 5.6208 29.9340729 5.6208 29.0771417 6.4608 29.0771417 7.596 29.0771417 8.7304 29.9340729 9.5848 31.0563401 9.5848 32.1489474 9.5848 32.9457571 8.6864 32.9457571 7.596zM27.1821134 7.6104C27.1821134 5.0024 29.1011903 3.7792 30.7701619 3.7792 31.7297004 3.7792 32.4824211 4.1768 32.9698057 4.7224L32.9698057 3.9264 34.9930931 3.9264 34.9930931 11.088C34.9930931 13.1656 33.6784372 14.8456 31.182996 14.8456 29.3080081 14.8456 27.934834 13.8728 27.3440405 12.724L29.1308502 11.7216C29.5148259 12.488 30.1937976 12.9744 31.182996 12.9744 32.2764049 12.9744 32.9698057 12.1192 32.9698057 11.1616L32.9698057 10.4688C32.4824211 11.044 31.7000405 11.4416 30.740502 11.4416 29.1749393 11.4416 27.1821134 10.204 27.1821134 7.6104zM35.6864939 3.9264L37.6945506 3.9264 37.6945506 4.7512C38.1667045 4.148 38.8905668 3.7792 39.7322672 3.7792 41.4749879 3.7792 42.5227045 4.8992 42.5227045 6.8L42.5227045 11.2944 40.4705587 11.2944 40.4705587 7.0648C40.4705587 6.0776 40.012834 5.5032 39.1118138 5.5032 38.3438623 5.5032 37.7089798 6.0336 37.7089798 7.2712L37.7089798 11.2944 35.6864939 11.2944 35.6864939 3.9264"/>
    <polyline fill="#FFFFFF" points="45.712 9.496 49.595 5.71 45.771 5.71 45.771 3.926 52.312 3.926 52.312 5.739 48.428 9.511 52.386 9.511 52.386 11.294 45.712 11.294 45.712 9.496"/>
    <path fill="#FFFFFF" d="M58.1791336 7.596C58.1791336 6.5048 57.3823239 5.6208 56.2897166 5.6208 55.1674494 5.6208 54.3105182 6.4608 54.3105182 7.596 54.3105182 8.7304 55.1674494 9.5848 56.2897166 9.5848 57.3823239 9.5848 58.1791336 8.6864 58.1791336 7.596zM52.4154899 7.6104C52.4154899 5.0024 54.3345668 3.7792 56.0035385 3.7792 56.9630769 3.7792 57.7157976 4.1328 58.2031822 4.6488L58.2031822 3.9264 60.2264696 3.9264 60.2264696 11.2944 58.2031822 11.2944 58.2031822 10.4688C57.7157976 11.044 56.933417 11.4416 55.9738785 11.4416 54.4083158 11.4416 52.4154899 10.204 52.4154899 7.6104zM60.9198704 3.9264L62.9279271 3.9264 62.9279271 4.7512C63.400081 4.148 64.1239433 3.7792 64.9656437 3.7792 66.7075628 3.7792 67.756081 4.8992 67.756081 6.8L67.756081 11.2944 65.7039352 11.2944 65.7039352 7.0648C65.7039352 6.0776 65.2462105 5.5032 64.3451903 5.5032 63.5772389 5.5032 62.9423563 6.0336 62.9423563 7.2712L62.9423563 11.2944 60.9198704 11.2944 60.9198704 3.9264"/>
    <polygon fill="#FFFFFF" points="43.147 11.292 45.17 11.292 45.17 3.924 43.147 3.924"/>
    <polygon fill="#FFFFFF" points="43.147 3.47 45.17 3.47 45.17 1.653 43.147 1.653"/>
    <path fill="#FFFFFF" d="M72.5337328 5.736L72.5337328 3.924 71.1461296 3.924 71.1461296 1.6528 69.1228421 1.6528 69.1228421 3.924 67.8683077 3.924 67.8683077 5.736 69.1228421 5.736 69.1228421 8.0944C69.1228421 10.496 69.8907935 11.292 72.2387368 11.292L72.5337328 11.292 72.5337328 9.4056C71.2936275 9.4056 71.1461296 9.2288 71.1461296 8.0792L71.1461296 5.736 72.5337328 5.736M8.78174089 5.9104C8.78174089 2.6984 11.2034332.3848 14.3193279.3848 16.3418138.3848 18.0989636 1.4456 19.0440729 3.052L17.242834 4.2008C16.6376113 3.0816 15.692502 2.4032 14.3193279 2.4032 12.3112713 2.4032 10.8194575 3.936 10.8194575 5.9104 10.8194575 7.8408 12.2960405 9.388 14.2744372 9.388 15.7518219 9.388 16.7851093 8.5336 17.3310121 7.384L19.2068016 8.3712C18.2616923 10.1992 16.4604534 11.4368 14.3193279 11.4368 10.9821862 11.4368 8.78174089 8.976 8.78174089 5.9104"/>
    <polygon fill="#F4633A" points="0 59.429 1.916 59.429 1.916 .543 0 .543"/>
  </g>
</svg>
