<!-- Generated by IcoMoon.io -->
<svg version="1.1" xmlns="http://www.w3.org/2000/svg" width="24" height="24" viewBox="0 0 24 24">
<title>account-group</title>
<path d="M5.5 8.5h-5c-0.276 0-0.5 0.224-0.5 0.5v3c0 1.083 0.336 1.73 1 1.932v4.068c0 0.276 0.224 0.5 0.5 0.5h3c0.276 0 0.5-0.224 0.5-0.5v-4.068c0.663-0.202 0.999-0.849 1-1.932v-3c0-0.276-0.224-0.5-0.5-0.5zM5 12c-0.001 1-0.278 1-0.5 1-0.276 0-0.5 0.224-0.5 0.5v4h-2v-4c0-0.276-0.224-0.5-0.5-0.5-0.223 0-0.5 0-0.5-1v-2.5h4v2.5z"></path>
<path d="M23.5 8.5h-5c-0.276 0-0.5 0.224-0.5 0.5v3c0 1.083 0.336 1.73 1 1.932v4.068c0 0.276 0.224 0.5 0.5 0.5h3c0.276 0 0.5-0.224 0.5-0.5v-4.068c0.663-0.202 0.999-0.849 1-1.932v-3c0-0.276-0.224-0.5-0.5-0.5zM23 12c-0.001 1-0.278 1-0.5 1-0.276 0-0.5 0.224-0.5 0.5v4h-2v-4c0-0.276-0.224-0.5-0.5-0.5-0.223 0-0.5 0-0.5-1v-2.5h4v2.5z"></path>
<path d="M15.5 8.5h-7c-0.276 0-0.5 0.224-0.5 0.5v5c0 1.208 0.86 2.217 2 2.45v5.55c0 0.276 0.224 0.5 0.5 0.5h3c0.276 0 0.5-0.224 0.5-0.5v-5.55c1.14-0.232 2-1.242 2-2.45v-5c0-0.276-0.224-0.5-0.5-0.5zM15 14c0 0.827-0.673 1.5-1.5 1.5-0.276 0-0.5 0.224-0.5 0.5v5.5h-2v-5.5c0-0.276-0.224-0.5-0.5-0.5-0.827 0-1.5-0.673-1.5-1.5v-4.5h6v4.5z"></path>
<path d="M3 7.5c1.103 0 2-0.897 2-2 0-1.104-0.897-2-2-2s-2 0.896-2 2c0 1.103 0.897 2 2 2zM3 4.5c0.551 0 1 0.449 1 1s-0.449 1-1 1-1-0.449-1-1c0-0.551 0.449-1 1-1z"></path>
<path d="M21 7.5c1.103 0 2-0.897 2-2 0-1.104-0.897-2-2-2s-2 0.896-2 2c0 1.103 0.897 2 2 2zM21 4.5c0.551 0 1 0.449 1 1s-0.449 1-1 1-1-0.449-1-1c0-0.551 0.449-1 1-1z"></path>
<path d="M12 7.5c1.654 0 3-1.346 3-3s-1.346-3-3-3-3 1.346-3 3 1.346 3 3 3zM12 2.5c1.103 0 2 0.896 2 2 0 1.103-0.897 2-2 2s-2-0.897-2-2c0-1.104 0.897-2 2-2z"></path>
</svg>
