<!-- Generated by IcoMoon.io -->
<svg version="1.1" xmlns="http://www.w3.org/2000/svg" width="24" height="24" viewBox="0 0 24 24">
<title>arrow-box-up</title>
<path d="M7.2 14.5h9.6l-4.8-4.8z"></path>
<path d="M23.5 0h-23c-0.3 0-0.5 0.2-0.5 0.5v23c0 0.3 0.2 0.5 0.5 0.5h23c0.3 0 0.5-0.2 0.5-0.5v-23c0-0.3-0.2-0.5-0.5-0.5zM18.5 15c0 0 0 0 0 0 0 0.1 0 0.1 0 0.2s-0.1 0.1-0.1 0.1c0 0 0 0 0 0s0 0 0 0-0.1 0.1-0.1 0.1c0 0-0.1 0-0.1 0s0 0 0 0h-12.2c0 0 0 0 0 0-0.1 0-0.1 0-0.2 0-0.1-0.1-0.2-0.1-0.3-0.3 0-0.1 0-0.1 0-0.2 0 0 0 0 0 0s0 0 0 0c0-0.1 0-0.1 0-0.2s0.1-0.1 0.1-0.2l6-6c0.2-0.2 0.5-0.2 0.7 0l6 6c0 0 0.1 0.1 0.1 0.2 0.1 0.2 0.1 0.2 0.1 0.3 0 0 0 0 0 0z"></path>
</svg>
