<!-- Generated by IcoMoon.io -->
<svg version="1.1" xmlns="http://www.w3.org/2000/svg" width="24" height="24" viewBox="0 0 24 24">
<title>arrow-right-tail</title>
<path d="M23.955 11.57c-0.030-0.073-0.074-0.139-0.131-0.196l-7.199-7.199c-0.234-0.234-0.614-0.234-0.848 0s-0.234 0.614 0 0.848l6.175 6.175h-21.352c-0.331 0-0.6 0.269-0.6 0.6s0.269 0.6 0.6 0.6h21.352l-6.175 6.175c-0.234 0.234-0.234 0.614 0 0.848 0.116 0.118 0.27 0.176 0.424 0.176s0.307-0.059 0.425-0.175l7.199-7.199c0.056-0.056 0.101-0.124 0.131-0.196 0.060-0.149 0.060-0.312 0-0.46z"></path>
</svg>
