<!-- Generated by IcoMoon.io -->
<svg version="1.1" xmlns="http://www.w3.org/2000/svg" width="24" height="24" viewBox="0 0 24 24">
<title>bank-notes</title>
<path d="M23.5 4.5h-23c-0.276 0-0.5 0.224-0.5 0.5v14c0 0.276 0.224 0.5 0.5 0.5h23c0.276 0 0.5-0.224 0.5-0.5v-14c0-0.276-0.224-0.5-0.5-0.5zM23 18.5h-22v-13h22v13z"></path>
<path d="M12 15.5c1.93 0 3.5-1.57 3.5-3.5s-1.57-3.5-3.5-3.5-3.5 1.57-3.5 3.5 1.57 3.5 3.5 3.5zM12 9.5c1.379 0 2.5 1.122 2.5 2.5s-1.121 2.5-2.5 2.5-2.5-1.122-2.5-2.5 1.121-2.5 2.5-2.5z"></path>
<path d="M6 9.5c0 0.552-0.448 1-1 1s-1-0.448-1-1c0-0.552 0.448-1 1-1s1 0.448 1 1z"></path>
<path d="M20 14.5c0 0.552-0.448 1-1 1s-1-0.448-1-1c0-0.552 0.448-1 1-1s1 0.448 1 1z"></path>
<path d="M4.5 17.5h15c1.379 0 2.5-1.122 2.5-2.5v-6c0-1.378-1.121-2.5-2.5-2.5h-15c-1.379 0-2.5 1.122-2.5 2.5v6c0 1.378 1.121 2.5 2.5 2.5zM3 9c0-0.827 0.673-1.5 1.5-1.5h15c0.827 0 1.5 0.673 1.5 1.5v6c0 0.827-0.673 1.5-1.5 1.5h-15c-0.827 0-1.5-0.673-1.5-1.5v-6z"></path>
</svg>
