<!-- Generated by IcoMoon.io -->
<svg version="1.1" xmlns="http://www.w3.org/2000/svg" width="24" height="24" viewBox="0 0 24 24">
<title>barcode-scan</title>
<path d="M3.469 22h-2.969c-0.276 0-0.5-0.224-0.5-0.5v-2.969c0-0.276 0.224-0.5 0.5-0.5s0.5 0.224 0.5 0.5v2.469h2.469c0.276 0 0.5 0.224 0.5 0.5s-0.224 0.5-0.5 0.5z"></path>
<path d="M0.5 5.969c-0.276 0-0.5-0.224-0.5-0.5v-2.969c0-0.276 0.224-0.5 0.5-0.5h2.969c0.276 0 0.5 0.224 0.5 0.5s-0.224 0.5-0.5 0.5h-2.469v2.469c0 0.276-0.224 0.5-0.5 0.5z"></path>
<path d="M23.5 5.969c-0.276 0-0.5-0.224-0.5-0.5v-2.469h-2.469c-0.276 0-0.5-0.224-0.5-0.5s0.224-0.5 0.5-0.5h2.969c0.276 0 0.5 0.224 0.5 0.5v2.969c0 0.276-0.224 0.5-0.5 0.5z"></path>
<path d="M23.5 22h-2.969c-0.276 0-0.5-0.224-0.5-0.5s0.224-0.5 0.5-0.5h2.469v-2.469c0-0.276 0.224-0.5 0.5-0.5s0.5 0.224 0.5 0.5v2.969c0 0.276-0.224 0.5-0.5 0.5z"></path>
<path d="M3 7h1v10h-1v-10z"></path>
<path d="M5 7h1v7h-1v-7z"></path>
<path d="M7 7h1v7h-1v-7z"></path>
<path d="M10 7h1v7h-1v-7z"></path>
<path d="M12 7h1v7h-1v-7z"></path>
<path d="M14 7h1v7h-1v-7z"></path>
<path d="M16 7h1v7h-1v-7z"></path>
<path d="M18 7h1v7h-1v-7z"></path>
<path d="M20 7h1v10h-1v-10z"></path>
<path d="M5.998 15h-0.998v1h0.998v-1z"></path>
<path d="M7.998 15h-0.998v1h0.998v-1z"></path>
<path d="M10.998 15h-0.998v1h0.998v-1z"></path>
<path d="M12.998 15h-0.998v1h0.998v-1z"></path>
<path d="M14.998 15h-0.998v1h0.998v-1z"></path>
<path d="M16.998 15h-0.998v1h0.998v-1z"></path>
<path d="M18.998 15h-0.998v1h0.998v-1z"></path>
</svg>
