<!-- Generated by IcoMoon.io -->
<svg version="1.1" xmlns="http://www.w3.org/2000/svg" width="24" height="24" viewBox="0 0 24 24">
<title>bin</title>
<path d="M23 3h-7v-2.5c0-0.276-0.224-0.5-0.5-0.5h-8c-0.276 0-0.5 0.224-0.5 0.5v2.5h-6c-0.276 0-0.5 0.224-0.5 0.5s0.224 0.5 0.5 0.5h2v19.5c0 0.276 0.224 0.5 0.5 0.5h16c0.276 0 0.5-0.224 0.5-0.5v-19.5h3c0.276 0 0.5-0.224 0.5-0.5s-0.224-0.5-0.5-0.5zM8 1h7v2h-7v-2zM19 23h-15v-19h15v19z"></path>
<path d="M7.5 6.5c-0.276 0-0.5 0.224-0.5 0.5v12c0 0.276 0.224 0.5 0.5 0.5s0.5-0.224 0.5-0.5v-12c0-0.276-0.224-0.5-0.5-0.5z"></path>
<path d="M11.5 6.5c-0.276 0-0.5 0.224-0.5 0.5v12c0 0.276 0.224 0.5 0.5 0.5s0.5-0.224 0.5-0.5v-12c0-0.276-0.224-0.5-0.5-0.5z"></path>
<path d="M15 7v12c0 0.276 0.224 0.5 0.5 0.5s0.5-0.224 0.5-0.5v-12c0-0.276-0.224-0.5-0.5-0.5s-0.5 0.224-0.5 0.5z"></path>
</svg>
