<!-- Generated by IcoMoon.io -->
<svg version="1.1" xmlns="http://www.w3.org/2000/svg" width="24" height="24" viewBox="0 0 24 24">
<title>bluetooth</title>
<path d="M18.889 6.146l-6.053-6c-0.312-0.311-0.852-0.090-0.852 0.355v10.296l-6.161-5.664c-0.204-0.186-0.518-0.174-0.707 0.030-0.187 0.204-0.174 0.52 0.029 0.707l6.664 6.126-6.688 6.137c-0.204 0.187-0.217 0.503-0.030 0.707 0.188 0.205 0.505 0.216 0.706 0.031l6.188-5.678v10.308c0 0.449 0.542 0.665 0.852 0.355l6.053-6c0.206-0.204 0.193-0.533-0.013-0.723l-5.588-5.137 5.587-5.126c0.208-0.193 0.218-0.522 0.013-0.724zM17.813 17.514l-4.829 4.787v-9.227l4.829 4.44zM12.984 10.917v-9.217l4.828 4.786-4.828 4.431z"></path>
</svg>
