<!-- Generated by IcoMoon.io -->
<svg version="1.1" xmlns="http://www.w3.org/2000/svg" width="24" height="24" viewBox="0 0 24 24">
<title>bookmark</title>
<path d="M23.829 14.637l-14.508-14.516c-0.094-0.093-0.221-0.146-0.354-0.146h-8.492c-0.277 0-0.5 0.226-0.5 0.5l0.008 8.494c0 0.133 0.053 0.26 0.146 0.354l14.507 14.506c0.195 0.195 0.512 0.195 0.707 0l8.485-8.484c0.196-0.196 0.196-0.513 0.001-0.708zM14.99 22.768l-14.007-14.006-0.008-7.787h7.785l14.008 14.016-7.778 7.777z"></path>
<path d="M5.475 2.975c-1.379 0-2.5 1.121-2.5 2.5s1.121 2.5 2.5 2.5 2.5-1.121 2.5-2.5-1.121-2.5-2.5-2.5zM5.475 6.975c-0.827 0-1.5-0.673-1.5-1.5s0.673-1.5 1.5-1.5 1.5 0.673 1.5 1.5-0.673 1.5-1.5 1.5z"></path>
</svg>
