<!-- Generated by IcoMoon.io -->
<svg version="1.1" xmlns="http://www.w3.org/2000/svg" width="24" height="24" viewBox="0 0 24 24">
<title>book-open</title>
<path d="M22.263 2.124c-0.147-0.091-0.331-0.101-0.486-0.022l-9.777 4.888-9.776-4.888c-0.156-0.077-0.339-0.069-0.487 0.022-0.147 0.091-0.237 0.253-0.237 0.425v15.5c0 0.19 0.107 0.362 0.276 0.447l10 5c0.004 0.002 0.010 0.001 0.014 0.003 0.064 0.030 0.134 0.049 0.21 0.049s0.146-0.020 0.21-0.049c0.004-0.002 0.010-0.001 0.014-0.003l10-5c0.169-0.084 0.276-0.257 0.276-0.447v-15.5c0-0.172-0.090-0.334-0.237-0.425zM2.5 3.358l9 4.5v14.382l-9-4.5v-14.382zM21.5 17.74l-9 4.5v-14.382l9-4.5v14.382z"></path>
<path d="M3.773 1.471l8 4.048c0.070 0.036 0.148 0.054 0.226 0.054s0.155-0.018 0.226-0.054l8-4.048c0.246-0.125 0.346-0.426 0.221-0.672-0.125-0.248-0.427-0.347-0.672-0.221l-7.774 3.935-7.775-3.934c-0.246-0.126-0.548-0.027-0.672 0.22s-0.026 0.547 0.22 0.672z"></path>
</svg>
