<!-- Generated by IcoMoon.io -->
<svg version="1.1" xmlns="http://www.w3.org/2000/svg" width="24" height="24" viewBox="0 0 24 24">
<title>box</title>
<path d="M24 5.511v-0.004c0-0.004-0.003-0.008-0.003-0.013-0.002-0.070-0.021-0.138-0.052-0.201-0.010-0.021-0.024-0.039-0.037-0.059-0.029-0.044-0.064-0.082-0.106-0.115-0.013-0.009-0.019-0.025-0.031-0.033-0.010-0.006-0.022-0.005-0.032-0.011-0.014-0.008-0.023-0.021-0.039-0.027l-11.5-5c-0.127-0.056-0.271-0.056-0.398 0l-11.5 5c-0.017 0.007-0.027 0.021-0.043 0.030-0.012 0.007-0.026 0.006-0.036 0.013-0.013 0.008-0.018 0.023-0.030 0.033-0.041 0.033-0.075 0.070-0.102 0.113-0.014 0.020-0.028 0.037-0.037 0.058-0.030 0.062-0.048 0.129-0.051 0.199 0 0.005-0.003 0.009-0.003 0.013v13c0 0.202 0.121 0.384 0.308 0.462l12 5c0.061 0.025 0.127 0.038 0.192 0.038 0.070 0 0.141-0.014 0.207-0.045l11-5c0.179-0.081 0.293-0.259 0.293-0.455v-12.996zM12 1.053l10.27 4.465-3.98 1.809-9.897-4.706 3.607-1.568zM12.491 9.963l-10.715-4.464 5.399-2.348 9.922 4.718-4.606 2.094zM1 6.258l11 4.583v11.917l-11-4.583v-11.917zM23 18.186l-10 4.545v-11.902l10-4.545v11.902z"></path>
<path d="M9.724 12.561l-6-3c-0.155-0.078-0.34-0.069-0.486 0.022-0.148 0.091-0.238 0.252-0.238 0.425v5c0 0.19 0.107 0.362 0.276 0.447l6 3c0.071 0.035 0.148 0.053 0.224 0.053 0.092 0 0.183-0.025 0.263-0.075 0.147-0.091 0.237-0.252 0.237-0.425v-5c0-0.189-0.107-0.362-0.276-0.447zM9 17.199l-5-2.5v-3.882l5 2.5v3.882z"></path>
</svg>
