<!-- Generated by IcoMoon.io -->
<svg version="1.1" xmlns="http://www.w3.org/2000/svg" width="24" height="24" viewBox="0 0 24 24">
<title>bubble-chat-typing</title>
<path d="M22.5 2h-21c-0.827 0-1.5 0.673-1.5 1.5v13c0 0.827 0.673 1.5 1.5 1.5h1.5v3.5c0 0.202 0.122 0.385 0.309 0.462 0.062 0.025 0.127 0.038 0.191 0.038 0.13 0 0.258-0.051 0.354-0.146l3.854-3.854h14.792c0.827 0 1.5-0.673 1.5-1.5v-13c0-0.827-0.673-1.5-1.5-1.5zM23 16.5c0 0.275-0.224 0.5-0.5 0.5h-15c-0.133 0-0.26 0.053-0.354 0.146l-3.146 3.147v-2.793c0-0.276-0.224-0.5-0.5-0.5h-2c-0.276 0-0.5-0.225-0.5-0.5v-13c0-0.275 0.224-0.5 0.5-0.5h21c0.276 0 0.5 0.225 0.5 0.5v13z"></path>
<path d="M8.5 9c-0.551 0-1 0.448-1 1s0.449 1 1 1 1-0.448 1-1-0.449-1-1-1zM8.5 10v0 0z"></path>
<path d="M16.5 9c-0.551 0-1 0.448-1 1s0.449 1 1 1 1-0.448 1-1-0.449-1-1-1zM16.5 10v0 0z"></path>
<path d="M12.5 9c-0.551 0-1 0.448-1 1s0.449 1 1 1 1-0.448 1-1-0.449-1-1-1zM12.5 10v0 0z"></path>
</svg>
