<!-- Generated by IcoMoon.io -->
<svg version="1.1" xmlns="http://www.w3.org/2000/svg" width="24" height="24" viewBox="0 0 24 24">
<title>camera</title>
<path d="M21.444 6h-1.631c-0.050-0.105-0.1-0.212-0.15-0.32-0.587-1.256-1.252-2.68-2.663-2.68h-5c-1.071 0-1.635 0.777-2.658 2.189-0.178 0.247-0.374 0.517-0.593 0.811h-2.749v-0.5c0-0.799-0.727-1.5-1.556-1.5h-0.944c-0.798 0-1.472 0.687-1.472 1.486l-0.015 0.552c-1.636 0.182-2.013 1.259-2.013 2.185v10.388c0 1.519 0.932 2.389 2.556 2.389h18.889c1.623 0 2.555-0.87 2.555-2.389v-10.388c0-1.014-0.443-2.223-2.556-2.223zM3.5 5h0.944c0.276 0 0.556 0.252 0.556 0.5v0.5h-1.985l0.014-0.5c-0.001-0.252 0.233-0.5 0.471-0.5zM23 18.611c0 0.961-0.48 1.389-1.556 1.389h-18.888c-1.076 0-1.556-0.428-1.556-1.389v-10.388c0-0.734 0.255-1.223 1.5-1.223h6.5c0.157 0 0.306-0.074 0.4-0.2 0.284-0.378 0.531-0.719 0.752-1.024 0.956-1.319 1.314-1.776 1.848-1.776h5c0.774 0 1.273 1.069 1.756 2.104 0.099 0.212 0.197 0.422 0.296 0.62 0.086 0.169 0.259 0.276 0.448 0.276h1.944c1.436 0 1.556 0.604 1.556 1.223v10.388z"></path>
<path d="M14.5 7c-3.309 0-6 2.691-6 6s2.691 6 6 6 6-2.691 6-6c0-3.309-2.691-6-6-6zM14.5 18c-2.757 0-5-2.243-5-5s2.243-5 5-5 5 2.243 5 5-2.243 5-5 5z"></path>
<path d="M14.5 9.5c-1.93 0-3.5 1.57-3.5 3.5s1.57 3.5 3.5 3.5 3.5-1.57 3.5-3.5-1.57-3.5-3.5-3.5zM14.5 15.5c-1.378 0-2.5-1.122-2.5-2.5s1.122-2.5 2.5-2.5 2.5 1.122 2.5 2.5-1.122 2.5-2.5 2.5z"></path>
<path d="M4 8c-1.103 0-2 0.897-2 2s0.897 2 2 2 2-0.897 2-2-0.897-2-2-2zM4 11c-0.551 0-1-0.449-1-1s0.449-1 1-1 1 0.449 1 1-0.449 1-1 1z"></path>
</svg>
