<!-- Generated by IcoMoon.io -->
<svg version="1.1" xmlns="http://www.w3.org/2000/svg" width="24" height="24" viewBox="0 0 24 24">
<title>check-circle</title>
<path d="M23.782 0.143c-0.215-0.174-0.53-0.14-0.703 0.076l-14.15 17.566-4.606-4.606c-0.195-0.195-0.512-0.195-0.707 0s-0.195 0.512 0 0.707l5 5c0.208 0.209 0.555 0.194 0.743-0.040l14.5-18c0.172-0.215 0.139-0.53-0.077-0.703z"></path>
<path d="M18.131 12.038c-0.269 0.062-0.438 0.33-0.376 0.599 0.142 0.622 0.214 1.26 0.214 1.895 0 4.687-3.813 8.5-8.5 8.5s-8.5-3.813-8.5-8.5c0-4.687 3.813-8.5 8.5-8.5 1.326 0 2.597 0.298 3.778 0.883 0.247 0.124 0.547 0.022 0.67-0.226 0.123-0.247 0.022-0.547-0.226-0.669-1.32-0.655-2.741-0.988-4.222-0.988-5.238 0-9.5 4.262-9.5 9.5s4.262 9.5 9.5 9.5 9.5-4.262 9.5-9.5c0-0.71-0.081-1.423-0.239-2.118-0.062-0.269-0.33-0.44-0.599-0.376z"></path>
</svg>
