<!-- Generated by IcoMoon.io -->
<svg version="1.1" xmlns="http://www.w3.org/2000/svg" width="24" height="24" viewBox="0 0 24 24">
<title>check-box</title>
<path d="M22.783 1.268c-0.216-0.174-0.53-0.14-0.703 0.075l-12.151 15.067-4.606-4.606c-0.195-0.195-0.512-0.195-0.707 0-0.195 0.196-0.195 0.512 0 0.707l5 5c0.208 0.208 0.555 0.194 0.743-0.040l12.5-15.5c0.172-0.215 0.139-0.529-0.076-0.703z"></path>
<path d="M19.469 10.407c-0.276 0-0.5 0.224-0.5 0.5v11h-17v-17h12c0.276 0 0.5-0.224 0.5-0.5s-0.224-0.5-0.5-0.5h-12.5c-0.276 0-0.5 0.224-0.5 0.5v18c0 0.276 0.224 0.5 0.5 0.5h18c0.276 0 0.5-0.224 0.5-0.5v-11.5c0-0.276-0.224-0.5-0.5-0.5z"></path>
</svg>
