<!-- Generated by IcoMoon.io -->
<svg version="1.1" xmlns="http://www.w3.org/2000/svg" width="24" height="24" viewBox="0 0 24 24">
<title>check-circle-2</title>
<path d="M16.659 8.135l-7.146 6.67-2.159-2.158c-0.195-0.195-0.512-0.195-0.707 0s-0.195 0.512 0 0.707l2.5 2.5c0.19 0.19 0.497 0.196 0.695 0.012l7.5-7c0.202-0.188 0.212-0.505 0.024-0.707-0.189-0.202-0.505-0.213-0.707-0.024z"></path>
<path d="M12 0c-6.617 0-12 5.383-12 12s5.383 12 12 12 12-5.383 12-12-5.383-12-12-12zM12 23c-6.065 0-11-4.934-11-11 0-6.065 4.935-11 11-11s11 4.935 11 11c0 6.066-4.935 11-11 11z"></path>
</svg>
