<!-- Generated by IcoMoon.io -->
<svg version="1.1" xmlns="http://www.w3.org/2000/svg" width="24" height="24" viewBox="0 0 24 24">
<title>clock</title>
<path d="M12 24c-6.617 0-12-5.383-12-12s5.383-12 12-12 12 5.383 12 12-5.383 12-12 12zM12 1c-6.065 0-11 4.935-11 11 0 6.066 4.935 11 11 11s11-4.934 11-11c0-6.065-4.935-11-11-11z"></path>
<path d="M17.162 17.869l-6-5.5c-0.103-0.095-0.162-0.229-0.162-0.369v-5.5c0-0.276 0.224-0.5 0.5-0.5s0.5 0.224 0.5 0.5v5.28l5.838 5.351c0.204 0.187 0.217 0.503 0.031 0.707-0.188 0.204-0.503 0.217-0.707 0.031z"></path>
</svg>
