<!-- Generated by IcoMoon.io -->
<svg version="1.1" xmlns="http://www.w3.org/2000/svg" width="24" height="24" viewBox="0 0 24 24">
<title>clock-2</title>
<path d="M15 12h-3v-5c0-0.276-0.224-0.5-0.5-0.5s-0.5 0.224-0.5 0.5v5.5c0 0.276 0.224 0.5 0.5 0.5h3.5c0.276 0 0.5-0.224 0.5-0.5s-0.224-0.5-0.5-0.5z"></path>
<path d="M19.5 0h-15c-2.481 0-4.5 2.019-4.5 4.5v15c0 2.482 2.019 4.5 4.5 4.5h15c2.481 0 4.5-2.018 4.5-4.5v-15c0-2.481-2.019-4.5-4.5-4.5zM23 19.5c0 1.93-1.57 3.5-3.5 3.5h-15c-1.93 0-3.5-1.57-3.5-3.5v-15c0-1.93 1.57-3.5 3.5-3.5h15c1.93 0 3.5 1.57 3.5 3.5v15z"></path>
<path d="M12 3c-4.962 0-9 4.038-9 9s4.038 9 9 9 9-4.038 9-9-4.038-9-9-9zM12 20c-4.411 0-8-3.589-8-8s3.589-8 8-8 8 3.589 8 8-3.589 8-8 8z"></path>
</svg>
