<!-- Generated by IcoMoon.io -->
<svg version="1.1" xmlns="http://www.w3.org/2000/svg" width="24" height="24" viewBox="0 0 24 24">
<title>close</title>
<path d="M12.707 12l11.147-11.146c0.195-0.195 0.195-0.512 0-0.707s-0.512-0.195-0.707 0l-11.147 11.146-11.146-11.147c-0.195-0.195-0.512-0.195-0.707 0s-0.195 0.512 0 0.707l11.146 11.147-11.147 11.146c-0.195 0.195-0.195 0.512 0 0.707s0.512 0.195 0.707 0l11.147-11.146 11.146 11.147c0.195 0.195 0.512 0.195 0.707 0s0.195-0.512 0-0.707l-11.146-11.147z"></path>
</svg>
