<!-- Generated by IcoMoon.io -->
<svg version="1.1" xmlns="http://www.w3.org/2000/svg" width="24" height="24" viewBox="0 0 24 24">
<title>cloud</title>
<path d="M18.628 8.507c-1.291-2.445-3.858-4.007-6.628-4.007-3.777 0-6.941 2.819-7.427 6.512-2.45-0.197-4.573 1.784-4.573 4.238 0 2.968 2.348 4.25 4.489 4.25l14.575-0.004c0.050-0.007 4.936-0.698 4.936-5.496 0-2.991-2.399-5.432-5.372-5.493zM19 18.5h-14.511c-0.357 0-3.489-0.091-3.489-3.25 0-2.014 1.838-3.608 3.92-3.182 0.305 0.061 0.582-0.158 0.601-0.46 0.202-3.424 3.048-6.108 6.479-6.108 2.493 0 4.797 1.461 5.868 3.723 0.13 0.275 0.365 0.289 0.644 0.282 2.474 0 4.488 2.016 4.488 4.495 0 3.912-3.899 4.482-4 4.5z"></path>
</svg>
