<!-- Generated by IcoMoon.io -->
<svg version="1.1" xmlns="http://www.w3.org/2000/svg" width="24" height="24" viewBox="0 0 24 24">
<title>cog</title>
<path d="M23.5 10h-2.855c-0.199-0.79-0.454-1.667-0.777-2.332l2.032-2.032c0.094-0.094 0.146-0.221 0.146-0.354s-0.053-0.26-0.146-0.354l-2.83-2.827c-0.195-0.196-0.512-0.196-0.707 0l-2.033 2.032c-0.664-0.323-1.541-0.578-2.33-0.777v-2.856c0-0.276-0.224-0.5-0.5-0.5h-3c-0.276 0-0.5 0.224-0.5 0.5v2.856c-0.79 0.199-1.667 0.454-2.331 0.777l-2.033-2.032c-0.195-0.196-0.512-0.196-0.707 0l-2.829 2.828c-0.094 0.094-0.147 0.221-0.147 0.354s0.053 0.259 0.147 0.353l2.033 2.034c-0.322 0.662-0.578 1.54-0.779 2.33h-2.854c-0.276 0-0.5 0.224-0.5 0.5v3c0 0.276 0.224 0.5 0.5 0.5h2.854c0.201 0.791 0.456 1.668 0.778 2.332l-2.032 2.033c-0.094 0.093-0.146 0.22-0.146 0.353s0.053 0.26 0.146 0.354l2.829 2.828c0.188 0.188 0.52 0.188 0.707 0l2.032-2.034c0.664 0.324 1.541 0.579 2.332 0.78v2.854c0 0.276 0.224 0.5 0.5 0.5h3c0.276 0 0.5-0.224 0.5-0.5v-2.854c0.791-0.201 1.668-0.456 2.33-0.778l2.034 2.032c0.195 0.195 0.512 0.195 0.707 0l2.828-2.828c0.195-0.195 0.195-0.512 0-0.707l-2.032-2.033c0.322-0.663 0.578-1.541 0.778-2.332h2.855c0.276 0 0.5-0.224 0.5-0.5v-3c0-0.276-0.224-0.5-0.5-0.5zM23 13h-2.746c-0.231 0-0.432 0.159-0.486 0.382-0.135 0.558-0.494 2.041-0.945 2.778-0.12 0.197-0.090 0.451 0.073 0.614l1.942 1.943-2.121 2.121-1.944-1.942c-0.165-0.165-0.419-0.194-0.614-0.073-0.737 0.451-2.219 0.81-2.777 0.945-0.224 0.055-0.382 0.255-0.382 0.486v2.746h-2v-2.746c0-0.231-0.158-0.431-0.382-0.486-0.558-0.135-2.040-0.494-2.778-0.945-0.198-0.122-0.451-0.091-0.615 0.072l-1.942 1.944-2.123-2.121 1.943-1.943c0.164-0.163 0.193-0.417 0.073-0.614-0.451-0.737-0.81-2.22-0.945-2.778-0.053-0.224-0.254-0.383-0.485-0.383h-2.746v-2h2.746c0.231 0 0.432-0.158 0.486-0.382 0.135-0.558 0.494-2.040 0.945-2.777 0.12-0.198 0.090-0.451-0.073-0.615l-1.944-1.943 2.122-2.122 1.943 1.942c0.165 0.164 0.417 0.194 0.614 0.074 0.742-0.453 2.221-0.809 2.778-0.943 0.225-0.054 0.383-0.255 0.383-0.486v-2.748h2v2.748c0 0.231 0.158 0.432 0.383 0.486 0.874 0.21 2.111 0.537 2.777 0.943 0.196 0.12 0.449 0.090 0.614-0.073l1.943-1.942 2.122 2.122-1.942 1.942c-0.163 0.163-0.193 0.417-0.073 0.613 0.453 0.743 0.81 2.222 0.944 2.779 0.053 0.224 0.254 0.382 0.485 0.382h2.747v2z"></path>
<path d="M12 7c-2.757 0-5 2.243-5 5s2.243 5 5 5 5-2.243 5-5-2.243-5-5-5zM12 16c-2.206 0-4-1.794-4-4s1.794-4 4-4 4 1.794 4 4-1.794 4-4 4z"></path>
</svg>
