<!-- Generated by IcoMoon.io -->
<svg version="1.1" xmlns="http://www.w3.org/2000/svg" width="24" height="24" viewBox="0 0 24 24">
<title>computer-screen</title>
<path d="M22.5 2.5h-21c-0.827 0-1.5 0.673-1.5 1.5v13c0 0.827 0.673 1.5 1.5 1.5h8.5v2h-3c-0.276 0-0.5 0.224-0.5 0.5s0.224 0.5 0.5 0.5h10c0.276 0 0.5-0.224 0.5-0.5s-0.224-0.5-0.5-0.5h-3v-2h8.5c0.827 0 1.5-0.673 1.5-1.5v-13c0-0.827-0.673-1.5-1.5-1.5zM13 20.5h-2v-2h2v2zM23 17c0 0.275-0.224 0.5-0.5 0.5h-21c-0.276 0-0.5-0.225-0.5-0.5v-13c0-0.275 0.224-0.5 0.5-0.5h21c0.276 0 0.5 0.225 0.5 0.5v13z"></path>
<path d="M21.5 4.5h-19c-0.276 0-0.5 0.224-0.5 0.5v11c0 0.276 0.224 0.5 0.5 0.5h19c0.276 0 0.5-0.224 0.5-0.5v-11c0-0.276-0.224-0.5-0.5-0.5zM21 15.5h-18v-10h18v10z"></path>
</svg>
