<!-- Generated by IcoMoon.io -->
<svg version="1.1" xmlns="http://www.w3.org/2000/svg" width="24" height="24" viewBox="0 0 24 24">
<title>computer-bug</title>
<path d="M6.528 8.449c-0.014 0.141 0.032 0.281 0.126 0.386 0.095 0.104 0.229 0.164 0.371 0.164h9.949c0.142 0 0.276-0.060 0.371-0.164 0.095-0.105 0.141-0.245 0.126-0.386-0.164-1.635-1.076-3.047-2.359-3.943 0.648-0.848 1.387-1.875 1.393-3.004l0.004-1.001c0.001-0.276-0.222-0.501-0.498-0.502-0.001 0-0.001 0-0.001 0-0.276 0-0.5 0.223-0.501 0.498l-0.004 1.001c-0.005 0.844-0.667 1.724-1.269 2.507-0.69-0.315-1.443-0.506-2.236-0.506s-1.546 0.191-2.236 0.506c-0.6-0.784-1.255-1.662-1.26-2.505l-0.004-1.001c-0.001-0.275-0.225-0.498-0.5-0.498 0 0-0.001 0-0.002 0-0.276 0.001-0.499 0.226-0.498 0.502l0.004 1.001c0.006 1.127 0.737 2.154 1.385 3.001-1.285 0.896-2.197 2.308-2.361 3.944zM12 4.499c2.095 0 3.924 1.498 4.387 3.5h-8.774c0.463-2.002 2.292-3.5 4.387-3.5z"></path>
<path d="M18.25 14.001c1.065 0 1.844 0.788 2.668 1.623l0.229 0.23c0.097 0.098 0.225 0.147 0.353 0.147s0.256-0.049 0.354-0.146c0.195-0.194 0.195-0.511 0-0.707l-0.225-0.227c-0.932-0.944-1.896-1.92-3.379-1.92h-0.75v-2h0.75c1.065 0 1.844 0.788 2.668 1.623l0.229 0.23c0.097 0.098 0.225 0.147 0.353 0.147s0.256-0.049 0.354-0.146c0.195-0.194 0.195-0.511 0-0.707l-0.225-0.227c-0.932-0.944-1.896-1.92-3.379-1.92h-1.24c-0.004 0-0.006-0.002-0.010-0.002h-10c-0.004 0-0.006 0.002-0.010 0.002h-1.24c-1.48 0-2.441 0.972-3.37 1.912l-0.233 0.235c-0.195 0.195-0.195 0.512 0 0.707 0.097 0.097 0.225 0.146 0.353 0.146s0.256-0.049 0.354-0.146l0.237-0.238c0.856-0.867 1.596-1.616 2.659-1.616h0.75v2h-0.75c-1.48 0-2.441 0.972-3.37 1.912l-0.233 0.235c-0.195 0.195-0.195 0.512 0 0.707 0.097 0.097 0.225 0.146 0.353 0.146s0.256-0.049 0.354-0.146l0.237-0.238c0.856-0.867 1.596-1.616 2.659-1.616h0.75v2h-0.75c-1.48 0-2.441 0.972-3.37 1.912l-0.233 0.235c-0.195 0.195-0.195 0.512 0 0.707 0.097 0.097 0.225 0.146 0.353 0.146s0.256-0.049 0.354-0.146l0.237-0.238c0.856-0.867 1.596-1.616 2.659-1.616h0.799c0.488 2.914 4.928 6.712 5.128 6.882 0.093 0.079 0.208 0.118 0.323 0.118s0.23-0.039 0.323-0.118c0.2-0.17 4.64-3.968 5.128-6.882h0.799c1.065 0 1.844 0.788 2.668 1.623l0.229 0.23c0.097 0.098 0.225 0.147 0.353 0.147s0.256-0.049 0.354-0.146c0.195-0.194 0.195-0.511 0-0.707l-0.225-0.227c-0.932-0.944-1.896-1.92-3.379-1.92h-0.75v-2h0.75zM12 22.838c-1.505-1.343-4.5-4.412-4.5-6.337v-5.502h9v5.502c0 1.923-2.995 4.993-4.5 6.337z"></path>
</svg>
