<!-- Generated by IcoMoon.io -->
<svg version="1.1" xmlns="http://www.w3.org/2000/svg" width="24" height="24" viewBox="0 0 24 24">
<title>control-previous</title>
<path d="M22.5 24c-0.12 0-0.238-0.043-0.331-0.125l-13-11.5c-0.107-0.095-0.169-0.231-0.169-0.375 0-0.143 0.062-0.28 0.169-0.374l13-11.5c0.146-0.131 0.356-0.161 0.537-0.082 0.179 0.081 0.294 0.259 0.294 0.456v23c0 0.197-0.115 0.375-0.294 0.456-0.066 0.029-0.137 0.044-0.206 0.044zM10.254 12l11.746 10.39v-20.78l-11.746 10.39z"></path>
<path d="M6.5 24h-4c-0.276 0-0.5-0.224-0.5-0.5v-23c0-0.276 0.224-0.5 0.5-0.5h4c0.276 0 0.5 0.224 0.5 0.5v23c0 0.276-0.224 0.5-0.5 0.5zM3 23h3v-22h-3v22z"></path>
</svg>
