<!-- Generated by IcoMoon.io -->
<svg version="1.1" xmlns="http://www.w3.org/2000/svg" width="24" height="24" viewBox="0 0 24 24">
<title>control-next</title>
<path d="M2.5 24c-0.069 0-0.14-0.015-0.206-0.044-0.179-0.081-0.294-0.259-0.294-0.456v-23c0-0.197 0.115-0.375 0.294-0.456 0.179-0.079 0.391-0.049 0.537 0.082l13 11.5c0.107 0.094 0.169 0.231 0.169 0.374 0 0.144-0.062 0.28-0.169 0.375l-13 11.5c-0.093 0.082-0.211 0.125-0.331 0.125zM3 1.61v20.78l11.746-10.39-11.746-10.39z"></path>
<path d="M22.5 24h-4c-0.276 0-0.5-0.224-0.5-0.5v-23c0-0.276 0.224-0.5 0.5-0.5h4c0.276 0 0.5 0.224 0.5 0.5v23c0 0.276-0.224 0.5-0.5 0.5zM19 23h3v-22h-3v22z"></path>
</svg>
