<!-- Generated by IcoMoon.io -->
<svg version="1.1" xmlns="http://www.w3.org/2000/svg" width="24" height="24" viewBox="0 0 24 24">
<title>control-fast-forward</title>
<path d="M0.5 24c-0.069 0-0.139-0.015-0.205-0.044-0.179-0.080-0.295-0.259-0.295-0.456v-23c0-0.197 0.116-0.375 0.295-0.456 0.179-0.082 0.389-0.048 0.537 0.083l8.168 7.26v-5.887c0-0.189 0.107-0.362 0.276-0.447 0.171-0.084 0.373-0.068 0.524 0.047l14 10.5c0.126 0.094 0.2 0.243 0.2 0.4s-0.074 0.306-0.2 0.4l-14 10.5c-0.151 0.114-0.354 0.132-0.523 0.047s-0.277-0.258-0.277-0.447v-5.887l-8.168 7.261c-0.093 0.083-0.212 0.126-0.332 0.126zM1 1.613v20.773l8.168-7.26c0.147-0.131 0.358-0.164 0.537-0.083 0.179 0.082 0.295 0.26 0.295 0.457v6l12.667-9.5-12.667-9.5v6c0 0.197-0.116 0.376-0.295 0.456-0.179 0.082-0.39 0.048-0.537-0.082l-8.168-7.261z"></path>
</svg>
