<!-- Generated by IcoMoon.io -->
<svg version="1.1" xmlns="http://www.w3.org/2000/svg" width="24" height="24" viewBox="0 0 24 24">
<title>control-eject</title>
<path d="M23.52 16c-0.007 0-0.013-0.001-0.020 0h-23c-0.197 0-0.375-0.115-0.456-0.294-0.081-0.18-0.049-0.39 0.082-0.537l11.5-13c0.189-0.215 0.56-0.215 0.749 0l11.428 12.918c0.131 0.090 0.217 0.242 0.217 0.413 0 0.276-0.224 0.5-0.5 0.5zM1.61 15h20.78l-10.39-11.746-10.39 11.746z"></path>
<path d="M23.5 23h-23c-0.276 0-0.5-0.224-0.5-0.5v-4c0-0.276 0.224-0.5 0.5-0.5h23c0.276 0 0.5 0.224 0.5 0.5v4c0 0.276-0.224 0.5-0.5 0.5zM1 22h22v-3h-22v3z"></path>
</svg>
