<!-- Generated by IcoMoon.io -->
<svg version="1.1" xmlns="http://www.w3.org/2000/svg" width="24" height="24" viewBox="0 0 24 24">
<title>control-rewind</title>
<path d="M23.5 24c-0.12 0-0.239-0.043-0.332-0.126l-8.168-7.261v5.887c0 0.189-0.107 0.362-0.276 0.447-0.169 0.084-0.373 0.066-0.523-0.047l-14-10.5c-0.127-0.094-0.201-0.243-0.201-0.4s0.074-0.306 0.2-0.4l14-10.5c0.152-0.115 0.354-0.131 0.523-0.047 0.17 0.085 0.277 0.258 0.277 0.447v5.887l8.168-7.26c0.147-0.131 0.358-0.164 0.537-0.083s0.295 0.259 0.295 0.456v23c0 0.197-0.116 0.376-0.295 0.456-0.066 0.029-0.136 0.044-0.205 0.044zM14.5 15c0.12 0 0.239 0.044 0.332 0.126l8.168 7.261v-20.774l-8.168 7.261c-0.147 0.13-0.358 0.164-0.537 0.082-0.179-0.080-0.295-0.259-0.295-0.456v-6l-12.667 9.5 12.667 9.5v-6c0-0.197 0.116-0.375 0.295-0.456 0.066-0.029 0.136-0.044 0.205-0.044z"></path>
</svg>
