<!-- Generated by IcoMoon.io -->
<svg version="1.1" xmlns="http://www.w3.org/2000/svg" width="24" height="24" viewBox="0 0 24 24">
<title>credit-card</title>
<path d="M21.5 4.5h-19c-1.379 0-2.5 1.122-2.5 2.5v10c0 1.378 1.121 2.5 2.5 2.5h19c1.379 0 2.5-1.122 2.5-2.5v-10c0-1.378-1.121-2.5-2.5-2.5zM2.5 5.5h19c0.827 0 1.5 0.673 1.5 1.5v1.5h-22v-1.5c0-0.827 0.673-1.5 1.5-1.5zM21.5 18.5h-19c-0.827 0-1.5-0.673-1.5-1.5v-7.5h22v7.5c0 0.827-0.673 1.5-1.5 1.5z"></path>
<path d="M20.5 11.5h-3c-0.276 0-0.5 0.224-0.5 0.5s0.224 0.5 0.5 0.5h3c0.276 0 0.5-0.224 0.5-0.5s-0.224-0.5-0.5-0.5z"></path>
<path d="M11.5 11.5h-8c-0.276 0-0.5 0.224-0.5 0.5s0.224 0.5 0.5 0.5h8c0.276 0 0.5-0.224 0.5-0.5s-0.224-0.5-0.5-0.5z"></path>
<path d="M6.5 13.5h-3c-0.276 0-0.5 0.224-0.5 0.5s0.224 0.5 0.5 0.5h3c0.276 0 0.5-0.224 0.5-0.5s-0.224-0.5-0.5-0.5z"></path>
</svg>
