<!-- Generated by IcoMoon.io -->
<svg version="1.1" xmlns="http://www.w3.org/2000/svg" width="24" height="24" viewBox="0 0 24 24">
<title>download</title>
<path d="M3.869 23.5h16.262c1.857 0 3.369-1.511 3.369-3.369v-1.913c0-0.276-0.224-0.5-0.5-0.5s-0.5 0.224-0.5 0.5v1.913c0 1.306-1.062 2.369-2.369 2.369h-16.262c-1.307 0-2.369-1.063-2.369-2.369v-1.913c0-0.276-0.224-0.5-0.5-0.5s-0.5 0.223-0.5 0.5v1.913c0 1.858 1.512 3.369 3.369 3.369z"></path>
<path d="M12 0.5c-0.276 0-0.5 0.224-0.5 0.5v15.901l-6.146-6.146c-0.195-0.195-0.512-0.195-0.707 0s-0.195 0.512 0 0.707l6.999 7c0.19 0.19 0.509 0.201 0.709 0l6.999-7c0.195-0.195 0.195-0.512 0-0.707s-0.512-0.195-0.707 0l-6.147 6.146v-15.901c0-0.276-0.224-0.5-0.5-0.5z"></path>
</svg>
