<!-- Generated by IcoMoon.io -->
<svg version="1.1" xmlns="http://www.w3.org/2000/svg" width="24" height="24" viewBox="0 0 24 24">
<title>email</title>
<path d="M21 4.5h-18c-1.103 0-2 0.896-2 2v11c0 1.103 0.897 2 2 2h18c1.103 0 2-0.897 2-2v-11c0-1.104-0.897-2-2-2zM21 5.5c0.057 0 0.105 0.023 0.159 0.032l-9.159 7.328-9.159-7.328c0.054-0.009 0.102-0.032 0.159-0.032h18zM22 17.5c0 0.551-0.449 1-1 1h-18c-0.551 0-1-0.449-1-1v-11c0-0.109 0.030-0.21 0.062-0.309l9.625 7.7c0.092 0.072 0.203 0.109 0.313 0.109s0.221-0.037 0.312-0.109l9.625-7.7c0.033 0.099 0.063 0.2 0.063 0.309v11z"></path>
</svg>
