<!-- Generated by IcoMoon.io -->
<svg version="1.1" xmlns="http://www.w3.org/2000/svg" width="24" height="24" viewBox="0 0 24 24">
<title>expand-diagonal</title>
<path d="M9.646 13.646l-8.646 8.647v-5.293c0-0.276-0.224-0.5-0.5-0.5s-0.5 0.224-0.5 0.5v6.5c0 0.276 0.224 0.5 0.5 0.5h6.5c0.276 0 0.5-0.224 0.5-0.5s-0.224-0.5-0.5-0.5h-5.293l8.646-8.646c0.195-0.195 0.195-0.512 0-0.707s-0.511-0.196-0.707-0.001z"></path>
<path d="M23.5 0h-6.5c-0.276 0-0.5 0.224-0.5 0.5s0.224 0.5 0.5 0.5h5.293l-8.646 8.646c-0.195 0.195-0.195 0.512 0 0.707s0.512 0.195 0.707 0l8.646-8.646v5.293c0 0.276 0.224 0.5 0.5 0.5s0.5-0.224 0.5-0.5v-6.5c0-0.276-0.224-0.5-0.5-0.5z"></path>
</svg>
