<!-- Generated by IcoMoon.io -->
<svg version="1.1" xmlns="http://www.w3.org/2000/svg" width="24" height="24" viewBox="0 0 24 24">
<title>expand</title>
<path d="M1.5 20.5h21c0.827 0 1.5-0.673 1.5-1.5v-14c0-0.827-0.673-1.5-1.5-1.5h-21c-0.827 0-1.5 0.673-1.5 1.5v14c0 0.827 0.673 1.5 1.5 1.5zM1 19v-4c0-0.276 0.224-0.5 0.5-0.5h7.5v4.5c0 0.276-0.224 0.5-0.5 0.5h-7c-0.276 0-0.5-0.224-0.5-0.5zM1.5 4.5h21c0.276 0 0.5 0.224 0.5 0.5v14c0 0.276-0.224 0.5-0.5 0.5h-12.592c0.056-0.157 0.092-0.324 0.092-0.5v-5c0-0.276-0.224-0.5-0.5-0.5h-8c-0.176 0-0.343 0.036-0.5 0.092v-8.592c0-0.276 0.224-0.5 0.5-0.5z"></path>
</svg>
