<!-- Generated by IcoMoon.io -->
<svg version="1.1" xmlns="http://www.w3.org/2000/svg" width="24" height="24" viewBox="0 0 24 24">
<title>file-new</title>
<path d="M20.961 6.308c-0.025-0.061-0.062-0.116-0.108-0.162l-5.999-5.999c-0.046-0.045-0.101-0.083-0.162-0.107-0.060-0.026-0.125-0.040-0.192-0.040h-11c-0.276 0-0.5 0.224-0.5 0.5v23c0 0.276 0.224 0.5 0.5 0.5h17c0.276 0 0.5-0.224 0.5-0.5v-17c0-0.067-0.014-0.132-0.039-0.192zM15 1.707l4.293 4.293h-4.293v-4.293zM4 23v-22h10v5.5c0 0.276 0.224 0.5 0.5 0.5h5.5v16h-16z"></path>
</svg>
