<!-- Generated by IcoMoon.io -->
<svg version="1.1" xmlns="http://www.w3.org/2000/svg" width="24" height="24" viewBox="0 0 24 24">
<title>file-word</title>
<path d="M21.961 6.308c-0.025-0.062-0.062-0.116-0.108-0.161l-5.999-6c-0.046-0.045-0.101-0.082-0.162-0.107-0.060-0.026-0.125-0.040-0.192-0.040h-13c-0.276 0-0.5 0.224-0.5 0.5v23c0 0.276 0.224 0.5 0.5 0.5h19c0.276 0 0.5-0.224 0.5-0.5v-17c0-0.066-0.014-0.132-0.039-0.192zM16 1.707l4.293 4.293h-4.293v-4.293zM3 23v-22h12v5.5c0 0.276 0.224 0.5 0.5 0.5h5.5v16h-18z"></path>
<path d="M16.91 13.999c0.303 0 0.64 0.065 0.808 0.845 0.058 0.27 0.32 0.437 0.594 0.384 0.27-0.059 0.441-0.324 0.383-0.595-0.291-1.35-1.132-1.634-1.786-1.634-1.909 0-1.909 2.027-1.909 3.001s0 3 1.91 3c0.654 0 1.495-0.283 1.786-1.635 0.058-0.271-0.114-0.537-0.384-0.596-0.27-0.052-0.536 0.115-0.594 0.384-0.168 0.782-0.505 0.847-0.808 0.847-0.515 0-0.91-0.147-0.91-2 0-1.854 0.395-2.001 0.91-2.001z"></path>
<path d="M12 13c-2 0-2 2.103-2 3 0 0.898 0 3 2 3s2-2.102 2-3c0-0.897 0-3-2-3zM12 18c-0.547 0-1-0.15-1-2s0.453-2 1-2 1 0.15 1 2-0.453 2-1 2z"></path>
<path d="M6.5 13h-1c-0.276 0-0.5 0.224-0.5 0.5v5c0 0.276 0.224 0.5 0.5 0.5h1c1.425 0 2.5-1.29 2.5-3s-1.075-3-2.5-3zM6.5 18h-0.5v-4h0.5c0.869 0 1.5 0.841 1.5 2s-0.631 2-1.5 2z"></path>
</svg>
