<!-- Generated by IcoMoon.io -->
<svg version="1.1" xmlns="http://www.w3.org/2000/svg" width="24" height="24" viewBox="0 0 24 24">
<title>file-acrobat</title>
<path d="M21.961 6.308c-0.025-0.062-0.062-0.116-0.108-0.161l-5.999-6c-0.046-0.045-0.101-0.082-0.162-0.107-0.060-0.026-0.125-0.040-0.192-0.040h-13c-0.276 0-0.5 0.224-0.5 0.5v23c0 0.276 0.224 0.5 0.5 0.5h19c0.276 0 0.5-0.224 0.5-0.5v-17c0-0.066-0.014-0.132-0.039-0.192zM16 1.707l4.293 4.293h-4.293v-4.293zM3 23v-22h12v5.5c0 0.276 0.224 0.5 0.5 0.5h5.5v16h-18z"></path>
<path d="M16.72 12.435c-1.365-0.050-2.695 0.126-4.016 0.528-0.941-0.504-1.816-1.135-2.606-1.88-0.209-1.95-0.705-3.403-0.855-3.811-0.196-0.528-0.615-0.843-1.121-0.843-0.489 0-0.972 0.298-1.231 0.759-0.271 0.48-0.252 1.041 0.051 1.541 0.639 1.051 1.377 1.997 2.196 2.815 0.095 1.122 0.064 2.184-0.092 3.163-1.613 1.071-2.578 2.158-2.926 2.585-0.379 0.468-0.467 1.007-0.242 1.479 0.228 0.478 0.756 0.799 1.315 0.799 0.48 0 0.927-0.234 1.226-0.644 0.743-1.020 1.259-2.234 1.535-3.613 0.857-0.532 1.751-0.959 2.663-1.271 1.62 0.797 3.113 1.108 4.097 1.229 0.862 0.1 1.478-0.481 1.493-1.312 0.013-0.729-0.494-1.486-1.487-1.524zM7.796 8.209c-0.114-0.188-0.126-0.367-0.034-0.53 0.091-0.161 0.253-0.25 0.359-0.25 0.031 0 0.113 0 0.183 0.19 0.102 0.273 0.369 1.052 0.585 2.151-0.391-0.486-0.756-1.007-1.093-1.561zM7.61 18.336c-0.233 0.322-0.708 0.26-0.83 0.005-0.068-0.144 0.025-0.306 0.116-0.418 0.248-0.304 0.838-0.975 1.793-1.726-0.26 0.795-0.622 1.511-1.079 2.139zM10.136 14.049c0.046-0.505 0.064-1.025 0.053-1.56 0.411 0.332 0.84 0.638 1.285 0.916-0.453 0.189-0.899 0.404-1.338 0.644zM16.904 14.283l-0.069-0.004c-0.674-0.083-1.608-0.264-2.658-0.653 0.832-0.159 1.656-0.228 2.504-0.191 0.508 0.019 0.526 0.425 0.525 0.507-0.002 0.102-0.035 0.341-0.302 0.341z"></path>
</svg>
