<!-- Generated by IcoMoon.io -->
<svg version="1.1" xmlns="http://www.w3.org/2000/svg" width="24" height="24" viewBox="0 0 24 24">
<title>file-text-picture</title>
<path d="M21.961 6.308c-0.025-0.061-0.062-0.116-0.108-0.162l-5.998-5.999c-0.046-0.045-0.101-0.083-0.162-0.107-0.061-0.026-0.127-0.040-0.193-0.040h-13c-0.276 0-0.5 0.224-0.5 0.5v23c0 0.276 0.224 0.5 0.5 0.5h19c0.276 0 0.5-0.224 0.5-0.5v-17c0-0.067-0.014-0.132-0.039-0.192zM16 1.707l4.293 4.293h-4.293v-4.293zM3 23v-22h12v5.5c0 0.276 0.224 0.5 0.5 0.5h5.5v16h-18z"></path>
<path d="M6.5 8h5c0.276 0 0.5-0.224 0.5-0.5s-0.224-0.5-0.5-0.5h-5c-0.276 0-0.5 0.224-0.5 0.5s0.224 0.5 0.5 0.5z"></path>
<path d="M6.5 11h9c0.276 0 0.5-0.224 0.5-0.5s-0.224-0.5-0.5-0.5h-9c-0.276 0-0.5 0.224-0.5 0.5s0.224 0.5 0.5 0.5z"></path>
<path d="M8.5 13h-2c-0.276 0-0.5 0.224-0.5 0.5s0.224 0.5 0.5 0.5h2c0.276 0 0.5-0.224 0.5-0.5s-0.224-0.5-0.5-0.5z"></path>
<path d="M8.5 16h-2c-0.276 0-0.5 0.224-0.5 0.5s0.224 0.5 0.5 0.5h2c0.276 0 0.5-0.224 0.5-0.5s-0.224-0.5-0.5-0.5z"></path>
<path d="M8.5 19h-2c-0.276 0-0.5 0.224-0.5 0.5s0.224 0.5 0.5 0.5h2c0.276 0 0.5-0.224 0.5-0.5s-0.224-0.5-0.5-0.5z"></path>
<path d="M17.5 13h-6c-0.276 0-0.5 0.224-0.5 0.5v7c0 0.276 0.224 0.5 0.5 0.5h6c0.084 0 0.159-0.026 0.229-0.062 0.020-0.010 0.035-0.023 0.053-0.036 0.052-0.036 0.094-0.079 0.128-0.13 0.008-0.011 0.021-0.017 0.027-0.029 0.004-0.006 0.002-0.014 0.005-0.020 0.034-0.068 0.058-0.141 0.058-0.223v-7c0-0.276-0.224-0.5-0.5-0.5zM17 14v4.744l-1.554-2.507c-0.083-0.135-0.227-0.222-0.385-0.235-0.156-0.011-0.313 0.050-0.417 0.17l-2.644 3.040v-5.212h5zM12.64 20l2.314-2.66 1.648 2.66h-3.962z"></path>
<path d="M14 15.5c0 0.276-0.224 0.5-0.5 0.5s-0.5-0.224-0.5-0.5c0-0.276 0.224-0.5 0.5-0.5s0.5 0.224 0.5 0.5z"></path>
</svg>
