<!-- Generated by IcoMoon.io -->
<svg version="1.1" xmlns="http://www.w3.org/2000/svg" width="24" height="24" viewBox="0 0 24 24">
<title>file-view</title>
<path d="M23.83 23.146l-2.854-2.852c0.616-0.771 1-1.733 1-2.794 0-2.481-2.018-4.5-4.499-4.5-2.482 0-4.501 2.019-4.501 4.5 0 2.482 2.019 4.5 4.501 4.5 1.060 0 2.022-0.384 2.792-1l2.853 2.853c0.098 0.098 0.226 0.147 0.354 0.147s0.256-0.049 0.354-0.146c0.195-0.195 0.195-0.512 0-0.708zM13.976 17.5c0-1.93 1.57-3.5 3.501-3.5 1.929 0 3.499 1.57 3.499 3.5s-1.57 3.5-3.499 3.5c-1.931 0-3.501-1.57-3.501-3.5z"></path>
<path d="M3.463 7h4.5c0.276 0 0.5-0.224 0.5-0.5s-0.223-0.5-0.5-0.5h-4.5c-0.276 0-0.5 0.224-0.5 0.5s0.224 0.5 0.5 0.5z"></path>
<path d="M11.962 9.5c0-0.276-0.224-0.5-0.5-0.5h-8c-0.276 0-0.5 0.224-0.5 0.5s0.224 0.5 0.5 0.5h8c0.277 0 0.5-0.224 0.5-0.5z"></path>
<path d="M9.963 12.5c0-0.276-0.224-0.5-0.5-0.5h-6c-0.276 0-0.5 0.224-0.5 0.5s0.224 0.5 0.5 0.5h6c0.277 0 0.5-0.224 0.5-0.5z"></path>
<path d="M3.463 15c-0.276 0-0.5 0.224-0.5 0.5s0.224 0.5 0.5 0.5h5c0.276 0 0.5-0.224 0.5-0.5s-0.223-0.5-0.5-0.5h-5z"></path>
<path d="M12.463 21h-11.488v-20h10v4.5c0 0.276 0.224 0.5 0.5 0.5h4.5v5c0 0.276 0.224 0.5 0.5 0.5s0.5-0.224 0.5-0.5v-5.5c0-0.067-0.014-0.132-0.039-0.192-0.025-0.061-0.062-0.116-0.108-0.162l-4.999-4.999c-0.046-0.045-0.101-0.083-0.162-0.107-0.060-0.026-0.125-0.040-0.192-0.040h-11c-0.276 0-0.5 0.224-0.5 0.5v21c0 0.276 0.224 0.5 0.5 0.5h11.988c0.276 0 0.5-0.224 0.5-0.5s-0.223-0.5-0.5-0.5zM11.976 1.707l3.293 3.293h-3.293v-3.293z"></path>
</svg>
