<!-- Generated by IcoMoon.io -->
<svg version="1.1" xmlns="http://www.w3.org/2000/svg" width="24" height="24" viewBox="0 0 24 24">
<title>file-checklist-edit</title>
<path d="M23.855 14.645l-2.5-2.5c-0.195-0.195-0.512-0.195-0.707 0l-7.502 7.502c-0.057 0.057-0.092 0.125-0.116 0.196-0.002 0.007-0.009 0.013-0.012 0.020l-1 3.5c-0.050 0.175-0.001 0.363 0.127 0.491 0.097 0.094 0.224 0.146 0.355 0.146 0.046 0 0.092-0.006 0.137-0.020l3.5-1c0.007-0.002 0.011-0.008 0.018-0.011 0.072-0.023 0.141-0.060 0.198-0.116l7.502-7.502c0.196-0.195 0.196-0.511 0-0.706zM16 21.793l-1.793-1.793 4.795-4.795 1.793 1.793-4.795 4.795zM13.748 20.955l1.298 1.298-1.818 0.52 0.52-1.818zM21.502 16.291l-1.793-1.793 1.293-1.293 1.793 1.793-1.293 1.293z"></path>
<path d="M13 10h-4c-0.276 0-0.5 0.224-0.5 0.5s0.224 0.5 0.5 0.5h4c0.276 0 0.5-0.224 0.5-0.5s-0.224-0.5-0.5-0.5z"></path>
<path d="M13 14h-4c-0.276 0-0.5 0.224-0.5 0.5s0.224 0.5 0.5 0.5h4c0.276 0 0.5-0.224 0.5-0.5s-0.224-0.5-0.5-0.5z"></path>
<path d="M7.854 8.146c-0.195-0.195-0.512-0.195-0.707 0l-2.147 2.147-1.146-1.147c-0.195-0.195-0.512-0.195-0.707 0s-0.195 0.512 0 0.707l1.5 1.5c0.097 0.098 0.225 0.147 0.353 0.147s0.256-0.049 0.354-0.146l2.5-2.5c0.195-0.196 0.195-0.512 0-0.708z"></path>
<path d="M7.146 12.161l-2.146 2.147-1.146-1.146c-0.195-0.195-0.512-0.195-0.707 0s-0.195 0.512 0 0.707l1.5 1.5c0.097 0.097 0.225 0.146 0.353 0.146s0.256-0.049 0.354-0.146l2.5-2.5c0.195-0.195 0.195-0.512 0-0.707s-0.512-0.196-0.708-0.001z"></path>
<path d="M9 21h-8v-20h9.999l0.001 4.5c0 0.276 0.224 0.5 0.5 0.5h4.5v7c0 0.276 0.224 0.5 0.5 0.5s0.5-0.224 0.5-0.5v-7.5c0-0.066-0.014-0.132-0.039-0.192-0.025-0.062-0.062-0.116-0.108-0.161l-5-5c-0.046-0.045-0.101-0.082-0.161-0.107-0.061-0.026-0.126-0.040-0.193-0.040h-10.999c-0.276 0-0.5 0.224-0.5 0.5v21c0 0.276 0.224 0.5 0.5 0.5h8.5c0.276 0 0.5-0.224 0.5-0.5s-0.224-0.5-0.5-0.5zM11.999 1.707l3.294 3.293h-3.293l-0.001-3.293z"></path>
</svg>
