<!-- Generated by IcoMoon.io -->
<svg version="1.1" xmlns="http://www.w3.org/2000/svg" width="24" height="24" viewBox="0 0 24 24">
<title>file-favorite-star</title>
<path d="M23.695 16.312c-0.072-0.197-0.26-0.33-0.47-0.33h-3.19l-1.854-3.723c-0.17-0.339-0.726-0.339-0.896 0l-1.854 3.723h-3.206c-0.211 0-0.399 0.132-0.47 0.331-0.072 0.198-0.011 0.42 0.151 0.554l2.751 2.281-1.406 4.175c-0.069 0.204 0 0.428 0.172 0.558 0.171 0.131 0.406 0.137 0.584 0.015l3.725-2.546 3.71 2.545c0.086 0.058 0.185 0.087 0.283 0.087 0.106 0 0.212-0.034 0.301-0.101 0.172-0.129 0.242-0.354 0.173-0.558l-1.392-4.176 2.738-2.281c0.162-0.134 0.222-0.356 0.15-0.554zM19.905 18.598c-0.158 0.132-0.219 0.347-0.154 0.543l1.029 3.086-2.764-1.896c-0.085-0.059-0.184-0.088-0.283-0.088s-0.197 0.029-0.282 0.087l-2.775 1.897 1.039-3.085c0.066-0.196 0.005-0.412-0.154-0.544l-1.949-1.616h2.129c0.189 0 0.363-0.107 0.448-0.277l1.544-3.102 1.544 3.102c0.085 0.17 0.259 0.277 0.448 0.277h2.119l-1.939 1.616z"></path>
<path d="M16.233 9.982c0 0.276 0.224 0.5 0.5 0.5s0.5-0.224 0.5-0.5v-4.498c0-0.002 0-0.002 0-0.002 0-0.054-0.015-0.103-0.030-0.151-0.004-0.013-0.003-0.027-0.008-0.039-0.026-0.064-0.066-0.121-0.115-0.169l-4.993-4.995c-0.046-0.045-0.101-0.083-0.162-0.107-0.060-0.025-0.125-0.039-0.192-0.039h-11c-0.276 0-0.5 0.224-0.5 0.5v21c0 0.276 0.224 0.5 0.5 0.5h10c0.276 0 0.5-0.224 0.5-0.5s-0.224-0.5-0.5-0.5h-9.5v-20h10v4.5c0 0.276 0.224 0.5 0.5 0.5h4.5v4zM12.233 1.69l3.291 3.292h-3.291v-3.292z"></path>
</svg>
