<!-- Generated by IcoMoon.io -->
<svg version="1.1" xmlns="http://www.w3.org/2000/svg" width="24" height="24" viewBox="0 0 24 24">
<title>filter</title>
<path d="M23.952 0.287c-0.082-0.175-0.259-0.287-0.452-0.287h-23c-0.193 0-0.37 0.112-0.452 0.287-0.083 0.175-0.057 0.383 0.066 0.532l9.886 11.952v10.729c0 0.202 0.122 0.385 0.309 0.462 0.061 0.026 0.127 0.038 0.191 0.038 0.13 0 0.258-0.051 0.354-0.146l3-3c0.093-0.094 0.146-0.221 0.146-0.354v-7.729l9.886-11.952c0.123-0.149 0.149-0.357 0.066-0.532zM13.114 12.271c-0.073 0.090-0.114 0.203-0.114 0.319v7.703l-2 2v-9.703c0-0.116-0.041-0.229-0.114-0.319l-9.324-11.271h20.875l-9.323 11.271z"></path>
</svg>
