<!-- Generated by IcoMoon.io -->
<svg version="1.1" xmlns="http://www.w3.org/2000/svg" width="24" height="24" viewBox="0 0 24 24">
<title>folder-add</title>
<path d="M17.5 11c-3.584 0-6.5 2.916-6.5 6.5s2.916 6.5 6.5 6.5 6.5-2.916 6.5-6.5-2.916-6.5-6.5-6.5zM17.5 23c-3.033 0-5.5-2.467-5.5-5.5s2.467-5.5 5.5-5.5 5.5 2.467 5.5 5.5-2.467 5.5-5.5 5.5z"></path>
<path d="M20 17h-2v-2c0-0.276-0.224-0.5-0.5-0.5s-0.5 0.223-0.5 0.5v2h-2c-0.276 0-0.5 0.224-0.5 0.5s0.224 0.5 0.5 0.5h2v2c0 0.276 0.224 0.5 0.5 0.5s0.5-0.224 0.5-0.5v-2h2c0.276 0 0.5-0.224 0.5-0.5s-0.224-0.5-0.5-0.5z"></path>
<path d="M9 17h-5.278c0.172-0.296 0.278-0.635 0.278-1v-11h16v4c0 0.276 0.224 0.5 0.5 0.5s0.5-0.224 0.5-0.5v-4.5c0-0.277-0.224-0.5-0.5-0.5h-1.5v-1.5c0-0.277-0.224-0.5-0.5-0.5h-12.5v-1.5c0-0.277-0.224-0.5-0.5-0.5h-5c-0.276 0-0.5 0.223-0.5 0.5v15.5c0 1.103 0.897 2 2 2h7c0.276 0 0.5-0.224 0.5-0.5s-0.224-0.5-0.5-0.5zM1 16v-15h4v1.5c0 0.276 0.224 0.5 0.5 0.5h12.5v1h-14.5c-0.276 0-0.5 0.223-0.5 0.5v11.5c0 0.551-0.449 1-1 1s-1-0.449-1-1z"></path>
</svg>
