<!-- Generated by IcoMoon.io -->
<svg version="1.1" xmlns="http://www.w3.org/2000/svg" width="24" height="24" viewBox="0 0 24 24">
<title>folder</title>
<path d="M23.5 6h-2.5v-1.5c0-0.277-0.224-0.5-0.5-0.5h-12.5v-1.5c0-0.277-0.224-0.5-0.5-0.5h-7c-0.276 0-0.5 0.223-0.5 0.5v16.5c0 1.654 1.346 3 3 3h17.5c1.93 0 3.5-1.57 3.5-3.5v-12c0-0.277-0.224-0.5-0.5-0.5zM5 6.5v12.5c0 1.103-0.897 2-2 2s-2-0.897-2-2v-16h6v1.5c0 0.276 0.224 0.5 0.5 0.5h12.5v1h-14.5c-0.276 0-0.5 0.223-0.5 0.5zM23 18.5c0 1.378-1.122 2.5-2.5 2.5h-15.266c0.476-0.531 0.766-1.233 0.766-2v-12h17v11.5z"></path>
</svg>
