<!-- Generated by IcoMoon.io -->
<svg version="1.1" xmlns="http://www.w3.org/2000/svg" width="24" height="24" viewBox="0 0 24 24">
<title>folder-view</title>
<path d="M23.829 23.146l-2.854-2.853c0.616-0.77 1-1.733 1-2.793 0-2.481-2.018-4.5-4.499-4.5-2.482 0-4.501 2.018-4.501 4.5s2.019 4.5 4.501 4.5c1.060 0 2.022-0.384 2.792-1l2.854 2.853c0.097 0.098 0.225 0.147 0.353 0.147s0.256-0.049 0.354-0.147c0.195-0.195 0.195-0.512 0-0.707zM13.975 17.5c0-1.93 1.57-3.5 3.501-3.5 1.929 0 3.499 1.57 3.499 3.5s-1.57 3.5-3.499 3.5c-1.931 0-3.501-1.571-3.501-3.5z"></path>
<path d="M9.475 17h-5.778c0.172-0.296 0.278-0.635 0.278-1v-11h16v4.5c0 0.276 0.224 0.5 0.5 0.5s0.5-0.224 0.5-0.5v-5c0-0.277-0.224-0.5-0.5-0.5h-1.5v-1.5c0-0.277-0.224-0.5-0.5-0.5h-12.5v-1.5c0-0.277-0.224-0.5-0.5-0.5h-5c-0.276 0-0.5 0.223-0.5 0.5v15.5c0 1.103 0.897 2 2 2h7.5c0.276 0 0.5-0.224 0.5-0.5s-0.224-0.5-0.5-0.5zM0.975 16v-15h4v1.5c0 0.276 0.224 0.5 0.5 0.5h12.5v1h-14.5c-0.276 0-0.5 0.223-0.5 0.5v11.5c0 0.551-0.449 1-1 1s-1-0.449-1-1z"></path>
</svg>
