<!-- Generated by IcoMoon.io -->
<svg version="1.1" xmlns="http://www.w3.org/2000/svg" width="24" height="24" viewBox="0 0 24 24">
<title>gauge</title>
<path d="M18.364 9.136c-0.195-0.195-0.512-0.195-0.707 0l-4.648 4.647c-0.297-0.176-0.639-0.283-1.009-0.283-1.103 0-2 0.897-2 2s0.897 2 2 2 2-0.897 2-2c0-0.37-0.108-0.712-0.283-1.009l4.647-4.647c0.196-0.196 0.196-0.512 0-0.708zM12 16.5c-0.551 0-1-0.449-1-1s0.449-1 1-1 1 0.449 1 1-0.449 1-1 1z"></path>
<path d="M4.5 15.5h-2c-0.276 0-0.5 0.224-0.5 0.5s0.224 0.5 0.5 0.5h2c0.276 0 0.5-0.224 0.5-0.5s-0.224-0.5-0.5-0.5z"></path>
<path d="M19 16c0 0.276 0.224 0.5 0.5 0.5h2c0.276 0 0.5-0.224 0.5-0.5s-0.224-0.5-0.5-0.5h-2c-0.276 0-0.5 0.224-0.5 0.5z"></path>
<path d="M18.467 12.821c0.080 0.192 0.266 0.309 0.462 0.309 0.064 0 0.129-0.012 0.191-0.038l1.848-0.765c0.255-0.106 0.376-0.398 0.271-0.654-0.105-0.255-0.4-0.375-0.653-0.271l-1.848 0.765c-0.256 0.107-0.377 0.399-0.271 0.654z"></path>
<path d="M14.679 9.033c0.062 0.026 0.127 0.038 0.191 0.038 0.196 0 0.382-0.116 0.462-0.308l0.765-1.848c0.105-0.255-0.016-0.548-0.271-0.653-0.253-0.104-0.548 0.015-0.653 0.271l-0.765 1.848c-0.105 0.254 0.016 0.546 0.271 0.652z"></path>
<path d="M12 8.5c0.276 0 0.5-0.224 0.5-0.5v-2c0-0.276-0.224-0.5-0.5-0.5s-0.5 0.224-0.5 0.5v2c0 0.276 0.224 0.5 0.5 0.5z"></path>
<path d="M8.827 6.532c-0.106-0.256-0.398-0.375-0.653-0.271-0.255 0.106-0.376 0.398-0.271 0.654l0.765 1.848c0.080 0.192 0.266 0.308 0.462 0.308 0.064 0 0.129-0.012 0.191-0.038 0.255-0.105 0.376-0.398 0.271-0.653l-0.765-1.848z"></path>
<path d="M5.637 8.429c-0.195-0.197-0.512-0.195-0.707-0.001-0.196 0.195-0.196 0.512-0.001 0.707l1.412 1.415c0.098 0.098 0.226 0.147 0.354 0.147s0.255-0.049 0.353-0.146c0.196-0.195 0.196-0.511 0.001-0.707l-1.412-1.415z"></path>
<path d="M5.262 12.168l-1.847-0.765c-0.253-0.104-0.548 0.016-0.653 0.271s0.016 0.548 0.271 0.654l1.847 0.765c0.062 0.025 0.127 0.038 0.191 0.038 0.196 0 0.382-0.116 0.462-0.309 0.105-0.256-0.016-0.548-0.271-0.654z"></path>
<path d="M12 3.5c-6.617 0-12 5.383-12 12v4.5c0 0.276 0.224 0.5 0.5 0.5h23c0.276 0 0.5-0.224 0.5-0.5v-4.5c0-6.617-5.383-12-12-12zM23 19.5h-22v-4c0-6.065 4.935-11 11-11s11 4.935 11 11v4z"></path>
</svg>
