<!-- Generated by IcoMoon.io -->
<svg version="1.1" xmlns="http://www.w3.org/2000/svg" width="24" height="24" viewBox="0 0 24 24">
<title>globe</title>
<path d="M12.005 0c-0.175 0-0.349 0.003-0.52 0.011-6.547 0.264-11.485 5.311-11.485 11.739 0 6.755 5.369 12.25 11.968 12.25 6.635 0 12.032-5.402 12.032-12.043 0-6.593-5.381-11.957-11.995-11.957zM1.012 12h5.545c0.057 1.647 0.364 3.321 0.921 5h-5.203c-0.775-1.499-1.224-3.197-1.263-5zM6.551 11h-5.515c0.123-1.844 0.69-3.544 1.612-5h4.869c-0.596 1.613-0.919 3.288-0.966 5zM8.547 6h6.916c0.65 1.61 0.99 3.286 1.042 5h-9c0.051-1.714 0.391-3.39 1.042-5zM7.51 12h8.99c-0.062 1.642-0.388 3.314-0.99 5h-7.010c-0.603-1.686-0.929-3.358-0.99-5zM17.452 12h5.546c-0.007 1.801-0.453 3.499-1.228 5h-5.24c0.558-1.679 0.865-3.353 0.922-5zM17.458 11c-0.047-1.712-0.37-3.387-0.966-5h4.728c0.957 1.464 1.571 3.167 1.731 5h-5.493zM20.492 5h-4.409c-0.601-1.34-1.394-2.631-2.386-3.856 2.72 0.422 5.118 1.828 6.795 3.856zM12.277 1.015c1.142 1.263 2.046 2.598 2.727 3.985h-5.998c0.682-1.39 1.589-2.728 2.734-3.994 0.088-0.002 0.176-0.006 0.265-0.006 0.092 0 0.181 0.012 0.272 0.015zM10.331 1.123c-1.001 1.231-1.8 2.529-2.404 3.877h-4.568c1.67-2.058 4.117-3.473 6.972-3.877zM2.854 18h4.981c0.64 1.636 1.52 3.27 2.634 4.883-3.167-0.447-5.909-2.275-7.615-4.883zM11.764 22.99c-1.222-1.658-2.172-3.327-2.87-4.99h6.22c-0.697 1.662-1.647 3.33-2.867 4.986-0.094 0.003-0.185 0.014-0.279 0.014-0.070 0-0.136-0.009-0.204-0.010zM13.544 22.875c1.111-1.61 1.99-3.242 2.628-4.875h5.019c-1.699 2.589-4.454 4.414-7.647 4.875z"></path>
</svg>
