<!-- Generated by IcoMoon.io -->
<svg version="1.1" xmlns="http://www.w3.org/2000/svg" width="24" height="24" viewBox="0 0 24 24">
<title>graph-pie</title>
<path d="M13.5 11h10c0.276 0 0.5-0.224 0.5-0.5 0-5.79-4.71-10.5-10.5-10.5-0.276 0-0.5 0.224-0.5 0.5v10c0 0.276 0.224 0.5 0.5 0.5zM14 1.013c4.841 0.252 8.734 4.146 8.987 8.987h-8.987v-8.987z"></path>
<path d="M23.5 12h-10c-0.202 0-0.385 0.122-0.462 0.309s-0.034 0.401 0.108 0.544l7.071 7.071c0.098 0.098 0.226 0.146 0.354 0.146s0.256-0.049 0.354-0.146c1.983-1.982 3.075-4.619 3.075-7.424 0-0.276-0.224-0.5-0.5-0.5zM20.562 18.855l-5.855-5.855h8.28c-0.112 2.184-0.961 4.231-2.425 5.855z"></path>
<path d="M11 13.293v-9.793c0-0.276-0.224-0.5-0.5-0.5-5.79 0-10.5 4.71-10.5 10.5 0 6.573 5.383 10.5 10.588 10.5 2.748 0 5.354-1.092 7.337-3.076 0.195-0.195 0.195-0.512 0-0.707l-6.925-6.924zM10.588 23c-4.713 0-9.588-3.553-9.588-9.5 0-5.070 3.993-9.226 9-9.487v9.487c0 0.133 0.053 0.26 0.146 0.354l6.709 6.709c-1.743 1.576-3.95 2.437-6.267 2.437z"></path>
</svg>
