<!-- Generated by IcoMoon.io -->
<svg version="1.1" xmlns="http://www.w3.org/2000/svg" width="24" height="24" viewBox="0 0 24 24">
<title>group-add</title>
<path d="M23.511 3.5h-2.521v-2.5c0-0.276-0.224-0.5-0.5-0.5s-0.5 0.224-0.5 0.5v2.5h-2.479c-0.276 0-0.5 0.224-0.5 0.5s0.224 0.5 0.5 0.5h2.479v2.516c0 0.276 0.224 0.5 0.5 0.5s0.5-0.224 0.5-0.5v-2.516h2.521c0.276 0 0.5-0.224 0.5-0.5s-0.224-0.5-0.5-0.5z"></path>
<path d="M14.1 18.808l-3.61-1.292v-1.45c1.174-0.944 1.947-2.532 1.947-4.33 0-2.887-1.995-5.236-4.447-5.236s-4.447 2.349-4.447 5.236c0 1.797 0.773 3.385 1.947 4.33v1.45l-3.61 1.292c-1.131 0.405-1.89 1.493-1.89 2.704v1.488c0 0.276 0.224 0.5 0.5 0.5h15c0.276 0 0.5-0.224 0.5-0.5v-1.488c0-1.211-0.759-2.298-1.89-2.704zM7.989 7.5c1.657 0 3.043 1.445 3.372 3.363-1.058 0.184-1.705-0.171-2.345-1.292-0.091-0.16-0.254-0.258-0.444-0.253-0.183 0.004-0.349 0.107-0.434 0.269-0.342 0.658-1.547 1.256-2.528 1.256-0.348 0-0.648-0.070-0.943-0.177 0.388-1.816 1.723-3.166 3.322-3.166zM4.545 11.693c0.336 0.097 0.685 0.15 1.065 0.15 1.064 0 2.228-0.487 2.935-1.17 0.634 0.838 1.381 1.237 2.324 1.237 0.176 0 0.367-0.029 0.558-0.057-0.053 2.284-1.57 4.124-3.438 4.124-1.871 0-3.464-1.869-3.444-4.284zM14.989 22.5h-14v-0.988c0-0.791 0.493-1.499 1.227-1.762l3.941-1.412c0.199-0.071 0.332-0.26 0.332-0.471v-1.219c0.471 0.2 0.971 0.328 1.5 0.328s1.029-0.128 1.5-0.328v1.219c0 0.211 0.133 0.399 0.332 0.471l3.941 1.412c0.734 0.263 1.227 0.971 1.227 1.762v0.988z"></path>
<path d="M20.1 18.808l-3.61-1.292v-1.45c1.174-0.944 1.947-2.532 1.947-4.33 0-2.608-1.817-5.236-4.447-5.236-0.276 0-0.5 0.224-0.5 0.5s0.224 0.5 0.5 0.5c1.657 0 3.043 1.445 3.372 3.363-1.058 0.184-1.705-0.171-2.345-1.292-0.137-0.239-0.443-0.324-0.682-0.186-0.24 0.137-0.323 0.442-0.186 0.682 0.717 1.254 1.574 1.845 2.721 1.845 0.176 0 0.367-0.029 0.558-0.057-0.053 2.282-1.569 4.122-3.438 4.122-0.276 0-0.5 0.224-0.5 0.5s0.224 0.5 0.5 0.5c0.529 0 1.029-0.128 1.5-0.328v1.219c0 0.211 0.133 0.399 0.332 0.471l3.941 1.412c0.734 0.262 1.227 0.97 1.227 1.761v0.988h-2.969c-0.276 0-0.5 0.224-0.5 0.5s0.224 0.5 0.5 0.5h3.469c0.276 0 0.5-0.224 0.5-0.5v-1.488c0-1.211-0.759-2.298-1.89-2.704z"></path>
</svg>
