<!-- Generated by IcoMoon.io -->
<svg version="1.1" xmlns="http://www.w3.org/2000/svg" width="24" height="24" viewBox="0 0 24 24">
<title>headphone</title>
<path d="M24 15.5c0-1.207-0.86-2.217-2-2.449v-0.551c0-1.379-1.122-2.5-2.5-2.5h-0.025c-0.259-3.902-3.508-7-7.475-7s-7.216 3.098-7.475 7h-0.025c-1.378 0-2.5 1.121-2.5 2.5v0.551c-1.14 0.232-2 1.242-2 2.449s0.86 2.217 2 2.449v0.551c0 1.379 1.122 2.5 2.5 2.5h2c0.276 0 0.5-0.224 0.5-0.5v-10c0-0.276-0.224-0.5-0.5-0.5h-0.975c0.257-3.351 3.060-6 6.475-6s6.218 2.649 6.475 6h-0.975c-0.276 0-0.5 0.224-0.5 0.5v10c0 0.276 0.224 0.5 0.5 0.5h2c1.378 0 2.5-1.121 2.5-2.5v-0.551c1.14-0.232 2-1.242 2-2.449zM1 15.5c0-0.65 0.419-1.201 1-1.408v2.816c-0.581-0.207-1-0.758-1-1.408zM6 20h-1.5c-0.827 0-1.5-0.673-1.5-1.5v-6c0-0.827 0.673-1.5 1.5-1.5h1.5v9zM21 18.5c0 0.827-0.673 1.5-1.5 1.5h-1.5v-9h1.5c0.827 0 1.5 0.673 1.5 1.5v6zM22 16.908v-2.816c0.581 0.207 1 0.758 1 1.408s-0.419 1.201-1 1.408z"></path>
</svg>
