<!-- Generated by IcoMoon.io -->
<svg version="1.1" xmlns="http://www.w3.org/2000/svg" width="24" height="24" viewBox="0 0 24 24">
<title>help-circle</title>
<path d="M12 0.5c-6.341 0-11.5 5.159-11.5 11.5s5.159 11.5 11.5 11.5 11.5-5.159 11.5-11.5c0-6.341-5.159-11.5-11.5-11.5zM12 22.5c-5.79 0-10.5-4.71-10.5-10.5s4.71-10.5 10.5-10.5 10.5 4.71 10.5 10.5c0 5.79-4.71 10.5-10.5 10.5z"></path>
<path d="M12 6c-1.93 0-3.5 1.57-3.5 3.5 0 0.276 0.224 0.5 0.5 0.5s0.5-0.224 0.5-0.5c0-1.378 1.121-2.5 2.5-2.5s2.5 1.122 2.5 2.5-1.121 2.5-2.5 2.5c-0.276 0-0.5 0.224-0.5 0.5v3c0 0.276 0.224 0.5 0.5 0.5s0.5-0.224 0.5-0.5v-2.535c1.694-0.244 3-1.704 3-3.465 0-1.93-1.57-3.5-3.5-3.5z"></path>
<path d="M13 18c0 0.552-0.448 1-1 1s-1-0.448-1-1c0-0.552 0.448-1 1-1s1 0.448 1 1z"></path>
</svg>
