<!-- Generated by IcoMoon.io -->
<svg version="1.1" xmlns="http://www.w3.org/2000/svg" width="24" height="24" viewBox="0 0 24 24">
<title>hierarchy</title>
<path d="M23.5 14h-2.5v-2.5c0-0.276-0.224-0.5-0.5-0.5h-7.979v-1.001h4c0.276 0 0.5-0.224 0.5-0.5v-9c0-0.276-0.224-0.5-0.5-0.5h-9c-0.276 0-0.5 0.224-0.5 0.5v9c0 0.276 0.224 0.5 0.5 0.5h4v1.001h-8.021c-0.276 0-0.5 0.224-0.5 0.5v2.5h-2.5c-0.276 0-0.5 0.224-0.5 0.5v9c0 0.276 0.224 0.5 0.5 0.5h9c0.276 0 0.5-0.224 0.5-0.5v-9c0-0.276-0.224-0.5-0.5-0.5h-5.5v-2h16v2h-5.5c-0.276 0-0.5 0.224-0.5 0.5v9c0 0.276 0.224 0.5 0.5 0.5h9c0.276 0 0.5-0.224 0.5-0.5v-9c0-0.276-0.224-0.5-0.5-0.5zM8.021 0.999h8v8h-8v-8zM9 23h-8v-8h8v8zM23 23h-8v-8h8v8z"></path>
<path d="M15.5 2.499c0-0.276-0.224-0.5-0.5-0.5h-5c-0.276 0-0.5 0.224-0.5 0.5s0.224 0.5 0.5 0.5h5c0.276 0 0.5-0.224 0.5-0.5z"></path>
<path d="M16 16.5c0 0.276 0.224 0.5 0.5 0.5h5c0.276 0 0.5-0.224 0.5-0.5s-0.224-0.5-0.5-0.5h-5c-0.276 0-0.5 0.224-0.5 0.5z"></path>
<path d="M2 16.5c0 0.276 0.224 0.5 0.5 0.5h5c0.276 0 0.5-0.224 0.5-0.5s-0.224-0.5-0.5-0.5h-5c-0.276 0-0.5 0.224-0.5 0.5z"></path>
</svg>
