<!-- Generated by IcoMoon.io -->
<svg version="1.1" xmlns="http://www.w3.org/2000/svg" width="24" height="24" viewBox="0 0 24 24">
<title>home</title>
<path d="M20.5 13.024c-0.276 0-0.5 0.224-0.5 0.5v9h-5v-6.5c0-0.276-0.224-0.5-0.5-0.5h-5c-0.276 0-0.5 0.224-0.5 0.5v6.5h-5v-9.5c0-0.276-0.224-0.5-0.5-0.5s-0.5 0.224-0.5 0.5v10c0 0.277 0.224 0.5 0.5 0.5h6c0.276 0 0.5-0.224 0.5-0.5v-6.5h4v6.5c0 0.276 0.224 0.5 0.5 0.5h6c0.276 0 0.5-0.224 0.5-0.5v-9.5c0-0.276-0.224-0.5-0.5-0.5z"></path>
<path d="M23.854 12.171l-11.5-11.5c-0.195-0.195-0.512-0.195-0.707 0l-11.5 11.5c-0.195 0.195-0.195 0.512 0 0.707s0.512 0.195 0.707 0l11.146-11.146 11.146 11.146c0.098 0.098 0.226 0.146 0.354 0.146s0.256-0.049 0.354-0.146c0.195-0.195 0.195-0.512 0-0.707z"></path>
<path d="M16 2.524h3v3c0 0.276 0.224 0.5 0.5 0.5s0.5-0.223 0.5-0.5v-3.5c0-0.276-0.224-0.5-0.5-0.5h-3.5c-0.276 0-0.5 0.224-0.5 0.5s0.224 0.5 0.5 0.5z"></path>
</svg>
