<!-- Generated by IcoMoon.io -->
<svg version="1.1" xmlns="http://www.w3.org/2000/svg" width="24" height="24" viewBox="0 0 24 24">
<title>launch</title>
<path d="M16.5 13.023c-0.276 0-0.5 0.224-0.5 0.5v5.47h-11v-11h5.5c0.276 0 0.5-0.224 0.5-0.5s-0.224-0.5-0.5-0.5h-6c-0.276 0-0.5 0.224-0.5 0.5v12c0 0.276 0.224 0.5 0.5 0.5h12c0.276 0 0.5-0.224 0.5-0.5v-5.97c0-0.277-0.224-0.5-0.5-0.5z"></path>
<path d="M19.5 4.007h-6c-0.276 0-0.5 0.224-0.5 0.5s0.224 0.5 0.5 0.5h4.793l-11.147 11.146c-0.195 0.195-0.195 0.512 0 0.707s0.512 0.195 0.707 0l11.147-11.146v4.793c0 0.276 0.224 0.5 0.5 0.5s0.5-0.224 0.5-0.5v-6c0-0.276-0.224-0.5-0.5-0.5z"></path>
</svg>
