<!-- Generated by IcoMoon.io -->
<svg version="1.1" xmlns="http://www.w3.org/2000/svg" width="24" height="24" viewBox="0 0 24 24">
<title>leaf</title>
<path d="M23.049 1.236c-0.107-0.107-0.255-0.16-0.408-0.144-0.688 0.076-16.885 1.94-20.552 9.728-1.298 2.756-0.842 5.902 1.319 9.35l-0.566 0.566c-0.195 0.195-0.195 0.512 0 0.707 0.098 0.098 0.226 0.147 0.354 0.147s0.256-0.049 0.354-0.146l0.562-0.562c2.152 1.35 4.202 2.042 6.096 2.042 10.526 0 12.89-20.409 12.985-21.278 0.016-0.152-0.037-0.302-0.144-0.41zM10.207 21.923c-1.648 0-3.453-0.6-5.37-1.768l2.565-2.565h4.794c0.276 0 0.5-0.224 0.5-0.5s-0.224-0.5-0.5-0.5h-3.794l3-3h3.294c0.276 0 0.5-0.224 0.5-0.5s-0.224-0.5-0.5-0.5h-2.294l3-3h1.294c0.276 0 0.5-0.224 0.5-0.5s-0.224-0.5-0.5-0.5h-1v-1c0-0.276-0.224-0.5-0.5-0.5s-0.5 0.224-0.5 0.5v1.291l-3 3.001v-2.292c0-0.276-0.224-0.5-0.5-0.5s-0.5 0.224-0.5 0.5v3.292l-3 3.001v-3.793c0-0.276-0.224-0.5-0.5-0.5s-0.5 0.224-0.5 0.5v4.793l-2.56 2.561c-1.864-3.062-2.261-5.82-1.142-8.196 3.037-6.456 16.080-8.65 19.121-9.078-0.485 3.449-3.245 19.753-11.908 19.753z"></path>
</svg>
