<!-- Generated by IcoMoon.io -->
<svg version="1.1" xmlns="http://www.w3.org/2000/svg" width="24" height="24" viewBox="0 0 24 24">
<title>lightbulb</title>
<path d="M12 5c-3.584 0-6.5 2.916-6.5 6.5 0 2.832 1.832 5.318 4.5 6.179v0.821c0 0.276 0.224 0.5 0.5 0.5h3c0.276 0 0.5-0.224 0.5-0.5v-0.821c2.669-0.861 4.5-3.348 4.5-6.179 0-3.584-2.916-6.5-6.5-6.5zM13.375 16.819c-0.221 0.057-0.375 0.256-0.375 0.484v0.697h-2v-0.697c0-0.228-0.154-0.427-0.375-0.484-2.429-0.626-4.125-2.813-4.125-5.319 0-3.033 2.468-5.5 5.5-5.5s5.5 2.467 5.5 5.5c0 2.505-1.696 4.692-4.125 5.319z"></path>
<path d="M12.5 22h-1c-0.276 0-0.5 0.224-0.5 0.5s0.224 0.5 0.5 0.5h1c0.276 0 0.5-0.224 0.5-0.5s-0.224-0.5-0.5-0.5z"></path>
<path d="M13.5 20h-3c-0.276 0-0.5 0.224-0.5 0.5s0.224 0.5 0.5 0.5h3c0.276 0 0.5-0.224 0.5-0.5s-0.224-0.5-0.5-0.5z"></path>
<path d="M12 4c0.276 0 0.5-0.224 0.5-0.5v-2c0-0.276-0.224-0.5-0.5-0.5s-0.5 0.224-0.5 0.5v2c0 0.276 0.224 0.5 0.5 0.5z"></path>
<path d="M22 11h-2c-0.276 0-0.5 0.224-0.5 0.5s0.224 0.5 0.5 0.5h2c0.276 0 0.5-0.224 0.5-0.5s-0.224-0.5-0.5-0.5z"></path>
<path d="M4 11h-2c-0.276 0-0.5 0.224-0.5 0.5s0.224 0.5 0.5 0.5h2c0.276 0 0.5-0.224 0.5-0.5s-0.224-0.5-0.5-0.5z"></path>
<path d="M5.989 6.197c0.098 0.098 0.226 0.146 0.354 0.146s0.256-0.049 0.354-0.146c0.195-0.195 0.195-0.512 0-0.707l-2.123-2.122c-0.195-0.195-0.512-0.195-0.707 0s-0.195 0.512 0 0.707l2.122 2.122z"></path>
<path d="M17.655 6.344c0.128 0 0.256-0.049 0.354-0.146l2.122-2.122c0.195-0.195 0.195-0.512 0-0.707s-0.512-0.195-0.707 0l-2.122 2.123c-0.195 0.195-0.195 0.511 0 0.707 0.097 0.096 0.225 0.145 0.353 0.145z"></path>
</svg>
