<!-- Generated by IcoMoon.io -->
<svg version="1.1" xmlns="http://www.w3.org/2000/svg" width="24" height="24" viewBox="0 0 24 24">
<title>link</title>
<path d="M12.001 16.413l-3.183 3.182c-0.944 0.944-2.592 0.944-3.536 0l-0.707-0.706c-0.472-0.472-0.732-1.1-0.732-1.768s0.26-1.295 0.732-1.767l4.597-4.597c0.975-0.975 2.562-0.975 3.536 0l0.707 0.708c0.195 0.195 0.512 0.195 0.707 0s0.195-0.512 0-0.707l-0.707-0.708c-1.364-1.365-3.586-1.365-4.95 0l-4.597 4.597c-0.661 0.66-1.025 1.539-1.025 2.474s0.364 1.814 1.025 2.475l0.707 0.706c0.661 0.661 1.54 1.025 2.476 1.025 0.935 0 1.814-0.364 2.475-1.025l3.183-3.182c0.195-0.195 0.195-0.512 0-0.707-0.196-0.196-0.513-0.196-0.708 0z"></path>
<path d="M20.132 4.744l-0.707-0.707c-1.364-1.364-3.585-1.364-4.949 0l-3.182 3.181c-0.195 0.195-0.195 0.512 0 0.707s0.512 0.195 0.707 0l3.182-3.181c0.975-0.975 2.561-0.974 3.535 0l0.707 0.707c0.472 0.472 0.732 1.1 0.732 1.768s-0.26 1.296-0.732 1.768l-4.596 4.596c-0.473 0.473-1.1 0.733-1.768 0.733v0c-0.667 0-1.294-0.26-1.766-0.732-0.195-0.196-0.513-0.195-0.707-0.001-0.196 0.195-0.196 0.512-0.001 0.707 0.661 0.662 1.539 1.026 2.474 1.026v0c0.935 0 1.814-0.364 2.475-1.026l4.596-4.596c0.661-0.661 1.025-1.54 1.025-2.475s-0.364-1.814-1.025-2.475z"></path>
</svg>
