<!-- Generated by IcoMoon.io -->
<svg version="1.1" xmlns="http://www.w3.org/2000/svg" width="24" height="24" viewBox="0 0 24 24">
<title>location-pin</title>
<path d="M12 0c-5.416 0-9.5 4.299-9.5 10 0 7.173 8.832 13.634 9.207 13.905 0.087 0.064 0.19 0.095 0.293 0.095s0.206-0.031 0.293-0.095c0.375-0.271 9.207-6.732 9.207-13.905 0-5.701-4.084-10-9.5-10zM12 22.873c-1.528-1.183-8.5-6.912-8.5-12.873 0-5.131 3.654-9 8.5-9s8.5 3.869 8.5 9c0 5.961-6.972 11.69-8.5 12.873z"></path>
<path d="M12 4c-3.033 0-5.5 2.467-5.5 5.5s2.467 5.5 5.5 5.5 5.5-2.467 5.5-5.5-2.467-5.5-5.5-5.5zM12 14c-2.481 0-4.5-2.018-4.5-4.5 0-2.481 2.019-4.5 4.5-4.5s4.5 2.019 4.5 4.5c0 2.482-2.019 4.5-4.5 4.5z"></path>
</svg>
