<!-- Generated by IcoMoon.io -->
<svg version="1.1" xmlns="http://www.w3.org/2000/svg" width="24" height="24" viewBox="0 0 24 24">
<title>lock-close</title>
<path d="M12 14c-0.552 0-1 0.449-1 1 0 0.365 0.207 0.672 0.5 0.847v2.653c0 0.276 0.224 0.5 0.5 0.5s0.5-0.224 0.5-0.5v-2.653c0.293-0.175 0.5-0.482 0.5-0.847 0-0.551-0.448-1-1-1z"></path>
<path d="M3.5 24h17c0.276 0 0.5-0.224 0.5-0.5v-14c0-0.276-0.224-0.5-0.5-0.5h-2.5v-3c0-3.309-2.691-6-6-6s-6 2.691-6 6v3h-2.5c-0.276 0-0.5 0.224-0.5 0.5v14c0 0.276 0.224 0.5 0.5 0.5zM7 6c0-2.757 2.243-5 5-5s5 2.243 5 5v3h-10v-3zM4 10h16v13h-16v-13z"></path>
</svg>
