<!-- Generated by IcoMoon.io -->
<svg version="1.1" xmlns="http://www.w3.org/2000/svg" width="24" height="24" viewBox="0 0 24 24">
<title>logo-youtube-clip</title>
<path d="M20.062 4h-16.124c-2.171 0-3.938 1.768-3.938 3.939v9.121c0 2.172 1.767 3.94 3.938 3.94h16.125c2.17 0 3.937-1.768 3.937-3.94v-9.121c0-2.171-1.767-3.939-3.938-3.939zM16.538 12.531l-6.769 4.331c-0.082 0.052-0.176 0.079-0.269 0.079-0.083 0-0.165-0.021-0.24-0.062-0.16-0.087-0.26-0.256-0.26-0.438v-8.662c0-0.184 0.1-0.352 0.26-0.44 0.161-0.087 0.356-0.080 0.51 0.018l6.769 4.332c0.144 0.092 0.231 0.25 0.231 0.421-0.001 0.171-0.088 0.329-0.232 0.421z"></path>
</svg>
