<!-- Generated by IcoMoon.io -->
<svg version="1.1" xmlns="http://www.w3.org/2000/svg" width="24" height="24" viewBox="0 0 24 24">
<title>logo-slide-share</title>
<path d="M11.548 17.947c1.548 0-0.452 5.473 3.548 5.473 2.206 0 5.729-2.523 3.489-6.532-0.715-1.278 3.853-2.529 3.853-4.388-1.082 0.463-4.145 1.83-8.121 1.825-2.296-0.002-2.768 1.086-2.768 1.086s-0.472-1.088-2.769-1.086c-3.977 0.005-7.234-1.392-8.316-1.854 0 1.859 4.764 3.139 4.049 4.417-2.243 4.008 1.281 6.532 3.487 6.532 4 0 2-5.473 3.548-5.473z"></path>
<path d="M11.5 11.396c-0.508 0.934-1.369 1.649-2.407 1.949 1.147 0.053 1.94 0.34 2.453 0.675 0.501-0.329 1.271-0.612 2.376-0.671-1.044-0.296-1.911-1.014-2.422-1.953z"></path>
<path d="M18.5 0.5h-14c-1.105 0-2 0.896-2 2v9.693c1.011 0.353 2.347 0.738 3.877 0.955-1.398-0.625-2.377-2.021-2.377-3.648 0-2.205 1.794-4 4-4 1.516 0 2.822 0.857 3.5 2.103 0.678-1.246 1.984-2.103 3.5-2.103 2.206 0 4 1.795 4 4 0 1.638-0.991 3.045-2.403 3.663 1.57-0.215 2.909-0.608 3.903-0.967v-9.696c0-1.104-0.896-2-2-2z"></path>
<path d="M18 9.5c0 1.657-1.343 3-3 3s-3-1.343-3-3c0-1.657 1.343-3 3-3s3 1.343 3 3z"></path>
<path d="M11 9.5c0 1.657-1.343 3-3 3s-3-1.343-3-3c0-1.657 1.343-3 3-3s3 1.343 3 3z"></path>
</svg>
