<!-- Generated by IcoMoon.io -->
<svg version="1.1" xmlns="http://www.w3.org/2000/svg" width="24" height="24" viewBox="0 0 24 24">
<title>logo-twitter-bird</title>
<path d="M23.222 5.334c-0.814 0.363-1.5 0.375-2.227 0.016 0.938-0.562 0.981-0.957 1.32-2.019-0.878 0.521-1.851 0.9-2.886 1.104-0.828-0.882-2.009-1.435-3.316-1.435-2.51 0-4.544 2.036-4.544 4.544 0 0.356 0.040 0.703 0.117 1.036-3.776-0.189-7.125-1.998-9.366-4.748-0.391 0.671-0.615 1.452-0.615 2.285 0 1.577 0.803 2.967 2.021 3.782-0.745-0.024-1.445-0.228-2.057-0.568-0.001 0.019-0.001 0.037-0.001 0.057 0 2.202 1.566 4.038 3.646 4.456-0.666 0.181-1.368 0.209-2.053 0.079 0.579 1.804 2.257 3.118 4.245 3.155-1.945 1.524-4.356 2.159-6.728 1.881 2.012 1.289 4.399 2.041 6.966 2.041 8.358 0 12.928-6.924 12.928-12.929 0-0.198-0.003-0.393-0.012-0.588 0.887-0.64 1.953-1.237 2.562-2.149z"></path>
</svg>
