<!-- Generated by IcoMoon.io -->
<svg version="1.1" xmlns="http://www.w3.org/2000/svg" width="24" height="24" viewBox="0 0 24 24">
<title>logo-linkedin</title>
<path d="M6.513 21.947h-5v-13h5v13zM4.005 6.947h-0.030c-1.511 0-2.488-1.182-2.488-2.481 0-1.329 1.008-2.412 2.547-2.412 1.541 0 2.488 1.118 2.519 2.447-0.001 1.299-0.978 2.446-2.548 2.446zM15.513 12.947c-1.105 0-2 0.896-2 2v7h-5c0 0 0.059-12 0-13h5v1.485c0 0 1.548-1.443 3.938-1.443 2.962 0 5.062 2.144 5.062 6.304v6.654h-5v-7c0-1.104-0.895-2-2-2z"></path>
</svg>
