<!-- Generated by IcoMoon.io -->
<svg version="1.1" xmlns="http://www.w3.org/2000/svg" width="24" height="24" viewBox="0 0 24 24">
<title>logo-instagram</title>
<path d="M12 2.162v0c-3.204 0-3.584 0.012-4.849 0.070-1.366 0.062-2.633 0.336-3.608 1.311s-1.249 2.242-1.311 3.608c-0.058 1.265-0.070 1.645-0.070 4.849s0.012 3.584 0.070 4.849c0.062 1.366 0.336 2.633 1.311 3.608s2.242 1.249 3.608 1.311c1.265 0.058 1.645 0.070 4.849 0.070s3.584-0.012 4.849-0.070c1.366-0.062 2.633-0.336 3.608-1.311s1.249-2.242 1.311-3.608c0.058-1.265 0.070-1.645 0.070-4.849s-0.012-3.584-0.070-4.849c-0.062-1.366-0.336-2.633-1.311-3.608s-2.242-1.249-3.608-1.311c-1.265-0.058-1.645-0.070-4.849-0.070zM12 0c3.259 0 3.668 0.014 4.948 0.072 1.95 0.089 3.663 0.567 5.038 1.942s1.853 3.088 1.942 5.038c0.058 1.28 0.072 1.689 0.072 4.948s-0.014 3.668-0.072 4.948c-0.089 1.95-0.567 3.663-1.942 5.038s-3.088 1.853-5.038 1.942c-1.28 0.058-1.689 0.072-4.948 0.072s-3.668-0.014-4.948-0.072c-1.95-0.089-3.663-0.567-5.038-1.942s-1.853-3.088-1.942-5.038c-0.058-1.28-0.072-1.689-0.072-4.948s0.014-3.668 0.072-4.948c0.089-1.95 0.567-3.663 1.942-5.038s3.088-1.853 5.038-1.942c1.28-0.058 1.689-0.072 4.948-0.072zM12 5.838c-3.403 0-6.162 2.759-6.162 6.162s2.759 6.162 6.162 6.162c3.403 0 6.162-2.759 6.162-6.162s-2.759-6.162-6.162-6.162zM12 16c-2.209 0-4-1.791-4-4s1.791-4 4-4c2.209 0 4 1.791 4 4s-1.791 4-4 4zM18.406 7.034c0.795 0 1.44-0.645 1.44-1.44s-0.645-1.44-1.44-1.44c-0.795 0-1.44 0.645-1.44 1.44s0.645 1.44 1.44 1.44z"></path>
</svg>
