<!-- Generated by IcoMoon.io -->
<svg version="1.1" xmlns="http://www.w3.org/2000/svg" width="24" height="24" viewBox="0 0 24 24">
<title>logout</title>
<path d="M13.476 18c-0.276 0-0.5 0.224-0.5 0.5v3.5h-12v-20h12v3.5c0 0.276 0.224 0.5 0.5 0.5s0.5-0.224 0.5-0.5v-4c0-0.276-0.224-0.5-0.5-0.5h-13c-0.276 0-0.5 0.224-0.5 0.5v21c0 0.276 0.224 0.5 0.5 0.5h13c0.276 0 0.5-0.224 0.5-0.5v-4c0-0.276-0.224-0.5-0.5-0.5z"></path>
<path d="M23.829 12.146l-5-5c-0.195-0.195-0.512-0.195-0.707 0s-0.195 0.512 0 0.707l4.147 4.147h-16.793c-0.276 0-0.5 0.224-0.5 0.5s0.224 0.5 0.5 0.5h16.793l-4.146 4.146c-0.195 0.195-0.195 0.512 0 0.707s0.512 0.195 0.707 0l5-5c0.193-0.194 0.194-0.511-0.001-0.707z"></path>
</svg>
