<!-- Generated by IcoMoon.io -->
<svg version="1.1" xmlns="http://www.w3.org/2000/svg" width="24" height="24" viewBox="0 0 24 24">
<title>map-pin</title>
<path d="M15 1.487l6 4.286v4.742c0 0.276 0.224 0.5 0.5 0.5s0.5-0.224 0.5-0.5v-5c0-0.162-0.078-0.313-0.209-0.407l-7-5c-0.009-0.006-0.021-0.003-0.030-0.010-0.077-0.048-0.163-0.083-0.261-0.083s-0.184 0.035-0.261 0.083c-0.009 0.006-0.021 0.003-0.030 0.010l-6.709 4.793-6.709-4.793c-0.152-0.11-0.353-0.124-0.52-0.038s-0.271 0.257-0.271 0.445v16c0 0.162 0.078 0.313 0.209 0.407l7 5c0.009 0.007 0.021 0.004 0.030 0.010 0.077 0.048 0.163 0.083 0.261 0.083s0.184-0.035 0.261-0.083c0.009-0.006 0.021-0.003 0.030-0.010l6-4.286c0.225-0.16 0.277-0.473 0.116-0.697s-0.472-0.277-0.697-0.117l-5.21 3.722v-14.772l6-4.286v9.029c0 0.276 0.224 0.5 0.5 0.5s0.5-0.224 0.5-0.5v-9.028zM1 1.487l6 4.286v14.771l-6-4.285v-14.772z"></path>
<path d="M19.5 12.015c-2.481 0-4.5 2.019-4.5 4.5 0 2.323 3.695 6.816 4.116 7.32 0.095 0.114 0.236 0.18 0.384 0.18s0.289-0.066 0.384-0.18c0.421-0.504 4.116-4.997 4.116-7.32 0-2.481-2.019-4.5-4.5-4.5zM19.5 22.722c-1.245-1.566-3.5-4.715-3.5-6.207 0-1.93 1.57-3.5 3.5-3.5s3.5 1.57 3.5 3.5c0 1.491-2.256 4.64-3.5 6.207z"></path>
<path d="M19.5 14.515c-1.103 0-2 0.897-2 2s0.897 2 2 2 2-0.897 2-2c0-1.103-0.897-2-2-2zM19.5 17.515c-0.551 0-1-0.449-1-1s0.449-1 1-1 1 0.449 1 1-0.449 1-1 1z"></path>
</svg>
