<!-- Generated by IcoMoon.io -->
<svg version="1.1" xmlns="http://www.w3.org/2000/svg" width="24" height="24" viewBox="0 0 24 24">
<title>medical-box</title>
<path d="M16.5 12h-2.5v-2.5c0-0.276-0.224-0.5-0.5-0.5h-3c-0.276 0-0.5 0.224-0.5 0.5v2.5h-2.5c-0.276 0-0.5 0.224-0.5 0.5v3c0 0.276 0.224 0.5 0.5 0.5h2.5v2.5c0 0.276 0.224 0.5 0.5 0.5h3c0.276 0 0.5-0.224 0.5-0.5v-2.5h2.5c0.276 0 0.5-0.224 0.5-0.5v-3c0-0.276-0.224-0.5-0.5-0.5zM16 15h-2.5c-0.276 0-0.5 0.224-0.5 0.5v2.5h-2v-2.5c0-0.276-0.224-0.5-0.5-0.5h-2.5v-2h2.5c0.276 0 0.5-0.224 0.5-0.5v-2.5h2v2.5c0 0.276 0.224 0.5 0.5 0.5h2.5v2z"></path>
<path d="M21.5 5h-5.5v-1c0-1.104-0.897-2-2-2h-4c-1.103 0-2 0.896-2 2v1h-5.5c-1.379 0-2.5 1.122-2.5 2.5v12c0 1.378 1.121 2.5 2.5 2.5h19c1.379 0 2.5-1.122 2.5-2.5v-12c0-1.378-1.121-2.5-2.5-2.5zM9 4c0-0.551 0.448-1 1-1h4c0.552 0 1 0.449 1 1v1h-6v-1zM23 19.5c0 0.827-0.673 1.5-1.5 1.5h-19c-0.827 0-1.5-0.673-1.5-1.5v-12c0-0.827 0.673-1.5 1.5-1.5h19c0.827 0 1.5 0.673 1.5 1.5v12z"></path>
</svg>
