<!-- Generated by IcoMoon.io -->
<svg version="1.1" xmlns="http://www.w3.org/2000/svg" width="24" height="24" viewBox="0 0 24 24">
<title>mobile-phone-portrait</title>
<path d="M16.5 0h-9c-1.378 0-2.5 1.121-2.5 2.5v19c0 1.379 1.122 2.5 2.5 2.5h9c1.378 0 2.5-1.121 2.5-2.5v-19c0-1.379-1.121-2.5-2.5-2.5zM6 5h12v14h-12v-14zM7.5 1h9c0.828 0 1.5 0.673 1.5 1.5v1.5h-12v-1.5c0-0.827 0.673-1.5 1.5-1.5zM16.5 23h-9c-0.827 0-1.5-0.673-1.5-1.5v-1.5h12v1.5c0 0.827-0.672 1.5-1.5 1.5z"></path>
<path d="M9.5 3h5c0.277 0 0.5-0.224 0.5-0.5s-0.223-0.5-0.5-0.5h-5c-0.276 0-0.5 0.224-0.5 0.5s0.224 0.5 0.5 0.5z"></path>
<path d="M12 20.5c-0.551 0-1 0.448-1 1s0.449 1 1 1 1-0.448 1-1-0.448-1-1-1zM12 22v-0.5h0.001l-0.001 0.5z"></path>
</svg>
