<!-- Generated by IcoMoon.io -->
<svg version="1.1" xmlns="http://www.w3.org/2000/svg" width="24" height="24" viewBox="0 0 24 24">
<title>navigation-drawer</title>
<path d="M20.5 5h-17c-0.3 0-0.5 0.2-0.5 0.5v1c0 0.3 0.2 0.5 0.5 0.5h17c0.3 0 0.5-0.2 0.5-0.5v-1c0-0.3-0.2-0.5-0.5-0.5z"></path>
<path d="M20.5 11h-17c-0.3 0-0.5 0.2-0.5 0.5v1c0 0.3 0.2 0.5 0.5 0.5h17c0.3 0 0.5-0.2 0.5-0.5v-1c0-0.3-0.2-0.5-0.5-0.5z"></path>
<path d="M20.5 17h-17c-0.3 0-0.5 0.2-0.5 0.5v1c0 0.3 0.2 0.5 0.5 0.5h17c0.3 0 0.5-0.2 0.5-0.5v-1c0-0.3-0.2-0.5-0.5-0.5z"></path>
</svg>
