<!-- Generated by IcoMoon.io -->
<svg version="1.1" xmlns="http://www.w3.org/2000/svg" width="24" height="24" viewBox="0 0 24 24">
<title>network-signal</title>
<path d="M18.718 11.486c0.195 0.195 0.512 0.195 0.707 0s0.195-0.512 0-0.707c-4.078-4.081-10.747-4.104-14.849 0-0.195 0.195-0.195 0.512 0 0.707s0.512 0.195 0.707 0c3.637-3.637 9.659-3.777 13.435 0z"></path>
<path d="M2.454 7.658c5.265-5.264 13.828-5.264 19.093 0 0.195 0.195 0.512 0.195 0.707 0s0.195-0.512 0-0.707c-5.654-5.653-14.853-5.653-20.507 0-0.195 0.195-0.195 0.512 0 0.707s0.511 0.195 0.707 0z"></path>
<path d="M16.597 14.605c-2.534-2.533-6.657-2.534-9.193 0-0.195 0.195-0.195 0.512 0 0.707s0.512 0.195 0.707 0c2.104-2.103 5.646-2.131 7.779 0 0.195 0.195 0.512 0.195 0.707 0s0.195-0.511 0-0.707z"></path>
<path d="M9.5 20.202c0 1.378 1.121 2.5 2.5 2.5s2.5-1.122 2.5-2.5-1.121-2.5-2.5-2.5-2.5 1.122-2.5 2.5zM13.5 20.202c0 0.827-0.673 1.5-1.5 1.5s-1.5-0.673-1.5-1.5 0.673-1.5 1.5-1.5 1.5 0.673 1.5 1.5z"></path>
</svg>
