<!-- Generated by IcoMoon.io -->
<svg version="1.1" xmlns="http://www.w3.org/2000/svg" width="24" height="24" viewBox="0 0 24 24">
<title>network-user</title>
<path d="M24 11.479c-0.265-6.166-5.117-11.040-11.197-11.439-0.034-0.005-0.066-0.007-0.1-0.005-0.234-0.014-0.466-0.035-0.703-0.035-0.234 0-0.464 0.021-0.695 0.035-0.039-0.003-0.076 0-0.114 0.006-6.042 0.406-10.86 5.293-11.161 11.362-0.007 0.032-0.020 0.062-0.020 0.097 0 0.021 0.009 0.038 0.012 0.058-0.005 0.148-0.022 0.293-0.022 0.442 0 2.054 0.522 3.988 1.436 5.684 0.008 0.021 0.022 0.037 0.033 0.057 1.932 3.541 5.59 6.014 9.883 6.243 0.009 0.001 0.018 0.001 0.026 0.001 0.102 0 0.191-0.037 0.271-0.090 0.009-0.006 0.021-0.003 0.029-0.010 0.008-0.006 0.012-0.015 0.019-0.021 0.028-0.023 0.050-0.052 0.072-0.080 0.017-0.022 0.035-0.043 0.048-0.067 0.016-0.028 0.022-0.060 0.032-0.091s0.020-0.061 0.022-0.093c0.001-0.008 0.006-0.014 0.006-0.021 0.001-0.023-0.008-0.044-0.010-0.065-0.003-0.036-0.005-0.071-0.016-0.105-0.010-0.033-0.026-0.062-0.043-0.091-0.012-0.021-0.016-0.045-0.030-0.064-1.293-1.726-2.288-3.46-3.019-5.187h3.256c0.276 0 0.5-0.224 0.5-0.5s-0.224-0.5-0.5-0.5h-3.657c-0.611-1.688-0.946-3.359-1.019-5h16.161c0.007 0 0.014 0 0.021 0 0.032-0.002 0.061-0.016 0.091-0.022 0.031-0.008 0.063-0.011 0.092-0.022 0.029-0.014 0.052-0.035 0.078-0.053 0.026-0.020 0.055-0.034 0.077-0.058 0.023-0.023 0.037-0.053 0.055-0.081 0.017-0.025 0.037-0.049 0.049-0.079 0.014-0.033 0.016-0.069 0.021-0.106 0.004-0.027 0.016-0.052 0.016-0.079 0-0.004-0.002-0.006-0.002-0.010s0.002-0.008 0.002-0.011zM1.051 11c0.166-1.834 0.784-3.536 1.741-5h4.52c-0.587 1.611-0.902 3.286-0.938 5h-5.323zM8.339 6h7.321c0.632 1.593 0.958 3.264 0.997 5h-9.33c0.040-1.717 0.37-3.393 1.012-5zM16.703 6h4.523c0.95 1.459 1.56 3.159 1.726 5h-5.296c-0.038-1.716-0.359-3.392-0.953-5zM20.495 5h-4.201c-0.598-1.335-1.382-2.615-2.356-3.822 2.626 0.463 4.928 1.848 6.557 3.822zM12.499 1.024c1.137 1.259 2.036 2.587 2.71 3.976h-6.416c0.673-1.385 1.571-2.717 2.708-3.975 0.166-0.007 0.33-0.025 0.499-0.025 0.168 0 0.332 0.017 0.499 0.024zM10.060 1.182c-0.977 1.213-1.755 2.49-2.344 3.818h-4.195c1.626-1.967 3.925-3.35 6.539-3.818zM10.342 22.877c-3.177-0.481-5.891-2.311-7.562-4.877h4.919c0.645 1.632 1.529 3.264 2.643 4.877zM7.336 17h-5.133c-0.767-1.503-1.203-3.202-1.203-5h5.387c0.067 1.646 0.383 3.319 0.949 5z"></path>
<path d="M22.661 21.242l-2.161-0.619v-0.804c0.904-0.679 1.5-1.8 1.5-3.069 0-2.067-1.57-3.75-3.5-3.75s-3.5 1.683-3.5 3.75c0 1.27 0.596 2.391 1.5 3.069v0.804l-2.161 0.619c-0.751 0.215-1.339 0.987-1.339 1.758v0.5c0 0.276 0.224 0.5 0.5 0.5h10c0.276 0 0.5-0.224 0.5-0.5v-0.5c0-0.771-0.588-1.543-1.339-1.758zM18.5 14c1.126 0 2.068 0.827 2.381 1.955-0.154 0.051-0.358 0.078-0.586 0.044-0.229-0.034-0.648-0.152-0.872-0.569-0.075-0.139-0.211-0.234-0.368-0.258-0.148-0.019-0.313 0.029-0.426 0.142-0.726 0.726-1.808 0.786-2.479 0.532 0.342-1.072 1.261-1.846 2.35-1.846zM16.010 16.855c0.883 0.26 2.004 0.146 2.892-0.472 0.324 0.319 0.757 0.532 1.248 0.604 0.121 0.018 0.242 0.026 0.361 0.026 0.163 0 0.319-0.022 0.47-0.054-0.1 1.416-1.167 2.539-2.48 2.539-1.347 0.002-2.439-1.176-2.491-2.643zM14 23c0-0.319 0.299-0.706 0.614-0.797l2.523-0.723c0.216-0.061 0.363-0.257 0.363-0.48v-0.675c0.319 0.103 0.65 0.175 1 0.175s0.681-0.072 1-0.175v0.675c0 0.223 0.147 0.419 0.362 0.48l2.523 0.723c0.316 0.091 0.615 0.478 0.615 0.797h-9z"></path>
</svg>
