<!-- Generated by IcoMoon.io -->
<svg version="1.1" xmlns="http://www.w3.org/2000/svg" width="24" height="24" viewBox="0 0 24 24">
<title>newspaper</title>
<path d="M14.5 3h-11c-0.276 0-0.5 0.224-0.5 0.5s0.224 0.5 0.5 0.5h11c0.276 0 0.5-0.224 0.5-0.5s-0.224-0.5-0.5-0.5z"></path>
<path d="M3.5 13h5c0.276 0 0.5-0.224 0.5-0.5v-6c0-0.276-0.224-0.5-0.5-0.5h-5c-0.276 0-0.5 0.224-0.5 0.5v6c0 0.276 0.224 0.5 0.5 0.5zM4 7h4v5h-4v-5z"></path>
<path d="M14.5 8h-3c-0.276 0-0.5 0.224-0.5 0.5s0.224 0.5 0.5 0.5h3c0.276 0 0.5-0.224 0.5-0.5s-0.224-0.5-0.5-0.5z"></path>
<path d="M14.5 10h-4c-0.276 0-0.5 0.224-0.5 0.5s0.224 0.5 0.5 0.5h4c0.276 0 0.5-0.224 0.5-0.5s-0.224-0.5-0.5-0.5z"></path>
<path d="M14.5 12h-4c-0.276 0-0.5 0.224-0.5 0.5s0.224 0.5 0.5 0.5h4c0.276 0 0.5-0.224 0.5-0.5s-0.224-0.5-0.5-0.5z"></path>
<path d="M14.5 14h-11c-0.276 0-0.5 0.224-0.5 0.5s0.224 0.5 0.5 0.5h11c0.276 0 0.5-0.224 0.5-0.5s-0.224-0.5-0.5-0.5z"></path>
<path d="M14.5 16h-11c-0.276 0-0.5 0.224-0.5 0.5s0.224 0.5 0.5 0.5h11c0.276 0 0.5-0.224 0.5-0.5s-0.224-0.5-0.5-0.5z"></path>
<path d="M14.5 18h-11c-0.276 0-0.5 0.224-0.5 0.5s0.224 0.5 0.5 0.5h11c0.276 0 0.5-0.224 0.5-0.5s-0.224-0.5-0.5-0.5z"></path>
<path d="M23.5 3h-3.5v-1c0-0.276-0.224-0.5-0.5-0.5h-1.5v-1c0-0.276-0.224-0.5-0.5-0.5h-17c-0.276 0-0.5 0.224-0.5 0.5v20c0 1.93 1.57 3.5 3.5 3.5h17c1.93 0 3.5-1.57 3.5-3.5v-17c0-0.276-0.224-0.5-0.5-0.5zM20 6h1v14.5c0 0.276-0.225 0.5-0.5 0.5s-0.5-0.224-0.5-0.5v-14.5zM3.5 23c-1.379 0-2.5-1.122-2.5-2.5v-19.5h16v19.5c0 0.979 0.403 1.865 1.053 2.5h-14.553zM23 20.5c0 1.378-1.121 2.5-2.5 2.5s-2.5-1.122-2.5-2.5v-18h1v18c0 0.827 0.673 1.5 1.5 1.5s1.5-0.673 1.5-1.5v-15c0-0.276-0.224-0.5-0.5-0.5h-1.5v-1h3v16.5z"></path>
</svg>
