<!-- Generated by IcoMoon.io -->
<svg version="1.1" xmlns="http://www.w3.org/2000/svg" width="24" height="24" viewBox="0 0 24 24">
<title>pencil</title>
<path d="M23.009 3.099l-2.122-2.122c-0.943-0.944-2.592-0.944-3.536 0 0 0-14.858 14.861-15.344 15.347-0.001 0.001-0.003 0.001-0.004 0.003s-0.002 0.003-0.003 0.004l-0.248 0.248c-0.066 0.066-0.112 0.149-0.133 0.239l-1.517 6.465c-0.085 0.361 0.239 0.685 0.601 0.601l6.466-1.517c0.090-0.021 0.173-0.067 0.239-0.133l0.248-0.247c0.001-0.001 0.003-0.001 0.004-0.003s0.002-0.003 0.003-0.004c15.931-15.931 12.399-12.399 15.346-15.346 0.973-0.975 0.973-2.561 0-3.535zM20.522 7.707l-4.233-4.254 0.708-0.709 4.244 4.243-0.719 0.72zM7.305 20.922l-4.242-4.242 12.519-12.521 4.233 4.254-12.51 12.509zM2.481 17.514l3.991 3.99-5.213 1.223 1.222-5.213zM22.301 5.926l-0.354 0.354-4.244-4.244 0.354-0.354c0.566-0.566 1.555-0.567 2.122 0l2.122 2.123c0.584 0.584 0.584 1.536 0 2.121z"></path>
</svg>
