<!-- Generated by IcoMoon.io -->
<svg version="1.1" xmlns="http://www.w3.org/2000/svg" width="24" height="24" viewBox="0 0 24 24">
<title>person</title>
<path d="M19.677 17.069l-4.677-1.671v-2.207c1.503-1.162 2.5-3.165 2.5-5.441 0-3.584-2.467-6.5-5.5-6.5s-5.5 2.917-5.5 6.501c0 2.276 0.997 4.279 2.5 5.441v2.207l-4.678 1.671c-1.389 0.496-2.322 1.82-2.322 3.295v1.886c0 0.276 0.224 0.5 0.5 0.5h19c0.276 0 0.5-0.224 0.5-0.5v-1.886c0-1.475-0.934-2.799-2.323-3.296zM12 2.251c2.204 0 4.039 1.947 4.423 4.507-0.007 0.001-0.011 0.001-0.018 0.002-1.453 0.28-2.352-0.192-3.206-1.687-0.090-0.159-0.229-0.245-0.444-0.252-0.183 0.003-0.349 0.106-0.434 0.269-0.46 0.885-2.013 1.661-3.321 1.661-0.509 0-0.946-0.084-1.376-0.26 0.468-2.427 2.25-4.24 4.376-4.24zM7.5 7.75c0-0.081 0.007-0.16 0.010-0.24 0.469 0.158 0.954 0.24 1.49 0.24 1.374 0 2.881-0.653 3.735-1.55 0.797 1.109 1.737 1.635 2.931 1.635 0.264 0 0.545-0.034 0.834-0.085 0 3.033-2.019 5.5-4.5 5.5s-4.5-2.467-4.5-5.5zM21 21.751h-18v-1.386c0-1.053 0.667-1.999 1.659-2.354l5.009-1.789c0.199-0.071 0.332-0.26 0.332-0.471v-1.951c0.621 0.288 1.294 0.451 2 0.451s1.379-0.164 2-0.451v1.951c0 0.211 0.133 0.4 0.332 0.471l5.008 1.789c0.993 0.355 1.66 1.301 1.66 2.354v1.386z"></path>
</svg>
