<!-- Generated by IcoMoon.io -->
<svg version="1.1" xmlns="http://www.w3.org/2000/svg" width="24" height="24" viewBox="0 0 24 24">
<title>picture</title>
<path d="M23.5 5c-0.276 0-0.5 0.224-0.5 0.5v17.5h-17.5c-0.276 0-0.5 0.224-0.5 0.5s0.224 0.5 0.5 0.5h18c0.276 0 0.5-0.224 0.5-0.5v-18c0-0.276-0.224-0.5-0.5-0.5z"></path>
<path d="M22 21.5v-19c0-0.276-0.224-0.5-0.5-0.5s-0.5 0.224-0.5 0.5v18.5h-18.5c-0.276 0-0.5 0.224-0.5 0.5s0.224 0.5 0.5 0.5h19c0.276 0 0.5-0.224 0.5-0.5z"></path>
<path d="M20 19.5v-19c0-0.276-0.224-0.5-0.5-0.5h-19c-0.276 0-0.5 0.224-0.5 0.5v19c0 0.276 0.224 0.5 0.5 0.5h19c0.276 0 0.5-0.224 0.5-0.5zM19 1v14h-1.653l-2.878-7.676c-0.066-0.175-0.225-0.299-0.411-0.321-0.187-0.022-0.369 0.063-0.473 0.22l-3.628 5.442-2.073-2.485c-0.104-0.124-0.261-0.191-0.423-0.178s-0.307 0.103-0.39 0.241l-2.854 4.757h-3.217v-14h18zM16.278 15h-10.895l2.184-3.639 2.049 2.459c0.101 0.121 0.237 0.184 0.411 0.179 0.157-0.009 0.302-0.091 0.389-0.222l3.458-5.188 2.404 6.411zM1 19v-3h18v3h-18z"></path>
<path d="M6 7c1.103 0 2-0.897 2-2s-0.897-2-2-2-2 0.897-2 2 0.897 2 2 2zM6 4c0.551 0 1 0.449 1 1s-0.449 1-1 1-1-0.449-1-1 0.449-1 1-1z"></path>
</svg>
