<!-- Generated by IcoMoon.io -->
<svg version="1.1" xmlns="http://www.w3.org/2000/svg" width="24" height="24" viewBox="0 0 24 24">
<title>play-button</title>
<path d="M12 24c-6.617 0-12-5.383-12-12s5.383-12 12-12 12 5.383 12 12-5.383 12-12 12zM12 1c-6.065 0-11 4.935-11 11s4.935 11 11 11 11-4.935 11-11-4.935-11-11-11z"></path>
<path d="M8.5 17c-0.091 0-0.183-0.025-0.263-0.074-0.147-0.092-0.237-0.253-0.237-0.426v-9c0-0.173 0.090-0.334 0.237-0.426s0.332-0.099 0.486-0.021l9 4.5c0.17 0.085 0.277 0.258 0.277 0.447s-0.107 0.362-0.276 0.447l-9 4.5c-0.071 0.035-0.147 0.053-0.224 0.053zM9 8.309v7.383l7.382-3.692-7.382-3.691z"></path>
</svg>
