<!-- Generated by IcoMoon.io -->
<svg version="1.1" xmlns="http://www.w3.org/2000/svg" width="24" height="24" viewBox="0 0 24 24">
<title>podcast</title>
<path d="M17.833 12.5c0 3.045-2.619 5.5-5.833 5.5s-5.833-2.455-5.833-5.5v-5c0-3.045 2.619-5.5 5.833-5.5s5.833 2.455 5.833 5.5v5zM16.833 11v-1h-2.7c-0.276 0-0.5-0.224-0.5-0.5s0.224-0.5 0.5-0.5h2.7v-1h-2.7c-0.276 0-0.5-0.224-0.5-0.5s0.224-0.5 0.5-0.5h2.67c-0.208-1.75-1.497-3.203-3.237-3.758v2.258c0 0.276-0.224 0.5-0.5 0.5s-0.5-0.224-0.5-0.5v-2.469c-0.186-0.020-0.375-0.031-0.567-0.031s-0.381 0.010-0.567 0.031v2.469c0 0.276-0.224 0.5-0.5 0.5s-0.5-0.224-0.5-0.5v-2.258c-1.74 0.555-3.029 2.008-3.237 3.758h2.67c0.276 0 0.5 0.224 0.5 0.5s-0.224 0.5-0.5 0.5h-2.7v1h2.7c0.276 0 0.5 0.224 0.5 0.5s-0.224 0.5-0.5 0.5h-2.7v1h2.7c0.276 0 0.5 0.224 0.5 0.5s-0.224 0.5-0.5 0.5h-2.7v0.5c0 0.527 0.097 1.033 0.277 1.503 0.019-0.002 0.038-0.003 0.057-0.003h9c0.019 0 0.038 0.001 0.057 0.003 0.179-0.47 0.277-0.977 0.277-1.503v-0.5h-2.7c-0.276 0-0.5-0.224-0.5-0.5s0.224-0.5 0.5-0.5h2.7zM16.019 15h-8.038c0.866 1.205 2.34 2 4.019 2s3.153-0.795 4.019-2zM12.5 19.985v3.515c0 0.276-0.224 0.5-0.5 0.5s-0.5-0.224-0.5-0.5v-3.515c-2.688-0.156-5.093-1.566-6.431-3.738-0.145-0.235-0.072-0.543 0.163-0.688s0.543-0.072 0.688 0.163c1.238 2.008 3.538 3.277 6.080 3.277 2.54 0 4.839-1.267 6.077-3.273 0.145-0.235 0.453-0.308 0.688-0.163s0.308 0.453 0.163 0.688c-1.339 2.169-3.742 3.577-6.428 3.733zM19.978 6.528c1.984 0.236 3.522 1.924 3.522 3.972 0 2.209-1.791 4-4 4-0.276 0-0.5-0.224-0.5-0.5v-6.938c0-3.333-3.119-6.063-7-6.063s-7 2.729-7 6.063v6.938c0 0.276-0.224 0.5-0.5 0.5-2.209 0-4-1.791-4-4 0-2.047 1.539-3.736 3.522-3.972 0.309-3.665 3.774-6.528 7.978-6.528s7.668 2.863 7.978 6.528zM1.5 10.5c0 1.486 1.081 2.72 2.5 2.959v-5.917c-1.419 0.238-2.5 1.472-2.5 2.959zM20 7.541v5.917c1.419-0.238 2.5-1.472 2.5-2.959s-1.081-2.72-2.5-2.959z"></path>
</svg>
