<!-- Generated by IcoMoon.io -->
<svg version="1.1" xmlns="http://www.w3.org/2000/svg" width="24" height="24" viewBox="0 0 24 24">
<title>presentation-code</title>
<path d="M22.5 4c0.276 0 0.5-0.224 0.5-0.5v-3c0-0.276-0.224-0.5-0.5-0.5h-22c-0.276 0-0.5 0.224-0.5 0.5v3c0 0.276 0.224 0.5 0.5 0.5h1.5v13h-1.479c-0.276 0-0.5 0.224-0.5 0.5s0.224 0.5 0.5 0.5h10.466l0.011 2.072c-0.859 0.224-1.498 0.999-1.498 1.928 0 1.103 0.897 2 2 2s2-0.897 2-2c0-0.93-0.641-1.707-1.502-1.93l-0.011-2.070h10.492c0.276 0 0.5-0.224 0.5-0.5s-0.224-0.5-0.5-0.5h-1.479v-13h1.5zM12.5 22c0 0.551-0.448 1-1 1s-1-0.449-1-1c0-0.551 0.448-1 1-1s1 0.449 1 1zM1 1h21v2h-21v-2zM20 17h-17v-13h17v13z"></path>
<path d="M7.147 12.854c0.098 0.098 0.226 0.146 0.353 0.146 0.129 0 0.257-0.049 0.354-0.147 0.195-0.196 0.193-0.512-0.002-0.707l-1.646-1.635 1.647-1.658c0.197-0.197 0.195-0.513 0-0.707-0.198-0.196-0.514-0.193-0.707 0.002l-2 2.013c-0.094 0.094-0.146 0.221-0.146 0.354s0.054 0.26 0.147 0.353l2 1.986z"></path>
<path d="M15.146 12.854c0.098 0.097 0.226 0.146 0.354 0.146s0.256-0.049 0.354-0.146l2-2c0.195-0.195 0.195-0.512 0-0.707l-2-2c-0.195-0.195-0.512-0.195-0.707 0s-0.195 0.512 0 0.707l1.646 1.646-1.646 1.646c-0.196 0.196-0.196 0.513-0.001 0.708z"></path>
<path d="M9.5 14c0.161 0 0.319-0.078 0.416-0.223l4-6c0.153-0.23 0.091-0.54-0.139-0.693-0.229-0.152-0.539-0.092-0.693 0.139l-4 6c-0.153 0.23-0.091 0.54 0.139 0.693 0.085 0.057 0.181 0.084 0.277 0.084z"></path>
</svg>
