<!-- Generated by IcoMoon.io -->
<svg version="1.1" xmlns="http://www.w3.org/2000/svg" width="24" height="24" viewBox="0 0 24 24">
<title>print</title>
<path d="M21.5 7h-19c-1.378 0-2.5 1.122-2.5 2.5v6c0 1.378 1.122 2.5 2.5 2.5h2.5v4.5c0 0.276 0.224 0.5 0.5 0.5h13c0.276 0 0.5-0.224 0.5-0.5v-4.5h2.5c1.378 0 2.5-1.122 2.5-2.5v-6c0-1.378-1.122-2.5-2.5-2.5zM18 22h-12v-7h12v7zM23 15.5c0 0.827-0.673 1.5-1.5 1.5h-2.5v-2.5c0-0.276-0.224-0.5-0.5-0.5h-13c-0.276 0-0.5 0.224-0.5 0.5v2.5h-2.5c-0.827 0-1.5-0.673-1.5-1.5v-6c0-0.827 0.673-1.5 1.5-1.5h19c0.827 0 1.5 0.673 1.5 1.5v6z"></path>
<path d="M5.5 6c0.276 0 0.5-0.224 0.5-0.5v-3.5h9v2.5c0 0.276 0.224 0.5 0.5 0.5h2.5v0.5c0 0.276 0.224 0.5 0.5 0.5s0.5-0.224 0.5-0.5v-1c0-0.067-0.014-0.132-0.039-0.192-0.025-0.061-0.062-0.116-0.108-0.162l-2.999-2.999c-0.046-0.046-0.101-0.082-0.162-0.108-0.060-0.025-0.125-0.039-0.192-0.039h-10c-0.276 0-0.5 0.224-0.5 0.5v4c0 0.276 0.224 0.5 0.5 0.5zM16 2.707l1.293 1.293h-1.293v-1.293z"></path>
<path d="M3.5 9c-0.827 0-1.5 0.673-1.5 1.5s0.673 1.5 1.5 1.5c0.827 0 1.5-0.673 1.5-1.5s-0.673-1.5-1.5-1.5zM3.5 11c-0.276 0-0.5-0.224-0.5-0.5s0.224-0.5 0.5-0.5c0.276 0 0.5 0.224 0.5 0.5s-0.224 0.5-0.5 0.5z"></path>
<path d="M16.5 16h-9c-0.276 0-0.5 0.224-0.5 0.5s0.224 0.5 0.5 0.5h9c0.276 0 0.5-0.224 0.5-0.5s-0.224-0.5-0.5-0.5z"></path>
<path d="M16.5 18h-9c-0.276 0-0.5 0.224-0.5 0.5s0.224 0.5 0.5 0.5h9c0.276 0 0.5-0.224 0.5-0.5s-0.224-0.5-0.5-0.5z"></path>
<path d="M16.5 20h-9c-0.276 0-0.5 0.224-0.5 0.5s0.224 0.5 0.5 0.5h9c0.276 0 0.5-0.224 0.5-0.5s-0.224-0.5-0.5-0.5z"></path>
</svg>
