<!-- Generated by IcoMoon.io -->
<svg version="1.1" xmlns="http://www.w3.org/2000/svg" width="24" height="24" viewBox="0 0 24 24">
<title>projector-screen</title>
<path d="M23.5-0.024h-23c-0.276 0-0.5 0.224-0.5 0.5v16c0 0.276 0.224 0.5 0.5 0.5h9.793l-6.146 6.146c-0.195 0.195-0.195 0.512 0 0.707s0.512 0.195 0.707 0l6.146-6.146v5.793c0 0.276 0.224 0.5 0.5 0.5s0.5-0.224 0.5-0.5v-5.793l6.146 6.147c0.098 0.097 0.226 0.146 0.354 0.146s0.256-0.049 0.354-0.146c0.195-0.195 0.195-0.512 0-0.707l-6.147-6.147h10.793c0.276 0 0.5-0.224 0.5-0.5v-16c0-0.276-0.224-0.5-0.5-0.5zM23 0.976v3h-22v-3h22zM1 15.976v-11h22v11h-22z"></path>
</svg>
