<!-- Generated by IcoMoon.io -->
<svg version="1.1" xmlns="http://www.w3.org/2000/svg" width="24" height="24" viewBox="0 0 24 24">
<title>remove-circle</title>
<path d="M12 23.5c6.341 0 11.5-5.159 11.5-11.5s-5.159-11.5-11.5-11.5-11.5 5.159-11.5 11.5 5.159 11.5 11.5 11.5zM12 1.5c5.79 0 10.5 4.71 10.5 10.5s-4.71 10.5-10.5 10.5-10.5-4.71-10.5-10.5 4.71-10.5 10.5-10.5z"></path>
<path d="M7.403 16.597c0.195 0.195 0.512 0.195 0.707 0l3.89-3.89 3.889 3.89c0.195 0.195 0.512 0.195 0.707 0s0.195-0.512 0-0.707l-3.889-3.89 3.889-3.889c0.195-0.195 0.195-0.512 0-0.707s-0.512-0.195-0.707 0l-3.889 3.89-3.89-3.89c-0.195-0.195-0.512-0.195-0.707 0s-0.195 0.512 0 0.707l3.89 3.889-3.89 3.89c-0.195 0.195-0.195 0.511 0 0.707z"></path>
</svg>
