<!-- Generated by IcoMoon.io -->
<svg version="1.1" xmlns="http://www.w3.org/2000/svg" width="24" height="24" viewBox="0 0 24 24">
<title>remove-circle-solid</title>
<path d="M12 0.5c-6.352 0-11.5 5.148-11.5 11.5s5.148 11.5 11.5 11.5 11.5-5.148 11.5-11.5-5.148-11.5-11.5-11.5zM16.596 15.889c0.195 0.195 0.195 0.512 0 0.707s-0.512 0.195-0.707 0l-3.889-3.889-3.889 3.889c-0.195 0.195-0.512 0.195-0.707 0s-0.195-0.512 0-0.707l3.889-3.889-3.889-3.889c-0.195-0.195-0.195-0.512 0-0.707s0.512-0.195 0.707 0l3.889 3.889 3.889-3.889c0.195-0.195 0.512-0.195 0.707 0s0.195 0.512 0 0.707l-3.889 3.889 3.889 3.889z"></path>
</svg>
