<!-- Generated by IcoMoon.io -->
<svg version="1.1" xmlns="http://www.w3.org/2000/svg" width="24" height="24" viewBox="0 0 24 24">
<title>report-problem-triangle</title>
<path d="M11.468 8.684v7.652c0 0.276 0.224 0.5 0.5 0.5s0.5-0.224 0.5-0.5v-7.652c0-0.276-0.224-0.5-0.5-0.5s-0.5 0.224-0.5 0.5z"></path>
<path d="M12.415 0.807c-0.17-0.339-0.725-0.339-0.895 0l-11 22c-0.166 0.335 0.079 0.724 0.448 0.724h22c0.007 0 0.015 0.001 0.020 0 0.438 0 0.657-0.519 0.372-0.834l-10.945-21.89zM1.778 22.531l10.191-20.382 10.191 20.382h-20.382z"></path>
<path d="M12.968 19.531c0 0.552-0.448 1-1 1s-1-0.448-1-1c0-0.552 0.448-1 1-1s1 0.448 1 1z"></path>
</svg>
