<!-- Generated by IcoMoon.io -->
<svg version="1.1" xmlns="http://www.w3.org/2000/svg" width="24" height="24" viewBox="0 0 24 24">
<title>report-problem-circle</title>
<path d="M12.195 0.499l-0.205 0.002c-6.366 0.11-11.598 5.352-11.489 11.699 0.11 6.338 5.076 11.302 11.305 11.302l0.202-0.001c6.445-0.113 11.6-5.362 11.489-11.701-0.11-6.337-5.074-11.301-11.302-11.301zM11.99 22.501l-0.185 0.001c-5.678 0-10.204-4.533-10.305-10.32-0.101-5.777 4.679-10.581 10.508-10.681l0.187-0.002c5.677 0 10.201 4.532 10.302 10.318 0.101 5.788-4.613 10.581-10.507 10.684z"></path>
<path d="M11.999 13.999c0.276 0 0.5-0.224 0.5-0.5v-7c0-0.276-0.224-0.5-0.5-0.5s-0.5 0.224-0.5 0.5v7c0 0.276 0.224 0.5 0.5 0.5z"></path>
<path d="M12.999 16.999c0 0.552-0.448 1-1 1s-1-0.448-1-1c0-0.552 0.448-1 1-1s1 0.448 1 1z"></path>
</svg>
