<!-- Generated by IcoMoon.io -->
<svg version="1.1" xmlns="http://www.w3.org/2000/svg" width="24" height="24" viewBox="0 0 24 24">
<title>share</title>
<path d="M19.5 9c2.481 0 4.5-2.019 4.5-4.5s-2.019-4.5-4.5-4.5c-3.114 0-5.309 3.116-4.221 6.051l-7.012 3.507c-0.825-1.278-2.224-2.058-3.767-2.058-2.481 0-4.5 2.019-4.5 4.5s2.019 4.5 4.5 4.5c1.543 0 2.942-0.78 3.767-2.058l7.016 3.508c-1.079 2.912 1.071 6.050 4.217 6.050 2.481 0 4.5-2.019 4.5-4.5s-2.019-4.5-4.5-4.5c-1.543 0-2.948 0.776-3.774 2.055l-7.005-3.503c0.373-1.003 0.372-2.104 0.001-3.104l7.004-3.502c0.826 1.278 2.231 2.054 3.774 2.054zM19.5 16c1.93 0 3.5 1.57 3.5 3.5s-1.57 3.5-3.5 3.5c-2.604 0-4.29-2.747-3.128-5.063 0.599-1.195 1.798-1.937 3.128-1.937zM4.5 15.5c-1.93 0-3.5-1.57-3.5-3.5s1.57-3.5 3.5-3.5c1.331 0 2.529 0.742 3.127 1.936 0 0.001 0 0.001 0 0.001 1.162 2.308-0.523 5.063-3.127 5.063zM19.5 1c1.93 0 3.5 1.57 3.5 3.5s-1.57 3.5-3.5 3.5c-1.33 0-2.529-0.742-3.128-1.938 0 0 0 0-0.001-0.001-1.167-2.344 0.552-5.061 3.129-5.061z"></path>
</svg>
