<!-- Generated by IcoMoon.io -->
<svg version="1.1" xmlns="http://www.w3.org/2000/svg" width="24" height="24" viewBox="0 0 24 24">
<title>share-solid</title>
<path d="M19.5 15c-1.583 0-2.973 0.819-3.774 2.055l-7.005-3.503c0.371-0.994 0.375-2.098 0-3.104l7.005-3.502c0.801 1.236 2.191 2.054 3.774 2.054 2.484 0 4.5-2.015 4.5-4.5s-2.016-4.5-4.5-4.5c-3.11 0-5.307 3.095-4.221 6.051l-7.013 3.507c-0.825-1.278-2.223-2.058-3.766-2.058-2.481 0-4.5 2.019-4.5 4.5s2.019 4.5 4.5 4.5c1.543 0 2.941-0.779 3.767-2.058l7.013 3.507c-1.086 2.958 1.11 6.051 4.22 6.051 2.484 0 4.5-2.015 4.5-4.5s-2.016-4.5-4.5-4.5z"></path>
</svg>
