<!-- Generated by IcoMoon.io -->
<svg version="1.1" xmlns="http://www.w3.org/2000/svg" width="24" height="24" viewBox="0 0 24 24">
<title>shopping-cart</title>
<path d="M20.962 17.159l3-9c0.050-0.153 0.025-0.321-0.070-0.451-0.093-0.131-0.244-0.208-0.405-0.208h-17.692l-1.322-5.615c-0.052-0.225-0.254-0.385-0.486-0.385h-3.5c-0.276 0-0.5 0.224-0.5 0.5s0.224 0.5 0.5 0.5h3.104l3.79 16.104c-0.805 0.259-1.394 1.006-1.394 1.896 0 1.103 0.897 2 2 2s2-0.897 2-2c0-0.365-0.105-0.705-0.278-1h7.557c-0.174 0.295-0.279 0.635-0.279 1 0 1.103 0.897 2 2 2s2-0.897 2-2c0-1.103-0.897-2-2-2h-10.604l-0.235-1h12.339c0.215 0 0.406-0.138 0.475-0.341zM8.988 20.5c0 0.551-0.448 1-1 1s-1-0.449-1-1 0.448-1 1-1 1 0.449 1 1zM19.987 20.5c0 0.551-0.448 1-1 1s-1-0.449-1-1 0.448-1 1-1 1 0.449 1 1zM7.914 16.5l-1.883-8h16.764l-2.667 8h-12.214z"></path>
</svg>
