<!-- Generated by IcoMoon.io -->
<svg version="1.1" xmlns="http://www.w3.org/2000/svg" width="24" height="24" viewBox="0 0 24 24">
<title>smartwatch</title>
<path d="M17.825 5.033l-0.825-1.651v-2.882c0-0.276-0.224-0.5-0.5-0.5h-9c-0.276 0-0.5 0.224-0.5 0.5v2.882l-0.825 1.651c-1.224 0.161-2.175 1.199-2.175 2.467v9c0 1.268 0.951 2.306 2.175 2.467l0.825 1.651v2.882c0 0.276 0.224 0.5 0.5 0.5h9c0.276 0 0.5-0.224 0.5-0.5v-2.882l0.825-1.651c1.224-0.161 2.175-1.199 2.175-2.467v-9c0-1.268-0.951-2.306-2.175-2.467zM7.809 4h8.382l0.5 1h-9.382l0.5-1zM8 1h8v2h-8v-2zM16.191 20h-8.382l-0.5-1h9.382l-0.5 1zM16 23h-8v-2h8v2zM19 16.5c0 0.827-0.673 1.5-1.5 1.5h-11c-0.827 0-1.5-0.673-1.5-1.5v-9c0-0.827 0.673-1.5 1.5-1.5h11c0.827 0 1.5 0.673 1.5 1.5v9z"></path>
<path d="M17.5 13h-11c-0.276 0-0.5 0.224-0.5 0.5v3c0 0.276 0.224 0.5 0.5 0.5h11c0.276 0 0.5-0.224 0.5-0.5v-3c0-0.276-0.224-0.5-0.5-0.5zM17 16h-10v-2h10v2z"></path>
<path d="M16 11.5c1.266 0 1.266-1.454 1.266-2.001 0-0.494 0-1.999-1.266-1.999-1.267 0-1.267 1.505-1.267 1.999 0 0.547 0 2.001 1.267 2.001zM16 8.5c0.073 0 0.266 0 0.266 0.999 0 1.001-0.193 1.001-0.266 1.001s-0.267 0-0.267-1.001c0-0.999 0.194-0.999 0.267-0.999z"></path>
<path d="M12 10.368h0.797v0.569c0 0.276 0.224 0.5 0.5 0.5s0.5-0.224 0.5-0.5v-0.646c0.141-0.088 0.235-0.245 0.235-0.424s-0.094-0.336-0.235-0.424v-1.443c0-0.219-0.142-0.412-0.351-0.478-0.208-0.062-0.435 0.014-0.56 0.192l-1.297 1.868c-0.106 0.153-0.119 0.352-0.032 0.517 0.086 0.166 0.257 0.269 0.443 0.269z"></path>
<path d="M8.232 10.267c0.055 0 0.099-0.023 0.151-0.028-0.151 0.255-0.408 0.261-0.516 0.261-0.276 0-0.5 0.224-0.5 0.5s0.224 0.5 0.5 0.5c0.992 0 1.633-0.699 1.633-1.781v-0.82c0-0.818-0.509-1.368-1.268-1.368-0.757 0-1.266 0.55-1.266 1.368 0.001 0.818 0.51 1.368 1.266 1.368zM8.232 8.531c0.106 0 0.268 0 0.268 0.368s-0.161 0.367-0.268 0.367c-0.106 0-0.266 0-0.266-0.367 0.001-0.368 0.16-0.368 0.266-0.368z"></path>
<path d="M11 8.75c0 0.138-0.112 0.25-0.25 0.25s-0.25-0.112-0.25-0.25c0-0.138 0.112-0.25 0.25-0.25s0.25 0.112 0.25 0.25z"></path>
<path d="M11 10.25c0 0.138-0.112 0.25-0.25 0.25s-0.25-0.112-0.25-0.25c0-0.138 0.112-0.25 0.25-0.25s0.25 0.112 0.25 0.25z"></path>
</svg>
