<!-- Generated by IcoMoon.io -->
<svg version="1.1" xmlns="http://www.w3.org/2000/svg" width="24" height="24" viewBox="0 0 24 24">
<title>star</title>
<path d="M23.969 8.343c-0.073-0.197-0.26-0.327-0.469-0.327h-8.153l-2.879-7.676c-0.146-0.39-0.789-0.39-0.936 0l-2.879 7.676h-8.153c-0.209 0-0.396 0.13-0.469 0.327s-0.016 0.417 0.144 0.553l6.744 5.782-2.894 8.681c-0.068 0.207 0.004 0.434 0.18 0.562s0.415 0.128 0.591-0.001l7.204-5.284 7.204 5.283c0.088 0.065 0.192 0.097 0.296 0.097s0.207-0.032 0.295-0.096c0.176-0.128 0.248-0.356 0.18-0.562l-2.894-8.681 6.744-5.782c0.159-0.135 0.217-0.356 0.144-0.552zM16.175 14.138c-0.154 0.131-0.214 0.344-0.149 0.538l2.504 7.509-6.233-4.571c-0.089-0.065-0.193-0.097-0.297-0.097s-0.208 0.032-0.296 0.097l-6.233 4.571 2.504-7.509c0.064-0.193 0.005-0.406-0.149-0.538l-5.974-5.121h7.148c0.208 0 0.395-0.129 0.468-0.324l2.532-6.752 2.532 6.752c0.073 0.195 0.26 0.324 0.468 0.324h7.148l-5.973 5.121z"></path>
</svg>
