<!-- Generated by IcoMoon.io -->
<svg version="1.1" xmlns="http://www.w3.org/2000/svg" width="24" height="24" viewBox="0 0 24 24">
<title>subtract-circle</title>
<path d="M12 23.5c6.341 0 11.5-5.159 11.5-11.5s-5.159-11.5-11.5-11.5-11.5 5.159-11.5 11.5 5.159 11.5 11.5 11.5zM12 1.5c5.79 0 10.5 4.71 10.5 10.5s-4.71 10.5-10.5 10.5-10.5-4.71-10.5-10.5 4.71-10.5 10.5-10.5z"></path>
<path d="M6 12.5h12c0.276 0 0.5-0.224 0.5-0.5s-0.224-0.5-0.5-0.5h-12c-0.276 0-0.5 0.224-0.5 0.5s0.224 0.5 0.5 0.5z"></path>
</svg>
