<!-- Generated by IcoMoon.io -->
<svg version="1.1" xmlns="http://www.w3.org/2000/svg" width="24" height="24" viewBox="0 0 24 24">
<title>synchronize-2</title>
<path d="M13.534 2c-5.465 0-9.914 4.408-9.992 9.854l-2.092-3.137c-0.154-0.23-0.467-0.291-0.693-0.139-0.23 0.153-0.292 0.464-0.139 0.693l3 4.5c0.17 0.258 0.589 0.297 0.792 0.052l3.5-4c0.183-0.208 0.161-0.523-0.047-0.705-0.206-0.18-0.523-0.162-0.705 0.047l-2.624 2.999c0-5.387 4.236-9.164 9-9.164 4.963 0 9 4.037 9 9s-4.037 9-9 9c-0.276 0-0.5 0.224-0.5 0.5s0.224 0.5 0.5 0.5c5.514 0 10-4.486 10-10s-4.486-10-10-10z"></path>
</svg>
