<!-- Generated by IcoMoon.io -->
<svg version="1.1" xmlns="http://www.w3.org/2000/svg" width="24" height="24" viewBox="0 0 24 24">
<title>synchronize</title>
<path d="M7.027 10.311c-0.211-0.176-0.526-0.148-0.704 0.063l-2.525 3.025c-0.249-1.798 0.118-3.628 1.082-5.242 1.178-1.974 3.102-3.401 5.28-3.915 2.871-0.68 5.875 0.272 7.835 2.485 0.184 0.208 0.499 0.227 0.705 0.043 0.207-0.183 0.227-0.499 0.043-0.705-2.203-2.491-5.579-3.566-8.813-2.796-2.438 0.575-4.593 2.17-5.908 4.375-0.896 1.499-1.327 3.164-1.295 4.839l-1.597-2.379c-0.155-0.232-0.468-0.29-0.693-0.137-0.229 0.154-0.291 0.465-0.137 0.693l2.787 4.15c0.186 0.275 0.583 0.3 0.799 0.042l3.205-3.838c0.176-0.211 0.148-0.526-0.064-0.703z"></path>
<path d="M20.917 10.254c-0.224-0.333-0.659-0.278-0.869 0.042l-3.136 3.754c-0.177 0.212-0.148 0.527 0.063 0.704 0.213 0.177 0.527 0.149 0.704-0.063l2.405-2.879c0.086 3.618-2.555 7.129-6.244 8-2.694 0.641-5.487-0.145-7.465-2.094-0.195-0.192-0.512-0.192-0.707 0.006-0.193 0.196-0.191 0.513 0.006 0.707 2.231 2.2 5.375 3.070 8.396 2.354 4.039-0.953 6.893-4.551 7.021-8.476l1.78 2.652c0.156 0.233 0.47 0.288 0.693 0.137 0.229-0.154 0.291-0.465 0.137-0.693l-2.784-4.151z"></path>
</svg>
