<!-- Generated by IcoMoon.io -->
<svg version="1.1" xmlns="http://www.w3.org/2000/svg" width="24" height="24" viewBox="0 0 24 24">
<title>tablet-ipad</title>
<path d="M18.5 0h-13c-1.378 0-2.5 1.121-2.5 2.5v19c0 1.379 1.122 2.5 2.5 2.5h13c1.378 0 2.5-1.121 2.5-2.5v-19c0-1.379-1.122-2.5-2.5-2.5zM20 21.5c0 0.827-0.673 1.5-1.5 1.5h-13c-0.827 0-1.5-0.673-1.5-1.5v-19c0-0.827 0.673-1.5 1.5-1.5h13c0.827 0 1.5 0.673 1.5 1.5v19z"></path>
<path d="M18.5 3h-13c-0.276 0-0.5 0.224-0.5 0.5v16c0 0.276 0.224 0.5 0.5 0.5h13c0.276 0 0.5-0.224 0.5-0.5v-16c0-0.276-0.224-0.5-0.5-0.5zM18 19h-12v-15h12v15z"></path>
<path d="M12.5 2c0 0.276-0.224 0.5-0.5 0.5s-0.5-0.224-0.5-0.5c0-0.276 0.224-0.5 0.5-0.5s0.5 0.224 0.5 0.5z"></path>
<path d="M12 20.5c-0.551 0-1 0.448-1 1s0.449 1 1 1 1-0.448 1-1-0.449-1-1-1zM12 21.5v0 0z"></path>
</svg>
