<!-- Generated by IcoMoon.io -->
<svg version="1.1" xmlns="http://www.w3.org/2000/svg" width="24" height="24" viewBox="0 0 24 24">
<title>toolbox</title>
<path d="M22.5 6.5h-6.051c-0.252-2.244-2.138-4-4.449-4s-4.197 1.756-4.449 4h-6.051c-0.276 0-0.5 0.224-0.5 0.5v14c0 0.276 0.224 0.5 0.5 0.5h21c0.276 0 0.5-0.224 0.5-0.5v-14c0-0.276-0.224-0.5-0.5-0.5zM12 3.5c1.759 0 3.204 1.309 3.449 3h-6.898c0.245-1.691 1.69-3 3.449-3zM22 7.5v4h-8v-0.5c0-0.276-0.224-0.5-0.5-0.5h-3c-0.276 0-0.5 0.224-0.5 0.5v0.5h-8v-4h20zM11 11.5h2v3h-2v-3zM2 20.5v-8h8v2.5c0 0.276 0.224 0.5 0.5 0.5h3c0.276 0 0.5-0.224 0.5-0.5v-2.5h8v8h-20z"></path>
</svg>
