<!-- Generated by IcoMoon.io -->
<svg version="1.1" xmlns="http://www.w3.org/2000/svg" width="24" height="24" viewBox="0 0 24 24">
<title>truck</title>
<path d="M8 15c-1.654 0-3 1.346-3 3s1.346 3 3 3 3-1.346 3-3-1.346-3-3-3zM8 20c-1.103 0-2-0.897-2-2s0.897-2 2-2 2 0.897 2 2-0.897 2-2 2z"></path>
<path d="M19 15c-1.654 0-3 1.346-3 3s1.346 3 3 3 3-1.346 3-3-1.346-3-3-3zM19 20c-1.103 0-2-0.897-2-2s0.897-2 2-2 2 0.897 2 2-0.897 2-2 2z"></path>
<path d="M23.5 3h-15c-0.276 0-0.5 0.224-0.5 0.5v3.5h-3.5c-2.481 0-4.5 2.019-4.5 4.5v7c0 0.276 0.224 0.5 0.5 0.5h3c0.276 0 0.5-0.224 0.5-0.5s-0.224-0.5-0.5-0.5h-2.5v-1h3c0.276 0 0.5-0.224 0.5-0.5s-0.224-0.5-0.5-0.5h-3v-4.5c0-1.93 1.57-3.5 3.5-3.5h3.5v5.5c0 0.276 0.224 0.5 0.5 0.5s0.5-0.224 0.5-0.5v-9.5h14v13.5c0 0.276 0.224 0.5 0.5 0.5s0.5-0.224 0.5-0.5v-14c0-0.276-0.224-0.5-0.5-0.5z"></path>
<path d="M14.5 17h-2c-0.276 0-0.5 0.224-0.5 0.5s0.224 0.5 0.5 0.5h2c0.276 0 0.5-0.224 0.5-0.5s-0.224-0.5-0.5-0.5z"></path>
<path d="M7 9.5c0-0.276-0.224-0.5-0.5-0.5h-2.5c-1.103 0-2 0.897-2 2v2.5c0 0.276 0.224 0.5 0.5 0.5s0.5-0.224 0.5-0.5v-2.5c0-0.551 0.448-1 1-1h2.5c0.276 0 0.5-0.224 0.5-0.5z"></path>
</svg>
