<!-- Generated by IcoMoon.io -->
<svg version="1.1" xmlns="http://www.w3.org/2000/svg" width="24" height="24" viewBox="0 0 24 24">
<title>upload</title>
<path d="M3.869 23.526h16.262c1.857 0 3.369-1.511 3.369-3.369v-1.913c0-0.276-0.224-0.5-0.5-0.5s-0.5 0.224-0.5 0.5v1.913c0 1.306-1.062 2.369-2.369 2.369h-16.262c-1.307 0-2.369-1.063-2.369-2.369v-1.913c0-0.276-0.224-0.5-0.5-0.5s-0.5 0.223-0.5 0.5v1.913c0 1.858 1.512 3.369 3.369 3.369z"></path>
<path d="M12 18.634c0.276 0 0.5-0.224 0.5-0.5v-15.901l6.146 6.146c0.195 0.195 0.512 0.195 0.707 0s0.195-0.512 0-0.707l-6.999-7c-0.198-0.198-0.518-0.192-0.709 0l-6.999 7c-0.195 0.195-0.195 0.512 0 0.707s0.512 0.195 0.707 0l6.147-6.146v15.901c0 0.277 0.224 0.5 0.5 0.5z"></path>
</svg>
