<!-- Generated by IcoMoon.io -->
<svg version="1.1" xmlns="http://www.w3.org/2000/svg" width="24" height="24" viewBox="0 0 24 24">
<title>video-meeting-square</title>
<path d="M18.742 8.062c-0.158-0.088-0.353-0.083-0.507 0.014l-3.235 2.022v-2.598c0-0.276-0.224-0.5-0.5-0.5h-9c-0.276 0-0.5 0.224-0.5 0.5v9c0 0.276 0.224 0.5 0.5 0.5h9c0.276 0 0.5-0.224 0.5-0.5v-2.598l3.235 2.021c0.154 0.096 0.349 0.101 0.507 0.014 0.159-0.087 0.258-0.255 0.258-0.437v-7c0-0.182-0.099-0.35-0.258-0.438zM18 14.598l-3.235-2.021c-0.155-0.098-0.35-0.103-0.507-0.014-0.159 0.087-0.258 0.255-0.258 0.437v3h-8v-8h8v3c0 0.182 0.099 0.35 0.258 0.438 0.158 0.088 0.353 0.083 0.507-0.014l3.235-2.022v5.196z"></path>
<path d="M20.5 0h-17c-1.93 0-3.5 1.57-3.5 3.5v17c0 1.93 1.57 3.5 3.5 3.5h17c1.93 0 3.5-1.57 3.5-3.5v-17c0-1.93-1.57-3.5-3.5-3.5zM23 20.5c0 1.379-1.122 2.5-2.5 2.5h-17c-1.378 0-2.5-1.121-2.5-2.5v-17c0-1.379 1.122-2.5 2.5-2.5h17c1.378 0 2.5 1.121 2.5 2.5v17z"></path>
</svg>
