<!-- Generated by IcoMoon.io -->
<svg version="1.1" xmlns="http://www.w3.org/2000/svg" width="24" height="24" viewBox="0 0 24 24">
<title>view</title>
<path d="M23.892 11.689c-0.216-0.272-5.373-6.689-11.892-6.689s-11.676 6.417-11.892 6.689c-0.144 0.182-0.144 0.439 0 0.621 0.216 0.273 5.373 6.69 11.892 6.69s11.676-6.417 11.892-6.689c0.144-0.183 0.144-0.439 0-0.622zM12 18c-5.247 0-9.734-4.729-10.845-6 1.111-1.271 5.598-6 10.845-6s9.734 4.729 10.845 6c-1.111 1.271-5.598 6-10.845 6z"></path>
<path d="M12 7.5c-2.481 0-4.5 2.019-4.5 4.5s2.019 4.5 4.5 4.5 4.5-2.019 4.5-4.5-2.019-4.5-4.5-4.5zM12 15.5c-1.93 0-3.5-1.57-3.5-3.5s1.57-3.5 3.5-3.5 3.5 1.57 3.5 3.5-1.57 3.5-3.5 3.5z"></path>
<path d="M12 9.5c-0.276 0-0.5 0.224-0.5 0.5s0.224 0.5 0.5 0.5c0.827 0 1.5 0.673 1.5 1.5s-0.673 1.5-1.5 1.5-1.5-0.673-1.5-1.5c0-0.276-0.224-0.5-0.5-0.5s-0.5 0.224-0.5 0.5c0 1.378 1.122 2.5 2.5 2.5s2.5-1.122 2.5-2.5-1.122-2.5-2.5-2.5z"></path>
</svg>
