<!-- Generated by IcoMoon.io -->
<svg version="1.1" xmlns="http://www.w3.org/2000/svg" width="24" height="24" viewBox="0 0 24 24">
<title>volume-medium-solid</title>
<path d="M12.146 1.146l-6.853 6.854h-3.293c-1.102 0-2 0.898-2 2v3c0 1.104 0.897 2 2 2h3.293l6.853 6.854c0.314 0.312 0.854 0.090 0.854-0.354v-20c0-0.442-0.539-0.67-0.854-0.354z"></path>
<path d="M17.818 5.114c-0.213-0.175-0.528-0.145-0.704 0.067s-0.146 0.528 0.067 0.704c3.717 3.067 3.73 8.14 0 11.229-0.213 0.176-0.242 0.491-0.066 0.704 0.175 0.212 0.492 0.241 0.704 0.066 4.22-3.491 4.189-9.312-0.001-12.77z"></path>
<path d="M15.794 7.596c-0.223-0.162-0.536-0.112-0.699 0.11-0.162 0.224-0.113 0.536 0.111 0.698 2.428 1.768 2.373 4.467 0 6.191-0.224 0.162-0.273 0.475-0.111 0.698 0.165 0.226 0.48 0.272 0.699 0.11 2.94-2.134 2.949-5.663 0-7.807z"></path>
</svg>
