<!-- Generated by IcoMoon.io -->
<svg version="1.1" xmlns="http://www.w3.org/2000/svg" width="24" height="24" viewBox="0 0 24 24">
<title>volume-off</title>
<path d="M4.5 15c0.276 0 0.5-0.224 0.5-0.5s-0.224-0.5-0.5-0.5h-2.5c-0.551 0-1-0.448-1-1v-3c0-0.552 0.449-1 1-1h3.5c0.133 0 0.26-0.053 0.354-0.146l6.146-6.147v4.293c0 0.276 0.224 0.5 0.5 0.5s0.5-0.224 0.5-0.5v-5.5c0-0.202-0.122-0.385-0.309-0.462s-0.402-0.034-0.545 0.108l-6.853 6.854h-3.293c-1.103 0-2 0.897-2 2v3c0 1.103 0.897 2 2 2h2.5z"></path>
<path d="M15.5 11c-0.276 0-0.5 0.224-0.5 0.5 0 1.103-0.897 2-2 2v-0.5c0-0.276-0.224-0.5-0.5-0.5s-0.5 0.224-0.5 0.5v7.293l-2.646-2.646c-0.195-0.195-0.512-0.195-0.707 0s-0.195 0.512 0 0.707l3.5 3.5c0.095 0.095 0.223 0.146 0.353 0.146 0.064 0 0.129-0.013 0.191-0.038 0.187-0.077 0.309-0.26 0.309-0.462v-7c1.654 0 3-1.346 3-3 0-0.276-0.224-0.5-0.5-0.5z"></path>
<path d="M21.854 1.146c-0.195-0.195-0.512-0.195-0.707 0l-20 20c-0.195 0.195-0.195 0.512 0 0.707 0.097 0.098 0.225 0.147 0.353 0.147s0.256-0.049 0.354-0.146l20-20c0.195-0.196 0.195-0.512 0-0.708z"></path>
</svg>
