<!-- Generated by IcoMoon.io -->
<svg version="1.1" xmlns="http://www.w3.org/2000/svg" width="24" height="24" viewBox="0 0 24 24">
<title>volume-low-solid</title>
<path d="M12.146 1.146l-6.853 6.854h-3.293c-1.102 0-2 0.898-2 2v3c0 1.104 0.897 2 2 2h3.293l6.853 6.854c0.314 0.312 0.854 0.090 0.854-0.354v-20c0-0.444-0.54-0.669-0.854-0.354z"></path>
<path d="M15.794 7.596c-0.224-0.162-0.536-0.112-0.698 0.11-0.162 0.224-0.113 0.536 0.11 0.698 2.387 1.737 2.413 4.437 0.001 6.191-0.225 0.162-0.273 0.475-0.111 0.698 0.165 0.228 0.48 0.271 0.697 0.111 2.946-2.136 2.946-5.668 0.001-7.808z"></path>
</svg>
