<!-- Generated by IcoMoon.io -->
<svg version="1.1" xmlns="http://www.w3.org/2000/svg" width="24" height="24" viewBox="0 0 24 24">
<title>volume-max-solid</title>
<path d="M12.146 1.146l-6.853 6.854h-3.293c-1.102 0-2 0.898-2 2v3c0 1.104 0.897 2 2 2h3.293l6.853 6.854c0.314 0.313 0.854 0.093 0.854-0.354v-20c0-0.444-0.54-0.669-0.854-0.354z"></path>
<path d="M20.329 3.124c-0.208-0.182-0.524-0.161-0.706 0.047s-0.161 0.524 0.047 0.706c4.437 3.878 4.443 11.363 0 15.247-0.208 0.182-0.229 0.497-0.047 0.705 0.183 0.21 0.501 0.228 0.706 0.048 4.9-4.284 4.891-12.479 0-16.753z"></path>
<path d="M17.818 5.114c-0.212-0.175-0.528-0.145-0.704 0.067s-0.146 0.528 0.067 0.704c3.717 3.067 3.73 8.14 0 11.229-0.213 0.176-0.242 0.491-0.066 0.704 0.175 0.212 0.492 0.241 0.704 0.066 4.22-3.491 4.189-9.312-0.001-12.77z"></path>
<path d="M15.794 7.596c-0.223-0.162-0.536-0.112-0.699 0.11-0.162 0.224-0.113 0.536 0.111 0.698 2.428 1.768 2.373 4.467 0 6.191-0.224 0.162-0.273 0.475-0.111 0.698 0.165 0.226 0.48 0.272 0.699 0.11 2.94-2.134 2.949-5.663 0-7.807z"></path>
</svg>
