<!-- Generated by IcoMoon.io -->
<svg version="1.1" xmlns="http://www.w3.org/2000/svg" width="24" height="24" viewBox="0 0 24 24">
<title>volume-low</title>
<path d="M12.5 22c-0.13 0-0.258-0.051-0.354-0.146l-6.853-6.854h-3.293c-1.103 0-2-0.897-2-2v-3c0-1.103 0.897-2 2-2h3.293l6.854-6.854c0.144-0.143 0.358-0.185 0.545-0.108s0.308 0.26 0.308 0.462v20c0 0.202-0.122 0.385-0.309 0.462-0.062 0.025-0.127 0.038-0.191 0.038zM2 9c-0.551 0-1 0.448-1 1v3c0 0.552 0.449 1 1 1h3.5c0.133 0 0.26 0.053 0.354 0.146l6.146 6.147v-17.586l-6.146 6.147c-0.094 0.093-0.221 0.146-0.354 0.146h-3.5z"></path>
<path d="M15.5 15.5c-0.155 0-0.307-0.071-0.405-0.206-0.163-0.224-0.113-0.536 0.11-0.698 1.16-0.843 1.798-1.942 1.799-3.095s-0.639-2.253-1.799-3.097c-0.224-0.162-0.273-0.475-0.11-0.698 0.162-0.224 0.474-0.273 0.698-0.11 1.426 1.037 2.211 2.424 2.211 3.905s-0.786 2.868-2.211 3.903c-0.088 0.065-0.19 0.096-0.293 0.096z"></path>
</svg>
