<!-- Generated by IcoMoon.io -->
<svg version="1.1" xmlns="http://www.w3.org/2000/svg" width="24" height="24" viewBox="0 0 24 24">
<title>volume-off-solid</title>
<path d="M2 15h3.172l7.828-7.827v-5.673c0-0.446-0.542-0.668-0.854-0.354l-6.853 6.854h-3.293c-1.102 0-2 0.898-2 2v3c0 1.104 0.897 2 2 2z"></path>
<path d="M12.146 21.854c0.312 0.312 0.854 0.093 0.854-0.354v-8.672l-4.939 4.941 4.085 4.085z"></path>
<path d="M16.322 9.506c1.107 1.519 0.952 3.586-1.115 5.090-0.225 0.162-0.273 0.475-0.111 0.698 0.165 0.227 0.48 0.271 0.697 0.111 2.494-1.81 2.825-4.552 1.242-6.611l-0.713 0.712z"></path>
<path d="M22.207 0.793c-0.377-0.37-0.979-0.41-1.414 0l-20 20c-0.435 0.435-0.35 1.136 0.016 1.427 0.38 0.364 1.025 0.361 1.398-0.013l20-20c0.399-0.398 0.376-1.038 0-1.414z"></path>
</svg>
