<!-- Generated by IcoMoon.io -->
<svg version="1.1" xmlns="http://www.w3.org/2000/svg" width="24" height="24" viewBox="0 0 24 24">
<title>window-code</title>
<path d="M7.854 7.646c-0.195-0.195-0.512-0.195-0.707 0s-0.195 0.512 0 0.707l2.146 2.147-2.146 2.146c-0.195 0.195-0.195 0.512 0 0.707 0.097 0.098 0.225 0.147 0.353 0.147s0.256-0.049 0.354-0.146l2.5-2.5c0.195-0.195 0.195-0.512 0-0.707l-2.5-2.501z"></path>
<path d="M17 10.5h-4c-0.276 0-0.5 0.224-0.5 0.5s0.224 0.5 0.5 0.5h4c0.276 0 0.5-0.224 0.5-0.5s-0.224-0.5-0.5-0.5z"></path>
<path d="M23.5 1.5h-23c-0.276 0-0.5 0.224-0.5 0.5v20c0 0.276 0.224 0.5 0.5 0.5h23c0.276 0 0.5-0.224 0.5-0.5v-20c0-0.276-0.224-0.5-0.5-0.5zM23 21.5h-22v-19h22v19z"></path>
<path d="M2.5 20.5h19c0.276 0 0.5-0.224 0.5-0.5v-16c0-0.276-0.224-0.5-0.5-0.5h-19c-0.276 0-0.5 0.224-0.5 0.5v16c0 0.276 0.224 0.5 0.5 0.5zM3 4.5h18v15h-18v-15z"></path>
</svg>
