<!-- Generated by IcoMoon.io -->
<svg version="1.1" xmlns="http://www.w3.org/2000/svg" width="24" height="24" viewBox="0 0 24 24">
<title>window-search-engine</title>
<path d="M15.146 15.939c0.528-0.676 0.854-1.516 0.854-2.439 0-2.206-1.794-4-4-4s-4 1.794-4 4 1.794 4 4 4c0.923 0 1.763-0.326 2.439-0.854l2.707 2.707c0.098 0.098 0.226 0.147 0.354 0.147s0.256-0.049 0.354-0.146c0.195-0.195 0.195-0.512 0-0.707l-2.708-2.708zM9 13.5c0-1.654 1.346-3 3-3s3 1.346 3 3c0 0.812-0.327 1.547-0.853 2.087-0.011 0.010-0.025 0.014-0.036 0.024s-0.015 0.025-0.024 0.037c-0.54 0.526-1.275 0.852-2.087 0.852-1.654 0-3-1.346-3-3z"></path>
<path d="M21.5 2.5h-19c-1.379 0-2.5 1.121-2.5 2.5v14c0 1.379 1.121 2.5 2.5 2.5h19c1.379 0 2.5-1.121 2.5-2.5v-14c0-1.379-1.121-2.5-2.5-2.5zM2.5 3.5h19c0.827 0 1.5 0.673 1.5 1.5v2.5h-22v-2.5c0-0.827 0.673-1.5 1.5-1.5zM21.5 20.5h-19c-0.827 0-1.5-0.673-1.5-1.5v-10.5h22v10.5c0 0.827-0.673 1.5-1.5 1.5z"></path>
<path d="M5 5.5c0 0.552-0.448 1-1 1s-1-0.448-1-1c0-0.552 0.448-1 1-1s1 0.448 1 1z"></path>
<path d="M8 5.5c0 0.552-0.448 1-1 1s-1-0.448-1-1c0-0.552 0.448-1 1-1s1 0.448 1 1z"></path>
<path d="M11 5.5c0 0.552-0.448 1-1 1s-1-0.448-1-1c0-0.552 0.448-1 1-1s1 0.448 1 1z"></path>
</svg>
