<!-- Generated by IcoMoon.io -->
<svg version="1.1" xmlns="http://www.w3.org/2000/svg" width="24" height="24" viewBox="0 0 24 24">
<title>zoom-in</title>
<path d="M23.83 23.122l-9.009-9.009c1.336-1.502 2.155-3.473 2.155-5.637 0-4.687-3.813-8.5-8.5-8.5s-8.5 3.813-8.5 8.5 3.813 8.5 8.5 8.5c2.164 0 4.135-0.819 5.637-2.156l9.009 9.009c0.195 0.195 0.512 0.195 0.707 0 0.196-0.195 0.196-0.511 0.001-0.707zM0.976 8.476c0-4.136 3.364-7.5 7.5-7.5s7.5 3.364 7.5 7.5-3.364 7.5-7.5 7.5-7.5-3.364-7.5-7.5z"></path>
<path d="M11.976 7.976h-3v-3c0-0.276-0.224-0.5-0.5-0.5s-0.5 0.224-0.5 0.5v3h-3c-0.276 0-0.5 0.224-0.5 0.5s0.224 0.5 0.5 0.5h3v3c0 0.276 0.224 0.5 0.5 0.5s0.5-0.224 0.5-0.5v-3h3c0.276 0 0.5-0.224 0.5-0.5s-0.224-0.5-0.5-0.5z"></path>
</svg>
