<svg xmlns="http://www.w3.org/2000/svg" width="187" height="51" viewBox="0 0 187 51"><g fill="none" fill-rule="evenodd"><path fill="#FFF" d="m19.326 25.778-4.187 10.231h8.372l-4.185-10.231ZM14.209 38.18l-2.48 6.046H9.248l8.992-21.704h2.171l8.991 21.704h-2.481l-2.48-6.046H14.209ZM32.57 44.226h2.325V22.522H32.57zM51.015 31.514s3.101-2.326 3.101-4.496c0-1.551-1.24-2.791-2.946-2.791-1.705 0-2.945 1.24-2.945 2.791 0 1.861 2.79 4.496 2.79 4.496zm-.309 2.635s-3.412 2.481-3.412 5.116c0 1.985 1.551 3.256 4.186 3.256 2.791 0 4.342-1.86 4.342-1.86l-5.116-6.512zm1.395-1.24 4.961 6.046s1.394-2.015 1.394-5.271h2.016c0 4.186-2.016 6.977-2.016 6.977s1.148 1.86 2.481 1.86c.403 0 .931-.155.931-.155v2.016s-.559.154-1.085.154c-2.171 0-3.567-2.48-3.567-2.48s-2.015 2.48-5.736 2.48c-3.721 0-6.201-2.48-6.201-5.271 0-3.876 4.186-6.356 4.186-6.356s-3.255-3.256-3.255-5.891c0-2.636 2.17-4.806 4.96-4.806s4.961 2.17 4.961 4.651c0 3.256-4.03 6.046-4.03 6.046zm26.193-7.131-4.185 10.231h8.372l-4.187-10.231zM73.179 38.18l-2.48 6.046h-2.481l8.991-21.704h2.171l8.992 21.704h-2.481l-2.48-6.046H73.179zm19.871-6.666s1.55-2.481 4.806-2.481c3.565 0 6.046 2.481 6.046 6.356v8.837h-2.17v-8.837c0-2.635-1.705-4.34-4.031-4.34-2.635 0-4.651 2.015-4.651 4.96v8.217h-2.171V29.343h2.171v2.171m23.868 6.046v-.93l-5.116.93c-1.86.341-2.791 1.24-2.791 2.636 0 1.24 1.086 2.325 3.102 2.325 2.79 0 4.805-2.015 4.805-4.961zm0-2.791c0-2.17-1.55-3.72-3.72-3.72-2.636 0-4.187 2.17-4.187 2.17l-1.394-1.395s2.015-2.791 5.581-2.791c3.41 0 5.89 2.481 5.89 5.736v9.457h-2.17v-2.015s-1.55 2.325-4.805 2.325c-3.102 0-5.272-2.17-5.272-4.34 0-2.481 1.551-4.031 4.341-4.496l5.736-.931zM123.243 44.226h2.171V22.522h-2.171zM133.709 44.226l-6.045-14.883h2.325l4.805 12.093 4.806-12.093h2.325l-6.82 17.054c-1.24 3.1-2.48 4.341-4.651 4.341-1.085 0-1.861-.311-1.861-.311v-2.015s.776.31 1.551.31c1.395 0 2.232-.775 2.79-2.325l.775-2.171m12.616-19.844h2.015v4.961h3.255v2.016h-3.255v8.837c0 1.55.775 2.325 2.015 2.325 1.086 0 2.016-.465 2.016-.465v2.015s-.93.465-2.109.465c-2.542 0-4.093-1.55-4.093-4.34v-8.837h-2.79v-2.016h1.705c.776 0 1.241-.464 1.241-1.55v-3.411m8.611 19.844h2.171V29.343h-2.171v14.883zm1.085-21.239c.775 0 1.396.62 1.396 1.395a1.39 1.39 0 0 1-1.396 1.396 1.39 1.39 0 0 1-1.395-1.396 1.39 1.39 0 0 1 1.395-1.395zm11.595 6.046c3.876 0 6.046 2.946 6.046 2.946l-1.55 1.55s-1.551-2.48-4.496-2.48c-2.79 0-5.271 2.48-5.271 5.736s2.481 5.736 5.271 5.736c2.945 0 4.651-2.48 4.651-2.48l1.55 1.395s-2.325 3.1-6.201 3.1c-4.031 0-7.442-3.41-7.442-7.751s3.411-7.752 7.442-7.752m16.777 3.566s-1.085-1.55-3.255-1.55c-1.706 0-2.791 1.085-2.791 2.17 0 3.256 8.062 1.55 8.062 6.822 0 2.48-2.016 4.495-5.426 4.495-3.721 0-5.427-2.635-5.427-2.635l1.551-1.551s1.395 2.171 3.876 2.171c2.17 0 3.255-1.085 3.255-2.48 0-3.411-8.061-1.706-8.061-6.822 0-2.17 2.015-4.186 4.961-4.186 3.1 0 4.806 2.016 4.806 2.016l-1.551 1.55M31.146 9.624c0-1.307-1.031-2.394-2.321-2.394-1.308 0-2.303 1.087-2.303 2.394 0 1.308.995 2.395 2.303 2.395 1.29 0 2.321-1.087 2.321-2.395zm-7.092 0a4.764 4.764 0 0 1 4.771-4.789 4.764 4.764 0 0 1 4.77 4.789 4.764 4.764 0 0 1-4.77 4.79 4.764 4.764 0 0 1-4.771-4.79zm17.045-.018c0-1.363-.994-2.468-2.357-2.468-1.401 0-2.469 1.05-2.469 2.468s1.068 2.486 2.469 2.486c1.363 0 2.357-1.123 2.357-2.486zm-7.19.018c0-3.26 2.394-4.789 4.475-4.789 1.197 0 2.137.498 2.745 1.179v-.995h2.524v8.952c0 2.598-1.64 4.698-4.753 4.698-2.339 0-4.052-1.216-4.789-2.653l2.229-1.253c.479.958 1.326 1.566 2.56 1.566 1.363 0 2.229-1.068 2.229-2.265v-.866c-.608.718-1.585 1.216-2.782 1.216-1.952 0-4.438-1.548-4.438-4.79zm10.609-4.605h2.505v1.032c.589-.755 1.492-1.216 2.542-1.216 2.173 0 3.481 1.4 3.481 3.777v5.617h-2.56V8.943c0-1.234-.571-1.953-1.696-1.953-.957 0-1.749.664-1.749 2.211v5.028h-2.523v-9.21M57.024 11.982l4.845-4.734h-4.772V5.019h8.16v2.266l-4.843 4.716h4.935v2.228h-8.325v-2.247M72.578 9.606c0-1.363-.996-2.468-2.359-2.468-1.399 0-2.467 1.05-2.467 2.468s1.068 2.486 2.467 2.486c1.363 0 2.359-1.123 2.359-2.486zm-7.192.018c0-3.26 2.395-4.789 4.476-4.789 1.198 0 2.137.443 2.745 1.087v-.903h2.523v9.21h-2.523v-1.031c-.608.718-1.584 1.216-2.781 1.216-1.953 0-4.44-1.548-4.44-4.79zm10.61-4.605H78.5v1.032c.59-.755 1.493-1.216 2.542-1.216 2.174 0 3.482 1.4 3.482 3.777v5.617h-2.561V8.943c0-1.234-.57-1.953-1.694-1.953-.958 0-1.75.664-1.75 2.211v5.028h-2.523v-9.21M53.825 14.226h2.523v-9.21h-2.523zM53.825 4.449h2.524V2.177h-2.524zM90.484 7.282V5.016h-1.732V2.177h-2.523v2.839h-1.565v2.266h1.565v2.947c0 3.003.958 3.997 3.887 3.997h.368v-2.358c-1.547 0-1.732-.221-1.732-1.657V7.282h1.732M10.956 7.5c0-4.016 3.02-6.908 6.907-6.908 2.523 0 4.715 1.327 5.894 3.334L21.51 5.363c-.756-1.4-1.934-2.247-3.647-2.247-2.505 0-4.365 1.915-4.365 4.384 0 2.413 1.841 4.347 4.309 4.347 1.842 0 3.132-1.068 3.814-2.506l2.338 1.235c-1.178 2.284-3.425 3.831-6.096 3.831-4.163 0-6.907-3.076-6.907-6.907"/><path fill="#0499EE" d="M0 44h2.389V.592H0z"/></g></svg>