<svg xmlns="http://www.w3.org/2000/svg" width="134" height="49" viewBox="0 0 134 49">
  <g fill="none" fill-rule="evenodd">
    <text fill="#0033A0" font-family="TTNorms-Light, TT Norms" font-size="30" font-weight="300" letter-spacing="-.8">
      <tspan x="0" y="48">Interactiv</tspan> <tspan x="116.05" y="48">e</tspan>
    </text>
    <path fill="#0033A1" fill-rule="nonzero" d="M48.2128793,11.0408727 L53.2073684,6.1272 L48.2882972,6.1272 L48.2882972,3.81338182 L56.7019505,3.81338182 L56.7019505,6.16516364 L51.7068111,11.0598545 L56.7968731,11.0598545 L56.7968731,13.3736727 L48.2148297,13.3736727 L48.2128793,11.0408727 Z M44.6643344,0.668945455 L47.2662539,0.668945455 L47.2662539,3.04756364 L44.6643344,3.04756364 L44.6643344,0.668945455 Z M44.629226,3.84218182 L47.2311455,3.84218182 L47.2311455,13.4024727 L44.629226,13.4024727 L44.629226,3.84218182 Z M13.1591331,8.59352727 C13.1695367,5.86094797 15.3764654,3.65325841 18.0907258,3.66023432 C20.8049862,3.66721022 23.00069,5.88621496 22.9972354,8.61881213 C22.9937808,11.3514093 20.7924736,13.5647799 18.0782043,13.5648 C16.7697249,13.5667365 15.5145591,13.0429909 14.5910949,12.1097269 C13.6676307,11.1764628 13.152204,9.91082616 13.1591331,8.59352727 Z M20.470774,8.59352727 C20.470774,7.236 19.4071207,6.10625455 18.0782043,6.10625455 C16.7297833,6.10625455 15.703839,7.23469091 15.703839,8.59352727 C15.703839,9.95236364 16.7297833,11.0808 18.0782043,11.0808 C19.4071207,11.0788364 20.4714241,9.95105455 20.4714241,8.59352727 L20.470774,8.59352727 Z M34.7390712,3.81338182 L37.3227864,3.81338182 L37.3227864,4.88421818 C37.930031,4.09876364 38.8604025,3.62225455 39.9429102,3.62225455 C42.184644,3.62225455 43.533065,5.07534545 43.533065,7.54167273 L43.533065,13.3736727 L40.8927864,13.3736727 L40.8927864,7.88596364 C40.8927864,6.60501818 40.3037461,5.85687273 39.1458204,5.85687273 C38.1582353,5.85687273 37.3416409,6.5448 37.3416409,8.14778182 L37.3416409,13.3677818 L34.7410217,13.3677818 L34.7390712,3.81338182 Z M56.9451084,8.59352727 C56.9451084,5.20887273 59.4156966,3.61898182 61.5612074,3.61898182 C62.7965015,3.61898182 63.764582,4.07716364 64.3906811,4.74741818 L64.3906811,3.81338182 L66.9913003,3.81338182 L66.9913003,13.3736727 L64.3906811,13.3736727 L64.3906811,12.3028364 C63.764582,13.0483636 62.7574923,13.5648 61.5234985,13.5648 C59.509969,13.5648 56.9451084,11.9611636 56.9451084,8.59352727 Z M64.4654489,8.57454545 C64.4654489,7.15941818 63.4401548,6.012 62.0345201,6.012 C60.5911765,6.012 59.4898142,7.10181818 59.4898142,8.57454545 C59.4898142,10.0472727 60.5911765,11.1554182 62.0345201,11.1554182 C63.4414551,11.1554182 64.4667492,9.98901818 64.4667492,8.57454545 L64.4654489,8.57454545 Z M68.0432508,3.81338182 L70.6263158,3.81338182 L70.6263158,4.88421818 C71.2342105,4.09876364 72.164582,3.62225455 73.2470898,3.62225455 C75.4881734,3.62225455 76.8365944,5.07534545 76.8365944,7.54167273 L76.8365944,13.3736727 L74.1963158,13.3736727 L74.1963158,7.88596364 C74.1963158,6.60501818 73.6111765,5.85687273 72.4493498,5.85687273 C71.4617647,5.85687273 70.6451703,6.5448 70.6451703,8.14778182 L70.6451703,13.3677818 L68.0445511,13.3677818 L68.0432508,3.81338182 Z M48.2128793,13.3736727 L48.2128793,11.0408727 L53.2073684,6.1272 L48.2882972,6.1272 L48.2882972,3.81338182 L56.7019505,3.81338182 L56.7019505,6.16516364 L51.7068111,11.0598545 M10.3836223,8.5104 L10.3478638,8.58632727 C9.62944272,10.1107636 8.30832817,10.9852364 6.72325077,10.9852364 C4.42495356,10.9852364 2.62727554,9.15643636 2.62727554,6.82232727 C2.62727554,4.42865455 4.41260062,2.62407273 6.7804644,2.62407273 C8.31482972,2.62407273 9.48055728,3.34734545 10.2457895,4.77490909 L10.2867492,4.85083636 L12.6026006,3.36043636 L12.5635913,3.29498182 C11.360805,1.23250909 9.19839009,0.00130909091 6.7804644,0.00130909091 C2.91659443,0.00130909091 0.00325077399,2.93432727 0.00325077399,6.82363636 C0.00325077399,10.7770909 2.85352941,13.6466182 6.7804644,13.6466182 C9.31151703,13.6466182 11.5473994,12.2321455 12.7618885,9.86334545 L12.7982972,9.792 L10.3836223,8.5104 Z M23.6526316,8.59352727 C23.6526316,5.20887273 26.1232198,3.61898182 28.2687307,3.61898182 C29.5040248,3.61898182 30.4714551,4.13541818 31.0982043,4.84232727 L31.0982043,3.81338182 L33.6988235,3.81338182 L33.6988235,13.1079273 C33.6988235,15.804 32.0084211,17.9836364 28.7986068,17.9836364 C26.3865325,17.9836364 24.6207121,16.7210182 23.8574303,15.2299636 L26.1557276,13.9300364 C26.649195,14.9242909 27.5210526,15.5552727 28.795356,15.5552727 C30.2009907,15.5552727 31.0930031,14.4464727 31.0930031,13.2034909 L31.0930031,12.3028364 C30.4662539,13.0483636 29.4598142,13.5648 28.2258204,13.5648 C26.216192,13.5648 23.6526316,11.9611636 23.6526316,8.59352727 Z M31.1729721,8.57454545 C31.1729721,7.15941818 30.147678,6.012 28.7420433,6.012 C27.2986997,6.012 26.1973375,7.10181818 26.1973375,8.57454545 C26.1973375,10.0472727 27.2986997,11.1554182 28.7420433,11.1554182 C30.147678,11.1554182 31.1729721,9.98901818 31.1729721,8.57454545 Z M83.2445201,6.16516364 L83.2445201,3.81338182 L81.459195,3.81338182 L81.459195,0.659781818 L78.8585759,0.659781818 L78.8585759,3.81338182 L77.2429412,3.81338182 L77.2429412,6.16516364 L78.8553251,6.16516364 L78.8553251,9.22450909 C78.8553251,12.3414545 79.8429102,13.3736727 82.8628793,13.3736727 L83.2425697,13.3736727 L83.2425697,10.9263273 C81.6470898,10.9263273 81.4572446,10.6965818 81.4572446,9.20552727 L81.4572446,6.16516364 L83.2445201,6.16516364 Z M83.7965015,1.80065455 C83.6721296,1.92672514 83.5029323,1.9976235 83.3264396,1.9976235 C83.149947,1.9976235 82.9807496,1.92672514 82.8563777,1.80065455 C82.7294125,1.6761355 82.6588837,1.50453984 82.6613313,1.32610909 C82.6619466,1.02369775 82.8642018,0.759389656 83.1544898,0.681647258 C83.4447778,0.60390486 83.7507457,0.732105069 83.9005306,0.994237544 C84.0503156,1.25637002 84.0065843,1.58709952 83.7939009,1.80065455 L83.7965015,1.80065455 Z M82.9226935,0.920290909 C82.8138397,1.02709902 82.7536157,1.17441282 82.7562539,1.32741818 C82.7537818,1.48090336 82.813391,1.62880619 82.9213932,1.73716364 C83.028335,1.8457282 83.1739171,1.90679542 83.3257895,1.90679542 C83.4776618,1.90679542 83.623244,1.8457282 83.7301858,1.73716364 C83.8390504,1.62928505 83.8992104,1.48118142 83.8966254,1.32741818 C83.8985356,1.09387593 83.7595549,0.882505254 83.5452644,0.793046044 C83.3309739,0.703586834 83.0842019,0.753918487 82.9213932,0.920290909 L82.9226935,0.920290909 Z M83.3127864,0.9576 C83.3801306,0.954106477 83.4475443,0.962978233 83.5117337,0.983781818 C83.5862193,1.01362984 83.6322745,1.08930801 83.6248607,1.16967273 C83.6287603,1.22738469 83.601736,1.28279675 83.5539938,1.31498182 C83.5216075,1.33378311 83.4857829,1.34580529 83.4486687,1.35032727 C83.4985591,1.35535249 83.5439599,1.381539 83.5734985,1.42232727 C83.5981378,1.45497806 83.6120061,1.4945752 83.6131579,1.53556364 L83.6131579,1.58989091 C83.6131579,1.60625455 83.6131579,1.62458182 83.6131579,1.64421818 C83.6133074,1.6570883 83.6152776,1.66987131 83.6190093,1.68218182 L83.6235604,1.69134545 L83.5032817,1.69134545 C83.5029756,1.68895535 83.5029756,1.68653556 83.5032817,1.68414545 L83.5032817,1.67629091 L83.5032817,1.65272727 L83.5032817,1.59447273 C83.5120848,1.52999583 83.4857585,1.46573575 83.4343653,1.42625455 C83.3892052,1.40713641 83.3401887,1.39906135 83.2913313,1.40269091 L83.1899071,1.40269091 L83.1899071,1.69134545 L83.0598762,1.69134545 L83.0598762,0.9576 L83.3127864,0.9576 Z M83.4512693,1.0728 C83.4023775,1.05138256 83.3490691,1.04217585 83.2958824,1.04596364 L83.1860062,1.04596364 L83.1860062,1.31170909 L83.3023839,1.31170909 C83.3437722,1.31368324 83.3851755,1.3081403 83.424613,1.29534545 C83.4661529,1.27651891 83.4948774,1.23717987 83.5003313,1.19164705 C83.5057852,1.14611422 83.487173,1.10102839 83.4512693,1.0728 Z" transform="translate(2)"/>
  </g>
</svg>
