<?xml version="1.0" encoding="utf-8"?>
<!-- Generator: Adobe Illustrator 21.0.0, SVG Export Plug-In . SVG Version: 6.00 Build 0)  -->
<svg version="1.1" id="Layer_1" xmlns="http://www.w3.org/2000/svg" xmlns:xlink="http://www.w3.org/1999/xlink" x="0px" y="0px"
	 width="186px" height="50px" viewBox="0 0 186 50" style="enable-background:new 0 0 186 50;" xml:space="preserve">
<style type="text/css">
	.st0{fill:#FFFFFF;}
</style>
<g>
	<g>
		<g>
			<g>
				<path class="st0" d="M48.9,25.2c0,13.3-11,24.5-24.9,24.2c-13-0.3-23.9-11.1-23.6-24.9C0.8,11.6,11.6,0.7,25.4,1
					C38.4,1.3,49,12,48.9,25.2z M41.2,26.3c0-1.3,0-2.7,0-4c0-1.6,0-1.5-1.6-1.6c-0.6,0-0.7,0.2-0.7,0.7c0,2.5,0,5,0,7.4
					c0,0.7-0.2,0.8-0.8,0.8c-0.6,0-0.8-0.1-0.8-0.7c0-1.5,0-3,0-4.6c0-1.7,0-1.7-1.7-1.7c-0.5,0-0.6,0.1-0.6,0.6c0,1.8,0,3.5,0,5.3
					c0,1.1,0,1.1-1.1,1.1c-0.3,0-0.5-0.1-0.5-0.5c0-0.8,0-1.5,0-2.3c0-1.7,0-1.7-1.7-1.6c-0.5,0-0.6,0.2-0.6,0.6c0,1.8,0,3.6,0,5.4
					c0,0.4,0.1,0.6,0.5,0.6c3,0,5.9,0,8.9,0c0.5,0,0.6-0.2,0.6-0.6C41.1,29.6,41.2,28,41.2,26.3z M30.3,26.6
					c-0.1-0.7,0.2-1.3-0.7-1.3c-0.8-0.1-1.1-0.9-0.6-1.5c0.3-0.4,0.3-0.7-0.1-1c-0.2-0.2-0.4-0.4-0.6-0.6c-0.3-0.3-0.6-0.3-0.9-0.1
					c-0.7,0.5-1.4,0.2-1.6-0.6c-0.1-0.5-0.3-0.7-0.7-0.6c-0.2,0-0.5,0-0.7,0c-0.5-0.1-0.7,0.1-0.8,0.6c-0.1,0.8-0.9,1.1-1.6,0.6
					c-0.4-0.3-0.6-0.3-0.9,0.1c-0.2,0.2-0.4,0.4-0.6,0.6c-0.4,0.3-0.4,0.6-0.1,1c0.5,0.7,0.2,1.4-0.7,1.6c-0.2,0-0.4,0.1-0.5,0.2
					c-0.2,0.5-0.1,1.1,0,1.6c0.1,0.4,0.5,0.3,0.8,0.4c0.4,0.1,0.9,0.9,0.6,1.2c-0.8,0.8-0.2,1.2,0.3,1.7c0.4,0.4,0.7,0.5,1.2,0.1
					c0.5-0.4,1.4-0.1,1.4,0.5c0.1,0.9,0.7,0.8,1.3,0.9c0.6,0,1-0.2,1-0.9c0-0.6,0.9-0.9,1.3-0.6c0.5,0.5,0.9,0.4,1.4-0.1
					c0.4-0.5,1-0.8,0.3-1.5c-0.4-0.4,0-1.3,0.5-1.3C30.1,27.5,30.4,27.2,30.3,26.6z M13.5,27.9C13.5,27.9,13.5,27.9,13.5,27.9
					c0,0.8,0,1.5,0,2.3c0,1.7,0,1.7,1.7,1.7c0.5,0,0.6-0.2,0.6-0.7c0-0.9,0-1.7,0-2.6c0-1.4,0-1.4,1.3-1.4c0.1,0,0.2,0,0.4,0
					c0.4,0.1,0.5-0.2,0.5-0.5c0-1.4,0-1.4-1.2-1.4c-1.1,0-1.3-0.3-0.8-1.3c0.2-0.5,0.6-1,1.2-1.1c0.7-0.1,0.9-0.5,0.8-1.1
					c0-0.3,0-0.6,0-0.9c0-0.4-0.1-0.5-0.5-0.5c-2.2,0.2-3.9,2-4,4.2C13.5,25.9,13.5,26.9,13.5,27.9z M17.3,14.6c-5,0.1-9.2,4-9.7,9
					c-0.1,1.2-0.2,1,1,1.1c0.6,0,0.9-0.1,0.8-0.8c0-0.3,0.1-0.6,0.1-0.8c0.8-3.9,4-6.5,8-6.6c0.2,0,0.5,0.1,0.6-0.1
					c0.1-0.5,0.1-1.1,0-1.6C18,14.4,17.5,14.6,17.3,14.6z M11.6,24.6c0.8,0,0.8,0,0.9-0.8c0.2-1.3,0.8-2.3,1.8-3.2
					c0.9-0.8,2-1.2,3.2-1.1c0.6,0,0.8-0.2,0.7-0.7c0-0.1,0-0.2,0-0.4c0.1-0.6-0.2-0.7-0.7-0.7c-3.4,0-6.3,2.6-6.7,5.9
					C10.7,24.6,10.7,24.6,11.6,24.6z"/>
			</g>
		</g>
		<g>
			<path class="st0" d="M24.7,28.6c-1.2,0-2.2-1-2.2-2.2c0-1.2,1-2.2,2.2-2.2c1.2,0,2.2,1,2.2,2.2C26.9,27.6,25.9,28.6,24.7,28.6z"
				/>
		</g>
	</g>
</g>
<rect x="57.1" y="7.6" class="st0" width="0.6" height="35.5"/>
<g>
	<path class="st0" d="M76,15.1l-1.3,1.3c0,0-0.9-1.3-2.6-1.3c-1.7,0-3,1.3-3,3c0,1.7,1.3,3,3,3c1.8,0,2.7-1.3,2.7-1.3l1.2,1.3
		c0,0-1.3,1.9-3.9,1.9c-2.8,0-5-2.2-5-4.8s2.2-4.8,5-4.8C74.8,13.3,76,15.1,76,15.1z"/>
	<path class="st0" d="M78.8,20.1c0.1,0.7,0.7,1.3,1.7,1.3c1.1,0,1.7-0.8,1.7-0.8l0.9,1.2c0,0-1,1.1-2.8,1.1c-1.9,0-3.4-1.5-3.4-3.4
		c0-1.9,1.5-3.4,3.4-3.4c1.9,0,3.2,1.4,3.2,3.2c0,0.5-0.1,0.7-0.1,0.7H78.8z M78.8,18.8h3c-0.1-0.7-0.7-1.2-1.5-1.2
		C79.5,17.6,78.9,18.2,78.8,18.8z"/>
	<path class="st0" d="M86.6,17.1c0,0,0.7-0.9,1.9-0.9c1.5,0,2.5,1.1,2.5,2.8v3.8h-1.8v-3.6c0-0.8-0.5-1.3-1.3-1.3
		c-0.8,0-1.3,0.5-1.3,1.5v3.4h-1.8v-6.5h1.8V17.1z"/>
	<path class="st0" d="M93.5,14.3h1.6v2.1h1.3V18h-1.3v2.6c0,0.4,0.3,0.7,0.8,0.7c0.4,0,0.7-0.1,0.7-0.1v1.5c0,0-0.5,0.2-1.2,0.2
		c-1.3,0-2.1-0.7-2.1-2.2V18h-1.1v-1.6h0.6c0.4,0,0.7-0.3,0.7-0.9V14.3z"/>
	<path class="st0" d="M99.3,20.1c0.1,0.7,0.7,1.3,1.7,1.3c1.1,0,1.7-0.8,1.7-0.8l0.9,1.2c0,0-1,1.1-2.8,1.1c-1.9,0-3.4-1.5-3.4-3.4
		c0-1.9,1.5-3.4,3.4-3.4c1.9,0,3.2,1.4,3.2,3.2c0,0.5-0.1,0.7-0.1,0.7H99.3z M99.3,18.8h3c-0.1-0.7-0.7-1.2-1.5-1.2
		S99.5,18.2,99.3,18.8z"/>
	<path class="st0" d="M109.2,18c0,0-0.2-0.1-0.6-0.1c-0.9,0-1.5,0.6-1.5,1.7v3.1h-1.8v-6.5h1.8v0.8c0,0,0.7-0.9,1.9-0.9h0.3V18z"/>
	<path class="st0" d="M116.6,18h-1.5v4.7h-1.8V18h-0.9v-1.6h0.9v-0.9c0-1.5,0.7-2.2,2.1-2.2c0.7,0,1.2,0.2,1.2,0.2v1.5
		c0,0-0.3-0.1-0.7-0.1c-0.5,0-0.8,0.3-0.8,0.7v0.8h1.5V18z"/>
	<path class="st0" d="M120.8,22.9c-1.9,0-3.4-1.6-3.4-3.4c0-1.8,1.6-3.4,3.4-3.4s3.4,1.6,3.4,3.4C124.3,21.3,122.7,22.9,120.8,22.9z
		 M120.8,21.2c0.9,0,1.6-0.7,1.6-1.7c0-1-0.7-1.7-1.6-1.7s-1.6,0.7-1.6,1.7C119.2,20.5,120,21.2,120.8,21.2z"/>
	<path class="st0" d="M129.5,18c0,0-0.2-0.1-0.6-0.1c-0.9,0-1.5,0.6-1.5,1.7v3.1h-1.8v-6.5h1.8v0.8c0,0,0.7-0.9,1.9-0.9h0.3V18z"/>
	<path class="st0" d="M74.1,28.5v1.8h-2.6v7.5h-2v-7.5h-2.6v-1.8H74.1z"/>
	<path class="st0" d="M77,32.1c0,0,0.7-0.9,1.9-0.9c1.5,0,2.5,1.1,2.5,2.8v3.8h-1.8v-3.6c0-0.8-0.5-1.3-1.3-1.3
		c-0.8,0-1.3,0.5-1.3,1.5v3.4h-1.8v-9.3H77V32.1z"/>
	<path class="st0" d="M84.5,35.1c0.1,0.7,0.7,1.3,1.7,1.3c1.1,0,1.7-0.8,1.7-0.8l0.9,1.2c0,0-1,1.1-2.8,1.1c-1.9,0-3.4-1.5-3.4-3.4
		c0-1.9,1.5-3.4,3.4-3.4c1.9,0,3.2,1.4,3.2,3.2c0,0.5-0.1,0.7-0.1,0.7H84.5z M84.5,33.9h3c-0.1-0.7-0.7-1.2-1.5-1.2
		C85.2,32.7,84.7,33.2,84.5,33.9z"/>
	<path class="st0" d="M100.5,28.5v1.8h-4.8v2.1h3.8v1.8h-3.8v3.6h-2v-9.3H100.5z"/>
	<path class="st0" d="M105.7,37.1c0,0-0.7,0.8-1.9,0.8c-1.5,0-2.5-1.1-2.5-2.7v-3.9h1.8V35c0,0.7,0.5,1.3,1.3,1.3
		c0.8,0,1.3-0.5,1.3-1.5v-3.4h1.8v6.5h-1.8V37.1z"/>
	<path class="st0" d="M110,29.4h1.6v2.1h1.3V33h-1.3v2.6c0,0.4,0.3,0.7,0.8,0.7c0.4,0,0.7-0.1,0.7-0.1v1.5c0,0-0.5,0.2-1.2,0.2
		c-1.3,0-2.1-0.7-2.1-2.2V33h-1.1v-1.6h0.6c0.4,0,0.7-0.3,0.7-0.9V29.4z"/>
	<path class="st0" d="M119,37.1c0,0-0.7,0.8-1.9,0.8c-1.5,0-2.5-1.1-2.5-2.7v-3.9h1.8V35c0,0.7,0.5,1.3,1.3,1.3
		c0.8,0,1.3-0.5,1.3-1.5v-3.4h1.8v6.5H119V37.1z"/>
	<path class="st0" d="M126.4,33c0,0-0.2-0.1-0.6-0.1c-0.9,0-1.5,0.6-1.5,1.7v3.1h-1.8v-6.5h1.8v0.8c0,0,0.7-0.9,1.9-0.9h0.3V33z"/>
	<path class="st0" d="M128.9,35.1c0.1,0.7,0.7,1.3,1.7,1.3c1.1,0,1.7-0.8,1.7-0.8l0.9,1.2c0,0-1,1.1-2.8,1.1c-1.9,0-3.4-1.5-3.4-3.4
		c0-1.9,1.5-3.4,3.4-3.4s3.2,1.4,3.2,3.2c0,0.5-0.1,0.7-0.1,0.7H128.9z M128.9,33.9h3c-0.1-0.7-0.7-1.2-1.5-1.2
		S129.1,33.2,128.9,33.9z"/>
	<path class="st0" d="M140.7,37.9c-1.9,0-3.4-1.6-3.4-3.4c0-1.8,1.6-3.4,3.4-3.4s3.4,1.6,3.4,3.4C144.2,36.3,142.6,37.9,140.7,37.9z
		 M140.7,36.3c0.9,0,1.6-0.7,1.6-1.7c0-1-0.7-1.7-1.6-1.7s-1.6,0.7-1.6,1.7C139.1,35.5,139.9,36.3,140.7,36.3z"/>
	<path class="st0" d="M149.1,33.1h-1.5v4.7h-1.8v-4.7H145v-1.6h0.9v-0.9c0-1.5,0.7-2.2,2.1-2.2c0.7,0,1.2,0.2,1.2,0.2v1.5
		c0,0-0.3-0.1-0.7-0.1c-0.5,0-0.8,0.3-0.8,0.7v0.8h1.5V33.1z"/>
	<path class="st0" d="M160.3,28.5l1.9,6.4l1.9-6.4h2.1l-3,9.3h-1.9l-2-6.2l-2,6.2h-1.9l-3-9.3h2.1l1.9,6.4l1.9-6.4H160.3z"/>
	<path class="st0" d="M169.8,37.9c-1.9,0-3.4-1.6-3.4-3.4c0-1.8,1.6-3.4,3.4-3.4s3.4,1.6,3.4,3.4C173.3,36.3,171.7,37.9,169.8,37.9z
		 M169.8,36.3c0.9,0,1.6-0.7,1.6-1.7c0-1-0.7-1.7-1.6-1.7s-1.6,0.7-1.6,1.7C168.2,35.5,169,36.3,169.8,36.3z"/>
	<path class="st0" d="M178.5,33c0,0-0.2-0.1-0.6-0.1c-0.9,0-1.5,0.6-1.5,1.7v3.1h-1.8v-6.5h1.8v0.8c0,0,0.7-0.9,1.9-0.9h0.3V33z"/>
	<path class="st0" d="M181.3,36.2v1.6h-1.8v-9.3h1.8V34l2.3-2.6h2.1l-2.4,2.8l2.6,3.7h-2l-1.7-2.5L181.3,36.2z"/>
</g>
</svg>
