<?xml version="1.0" encoding="utf-8"?>
<!-- Generator: Adobe Illustrator 26.0.3, SVG Export Plug-In . SVG Version: 6.00 Build 0)  -->
<svg version="1.1" id="Layer_1" xmlns="http://www.w3.org/2000/svg" xmlns:xlink="http://www.w3.org/1999/xlink" x="0px" y="0px"
	 viewBox="0 0 245.2 43.8" style="enable-background:new 0 0 245.2 43.8;" xml:space="preserve">
<style type="text/css">
	.st0{clip-path:url(#SVGID_00000110428584042722974790000006318587470185080731_);}
	.st1{fill:#FFFFFF;}
	.st2{clip-path:url(#SVGID_00000160159597593702577420000007855713246700486808_);}
	.st3{clip-path:url(#SVGID_00000005981289613498754710000006316589467878789563_);}
</style>
<g>
	<g>
		<defs>
			<rect id="SVGID_1_" x="0" width="51.5" height="43.8"/>
		</defs>
		<clipPath id="SVGID_00000040571581835882339950000016269069430653813890_">
			<use xlink:href="#SVGID_1_"  style="overflow:visible;"/>
		</clipPath>
		<g style="clip-path:url(#SVGID_00000040571581835882339950000016269069430653813890_);">
			<path class="st1" d="M0,22.5l14.1,20.3l15.8-9.4l-7.7-10.9L0,22.5z M0,21.3h22.1l7.7-10.9L14.1,1L0,21.3z M14.8,0l36.7,21.9
				L14.8,43.8h21.8l14.9-21.9L36.6,0L14.8,0z"/>
		</g>
	</g>
	<g>
		<defs>
			<rect id="SVGID_00000069398351308499149300000001746779395168726422_" x="58.5" y="2.8" width="186.7" height="40.8"/>
		</defs>
		<clipPath id="SVGID_00000178915666011331672310000001495154732395564170_">
			<use xlink:href="#SVGID_00000069398351308499149300000001746779395168726422_"  style="overflow:visible;"/>
		</clipPath>
		<g style="clip-path:url(#SVGID_00000178915666011331672310000001495154732395564170_);">
			<g>
				<defs>
					<rect id="SVGID_00000025431862072686778020000002948116137067366071_" x="58.5" y="2.8" width="186.7" height="40.8"/>
				</defs>
				<clipPath id="SVGID_00000049929327693201094630000013209452389169697172_">
					<use xlink:href="#SVGID_00000025431862072686778020000002948116137067366071_"  style="overflow:visible;"/>
				</clipPath>
				<g style="clip-path:url(#SVGID_00000049929327693201094630000013209452389169697172_);">
					<path class="st1" d="M158.1,10.8h3.7v22.1h-3.7V10.8z M144.6,10.3c-2.4,0-4.6,0.8-6.4,2.3v-1.8h-3.7v22.1h3.7V20.5
						c0-3.6,2.9-6.4,6.4-6.4s6.4,2.9,6.4,6.4v12.5h3.7V20.5C154.7,14.9,150.2,10.3,144.6,10.3C144.6,10.3,144.6,10.3,144.6,10.3
						 M127.1,10.8h3.7v21.3c-0.1,6.3-5.2,11.4-11.5,11.5c-5,0.1-9.6-3.2-11-8h4c1.3,2.7,4,4.4,7,4.3c4.3-0.1,7.7-3.6,7.9-7.9v-1.8
						c-4.7,4.3-12,4.1-16.3-0.6c-4.3-4.7-4.1-12,0.6-16.3c4.4-4.1,11.3-4.1,15.7,0V10.8z M127.1,21.9c0-4.3-3.5-7.9-7.8-7.9
						c-4.3,0-7.9,3.5-7.9,7.8s3.5,7.9,7.9,7.9l0,0C123.6,29.7,127.1,26.2,127.1,21.9 M70.1,14c3,0,5.8,1.8,7.1,4.5h3.9
						c-1.8-6.1-8.3-9.6-14.4-7.7c-6.1,1.8-9.6,8.3-7.7,14.4s8.3,9.6,14.4,7.7c3.7-1.1,6.6-4,7.7-7.7h-3.9c-1.8,3.9-6.5,5.6-10.4,3.8
						c-3.9-1.8-5.6-6.5-3.8-10.4C64.2,15.8,67,14,70.1,14 M105.9,21.9c0,6.4-5.2,11.5-11.5,11.5c-6.4,0-11.5-5.2-11.5-11.5
						S88,10.3,94.4,10.3C100.8,10.3,105.9,15.5,105.9,21.9C105.9,21.9,105.9,21.9,105.9,21.9 M102.2,21.9c0-4.3-3.5-7.9-7.8-7.9
						s-7.9,3.5-7.9,7.8c0,4.3,3.5,7.9,7.8,7.9c0,0,0,0,0,0C98.7,29.7,102.2,26.2,102.2,21.9 M222.8,10.3c-2.4,0-4.6,0.8-6.4,2.3
						v-1.8h-3.7v22.1h3.7V20.5c0-3.6,2.9-6.5,6.4-6.5c3.6,0,6.5,2.9,6.5,6.4c0,0,0,0,0,0v12.5h3.7V20.5
						C232.9,14.9,228.4,10.3,222.8,10.3C222.8,10.3,222.8,10.3,222.8,10.3 M205.3,10.8h3.7v22.1h-3.7v-2.6c-4.7,4.3-12,4.1-16.3-0.6
						c-4.3-4.7-4.1-12,0.6-16.3c2.1-2,4.9-3.1,7.8-3.1v0c2.9,0,5.7,1.1,7.9,3.1V10.8z M205.3,21.9c0-4.3-3.5-7.8-7.9-7.8
						c-4.3,0-7.8,3.5-7.8,7.9c0,4.3,3.5,7.8,7.8,7.8C201.7,29.7,205.3,26.2,205.3,21.9 M245.2,14.5v-3.7h-5.5v-6H236v20.8
						c0,4.1,3.3,7.4,7.4,7.4c0,0,0,0,0,0h1.8v-3.7h-1.8l0,0c-2,0-3.7-1.7-3.7-3.7V14.5L245.2,14.5z M159.9,2.8
						c-1.4,0-2.4,1.1-2.4,2.4c0,1.4,1.1,2.4,2.4,2.4c1.4,0,2.4-1.1,2.4-2.4C162.4,3.9,161.3,2.8,159.9,2.8
						C159.9,2.8,159.9,2.8,159.9,2.8 M183.9,10.8h-18.4v3.7h13.6l-13.6,14.7v3.7h18.4v-3.7h-13.7l13.6-14.7L183.9,10.8z"/>
				</g>
			</g>
		</g>
	</g>
</g>
</svg>
