<svg xmlns="http://www.w3.org/2000/svg" width="287" height="38" viewBox="0 0 287 38">
  <g fill="#FFFFFF" fill-rule="evenodd">
    <path d="M5.362465 15.23629C10.560865 15.23629 14.396965 19.07239 14.396965 23.89839 14.396965 28.72534 10.560865 32.56144 5.362465 32.56144L.288515 32.56144.288515 15.23629 5.362465 15.23629zM1.527315 16.47414L1.527315 31.32359 5.362465 31.32359C9.941465 31.32359 13.159115 28.10594 13.159115 23.89839 13.159115 19.69084 9.941465 16.47414 5.362465 16.47414L1.527315 16.47414zM17.65214 15.607835C18.14709 15.607835 18.51854 15.979285 18.51854 16.474235 18.51854 16.969185 18.14709 17.339685 17.65214 17.339685 17.15719 17.339685 16.78574 16.969185 16.78574 16.474235 16.78574 15.979285 17.15719 15.607835 17.65214 15.607835zM17.03274 32.561535L18.14709 32.561535 18.14709 20.681785 17.03274 20.681785 17.03274 32.561535zM30.31849 29.83874C30.31849 29.83874 28.95619 32.31444 25.86394 32.31444 23.01679 32.31444 20.41854 29.71524 20.41854 26.37409 20.41854 23.03294 23.01679 20.43374 25.86394 20.43374 28.95619 20.43374 30.31849 22.90849 30.31849 22.90849L30.31849 20.68169 31.43189 20.68169 31.43189 31.81854C31.43189 35.15969 28.83364 37.75889 25.73949 37.75889 22.52184 37.75889 21.03699 35.28414 21.03699 35.28414L21.77989 34.54124C21.77989 34.54124 23.14029 36.64549 25.73949 36.64549 28.21519 36.64549 30.31849 34.54124 30.31849 31.81854L30.31849 29.83874zM25.86394 31.20009C28.09169 31.20009 30.31849 29.09679 30.31849 26.37409 30.31849 23.65139 28.09169 21.54809 25.86394 21.54809 23.63619 21.54809 21.53194 23.65139 21.53194 26.37409 21.53194 29.09679 23.63619 31.20009 25.86394 31.20009zM35.207665 15.607835C35.702615 15.607835 36.074065 15.979285 36.074065 16.474235 36.074065 16.969185 35.702615 17.339685 35.207665 17.339685 34.712715 17.339685 34.341265 16.969185 34.341265 16.474235 34.341265 15.979285 34.712715 15.607835 35.207665 15.607835zM34.588265 32.561535L35.702615 32.561535 35.702615 20.681785 34.588265 20.681785 34.588265 32.561535zM39.897435 16.721045L40.887335 16.721045 40.887335 20.680645 43.609085 20.680645 43.609085 21.794995 40.887335 21.794995 40.887335 29.590695C40.887335 30.952045 41.629285 31.694945 42.743635 31.694945 43.609085 31.694945 44.351035 31.323495 44.351035 31.323495L44.351035 32.437845C44.351035 32.437845 43.609085 32.808345 42.743635 32.808345 40.887335 32.808345 39.773935 31.694945 39.773935 29.590695L39.773935 21.794995 37.422685 21.794995 37.422685 20.680645 39.031035 20.680645C39.525035 20.680645 39.897435 20.310145 39.897435 19.690745L39.897435 16.721045zM53.727155 25.136525C53.727155 23.082625 52.290755 21.547425 50.385055 21.547425 48.207655 21.547425 46.921355 23.280225 46.921355 23.280225L46.178455 22.538275C46.178455 22.538275 47.711755 20.434025 50.385055 20.434025 52.933905 20.434025 54.841505 22.487925 54.841505 25.136525L54.841505 32.561725 53.727155 32.561725 53.727155 30.581925C53.727155 30.581925 52.364855 32.808725 49.395155 32.808725 47.044855 32.808725 45.435555 31.200375 45.435555 29.467575 45.435555 27.611275 46.795955 26.225225 49.024655 25.878475L53.727155 25.136525zM53.727155 27.364275L53.727155 26.249925 49.272605 26.992825C47.415355 27.290175 46.548955 28.229725 46.548955 29.467575 46.548955 30.581925 47.662355 31.695325 49.395155 31.695325 51.870855 31.695325 53.727155 29.839025 53.727155 27.364275z"/>
    <polygon points="57.873 32.561 58.987 32.561 58.987 15.236 57.873 15.236"/>
    <path d="M66.535435 19.567815C66.535435 17.093065 68.639685 14.988815 71.979885 14.988815 75.197535 14.988815 76.929385 17.093065 76.929385 17.093065L76.062985 17.958515C76.062985 17.958515 74.703535 16.226665 71.979885 16.226665 69.257185 16.226665 67.773285 17.711515 67.773285 19.567815 67.773285 24.270315 77.425285 22.042565 77.425285 27.982915 77.425285 30.705615 75.321035 32.808915 71.732885 32.808915 67.896785 32.808915 66.040485 30.209715 66.040485 30.209715L66.906885 29.344265C66.906885 29.344265 68.390785 31.571065 71.732885 31.571065 74.703535 31.571065 76.187435 30.086215 76.187435 27.982915 76.187435 23.280415 66.535435 25.508165 66.535435 19.567815M82.447935 32.56125L77.621935 20.6815 78.859785 20.6815 83.066385 31.0764 87.273935 20.6815 88.512735 20.6815 82.820335 34.789C81.977685 36.8923 81.086585 37.7587 79.353785 37.7587 78.736285 37.7587 78.240385 37.5117 78.240385 37.5117L78.240385 36.39735C78.240385 36.39735 78.736285 36.6453 79.353785 36.6453 80.468135 36.6453 81.086585 36.0259 81.581535 34.789L82.447935 32.56125zM96.02068 23.03294C96.02068 23.03294 95.02983 21.54809 93.17448 21.54809 91.44168 21.54809 90.45178 22.56269 90.45178 23.65139 90.45178 26.49759 97.25853 25.13624 97.25853 29.22029 97.25853 31.20009 95.64828 32.80939 93.05003 32.80939 90.32828 32.80939 88.84248 30.82864 88.84248 30.82864L89.70888 29.96319C89.70888 29.96319 90.94578 31.69504 93.05003 31.69504 95.02983 31.69504 96.14418 30.58164 96.14418 29.22029 96.14418 26.25059 89.33838 27.61194 89.33838 23.65139 89.33838 22.04304 90.94578 20.43469 93.17448 20.43469 95.52573 20.43469 96.88613 22.16654 96.88613 22.16654L96.02068 23.03294zM100.7855 16.721045L101.7754 16.721045 101.7754 20.680645 104.4981 20.680645 104.4981 21.794995 101.7754 21.794995 101.7754 29.590695C101.7754 30.952045 102.5183 31.694945 103.6317 31.694945 104.4981 31.694945 105.24005 31.323495 105.24005 31.323495L105.24005 32.437845C105.24005 32.437845 104.4981 32.808345 103.6317 32.808345 101.7754 32.808345 100.662 31.694945 100.662 29.590695L100.662 21.794995 98.3117 21.794995 98.3117 20.680645 99.9191 20.680645C100.41405 20.680645 100.7855 20.310145 100.7855 19.690745L100.7855 16.721045zM106.868635 27.116325C106.992135 29.591075 109.096385 31.695325 111.571135 31.695325 114.171285 31.695325 115.531685 29.615775 115.531685 29.615775L116.273635 30.333975C116.273635 30.333975 114.665285 32.808725 111.571135 32.808725 108.477935 32.808725 105.755235 30.086025 105.755235 26.621375 105.755235 23.156725 108.477935 20.434025 111.447635 20.434025 114.417335 20.434025 116.893035 22.908775 116.893035 26.621375L116.893035 27.116325 106.868635 27.116325zM106.868635 26.002925L115.778685 26.002925C115.655185 23.403725 113.798885 21.547425 111.447635 21.547425 109.096385 21.547425 106.992135 23.651675 106.868635 26.002925zM135.2629 25.50769C135.2629 23.03294 133.77805 21.54809 131.92175 21.54809 129.94195 21.54809 128.33265 23.15644 128.33265 25.87914L128.33265 32.56144 127.21925 32.56144 127.21925 25.50769C127.21925 23.03294 125.7344 21.54809 123.8781 21.54809 121.8983 21.54809 120.289 23.15644 120.289 25.87914L120.289 32.56144 119.17465 32.56144 119.17465 20.68169 120.289 20.68169 120.289 22.41449C120.289 22.41449 121.2789 20.43374 123.8781 20.43374 126.8478 20.43374 127.8377 23.15644 127.8377 23.15644 127.8377 23.15644 128.75255 20.43374 131.92175 20.43374 134.3718 20.43374 136.3763 22.29004 136.3763 25.50769L136.3763 32.56144 135.2629 32.56144 135.2629 25.50769zM145.336225 23.03294C145.336225 23.03294 144.346325 21.54809 142.490025 21.54809 140.758175 21.54809 139.768275 22.56269 139.768275 23.65139 139.768275 26.49759 146.575025 25.13624 146.575025 29.22029 146.575025 31.20009 144.964775 32.80939 142.366525 32.80939 139.644775 32.80939 138.158975 30.82864 138.158975 30.82864L139.025375 29.96319C139.025375 29.96319 140.262275 31.69504 142.366525 31.69504 144.346325 31.69504 145.459725 30.58164 145.459725 29.22029 145.459725 26.25059 138.653925 27.61194 138.653925 23.65139 138.653925 22.04304 140.262275 20.43469 142.490025 20.43469 144.841275 20.43469 146.202625 22.16654 146.202625 22.16654L145.336225 23.03294zM158.20483 23.52789L162.66033 28.97234C162.66033 28.97234 163.89723 27.06664 163.89723 24.14634L165.01158 24.14634C165.01158 27.58724 163.40228 29.83874 163.40228 29.83874 163.40228 29.83874 164.51568 31.57154 165.63003 31.57154 166.00148 31.57154 166.37293 31.44804 166.37293 31.44804L166.37293 32.56144C166.37293 32.56144 166.00148 32.68494 165.63003 32.68494 163.89723 32.68494 162.66033 30.70514 162.66033 30.70514 162.66033 30.70514 161.12513 32.80844 158.08133 32.80844 155.23513 32.80844 153.25438 30.82864 153.25438 28.60184 153.25438 25.50769 156.72093 23.52789 156.72093 23.52789 156.72093 23.52789 153.99728 20.95434 153.99728 18.82539 153.99728 16.72114 155.73103 14.98834 157.83338 14.98834 159.93763 14.98834 161.54693 16.59764 161.54693 18.70189 161.54693 21.34954 158.20483 23.52789 158.20483 23.52789zM157.33843 24.26984C157.33843 24.26984 154.36873 26.24964 154.36873 28.60184 154.36873 30.33369 155.73103 31.69504 158.08133 31.69504 160.63018 31.69504 161.91743 29.83874 161.91743 29.83874L157.33843 24.26984zM157.58733 22.78499C157.58733 22.78499 160.43258 20.73109 160.43258 18.70189 160.43258 17.21609 159.31918 16.10269 157.83338 16.10269 156.34853 16.10269 155.11163 17.34054 155.11163 18.82539 155.11163 20.53254 157.58733 22.78499 157.58733 22.78499z"/>
    <polygon points="183.449 15.236 183.449 16.474 177.756 16.474 177.756 32.561 176.518 32.561 176.518 16.474 170.826 16.474 170.826 15.236"/>
    <path d="M183.11079 27.116325C183.23429 29.591075 185.33854 31.695325 187.81234 31.695325 190.41154 31.695325 191.77194 29.615775 191.77194 29.615775L192.51484 30.333975C192.51484 30.333975 190.90554 32.808725 187.81234 32.808725 184.71819 32.808725 181.99549 30.086025 181.99549 26.621375 181.99549 23.156725 184.71819 20.434025 187.68884 20.434025 190.65854 20.434025 193.13424 22.908775 193.13424 26.621375L193.13424 27.116325 183.11079 27.116325zM183.11079 26.002925L192.02084 26.002925C191.89639 23.403725 190.04104 21.547425 187.68884 21.547425 185.33854 21.547425 183.23429 23.651675 183.11079 26.002925zM200.446485 20.433835C203.539685 20.433835 205.148985 22.908585 205.148985 22.908585L204.282585 23.651485C204.282585 23.651485 203.044735 21.547235 200.446485 21.547235 197.971735 21.547235 195.743985 23.774985 195.743985 26.621185 195.743985 29.467385 197.971735 31.695135 200.446485 31.695135 203.044735 31.695135 204.282585 29.590885 204.282585 29.590885L205.148985 30.333785C205.148985 30.333785 203.539685 32.808535 200.446485 32.808535 197.353285 32.808535 194.630585 30.085835 194.630585 26.621185 194.630585 23.156535 197.353285 20.433835 200.446485 20.433835M208.157825 22.7848C208.157825 22.7848 209.271225 20.43355 212.241875 20.43355 214.963625 20.43355 217.067875 22.5378 217.067875 25.5075L217.067875 32.56125 215.953525 32.56125 215.953525 25.5075C215.953525 23.15625 214.345175 21.5479 212.241875 21.5479 210.014125 21.5479 208.157825 23.4042 208.157825 25.878L208.157825 32.56125 207.043475 32.56125 207.043475 15.2361 208.157825 15.2361 208.157825 22.7848zM221.19249 22.7848C221.19249 22.7848 222.30589 20.43355 225.27654 20.43355 227.99829 20.43355 230.10254 22.5378 230.10254 25.5075L230.10254 32.56125 228.98819 32.56125 228.98819 25.5075C228.98819 23.15625 227.37984 21.5479 225.27654 21.5479 223.04879 21.5479 221.19249 23.4042 221.19249 25.878L221.19249 32.56125 220.07719 32.56125 220.07719 20.6815 221.19249 20.6815 221.19249 22.7848zM238.201575 20.433835C241.419225 20.433835 244.141925 23.156535 244.141925 26.621185 244.141925 30.085835 241.419225 32.808535 238.201575 32.808535 234.983925 32.808535 232.261225 30.085835 232.261225 26.621185 232.261225 23.156535 234.983925 20.433835 238.201575 20.433835M238.201575 21.547235C235.603325 21.547235 233.375575 23.774985 233.375575 26.621185 233.375575 29.467385 235.603325 31.695135 238.201575 31.695135 240.800775 31.695135 243.027575 29.467385 243.027575 26.621185 243.027575 23.774985 240.800775 21.547235 238.201575 21.547235"/>
    <polygon points="246.507 32.561 247.621 32.561 247.621 15.236 246.507 15.236"/>
    <path d="M255.96762 20.433835C259.18527 20.433835 261.90797 23.156535 261.90797 26.621185 261.90797 30.085835 259.18527 32.808535 255.96762 32.808535 252.74997 32.808535 250.02727 30.085835 250.02727 26.621185 250.02727 23.156535 252.74997 20.433835 255.96762 20.433835M255.96762 21.547235C253.36937 21.547235 251.14162 23.774985 251.14162 26.621185 251.14162 29.467385 253.36937 31.695135 255.96762 31.695135 258.56587 31.695135 260.79362 29.467385 260.79362 26.621185 260.79362 23.774985 258.56587 21.547235 255.96762 21.547235M273.303315 29.83874C273.303315 29.83874 271.941965 32.31444 268.849715 32.31444 266.002565 32.31444 263.403365 29.71524 263.403365 26.37409 263.403365 23.03294 266.002565 20.43374 268.849715 20.43374 271.941965 20.43374 273.303315 22.90849 273.303315 22.90849L273.303315 20.68169 274.416715 20.68169 274.416715 31.81854C274.416715 35.15969 271.819415 37.75889 268.725265 37.75889 265.506665 37.75889 264.021815 35.28414 264.021815 35.28414L264.765665 34.54124C264.765665 34.54124 266.126065 36.64549 268.725265 36.64549 271.200015 36.64549 273.303315 34.54124 273.303315 31.81854L273.303315 29.83874zM268.849715 31.20009C271.075565 31.20009 273.303315 29.09679 273.303315 26.37409 273.303315 23.65139 271.075565 21.54809 268.849715 21.54809 266.621965 21.54809 264.516765 23.65139 264.516765 26.37409 264.516765 29.09679 266.621965 31.20009 268.849715 31.20009zM280.83653 32.56125L276.01053 20.6815 277.24838 20.6815 281.45498 31.0764 285.66253 20.6815 286.90038 20.6815 281.20798 34.789C280.36628 36.8923 279.47423 37.7587 277.74238 37.7587 277.12393 37.7587 276.62803 37.5117 276.62803 37.5117L276.62803 36.39735C276.62803 36.39735 277.12393 36.6453 277.74238 36.6453 278.85673 36.6453 279.47423 36.0259 279.97108 34.789L280.83653 32.56125zM34.27999 7.765205L37.81684 4.309105 34.33319 4.309105 34.33319 2.681755 40.29159 2.681755 40.29159 4.335705 36.75379 7.778505 40.35714 7.778505 40.35714 9.405855 34.27999 9.405855 34.27999 7.765205zM31.76629 2.143105L33.60834 2.143105 33.60834.470155 31.76629.470155 31.76629 2.143105zM31.74254 9.425805L33.58459 9.425805 33.58459 2.701705 31.74254 2.701705 31.74254 9.425805zM12.94204 9.540755C14.87814 9.540755 16.42474 7.979905 16.42474 6.043805 16.42474 4.107705 14.87814 2.547805 12.94204 2.547805 11.00594 2.547805 9.45934 4.107705 9.45934 6.043805 9.45934 7.979905 11.00594 9.540755 12.94204 9.540755zM12.94204 7.791805C11.98729 7.791805 11.26149 6.998555 11.26149 6.043805 11.26149 5.089055 11.98729 4.295805 12.94204 4.295805 13.88349 4.295805 14.63684 5.089055 14.63684 6.043805 14.63684 6.998555 13.88349 7.791805 12.94204 7.791805zM24.74009 2.681755L26.56884 2.681755 26.56884 3.435105C26.99919 2.883155 27.65754 2.547805 28.42419 2.547805 30.01164 2.547805 30.96639 3.569055 30.96639 5.303755L30.96639 9.405855 29.09679 9.405855 29.09679 5.546005C29.09679 4.645405 28.67879 4.121005 27.85989 4.121005 27.16069 4.121005 26.58119 4.604555 26.58119 5.734105L26.58119 9.405855 24.74009 9.405855 24.74009 2.681755zM43.70494 9.540755C44.57894 9.540755 45.29144 9.176905 45.73509 8.652505L45.73509 9.405855 47.57809 9.405855 47.57809 2.681755 45.73509 2.681755 45.73509 3.341055C45.29144 2.869855 44.60554 2.547805 43.73154 2.547805 42.21249 2.547805 40.46354 3.663105 40.46354 6.043805 40.46354 8.410255 42.27899 9.540755 43.70494 9.540755zM44.06784 7.845955C43.04564 7.845955 42.26569 7.066005 42.26569 6.030505 42.26569 4.995005 43.04564 4.228355 44.06784 4.228355 45.06344 4.228355 45.78924 5.034905 45.78924 6.030505 45.78924 7.025155 45.06344 7.845955 44.06784 7.845955zM48.32099 2.681755L50.15069 2.681755 50.15069 3.435105C50.58104 2.883155 51.23939 2.547805 52.00604 2.547805 53.59254 2.547805 54.54729 3.569055 54.54729 5.303755L54.54729 9.405855 52.67864 9.405855 52.67864 5.546005C52.67864 4.645405 52.26159 4.121005 51.44079 4.121005 50.74254 4.121005 50.16399 4.604555 50.16399 5.734105L50.16399 9.405855 48.32099 9.405855 48.32099 2.681755zM7.49379 5.985855L7.46909 6.039055C6.95989 7.110655 6.02414 7.726255 4.90219 7.726255 3.27484 7.726255 1.99994 6.439955 1.99994 4.798355 1.99994 3.114955 3.26344 1.844805 4.94019 1.844805 6.02699 1.844805 6.85254 2.354005 7.39404 3.358155L7.42254 3.412305 9.06319 2.363505 9.03564 2.316955C8.18349.866305 6.65304-.000095 4.94019-.000095 2.20419-.000095.14079 2.062355.14079 4.798355.14079 7.579005 2.15859 9.596805 4.94019 9.596805 6.73284 9.596805 8.31554 8.602155 9.17624 6.935855L9.20189 6.886455 7.49379 5.985855zM20.12974 9.540755C21.00374 9.540755 21.71624 9.176905 22.16084 8.652505L22.16084 9.285205C22.16084 10.159205 21.52909 10.939155 20.53349 10.939155 19.63289 10.939155 19.01444 10.495505 18.66484 9.796305L17.03749 10.710205C17.57519 11.759005 18.82539 12.647255 20.53349 12.647255 22.80589 12.647255 24.00289 11.113955 24.00289 9.217755L24.00289 2.681755 22.16084 2.681755 22.16084 3.408505C21.71624 2.910705 21.03129 2.547805 20.15729 2.547805 18.63729 2.547805 16.88929 3.663105 16.88929 6.043805 16.88929 8.410255 18.70379 9.540755 20.12974 9.540755zM20.49359 7.845955C19.47139 7.845955 18.69144 7.066005 18.69144 6.030505 18.69144 4.995005 19.47139 4.228355 20.49359 4.228355 21.48824 4.228355 22.21499 5.034905 22.21499 6.030505 22.21499 7.025155 21.48824 7.845955 20.49359 7.845955zM59.08544 4.335705L59.08544 2.681755 57.82099 2.681755 57.82099.463505 55.97894.463505 55.97894 2.681755 54.83609 2.681755 54.83609 4.335705 55.97894 4.335705 55.97894 6.487455C55.97894 8.680055 56.67814 9.405855 58.81659 9.405855L59.08544 9.405855 59.08544 7.684455C57.95589 7.684455 57.82099 7.522955 57.82099 6.474155L57.82099 4.335705 59.08544 4.335705z"/>
  </g>
</svg>
