<svg xmlns="http://www.w3.org/2000/svg" xmlns:xlink="http://www.w3.org/1999/xlink" width="149" height="38"><defs><path id="a" d="M.58.707h8.21v12.074H.58z"/><path id="c" d="M0 .557h57.506v12.339H0z"/></defs><g fill="none" fill-rule="evenodd"><path fill="#0033A0" d="M5.09394634 15.47081951c5.07068296 0 8.81321956 3.74253659 8.81321956 8.45082927 0 4.70829272-3.7425366 8.45082922-8.81321956 8.45082922H.14375122V15.47081951h4.95019512zm-3.74253658 1.20673171V31.1657463h3.74253658c4.46731707 0 7.60648776-3.1391707 7.60648776-7.24409752 0-4.10492683-3.13917069-7.24409756-7.60648776-7.24409756H1.35140976zm15.73200004-.84461951c.482878 0 .8452682.36239024.8452682.84526829 0 .48287805-.3623902.84434146-.8452682.84434146-.4828781 0-.8452683-.36146341-.8452683-.84434146s.3623902-.8452683.8452683-.8452683zm-.6033659 16.54019509h1.0862439V20.78312683h-1.0862439V32.3731268zm12.9603171-2.6563853s-1.3272195 2.4143902-4.3459025 2.4143902c-2.7767805 0-5.3125853-2.534878-5.3125853-5.7954634 0-3.25873171 2.5358048-5.79453659 5.3125853-5.79453659 3.018683 0 4.3459025 2.41439024 4.3459025 2.41439024v-2.1724878h1.0862439V31.6482537c0 3.2596585-2.5348781 5.7954634-5.5526342 5.7954634-3.1391707 0-4.5878048-2.4153171-4.5878048-2.4153171l.7238536-.7238537s1.3281464 2.052 3.8639512 2.052c2.4143903 0 4.4663903-2.052 4.4663903-4.7082926v-1.9315122zm-4.3459025 1.3281463c2.1734147 0 4.3459025-2.0529268 4.3459025-4.7092195 0-2.65536586-2.1724878-4.70829269-4.3459025-4.70829269-2.1734146 0-4.2263414 2.05292683-4.2263414 4.70829269 0 2.6562927 2.0529268 4.7092195 4.2263414 4.7092195zm9.1158293-15.2119561c.4828781 0 .8452683.36239025.8452683.8452683 0 .48287805-.3623902.84434146-.8452683.84434146-.482878 0-.8452683-.36146341-.8452683-.84434146s.3623903-.8452683.8452683-.8452683zm-.6033658 16.5401951h1.0862439V20.78312683H33.606922V32.3731268zm5.1782878-15.45367314h.9657561v3.86302439h2.6562926v1.08717073h-2.6562926v7.60556102c0 1.3281463.7247804 2.052 1.8110243 2.052.8452683 0 1.569122-.3614635 1.569122-.3614635v1.0862439s-.7238537.3623903-1.569122.3623903c-1.8110243 0-2.8972682-1.0871707-2.8972682-3.1391707v-7.60556102h-2.2939025v-1.08717073h1.569122c.482878 0 .8452683-.36239025.8452683-.9657561v-2.89726829zm13.4919463 8.20929756c0-2.00380488-1.400439-3.50063415-3.2596585-3.50063415-2.1242927 0-3.3801464 1.68960976-3.3801464 1.68960976l-.7247805-.72385366s1.4977561-2.05292683 4.1049269-2.05292683c2.4866829 0 4.3468292 2.00380488 4.3468292 4.58780488v7.24409758h-1.0871707v-1.932439s-1.3281463 2.1734146-4.2254146 2.1734146c-2.2939025 0-3.8630244-1.569122-3.8630244-3.2596585 0-1.8110244 1.3272195-3.1632683 3.5006341-3.5006342l4.5878049-.72478048zm0 2.17248778v-1.0862439l-4.3459024.7247805c-1.8110244.2900976-2.6562927 1.2067317-2.6562927 2.4143903 0 1.0862439 1.0862439 2.1734146 2.7767805 2.1734146 2.4143902 0 4.2254146-1.8110244 4.2254146-4.2263415zM56.322 32.372h1.088V15.471h-1.088z"/><g transform="translate(0 .37)"><path fill="#0033A0" d="M77.5703268 27.2932683c0 2.6562927-2.052 4.7082927-5.1911707 4.7082927H65.859839V15.0999024h6.2774147c2.7767804 0 4.5878048 1.8110244 4.5878048 4.2254147 0 2.7767805-2.1724878 3.6229756-2.1724878 3.6229756s3.0177561.9657561 3.0177561 4.3449756zM67.0665707 16.3066341v6.1578537h5.070683c2.1734146 0 3.3810731-1.2076585 3.3810731-3.1391707 0-1.8110244-1.2076585-3.018683-3.3810731-3.018683h-5.070683zm5.3125854 14.4881952c2.534878 0 3.9835122-1.4486342 3.9835122-3.501561 0-2.1724878-1.4486342-3.6220488-3.9835122-3.6220488h-5.3125854v7.1236098h5.3125854zm16.4851415-.845083s-1.0862439 2.2939025-3.9835122 2.2939025c-2.6562927 0-4.7092195-2.0529268-4.7092195-4.9501951v-6.8817074h1.0871707v6.8817074c0 2.2939024 1.5691219 3.8630243 3.6220488 3.8630243 2.1724878 0 3.9835122-1.8100975 3.9835122-4.2254146v-6.5193171h1.0862439v11.59h-1.0862439v-2.052zM98.8494 22.7062049s-.9657561-1.4486342-2.7767805-1.4486342c-1.6905366 0-2.6562927.9898537-2.6562927 2.052 0 2.7767805 6.6407322 1.4486342 6.6407322 5.4330732 0 1.9315122-1.5700492 3.501561-4.1049273 3.501561-2.6562927 0-4.1049268-1.9315122-4.1049268-1.9315122l.8452683-.8452683s1.2067317 1.6896097 3.2596585 1.6896097c1.9315122 0 3.0177561-1.0862439 3.0177561-2.4143902 0-2.8972683-6.6398049-1.5691219-6.6398049-5.4330732 0-1.5691219 1.569122-3.1391707 3.7425366-3.1391707 2.2939025 0 3.6220488 1.6905366 3.6220488 1.6905366l-.8452683.8452683zm3.958951-7.2440049c.482878 0 .844342.3623902.844342.8452683 0 .482878-.361464.8443415-.844342.8443415-.482878 0-.845268-.3614635-.845268-.8443415 0-.4828781.36239-.8452683.845268-.8452683zm-.604292 16.5401951h1.086243v-11.59h-1.086243v11.59zm5.275975-9.5379073s1.087171-2.2939024 3.984439-2.2939024c2.655366 0 4.708293 2.0529268 4.708293 4.9501951v6.8817073h-1.086244v-6.8817073c0-2.2939025-1.570049-3.8630244-3.622049-3.8630244-2.173414 0-3.984439 1.8100976-3.984439 4.2254146v6.5193171h-1.086244v-11.59h1.086244v2.052zm11.885937 4.2255073c.120488 2.4143903 2.173414 4.4673171 4.587805 4.4673171 2.534878 0 3.863024-2.0288293 3.863024-2.0288293l.72478.700683s-1.570048 2.4143902-4.587804 2.4143902c-3.018683 0-5.674976-2.6562927-5.674976-6.036439 0-3.3801464 2.656293-6.0364391 5.554488-6.0364391 2.897268 0 5.311658 2.4143903 5.311658 6.0364391v.482878h-9.778975zm0-1.0862439h8.692731c-.121414-2.5358049-1.931512-4.3468292-4.225414-4.3468292-2.293903 0-4.346829 2.0529268-4.467317 4.3468292zm17.786688-2.8975463s-.965757-1.4486342-2.776781-1.4486342c-1.690537 0-2.656293.9898537-2.656293 2.052 0 2.7767805 6.640732 1.4486342 6.640732 5.4330732 0 1.9315122-1.570049 3.501561-4.104927 3.501561-2.656292 0-4.104927-1.9315122-4.104927-1.9315122l.845269-.8452683s1.206731 1.6896097 3.259658 1.6896097c1.931512 0 3.017756-1.0862439 3.017756-2.4143902 0-2.8972683-6.639805-1.5691219-6.639805-5.4330732 0-1.5691219 1.569122-3.1391707 3.742537-3.1391707 2.293902 0 3.622049 1.6905366 3.622049 1.6905366l-.845268.8452683z"/><g transform="translate(139.024 19.463)"><mask id="b" fill="#fff"><use xlink:href="#a"/></mask><path fill="#0033A0" d="M7.58257561 3.24279024S6.61681951 1.7941561 4.80579512 1.7941561c-1.68960975 0-2.65629268.98985366-2.65629268 2.052 0 2.77678049 6.64073171 1.44863414 6.64073171 5.43307317 0 1.93151223-1.57004878 3.50156093-4.10492683 3.50156093-2.65629269 0-4.10492683-1.9315122-4.10492683-1.9315122l.84526829-.8452682s1.20673171 1.6896097 3.25965854 1.6896097c1.93151219 0 3.01775609-1.0862439 3.01775609-2.41439023 0-2.89726829-6.63980487-1.56912195-6.63980487-5.43307317 0-1.56912195 1.56912195-3.13917073 3.74253658-3.13917073 2.29390244 0 3.62204878 1.69053658 3.62204878 1.69053658l-.84526829.84526829z" mask="url(#b)"/></g><mask id="d" fill="#fff"><use xlink:href="#c"/></mask><path fill="#0033A0" d="M33.3057024 8.13264878l3.4505854-3.37180488h-3.3986829V3.17318537h5.8121463v1.61360975l-3.4505853 3.35882927h3.5163902v1.58765854h-5.9298537V8.13264878zM30.854239 2.64767317h1.797122V1.01552683h-1.797122v1.63214634zm-.0240975 7.10507317h1.7971219V3.19264878h-1.7971219v6.56009756zm-18.3419513.11214634c1.8888781 0 3.3977561-1.52278048 3.3977561-3.41165853s-1.508878-3.41073171-3.3977561-3.41073171c-1.888878 0-3.39775605 1.52185366-3.39775605 3.41073171 0 1.88887805 1.50887805 3.41165853 3.39775605 3.41165853zm0-1.70629268c-.9314634 0-1.6395609-.77390244-1.6395609-1.70536585 0-.93146342.7080975-1.70536586 1.6395609-1.70536586.9184878 0 1.6534635.77390244 1.6534635 1.70536586 0 .93146341-.7349757 1.70536585-1.6534635 1.70536585zm11.5102927-4.98541463h1.7841464v.73497561c.4198536-.53848781 1.0621463-.86565854 1.8100975-.86565854 1.5487317 0 2.4801952.99634146 2.4801952 2.68873171v4.00204878h-1.824V5.96757561c0-.87863415-.4068781-1.3902439-1.2067318-1.3902439-.6821463 0-1.2465853.47175609-1.2465853 1.57375609v3.58219513h-1.797122V3.17318537zm18.5022927 6.69170731c.8526829 0 1.5478049-.35497561 1.9806342-.86658536v.73497561h1.7980487V3.17318537h-1.7980487v.64321951c-.4328293-.45970732-1.102-.77390244-1.954683-.77390244-1.482 0-3.1882927 1.08809756-3.1882927 3.41073171 0 2.3087317 1.7711708 3.41165853 3.1623415 3.41165853zm.3540488-1.65346341c-.9972683 0-1.7581951-.76092683-1.7581951-1.77117073 0-1.01024391.7609268-1.75819513 1.7581951-1.75819513.9713171 0 1.6794146.78687805 1.6794146 1.75819513 0 .97039024-.7080975 1.77117073-1.6794146 1.77117073zm4.1494146-5.0382439h1.7850732v.73497561c.4198537-.53848781 1.0621463-.86565854 1.8100976-.86565854 1.5478048 0 2.4792682.99634146 2.4792682 2.68873171v4.00204878h-1.8230731V5.96757561c0-.87863415-.4068781-1.3902439-1.2067317-1.3902439-.6821464 0-1.2465854.47175609-1.2465854 1.57375609v3.58219513H47.004239V3.17318537zM7.17282439 6.39669756L7.14872683 6.4486c-.49678049 1.04546341-1.40970732 1.64604878-2.50429268 1.64604878-1.58765854 0-2.83146342-1.25492683-2.83146342-2.8564878 0-1.64234147 1.23268293-2.8815122 2.86853659-2.8815122 1.06029268 0 1.86570731.49678049 2.394 1.47643902l.0287317.05282927 1.59970732-1.02321951-.02687805-.04541463C7.84570244 1.40201463 6.35258049.55674634 4.68150732.55674634c-2.6692683 0-4.68141464 2.01214634-4.68141464 4.68141464 0 2.71282926 1.96858537 4.68141463 4.68141464 4.68141463 1.74892683 0 3.29302439-.97039024 4.1327317-2.59604878l.02502439-.04819512-1.66643902-.87863415zM19.5015073 9.86489268c.8526829 0 1.5478049-.35497561 1.9806342-.86658536v.61726829c0 .85268289-.6163415 1.61360979-1.5876586 1.61360979-.8786341 0-1.482-.4328293-1.8230731-1.1149756l-1.5876586.8916097c.5245854 1.0232195 1.7452195 1.8898049 3.4107317 1.8898049 2.2179025 0 3.3847805-1.4959024 3.3847805-3.34585367V3.17318537h-1.7971219v.70902439c-.4328293-.48565854-1.102-.83970732-1.954683-.83970732-1.4829268 0-3.1882926 1.08809756-3.1882926 3.41073171 0 2.3087317 1.7711707 3.41165853 3.1623414 3.41165853zm.3540488-1.65346341c-.9972683 0-1.7581951-.76092683-1.7581951-1.77117073 0-1.01024391.7609268-1.75819513 1.7581951-1.75819513.9703902 0 1.6794146.78687805 1.6794146 1.75819513 0 .97039024-.7090244 1.77117073-1.6794146 1.77117073zm37.6505854-3.42463415V3.17318537h-1.2336098V1.00903902h-1.7971219v2.16414635h-1.1149757v1.61360975h1.1149757v2.09926829c0 2.13912196.6821463 2.84721952 2.768439 2.84721952h.2622927V8.05386829c-1.102 0-1.2336098-.15756097-1.2336098-1.18078049V4.78679512h1.2336098z" mask="url(#d)"/></g></g></svg>