<svg xmlns="http://www.w3.org/2000/svg" width="176" height="38"><g fill="none" fill-rule="evenodd"><path d="M5.074 14.907c5.197 0 9.034 3.836 9.034 8.662s-3.836 8.663-9.034 8.663H0V14.907h5.074zm-3.836 1.238v14.85h3.836c4.579 0 7.797-3.219 7.797-7.426s-3.218-7.424-7.797-7.424H1.238zm16.126-.867c.495 0 .865.371.865.866s-.37.866-.865.866-.866-.371-.866-.866.371-.866.866-.866zm-.619 16.954h1.113v-11.88h-1.113v11.88zm13.286-2.723s-1.362 2.476-4.456 2.476c-2.846 0-5.444-2.599-5.444-5.94s2.598-5.94 5.444-5.94c3.093 0 4.456 2.475 4.456 2.475v-2.227h1.113v11.137c0 3.342-2.598 5.94-5.692 5.94-3.218 0-4.703-2.475-4.703-2.475l.744-.743s1.36 2.104 3.96 2.104c2.475 0 4.579-2.104 4.579-4.827v-1.98zm-4.456 1.361c2.227 0 4.456-2.103 4.456-4.826s-2.229-4.826-4.456-4.826-4.331 2.103-4.331 4.826 2.104 4.826 4.331 4.826zm9.345-15.592c.495 0 .866.371.866.866s-.371.866-.866.866-.866-.371-.866-.866.371-.866.866-.866zM34.3 32.232h1.113v-11.88H34.3v11.88zm5.309-15.84h.989v3.959h2.723v1.115h-2.723v7.796c0 1.361.743 2.104 1.856 2.104.866 0 1.608-.372 1.608-.372v1.115s-.742.37-1.608.37c-1.856 0-2.97-1.113-2.97-3.218v-7.796h-2.35v-1.115h1.608c.494 0 .866-.37.866-.99v-2.97zm13.829 8.415c0-2.054-1.435-3.589-3.341-3.589-2.178 0-3.465 1.733-3.465 1.733l-.742-.742s1.533-2.104 4.207-2.104c2.549 0 4.456 2.054 4.456 4.703v7.425h-1.115v-1.98s-1.361 2.227-4.331 2.227c-2.35 0-3.96-1.608-3.96-3.341 0-1.856 1.36-3.242 3.589-3.589l4.702-.742zm0 2.228V25.92l-4.454.743c-1.857.297-2.724 1.237-2.724 2.475 0 1.114 1.113 2.228 2.846 2.228 2.476 0 4.331-1.856 4.331-4.331zm4.147 5.197h1.114V14.906h-1.114zm17.325.247c-4.85 0-8.787-3.959-8.787-8.91s3.961-8.91 8.787-8.91c4.875 0 8.787 3.96 8.787 8.91s-3.911 8.91-8.787 8.91m0-16.582c-4.208 0-7.549 3.341-7.549 7.672s3.341 7.673 7.549 7.673 7.549-3.342 7.549-7.673-3.341-7.672-7.549-7.672m12.575 21.533h-1.115V20.352h1.115v2.351s1.484-2.599 4.578-2.599c2.845 0 5.57 2.723 5.57 6.187s-2.725 6.187-5.57 6.187c-3.094 0-4.578-2.598-4.578-2.598v7.549zm4.578-6.064c2.228 0 4.455-2.227 4.455-5.074s-2.228-5.073-4.455-5.073c-2.35 0-4.578 2.227-4.578 5.073s2.228 5.074 4.578 5.074zm8.228-4.579c.123 2.475 2.228 4.579 4.702 4.579 2.599 0 3.96-2.08 3.96-2.08l.743.718s-1.609 2.475-4.702 2.475-5.817-2.723-5.817-6.187 2.723-6.187 5.693-6.187 5.445 2.475 5.445 6.187v.495H100.29zm0-1.113h8.91c-.124-2.599-1.98-4.456-4.332-4.456s-4.455 2.104-4.578 4.456zm18.122-4.455h-.495c-2.228 0-4.208 1.733-4.208 4.331v6.682h-1.114v-11.88h1.114v1.98s1.114-2.227 4.208-2.227h.495v1.114zm8.593 3.589c0-2.054-1.435-3.589-3.341-3.589-2.178 0-3.466 1.733-3.466 1.733l-.741-.742s1.533-2.104 4.207-2.104c2.549 0 4.455 2.054 4.455 4.703v7.425h-1.113v-1.98s-1.361 2.227-4.331 2.227c-2.35 0-3.961-1.608-3.961-3.341 0-1.856 1.361-3.242 3.59-3.589l4.702-.742zm0 2.228V25.92l-4.455.743c-1.857.297-2.723 1.237-2.723 2.475 0 1.114 1.113 2.228 2.846 2.228 2.475 0 4.331-1.856 4.331-4.331zm4.67-10.643h.99v3.959h2.722v1.115h-2.722v7.796c0 1.361.742 2.104 1.856 2.104.865 0 1.607-.372 1.607-.372v1.115s-.742.37-1.607.37c-1.856 0-2.971-1.113-2.971-3.218v-7.796h-2.35v-1.115h1.608c.494 0 .866-.37.866-.99v-2.97zm6.889-1.114c.495 0 .866.371.866.866s-.371.866-.866.866-.866-.371-.866-.866.371-.866.866-.866zm-.618 16.954h1.113v-11.88h-1.113v11.88zm9.324-12.127c3.219 0 5.941 2.723 5.941 6.188s-2.723 6.187-5.941 6.187-5.94-2.723-5.94-6.187 2.723-6.187 5.94-6.187m0 1.114c-2.597 0-4.826 2.228-4.826 5.074s2.229 5.074 4.826 5.074 4.826-2.228 4.826-5.074-2.228-5.074-4.826-5.074m9.387 1.237s1.113-2.351 4.084-2.351c2.722 0 4.826 2.104 4.826 5.074v7.054h-1.114v-7.054c0-2.351-1.607-3.96-3.712-3.96-2.228 0-4.084 1.856-4.084 4.33v6.683h-1.114v-11.88h1.114v2.103zm17.792.248s-.99-1.485-2.846-1.485c-1.733 0-2.723 1.015-2.723 2.103 0 2.846 6.807 1.485 6.807 5.569 0 1.98-1.61 3.589-4.208 3.589-2.723 0-4.208-1.981-4.208-1.981l.865-.865s1.238 1.732 3.343 1.732c1.98 0 3.094-1.114 3.094-2.475 0-2.97-6.807-1.608-6.807-5.569 0-1.608 1.607-3.217 3.836-3.217 2.351 0 3.713 1.732 3.713 1.732l-.866.866z" fill="#F4633A"/><path d="M34.139 7.765l3.537-3.456h-3.484V2.682h5.957v1.654l-3.537 3.443h3.603v1.627h-6.077V7.765zm-2.514-5.622h1.842V.47h-1.842v1.673zm-.025 7.283h1.843V2.702h-1.843v6.724zm-18.8.115c1.936 0 3.483-1.561 3.483-3.497S14.736 2.548 12.8 2.548s-3.482 1.56-3.482 3.496 1.547 3.497 3.482 3.497zm0-1.749c-.955 0-1.68-.793-1.68-1.748s.725-1.748 1.68-1.748c.941 0 1.695.793 1.695 1.748s-.753 1.748-1.695 1.748zm11.798-5.11h1.83v.753a2.31 2.31 0 0 1 1.855-.887c1.587 0 2.542 1.021 2.542 2.756v4.102h-1.87v-3.86c0-.901-.418-1.425-1.238-1.425-.698 0-1.278.484-1.278 1.613v3.672h-1.842V2.682zm18.966 6.859c.874 0 1.587-.364 2.03-.888v.753h1.843V2.682h-1.843v.659c-.444-.471-1.13-.793-2.005-.793-1.518 0-3.267 1.115-3.267 3.496 0 2.366 1.815 3.497 3.241 3.497zm.363-1.695a1.77 1.77 0 0 1-1.803-1.815 1.76 1.76 0 0 1 1.803-1.802c.996 0 1.72.807 1.72 1.802s-.725 1.815-1.72 1.815zm4.252-5.164h1.83v.753c.43-.552 1.09-.887 1.855-.887 1.587 0 2.542 1.021 2.542 2.756v4.102h-1.87v-3.86c0-.901-.416-1.425-1.237-1.425-.699 0-1.277.484-1.277 1.613v3.672h-1.844V2.682zM7.353 5.986l-.026.053C6.818 7.111 5.883 7.726 4.76 7.726c-1.627 0-2.901-1.286-2.901-2.928 0-1.683 1.263-2.954 2.939-2.954 1.088 0 1.913.509 2.454 1.513l.029.054 1.64-1.049-.027-.047C8.041.866 6.512 0 4.798 0 2.062 0 0 2.062 0 4.798c0 2.781 2.018 4.798 4.798 4.798 1.794 0 3.376-.995 4.236-2.661l.027-.049-1.708-.901zm12.636 3.555c.874 0 1.586-.364 2.03-.888v.633c0 .874-.632 1.654-1.627 1.654a1.97 1.97 0 0 1-1.868-1.143l-1.627.914c.538 1.049 1.788 1.937 3.495 1.937 2.273 0 3.47-1.533 3.47-3.429V2.682h-1.843v.727c-.444-.498-1.129-.861-2.003-.861-1.521 0-3.269 1.115-3.269 3.496 0 2.366 1.815 3.497 3.241 3.497zm.363-1.695c-1.022 0-1.801-.78-1.801-1.815s.779-1.802 1.801-1.802c.995 0 1.722.807 1.722 1.802s-.728 1.815-1.722 1.815zm38.592-3.51V2.682h-1.264V.464h-1.841v2.218h-1.143v1.654h1.143v2.152c0 2.193.698 2.918 2.837 2.918h.269V7.684c-1.129 0-1.264-.162-1.264-1.21V4.336h1.264z" fill="#0033A0"/></g></svg>