<svg xmlns="http://www.w3.org/2000/svg" width="176" height="38" viewBox="0 0 176 38">
  <g fill="#FFFFFF" fill-rule="evenodd">
    <path d="M5.07395 14.906925C10.2714 14.906925 14.1075 18.743025 14.1075 23.569025 14.1075 28.395975 10.2714 32.232075 5.07395 32.232075L-2.84217094e-14 32.232075-2.84217094e-14 14.906925 5.07395 14.906925zM1.23785 16.144775L1.23785 30.995175 5.07395 30.995175C9.65295 30.995175 12.8706 27.776575 12.8706 23.569025 12.8706 19.362425 9.65295 16.144775 5.07395 16.144775L1.23785 16.144775zM17.363625 15.277995C17.858575 15.277995 18.229075 15.649445 18.229075 16.144395 18.229075 16.639345 17.858575 17.010795 17.363625 17.010795 16.868675 17.010795 16.497225 16.639345 16.497225 16.144395 16.497225 15.649445 16.868675 15.277995 17.363625 15.277995zM16.744225 32.231695L17.857625 32.231695 17.857625 20.351945 16.744225 20.351945 16.744225 32.231695zM30.029975 29.508995C30.029975 29.508995 28.667675 31.984695 25.574475 31.984695 22.728275 31.984695 20.130025 29.385495 20.130025 26.044345 20.130025 22.703195 22.728275 20.103995 25.574475 20.103995 28.667675 20.103995 30.029975 22.578745 30.029975 22.578745L30.029975 20.351945 31.143375 20.351945 31.143375 31.488795C31.143375 34.830895 28.545125 37.429145 25.450975 37.429145 22.233325 37.429145 20.747525 34.954395 20.747525 34.954395L21.491375 34.211495C21.491375 34.211495 22.851775 36.315745 25.450975 36.315745 27.925725 36.315745 30.029975 34.211495 30.029975 31.488795L30.029975 29.508995zM25.574475 30.870345C27.801275 30.870345 30.029975 28.767045 30.029975 26.044345 30.029975 23.321645 27.801275 21.218345 25.574475 21.218345 23.347675 21.218345 21.243425 23.321645 21.243425 26.044345 21.243425 28.767045 23.347675 30.870345 25.574475 30.870345zM34.91915 15.277995C35.4141 15.277995 35.78555 15.649445 35.78555 16.144395 35.78555 16.639345 35.4141 17.010795 34.91915 17.010795 34.4242 17.010795 34.05275 16.639345 34.05275 16.144395 34.05275 15.649445 34.4242 15.277995 34.91915 15.277995zM34.29975 32.231695L35.41315 32.231695 35.41315 20.351945 34.29975 20.351945 34.29975 32.231695zM39.608825 16.391775L40.597775 16.391775 40.597775 20.351375 43.320475 20.351375 43.320475 21.465725 40.597775 21.465725 40.597775 29.261425C40.597775 30.622775 41.340675 31.365675 42.454075 31.365675 43.320475 31.365675 44.062425 30.994225 44.062425 30.994225L44.062425 32.108575C44.062425 32.108575 43.320475 32.479075 42.454075 32.479075 40.597775 32.479075 39.484375 31.365675 39.484375 29.261425L39.484375 21.465725 37.134075 21.465725 37.134075 20.351375 38.742425 20.351375C39.236425 20.351375 39.608825 19.980875 39.608825 19.361475L39.608825 16.391775zM53.43769 24.80678C53.43769 22.75288 52.00224 21.21768 50.09654 21.21768 47.91819 21.21768 46.63189 22.95048 46.63189 22.95048L45.88994 22.20853C45.88994 22.20853 47.42324 20.10428 50.09654 20.10428 52.64539 20.10428 54.55299 22.15818 54.55299 24.80678L54.55299 32.23198 53.43769 32.23198 53.43769 30.25218C53.43769 30.25218 52.07634 32.47898 49.10664 32.47898 46.75634 32.47898 45.14704 30.87063 45.14704 29.13783 45.14704 27.28153 46.50744 25.89548 48.73614 25.54873L53.43769 24.80678zM53.43769 27.03453L53.43769 25.92018 48.98409 26.66308C47.12684 26.96043 46.26044 27.89998 46.26044 29.13783 46.26044 30.25218 47.37384 31.36558 49.10664 31.36558 51.58234 31.36558 53.43769 29.50928 53.43769 27.03453z"/>
    <polygon points="57.584 32.232 58.699 32.232 58.699 14.907 57.584 14.907"/>
    <path d="M74.909115 32.479075C70.059365 32.479075 66.122565 28.519475 66.122565 23.569025 66.122565 18.618575 70.083115 14.658975 74.909115 14.658975 79.784515 14.658975 83.695665 18.618575 83.695665 23.569025 83.695665 28.519475 79.784515 32.479075 74.909115 32.479075M74.909115 15.896825C70.701565 15.896825 67.360415 19.237975 67.360415 23.569025 67.360415 27.900075 70.701565 31.242175 74.909115 31.242175 79.116665 31.242175 82.457815 27.900075 82.457815 23.569025 82.457815 19.237975 79.116665 15.896825 74.909115 15.896825M87.483695 37.429525L86.368395 37.429525 86.368395 20.352325 87.483695 20.352325 87.483695 22.703575C87.483695 22.703575 88.967595 20.104375 92.061745 20.104375 94.906995 20.104375 97.631595 22.827075 97.631595 26.291725 97.631595 29.757325 94.906995 32.479075 92.061745 32.479075 88.967595 32.479075 87.483695 29.880825 87.483695 29.880825L87.483695 37.429525zM92.061745 31.365675C94.289495 31.365675 96.517245 29.138875 96.517245 26.291725 96.517245 23.445525 94.289495 21.218725 92.061745 21.218725 89.711445 21.218725 87.483695 23.445525 87.483695 26.291725 87.483695 29.138875 89.711445 31.365675 92.061745 31.365675zM100.290075 26.78696C100.413575 29.26171 102.517825 31.36596 104.991625 31.36596 107.590825 31.36596 108.951225 29.28641 108.951225 29.28641L109.694125 30.00461C109.694125 30.00461 108.084825 32.47936 104.991625 32.47936 101.897475 32.47936 99.174775 29.75666 99.174775 26.29201 99.174775 22.82736 101.897475 20.10466 104.868125 20.10466 107.837825 20.10466 110.313525 22.57941 110.313525 26.29201L110.313525 26.78696 100.290075 26.78696zM100.290075 25.67356L109.200125 25.67356C109.075675 23.07436 107.220325 21.21806 104.868125 21.21806 102.517825 21.21806 100.413575 23.32231 100.290075 25.67356zM118.412465 21.21825L117.917515 21.21825C115.689765 21.21825 113.709965 22.95105 113.709965 25.5493L113.709965 32.2316 112.595615 32.2316 112.595615 20.35185 113.709965 20.35185 113.709965 22.33165C113.709965 22.33165 114.824315 20.10485 117.917515 20.10485L118.412465 20.10485 118.412465 21.21825zM127.00512 24.80678C127.00512 22.75288 125.56967 21.21768 123.66397 21.21768 121.48562 21.21768 120.19837 22.95048 120.19837 22.95048L119.45737 22.20853C119.45737 22.20853 120.99067 20.10428 123.66397 20.10428 126.21282 20.10428 128.11852 22.15818 128.11852 24.80678L128.11852 32.23198 127.00512 32.23198 127.00512 30.25218C127.00512 30.25218 125.64377 32.47898 122.67407 32.47898 120.32377 32.47898 118.71352 30.87063 118.71352 29.13783 118.71352 27.28153 120.07487 25.89548 122.30357 25.54873L127.00512 24.80678zM127.00512 27.03453L127.00512 25.92018 122.55057 26.66308C120.69332 26.96043 119.82787 27.89998 119.82787 29.13783 119.82787 30.25218 120.94127 31.36558 122.67407 31.36558 125.14882 31.36558 127.00512 29.50928 127.00512 27.03453zM131.675415 16.391775L132.665315 16.391775 132.665315 20.351375 135.387065 20.351375 135.387065 21.465725 132.665315 21.465725 132.665315 29.261425C132.665315 30.622775 133.407265 31.365675 134.521615 31.365675 135.387065 31.365675 136.129015 30.994225 136.129015 30.994225L136.129015 32.108575C136.129015 32.108575 135.387065 32.479075 134.521615 32.479075 132.665315 32.479075 131.550965 31.365675 131.550965 29.261425L131.550965 21.465725 129.200665 21.465725 129.200665 20.351375 130.809015 20.351375C131.303015 20.351375 131.675415 19.980875 131.675415 19.361475L131.675415 16.391775zM138.56472 15.277995C139.05967 15.277995 139.43112 15.649445 139.43112 16.144395 139.43112 16.639345 139.05967 17.010795 138.56472 17.010795 138.06977 17.010795 137.69832 16.639345 137.69832 16.144395 137.69832 15.649445 138.06977 15.277995 138.56472 15.277995zM137.94627 32.231695L139.05967 32.231695 139.05967 20.351945 137.94627 20.351945 137.94627 32.231695zM147.270615 20.104565C150.489215 20.104565 153.211915 22.827265 153.211915 26.291915 153.211915 29.756565 150.489215 32.479265 147.270615 32.479265 144.052965 32.479265 141.330265 29.756565 141.330265 26.291915 141.330265 22.827265 144.052965 20.104565 147.270615 20.104565M147.270615 21.217965C144.673315 21.217965 142.444615 23.445715 142.444615 26.291915 142.444615 29.138115 144.673315 31.365865 147.270615 31.365865 149.868865 31.365865 152.096615 29.138115 152.096615 26.291915 152.096615 23.445715 149.868865 21.217965 147.270615 21.217965M156.657375 22.455435C156.657375 22.455435 157.770775 20.104185 160.741425 20.104185 163.463175 20.104185 165.567425 22.208435 165.567425 25.178135L165.567425 32.231885 164.453075 32.231885 164.453075 25.178135C164.453075 22.826885 162.845675 21.218535 160.741425 21.218535 158.513675 21.218535 156.657375 23.074835 156.657375 25.548635L156.657375 32.231885 155.543025 32.231885 155.543025 20.352135 156.657375 20.352135 156.657375 22.455435zM174.44945 22.7031C174.44945 22.7031 173.45955 21.21825 171.60325 21.21825 169.87045 21.21825 168.88055 22.23285 168.88055 23.32155 168.88055 26.16775 175.6873 24.8064 175.6873 28.89045 175.6873 30.87025 174.07705 32.47955 171.47975 32.47955 168.75705 32.47955 167.27125 30.4988 167.27125 30.4988L168.1367 29.63335C168.1367 29.63335 169.37455 31.3652 171.47975 31.3652 173.45955 31.3652 174.5739 30.2518 174.5739 28.89045 174.5739 25.92075 167.76715 27.2821 167.76715 23.32155 167.76715 21.7132 169.37455 20.10485 171.60325 20.10485 173.9545 20.10485 175.31585 21.8367 175.31585 21.8367L174.44945 22.7031zM34.138915 7.765205L37.675765 4.309105 34.192115 4.309105 34.192115 2.681755 40.149565 2.681755 40.149565 4.335705 36.612715 7.778505 40.216065 7.778505 40.216065 9.405855 34.138915 9.405855 34.138915 7.765205zM31.625215 2.143105L33.467265 2.143105 33.467265.470155 31.625215.470155 31.625215 2.143105zM31.600515 9.425805L33.443515 9.425805 33.443515 2.701705 31.600515 2.701705 31.600515 9.425805zM12.800015 9.540755C14.736115 9.540755 16.282715 7.979905 16.282715 6.043805 16.282715 4.107705 14.736115 2.547805 12.800015 2.547805 10.864865 2.547805 9.318265 4.107705 9.318265 6.043805 9.318265 7.979905 10.864865 9.540755 12.800015 9.540755zM12.800015 7.791805C11.845265 7.791805 11.120415 6.998555 11.120415 6.043805 11.120415 5.089055 11.845265 4.295805 12.800015 4.295805 13.741465 4.295805 14.494815 5.089055 14.494815 6.043805 14.494815 6.998555 13.741465 7.791805 12.800015 7.791805zM24.598065 2.681755L26.427765 2.681755 26.427765 3.435105C26.858115 2.883155 27.515515 2.547805 28.283115 2.547805 29.870565 2.547805 30.825315 3.569055 30.825315 5.303755L30.825315 9.405855 28.955715 9.405855 28.955715 5.546005C28.955715 4.645405 28.537715 4.121005 27.717865 4.121005 27.019615 4.121005 26.440115 4.604555 26.440115 5.734105L26.440115 9.405855 24.598065 9.405855 24.598065 2.681755zM43.563865 9.540755C44.437865 9.540755 45.150365 9.176905 45.594015 8.652505L45.594015 9.405855 47.437015 9.405855 47.437015 2.681755 45.594015 2.681755 45.594015 3.341055C45.150365 2.869855 44.463515 2.547805 43.589515 2.547805 42.071415 2.547805 40.322465 3.663105 40.322465 6.043805 40.322465 8.410255 42.137915 9.540755 43.563865 9.540755zM43.926765 7.845955C42.904565 7.845955 42.123665 7.066005 42.123665 6.030505 42.123665 4.995005 42.904565 4.228355 43.926765 4.228355 44.922365 4.228355 45.647215 5.034905 45.647215 6.030505 45.647215 7.025155 44.922365 7.845955 43.926765 7.845955zM48.178965 2.681755L50.008665 2.681755 50.008665 3.435105C50.439015 2.883155 51.098315 2.547805 51.864015 2.547805 53.450515 2.547805 54.406215 3.569055 54.406215 5.303755L54.406215 9.405855 52.536615 9.405855 52.536615 5.546005C52.536615 4.645405 52.120515 4.121005 51.299715 4.121005 50.600515 4.121005 50.022915 4.604555 50.022915 5.734105L50.022915 9.405855 48.178965 9.405855 48.178965 2.681755zM7.352715 5.985855L7.327065 6.039055C6.817865 7.110655 5.883065 7.726255 4.760165 7.726255 3.132815 7.726255 1.858865 6.439955 1.858865 4.798355 1.858865 3.114955 3.122365 1.844805 4.798165 1.844805 5.885915 1.844805 6.711465 2.354005 7.252015 3.358155L7.281465 3.412305 8.921165 2.363505 8.894565 2.316955C8.041465.866305 6.511965-.000095 4.798165-.000095 2.062165-.000095-.000285 2.062355-.000285 4.798355-.000285 7.579005 2.017515 9.596805 4.798165 9.596805 6.591765 9.596805 8.174465 8.602155 9.034215 6.935855L9.060815 6.886455 7.352715 5.985855zM19.988665 9.540755C20.862665 9.540755 21.575165 9.176905 22.018815 8.652505L22.018815 9.285205C22.018815 10.159205 21.387065 10.939155 20.391465 10.939155 19.491815 10.939155 18.873365 10.495505 18.523765 9.796305L16.896415 10.710205C17.434115 11.759005 18.684315 12.647255 20.391465 12.647255 22.664815 12.647255 23.861815 11.113955 23.861815 9.217755L23.861815 2.681755 22.018815 2.681755 22.018815 3.408505C21.575165 2.910705 20.890215 2.547805 20.016215 2.547805 18.495265 2.547805 16.747265 3.663105 16.747265 6.043805 16.747265 8.410255 18.562715 9.540755 19.988665 9.540755zM20.351565 7.845955C19.329365 7.845955 18.550365 7.066005 18.550365 6.030505 18.550365 4.995005 19.329365 4.228355 20.351565 4.228355 21.346215 4.228355 22.073915 5.034905 22.073915 6.030505 22.073915 7.025155 21.346215 7.845955 20.351565 7.845955zM58.943415 4.335705L58.943415 2.681755 57.678965 2.681755 57.678965.463505 55.837865.463505 55.837865 2.681755 54.695015 2.681755 54.695015 4.335705 55.837865 4.335705 55.837865 6.487455C55.837865 8.680055 56.536115 9.405855 58.674565 9.405855L58.943415 9.405855 58.943415 7.684455C57.814815 7.684455 57.678965 7.522955 57.678965 6.474155L57.678965 4.335705 58.943415 4.335705z"/>
  </g>
</svg>
