<svg xmlns="http://www.w3.org/2000/svg" xmlns:xlink="http://www.w3.org/1999/xlink" width="144" height="37.02148" viewBox="0 0 144 37.02148"><defs><style>.cls-1{fill:#101443;}.cls-1,.cls-2,.cls-3,.cls-4,.cls-5{fill-rule:evenodd;}.cls-2{fill:url(#linear-gradient);}.cls-3{fill:url(#linear-gradient-2);}.cls-4{fill:url(#linear-gradient-3);}.cls-5{fill:url(#linear-gradient-4);}</style><linearGradient id="linear-gradient" x1="-231.41511" y1="540.57441" x2="-229.45555" y2="540.57441" gradientTransform="matrix(13.36895, 0, 0, -9.44641, 3093.77803, 5134.25557)" gradientUnits="userSpaceOnUse"><stop offset="0" stop-color="#4c5ca3"/><stop offset="1" stop-color="#68bfc9"/></linearGradient><linearGradient id="linear-gradient-2" x1="-230.39906" y1="540.57441" x2="-228.4395" y2="540.57441" gradientTransform="matrix(15.83641, 0, 0, -9.44641, 3661.55771, 5134.25557)" gradientUnits="userSpaceOnUse"><stop offset="0" stop-color="#24467a"/><stop offset="1" stop-color="#479699"/></linearGradient><linearGradient id="linear-gradient-3" x1="-231.41191" y1="541.53398" x2="-229.45235" y2="541.53398" gradientTransform="matrix(13.37975, 0, 0, -9.44638, 3096.23286, 5124.79028)" gradientUnits="userSpaceOnUse"><stop offset="0" stop-color="#292d77"/><stop offset="1" stop-color="#4c97aa"/></linearGradient><linearGradient id="linear-gradient-4" x1="-230.39906" y1="541.53398" x2="-228.4395" y2="541.53398" gradientTransform="matrix(15.83641, 0, 0, -9.44638, 3661.55771, 5124.79028)" gradientUnits="userSpaceOnUse"><stop offset="0" stop-color="#4b63a8"/><stop offset="1" stop-color="#a6d6de"/></linearGradient></defs><g id="Layer_2" data-name="Layer 2"><g id="Layer_1-2" data-name="Layer 1"><path class="cls-1" d="M143.05331,22.23266a1.89613,1.89613,0,0,1-1.89484-1.89484v-5.683H144V12.76h-2.84153V9.66026h-1.89484V20.33782a3.788,3.788,0,0,0,3.78823,3.78823H144V22.23121h-.94814Zm-89.114-9.72522a5.93417,5.93417,0,0,1,5.68017,4.22279h-2.0218a4.03651,4.03651,0,1,0,0,3.41711h2.0218a5.93144,5.93144,0,1,1-5.68017-7.6399Zm46.20349-3.846a1.25781,1.25781,0,1,1-1.25711,1.2585A1.25785,1.25785,0,0,1,100.14278,8.66141ZM85.15356,23.69713a6.06731,6.06731,0,0,1-5.93134,5.93135,5.74173,5.74173,0,0,1-5.64917-4.11132H75.609a3.81593,3.81593,0,0,0,3.61325,2.21648,4.17732,4.17732,0,0,0,4.03651-4.03651v-.91424a5.93135,5.93135,0,1,1,0-8.691V12.75861h1.89483V23.69713Zm-5.93134-9.29486a4.03651,4.03651,0,1,1-4.03651,4.03651A4.03669,4.03669,0,0,1,79.22222,14.40227Zm58.44287,3.31557a5.21064,5.21064,0,0,0-8.526-4.01963v-.9354h-1.89483V24.12605h1.89483V17.71639a3.31557,3.31557,0,0,1,6.63114,0v6.40966h1.89483V17.71784Zm-71.21836-5.2104a5.93135,5.93135,0,1,1-5.93135,5.93134A5.931,5.931,0,0,1,66.44673,12.50744Zm0,1.89483a4.03651,4.03651,0,1,1-4.03651,4.03651A4.03669,4.03669,0,0,1,66.44673,14.40227Zm31.01958,3.31557a5.21064,5.21064,0,0,0-8.526-4.01963V12.76H87.04551V24.12605h1.89483V17.71639a3.31557,3.31557,0,0,1,6.63114,0v6.40966h1.89483V17.71784Zm3.62172,6.40965H99.1932V12.76144H101.088Zm11.38438,0V22.23266h-7.0205l7.0163-7.575.0042-1.89484h-9.47266v1.89484h7.0163l-7.0163,7.575v1.89483Zm6.94721-11.61861a5.91171,5.91171,0,0,1,4.03651,1.58587V12.76426H125.351V24.12749h-1.89483V22.78433a5.9312,5.9312,0,1,1-4.03651-10.27682Zm0,1.89484a4.03651,4.03651,0,1,1-4.03651,4.03651A4.03669,4.03669,0,0,1,119.41962,14.40372Z"/><polygon class="cls-2" points="18.724 18.511 0 18.511 12.863 37.021 26.197 29.056 18.724 18.511"/><polygon class="cls-3" points="43.895 18.511 12.863 37.021 31.281 37.021 43.895 18.511"/><polygon class="cls-4" points="0 18.511 18.724 18.511 26.218 7.967 12.863 0 0 18.511"/><polygon class="cls-5" points="43.895 18.511 12.863 0 31.281 0 43.895 18.511"/></g></g></svg>