<?xml version="1.0" encoding="utf-8"?>
<!-- Generator: Adobe Illustrator 26.0.3, SVG Export Plug-In . SVG Version: 6.00 Build 0)  -->
<svg version="1.1" id="Layer_1" xmlns="http://www.w3.org/2000/svg" xmlns:xlink="http://www.w3.org/1999/xlink" x="0px" y="0px"
	 viewBox="0 0 245.8 44" style="enable-background:new 0 0 245.8 44;" xml:space="preserve">
<style type="text/css">
	.st0{clip-path:url(#SVGID_00000105408396914772983280000008044515512860629156_);}
	.st1{clip-path:url(#SVGID_00000183928668270810957220000013247830396049776047_);}
	.st2{fill:#000048;}
	.st3{clip-path:url(#SVGID_00000122688333660442536630000010818087124628821157_);}
	.st4{clip-path:url(#SVGID_00000013912409055216950460000011693264184158501781_);}
	.st5{fill:url(#SVGID_00000098209886953447311090000009432679824063849865_);}
	.st6{clip-path:url(#SVGID_00000034091547983724538760000014125007647511082656_);}
	.st7{fill:url(#SVGID_00000134932592948617699880000001326110473873176999_);}
	.st8{clip-path:url(#SVGID_00000118379413916461216090000011668811734519777173_);}
	.st9{fill:url(#SVGID_00000006684326565642477220000007860513195496860840_);}
	.st10{clip-path:url(#SVGID_00000119093437264038493910000009099657424111878818_);}
	.st11{fill:url(#SVGID_00000042696020570124275700000011281622260395871885_);}
</style>
<g>
	<g>
		<defs>
			<rect id="SVGID_1_" x="59.2" y="2.7" width="186.7" height="40.8"/>
		</defs>
		<clipPath id="SVGID_00000127012036145008233160000001695259364950843821_">
			<use xlink:href="#SVGID_1_"  style="overflow:visible;"/>
		</clipPath>
		<g style="clip-path:url(#SVGID_00000127012036145008233160000001695259364950843821_);">
			<g>
				<defs>
					<rect id="SVGID_00000170270455349886588150000003192033147480456075_" x="59.2" y="2.7" width="186.7" height="40.8"/>
				</defs>
				<clipPath id="SVGID_00000034067840273054451910000013916040066528049284_">
					<use xlink:href="#SVGID_00000170270455349886588150000003192033147480456075_"  style="overflow:visible;"/>
				</clipPath>
				<g style="clip-path:url(#SVGID_00000034067840273054451910000013916040066528049284_);">
					<path class="st2" d="M158.7,10.7h3.7v22.1h-3.7V10.7z M145.2,10.2c-2.4,0-4.6,0.8-6.4,2.3v-1.8h-3.7v22.1h3.7V20.3
						c0-3.6,2.9-6.4,6.4-6.4s6.4,2.9,6.4,6.4v12.5h3.7V20.3C155.3,14.7,150.8,10.2,145.2,10.2C145.2,10.2,145.2,10.2,145.2,10.2
						 M127.7,10.6h3.7v21.3c-0.1,6.3-5.2,11.4-11.5,11.5c-5,0.1-9.6-3.2-11-8h4c1.3,2.7,4,4.4,7,4.3c4.3-0.1,7.7-3.6,7.9-7.9v-1.8
						c-4.7,4.3-12,4.1-16.3-0.6c-4.3-4.7-4.1-12,0.6-16.3c4.4-4.1,11.3-4.1,15.7,0L127.7,10.6z M127.7,21.7c0-4.3-3.5-7.9-7.8-7.9
						c-4.3,0-7.9,3.5-7.9,7.8s3.5,7.9,7.9,7.9l0,0C124.2,29.5,127.7,26,127.7,21.7 M70.7,13.8c3,0,5.8,1.8,7.1,4.5h3.9
						c-1.8-6.1-8.3-9.6-14.4-7.7c-6.1,1.8-9.6,8.3-7.7,14.4s8.3,9.6,14.4,7.7c3.7-1.1,6.6-4,7.7-7.7h-3.9c-1.8,3.9-6.5,5.6-10.4,3.8
						c-3.9-1.8-5.6-6.5-3.8-10.4C64.9,15.6,67.6,13.8,70.7,13.8 M106.6,21.7c0,6.4-5.2,11.5-11.5,11.5c-6.4,0-11.5-5.2-11.5-11.5
						S88.6,10.2,95,10.2C101.4,10.2,106.6,15.3,106.6,21.7C106.6,21.7,106.6,21.7,106.6,21.7 M102.9,21.7c0-4.3-3.5-7.9-7.8-7.9
						s-7.9,3.5-7.9,7.8c0,4.3,3.5,7.9,7.8,7.9c0,0,0,0,0,0C99.4,29.5,102.9,26,102.9,21.7 M223.4,10.2c-2.4,0-4.6,0.8-6.4,2.3v-1.8
						h-3.7v22.1h3.7V20.3c0-3.6,2.9-6.5,6.4-6.5c3.6,0,6.5,2.9,6.5,6.4c0,0,0,0,0,0v12.5h3.7V20.3C233.5,14.7,229,10.2,223.4,10.2
						C223.4,10.2,223.4,10.2,223.4,10.2 M205.9,10.7h3.7v22.1h-3.7v-2.6c-4.7,4.3-12,4.1-16.3-0.6c-4.3-4.7-4.1-12,0.6-16.3
						c2.1-2,4.9-3.1,7.8-3.1v0c2.9,0,5.7,1.1,7.9,3.1V10.7z M205.9,21.7c0-4.3-3.5-7.8-7.9-7.8c-4.3,0-7.8,3.5-7.8,7.9
						c0,4.3,3.5,7.8,7.8,7.8C202.4,29.5,205.9,26,205.9,21.7 M245.8,14.3v-3.7h-5.5v-6h-3.7v20.8c0,4.1,3.3,7.4,7.4,7.4c0,0,0,0,0,0
						h1.8v-3.7H244l0,0c-2,0-3.7-1.7-3.7-3.7V14.3H245.8z M160.5,2.7c-1.4,0-2.4,1.1-2.4,2.4c0,1.4,1.1,2.4,2.4,2.4
						c1.4,0,2.4-1.1,2.4-2.4C163,3.8,161.9,2.7,160.5,2.7C160.6,2.7,160.6,2.7,160.5,2.7 M184.5,10.7h-18.4v3.7h13.6l-13.6,14.7v3.7
						h18.4v-3.7h-13.7l13.6-14.7L184.5,10.7z"/>
				</g>
			</g>
		</g>
	</g>
	<g>
		<defs>
			<rect id="SVGID_00000085213138245146219190000008599264730915323836_" y="0" width="52.1" height="44"/>
		</defs>
		<clipPath id="SVGID_00000023275576737302775000000017739223560985338244_">
			<use xlink:href="#SVGID_00000085213138245146219190000008599264730915323836_"  style="overflow:visible;"/>
		</clipPath>
		<g style="clip-path:url(#SVGID_00000023275576737302775000000017739223560985338244_);">
			<g>
				<defs>
					<polygon id="SVGID_00000050660665550895142240000014880732468509939883_" points="0,22 15.3,44 31.1,34.5 22.2,22 					"/>
				</defs>
				<clipPath id="SVGID_00000135667248469030152890000000337272502332585655_">
					<use xlink:href="#SVGID_00000050660665550895142240000014880732468509939883_"  style="overflow:visible;"/>
				</clipPath>
				<g style="clip-path:url(#SVGID_00000135667248469030152890000000337272502332585655_);">
					
						<linearGradient id="SVGID_00000182500455220199611780000011285939690309641648_" gradientUnits="userSpaceOnUse" x1="-391.0388" y1="277.8148" x2="-390.0387" y2="277.8148" gradientTransform="matrix(31.1065 0 0 -21.9795 12163.8623 6139.2104)">
						<stop  offset="0" style="stop-color:#3D54CE"/>
						<stop  offset="1" style="stop-color:#35CACF"/>
					</linearGradient>
					<rect y="22" style="fill:url(#SVGID_00000182500455220199611780000011285939690309641648_);" width="31.1" height="22"/>
				</g>
			</g>
			<g>
				<defs>
					<polygon id="SVGID_00000114070949333990582630000017270483092055787688_" points="15.3,44 37.1,44 52.1,22 					"/>
				</defs>
				<clipPath id="SVGID_00000092426726985261628360000008018755475207643524_">
					<use xlink:href="#SVGID_00000114070949333990582630000017270483092055787688_"  style="overflow:visible;"/>
				</clipPath>
				<g style="clip-path:url(#SVGID_00000092426726985261628360000008018755475207643524_);">
					
						<linearGradient id="SVGID_00000029744234580894563620000004719264263002787256_" gradientUnits="userSpaceOnUse" x1="-393.0624" y1="277.8148" x2="-392.0624" y2="277.8148" gradientTransform="matrix(36.8476 0 0 -21.9795 14498.6836 6139.2104)">
						<stop  offset="0" style="stop-color:#13457D"/>
						<stop  offset="1" style="stop-color:#279698"/>
					</linearGradient>
					
						<rect x="15.3" y="22" style="fill:url(#SVGID_00000029744234580894563620000004719264263002787256_);" width="36.8" height="22"/>
				</g>
			</g>
			<g>
				<defs>
					<polygon id="SVGID_00000124156495544010432790000012960116144518489730_" points="15.3,0 0,22 22.2,22 31.1,9.5 					"/>
				</defs>
				<clipPath id="SVGID_00000029046943914045948290000010502153975593422010_">
					<use xlink:href="#SVGID_00000124156495544010432790000012960116144518489730_"  style="overflow:visible;"/>
				</clipPath>
				<g style="clip-path:url(#SVGID_00000029046943914045948290000010502153975593422010_);">
					
						<linearGradient id="SVGID_00000031913817338843176650000007177461719868006072_" gradientUnits="userSpaceOnUse" x1="-391.0492" y1="277.8148" x2="-390.0492" y2="277.8148" gradientTransform="matrix(31.1316 0 0 -21.9796 12173.9756 6117.2461)">
						<stop  offset="0" style="stop-color:#090086"/>
						<stop  offset="1" style="stop-color:#2F96A9"/>
					</linearGradient>
					<rect y="0" style="fill:url(#SVGID_00000031913817338843176650000007177461719868006072_);" width="31.1" height="22"/>
				</g>
			</g>
			<g>
				<defs>
					<polygon id="SVGID_00000147909067435365521700000017294411540867699616_" points="15.3,0 52.1,22 37.1,0 					"/>
				</defs>
				<clipPath id="SVGID_00000078011445600416747300000013195656224370321068_">
					<use xlink:href="#SVGID_00000147909067435365521700000017294411540867699616_"  style="overflow:visible;"/>
				</clipPath>
				<g style="clip-path:url(#SVGID_00000078011445600416747300000013195656224370321068_);">
					
						<linearGradient id="SVGID_00000128475501832932076910000005979470219009375159_" gradientUnits="userSpaceOnUse" x1="-393.0624" y1="277.8148" x2="-392.0624" y2="277.8148" gradientTransform="matrix(36.8476 0 0 -21.9796 14498.6836 6117.2461)">
						<stop  offset="0" style="stop-color:#3B62CA"/>
						<stop  offset="1" style="stop-color:#93DFE3"/>
					</linearGradient>
					
						<rect x="15.3" y="0" style="fill:url(#SVGID_00000128475501832932076910000005979470219009375159_);" width="36.8" height="22"/>
				</g>
			</g>
		</g>
	</g>
</g>
</svg>
