<svg xmlns="http://www.w3.org/2000/svg" xmlns:xlink="http://www.w3.org/1999/xlink" width="149" height="38" viewBox="0 0 149 38">
  <defs>
    <polygon id="a" points="0 .927 57.506 .927 57.506 13.266 0 13.266"/>
  </defs>
  <g fill="none" fill-rule="evenodd">
    <path fill="#FFFFFF" d="M5.09394634 15.470078C10.1646293 15.470078 13.9071659 19.2126146 13.9071659 23.9209073 13.9071659 28.6292 10.1646293 32.3717366 5.09394634 32.3717366L.14375122 32.3717366.14375122 15.470078 5.09394634 15.470078zM1.35140976 16.6768098L1.35140976 31.1650049 5.09394634 31.1650049C9.56126341 31.1650049 12.7004341 28.0258341 12.7004341 23.9209073 12.7004341 19.8159805 9.56126341 16.6768098 5.09394634 16.6768098L1.35140976 16.6768098zM17.0834098 15.8321902C17.5662878 15.8321902 17.928678 16.1945805 17.928678 16.6774585 17.928678 17.1603366 17.5662878 17.5218 17.0834098 17.5218 16.6005317 17.5218 16.2381415 17.1603366 16.2381415 16.6774585 16.2381415 16.1945805 16.6005317 15.8321902 17.0834098 15.8321902zM16.4800439 32.3723854L17.5662878 32.3723854 17.5662878 20.7823854 16.4800439 20.7823854 16.4800439 32.3723854zM29.440361 29.716C29.440361 29.716 28.1131415 32.1303902 25.0944585 32.1303902 22.317678 32.1303902 19.7818732 29.5955122 19.7818732 26.3349268 19.7818732 23.0761951 22.317678 20.5403902 25.0944585 20.5403902 28.1131415 20.5403902 29.440361 22.9547805 29.440361 22.9547805L29.440361 20.7822927 30.5266049 20.7822927 30.5266049 31.6475122C30.5266049 34.9071707 27.9917268 37.4429756 24.9739707 37.4429756 21.8348 37.4429756 20.3861659 35.0276585 20.3861659 35.0276585L21.1100195 34.3038049C21.1100195 34.3038049 22.4381659 36.3558049 24.9739707 36.3558049 27.388361 36.3558049 29.440361 34.3038049 29.440361 31.6475122L29.440361 29.716zM25.0944585 31.0441463C27.2678732 31.0441463 29.440361 28.9912195 29.440361 26.3349268 29.440361 23.679561 27.2678732 21.6266341 25.0944585 21.6266341 22.9210439 21.6266341 20.8681171 23.679561 20.8681171 26.3349268 20.8681171 28.9912195 22.9210439 31.0441463 25.0944585 31.0441463zM34.2102878 15.8321902C34.6931659 15.8321902 35.0555561 16.1945805 35.0555561 16.6774585 35.0555561 17.1603366 34.6931659 17.5218 34.2102878 17.5218 33.7274098 17.5218 33.3650195 17.1603366 33.3650195 16.6774585 33.3650195 16.1945805 33.7274098 15.8321902 34.2102878 15.8321902zM33.606922 32.3723854L34.6931659 32.3723854 34.6931659 20.7823854 33.606922 20.7823854 33.606922 32.3723854zM38.7852098 16.9187122L39.7509659 16.9187122 39.7509659 20.7817366 42.4072585 20.7817366 42.4072585 21.8689073 39.7509659 21.8689073 39.7509659 29.4744683C39.7509659 30.8026146 40.4757463 31.5264683 41.5619902 31.5264683 42.4072585 31.5264683 43.1311122 31.1650049 43.1311122 31.1650049L43.1311122 32.2512488C43.1311122 32.2512488 42.4072585 32.613639 41.5619902 32.613639 39.7509659 32.613639 38.664722 31.5264683 38.664722 29.4744683L38.664722 21.8689073 36.3708195 21.8689073 36.3708195 20.7817366 37.9399415 20.7817366C38.4228195 20.7817366 38.7852098 20.4193463 38.7852098 19.8159805L38.7852098 16.9187122zM52.2771561 25.1280098C52.2771561 23.1242049 50.8767171 21.6273756 49.0174976 21.6273756 46.8932049 21.6273756 45.6373512 23.3169854 45.6373512 23.3169854L44.9125707 22.5931317C44.9125707 22.5931317 46.4103268 20.5402049 49.0174976 20.5402049 51.5041805 20.5402049 53.3643268 22.5440098 53.3643268 25.1280098L53.3643268 32.3721073 52.2771561 32.3721073 52.2771561 30.4396683C52.2771561 30.4396683 50.9490098 32.6130829 48.0517415 32.6130829 45.757839 32.6130829 44.1887171 31.043961 44.1887171 29.3534244 44.1887171 27.5424 45.5159366 26.1901561 47.6893512 25.8527902L52.2771561 25.1280098zM52.2771561 27.3004976L52.2771561 26.2142537 47.9312537 26.9390341C46.1202293 27.2291317 45.274961 28.1457659 45.274961 29.3534244 45.274961 30.4396683 46.3612049 31.526839 48.0517415 31.526839 50.4661317 31.526839 52.2771561 29.7158146 52.2771561 27.3004976z"/>
    <polygon fill="#FFFFFF" points="56.322 32.372 57.41 32.372 57.41 15.471 56.322 15.471"/>
    <path fill="#FFFFFF" d="M77.5703268 27.6632585C77.5703268 30.3195512 75.5183268 32.3715512 72.3791561 32.3715512L65.859839 32.3715512 65.859839 15.4698927 72.1372537 15.4698927C74.9140341 15.4698927 76.7250585 17.2809171 76.7250585 19.6953073 76.7250585 22.4720878 74.5525707 23.3182829 74.5525707 23.3182829 74.5525707 23.3182829 77.5703268 24.284039 77.5703268 27.6632585zM67.0665707 16.6766244L67.0665707 22.834478 72.1372537 22.834478C74.3106683 22.834478 75.5183268 21.6268195 75.5183268 19.6953073 75.5183268 17.8842829 74.3106683 16.6766244 72.1372537 16.6766244L67.0665707 16.6766244zM72.3791561 31.1648195C74.9140341 31.1648195 76.3626683 29.7161854 76.3626683 27.6632585 76.3626683 25.4907707 74.9140341 24.0412098 72.3791561 24.0412098L67.0665707 24.0412098 67.0665707 31.1648195 72.3791561 31.1648195zM88.8642976 30.3197366C88.8642976 30.3197366 87.7780537 32.613639 84.8807854 32.613639 82.2244927 32.613639 80.1715659 30.5607122 80.1715659 27.6634439L80.1715659 20.7817366 81.2587366 20.7817366 81.2587366 27.6634439C81.2587366 29.9573463 82.8278585 31.5264683 84.8807854 31.5264683 87.0532732 31.5264683 88.8642976 29.7163707 88.8642976 27.3010537L88.8642976 20.7817366 89.9505415 20.7817366 89.9505415 32.3717366 88.8642976 32.3717366 88.8642976 30.3197366zM98.8494 23.0761951C98.8494 23.0761951 97.8836439 21.627561 96.0726195 21.627561 94.3820829 21.627561 93.4163268 22.6174146 93.4163268 23.679561 93.4163268 26.4563415 100.057059 25.1281951 100.057059 29.1126341 100.057059 31.0441463 98.4870098 32.6141951 95.9521317 32.6141951 93.295839 32.6141951 91.8472049 30.6826829 91.8472049 30.6826829L92.6924732 29.8374146C92.6924732 29.8374146 93.8992049 31.5270244 95.9521317 31.5270244 97.8836439 31.5270244 98.9698878 30.4407805 98.9698878 29.1126341 98.9698878 26.2153659 92.3300829 27.5435122 92.3300829 23.679561 92.3300829 22.110439 93.8992049 20.5403902 96.0726195 20.5403902 98.366522 20.5403902 99.6946683 22.2309268 99.6946683 22.2309268L98.8494 23.0761951zM102.808351 15.8321902C103.291229 15.8321902 103.652693 16.1945805 103.652693 16.6774585 103.652693 17.1603366 103.291229 17.5218 102.808351 17.5218 102.325473 17.5218 101.963083 17.1603366 101.963083 16.6774585 101.963083 16.1945805 102.325473 15.8321902 102.808351 15.8321902zM102.204059 32.3723854L103.290302 32.3723854 103.290302 20.7823854 102.204059 20.7823854 102.204059 32.3723854zM107.480034 22.834478C107.480034 22.834478 108.567205 20.5405756 111.464473 20.5405756 114.119839 20.5405756 116.172766 22.5935024 116.172766 25.4907707L116.172766 32.372478 115.086522 32.372478 115.086522 25.4907707C115.086522 23.1968683 113.516473 21.6277463 111.464473 21.6277463 109.291059 21.6277463 107.480034 23.4378439 107.480034 25.853161L107.480034 32.372478 106.39379 32.372478 106.39379 20.782478 107.480034 20.782478 107.480034 22.834478zM119.365971 27.0599854C119.486459 29.4743756 121.539385 31.5273024 123.953776 31.5273024 126.488654 31.5273024 127.8168 29.4984732 127.8168 29.4984732L128.54158 30.1991561C128.54158 30.1991561 126.971532 32.6135463 123.953776 32.6135463 120.935093 32.6135463 118.2788 29.9572537 118.2788 26.5771073 118.2788 23.196961 120.935093 20.5406683 123.833288 20.5406683 126.730556 20.5406683 129.144946 22.9550585 129.144946 26.5771073L129.144946 27.0599854 119.365971 27.0599854zM119.365971 25.9737415L128.058702 25.9737415C127.937288 23.4379366 126.12719 21.6269122 123.833288 21.6269122 121.539385 21.6269122 119.486459 23.679839 119.365971 25.9737415zM137.152659 23.0761951C137.152659 23.0761951 136.186902 21.627561 134.375878 21.627561 132.685341 21.627561 131.719585 22.6174146 131.719585 23.679561 131.719585 26.4563415 138.360317 25.1281951 138.360317 29.1126341 138.360317 31.0441463 136.790268 32.6141951 134.25539 32.6141951 131.599098 32.6141951 130.150463 30.6826829 130.150463 30.6826829L130.995732 29.8374146C130.995732 29.8374146 132.202463 31.5270244 134.25539 31.5270244 136.186902 31.5270244 137.273146 30.4407805 137.273146 29.1126341 137.273146 26.2153659 130.633341 27.5435122 130.633341 23.679561 130.633341 22.110439 132.202463 20.5403902 134.375878 20.5403902 136.66978 20.5403902 137.997927 22.2309268 137.997927 22.2309268L137.152659 23.0761951zM146.606966 23.0761951C146.606966 23.0761951 145.64121 21.627561 143.830185 21.627561 142.140576 21.627561 141.173893 22.6174146 141.173893 23.679561 141.173893 26.4563415 147.814624 25.1281951 147.814624 29.1126341 147.814624 31.0441463 146.244576 32.6141951 143.709698 32.6141951 141.053405 32.6141951 139.604771 30.6826829 139.604771 30.6826829L140.450039 29.8374146C140.450039 29.8374146 141.656771 31.5270244 143.709698 31.5270244 145.64121 31.5270244 146.727454 30.4407805 146.727454 29.1126341 146.727454 26.2153659 140.087649 27.5435122 140.087649 23.679561 140.087649 22.110439 141.656771 20.5403902 143.830185 20.5403902 146.124088 20.5403902 147.452234 22.2309268 147.452234 22.2309268L146.606966 23.0761951z"/>
    <mask id="b" fill="white">
      <use xlink:href="#a"/>
    </mask>
    <path fill="#FFFFFF" d="M33.3057024,8.50263902 L36.7562878,5.13083415 L33.3576049,5.13083415 L33.3576049,3.54317561 L39.1697512,3.54317561 L39.1697512,5.15678537 L35.7191659,8.51561463 L39.2355561,8.51561463 L39.2355561,10.1032732 L33.3057024,10.1032732 L33.3057024,8.50263902 Z M30.854239,3.01766341 L32.651361,3.01766341 L32.651361,1.38551707 L30.854239,1.38551707 L30.854239,3.01766341 Z M30.8301415,10.1227366 L32.6272634,10.1227366 L32.6272634,3.56263902 L30.8301415,3.56263902 L30.8301415,10.1227366 Z M12.4881902,10.2348829 C14.3770683,10.2348829 15.8859463,8.71210244 15.8859463,6.82322439 C15.8859463,4.93434634 14.3770683,3.41249268 12.4881902,3.41249268 C10.5993122,3.41249268 9.09043415,4.93434634 9.09043415,6.82322439 C9.09043415,8.71210244 10.5993122,10.2348829 12.4881902,10.2348829 Z M12.4881902,8.52859024 C11.5567268,8.52859024 10.8486293,7.7546878 10.8486293,6.82322439 C10.8486293,5.89176098 11.5567268,5.11785854 12.4881902,5.11785854 C13.406678,5.11785854 14.1416537,5.89176098 14.1416537,6.82322439 C14.1416537,7.7546878 13.406678,8.52859024 12.4881902,8.52859024 Z M23.9984829,3.54317561 L25.7826293,3.54317561 L25.7826293,4.27815122 C26.2024829,3.73966341 26.8447756,3.41249268 27.5927268,3.41249268 C29.1414585,3.41249268 30.072922,4.40883415 30.072922,6.10122439 L30.072922,10.1032732 L28.248922,10.1032732 L28.248922,6.33756585 C28.248922,5.45893171 27.8420439,4.94732195 27.0421902,4.94732195 C26.3600439,4.94732195 25.7956049,5.41907805 25.7956049,6.52107805 L25.7956049,10.1032732 L23.9984829,10.1032732 L23.9984829,3.54317561 Z M42.5007756,10.2348829 C43.3534585,10.2348829 44.0485805,9.87990732 44.4814098,9.36829756 L44.4814098,10.1032732 L46.2794585,10.1032732 L46.2794585,3.54317561 L44.4814098,3.54317561 L44.4814098,4.18639512 C44.0485805,3.7266878 43.3794098,3.41249268 42.5267268,3.41249268 C41.0447268,3.41249268 39.3384341,4.50059024 39.3384341,6.82322439 C39.3384341,9.1319561 41.1096049,10.2348829 42.5007756,10.2348829 Z M42.8548244,8.58141951 C41.8575561,8.58141951 41.0966293,7.82049268 41.0966293,6.81024878 C41.0966293,5.80000488 41.8575561,5.05205366 42.8548244,5.05205366 C43.8261415,5.05205366 44.534239,5.83893171 44.534239,6.81024878 C44.534239,7.78063902 43.8261415,8.58141951 42.8548244,8.58141951 Z M47.004239,3.54317561 L48.7893122,3.54317561 L48.7893122,4.27815122 C49.2091659,3.73966341 49.8514585,3.41249268 50.5994098,3.41249268 C52.1472146,3.41249268 53.078678,4.40883415 53.078678,6.10122439 L53.078678,10.1032732 L51.2556049,10.1032732 L51.2556049,6.33756585 C51.2556049,5.45893171 50.8487268,4.94732195 50.0488732,4.94732195 C49.3667268,4.94732195 48.8022878,5.41907805 48.8022878,6.52107805 L48.8022878,10.1032732 L47.004239,10.1032732 L47.004239,3.54317561 Z M7.17282439,6.7666878 L7.14872683,6.81859024 C6.65194634,7.86405366 5.73901951,8.46463902 4.64443415,8.46463902 C3.05677561,8.46463902 1.81297073,7.2097122 1.81297073,5.60815122 C1.81297073,3.96580976 3.04565366,2.72663902 4.68150732,2.72663902 C5.7418,2.72663902 6.54721463,3.22341951 7.07550732,4.20307805 L7.10423902,4.25590732 L8.70394634,3.2326878 L8.67706829,3.18727317 C7.84570244,1.77200488 6.35258049,0.926736585 4.68150732,0.926736585 C2.01223902,0.926736585 9.26829268e-05,2.93888293 9.26829268e-05,5.60815122 C9.26829268e-05,8.32098049 1.96867805,10.2895659 4.68150732,10.2895659 C6.43043415,10.2895659 7.97453171,9.31917561 8.81423902,7.69351707 L8.83926341,7.64532195 L7.17282439,6.7666878 Z M19.5015073,10.2348829 C20.3541902,10.2348829 21.0493122,9.87990732 21.4821415,9.36829756 L21.4821415,9.98556585 C21.4821415,10.8382488 20.8658,11.5991756 19.8944829,11.5991756 C19.0158488,11.5991756 18.4124829,11.1663463 18.0714098,10.4842 L16.4837512,11.3758098 C17.0083366,12.3990293 18.2289707,13.2656146 19.8944829,13.2656146 C22.1123854,13.2656146 23.2792634,11.7697122 23.2792634,9.91976098 L23.2792634,3.54317561 L21.4821415,3.54317561 L21.4821415,4.2522 C21.0493122,3.76654146 20.3801415,3.41249268 19.5274585,3.41249268 C18.0445317,3.41249268 16.3391659,4.50059024 16.3391659,6.82322439 C16.3391659,9.1319561 18.1103366,10.2348829 19.5015073,10.2348829 Z M19.8555561,8.58141951 C18.8582878,8.58141951 18.097361,7.82049268 18.097361,6.81024878 C18.097361,5.80000488 18.8582878,5.05205366 19.8555561,5.05205366 C20.8259463,5.05205366 21.5349707,5.83893171 21.5349707,6.81024878 C21.5349707,7.78063902 20.8259463,8.58141951 19.8555561,8.58141951 Z M57.5061415,5.15678537 L57.5061415,3.54317561 L56.2725317,3.54317561 L56.2725317,1.37902927 L54.4754098,1.37902927 L54.4754098,3.54317561 L53.3604341,3.54317561 L53.3604341,5.15678537 L54.4754098,5.15678537 L54.4754098,7.25605366 C54.4754098,9.39517561 55.1575561,10.1032732 57.2438488,10.1032732 L57.5061415,10.1032732 L57.5061415,8.42385854 C56.4041415,8.42385854 56.2725317,8.26629756 56.2725317,7.24307805 L56.2725317,5.15678537 L57.5061415,5.15678537 Z" mask="url(#b)"/>
  </g>
</svg>
