<svg xmlns="http://www.w3.org/2000/svg" width="288" height="38"><g fill="none" fill-rule="evenodd"><path fill="#00B140" d="M5.362465 15.23629c5.1984 0 9.0345 3.8361 9.0345 8.6621 0 4.82695-3.8361 8.66305-9.0345 8.66305H.288515V15.23629h5.07395zm-3.83515 1.23785v14.84945h3.83515c4.579 0 7.79665-3.21765 7.79665-7.4252s-3.21765-7.42425-7.79665-7.42425h-3.83515zm16.124825-.866305c.49495 0 .8664.37145.8664.8664 0 .49495-.37145.86545-.8664.86545-.49495 0-.8664-.3705-.8664-.86545 0-.49495.37145-.8664.8664-.8664zm-.6194 16.9537h1.11435v-11.87975h-1.11435v11.87975zm13.28575-2.722795s-1.3623 2.4757-4.45455 2.4757c-2.84715 0-5.4454-2.5992-5.4454-5.94035 0-3.34115 2.59825-5.94035 5.4454-5.94035 3.09225 0 4.45455 2.47475 4.45455 2.47475v-2.2268h1.1134v11.13685c0 3.34115-2.59825 5.94035-5.6924 5.94035-3.21765 0-4.7025-2.47475-4.7025-2.47475l.7429-.7429s1.3604 2.10425 3.9596 2.10425c2.4757 0 4.579-2.10425 4.579-4.82695v-1.9798zm-4.45455 1.36135c2.22775 0 4.45455-2.1033 4.45455-4.826 0-2.7227-2.2268-4.826-4.45455-4.826-2.22775 0-4.332 2.1033-4.332 4.826 0 2.7227 2.10425 4.826 4.332 4.826zm9.343725-15.592255c.49495 0 .8664.37145.8664.8664 0 .49495-.37145.86545-.8664.86545-.49495 0-.8664-.3705-.8664-.86545 0-.49495.37145-.8664.8664-.8664zm-.6194 16.9537h1.11435v-11.87975h-1.11435v11.87975zm5.30917-15.84049h.9899v3.9596h2.72175v1.11435h-2.72175v7.7957c0 1.36135.74195 2.10425 1.8563 2.10425.86545 0 1.6074-.37145 1.6074-.37145v1.11435s-.74195.3705-1.6074.3705c-1.8563 0-2.9697-1.1134-2.9697-3.21765v-7.7957h-2.35125v-1.11435h1.60835c.494 0 .8664-.3705.8664-.9899v-2.9697zm13.82972 8.41548c0-2.0539-1.4364-3.5891-3.3421-3.5891-2.1774 0-3.4637 1.7328-3.4637 1.7328l-.7429-.74195s1.5333-2.10425 4.2066-2.10425c2.54885 0 4.45645 2.0539 4.45645 4.7025v7.4252h-1.11435v-1.9798s-1.3623 2.2268-4.332 2.2268c-2.3503 0-3.9596-1.60835-3.9596-3.34115 0-1.8563 1.3604-3.24235 3.5891-3.5891l4.7025-.74195zm0 2.22775v-1.11435l-4.45455.7429c-1.85725.29735-2.72365 1.2369-2.72365 2.47475 0 1.11435 1.1134 2.22775 2.8462 2.22775 2.4757 0 4.332-1.8563 4.332-4.33105zM57.873 32.561h1.114V15.236h-1.114zM66.535435 19.567815c0-2.47475 2.10425-4.579 5.44445-4.579 3.21765 0 4.9495 2.10425 4.9495 2.10425l-.8664.86545s-1.35945-1.73185-4.0831-1.73185c-2.7227 0-4.2066 1.48485-4.2066 3.34115 0 4.7025 9.652 2.47475 9.652 8.4151 0 2.7227-2.10425 4.826-5.6924 4.826-3.8361 0-5.6924-2.5992-5.6924-2.5992l.8664-.86545s1.4839 2.2268 4.826 2.2268c2.97065 0 4.45455-1.48485 4.45455-3.58815 0-4.7025-9.652-2.47475-9.652-8.4151m15.9125 12.993435l-4.826-11.87975h1.23785l4.2066 10.3949 4.20755-10.3949h1.2388l-5.6924 14.1075c-.84265 2.1033-1.73375 2.9697-3.46655 2.9697-.6175 0-1.1134-.247-1.1134-.247v-1.11435s.4959.24795 1.1134.24795c1.11435 0 1.7328-.6194 2.22775-1.8563l.8664-2.22775zm13.572745-9.52831s-.99085-1.48485-2.8462-1.48485c-1.7328 0-2.7227 1.0146-2.7227 2.1033 0 2.8462 6.80675 1.48485 6.80675 5.5689 0 1.9798-1.61025 3.5891-4.2085 3.5891-2.72175 0-4.20755-1.98075-4.20755-1.98075l.8664-.86545s1.2369 1.73185 3.34115 1.73185c1.9798 0 3.09415-1.1134 3.09415-2.47475 0-2.9697-6.8058-1.60835-6.8058-5.5689 0-1.60835 1.6074-3.2167 3.8361-3.2167 2.35125 0 3.71165 1.73185 3.71165 1.73185l-.86545.8664zm4.76482-6.311895h.9899v3.9596h2.7227v1.11435h-2.7227v7.7957c0 1.36135.7429 2.10425 1.8563 2.10425.8664 0 1.60835-.37145 1.60835-.37145v1.11435s-.74195.3705-1.60835.3705c-1.8563 0-2.9697-1.1134-2.9697-3.21765v-7.7957h-2.3503v-1.11435h1.6074c.49495 0 .8664-.3705.8664-.9899v-2.9697zm6.083135 10.39528c.1235 2.47475 2.22775 4.579 4.7025 4.579 2.60015 0 3.96055-2.07955 3.96055-2.07955l.74195.7182s-1.60835 2.47475-4.7025 2.47475c-3.0932 0-5.8159-2.7227-5.8159-6.18735 0-3.46465 2.7227-6.18735 5.6924-6.18735s5.4454 2.47475 5.4454 6.18735v.49495h-10.0244zm0-1.1134h8.91005c-.1235-2.5992-1.9798-4.4555-4.33105-4.4555-2.35125 0-4.4555 2.10425-4.579 4.4555zm28.394265-.495235c0-2.47475-1.48485-3.9596-3.34115-3.9596-1.9798 0-3.5891 1.60835-3.5891 4.33105v6.6823h-1.1134v-7.05375c0-2.47475-1.48485-3.9596-3.34115-3.9596-1.9798 0-3.5891 1.60835-3.5891 4.33105v6.6823h-1.11435V20.68169h1.11435v1.7328s.9899-1.98075 3.5891-1.98075c2.9697 0 3.9596 2.7227 3.9596 2.7227s.91485-2.7227 4.08405-2.7227c2.45005 0 4.45455 1.8563 4.45455 5.07395v7.05375h-1.1134v-7.05375zm10.073325-2.47475s-.9899-1.48485-2.8462-1.48485c-1.73185 0-2.72175 1.0146-2.72175 2.1033 0 2.8462 6.80675 1.48485 6.80675 5.5689 0 1.9798-1.61025 3.5891-4.2085 3.5891-2.72175 0-4.20755-1.98075-4.20755-1.98075l.8664-.86545s1.2369 1.73185 3.34115 1.73185c1.9798 0 3.0932-1.1134 3.0932-2.47475 0-2.9697-6.8058-1.60835-6.8058-5.5689 0-1.60835 1.60835-3.2167 3.8361-3.2167 2.35125 0 3.7126 1.73185 3.7126 1.73185l-.8664.8664zm12.868605.49495l4.4555 5.44445s1.2369-1.9057 1.2369-4.826h1.11435c0 3.4409-1.6093 5.6924-1.6093 5.6924s1.1134 1.7328 2.22775 1.7328c.37145 0 .7429-.1235.7429-.1235v1.1134s-.37145.1235-.7429.1235c-1.7328 0-2.9697-1.9798-2.9697-1.9798s-1.5352 2.1033-4.579 2.1033c-2.8462 0-4.82695-1.9798-4.82695-4.2066 0-3.09415 3.46655-5.07395 3.46655-5.07395s-2.72365-2.57355-2.72365-4.7025c0-2.10425 1.73375-3.83705 3.8361-3.83705 2.10425 0 3.71355 1.6093 3.71355 3.71355 0 2.64765-3.3421 4.826-3.3421 4.826zm-.8664.74195s-2.9697 1.9798-2.9697 4.332c0 1.73185 1.3623 3.0932 3.7126 3.0932 2.54885 0 3.8361-1.8563 3.8361-1.8563l-4.579-5.5689zm.2489-1.48485s2.84525-2.0539 2.84525-4.0831c0-1.4858-1.1134-2.5992-2.5992-2.5992-1.48485 0-2.72175 1.23785-2.72175 2.7227 0 1.70715 2.4757 3.9596 2.4757 3.9596zM183.449 15.236v1.238h-5.693v16.087h-1.238V16.474h-5.692v-1.238zM183.11079 27.116325c.1235 2.47475 2.22775 4.579 4.70155 4.579 2.5992 0 3.9596-2.07955 3.9596-2.07955l.7429.7182s-1.6093 2.47475-4.7025 2.47475c-3.09415 0-5.81685-2.7227-5.81685-6.18735 0-3.46465 2.7227-6.18735 5.69335-6.18735 2.9697 0 5.4454 2.47475 5.4454 6.18735v.49495h-10.02345zm0-1.1134h8.91005c-.12445-2.5992-1.9798-4.4555-4.332-4.4555-2.3503 0-4.45455 2.10425-4.57805 4.4555zm17.335695-5.56909c3.0932 0 4.7025 2.47475 4.7025 2.47475l-.8664.7429s-1.23785-2.10425-3.8361-2.10425c-2.47475 0-4.7025 2.22775-4.7025 5.07395s2.22775 5.07395 4.7025 5.07395c2.59825 0 3.8361-2.10425 3.8361-2.10425l.8664.7429s-1.6093 2.47475-4.7025 2.47475c-3.0932 0-5.8159-2.7227-5.8159-6.18735 0-3.46465 2.7227-6.18735 5.8159-6.18735m7.71134 2.350965s1.1134-2.35125 4.08405-2.35125c2.72175 0 4.826 2.10425 4.826 5.07395v7.05375h-1.11435V25.5075c0-2.35125-1.60835-3.9596-3.71165-3.9596-2.22775 0-4.08405 1.8563-4.08405 4.3301v6.68325h-1.11435V15.2361h1.11435v7.5487zm13.034665 0s1.1134-2.35125 4.08405-2.35125c2.72175 0 4.826 2.10425 4.826 5.07395v7.05375h-1.11435V25.5075c0-2.35125-1.60835-3.9596-3.71165-3.9596-2.22775 0-4.08405 1.8563-4.08405 4.3301v6.68325h-1.1153V20.6815h1.1153v2.1033zm17.009085-2.350965c3.21765 0 5.94035 2.7227 5.94035 6.18735 0 3.46465-2.7227 6.18735-5.94035 6.18735-3.21765 0-5.94035-2.7227-5.94035-6.18735 0-3.46465 2.7227-6.18735 5.94035-6.18735m0 1.1134c-2.59825 0-4.826 2.22775-4.826 5.07395s2.22775 5.07395 4.826 5.07395c2.5992 0 4.826-2.22775 4.826-5.07395s-2.2268-5.07395-4.826-5.07395M246.507 32.561h1.114V15.236h-1.114zM255.96762 20.433835c3.21765 0 5.94035 2.7227 5.94035 6.18735 0 3.46465-2.7227 6.18735-5.94035 6.18735-3.21765 0-5.94035-2.7227-5.94035-6.18735 0-3.46465 2.7227-6.18735 5.94035-6.18735m0 1.1134c-2.59825 0-4.826 2.22775-4.826 5.07395s2.22775 5.07395 4.826 5.07395c2.59825 0 4.826-2.22775 4.826-5.07395s-2.22775-5.07395-4.826-5.07395m17.335695 8.291505s-1.36135 2.4757-4.4536 2.4757c-2.84715 0-5.44635-2.5992-5.44635-5.94035 0-3.34115 2.5992-5.94035 5.44635-5.94035 3.09225 0 4.4536 2.47475 4.4536 2.47475v-2.2268h1.1134v11.13685c0 3.34115-2.5973 5.94035-5.69145 5.94035-3.2186 0-4.70345-2.47475-4.70345-2.47475l.74385-.7429s1.3604 2.10425 3.9596 2.10425c2.47475 0 4.57805-2.10425 4.57805-4.82695v-1.9798zm-4.4536 1.36135c2.22585 0 4.4536-2.1033 4.4536-4.826 0-2.7227-2.22775-4.826-4.4536-4.826-2.22775 0-4.33295 2.1033-4.33295 4.826 0 2.7227 2.1052 4.826 4.33295 4.826zm11.986815 1.36116l-4.826-11.87975h1.23785l4.2066 10.3949 4.20755-10.3949h1.23785l-5.6924 14.1075c-.8417 2.1033-1.73375 2.9697-3.4656 2.9697-.61845 0-1.11435-.247-1.11435-.247v-1.11435s.4959.24795 1.11435.24795c1.11435 0 1.73185-.6194 2.2287-1.8563l.86545-2.22775z"/><path fill="#0033A0" d="M34.27999 7.765205l3.53685-3.4561h-3.48365v-1.62735h5.9584v1.65395l-3.5378 3.4428h3.60335v1.62735h-6.07715v-1.64065zm-2.5137-5.6221h1.84205V.470155h-1.84205v1.67295zm-.02375 7.2827h1.84205v-6.7241h-1.84205v6.7241zm-18.8005.11495c1.9361 0 3.4827-1.56085 3.4827-3.49695s-1.5466-3.496-3.4827-3.496-3.4827 1.5599-3.4827 3.496 1.5466 3.49695 3.4827 3.49695zm0-1.74895c-.95475 0-1.68055-.79325-1.68055-1.748s.7258-1.748 1.68055-1.748c.94145 0 1.6948.79325 1.6948 1.748s-.75335 1.748-1.6948 1.748zm11.79805-5.11005h1.82875v.75335c.43035-.55195 1.0887-.8873 1.85535-.8873 1.58745 0 2.5422 1.02125 2.5422 2.75595v4.1021h-1.8696v-3.85985c0-.9006-.418-1.425-1.2369-1.425-.6992 0-1.2787.48355-1.2787 1.6131v3.67175h-1.8411v-6.7241zm18.96485 6.859c.874 0 1.5865-.36385 2.03015-.88825v.75335h1.843v-6.7241h-1.843v.6593c-.44365-.4712-1.12955-.79325-2.00355-.79325-1.51905 0-3.268 1.1153-3.268 3.496 0 2.36645 1.81545 3.49695 3.2414 3.49695zm.3629-1.6948c-1.0222 0-1.80215-.77995-1.80215-1.81545 0-1.0355.77995-1.80215 1.80215-1.80215.9956 0 1.7214.80655 1.7214 1.80215 0 .99465-.7258 1.81545-1.7214 1.81545zm4.25315-5.1642h1.8297v.75335c.43035-.55195 1.0887-.8873 1.85535-.8873 1.5865 0 2.54125 1.02125 2.54125 2.75595v4.1021h-1.86865v-3.85985c0-.9006-.41705-1.425-1.23785-1.425-.69825 0-1.2768.48355-1.2768 1.6131v3.67175h-1.843v-6.7241zm-40.8272 3.3041l-.0247.0532c-.5092 1.0716-1.44495 1.6872-2.5669 1.6872-1.62735 0-2.90225-1.2863-2.90225-2.9279 0-1.6834 1.2635-2.95355 2.94025-2.95355 1.0868 0 1.91235.5092 2.45385 1.51335l.0285.05415 1.64065-1.0488-.02755-.04655c-.85215-1.45065-2.3826-2.31705-4.09545-2.31705-2.736 0-4.7994 2.06245-4.7994 4.79845 0 2.78065 2.0178 4.79845 4.7994 4.79845 1.79265 0 3.37535-.99465 4.23605-2.66095l.02565-.0494-1.7081-.9006zm12.63595 3.5549c.874 0 1.5865-.36385 2.0311-.88825v.6327c0 .874-.63175 1.65395-1.62735 1.65395-.9006 0-1.51905-.44365-1.86865-1.14285l-1.62735.9139c.5377 1.0488 1.7879 1.93705 3.496 1.93705 2.2724 0 3.4694-1.5333 3.4694-3.4295v-6.536h-1.84205v.72675c-.4446-.4978-1.12955-.8607-2.00355-.8607-1.52 0-3.268 1.1153-3.268 3.496 0 2.36645 1.8145 3.49695 3.24045 3.49695zm.36385-1.6948c-1.0222 0-1.80215-.77995-1.80215-1.81545 0-1.0355.77995-1.80215 1.80215-1.80215.99465 0 1.7214.80655 1.7214 1.80215 0 .99465-.72675 1.81545-1.7214 1.81545zm38.59185-3.51025v-1.65395h-1.26445V.463505h-1.84205v2.21825h-1.14285v1.65395h1.14285v2.15175c0 2.1926.6992 2.9184 2.83765 2.9184h.26885v-1.7214c-1.12955 0-1.26445-.1615-1.26445-1.2103v-2.13845h1.26445z"/></g></svg>