<svg xmlns="http://www.w3.org/2000/svg" xmlns:xlink="http://www.w3.org/1999/xlink" width="629.79605" height="161.91728" viewBox="0 0 629.79605 161.91728">
  <defs>
    <linearGradient id="a" x1="-735.34829" y1="-1531.98589" x2="-726.77798" y2="-1531.98589" gradientTransform="matrix(13.36897, 0, 0, -9.4464, 9830.85082, -14350.30754)" gradientUnits="userSpaceOnUse">
      <stop offset="0" stop-color="#3d54ce"/>
      <stop offset="1" stop-color="#35cacf"/>
    </linearGradient>
    <linearGradient id="b" x1="-737.99831" y1="-1531.98589" x2="-729.42799" y2="-1531.98589" gradientTransform="matrix(15.83638, 0, 0, -9.4464, 11743.47801, -14350.30754)" gradientUnits="userSpaceOnUse">
      <stop offset="0" stop-color="#13457d"/>
      <stop offset="1" stop-color="#279698"/>
    </linearGradient>
    <linearGradient id="c" x1="-735.37807" y1="-1524.41531" x2="-726.80795" y2="-1524.41531" gradientTransform="matrix(13.37977, 0, 0, -9.44641, 9839.18835, -14359.77822)" gradientUnits="userSpaceOnUse">
      <stop offset="0" stop-color="#090086"/>
      <stop offset="1" stop-color="#2f96a9"/>
    </linearGradient>
    <linearGradient id="d" x1="-737.99831" y1="-1524.41531" x2="-729.42799" y2="-1524.41531" gradientTransform="matrix(15.83638, 0, 0, -9.44641, 11743.47801, -14359.77822)" gradientUnits="userSpaceOnUse">
      <stop offset="0" stop-color="#3b62ca"/>
      <stop offset="1" stop-color="#93dfe3"/>
    </linearGradient>
  </defs>
  <g>
    <path d="M433.83155,55.81335h8.28715V105.524h-8.28715Zm-30.341-1.11057a22.7072,22.7072,0,0,0-14.501,5.208V55.80731h-8.28728V105.518h8.28728V77.48489a14.501,14.501,0,0,1,29.002,0V105.518h8.28728v-28.027A22.78492,22.78492,0,0,0,403.49059,54.70278ZM364.1405,55.801h8.28729v47.84093c0,14.32819-12.51391,25.94126-25.9414,25.94126-12.37829,0-21.46758-7.55281-24.70717-17.98106h8.90427c2.74614,5.751,8.12669,9.69405,15.8029,9.69405,8.83632,0,17.65411-7.90461,17.65411-17.65425V99.64329a25.94133,25.94133,0,1,1,0-38.011Zm0,24.84319a17.654,17.654,0,1,0-17.65411,17.65411A17.6549,17.6549,0,0,0,364.1405,80.64418ZM235.90877,62.98979a17.6571,17.6571,0,0,1,16.00056,10.18146h8.84249a25.94133,25.94133,0,1,0,0,14.94545h-8.84249a17.65646,17.65646,0,1,1-16.00056-25.12691ZM316.553,80.64418a25.94133,25.94133,0,1,1-25.9414-25.9414A25.93981,25.93981,0,0,1,316.553,80.64418Zm-8.28728,0a17.65412,17.65412,0,1,0-17.65412,17.65411A17.6549,17.6549,0,0,0,308.26567,80.64418ZM579.304,54.70278a22.70747,22.70747,0,0,0-14.501,5.208V55.81966h-8.28715V105.518H564.803V77.48489a14.501,14.501,0,1,1,29.002,0V105.518h8.28729v-28.027A22.78492,22.78492,0,0,0,579.304,54.70278ZM539.94784,55.8257h8.28728V105.524h-8.28728V99.64947a25.9407,25.9407,0,1,1-17.654-44.94682v.00617a25.85553,25.85553,0,0,1,17.654,6.93584Zm0,24.82438a17.654,17.654,0,1,0-17.654,17.65425A17.65485,17.65485,0,0,0,539.94784,80.65008Zm89.84821-16.55576V55.80717H617.36821V42.25037h-8.28715V88.94958a16.5673,16.5673,0,0,0,16.56812,16.56826h4.14687V97.23069h-4.14687l.00632.006a8.29294,8.29294,0,0,1-8.28729-8.28715V64.09432ZM437.98459,37.88156a5.50107,5.50107,0,1,0,5.50423,5.50408A5.5,5.5,0,0,0,437.98459,37.88156Zm53.92494,17.9381h-41.4297v8.28715h30.68658L450.47983,97.23687V105.524h41.4297V97.23687h-30.705l30.68658-33.13006Z" fill="#00004a"/>
    <g>
      <polygon points="81.89 80.959 0 80.959 56.258 161.917 114.576 127.078 81.89 80.959" fill="url(#a)"/>
      <polygon points="191.98 80.959 56.258 161.917 136.803 161.917 191.98 80.959" fill="url(#b)"/>
      <polygon points="0.003 80.959 81.89 80.959 114.669 34.846 56.258 0 0.003 80.959" fill="url(#c)"/>
      <polygon points="191.98 80.959 56.258 0 136.803 0 191.98 80.959" fill="url(#d)"/>
    </g>
  </g>
</svg>
