<svg xmlns="http://www.w3.org/2000/svg" width="400" height="400" viewBox="0 0 400 400">
  <g fill="none" fill-rule="evenodd">
    <g transform="translate(-212 -392)">
      <polygon fill="#DDDDDD" points="281.039 378.986 281.039 684.258 612 491.222 612 187.775"/>
      <polygon fill="#003D99" points="414 140.715 170.864 0 0 0 0 534.053 272.639 691.778 414 609.689"/>
      <polygon fill="#89BB4B" points="91.741 792 114.797 792 612 504.623 612 489.391"/>
      <polyline stroke="#DDDDDD" stroke-width="1.5" points="415.475 600.486 312.571 541.074 312.571 418.513 447.036 340.88"/>
      <path fill="#DDDDDD" d="M347.9214 409.235L379.3794 427.397 410.8384 445.56 379.3794 463.723 347.9214 481.885 347.9214 445.56 347.9214 409.235zM346.4214 406.637L346.4214 445.56 346.4214 484.483 380.1294 465.021 413.8384 445.56 380.1294 426.099 346.4214 406.637zM307.3549 408.8739L317.2179 414.5679 327.0809 420.2629 317.2179 425.9569 307.3549 431.6509 307.3549 420.2629 307.3549 408.8739zM305.8549 406.2759L305.8549 420.2629 305.8549 434.2489 317.9679 427.2559 330.0809 420.2629 317.9679 413.2689 305.8549 406.2759z"/>
      <polygon fill="#DDDDDD" points="242.889 504.069 230.776 511.062 218.663 518.056 218.663 504.069 218.663 490.082 230.776 497.076"/>
      <polygon fill="#DDDDDD" points="290.934 452.281 278.821 459.274 266.708 466.268 266.708 452.281 266.708 438.294 278.821 445.288"/>
      <polygon fill="#DDDDDD" points="315.159 577.554 303.046 584.547 290.933 591.541 290.933 577.554 290.933 563.567 303.046 570.561"/>
      <path fill="#DDDDDD" d="M346.3921,496.2415 L346.3921,532.5665 L346.3921,568.8915 L314.9341,550.7285 L283.4751,532.5665 L314.9341,514.4035 L346.3921,496.2415 Z M347.8921,493.6435 L314.1841,513.1055 L280.4751,532.5665 L314.1841,552.0285 L347.8921,571.4895 L347.8921,532.5665 L347.8921,493.6435 Z"/>
      <polygon fill="#003D99" points="479.69 434.93 467.577 441.923 455.464 448.917 455.464 434.93 455.464 420.943 467.577 427.937"/>
      <polygon fill="#003D99" points="523.254 434.93 511.141 441.923 499.028 448.917 499.028 434.93 499.028 420.943 511.141 427.937"/>
      <polygon fill="#003D99" points="566.819 434.93 554.706 441.923 542.593 448.917 542.593 434.93 542.593 420.943 554.706 427.937"/>
      <path fill="#003D99" d="M424.8785 531.7377L434.7415 537.4317 444.6045 543.1267 434.7415 548.8207 424.8785 554.5147 424.8785 543.1267 424.8785 531.7377zM423.3785 529.1397L423.3785 543.1267 423.3785 557.1127 435.4915 550.1197 447.6045 543.1267 435.4915 536.1327 423.3785 529.1397zM415.5 448.0741L446.958 466.2361 478.417 484.3991 446.958 502.5611 415.5 520.7241 415.5 484.3991 415.5 448.0741zM414 445.4761L414 484.3991 414 523.3221 447.708 503.8601 481.417 484.3991 447.708 464.9371 414 445.4761z"/>
      <path fill="#DDDDDD" d="M347.9214,486.9822 L379.3794,505.1452 L410.8384,523.3072 L379.3794,541.4692 L347.9214,559.6322 L347.9214,523.3072 L347.9214,486.9822 Z M346.4214,484.3842 L346.4214,523.3072 L346.4214,562.2302 L380.1294,542.7682 L413.8384,523.3072 L380.1294,503.8452 L346.4214,484.3842 Z"/>
      <path stroke="#003D99" stroke-width="1.5" d="M413.5114,321.5242 L514.4524,379.8022 L514.4524,496.3582 L413.5114,554.6362 M412.7544,342.7712 L447.7084,362.9522 L481.4164,382.4142 L447.7084,401.8752 L412.8894,421.9782"/>
      <polygon fill="#DDDDDD" points="312.904 490.718 312.154 489.419 177.689 567.052 177.314 567.269 177.314 636.631 178.814 637.499 178.814 568.135"/>
      <polygon fill="#003D99" points="455.821 353.849 455.446 354.065 455.446 423.861 456.946 423.861 456.946 354.932 612 265.411 612 263.679"/>
    </g>
    <path fill="#01573F" d="M356.200271,333.138782 L355.361144,333.138782 L355.361144,334.689666 L356.200271,334.689666 C356.71819,334.689666 357.104139,334.385522 357.104139,333.920508 C357.104139,333.45298 356.71819,333.138782 356.200271,333.138782 Z M357.136509,336.91922 L356.070792,335.149653 L355.361144,335.149653 L355.361144,336.91922 L354.875595,336.91922 L354.875595,332.66874 L356.255051,332.66874 C356.964699,332.66874 357.589687,333.199108 357.589687,333.920508 C357.589687,334.543878 357.178838,334.948566 356.60863,335.106922 L357.696757,336.91922 L357.136509,336.91922 Z M356.103162,331.328997 C354.210767,331.328997 352.659502,332.942722 352.659502,334.853049 C352.659502,336.763377 354.210767,338.374588 356.103162,338.374588 C357.995556,338.374588 359.549311,336.763377 359.549311,334.853049 C359.549311,332.942722 357.995556,331.328997 356.103162,331.328997 Z M356.103162,338.786816 C353.951808,338.786816 352.206323,337.02479 352.206323,334.853049 C352.206323,332.678795 353.951808,330.919282 356.103162,330.919282 C358.257005,330.919282 360,332.678795 360,334.853049 C360,337.02479 358.257005,338.786816 356.103162,338.786816 Z M300.303674,331.020077 C300.171704,331.020077 300.126885,331.065322 298.956588,331.110567 C297.746452,331.158325 295.458149,331.203569 290.829253,331.203569 L288.672919,331.203569 L287.363183,331.203569 L285.206849,331.203569 C280.577953,331.203569 278.28965,331.158325 277.079514,331.110567 C275.909217,331.065322 275.864397,331.020077 275.732428,331.020077 C275.192099,331.020077 275.192099,331.382034 275.192099,332.425174 L275.192099,336.595218 C275.192099,336.821441 275.192099,337.364376 275.645278,337.364376 C276.138297,337.364376 276.227936,337.183398 277.034694,335.506834 C277.562572,334.348069 278.623309,332.666478 284.728771,332.613693 C285.361229,332.633801 285.627658,332.77959 285.627658,333.785025 L285.627658,354.856443 C285.627658,356.626009 285.627658,357.850127 283.381685,357.985861 C282.437978,358.073837 281.81299,358.119081 281.81299,358.755019 C281.81299,359.433688 282.393158,359.433688 282.754207,359.433688 C283.605784,359.433688 287.243663,359.255224 288.003111,359.255224 C289.487147,359.255224 291.82276,359.433688 293.304305,359.433688 C293.662864,359.433688 294.245522,359.433688 294.245522,358.755019 C294.245522,358.073837 293.618044,358.028592 292.674337,357.985861 C290.430854,357.850127 290.430854,356.626009 290.430854,354.765953 L290.430854,334.101738 C290.430854,332.925378 290.575273,332.676533 291.887499,332.623747 C297.480023,332.774562 298.49096,334.385773 299.001408,335.506834 C299.810656,337.183398 299.897805,337.364376 300.393314,337.364376 C300.844002,337.364376 300.844002,336.821441 300.844002,336.595218 L300.844002,332.425174 C300.844002,331.382034 300.844002,331.020077 300.303674,331.020077 M251.773222,352.230245 C251.369843,352.230245 251.280203,352.411223 250.470956,353.994784 C248.496392,357.85063 245.71258,357.85063 243.738016,357.85063 C239.968167,357.85063 239.02446,357.350426 239.02446,354.133032 L239.02446,346.338392 C239.02446,344.97854 239.383019,344.97854 241.536862,344.97854 C245.217071,344.97854 246.477008,345.023785 247.420715,348.51516 C247.642324,349.374808 247.911243,349.601031 248.269802,349.601031 C248.810131,349.601031 248.810131,348.967606 248.810131,348.693625 C248.810131,348.331668 248.675671,346.745593 248.675671,346.428881 C248.675671,345.430986 248.98941,340.763251 248.98941,340.129827 C248.98941,339.632136 248.765311,339.493889 248.496392,339.493889 C248.269802,339.493889 248.045703,339.586892 247.821604,340.175071 C247.012356,342.575549 246.611467,343.573444 241.626502,343.573444 C239.02446,343.573444 239.02446,343.208974 239.02446,341.761146 L239.02446,335.188111 C239.02446,332.923367 239.203739,332.606655 241.447223,332.606655 C247.821604,332.606655 248.89728,334.328463 249.440099,335.507337 C250.246856,337.181387 250.336496,337.364879 250.832005,337.364879 C251.280203,337.364879 251.280203,336.821944 251.280203,336.593207 L251.280203,332.425676 C251.280203,331.382537 251.280203,331.02058 250.739875,331.02058 C250.605415,331.02058 250.560595,331.065825 249.395279,331.111069 C248.180162,331.158827 245.891859,331.201558 241.267943,331.201558 L239.1141,331.201558 C235.296941,331.201558 233.367197,331.158827 232.37867,331.111069 C231.390143,331.065825 231.345323,331.02058 231.255683,331.02058 C230.944434,331.02058 230.356796,331.02058 230.356796,331.656518 C230.356796,332.335187 230.989254,332.380432 231.975291,332.425676 C234.221264,332.56141 234.221264,333.785528 234.221264,335.64307 L234.221264,354.766456 C234.221264,356.623998 234.221264,357.85063 231.975291,357.98385 C231.031584,358.074339 230.356796,358.119584 230.356796,358.755522 C230.356796,359.434191 230.944434,359.434191 231.300503,359.434191 C231.614242,359.434191 231.975291,359.388946 232.694899,359.343702 C233.412017,359.298457 234.535003,359.253213 236.375108,359.253213 L236.910456,359.253213 C237.184355,359.253213 239.293379,359.298457 241.853091,359.343702 C244.455134,359.388946 247.597504,359.434191 249.885807,359.434191 C251.190563,359.434191 251.636272,358.9365 251.681092,358.074339 C251.818042,356.400289 252.31106,353.497094 252.31106,352.908914 C252.31106,352.637446 252.17909,352.230245 251.773222,352.230245 M325.045485,352.230245 C324.642106,352.230245 324.552466,352.411223 323.743219,353.994784 C321.768655,357.85063 318.984843,357.85063 317.010279,357.85063 C313.24043,357.85063 312.296723,357.350426 312.296723,354.133032 L312.296723,346.338392 C312.296723,344.97854 312.655282,344.97854 314.806636,344.97854 C318.489335,344.97854 319.749271,345.023785 320.692978,348.51516 C320.914587,349.374808 321.183506,349.601031 321.542065,349.601031 C322.082394,349.601031 322.082394,348.967606 322.082394,348.693625 C322.082394,348.331668 321.947934,346.745593 321.947934,346.428881 C321.947934,345.430986 322.261673,340.763251 322.261673,340.129827 C322.261673,339.632136 322.037574,339.493889 321.768655,339.493889 C321.542065,339.493889 321.317966,339.586892 321.093867,340.175071 C320.284619,342.575549 319.88373,343.573444 314.898765,343.573444 C312.296723,343.573444 312.296723,343.208974 312.296723,341.761146 L312.296723,335.188111 C312.296723,332.923367 312.476003,332.606655 314.719486,332.606655 C321.093867,332.606655 322.169543,334.328463 322.712362,335.507337 C323.519119,337.181387 323.608759,337.364879 324.101778,337.364879 C324.552466,337.364879 324.552466,336.821944 324.552466,336.593207 L324.552466,332.425676 C324.552466,331.382537 324.552466,331.02058 324.009648,331.02058 C323.877678,331.02058 323.832859,331.065825 322.667542,331.111069 C321.452426,331.158827 319.164123,331.201558 314.540206,331.201558 L312.386363,331.201558 C308.569204,331.201558 306.63946,331.158827 305.650933,331.111069 C304.662406,331.065825 304.617586,331.02058 304.527946,331.02058 C304.214207,331.02058 303.629059,331.02058 303.629059,331.656518 C303.629059,332.335187 304.261517,332.380432 305.247554,332.425676 C307.493528,332.56141 307.493528,333.785528 307.493528,335.64307 L307.493528,354.766456 C307.493528,356.623998 307.493528,357.85063 305.247554,357.98385 C304.303847,358.074339 303.629059,358.119584 303.629059,358.755522 C303.629059,359.434191 304.214207,359.434191 304.572766,359.434191 C304.888995,359.434191 305.247554,359.388946 305.967162,359.343702 C306.68428,359.298457 307.807267,359.253213 309.647371,359.253213 L310.182719,359.253213 C310.456619,359.253213 312.565642,359.298457 315.125355,359.343702 C317.727397,359.388946 320.869767,359.434191 323.158071,359.434191 C324.462827,359.434191 324.908535,358.9365 324.953355,358.074339 C325.090305,356.400289 325.583323,353.497094 325.583323,352.908914 C325.583323,352.637446 325.448864,352.230245 325.045485,352.230245 M265.924596,341.96902 C262.259327,340.443271 259.602505,339.28702 259.602505,336.004273 C259.602505,334.20203 261.044211,331.587897 264.59743,331.620574 C268.399649,331.655764 269.221346,334.20203 269.771635,336.004273 C270.229793,337.437019 270.414053,337.716027 270.869721,337.716027 C271.512139,337.716027 271.512139,337.344016 271.512139,336.328526 C271.512139,332.259025 271.512139,331.844283 270.961851,331.52003 C270.319433,331.195777 267.620281,330.459296 264.963459,330.459296 C259.149327,330.459296 255.939726,334.154272 255.939726,338.407264 C255.939726,343.311277 259.557685,345.111006 263.267774,346.777516 C266.564524,348.300751 269.679505,350.05775 269.679505,353.662236 C269.679505,357.407484 266.069016,358.676847 264.146742,358.676847 C260.897301,358.676847 257.754931,355.901844 256.878453,351.877588 C256.788814,351.462846 256.729054,350.98275 256.318205,350.98275 C255.767917,350.98275 255.738037,351.628743 255.738037,351.817262 C255.703177,353.49634 255.917316,355.461966 255.982056,356.065228 C256.106556,357.213938 256.288325,358.146479 256.793794,358.518491 C257.617981,359.119238 259.878894,359.998995 263.449544,359.998995 C269.542555,359.998995 273.299954,355.698244 273.299954,350.568008 C273.299954,345.342257 268.491779,343.077513 265.924596,341.96902 M158.223704,358.72561 C152.178002,358.72561 147.867825,351.642316 147.867825,344.194552 C147.867825,337.661734 151.911573,331.729663 157.464257,331.729663 C164.583145,331.729663 167.787766,339.456436 167.787766,344.92852 C167.787766,351.597072 164.493506,358.72561 158.223704,358.72561 M157.999605,330.457787 C149.199971,330.457787 142.564141,336.837277 142.564141,345.15977 C142.564141,353.987495 149.927049,360 157.865145,360 C165.581632,360 173.11137,353.711 173.11137,344.742514 C173.11137,336.792032 166.49048,330.457787 157.999605,330.457787 M139.692184,320 C139.627444,320 139.562704,320.065353 137.81224,320.130707 C136.126515,320.193546 132.730165,320.2589 125.984775,320.2589 L124.567969,320.2589 C118.148769,320.2589 115.800706,320.193546 114.117471,320.130707 C112.493996,320.065353 112.429256,320 112.297286,320 C111.844107,320 111,320 111,320.914946 C111,321.832406 111.976077,321.900273 113.335613,322.028466 C116.580073,322.224526 116.580073,323.991579 116.580073,326.678606 L116.580073,344.339083 L116.580073,353.800233 C116.580073,355.977001 116.580073,357.482641 113.811202,357.648537 C112.650865,357.761649 111.883947,357.816948 111.883947,358.598674 C111.883947,359.433186 112.596085,359.433186 113.039304,359.433186 C114.090081,359.433186 118.669177,359.21199 119.605414,359.21199 C121.433069,359.21199 124.40114,359.433186 126.223814,359.433186 C126.664543,359.433186 127.384151,359.433186 127.384151,358.598674 C127.384151,357.761649 126.609763,357.70635 125.446937,357.648537 C122.685535,357.482641 122.685535,355.977001 122.685535,353.689635 L122.685535,344.339083 L122.685535,343.630251 C122.685535,341.772709 122.685535,341.036227 123.741292,340.744651 C124.43351,340.553618 127.423991,340.553618 129.328835,340.553618 C130.94733,340.553618 135.103128,340.553618 136.009485,344.087724 C136.138965,344.417004 136.567243,346.113677 136.721623,346.576177 C136.833672,346.905458 137.082672,347.654507 137.75995,347.621831 C138.536827,347.58664 138.539317,346.840104 138.539317,346.382631 L138.280358,343.305998 C138.150879,341.797845 138.150879,340.684325 138.150879,340.096145 C138.150879,339.115845 138.342608,334.661765 138.342608,333.746819 C138.342608,333.093286 138.145899,332.668489 137.56822,332.630785 C136.988052,332.593081 136.656883,333.158639 136.529893,333.681465 C135.705706,337.079838 134.776939,338.525152 129.523054,338.525152 C128.551957,338.525152 124.697449,338.525152 123.723862,338.394445 C122.882244,338.263738 122.685535,338.195871 122.685535,334.661765 L122.685535,325.499733 C122.685535,322.4231 123.791092,322.28988 125.997225,322.28988 C136.089165,322.28988 136.933272,323.684922 138.870486,328.051026 C139.109526,328.593961 139.365995,329.360606 140.080623,329.360606 C140.795251,329.360606 140.795251,328.314953 140.795251,328.116379 L140.795251,321.178873 C140.795251,320.326767 140.728021,320 139.692184,320 M185.048643,344.4346 C182.80267,344.4346 182.80267,344.34411 182.80267,342.755522 L182.80267,335.144374 C182.80267,333.374808 182.847489,332.288937 184.914183,332.288937 C190.481807,332.288937 191.109285,337.13765 191.109285,338.76897 C191.109285,344.4346 186.667138,344.4346 185.048643,344.4346 M199.32128,358.073334 C198.068814,357.884815 197.436356,356.758727 196.542448,355.175166 L192.187451,347.380526 C191.154105,345.475225 190.616266,345.206271 190.028628,344.841801 C191.557483,344.525089 196.181399,343.439218 196.181399,338.135545 C196.181399,336.549471 195.506611,331.019575 187.563535,331.019575 C186.213959,331.019575 180.245447,331.203067 179.032821,331.203067 C178.494983,331.203067 176.293829,331.019575 175.84563,331.019575 C174.364085,331.019575 174.182315,331.019575 174.182315,331.655513 C174.182315,332.288937 174.814774,332.334182 175.800811,332.379426 C177.996984,332.51516 177.996984,333.739278 177.996984,335.59682 L177.996984,354.810695 C177.996984,356.713482 177.996984,357.894869 175.800811,358.073334 C174.857103,358.118579 174.182315,358.163823 174.182315,358.799761 C174.182315,359.47843 174.769954,359.433186 175.126023,359.433186 C175.93527,359.433186 179.570659,359.254721 180.335087,359.254721 C180.514366,359.254721 184.869363,359.433186 185.723431,359.433186 C186.0795,359.433186 186.667138,359.47843 186.667138,358.845006 C186.667138,358.163823 186.03717,358.118579 185.048643,358.073334 C182.80267,357.940114 182.80267,356.713482 182.80267,354.810695 L182.80267,346.656612 C182.80267,345.88494 182.894799,345.613473 183.656737,345.613473 C185.678611,345.613473 185.90271,345.794451 186.888747,347.742483 L192.321911,358.073334 C192.81244,359.025984 192.994209,359.433186 193.803457,359.433186 L199.717189,359.433186 C200.033418,359.433186 200.479127,359.357778 200.479127,358.89025 C200.479127,358.395073 200.262497,358.216609 199.32128,358.073334 M213.210209,344.4346 C210.964236,344.4346 210.964236,344.34411 210.964236,342.755522 L210.964236,335.144374 C210.964236,333.374808 211.009056,332.288937 213.07575,332.288937 C218.643373,332.288937 219.270851,337.13765 219.270851,338.76897 C219.270851,344.4346 214.828705,344.4346 213.210209,344.4346 M227.482847,358.073334 C226.23038,357.884815 225.597922,356.758727 224.704015,355.175166 L220.349018,347.380526 C219.315671,345.475225 218.777833,345.206271 218.190194,344.841801 C219.71905,344.525089 224.342966,343.439218 224.342966,338.135545 C224.342966,336.549471 223.668178,331.019575 215.725102,331.019575 C214.375526,331.019575 208.407014,331.203067 207.194387,331.203067 C206.656549,331.203067 204.455396,331.019575 204.007197,331.019575 C202.525651,331.019575 202.343882,331.019575 202.343882,331.655513 C202.343882,332.288937 202.97634,332.334182 203.962377,332.379426 C206.158551,332.51516 206.158551,333.739278 206.158551,335.59682 L206.158551,354.810695 C206.158551,356.713482 206.158551,357.894869 203.962377,358.073334 C203.01867,358.118579 202.343882,358.163823 202.343882,358.799761 C202.343882,359.47843 202.93152,359.433186 203.287589,359.433186 C204.096837,359.433186 207.732226,359.254721 208.496654,359.254721 C208.675933,359.254721 213.03093,359.433186 213.884997,359.433186 C214.241066,359.433186 214.828705,359.47843 214.828705,358.845006 C214.828705,358.163823 214.196246,358.118579 213.210209,358.073334 C210.964236,357.940114 210.964236,356.713482 210.964236,354.810695 L210.964236,346.656612 C210.964236,345.88494 211.056366,345.613473 211.818304,345.613473 C213.840177,345.613473 214.064277,345.794451 215.050314,347.742483 L220.483478,358.073334 C220.974006,359.025984 221.155776,359.433186 221.965023,359.433186 L227.878755,359.433186 C228.194984,359.433186 228.640693,359.357778 228.640693,358.89025 C228.640693,358.395073 228.424064,358.216609 227.482847,358.073334 M338.97525,344.4346 C336.729277,344.4346 336.729277,344.34411 336.729277,342.755522 L336.729277,335.144374 C336.729277,333.374808 336.774097,332.288937 338.84079,332.288937 C344.408414,332.288937 345.035892,337.13765 345.035892,338.76897 C345.035892,344.4346 340.593745,344.4346 338.97525,344.4346 M353.247887,358.073334 C351.995421,357.884815 351.362963,356.758727 350.469056,355.175166 L346.114059,347.380526 C345.080712,345.475225 344.540383,345.206271 343.955235,344.841801 C345.484091,344.525089 350.108007,343.439218 350.108007,338.135545 C350.108007,336.549471 349.433219,331.019575 341.490143,331.019575 C340.140567,331.019575 334.172054,331.203067 332.959428,331.203067 C332.42159,331.203067 330.220436,331.019575 329.772238,331.019575 C328.290692,331.019575 328.108923,331.019575 328.108923,331.655513 C328.108923,332.288937 328.741381,332.334182 329.727418,332.379426 C331.923591,332.51516 331.923591,333.739278 331.923591,335.59682 L331.923591,354.810695 C331.923591,356.713482 331.923591,357.894869 329.727418,358.073334 C328.783711,358.118579 328.108923,358.163823 328.108923,358.799761 C328.108923,359.47843 328.694071,359.433186 329.05263,359.433186 C329.861877,359.433186 333.497267,359.254721 334.261694,359.254721 C334.440974,359.254721 338.795971,359.433186 339.650038,359.433186 C340.006107,359.433186 340.593745,359.47843 340.593745,358.845006 C340.593745,358.163823 339.961287,358.118579 338.97525,358.073334 C336.729277,357.940114 336.729277,356.713482 336.729277,354.810695 L336.729277,346.656612 C336.729277,345.88494 336.821407,345.613473 337.583344,345.613473 C339.605218,345.613473 339.829318,345.794451 340.815355,347.742483 L346.248518,358.073334 C346.739047,359.025984 346.920816,359.433186 347.730064,359.433186 L353.643796,359.433186 C353.960025,359.433186 354.405734,359.357778 354.405734,358.89025 C354.405734,358.395073 354.189104,358.216609 353.247887,358.073334"/>
  </g>
</svg>
