<svg xmlns="http://www.w3.org/2000/svg" width="20" height="20" viewBox="0 0 20 20"><g fill="none" fill-rule="evenodd"><path d="M0 0h20v20H0z"/><path fill="#666" d="M19.995 10.772c-.378-4.062-3.94-7.256-8.398-7.875-.016-.043-1.119-2.556-1.135-2.6A.51.51 0 0 0 9.992 0a.51.51 0 0 0-.47.297c-.019.041-1.119 2.557-1.135 2.6a10.708 10.708 0 0 0-5.14 2.147C1.436 6.428.272 8.432.002 10.625a.477.477 0 0 0 .24.465.53.53 0 0 0 .544-.008 6.186 6.186 0 0 1 5.118-.625.544.544 0 0 0 .463-.07 7.737 7.737 0 0 1 2.905-.884v1.394c-1.095.23-1.856 1.18-1.799 2.247 0 2.525 3.037 2.01 3.037 3.41 0 1.009-1.54.996-2.77.227l-.33 1.478a3.562 3.562 0 0 0 1.8.544V20h1.047v-1.287c1.139-.231 1.932-1.216 1.871-2.322 0-2.675-3.026-2.222-3.026-3.46 0-.937 1.313-.84 2.422-.278l.305-1.428a3.524 3.524 0 0 0-1.533-.415V9.472a7.77 7.77 0 0 1 3.424.938.532.532 0 0 0 .447.028c1.682-.659 3.609-.37 4.996.75a.53.53 0 0 0 .563.058.48.48 0 0 0 .27-.474h-.002zM9.999 1.744l.36.84h-.735l.375-.84zM5.567 9.375a7.26 7.26 0 0 0-4.373.403c.742-2.83 3.24-4.953 6.257-5.715C6.08 5.403 5.515 7.5 5.567 9.375zm7.836-.19a8.786 8.786 0 0 0-6.818.028 6.701 6.701 0 0 1 1.063-3.819c2.233-3.253 5.775-.662 5.755 3.778v.013zm1.017.172c.046-1.875-.528-3.957-1.884-5.275 3.178.797 5.555 3.025 6.26 5.718a6.135 6.135 0 0 0-4.379-.456l.003.013z"/></g></svg>