<?xml version="1.0" encoding="UTF-8"?>
<svg width="80px" height="80px" viewBox="0 0 80 80" version="1.1" xmlns="http://www.w3.org/2000/svg" xmlns:xlink="http://www.w3.org/1999/xlink">
    <title>icon-about-healthcare</title>
    <g id="icon-about-healthcare" stroke="none" stroke-width="1" fill="none" fill-rule="evenodd">
        <g id="↳-Label-Icon" fill="#2F78C4">
            <path d="M59.7187501,11.5812499 C75.8627536,11.5812499 83.9578458,30.4173871 69.7751106,45.7849642 L67.8686243,47.8314227 L65.7951561,50.0185814 L63.5613118,52.3406843 L59.5325035,56.4618796 C58.2079624,57.8051691 56.8598057,59.1625825 55.4843362,60.5387832 L51.2722914,64.7284099 L46.8741852,69.0587393 L41.3304163,74.4779168 L41.2375,74.6093751 C41.08125,74.7851564 40.8664063,74.9169923 40.5929688,74.971924 L40.3,75.0000001 L39.675,75.0000001 L39.3637433,74.9681781 C39.0744176,74.9060453 38.8504483,74.7575142 38.6879045,74.5633898 L38.5742334,74.4108043 L30.8720892,66.8647894 L26.5674283,62.604164 L22.4387618,58.4718081 L18.8097097,54.7926688 L15.279604,51.1579679 L12.1034766,47.821535 L10.1937117,45.7725425 C-3.97396931,30.4139037 4.12910862,11.5812499 20.2687499,11.5812499 C25.6574632,11.5812499 30.6647435,13.9968918 35.2207036,18.0098446 C36.8008283,19.4016404 38.202514,20.8784069 39.4710995,22.4037244 L39.9883545,23.0432499 L40.1070143,22.8920003 C40.2334956,22.7342765 40.3644558,22.5734558 40.5027393,22.4062844 C41.7582218,20.8885254 43.1637828,19.4048461 44.7471621,18.0099216 C49.3002029,13.9987869 54.3186143,11.5812499 59.7187501,11.5812499 Z M59.7187501,14.0812499 C55.0201491,14.0812499 50.5371108,16.2408797 46.399767,19.885794 C44.9230282,21.1867703 43.6059606,22.577038 42.4290952,23.9997563 L41.710485,24.8953608 L40.9382436,25.8965459 L40.7058307,26.1062778 L40.5375282,26.1786392 L40.1520204,26.3053558 L40.0013297,26.2557256 C39.770096,26.3788648 39.6420306,26.3624578 39.4856333,26.255648 L39.0895489,25.9295781 L39.0004358,25.8180873 C38.957957,25.7787735 38.9244683,25.7362994 38.8972279,25.688234 L37.9158258,24.449554 C37.7985488,24.3044486 37.6779422,24.1573651 37.5489902,24.0023162 C36.357786,22.5700403 35.0430137,21.1848426 33.5682735,19.885871 C29.4278664,16.238943 24.9552772,14.0812499 20.2687499,14.0812499 C6.31824513,14.0812499 -0.665774344,30.3130599 12.0311166,44.0772717 L13.9271091,46.1114533 L15.9910828,48.2878643 L18.2162313,50.6005021 L22.2134443,54.6895095 L24.2135867,56.711126 L28.332091,60.833294 L32.6272802,65.0845341 L39.9863545,72.2962499 L45.124071,67.2734941 L49.5127963,62.9524063 L53.714963,58.7726204 L59.3876721,53.0426568 L62.8933914,49.432837 C63.2636564,49.0479568 63.6273606,48.6686043 63.9843628,48.2949037 L66.0448235,46.1215172 L67.9376648,44.0897377 C80.6497997,30.3156164 73.6728547,14.0812499 59.7187501,14.0812499 Z M42.35,31.068125 C44.1704644,31.068125 45.6462112,32.5438717 45.65625,34.374375 L45.65625,34.374375 L45.6537497,39.59125 L50.888156,39.5925191 C52.5760834,39.6018446 53.965488,40.8740147 54.1633882,42.5191402 L54.1633882,42.5191402 L54.1875001,42.905 L54.1875001,47.9675 C54.1875001,49.7864008 52.7070728,51.2699317 50.88125,51.28 L50.88125,51.28 L45.6537497,51.2779167 L45.6562309,56.511906 C45.6469134,58.1983846 44.3760896,59.5890057 42.734904,59.7871106 L42.734904,59.7871106 L42.35,59.8112501 L37.273757,59.8112501 C35.4501217,59.8012112 33.974375,58.3254645 33.974375,56.5050001 L33.974375,56.5050001 L33.9737496,51.2745834 L28.6992668,51.2749805 C27.0233677,51.265618 25.6474108,50.0086994 25.459396,48.3866493 L25.459396,48.3866493 L25.4374999,48.00625 L25.4437496,47.9345834 L25.4437499,42.90625 C25.4437499,41.2114582 26.7148672,39.816614 28.3633011,39.6179529 L28.3633011,39.6179529 L28.75,39.59375 L33.9737496,39.59125 L33.975,34.374375 C33.975,32.6770802 35.2497377,31.2811071 36.8953269,31.090342 L36.8953269,31.090342 L37.28125,31.068125 Z M42.35,33.568125 L37.28125,33.568125 C36.8341059,33.568125 36.475,33.9272309 36.475,34.374375 L36.475,34.374375 L36.475,40.80625 L36.310917,41.3380175 C36.1863363,41.6814581 36.0627081,41.8050863 35.7192675,41.929667 L35.7192675,41.929667 L35.1875,42.09375 L28.756868,42.0937311 C28.305118,42.0962133 27.9437499,42.4583405 27.9437499,42.90625 L27.9437499,42.90625 L27.9404163,48.0379167 L27.9648817,48.2100088 C28.0362924,48.4695549 28.2408804,48.6741428 28.5014922,48.7466192 L28.5014922,48.7466192 L28.70625,48.775 L35.186875,48.775 L35.6817042,48.9026333 C36.0031576,49.0055177 36.1267859,49.129146 36.2733537,49.4942828 L36.2733537,49.4942828 L36.474375,50.0625 L36.474375,56.5050001 C36.474375,56.9470357 36.8361282,57.3087889 37.280625,57.3112691 L37.280625,57.3112691 L42.343094,57.3112691 C42.7893863,57.3088034 43.1538034,56.9443864 43.15625,56.5050001 L43.15625,56.5050001 L43.15625,50.0675 L43.3187126,49.5341121 C43.4423288,49.1897071 43.5659571,49.0660788 43.9103621,48.9424626 L43.9103621,48.9424626 L44.44375,48.78 L50.8743441,48.7800191 C51.3198732,48.7775576 51.6875189,48.4091601 51.6875189,47.9675 L51.6875189,47.9675 L51.6875189,42.911868 C51.6850347,42.4597353 51.3210129,42.0949487 50.8813714,42.0925 L50.8813714,42.0925 L44.44375,42.093125 L43.8755328,41.8921037 C43.3643412,41.6869088 43.3265065,41.5266754 43.15625,40.805625 L43.15625,40.805625 L43.1562689,34.381243 C43.1537889,33.9298782 42.7920356,33.568125 42.35,33.568125 L42.35,33.568125 Z" id="Combined-Shape"></path>
        </g>
    </g>
</svg>