<svg xmlns="http://www.w3.org/2000/svg" width="20" height="20" viewBox="0 0 20 20"><g fill="none" fill-rule="evenodd"><path d="M0 0h20v20H0z"/><path fill="#666" d="M18.869 1.39a.43.43 0 0 0-.422-.019L9.954 5.617 1.462 1.371a.437.437 0 0 0-.629.389v13.463c0 .165.093.315.24.389l8.686 4.343c.004.002.01 0 .013.002a.427.427 0 0 0 .182.043.44.44 0 0 0 .182-.043c.004-.001.01 0 .013-.002l8.686-4.343a.433.433 0 0 0 .24-.389V1.76c0-.15-.079-.29-.206-.37zM1.702 2.462l7.818 3.91v12.492l-7.818-3.909V2.462zm16.504 0v12.493l-7.818 3.909V6.37l7.818-3.909zm-1.5-2.414a.435.435 0 0 1 .392.776L10.15 4.338a.433.433 0 0 1-.392 0L2.807.823A.435.435 0 0 1 3.2.048l6.754 3.418z"/></g></svg>