<?xml version="1.0" encoding="UTF-8"?>
<svg width="80px" height="80px" viewBox="0 0 80 80" version="1.1" xmlns="http://www.w3.org/2000/svg" xmlns:xlink="http://www.w3.org/1999/xlink">
    <title>icon-about-pharma</title>
    <g id="icon-about-pharma" stroke="none" stroke-width="1" fill="none" fill-rule="evenodd">
        <g id="↳-Label-Icon" fill="#2F78C4">
            <path d="M43.6986019,18.8377434 L43.820874,18.8389434 L44.0850363,18.8832364 C58.9769438,23.0262907 64.7267249,40.6490358 56.9337945,55.5396657 C57.2804154,56.3858323 57.4705069,57.2870611 57.4968305,58.1990778 L57.5,58.4187501 L57.4999999,65.6249998 L65.0000001,65.6250001 C67.1952457,65.6250001 69.0116775,67.2376847 69.3266644,69.3465001 L69.3524222,69.5520903 L69.3750001,70.0000001 L69.3750001,76.2500002 C69.3750001,76.8972088 68.8831255,77.4295341 68.2528052,77.4935465 L68.1249999,77.5000002 L11.8749999,77.5000002 C11.2277912,77.5000002 10.695466,77.0081255 10.6314535,76.3778054 L10.6249999,76.2500002 L10.6249999,69.9391714 C10.63378,67.5444858 12.5873036,65.609972 14.9749999,65.6186993 L15.0616666,65.6241668 L39.9999999,65.6239998 L39.9999999,59.3749998 L23.1249999,59.3750001 C22.434644,59.3750001 21.8749999,58.815356 21.8749999,58.1250001 C21.8749999,57.5209386 22.3034774,57.0169535 22.8730813,56.9003956 L23.1249999,56.8750001 L40.1484071,56.8752418 L40.189495,56.6770298 C40.9152789,53.3846646 43.7223995,50.5 48.55,50.5 L48.8611123,50.5038338 C49.3714344,50.5164772 49.8609073,50.5602078 50.3290545,50.6322756 C54.8702739,41.6027698 51.7610691,31.2452324 43.25952,27.6185018 C42.8756611,27.454749 42.6041226,27.113252 42.5242725,26.7141573 L42.5,26.4687499 L42.5,20.0874999 C42.5,19.3957475 43.0518236,18.8634568 43.6986019,18.8377434 Z M14.9516666,68.1175001 L14.672703,68.1417027 C13.8513097,68.2728292 13.2080431,68.9497735 13.1324301,69.7853209 L13.1249999,69.9437501 L13.1249999,74.9975001 L66.8750001,74.9975001 L66.8750001,70.0000001 C66.8750001,69.1204576 66.2738654,68.3856349 65.4596128,68.1814389 L65.3045377,68.1494647 L65.0000001,68.1250001 L14.9999999,68.1250001 L14.9516666,68.1175001 Z M48.55,53.0000001 L48.268677,53.0043702 C44.4729884,53.1232822 42.5928117,55.6496661 42.5033537,58.2255062 L42.5,58.4187501 L42.4983333,65.6241668 L54.9983333,65.6241668 L55.0000001,58.4187501 C55.0000001,55.8757676 53.1126377,53.3947028 49.456825,53.0425772 L49.1721226,53.0197246 L48.55,53.0000001 Z M44.9983334,21.8074999 L44.9983334,25.6641666 L45.5513926,25.9421441 C54.316253,30.5570799 57.399528,41.6374654 52.768686,51.3336704 C53.785054,51.7820922 54.6469303,52.3918555 55.345112,53.1119948 C61.1449009,40.5918334 56.8034785,26.5542194 45.5235496,22.0065715 L44.9983334,21.8074999 Z M38.125,2.49999984 C38.8153559,2.49999984 39.375,3.05964391 39.375,3.74999985 C39.375,4.3540613 38.9465225,4.85804646 38.3769186,4.9746043 L38.125,4.99999985 L33.1249999,4.99999984 L33.1249999,9.37499984 L38.7499999,9.37499987 L38.8778052,9.38145348 C39.466104,9.44119847 39.9338014,9.90889588 39.9935464,10.4971946 L40,10.6249999 L40,40 C40,40.6472087 39.5081253,41.1795339 38.8778052,41.2435464 L38.7499999,41.25 L36.2499999,41.2499998 L36.25,46.875 C36.25,47.5222087 35.7581253,48.0545339 35.1278052,48.1185464 L35,48.125 L29.375,48.125 C28.7277913,48.125 28.1954661,47.6331254 28.1314536,47.0028053 L28.125,46.875 L28.1249999,41.2499998 L24.9999999,41.25 C24.3527912,41.25 23.820466,40.7581253 23.7564535,40.1278052 L23.7499999,40 L23.7499999,10.6249999 C23.7499999,9.97779118 24.2418746,9.44546597 24.8721947,9.38145348 L24.9999999,9.37499987 L30.6249999,9.37499984 L30.6249999,4.99999984 L26.2499999,4.99999985 C25.559644,4.99999985 24.9999999,4.44035579 24.9999999,3.74999985 C24.9999999,3.1459384 25.4284774,2.64195323 25.9980813,2.5253954 L26.2499999,2.49999984 L38.125,2.49999984 Z M33.7479999,41.2499998 L30.6249999,41.2499998 L30.625,45.6241667 L33.7483333,45.6241667 L33.7479999,41.2499998 Z M31.8569999,11.8739998 L26.2483333,11.8741665 L26.2483333,38.7475 L37.4983333,38.7475 L37.4983333,11.8741665 L31.893315,11.8748684 C31.8872204,11.874956 31.8811153,11.8749999 31.875,11.8749999 L31.8569999,11.8739998 Z" id="Combined-Shape"></path>
        </g>
    </g>
</svg>