<svg xmlns="http://www.w3.org/2000/svg" width="20" height="20" viewBox="0 0 20 20"><g fill="none" fill-rule="evenodd"><path d="M0 0h20v20H0z"/><path fill="#666" d="M10.051 6.8c-1.537 0-2.784 1.521-2.784 3.402 0 1.88 1.25 3.4 2.784 3.4 1.534 0 2.784-1.52 2.784-3.4S11.588 6.8 10.05 6.8zm1.3 5.25a1.59 1.59 0 0 1-1.301.68 1.59 1.59 0 0 1-1.302-.68c-1.306-1.593-.387-4.374 1.3-4.374s2.615 2.771 1.303 4.374zM9.757 9.452c0-.142.091-.28.385-.28.227.002.45.06.65.17l.13-.567a1.552 1.552 0 0 0-.624-.164v-.466H9.81v.5a.89.89 0 0 0-.746.892c0 1.002 1.296.797 1.296 1.351 0 .4-.656.397-1.18.091l-.144.596c.254.143.54.216.83.214v.46h.379v-.504a.92.92 0 0 0 .803-.92c0-1.061-1.29-.882-1.29-1.373zm10.151-.778-.625-1.077c0-1.338.016-1.326-.053-1.493a.684.684 0 0 0-.625-.422H18.2l-2.1-3.669a.682.682 0 0 0-.937-.251L8.423 5.686H1.375a.685.685 0 0 0-.556.677v3.747l-.475.274a.686.686 0 0 0-.25.945l.722 1.26c0 1.543-.075 1.735.247 2.006.234.195.425.157.987.157l1.85 3.235a.682.682 0 0 0 .937.251l5.989-3.486c8.357 0 7.839 0 7.985-.031a.69.69 0 0 0 .478-.658V9.827l.366-.211a.686.686 0 0 0 .253-.942zM3.262 6.561A1.917 1.917 0 0 1 1.7 8.151v-1.59h1.562zm12.169-3.95.79 1.383a1.9 1.9 0 0 1-2.187-.573l1.397-.81zm-2.153 1.26a2.76 2.76 0 0 0 3.378.895l.53.92h-7.032l3.124-1.814zm-11.594 8.35c.816.132 1.454.78 1.581 1.602h-1.58V12.22zm2.878 5.13-.81-1.386a1.9 1.9 0 0 1 2.188.592l-1.378.793zm2.124-1.26a2.764 2.764 0 0 0-3.355-.917l-.272-.478h6.027l-2.4 1.395zm11.75-2.268h-1.621c.126-.841.785-1.5 1.622-1.619v1.62zm0-2.44a2.795 2.795 0 0 0-2.499 2.494H4.14a2.795 2.795 0 0 0-2.456-2.491V9.039A2.795 2.795 0 0 0 4.14 6.561h11.797a2.795 2.795 0 0 0 2.5 2.494v2.328zm0-3.228a1.916 1.916 0 0 1-1.608-1.597h1.609v1.597z"/></g></svg>