<?xml version="1.0" encoding="UTF-8"?>
<svg width="80px" height="80px" viewBox="0 0 80 80" version="1.1" xmlns="http://www.w3.org/2000/svg" xmlns:xlink="http://www.w3.org/1999/xlink">
    <title>icon-about-banking</title>
    <g id="icon-about-banking" stroke="none" stroke-width="1" fill="none" fill-rule="evenodd">
        <g id="↳-Label-Icon" fill="#2F78C4">
            <path d="M38.6468513,2.85897844 C39.4558458,2.27919904 40.530737,2.27919904 41.3451963,2.85332606 L41.3451963,2.85332606 L75.9930909,27.1705952 C76.9927946,27.872227 76.4963497,29.44375 75.2750001,29.44375 L75.2750001,29.44375 L4.72499985,29.44375 C3.50365033,29.44375 3.00720543,27.872227 4.00690909,27.1705952 L4.00690909,27.1705952 Z M39.9983333,4.96343735 L8.68166654,26.9434374 L71.3150001,26.9434374 L39.9983333,4.96343735 Z M40,14.0124999 C42.5872159,14.0124999 44.7497976,15.9631834 45.0320822,18.5861174 L45.0320822,18.5861174 L45.05625,19.0687499 C45.05625,21.8591059 42.7903559,24.1249999 40,24.1249999 C37.2052342,24.1249999 34.94375,21.8609488 34.94375,19.0687499 C34.94375,16.4771481 36.8930548,14.3180867 39.5176005,14.0365774 L39.5176005,14.0365774 Z M40.025,16.5134367 L39.7187171,16.5275621 C38.4279163,16.6669135 37.44375,17.7569818 37.44375,19.0687499 C37.44375,20.4808714 38.5865813,21.6249999 40,21.6249999 C41.4096441,21.6249999 42.55625,20.478394 42.5580567,19.1359325 L42.5580567,19.1359325 L42.5411588,18.7879172 C42.4015218,17.4988473 41.3080298,16.5124999 40.025,16.5134367 L40.025,16.5134367 Z M66.8750001,66.9437501 L13.6624999,66.9437501 C8.20292537,66.9437501 3.74999985,71.12142 3.74999985,76.3187502 C3.74999985,77.0091061 4.30964391,77.5687502 4.99999985,77.5687502 L75.0000001,77.5687502 C75.6903561,77.5687502 76.2499998,77.0091061 76.2499998,76.3187502 C76.2499998,71.142903 72.0486161,66.9437501 66.8750001,66.9437501 Z M66.8749999,69.4437501 L67.3876227,69.4626199 C70.4342297,69.6877241 72.9324816,71.9027774 73.5840922,74.8121829 L73.6316668,75.066771 L6.37499986,75.066771 L6.41287707,74.8800184 C7.12452022,71.7842406 10.0857518,69.4437501 13.6624999,69.4437501 L66.8749999,69.4437501 Z M22.4937499,33.81875 L14.9937499,33.81875 C14.303394,33.81875 13.7437499,34.378394 13.7437499,35.06875 L13.7437499,61.9437501 C13.7437499,62.634106 14.303394,63.1937501 14.9937499,63.1937501 L22.4937499,63.1937501 C23.1841059,63.1937501 23.7437499,62.634106 23.7437499,61.9437501 L23.7437499,35.06875 C23.7437499,34.378394 23.1841059,33.81875 22.4937499,33.81875 Z M21.2416666,36.3167708 L21.2416666,60.6934376 L16.2416666,60.6934376 L16.2416666,36.3167708 L21.2416666,36.3167708 Z M43.75,33.81875 L36.25,33.81875 C35.559644,33.81875 35,34.378394 35,35.06875 L35,61.9437501 C35,62.634106 35.559644,63.1937501 36.25,63.1937501 L43.75,63.1937501 C44.440356,63.1937501 45,62.634106 45,61.9437501 L45,35.06875 C45,34.378394 44.440356,33.81875 43.75,33.81875 Z M42.4983333,36.3167708 L42.4983333,60.6934376 L37.4983333,60.6934376 L37.4983333,36.3167708 L42.4983333,36.3167708 Z M65.0000001,33.81875 L57.5000001,33.81875 C56.8096441,33.81875 56.2500001,34.378394 56.2500001,35.06875 L56.2500001,61.9437501 C56.2500001,62.634106 56.8096441,63.1937501 57.5000001,63.1937501 L65.0000001,63.1937501 C65.690356,63.1937501 66.2500001,62.634106 66.2500001,61.9437501 L66.2500001,35.06875 C66.2500001,34.378394 65.690356,33.81875 65.0000001,33.81875 Z M63.7483334,36.3167708 L63.7483334,60.6934376 L58.7483334,60.6934376 L58.7483334,36.3167708 L63.7483334,36.3167708 Z" id="Combined-Shape"></path>
        </g>
    </g>
</svg>