<?xml version="1.0" encoding="UTF-8"?>
<svg width="80px" height="80px" viewBox="0 0 80 80" version="1.1" xmlns="http://www.w3.org/2000/svg" xmlns:xlink="http://www.w3.org/1999/xlink">
    <title>icon-about-internet</title>
    <g id="icon-about-internet" stroke="none" stroke-width="1" fill="none" fill-rule="evenodd">
        <g id="↳-Label-Icon" fill="#2F78C4">
            <path d="M39.5275214,41.8004563 L39.9859283,41.8375412 C41.7624954,42.0721159 43.1314861,43.5685135 43.1922829,45.3632659 L43.1937499,45.5566586 L43.1877651,50.1621571 L43.325904,50.1153173 C43.4933818,50.0627186 43.666184,50.0209556 43.8434914,49.9908397 L44.112729,49.9545028 L44.5279129,49.9340866 L44.9502394,49.9654645 C45.9301076,50.0987305 46.783324,50.6071486 47.3684133,51.3360894 L47.4986099,51.5081507 L47.6077651,51.6754904 L47.9279127,51.5160552 C48.2184348,51.3876989 48.5293766,51.2935891 48.8558189,51.2390017 L49.10348,51.2055541 L49.5279129,51.1840866 L49.9502394,51.2154645 C51.3321048,51.4034037 52.4620822,52.3374542 52.9433687,53.5839188 L53.0106469,53.7731774 L53.0577651,53.9654904 L53.3013448,53.8738282 C53.471725,53.8188829 53.6477751,53.775186 53.8286513,53.7436421 L54.10348,53.7055541 L54.5279129,53.6840866 L54.9502395,53.7154646 C56.7332357,53.957959 58.0968817,55.4426007 58.1888061,57.2377652 L58.1937501,57.4312501 L58.1937501,76.3187502 C58.1937501,76.9659588 57.7018754,77.4982841 57.0715553,77.5622965 L56.9437501,77.5687502 L37.45,77.5687502 C37.1221136,77.5687502 36.8093612,77.4400375 36.5772456,77.2136354 L36.4828955,77.1107153 L26.6996792,65.1634893 C25.9888339,64.3341698 25.6524084,63.2502545 25.7686765,62.1223452 L25.8005487,61.8800538 L25.9062615,61.3930999 C26.1520484,60.533513 26.6696258,59.7791445 27.4054013,59.2238299 L27.6114369,59.0773862 L28.037653,58.8141721 C28.8203802,58.3927462 29.7086402,58.2132165 30.7405305,58.3310818 L31.0255448,58.370642 L31.5995444,58.5542629 C32.1180196,58.7515289 32.6081309,59.0212647 33.0629925,59.3594925 L33.3316245,59.5706164 L33.5586106,59.764062 L33.7734543,59.96267 L35.6944317,61.8421571 L35.74375,45.55 C35.74375,43.6831735 37.1067239,42.1356627 38.9168936,41.8482935 L39.1125099,41.8223688 L39.5275214,41.8004563 Z M39.3554055,44.2900091 L39.4644317,44.3021571 L39.2416769,44.3253806 C38.7125198,44.4335705 38.3056251,44.8758968 38.2501933,45.4251148 L38.2437447,45.5536514 L38.1874947,64.8099015 C38.1843857,65.8742035 36.950271,66.430634 36.1533393,65.7802678 L36.0634207,65.6998302 L31.9046254,61.6379775 L31.7262971,61.4870665 C31.4786133,61.2816015 31.2096694,61.1117779 30.9606394,60.9933525 L30.7782441,60.9144167 L30.4642268,60.7988055 C30.0975731,60.7440811 29.7260947,60.7922531 29.4324802,60.910241 L29.2925445,60.9748999 L28.9693225,61.1760947 C28.6943774,61.3602323 28.483939,61.6216185 28.3763459,61.8709477 L28.3312973,61.9941941 L28.2582944,62.3334595 C28.1985794,62.7096641 28.2862899,63.0954003 28.5111292,63.4219226 L28.6158545,63.5580349 L38.037765,75.0654905 L55.6910984,75.0654905 L55.6937501,57.4312501 C55.6937501,56.9400748 55.4050856,56.5075602 55.0250001,56.3084776 L54.919222,56.2601012 L54.6976225,56.2012253 L54.4437501,56.1812501 C53.7960369,56.1812501 53.2641531,56.6726518 53.2001978,57.3033562 L53.1937501,57.4312501 L53.1656739,57.7242188 C52.8998756,59.0473035 50.8335085,58.9985262 50.7004711,57.5778869 L50.69375,57.4312501 L50.69375,54.9312501 C50.69375,54.3507702 50.2905741,53.8522214 49.8097997,53.7240878 L49.6976225,53.7012253 L49.44375,53.6812501 C48.7960369,53.6812501 48.2641531,54.1726518 48.2001977,54.8033561 L48.19375,54.9312501 L48.1656739,55.2242188 C47.8998756,56.5473035 45.8335085,56.4985262 45.700471,55.0778869 L45.69375,54.9312501 L45.69375,53.6812501 C45.69375,53.1007702 45.2905741,52.6022214 44.8097997,52.4740878 L44.6976225,52.4512253 L44.44375,52.4312501 C43.8611102,52.4312501 43.3643782,52.8318394 43.2357964,53.3239262 L43.2127873,53.4389682 L43.1873239,53.7658902 C43.0667073,55.314474 40.8366445,55.2759329 40.6978598,53.8143005 L40.6910984,53.6684152 L40.6939643,45.5331058 C40.7062441,44.8699961 40.1820354,44.3211411 39.3554055,44.2900091 Z M39.470778,19.2875273 L39.928702,19.3122809 C42.2672779,19.5511856 44.1016789,21.4844408 44.1947992,23.903955 L44.19839,24.1321722 L44.1704933,24.6344941 C44.0184575,25.9813975 43.2926506,27.2061325 42.1959836,27.9684267 C41.7387981,28.2997306 41.2308293,28.5436703 40.6786911,28.6856774 L40.7074702,34.952859 C43.1372925,35.1192895 45.5069013,36.0490636 47.4278373,37.6933856 L51.6854205,33.5580629 C51.3106998,32.9110402 51.0967626,32.1794691 51.0698454,31.4249525 L51.0685693,31.1410535 L51.0910984,30.9454903 L51.1031309,30.700347 C51.1929409,29.7785847 51.5550295,28.9046637 52.1598748,28.1675716 L52.3308292,27.9700058 L52.7083182,27.5968335 L53.0471415,27.3290772 C53.4213016,27.0355054 53.8441037,26.8106158 54.3469876,26.6499438 L54.6052486,26.5749386 L55.0101383,26.4947115 C56.55106,26.2177717 58.1170918,26.7145154 59.2187733,27.806071 L59.3887928,27.9833389 L59.7517915,28.4336444 C60.0330209,28.8104918 60.2502591,29.231056 60.4083385,29.7262222 L60.4824707,29.9801652 L60.5720161,30.4226119 C60.8131501,31.9403372 60.3111129,33.474743 59.1885345,34.6010616 L59.0061463,34.7754482 L58.6201251,35.0842627 C58.1065749,35.4655348 57.5167605,35.7291415 56.7647674,35.8663597 L56.4750001,35.911875 L56.696207,35.8920338 C55.5880237,36.0918701 54.4534175,35.8933541 53.4602615,35.3198823 L49.1396317,39.5161569 L49.2763574,39.6980177 C50.315641,41.1288112 51.0087507,42.7790628 51.3093609,44.5178069 L51.3644318,44.9221571 L58.8266317,44.9241569 L58.8294605,44.9114701 C58.9285189,44.4562304 59.1022191,44.0218167 59.3778369,43.5786451 L59.5242652,43.3561924 L59.8390637,42.9668222 C60.6869543,42.031797 61.8752621,41.4763988 63.1356923,41.4228145 L63.3886605,41.4188247 L63.9113361,41.4439798 C65.0051335,41.5581397 66.0257408,42.0507615 66.8106684,42.8429751 C68.593041,44.6582025 68.624904,47.5408041 66.8640719,49.4546529 L66.6937406,49.6311759 L66.2897491,49.9734356 C65.5447938,50.533188 64.653638,50.8649237 63.6767013,50.9265091 L63.4081826,50.9365755 L62.9337244,50.9161784 C61.8381067,50.8096266 60.8173849,50.3203771 60.0690122,49.5430164 C59.4720345,48.9414815 59.0556013,48.2071454 58.8428409,47.425018 L50.224375,47.425 C49.5493067,47.425 48.9961979,46.8890016 48.9749919,46.2142664 C48.914492,44.2892697 48.2491243,42.438493 47.0745206,40.929071 C44.0043528,36.974651 38.3094097,36.2610842 34.359696,39.3373545 C30.5632332,42.284886 29.7538919,47.6516915 32.4163859,51.5749632 L32.7610983,52.0588238 L32.8177696,52.1261132 C32.9076232,52.259114 32.9725522,52.4103375 33.0058544,52.5730815 L33.03125,52.8250001 C33.03125,53.4290615 32.6027725,53.9330467 32.0331686,54.0496045 L31.78125,54.0750001 C31.3948869,54.0750001 31.0307549,53.896909 30.7939347,53.5924258 C29.9315259,52.4836145 29.3026425,51.2674423 28.8998542,50.0030833 L21.1771273,50.0417905 C20.904919,51.0100752 20.3273356,51.8865573 19.4987652,52.5397634 L19.2864252,52.6983373 L18.8973845,52.9481017 C18.5072506,53.1682561 18.0844075,53.3276855 17.6254895,53.4231033 L17.3457828,53.4726463 L16.8403524,53.5299058 C15.5643051,53.6017958 14.3144102,53.1598528 13.339813,52.2731891 L13.148638,52.0899472 L12.8310834,51.736811 C12.1938808,50.9466909 11.8347277,49.9771189 11.807419,48.9411958 L11.8075364,48.6808981 L11.837461,48.1823713 C11.9838956,46.9282852 12.6262595,45.7880075 13.628935,45.0105123 L13.8342341,44.8599241 L14.2177067,44.6026225 C14.609079,44.3730034 15.0354732,44.2100534 15.4806707,44.1194815 L15.7499158,44.0738694 L16.2974753,44.0105815 C17.8429952,43.9255388 19.3346032,44.6004415 20.3099769,45.8292214 L20.4596259,46.0278121 L20.725913,46.4183453 C20.9319865,46.7619005 21.0895315,47.1320632 21.1965336,47.5407348 L28.3999716,47.5045393 C28.1613547,44.7635119 28.9035844,41.9785934 30.557322,39.7019842 L26.0475946,35.3216068 C25.1562173,35.8405568 24.1105807,36.0604292 23.0565477,35.9310573 L22.7929489,35.8914094 L22.3397261,35.7937128 C21.9043224,35.6735896 21.4919312,35.4868204 21.1015097,35.2277367 L20.8698848,35.0635634 L20.458569,34.7317462 C19.3218858,33.6978817 18.7506666,32.1845029 18.9267381,30.6305377 L18.9607755,30.3849015 L19.0544292,29.9194763 C19.1732145,29.4669115 19.3636863,29.038216 19.6283553,28.6395112 L19.7960805,28.4039362 L20.1291899,27.988585 C21.1704026,26.8376913 22.7064128,26.2681863 24.2473394,26.4575107 L24.490613,26.493736 L24.9784646,26.5938469 C25.423772,26.7135758 25.8456199,26.9051398 26.2354679,27.1679036 L26.4654684,27.3341007 L26.8571328,27.6485142 C27.8604296,28.5516563 28.4323613,29.8426569 28.4247429,31.1684002 C28.4416256,32.0007181 28.2278707,32.8186761 27.809192,33.5459694 L32.2395773,37.8495377 C32.4280851,37.6825108 32.6232525,37.5204883 32.8250347,37.3638269 C34.4497086,36.0984342 36.3060907,35.3357105 38.2071517,35.0521625 L38.1774637,28.6763913 C37.2006637,28.4082866 36.3185094,27.8295969 35.6686823,26.9989545 L35.5111453,26.7860788 L35.2575025,26.3960872 C35.0259088,25.9923821 34.8627665,25.5593529 34.776736,25.1138501 L34.7344405,24.8451864 L34.6722333,24.3386648 C34.589438,23.0556652 35.0348202,21.7991176 35.9378717,20.8206824 L36.1245633,20.628778 L36.4767491,20.3179462 C37.3252805,19.644038 38.3800171,19.2803037 39.470778,19.2875273 Z M16.6757498,46.4985451 L16.5152025,46.4997753 L16.0744316,46.5521571 L15.8777887,46.5923338 L15.6940708,46.6503908 L15.5528946,46.7145876 L15.2490994,46.9209969 C14.782289,47.2446522 14.4629697,47.7342326 14.3551376,48.2308602 L14.3271143,48.3964457 L14.3051807,48.7833215 C14.2934835,49.2219662 14.4193148,49.6498037 14.6330119,49.9779133 L14.7298312,50.1121666 L14.9616384,50.3695096 C15.3717157,50.7827413 15.9259947,51.0198893 16.4502374,51.0413702 L16.6236335,51.0404885 L17.0161891,50.9947457 C17.1988039,50.9676917 17.3780367,50.9133296 17.5114553,50.8551341 L17.602266,50.8111355 L17.8834213,50.6297442 C18.4705058,50.2141676 18.8258075,49.5492197 18.857347,48.9039779 L18.8584336,48.7432337 L18.8203308,48.3599265 C18.7918779,48.1760769 18.7341886,47.9964304 18.6720319,47.8623687 L18.6249638,47.7710161 L18.413842,47.464585 C18.0259906,46.9221991 17.4306275,46.5815178 16.837345,46.5110212 L16.6757498,46.4985451 Z M63.3444318,43.9154904 L62.9839395,43.9462311 C62.551591,44.0141997 62.153715,44.2033185 61.8600479,44.4692632 L61.740774,44.5878139 L61.5305011,44.8450081 C61.4313799,44.9893803 61.3555237,45.1479769 61.3126936,45.2749629 L61.286916,45.3635593 L61.2220302,45.7882585 C61.0858577,46.5091718 61.3148425,47.2493028 61.8566504,47.7954479 C62.1594927,48.1099381 62.5549061,48.3206331 62.9391147,48.3980432 L63.102787,48.4229727 L63.4390104,48.4376189 C63.8635692,48.4317629 64.278964,48.3064404 64.5965219,48.1117278 L64.7263696,48.0241771 L65.0014118,47.7933398 C65.8886957,46.9141221 65.8999002,45.4836867 65.0308029,44.598551 C64.7015792,44.2662789 64.2886829,44.0453137 63.8930413,43.9627633 L63.7248312,43.9359379 L63.3444318,43.9154904 Z M23.7281348,28.9225181 C23.1283957,28.9045675 22.5517781,29.1187219 22.1501461,29.4888628 L22.0350579,29.6045085 L21.7696303,29.9383566 C21.6606218,30.0815639 21.57408,30.2442067 21.5223133,30.3804237 L21.4902009,30.4769149 L21.4211099,30.8267586 C21.3060256,31.5304164 21.528861,32.2429127 21.9660607,32.7169448 L22.079755,32.8303417 L22.4024547,33.0887207 C22.5448033,33.1960297 22.7039343,33.2816059 22.8359639,33.3332581 L22.9292189,33.365446 L23.2687916,33.4374218 C23.8303415,33.5372529 24.4159446,33.4118439 24.8533186,33.1310061 L24.9933837,33.0317326 L25.2724019,32.7843813 C25.6995811,32.3690683 25.9369647,31.796288 25.9250184,31.1869566 C25.9281674,30.6075396 25.7095137,30.0553282 25.3629856,29.6758471 L25.2428689,29.5559505 L24.9231906,29.3016062 C24.7825848,29.1929563 24.625551,29.107588 24.4977806,29.0574202 L24.4081536,29.0265807 L24.1383719,28.9675106 L23.7281348,28.9225181 Z M55.7977282,28.9178128 L55.4748296,28.9510379 L55.1714937,29.0086135 C55.009571,29.0518772 54.8583591,29.1175417 54.7232861,29.2022651 L54.5937937,29.2932177 L54.3170822,29.5088999 C53.8898762,29.8913242 53.629923,30.4207682 53.5872752,30.989339 L53.5811762,31.1801638 L53.5710984,31.2988237 L53.5876734,31.5549384 C53.626598,31.8290726 53.7192589,32.0918797 53.8563156,32.3250407 L53.9672865,32.4940665 L54.186856,32.7464064 L54.4459656,32.9835528 C54.9057766,33.3489958 55.4996419,33.5185965 56.2621971,33.4396175 L56.4743751,33.411875 L56.2918142,33.4253706 C56.5334355,33.3895749 56.7662934,33.3057821 56.9573877,33.1943732 L57.092362,33.105957 L57.3801707,32.8781309 C57.9070813,32.3965139 58.1807268,31.6981063 58.1319804,31.0350181 L58.1130372,30.8701277 L58.0511771,30.5572105 C58.0013482,30.3725588 57.9257123,30.1996138 57.8401574,30.0604215 L57.7743797,29.9627004 L57.5277651,29.6554903 L57.2991332,29.4375354 C56.872622,29.0872367 56.3367004,28.9027829 55.7977282,28.9178128 Z M39.4544356,21.7874739 C38.9986965,21.7844558 38.5587306,21.9161586 38.222639,22.1326749 L38.0852162,22.2305148 L37.8293693,22.4564076 C37.4120113,22.8643515 37.1758868,23.4126758 37.1575639,23.9291229 L37.1595731,24.099855 L37.2151823,24.535557 C37.235574,24.7027683 37.2849238,24.8691587 37.3421605,24.9981851 L37.3862375,25.0873781 L37.5796649,25.382547 C37.9929463,25.972949 38.6622426,26.3267415 39.3130887,26.3502191 L39.475257,26.3491527 L39.8889494,26.3007045 C40.1754561,26.2577285 40.4648449,26.1355076 40.7488685,25.9299799 C41.2198998,25.6024416 41.5443927,25.1016171 41.6521834,24.5984423 L41.6799913,24.4308648 L41.700026,24.0606856 C41.7080692,22.813988 40.702055,21.7955231 39.4544356,21.7874739 Z M46.9224327,13.7473637 L47.4410984,14.2488236 L47.9530875,14.7942304 C48.3062792,15.1967998 48.6335959,15.6259958 48.9327798,16.0781651 L49.3601736,16.7731926 C49.7022076,17.3728626 49.4933523,18.1362645 48.8936823,18.4782984 C48.2940124,18.8203324 47.5306105,18.6114772 47.1885765,18.0118072 C46.8661134,17.4464499 46.4929542,16.9210495 46.0759456,16.4454001 L45.6310984,15.9688236 C43.9019612,14.2030334 41.5154151,13.2739925 39.0421577,13.4022069 L38.4223673,13.4564122 C36.9744135,13.5841728 35.592147,14.1010306 34.4209988,14.9459614 L33.9324278,15.3279828 C33.2148897,15.926468 32.5936567,16.6247931 32.0810419,17.4061282 L31.7110983,18.0054903 L31.6615196,18.0988868 C31.4818124,18.3648885 31.2024065,18.5579999 30.8769186,18.6246044 L30.625,18.6499999 C30.0209385,18.6499999 29.5169533,18.2215224 29.4003955,17.6519185 L29.375,17.3999999 L29.5328608,16.791319 C30.1094791,15.7556453 30.8288981,14.8168212 31.6707462,14.0017642 L32.3010983,13.4321569 C33.7931666,12.1709372 35.581891,11.3547352 37.4538883,11.0575954 L38.1593418,10.9706683 C41.3541474,10.5762479 44.5455051,11.5979291 46.9224327,13.7473637 Z M39.4110984,2.43215689 L40.3422967,2.43974845 C44.9551814,2.59355002 49.3582282,4.42003644 52.7199825,7.56519827 L53.3782031,8.21170808 C54.7194525,9.53961172 55.8710544,11.0521384 56.7954076,12.7013441 C57.1329396,13.3035595 56.9183713,14.0653754 56.3161559,14.4029074 C55.7139404,14.7404395 54.9521246,14.5258712 54.6145925,13.9236557 C53.8043681,12.4780754 52.794802,11.1521002 51.6014708,9.97028137 C48.6140288,6.89016327 44.5652982,5.09504161 40.3090873,4.94011501 L39.4144317,4.92549023 C35.1253474,4.86029068 30.9905005,6.45815812 27.8650513,9.36975704 L27.247765,9.96549026 C26.2963525,10.9136276 25.4660012,11.938572 24.7551085,13.0482739 L24.2445359,13.8961757 C23.9049217,14.4972194 23.1423679,14.70915 22.5413241,14.3695358 C21.9402804,14.0299217 21.7283499,13.2673678 22.067964,12.6663241 C22.8096794,11.353648 23.6918229,10.1320227 24.6997429,9.02136832 L25.4575769,8.23051167 C28.9087984,4.66592892 33.5979744,2.59724461 38.5301136,2.43866786 L39.4110984,2.43215689 Z" id="Combined-Shape"></path>
        </g>
    </g>
</svg>