<?xml version="1.0" encoding="UTF-8"?>
<svg width="80px" height="80px" viewBox="0 0 80 80" version="1.1" xmlns="http://www.w3.org/2000/svg" xmlns:xlink="http://www.w3.org/1999/xlink">
    <title>mesh-theme-1</title>
    <defs>
        <linearGradient x1="36.1633258%" y1="11.5389455%" x2="18.8628278%" y2="78.4339354%" id="linearGradient-1">
            <stop stop-color="#2C3097" stop-opacity="0.96" offset="0%"></stop>
            <stop stop-color="#24268C" stop-opacity="0.65" offset="24.5001542%"></stop>
            <stop stop-color="#1D1D81" offset="50.6943789%"></stop>
            <stop stop-color="#05005E" offset="100%"></stop>
        </linearGradient>
        <filter x="-18.8%" y="-19.4%" width="137.6%" height="138.8%" filterUnits="objectBoundingBox" id="filter-2">
            <feGaussianBlur stdDeviation="5" in="SourceGraphic"></feGaussianBlur>
        </filter>
        <linearGradient x1="87.007575%" y1="16.1752872%" x2="62.8275871%" y2="55.7287412%" id="linearGradient-3">
            <stop stop-color="#174B96" offset="0%"></stop>
            <stop stop-color="#0074C9" offset="100%"></stop>
        </linearGradient>
        <filter x="-22.8%" y="-21.8%" width="145.7%" height="143.7%" filterUnits="objectBoundingBox" id="filter-4">
            <feGaussianBlur stdDeviation="5" in="SourceGraphic"></feGaussianBlur>
        </filter>
        <radialGradient cx="50%" cy="50%" fx="50%" fy="50%" r="54.4871563%" gradientTransform="translate(0.500000,0.500000),scale(1.000000,0.917647),rotate(90.000000),scale(1.000000,0.890670),translate(-0.500000,-0.500000)" id="radialGradient-5">
            <stop stop-color="#F1F4E5" offset="0%"></stop>
            <stop stop-color="#F1F4E5" stop-opacity="0.462745098" offset="33.9967863%"></stop>
            <stop stop-color="#F1F4E5" stop-opacity="0" offset="100%"></stop>
        </radialGradient>
        <radialGradient cx="54.0233004%" cy="47.0838882%" fx="54.0233004%" fy="47.0838882%" r="85.0318672%" gradientTransform="translate(0.540233,0.470839),scale(1.000000,0.892475),rotate(103.445263),scale(1.000000,1.491320),translate(-0.540233,-0.470839)" id="radialGradient-6">
            <stop stop-color="#EDEDEE" offset="0%"></stop>
            <stop stop-color="#DEDFE0" stop-opacity="0.52" offset="39.8155079%"></stop>
            <stop stop-color="#D6D7D8" stop-opacity="0.3" offset="100%"></stop>
        </radialGradient>
        <filter x="-25.2%" y="-22.5%" width="150.3%" height="144.9%" filterUnits="objectBoundingBox" id="filter-7">
            <feGaussianBlur stdDeviation="5" in="SourceGraphic"></feGaussianBlur>
        </filter>
        <radialGradient cx="82.5151943%" cy="88.8284977%" fx="82.5151943%" fy="88.8284977%" r="126.26491%" gradientTransform="translate(0.825152,0.888285),scale(1.000000,0.896320),rotate(-130.806654),translate(-0.825152,-0.888285)" id="radialGradient-8">
            <stop stop-color="#00FDF1" offset="0%"></stop>
            <stop stop-color="#00FEF6" stop-opacity="0.687019231" offset="38.5118813%"></stop>
            <stop stop-color="#00FFF8" stop-opacity="0.17" offset="82.7402737%"></stop>
            <stop stop-color="#00FFF9" stop-opacity="0.37" offset="100%"></stop>
        </radialGradient>
        <filter x="-23.6%" y="-21.2%" width="147.2%" height="142.3%" filterUnits="objectBoundingBox" id="filter-9">
            <feGaussianBlur stdDeviation="5" in="SourceGraphic"></feGaussianBlur>
        </filter>
    </defs>
    <g id="mesh-theme-1" stroke="none" stroke-width="1" fill="none" fill-rule="evenodd">
        <rect id="Mask" fill="#F0D7D6" x="0" y="0" width="80" height="80"></rect>
        <path d="M-3.57782779,85.8181818 C-17.0950367,71.2727273 -17.4565716,-2.36363636 1.14685094,24.9090909 C19.7502734,52.1818182 28.7566923,-17.0909091 50.5645639,38.6893388 C72.3724356,94.4695868 69.6213439,67.9576129 55.2156865,80 C40.8100292,92.0423871 9.93938111,100.363636 -3.57782779,85.8181818 Z" id="Path-4" fill="url(#linearGradient-1)" filter="url(#filter-2)"></path>
        <path d="M80.0679694,-3.27272727 C93.2789945,10.8873942 87.3797809,44.5132798 80.0679694,53.3677586 C72.756158,62.2222374 63.7820595,49.9862721 55.7349193,45.2727273 C47.6877791,40.5591824 48.6918192,32.7267064 43.5004248,20.1818182 C38.3090305,7.63692996 11.1842179,6.12236392 27.2238691,-3.27272727 C43.2635203,-12.6678185 66.8569443,-17.4328487 80.0679694,-3.27272727 Z" id="Path-2" fill="url(#linearGradient-3)" filter="url(#filter-4)"></path>
        <ellipse id="Oval-🌈ease;lrgb;3" fill="url(#radialGradient-5)" cx="23.3135089" cy="1.36363636" rx="46.9668649" ry="51.1818182"></ellipse>
        <path d="M8.83602379,8 C13.1860663,-4.54545455 -0.54375531,-14.1818182 36.9753611,-14.1818182 C74.4944775,-14.1818182 68.6382986,41.5433418 59.2693288,50.7272727 C49.900359,59.9112036 45.4035684,32.1818182 25.2846219,37.6363636 C5.16567545,43.0909091 4.48598131,20.5454545 8.83602379,8 Z" id="Path-3" fill="url(#radialGradient-6)" filter="url(#filter-7)"></path>
        <path d="M81.0893039,82.3100909 C98.0419669,76.9793223 89.855565,59.3771128 89.855565,33.0909091 C89.855565,19.8773632 80.8171899,38.2441805 70.2803738,34 C64.3956247,31.6296504 49.9580502,16.3188521 44.1016757,16.3188521 C42.1606106,16.3188521 38.0691017,18.3304833 34.6855916,22.3088209 C30.6085267,27.1026415 27.559461,34.7520782 30.5395453,45.1785303 C32.8512721,53.266593 39.1699919,64.6634086 29.6148546,78.0822399 C20.0597173,91.5010712 64.136641,87.6408595 81.0893039,82.3100909 Z" id="Path-5" fill="url(#radialGradient-8)" filter="url(#filter-9)"></path>
    </g>
</svg>