<svg version="1.1" id="svg115845" xmlns="http://www.w3.org/2000/svg" x="0" y="0" viewBox="0 0 638 80" xml:space="preserve"><style>.st0{fill:#f80000}</style><g id="layer1" transform="translate(-702.654 -712.584)"><g id="g16337"><path id="path16197" class="st0" d="M968.2 764.6h40.7L987.4 730 948 792.6h-18l48-75.1c2.1-3 5.6-4.9 9.4-4.9 3.7 0 7.2 1.8 9.2 4.7l48.2 75.2h-18l-8.5-14h-41.2l-8.9-13.9zm186.6 14v-65.2h-15.2V785c0 2 .8 3.9 2.2 5.3 1.5 1.5 3.4 2.3 5.6 2.3h69.5l9-14h-71.1zm-252.1-11.7c14.8 0 26.8-11.9 26.8-26.7s-12-26.8-26.8-26.8H836v79.2h15.2v-65.2h50.4c7.1 0 12.8 5.8 12.8 12.8 0 7.1-5.7 12.8-12.8 12.8l-43-.1 45.5 39.6h22.1l-30.6-25.7h7.1zm-160.4 25.7c-21.9 0-39.6-17.7-39.6-39.6 0-21.9 17.7-39.6 39.6-39.6h46c21.9 0 39.6 17.8 39.6 39.6 0 21.9-17.7 39.6-39.6 39.6h-46zm45-14c14.2 0 25.6-11.4 25.6-25.6 0-14.2-11.5-25.7-25.6-25.7h-44c-14.2 0-25.6 11.5-25.6 25.7s11.5 25.6 25.6 25.6h44zm289.3 14c-21.9 0-39.6-17.7-39.6-39.6 0-21.9 17.8-39.6 39.6-39.6h54.7l-8.9 14h-44.8c-14.2 0-25.7 11.5-25.7 25.7s11.5 25.6 25.7 25.6h54.9l-9 14h-46.9zm186.3-14c-11.7 0-21.6-7.8-24.7-18.7h65.1l9-14h-74.1c3-10.7 13-18.7 24.7-18.7h44.7l9-14h-54.8c-21.9 0-39.6 17.8-39.6 39.6 0 21.9 17.8 39.6 39.6 39.6h47l9-14h-54.9"/><path id="path16199" class="st0" d="M1324.8 721.8c0-3.9 3.1-7 7-7s7 3.1 7 7-3.1 7-7 7-7-3.1-7-7zm7 8.9c4.9 0 8.9-4 8.9-8.9s-4-8.9-8.9-8.9-8.9 4-8.9 8.9 4 8.9 8.9 8.9zm-.8-14.2c1.4 0 2 .1 2.6.3 1.8.6 2 2.1 2 2.8 0 .1 0 .4-.1.8s-.3 1.1-1.2 1.7c-.1.1-.2.1-.4.3l2.3 4.1h-2.2l-2-3.8h-1.4v3.8h-2v-10h2.4zm.6 4.6c.6-.1 1.3-.1 1.6-.6.2-.3.3-.5.3-.9 0-.5-.3-.9-.8-1.2-.4-.2-.9-.2-1.8-.2h-.6v2.9h1.3"/></g></g></svg>