<svg xmlns="http://www.w3.org/2000/svg" width="198" height="60" viewBox="0 0 198 60">
  <g fill="none" fill-rule="evenodd">
    <polygon fill="#FFFFFF" points="9.364 35.291 11.221 35.291 11.221 17.928 9.364 17.928"/>
    <path fill="#FFFFFF" d="M16.7717177 25.1216C16.7717177 25.1216 18.0100161 23.1368 20.6087661 23.1368 23.4558145 23.1368 25.4358145 25.1216 25.4358145 28.2216L25.4358145 35.2912 23.7033145 35.2912 23.7033145 28.2216C23.7033145 26.1136 22.3412661 24.7496 20.4850161 24.7496 18.3804677 24.7496 16.7717177 26.3616 16.7717177 28.7176L16.7717177 35.2912 15.0392177 35.2912 15.0392177 23.3848 16.7717177 23.3848 16.7717177 25.1216M33.5721774 24.7496C31.5921774 24.7496 29.611379 26.7336 29.611379 29.3384 29.611379 31.9432 31.5921774 33.9272 33.5721774 33.9272 35.6767258 33.9272 37.7804758 31.8184 37.7804758 29.3384 37.7804758 26.8576 35.6767258 24.7496 33.5721774 24.7496zM37.7804758 17.928L39.5137742 17.928 39.5137742 35.2912 37.7804758 35.2912 37.7804758 33.4312C37.7804758 33.4312 36.2954758 35.5392 33.5721774 35.5392 30.6021774 35.5392 27.878879 32.8112 27.878879 29.3384 27.878879 25.8656 30.6021774 23.1368 33.5721774 23.1368 36.2954758 23.1368 37.7804758 25.2456 37.7804758 25.2456L37.7804758 17.928zM51.4672258 33.6792C51.4672258 33.6792 50.2289274 35.5392 47.6301774 35.5392 44.906879 35.5392 42.8023306 33.4312 42.8023306 30.3304L42.8023306 23.3848 44.535629 23.3848 44.535629 30.3304C44.535629 32.4392 46.0214274 33.9272 47.8776774 33.9272 49.8576774 33.9272 51.4672258 32.3152 51.4672258 29.9584L51.4672258 23.3848 53.1997258 23.3848 53.1997258 35.2912 51.4672258 35.2912 51.4672258 33.6792M62.5392581 25.9896C62.5392581 25.9896 61.6730081 24.7496 59.9405081 24.7496 58.5784597 24.7496 57.7122097 25.6176 57.7122097 26.4856 57.7122097 29.0904 64.1488065 27.7256 64.1488065 31.9432 64.1488065 33.9272 62.5392581 35.5392 59.8167581 35.5392 56.8459597 35.5392 55.4847097 33.4312 55.4847097 33.4312L56.7222097 32.1904C56.7222097 32.1904 57.8359597 33.9272 59.8167581 33.9272 61.5492581 33.9272 62.4155081 33.0592 62.4155081 31.9432 62.4155081 29.2144 55.9797097 30.5784 55.9797097 26.4856 55.9797097 24.7496 57.5884597 23.1368 59.9405081 23.1368 62.4155081 23.1368 63.7775565 24.7496 63.7775565 24.7496L62.5392581 25.9896M67.8173952 19.416L69.4261452 19.416 69.4261452 23.3848 72.0256935 23.3848 72.0256935 24.9976 69.4261452 24.9976 69.4261452 32.0664C69.4261452 33.3072 70.0448952 33.9272 71.0356935 33.9272 71.9019435 33.9272 72.6444435 33.5552 72.6444435 33.5552L72.6444435 35.1672C72.6444435 35.1672 71.9019435 35.5392 70.9614435 35.5392 68.9311452 35.5392 67.6936452 34.2992 67.6936452 32.0664L67.6936452 24.9976 65.4653468 24.9976 65.4653468 23.3848 66.8273952 23.3848C67.4461452 23.3848 67.8173952 23.0136 67.8173952 22.1448L67.8173952 19.416M80.8814032 24.8736L80.1381048 24.8736C78.1581048 24.8736 76.4256048 26.3616 76.4256048 28.7176L76.4256048 35.2912 74.6923065 35.2912 74.6923065 23.3848 76.4256048 23.3848 76.4256048 24.9976C76.4256048 24.9976 77.6623065 23.1368 80.3864032 23.1368L80.8814032 23.1368 80.8814032 24.8736M86.6760968 35.2912L81.8498468 23.3848 83.7060968 23.3848 87.5431452 33.0592 91.3801935 23.3848 93.2364435 23.3848 87.7906452 37.028C86.8006452 39.508 85.8098468 40.5 84.0773468 40.5 83.2110968 40.5 82.5923468 40.252 82.5923468 40.252L82.5923468 38.64C82.5923468 38.64 83.2110968 38.888 83.8298468 38.888 84.9443952 38.888 85.6118468 38.268 86.0581452 37.028L86.6760968 35.2912M104.001895 25.1216C104.001895 25.1216 106.476895 23.2608 106.476895 21.5248 106.476895 20.284 105.486895 19.292 104.124847 19.292 102.763597 19.292 101.773597 20.284 101.773597 21.5248 101.773597 23.0136 104.001895 25.1216 104.001895 25.1216zM103.753597 27.2296C103.753597 27.2296 101.031097 29.2144 101.031097 31.3224 101.031097 32.9104 102.268597 33.9272 104.372347 33.9272 106.600645 33.9272 107.838145 32.4392 107.838145 32.4392L103.753597 27.2296zM104.868145 26.2376L108.828944 31.0744C108.828944 31.0744 109.942694 29.4624 109.942694 26.8576L111.551444 26.8576C111.551444 30.2064 109.942694 32.4392 109.942694 32.4392 109.942694 32.4392 110.858444 33.9272 111.923492 33.9272 112.244444 33.9272 112.665194 33.8032 112.665194 33.8032L112.665194 35.416C112.665194 35.416 112.220492 35.5392 111.798944 35.5392 110.066444 35.5392 108.952694 33.5552 108.952694 33.5552 108.952694 33.5552 107.343145 35.5392 104.372347 35.5392 101.402347 35.5392 99.4215484 33.5552 99.4215484 31.3224 99.4215484 28.2216 102.763597 26.2376 102.763597 26.2376 102.763597 26.2376 100.164048 23.6328 100.164048 21.5248 100.164048 19.416 101.897347 17.68 104.124847 17.68 106.353145 17.68 108.085645 19.416 108.085645 21.4008 108.085645 24.0056 104.868145 26.2376 104.868145 26.2376zM11.2205323 43.664L11.2205323 51.1056 15.9238306 51.1056C18.152129 51.1056 19.637129 49.6176 19.637129 47.3848 19.637129 45.1528 18.152129 43.664 15.9238306 43.664L11.2205323 43.664zM15.9238306 41.928C19.142129 41.928 21.4941774 44.284 21.4941774 47.3848 21.4941774 50.4856 19.142129 52.8424 15.9238306 52.8424L11.2205323 52.8424 11.2205323 59.2912 9.36428226 59.2912 9.36428226 41.928 15.9238306 41.928z"/>
    <polygon fill="#FFFFFF" points="23.914 59.291 25.647 59.291 25.647 41.928 23.914 41.928"/>
    <path fill="#FFFFFF" d="M36.2012661 53.9584L36.2012661 53.2144 32.1167177 53.9584C30.6317177 54.2312 29.8892177 54.9504 29.8892177 56.0664 29.8892177 57.0592 30.7546694 57.9272 32.3642177 57.9272 34.5925161 57.9272 36.2012661 56.3152 36.2012661 53.9584zM36.2012661 51.7256C36.2012661 49.9896 34.9637661 48.7496 33.2304677 48.7496 31.1267177 48.7496 29.8892177 50.4856 29.8892177 50.4856L28.7746694 49.3696C28.7746694 49.3696 30.3842177 47.1368 33.2304677 47.1368 35.9537661 47.1368 37.9345645 49.1216 37.9345645 51.7256L37.9345645 59.2912 36.2012661 59.2912 36.2012661 57.6792C36.2012661 57.6792 34.9637661 59.5392 32.3642177 59.5392 29.8892177 59.5392 28.1559194 57.8032 28.1559194 56.0664 28.1559194 54.0824 29.3934194 52.8424 31.6217177 52.4704L36.2012661 51.7256zM41.9193145 43.416L43.5288629 43.416 43.5288629 47.3848 46.1276129 47.3848 46.1276129 48.9976 43.5288629 48.9976 43.5288629 56.0664C43.5288629 57.3072 44.1476129 57.9272 45.1376129 57.9272 46.0038629 57.9272 46.7471613 57.5552 46.7471613 57.5552L46.7471613 59.1672C46.7471613 59.1672 46.0038629 59.5392 45.0633629 59.5392 43.0330645 59.5392 41.7963629 58.2992 41.7963629 56.0664L41.7963629 48.9976 39.5680645 48.9976 39.5680645 47.3848 40.9293145 47.3848C41.5480645 47.3848 41.9193145 47.0136 41.9193145 46.1448L41.9193145 43.416M54.311879 48.9976L51.465629 48.9976 51.465629 59.2912 49.733129 59.2912 49.733129 48.9976 47.8760806 48.9976 47.8760806 47.3848 49.733129 47.3848 49.733129 45.1528C49.733129 42.92 50.970629 41.68 52.950629 41.68 53.9414274 41.68 54.6839274 42.052 54.6839274 42.052L54.6839274 43.664C54.6839274 43.664 53.9414274 43.292 53.0751774 43.292 52.084379 43.292 51.465629 43.9128 51.465629 45.1528L51.465629 47.3848 54.311879 47.3848 54.311879 48.9976M61.1971694 48.7496C58.8459194 48.7496 56.8659194 50.7336 56.8659194 53.3384 56.8659194 55.9176 58.8459194 57.9272 61.1971694 57.9272 63.5492177 57.9272 65.5300161 55.9432 65.5300161 53.3384 65.5300161 50.7336 63.5492177 48.7496 61.1971694 48.7496zM61.1971694 47.1368C64.5392177 47.1368 67.2625161 49.8656 67.2625161 53.3384 67.2625161 56.8112 64.5392177 59.5392 61.1971694 59.5392 57.8559194 59.5392 55.132621 56.8112 55.132621 53.3384 55.132621 49.8656 57.8559194 47.1368 61.1971694 47.1368zM75.9385887 48.8736L75.1960887 48.8736C73.2152903 48.8736 71.4827903 50.3616 71.4827903 52.7176L71.4827903 59.2912 69.7494919 59.2912 69.7494919 47.3848 71.4827903 47.3848 71.4827903 48.9976C71.4827903 48.9976 72.7202903 47.1368 75.4435887 47.1368L75.9385887 47.1368 75.9385887 48.8736M93.5278548 52.2216C93.5278548 49.9648 92.2895565 48.7496 90.5570565 48.7496 88.8237581 48.7496 87.3387581 50.2376 87.3387581 52.7176L87.3387581 59.2912 85.6062581 59.2912 85.6062581 52.2216C85.6062581 49.9896 84.3679597 48.7496 82.6354597 48.7496 80.9021613 48.7496 79.4171613 50.2376 79.4171613 52.7176L79.4171613 59.2912 77.6846613 59.2912 77.6846613 47.3848 79.4171613 47.3848 79.4171613 48.8736C79.4171613 48.8736 80.4071613 47.1368 82.7592097 47.1368 85.6062581 47.1368 86.5962581 49.2456 86.5962581 49.2456 86.5962581 49.2456 87.7100081 47.1368 90.6808065 47.1368 93.2795565 47.1368 95.2595565 48.8984 95.2595565 52.2216L95.2595565 59.2912 93.5278548 59.2912 93.5278548 52.2216M102.805113 46.3928C102.805113 43.8632 104.934411 41.68 108.374661 41.68 111.69196 41.68 113.450008 43.9128 113.450008 43.9128L112.21171 45.1528C112.21171 45.1528 110.94946 43.416 108.374661 43.416 105.998661 43.416 104.662161 44.8304 104.662161 46.3928 104.662161 50.8576 114.068758 48.3776 114.068758 54.5784 114.068758 57.4312 111.96421 59.5392 108.250911 59.5392 104.290113 59.5392 102.433863 56.9352 102.433863 56.9352L103.573161 55.6696C103.573161 55.6696 105.033411 57.8032 108.250911 57.8032 110.85046 57.8032 112.21171 56.4392 112.21171 54.5784 112.21171 50.1136 102.805113 52.5944 102.805113 46.3928M121.987161 48.7496C119.635113 48.7496 117.655113 50.7336 117.655113 53.3384 117.655113 55.9176 119.635113 57.9272 121.987161 57.9272 124.338411 57.9272 126.31921 55.9432 126.31921 53.3384 126.31921 50.7336 124.338411 48.7496 121.987161 48.7496zM121.987161 47.1368C125.32921 47.1368 128.05171 49.8656 128.05171 53.3384 128.05171 56.8112 125.32921 59.5392 121.987161 59.5392 118.645113 59.5392 115.921815 56.8112 115.921815 53.3384 115.921815 49.8656 118.645113 47.1368 121.987161 47.1368z"/>
    <polygon fill="#FFFFFF" points="130.629 59.291 132.361 59.291 132.361 41.928 130.629 41.928"/>
    <path fill="#FFFFFF" d="M144.304476 57.6792C144.304476 57.6792 143.066177 59.5392 140.467427 59.5392 137.744129 59.5392 135.640379 57.4312 135.640379 54.3304L135.640379 47.3848 137.372879 47.3848 137.372879 54.3304C137.372879 56.4392 138.858677 57.9272 140.714927 57.9272 142.694927 57.9272 144.304476 56.3152 144.304476 53.9584L144.304476 47.3848 146.036976 47.3848 146.036976 59.2912 144.304476 59.2912 144.304476 57.6792M150.388984 43.416L151.997734 43.416 151.997734 47.3848 154.597282 47.3848 154.597282 48.9976 151.997734 48.9976 151.997734 56.0664C151.997734 57.3072 152.616484 57.9272 153.606484 57.9272 154.472734 57.9272 155.216032 57.5552 155.216032 57.5552L155.216032 59.1672C155.216032 59.1672 154.472734 59.5392 153.533032 59.5392 151.502734 59.5392 150.265234 58.2992 150.265234 56.0664L150.265234 48.9976 148.036935 48.9976 148.036935 47.3848 149.398185 47.3848C150.016935 47.3848 150.388984 47.0136 150.388984 46.1448L150.388984 43.416M157.263895 59.2912L158.996395 59.2912 158.996395 47.3848 157.263895 47.3848 157.263895 59.2912zM158.130145 42.3C158.748895 42.3 159.243895 42.796 159.243895 43.416 159.243895 44.0368 158.748895 44.5328 158.130145 44.5328 157.511395 44.5328 157.016395 44.0368 157.016395 43.416 157.016395 42.796 157.511395 42.3 158.130145 42.3zM167.511194 48.7496C165.159145 48.7496 163.179145 50.7336 163.179145 53.3384 163.179145 55.9176 165.159145 57.9272 167.511194 57.9272 169.862444 57.9272 171.843242 55.9432 171.843242 53.3384 171.843242 50.7336 169.862444 48.7496 167.511194 48.7496zM167.511194 47.1368C170.853242 47.1368 173.575742 49.8656 173.575742 53.3384 173.575742 56.8112 170.853242 59.5392 167.511194 59.5392 164.169145 59.5392 161.445847 56.8112 161.445847 53.3384 161.445847 49.8656 164.169145 47.1368 167.511194 47.1368zM177.796016 49.1216C177.796016 49.1216 179.033516 47.1368 181.633065 47.1368 184.479315 47.1368 186.460113 49.1216 186.460113 52.2216L186.460113 59.2912 184.727613 59.2912 184.727613 52.2216C184.727613 50.1136 183.365565 48.7496 181.509315 48.7496 179.404766 48.7496 177.796016 50.3616 177.796016 52.7176L177.796016 59.2912 176.062718 59.2912 176.062718 47.3848 177.796016 47.3848 177.796016 49.1216M195.631185 49.9896C195.631185 49.9896 194.764935 48.7496 193.032435 48.7496 191.670387 48.7496 190.804137 49.6176 190.804137 50.4856 190.804137 53.0904 197.240734 51.7256 197.240734 55.9432 197.240734 57.9272 195.631185 59.5392 192.908685 59.5392 189.937887 59.5392 188.576637 57.4312 188.576637 57.4312L189.814137 56.1904C189.814137 56.1904 190.928685 57.9272 192.908685 57.9272 194.641185 57.9272 195.507435 57.0592 195.507435 55.9432 195.507435 53.2144 189.071637 54.5784 189.071637 50.4856 189.071637 48.7496 190.680387 47.1368 193.032435 47.1368 195.507435 47.1368 196.869484 48.7496 196.869484 48.7496L195.631185 49.9896M24.8665645 7.6104C24.8665645 6.564 24.042629 5.6944 23.0135081 5.6944 21.9692177 5.6944 21.175621 6.564 21.175621 7.6104 21.175621 8.6568 21.9692177 9.5264 23.0135081 9.5264 24.042629 9.5264 24.8665645 8.6568 24.8665645 7.6104zM19.2044032 7.6104C19.2044032 5.488 20.8953871 3.7792 23.0135081 3.7792 25.131629 3.7792 26.8226129 5.488 26.8226129 7.6104 26.8226129 9.732 25.131629 11.4416 23.0135081 11.4416 20.8953871 11.4416 19.2044032 9.732 19.2044032 7.6104zM32.8129113 7.596C32.8129113 6.5048 32.0193145 5.6208 30.9303145 5.6208 29.8125726 5.6208 28.9598952 6.4608 28.9598952 7.596 28.9598952 8.7304 29.8125726 9.5848 30.9303145 9.5848 32.0193145 9.5848 32.8129113 8.6864 32.8129113 7.596zM27.0717097 7.6104C27.0717097 5.0024 28.9838468 3.7792 30.6452903 3.7792 31.6009597 3.7792 32.3514435 4.1768 32.8368629 4.7224L32.8368629 3.9264 34.8511935 3.9264 34.8511935 11.088C34.8511935 13.1656 33.5426371 14.8456 31.0572581 14.8456 29.1898306 14.8456 27.8221935 13.8728 27.2337823 12.724L29.0133871 11.7216C29.3950161 12.488 30.0720484 12.9744 31.0572581 12.9744 32.1454597 12.9744 32.8368629 12.1192 32.8368629 11.1616L32.8368629 10.4688C32.3514435 11.044 31.5714194 11.4416 30.61575 11.4416 29.0572984 11.4416 27.0717097 10.204 27.0717097 7.6104zM35.5425968 3.9264L37.5425565 3.9264 37.5425565 4.7512C38.0128065 4.148 38.73375 3.7792 39.5720565 3.7792 41.3069516 3.7792 42.3512419 4.8992 42.3512419 6.8L42.3512419 11.2944 40.307371 11.2944 40.307371 7.0648C40.307371 6.0776 39.8514919 5.5032 38.9541048 5.5032 38.18925 5.5032 37.5569274 6.0336 37.5569274 7.2712L37.5569274 11.2944 35.5425968 11.2944 35.5425968 3.9264"/>
    <polyline fill="#FFFFFF" points="45.527 9.496 49.395 5.71 45.586 5.71 45.586 3.926 52.1 3.926 52.1 5.739 48.233 9.511 52.175 9.511 52.175 11.294 45.527 11.294 45.527 9.496"/>
    <path fill="#FFFFFF" d="M57.9445403 7.596C57.9445403 6.5048 57.1509435 5.6208 56.0619435 5.6208 54.9442016 5.6208 54.0915242 6.4608 54.0915242 7.596 54.0915242 8.7304 54.9442016 9.5848 56.0619435 9.5848 57.1509435 9.5848 57.9445403 8.6864 57.9445403 7.596zM52.2033387 7.6104C52.2033387 5.0024 54.1154758 3.7792 55.7769194 3.7792 56.7333871 3.7792 57.4830726 4.1328 57.9684919 4.6488L57.9684919 3.9264 59.9828226 3.9264 59.9828226 11.2944 57.9684919 11.2944 57.9684919 10.4688C57.4830726 11.044 56.7038468 11.4416 55.747379 11.4416 54.1889274 11.4416 52.2033387 10.204 52.2033387 7.6104zM60.6742258 3.9264L62.6733871 3.9264 62.6733871 4.7512C63.1444355 4.148 63.865379 3.7792 64.7028871 3.7792 66.4385806 3.7792 67.482871 4.8992 67.482871 6.8L67.482871 11.2944 65.4382016 11.2944 65.4382016 7.0648C65.4382016 6.0776 64.983121 5.5032 64.0857339 5.5032 63.320879 5.5032 62.6885565 6.0336 62.6885565 7.2712L62.6885565 11.2944 60.6742258 11.2944 60.6742258 3.9264"/>
    <polygon fill="#FFFFFF" points="42.972 11.292 44.988 11.292 44.988 3.924 42.972 3.924"/>
    <polygon fill="#FFFFFF" points="42.973 3.47 44.988 3.47 44.988 1.653 42.973 1.653"/>
    <path fill="#FFFFFF" d="M72.2412581 5.736L72.2412581 3.924 70.8584516 3.924 70.8584516 1.6528 68.844121 1.6528 68.844121 3.924 67.5946452 3.924 67.5946452 5.736 68.844121 5.736 68.844121 8.0944C68.844121 10.496 69.6089758 11.292 71.9474516 11.292L72.2412581 11.292 72.2412581 9.4056C71.0061532 9.4056 70.8584516 9.2288 70.8584516 8.0792L70.8584516 5.736 72.2412581 5.736M8.74633065 5.9104C8.74633065 2.6984 11.1582581.3848 14.2607903.3848 16.2759194.3848 18.0259839 1.4456 18.9672823 3.052L17.1733065 4.2008C16.5697258 3.0816 15.6292258 2.4032 14.2607903 2.4032 12.2608306 2.4032 10.7758306 3.936 10.7758306 5.9104 10.7758306 7.8408 12.2464597 9.388 14.216879 9.388 15.6875081 9.388 16.7174274 8.5336 17.261129 7.384L19.1293548 8.3712C18.1880565 10.1992 16.3932823 11.4368 14.2607903 11.4368 10.9379032 11.4368 8.74633065 8.976 8.74633065 5.9104"/>
    <polygon fill="#F4633A" points="0 59.429 1.908 59.429 1.908 .543 0 .543"/>
  </g>
</svg>
