<svg xmlns="http://www.w3.org/2000/svg" width="122" height="60" viewBox="0 0 122 60">
  <g fill="none" fill-rule="evenodd">
    <path fill="#FFFFFF" d="M10.266994 18.2634146L10.266994 30.9680488 13.551497 30.9680488C17.2889341 30.9680488 20.120503 28.1319512 20.120503 24.6153659 20.120503 21.0987805 17.2889341 18.2634146 13.551497 18.2634146L10.266994 18.2634146zM13.551497 16.674878C18.1948024 16.674878 21.819006 20.304878 21.819006 24.6153659 21.819006 28.9258537 18.1948024 32.5558537 13.551497 32.5558537L8.56849102 32.5558537 8.56849102 16.674878 13.551497 16.674878zM24.4124192 32.5558537L25.9976886 32.5558537 25.9976886 21.6658537 24.4124192 21.6658537 24.4124192 32.5558537zM25.2043234 17.015122C25.7712216 17.015122 26.2241557 17.4687805 26.2241557 18.0358537 26.2241557 18.6036585 25.7712216 19.0573171 25.2043234 19.0573171 24.6381557 19.0573171 24.1852216 18.6036585 24.1852216 18.0358537 24.1852216 17.4687805 24.6381557 17.015122 25.2043234 17.015122zM33.2877365 30.8546341C35.2134371 30.8546341 36.9119401 29.1526829 36.9119401 26.8843902 36.9119401 24.6153659 35.2134371 22.9134146 33.2877365 22.9134146 31.4752695 22.9134146 29.7767665 24.6153659 29.7767665 26.8843902 29.7767665 29.1526829 31.4752695 30.8546341 33.2877365 30.8546341zM36.9119401 30.5143902C36.9119401 30.5143902 35.7796048 32.3290244 33.2877365 32.3290244 30.5694012 32.3290244 28.191497 29.9473171 28.191497 26.8843902 28.191497 23.8214634 30.5694012 21.4390244 33.2877365 21.4390244 35.7796048 21.4390244 36.9119401 23.2543902 36.9119401 23.2543902L36.9119401 21.6658537 38.4979401 21.6658537 38.4979401 31.8753659C38.4979401 34.9382927 36.1193054 37.3207317 33.174503 37.3207317 30.1164671 37.3207317 28.6444311 35.0517073 28.6444311 35.0517073L29.6635329 34.0309756C29.6635329 34.0309756 30.9098323 35.8456098 33.174503 35.8456098 35.2134371 35.8456098 36.9119401 34.1443902 36.9119401 31.8753659L36.9119401 30.5143902zM41.4960719 32.5558537L43.0813413 32.5558537 43.0813413 21.6658537 41.4960719 21.6658537 41.4960719 32.5558537zM42.2887066 17.015122C42.8556048 17.015122 43.3085389 17.4687805 43.3085389 18.0358537 43.3085389 18.6036585 42.8556048 19.0573171 42.2887066 19.0573171 41.7225389 19.0573171 41.2696048 18.6036585 41.2696048 18.0358537 41.2696048 17.4687805 41.7225389 17.015122 42.2887066 17.015122zM46.9860719 18.0358537L48.4581078 18.0358537 48.4581078 21.6658537 50.8367425 21.6658537 50.8367425 23.1409756 48.4581078 23.1409756 48.4581078 29.6063415C48.4581078 30.7412195 49.025006 31.3082927 49.9308743 31.3082927 50.723509 31.3082927 51.4029102 30.9680488 51.4029102 30.9680488L51.4029102 32.442439C51.4029102 32.442439 50.723509 32.7826829 49.8622036 32.7826829 48.0051737 32.7826829 46.8728383 31.6485366 46.8728383 29.6063415L46.8728383 23.1409756 44.8346347 23.1409756 44.8346347 21.6658537 46.0802036 21.6658537C46.6463713 21.6658537 46.9860719 21.3263415 46.9860719 20.5317073L46.9860719 18.0358537M60.1628024 27.6782927L60.1628024 26.9978049 56.4253653 27.6782927C55.0658323 27.9278049 54.3871617 28.5856098 54.3871617 29.6063415 54.3871617 30.5143902 55.1797964 31.3082927 56.6511018 31.3082927 58.6900359 31.3082927 60.1628024 29.8339024 60.1628024 27.6782927zM60.1628024 25.6360976C60.1628024 24.0482927 59.0297365 22.9134146 57.4444671 22.9134146 55.519497 22.9134146 54.3871617 24.5019512 54.3871617 24.5019512L53.3673293 23.4812195C53.3673293 23.4812195 54.8393653 21.4390244 57.4444671 21.4390244 59.9356048 21.4390244 61.7480719 23.2543902 61.7480719 25.6360976L61.7480719 32.5558537 60.1628024 32.5558537 60.1628024 31.0814634C60.1628024 31.0814634 59.0297365 32.7826829 56.6511018 32.7826829 54.3871617 32.7826829 52.8011617 31.194878 52.8011617 29.6063415 52.8011617 27.7917073 53.933497 26.657561 55.9724311 26.3173171L60.1628024 25.6360976z"/>
    <polygon fill="#FFFFFF" points="64.783 32.556 66.368 32.556 66.368 16.675 64.783 16.675"/>
    <polyline fill="#FFFFFF" points="19.667 52.919 19.667 54.507 8.568 54.507 8.568 38.626 19.441 38.626 19.441 40.215 10.267 40.215 10.267 45.432 17.629 45.432 17.629 47.02 10.267 47.02 10.267 52.919 19.667 52.919"/>
    <path fill="#FFFFFF" d="M23.3027305 45.2056098C23.3027305 45.2056098 24.4350659 43.3902439 26.8137006 43.3902439 29.4180719 43.3902439 31.2298084 45.2056098 31.2298084 48.0409756L31.2298084 54.5070732 29.6452695 54.5070732 29.6452695 48.0409756C29.6452695 46.1129268 28.3989701 44.8646341 26.6997365 44.8646341 24.7747665 44.8646341 23.3027305 46.3397561 23.3027305 48.4946341L23.3027305 54.5070732 21.7167305 54.5070732 21.7167305 43.6170732 23.3027305 43.6170732 23.3027305 45.2056098M38.5191257 52.8058537C40.4440958 52.8058537 42.1433293 51.1039024 42.1433293 48.8356098 42.1433293 46.5665854 40.4440958 44.8646341 38.5191257 44.8646341 36.7073892 44.8646341 35.0081557 46.5665854 35.0081557 48.8356098 35.0081557 51.1039024 36.7073892 52.8058537 38.5191257 52.8058537zM42.1433293 52.4656098C42.1433293 52.4656098 41.0102635 54.2802439 38.5191257 54.2802439 35.8007904 54.2802439 33.4228862 51.8985366 33.4228862 48.8356098 33.4228862 45.7726829 35.8007904 43.3902439 38.5191257 43.3902439 41.0102635 43.3902439 42.1433293 45.2056098 42.1433293 45.2056098L42.1433293 43.6170732 43.7285988 43.6170732 43.7285988 53.8265854C43.7285988 56.8895122 41.3506946 59.2712195 38.4058922 59.2712195 35.3478563 59.2712195 33.8758204 57.0029268 33.8758204 57.0029268L34.8949222 55.9821951C34.8949222 55.9821951 36.140491 57.7968293 38.4058922 57.7968293 40.4440958 57.7968293 42.1433293 56.0956098 42.1433293 53.8265854L42.1433293 52.4656098zM46.7267305 54.5070732L48.3127305 54.5070732 48.3127305 43.6170732 46.7267305 43.6170732 46.7267305 54.5070732zM47.5193653 38.9663415C48.0862635 38.9663415 48.5391976 39.42 48.5391976 39.9870732 48.5391976 40.554878 48.0862635 41.0085366 47.5193653 41.0085366 46.9539281 41.0085366 46.500994 40.554878 46.500994 39.9870732 46.500994 39.42 46.9539281 38.9663415 47.5193653 38.9663415zM52.8742156 45.2056098C52.8742156 45.2056098 54.0058204 43.3902439 56.3844551 43.3902439 58.9895569 43.3902439 60.8012934 45.2056098 60.8012934 48.0409756L60.8012934 54.5070732 59.216024 54.5070732 59.216024 48.0409756C59.216024 46.1129268 57.9697246 44.8646341 56.2712216 44.8646341 54.345521 44.8646341 52.8742156 46.3397561 52.8742156 48.4946341L52.8742156 54.5070732 51.2882156 54.5070732 51.2882156 43.6170732 52.8742156 43.6170732 52.8742156 45.2056098M64.6227425 48.2685366L71.9843832 48.2685366C71.7579162 46.3397561 70.2851497 44.8646341 68.3601796 44.8646341 66.4352096 44.8646341 64.8492096 46.4531707 64.6227425 48.2685366zM64.6227425 49.6295122C64.735976 51.557561 66.4352096 53.2595122 68.4734132 53.2595122 70.7614611 53.2595122 71.9843832 51.444878 71.9843832 51.444878L73.003485 52.4656098C73.003485 52.4656098 71.417485 54.7339024 68.4734132 54.7339024 65.5293413 54.7339024 63.0374731 52.2387805 63.0374731 49.062439 63.0374731 45.8860976 65.5293413 43.3902439 68.3601796 43.3902439 71.304982 43.3902439 73.5703832 45.6592683 73.5703832 48.8356098 73.5703832 49.2892683 73.4564192 49.6521951 73.4564192 49.6521951L64.6227425 49.6295122zM76.7109701 48.2685366L84.0726108 48.2685366C83.8461437 46.3397561 82.3733772 44.8646341 80.4484072 44.8646341 78.5234371 44.8646341 76.9374371 46.4531707 76.7109701 48.2685366zM76.7109701 49.6295122C76.8242036 51.557561 78.5234371 53.2595122 80.5616407 53.2595122 82.8496886 53.2595122 84.0726108 51.444878 84.0726108 51.444878L85.0917126 52.4656098C85.0917126 52.4656098 83.5057126 54.7339024 80.5616407 54.7339024 77.6175689 54.7339024 75.1249701 52.2387805 75.1249701 49.062439 75.1249701 45.8860976 77.6175689 43.3902439 80.4484072 43.3902439 83.3932096 43.3902439 85.6578802 45.6592683 85.6578802 48.8356098 85.6578802 49.2892683 85.5446467 49.6521951 85.5446467 49.6521951L76.7109701 49.6295122zM93.5973772 44.9787805L92.9172455 44.9787805C91.1047784 44.9787805 89.5202395 46.3397561 89.5202395 48.4946341L89.5202395 54.5070732 87.9342395 54.5070732 87.9342395 43.6170732 89.5202395 43.6170732 89.5202395 45.0921951C89.5202395 45.0921951 90.6518443 43.3902439 93.1437126 43.3902439L93.5973772 43.3902439 93.5973772 44.9787805M95.1943353 54.5070732L96.7803353 54.5070732 96.7803353 43.6170732 95.1943353 43.6170732 95.1943353 54.5070732zM95.9877006 38.9663415C96.5531377 38.9663415 97.0068024 39.42 97.0068024 39.9870732 97.0068024 40.554878 96.5531377 41.0085366 95.9877006 41.0085366 95.4215329 41.0085366 94.9685988 40.554878 94.9685988 39.9870732 94.9685988 39.42 95.4215329 38.9663415 95.9877006 38.9663415zM101.34109 45.2056098C101.34109 45.2056098 102.473425 43.3902439 104.85206 43.3902439 107.456431 43.3902439 109.268898 45.2056098 109.268898 48.0409756L109.268898 54.5070732 107.683629 54.5070732 107.683629 48.0409756C107.683629 46.1129268 106.43806 44.8646341 104.738826 44.8646341 102.813856 44.8646341 101.34109 46.3397561 101.34109 48.4946341L101.34109 54.5070732 99.7550898 54.5070732 99.7550898 43.6170732 101.34109 43.6170732 101.34109 45.2056098M116.557485 52.8058537C118.483186 52.8058537 120.181689 51.1039024 120.181689 48.8356098 120.181689 46.5665854 118.483186 44.8646341 116.557485 44.8646341 114.745749 44.8646341 113.047246 46.5665854 113.047246 48.8356098 113.047246 51.1039024 114.745749 52.8058537 116.557485 52.8058537zM120.181689 52.4656098C120.181689 52.4656098 119.048623 54.2802439 116.557485 54.2802439 113.83988 54.2802439 111.461246 51.8985366 111.461246 48.8356098 111.461246 45.7726829 113.83988 43.3902439 116.557485 43.3902439 119.048623 43.3902439 120.181689 45.2056098 120.181689 45.2056098L120.181689 43.6170732 121.766958 43.6170732 121.766958 53.8265854C121.766958 56.8895122 119.389054 59.2712195 116.444251 59.2712195 113.386216 59.2712195 111.91418 57.0029268 111.91418 57.0029268L112.933281 55.9821951C112.933281 55.9821951 114.17885 57.7968293 116.444251 57.7968293 118.483186 57.7968293 120.181689 56.0956098 120.181689 53.8265854L120.181689 52.4656098zM22.7533653 7.23804878C22.7533653 6.28097561 21.9994491 5.48560976 21.0577844 5.48560976 20.1022395 5.48560976 19.3760838 6.28097561 19.3760838 7.23804878 19.3760838 8.19439024 20.1022395 8.9897561 21.0577844 8.9897561 21.9994491 8.9897561 22.7533653 8.19439024 22.7533653 7.23804878zM17.5723832 7.23804878C17.5723832 5.29682927 19.1196647 3.73390244 21.0577844 3.73390244 22.9959042 3.73390244 24.5431856 5.29682927 24.5431856 7.23804878 24.5431856 9.17853659 22.9959042 10.7421951 21.0577844 10.7421951 19.1196647 10.7421951 17.5723832 9.17853659 17.5723832 7.23804878zM30.0244192 7.22414634C30.0244192 6.22682927 29.2982635 5.41829268 28.3018084 5.41829268 27.2797844 5.41829268 26.4988383 6.18658537 26.4988383 7.22414634 26.4988383 8.26243902 27.2797844 9.04390244 28.3018084 9.04390244 29.2982635 9.04390244 30.0244192 8.22146341 30.0244192 7.22414634zM24.7711138 7.23804878C24.7711138 4.85268293 26.5207545 3.73390244 28.041006 3.73390244 28.9154611 3.73390244 29.6021677 4.09756098 30.0463353 4.59585366L30.0463353 3.86853659 31.889485 3.86853659 31.889485 10.4187805C31.889485 12.3190244 30.6921317 13.8556098 28.4179641 13.8556098 26.7092335 13.8556098 25.4578204 12.9658537 24.9194132 11.9143902L26.5477844 10.9982927C26.8977126 11.6992683 27.516479 12.1434146 28.4179641 12.1434146 29.4136886 12.1434146 30.0463353 11.3619512 30.0463353 10.4860976L30.0463353 9.85243902C29.6021677 10.3778049 28.8891617 10.7421951 28.0147066 10.7421951 26.5879641 10.7421951 24.7711138 9.6095122 24.7711138 7.23804878zM32.5221317 3.86853659L34.3521317 3.86853659 34.3521317 4.62292683C34.7824192 4.0704878 35.4420958 3.73390244 36.2091617 3.73390244 37.7966228 3.73390244 38.7521677 4.75829268 38.7521677 6.49609756L38.7521677 10.607561 36.881988 10.607561 36.881988 6.73902439C36.881988 5.83609756 36.4648503 5.31 35.6437246 5.31 34.9438683 5.31 34.3652814 5.79512195 34.3652814 6.92780488L34.3652814 10.607561 32.5221317 10.607561 32.5221317 3.86853659"/>
    <polyline fill="#FFFFFF" points="41.658 8.963 45.197 5.499 41.712 5.499 41.712 3.869 47.673 3.869 47.673 5.526 44.134 8.977 47.741 8.977 47.741 10.608 41.658 10.608 41.658 8.963"/>
    <path fill="#FFFFFF" d="M53.0203234 7.22414634C53.0203234 6.22682927 52.2934371 5.41829268 51.2984431 5.41829268 50.2756886 5.41829268 49.4954731 6.18658537 49.4954731 7.22414634 49.4954731 8.26243902 50.2756886 9.04390244 51.2984431 9.04390244 52.2934371 9.04390244 53.0203234 8.22146341 53.0203234 7.22414634zM47.767018 7.23804878C47.767018 4.85268293 49.5166587 3.73390244 51.0369102 3.73390244 51.9120958 3.73390244 52.5980719 4.05658537 53.0422395 4.52853659L53.0422395 3.86853659 54.8853892 3.86853659 54.8853892 10.607561 53.0422395 10.607561 53.0422395 9.85243902C52.5980719 10.3778049 51.8843353 10.7421951 51.0098802 10.7421951 49.5838683 10.7421951 47.767018 9.6095122 47.767018 7.23804878zM55.5180359 3.86853659L57.3473054 3.86853659 57.3473054 4.62292683C57.7783234 4.0704878 58.438 3.73390244 59.2043353 3.73390244 60.7925269 3.73390244 61.7480719 4.75829268 61.7480719 6.49609756L61.7480719 10.607561 59.8778922 10.607561 59.8778922 6.73902439C59.8778922 5.83609756 59.4607545 5.31 58.6396287 5.31 57.9397725 5.31 57.3611856 5.79512195 57.3611856 6.92780488L57.3611856 10.607561 55.5180359 10.607561 55.5180359 3.86853659"/>
    <polygon fill="#FFFFFF" points="39.321 10.605 41.164 10.605 41.164 3.866 39.321 3.866"/>
    <polygon fill="#FFFFFF" points="39.321 3.451 41.165 3.451 41.165 1.789 39.321 1.789"/>
    <path fill="#FFFFFF" d="M66.1020838 5.52365854L66.1020838 3.86560976 64.8367904 3.86560976 64.8367904 1.78902439 62.9936407 1.78902439 62.9936407 3.86560976 61.8503473 3.86560976 61.8503473 5.52365854 62.9936407 5.52365854 62.9936407 7.68C62.9936407 9.87731707 63.693497 10.6046341 65.8332455 10.6046341L66.1020838 10.6046341 66.1020838 8.88C64.9719401 8.88 64.8367904 8.71829268 64.8367904 7.66682927L64.8367904 5.52365854 66.1020838 5.52365854M8.00305389 5.68317073C8.00305389 2.74536585 10.210012.628536585 13.0488862.628536585 14.8927665.628536585 16.4941078 1.5995122 17.3554132 3.06804878L15.7138922 4.1195122C15.1616048 3.09512195 14.3010299 2.47536585 13.0488862 2.47536585 11.2188862 2.47536585 9.86008383 3.87658537 9.86008383 5.68317073 9.86008383 7.44878049 11.2057365 8.86390244 13.0087066 8.86390244 14.3543593 8.86390244 15.2967545 8.08243902 15.7942515 7.03097561L17.5037126 7.93390244C16.6424072 9.60512195 15.0008862 10.7370732 13.0488862 10.7370732 10.0083832 10.7370732 8.00305389 8.48634146 8.00305389 5.68317073"/>
    <polygon fill="#0499EE" points="0 54.632 1.746 54.632 1.746 .773 0 .773"/>
  </g>
</svg>
