<?xml version="1.0" encoding="UTF-8"?>
<svg width="48" height="48" version="1.1" viewBox="0 0 48 48" xmlns="http://www.w3.org/2000/svg" xmlns:xlink="http://www.w3.org/1999/xlink">
    <!--Generated by IJSVG (https://github.com/curthard89/IJSVG)-->
    <g transform="scale(2)">
        <path fill="#71c5e8" d="M8.5,12.982h-1c-0.133,0 -0.26,0.053 -0.354,0.146l-3.146,3.147v-2.793c0,-0.276 -0.224,-0.5 -0.5,-0.5h-2.5v-11h18v6c0,0.276 0.224,0.5 0.5,0.5c0.276,0 0.5,-0.224 0.5,-0.5v-6.5c0,-0.276 -0.224,-0.5 -0.5,-0.5h-19c-0.276,0 -0.5,0.224 -0.5,0.5v12c0,0.276 0.224,0.5 0.5,0.5h2.5v3.5c0,0.202 0.122,0.385 0.309,0.462c0.062,0.025 0.127,0.038 0.191,0.038c0.13,0 0.258,-0.051 0.354,-0.146l3.854,-3.854h0.792c0.276,0 0.5,-0.224 0.5,-0.5c0,-0.276 -0.224,-0.5 -0.5,-0.5Z"></path>
        <path fill="#71c5e8" d="M23.5,9.982h-12c-0.276,0 -0.5,0.224 -0.5,0.5v8c0,0.276 0.224,0.5 0.5,0.5h5.31l4.358,3.874c0.093,0.083 0.212,0.126 0.332,0.126c0.069,0 0.139,-0.015 0.205,-0.044c0.179,-0.081 0.295,-0.258 0.295,-0.456v-3.5h1.5c0.276,0 0.5,-0.224 0.5,-0.5v-8c0,-0.276 -0.224,-0.5 -0.5,-0.5Zm-0.5,8h-1.5c-0.276,0 -0.5,0.224 -0.5,0.5v2.887l-3.668,-3.261c-0.091,-0.081 -0.209,-0.126 -0.332,-0.126h-5v-7h11v7Z"></path>
        <path fill="none" d="M0,0h24v24h-24Z"></path>
    </g>
</svg>