<?xml version="1.0" encoding="UTF-8"?>
<svg width="48" height="48" version="1.1" viewBox="0 0 48 48" xmlns="http://www.w3.org/2000/svg" xmlns:xlink="http://www.w3.org/1999/xlink">
    <!--Generated by IJSVG (https://github.com/curthard89/IJSVG)-->
    <g transform="scale(2)">
        <path fill="#71c5e8" d="M15.408,9.568c-0.007,-0.006 -0.011,-0.015 -0.019,-0.02c-0.005,-0.003 -0.011,-0.003 -0.016,-0.007c-0.961,-0.656 -2.123,-1.041 -3.373,-1.041c-3.309,0 -6,2.691 -6,6c0,3.309 2.691,6 6,6c1.455,0 2.789,-0.521 3.829,-1.385c0.005,-0.004 0.012,-0.005 0.017,-0.01c0.007,-0.006 0.01,-0.015 0.017,-0.021c1.305,-1.101 2.137,-2.746 2.137,-4.584c0,-2.043 -1.028,-3.848 -2.592,-4.932Zm-3.408,-0.068c0.868,0 1.672,0.242 2.384,0.633l-2.648,3.867h-4.685c0.255,-2.52 2.363,-4.5 4.949,-4.5Zm-4.949,5.5h4.715l3.037,3.637c-0.8,0.545 -1.765,0.863 -2.803,0.863c-2.586,0 -4.694,-1.98 -4.949,-4.5Zm8.517,2.992l-2.941,-3.522l2.583,-3.772c1.085,0.917 1.79,2.273 1.79,3.802c0,1.359 -0.549,2.59 -1.432,3.492Z"></path>
        <path fill="#71c5e8" d="M21.961,6.308c-0.025,-0.062 -0.062,-0.116 -0.108,-0.161l-5.999,-6c-0.046,-0.045 -0.101,-0.082 -0.162,-0.107c-0.06,-0.026 -0.125,-0.04 -0.192,-0.04h-13c-0.276,0 -0.5,0.224 -0.5,0.5v23c0,0.276 0.224,0.5 0.5,0.5h19c0.276,0 0.5,-0.224 0.5,-0.5v-17c0,-0.066 -0.014,-0.132 -0.039,-0.192Zm-5.961,-4.601l4.293,4.293h-4.293v-4.293Zm-13,21.293v-22h12v5.5c0,0.276 0.224,0.5 0.5,0.5h5.5v16h-18Z"></path>
        <path fill="none" d="M0,0h24v24h-24Z"></path>
    </g>
</svg>