<?xml version="1.0" encoding="UTF-8"?>
<svg width="48" height="48" version="1.1" viewBox="0 0 48 48" xmlns="http://www.w3.org/2000/svg" xmlns:xlink="http://www.w3.org/1999/xlink">
    <!--Generated by IJSVG (https://github.com/curthard89/IJSVG)-->
    <g transform="scale(2)">
        <path fill="#71c5e8" d="M21.961,6.308c-0.025,-0.062 -0.062,-0.116 -0.108,-0.161l-5.999,-6c-0.046,-0.045 -0.101,-0.082 -0.162,-0.107c-0.06,-0.026 -0.125,-0.04 -0.192,-0.04h-13c-0.276,0 -0.5,0.224 -0.5,0.5v23c0,0.276 0.224,0.5 0.5,0.5h19c0.276,0 0.5,-0.224 0.5,-0.5v-17c0,-0.066 -0.014,-0.132 -0.039,-0.192Zm-5.961,-4.601l4.293,4.293h-4.293v-4.293Zm-13,21.293v-22h12v5.5c0,0.276 0.224,0.5 0.5,0.5h5.5v16h-18Z"></path>
        <path fill="#71c5e8" d="M16.72,12.435c-1.365,-0.05 -2.695,0.126 -4.016,0.528c-0.941,-0.504 -1.816,-1.135 -2.606,-1.88c-0.209,-1.95 -0.705,-3.403 -0.855,-3.811c-0.196,-0.528 -0.615,-0.843 -1.121,-0.843c-0.489,0 -0.972,0.298 -1.231,0.759c-0.271,0.48 -0.252,1.041 0.051,1.541c0.639,1.051 1.377,1.997 2.196,2.815c0.095,1.122 0.064,2.184 -0.092,3.163c-1.613,1.071 -2.578,2.158 -2.926,2.585c-0.379,0.468 -0.467,1.007 -0.242,1.479c0.228,0.478 0.756,0.799 1.315,0.799c0.48,0 0.927,-0.234 1.226,-0.644c0.743,-1.02 1.259,-2.234 1.535,-3.613c0.857,-0.532 1.751,-0.959 2.663,-1.271c1.62,0.797 3.113,1.108 4.097,1.229c0.862,0.1 1.478,-0.481 1.493,-1.312c0.013,-0.729 -0.494,-1.486 -1.487,-1.524Zm-8.924,-4.226c-0.114,-0.188 -0.126,-0.367 -0.034,-0.53c0.091,-0.161 0.253,-0.25 0.359,-0.25c0.031,0 0.113,0 0.183,0.19c0.102,0.273 0.369,1.052 0.585,2.151c-0.391,-0.486 -0.756,-1.007 -1.093,-1.561Zm-0.186,10.127c-0.233,0.322 -0.708,0.26 -0.83,0.005c-0.068,-0.144 0.025,-0.306 0.116,-0.418c0.248,-0.304 0.838,-0.975 1.793,-1.726c-0.26,0.795 -0.622,1.511 -1.079,2.139Zm2.526,-4.287c0.046,-0.505 0.064,-1.025 0.053,-1.56c0.411,0.332 0.84,0.638 1.285,0.916c-0.453,0.189 -0.899,0.404 -1.338,0.644Zm6.768,0.234l-0.069,-0.004c-0.674,-0.083 -1.608,-0.264 -2.658,-0.653c0.832,-0.159 1.656,-0.228 2.504,-0.191c0.508,0.019 0.526,0.425 0.525,0.507c-0.002,0.102 -0.035,0.341 -0.302,0.341Z"></path>
        <path fill="none" d="M0,0h24v24h-24Z"></path>
    </g>
</svg>