<?xml version="1.0" encoding="UTF-8"?>
<svg width="48" height="48" version="1.1" viewBox="0 0 48 48" xmlns="http://www.w3.org/2000/svg" xmlns:xlink="http://www.w3.org/1999/xlink">
    <!--Generated by IJSVG (https://github.com/curthard89/IJSVG)-->
    <g transform="scale(2)">
        <path fill="#71c5e8" d="M23.5,23h-0.5v-14.5c0,-0.276 -0.224,-0.5 -0.5,-0.5h-3c-0.276,0 -0.5,0.224 -0.5,0.5v14.5h-2v-7.5c0,-0.276 -0.224,-0.5 -0.5,-0.5h-3c-0.276,0 -0.5,0.224 -0.5,0.5v7.5h-2v-9.5c0,-0.276 -0.224,-0.5 -0.5,-0.5h-3c-0.276,0 -0.5,0.224 -0.5,0.5v9.5h-2v-4.5c0,-0.276 -0.224,-0.5 -0.5,-0.5h-3c-0.276,0 -0.5,0.224 -0.5,0.5v4.5h-0.5c-0.276,0 -0.5,0.224 -0.5,0.5c0,0.276 0.224,0.5 0.5,0.5h23c0.276,0 0.5,-0.224 0.5,-0.5c0,-0.276 -0.224,-0.5 -0.5,-0.5Zm-3.5,-14h2v14h-2v-14Zm-6,7h2v7h-2v-7Zm-6,-2h2v9h-2v-9Zm-6,5h2v4h-2v-4Z"></path>
        <path fill="none" d="M0,0h24v24h-24Z"></path>
    </g>
</svg>