<?xml version="1.0" encoding="UTF-8"?>
<svg width="48" height="48" version="1.1" viewBox="0 0 48 48" xmlns="http://www.w3.org/2000/svg" xmlns:xlink="http://www.w3.org/1999/xlink">
    <!--Generated by IJSVG (https://github.com/curthard89/IJSVG)-->
    <g transform="scale(2)">
        <path fill="#71c5e8" d="M20.5,0h-15h-2c-0.827,0 -1.5,0.673 -1.5,1.5v21c0,0.827 0.673,1.5 1.5,1.5h2h15c0.276,0 0.5,-0.224 0.5,-0.5v-23c0,-0.276 -0.224,-0.5 -0.5,-0.5Zm-17.5,22.5v-21c0,-0.276 0.225,-0.5 0.5,-0.5h1.5v22h-1.5c-0.275,0 -0.5,-0.224 -0.5,-0.5Zm17,0.5h-14v-22h14v22Z"></path>
        <path fill="#71c5e8" d="M10.5,9h6c0.276,0 0.5,-0.224 0.5,-0.5v-3c0,-0.276 -0.224,-0.5 -0.5,-0.5h-6c-0.276,0 -0.5,0.224 -0.5,0.5v3c0,0.276 0.224,0.5 0.5,0.5Zm0.5,-3h5v2h-5v-2Z"></path>
        <path fill="none" d="M0,0h24v24h-24Z"></path>
    </g>
</svg>