<?xml version="1.0" encoding="UTF-8"?>
<svg width="48" height="48" version="1.1" viewBox="0 0 48 48" xmlns="http://www.w3.org/2000/svg" xmlns:xlink="http://www.w3.org/1999/xlink">
    <!--Generated by IJSVG (https://github.com/curthard89/IJSVG)-->
    <g transform="scale(2)">
        <path fill="#71c5e8" d="M23.5,8h-23c-0.276,0 -0.5,0.224 -0.5,0.5v12.6c0,1.047 0.869,1.9 1.938,1.9h20.125c1.068,0 1.937,-0.853 1.937,-1.9v-12.6c0,-0.276 -0.224,-0.5 -0.5,-0.5Zm-0.5,13.1c0,0.497 -0.42,0.9 -0.938,0.9h-20.124c-0.518,0 -0.938,-0.404 -0.938,-0.9v-12.1h22v12.1Z"></path>
        <path fill="#71c5e8" d="M8.5,20c0.077,0 0.153,-0.018 0.224,-0.053l8,-4c0.169,-0.085 0.276,-0.258 0.276,-0.447c0,-0.189 -0.107,-0.362 -0.276,-0.447l-8,-4c-0.155,-0.077 -0.339,-0.069 -0.486,0.022c-0.148,0.091 -0.238,0.252 -0.238,0.425v8c0,0.173 0.09,0.334 0.237,0.425c0.08,0.051 0.172,0.075 0.263,0.075Zm0.5,-7.69l6.382,3.19l-6.382,3.191v-6.381Z"></path>
        <path fill="#71c5e8" d="M22.5,1h-21c-0.827,0 -1.5,0.673 -1.5,1.5v4c0,0.276 0.224,0.5 0.5,0.5h23c0.276,0 0.5,-0.224 0.5,-0.5v-4c0,-0.827 -0.673,-1.5 -1.5,-1.5Zm0.465,1.328l-3.672,3.672h-2.585l3.999,-4h1.793c0.215,0 0.395,0.138 0.465,0.328Zm-14.258,-0.328h2.586l-4,4h-2.586l4,-4Zm-5.414,4h-2.085l4,-4h2.085l-4,4Zm9.414,-4h2.586l-4,4h-2.586l4,-4Zm4,0h2.586l-3.999,4h-2.587l4,-4Zm-15.207,0h2.294l-2.794,2.794v-2.294c0,-0.276 0.224,-0.5 0.5,-0.5Zm19.207,4l2.293,-2.293v2.293h-2.293Z"></path>
        <path fill="none" d="M0,0h24v24h-24Z"></path>
    </g>
</svg>