<svg xmlns="http://www.w3.org/2000/svg" width="980" height="280" viewBox="0 0 980 280"><g fill="none" fill-rule="evenodd"><path d="M0 0h980v280H0z"/><path fill="#C800A1" fill-rule="nonzero" d="M464.847 30.696V40h4.916v3.33h-4.916v14.816c0 2.182 1.258 4.593 3.887 4.593h1.143v3.331h-1.143c-4.23 0-7.203-3.33-7.203-7.924V43.329h-4.916V40h4.916v-9.303h3.316Zm-19.76 4.7c0-4.56 2.972-7.867 7.202-7.867h1.143v3.306h-1.143c-2.744 0-3.887 2.395-3.887 4.561v4.675h4.916v3.307h-4.916v22.691h-3.316V43.378h-4.916v-3.307h4.916v-4.675Zm55.558-4.172h5.305v5.28h-5.305v-5.28Zm29.708 0h5.305v5.28h-5.305v-5.28Zm-5.482 21.657c1.043.575 1.97 1.379 2.317 2.183a7.183 7.183 0 0 1 1.043 3.79c0 2.298-1.043 4.48-2.78 5.859-1.855 1.608-4.172 2.412-7.184 2.412-1.274 0-2.549-.115-3.707-.46-1.043-.23-1.97-.689-2.896-1.148-.695-.46-1.39-.92-1.97-1.379-.463-.344-.927-.689-1.274-1.148l-.348-.46 3.592-3.56c.231.344.579.574.81.918.696.575 1.507 1.149 2.318 1.493 1.158.575 2.317.92 3.591.92 1.506 0 2.665-.345 3.36-.92.81-.574 1.158-1.493 1.158-2.412 0-.804-.463-1.493-1.042-1.953-.811-.574-1.622-.918-2.55-1.148-1.042-.23-2.084-.575-3.243-1.034-1.043-.46-2.201-.919-3.244-1.378a5.464 5.464 0 0 1-2.549-2.298 7.183 7.183 0 0 1-1.042-3.79c0-2.068.81-3.791 2.664-5.4 1.738-1.492 4.055-2.297 6.72-2.297 1.042 0 2.085.115 3.128.345.81.23 1.622.574 2.433.919.579.23 1.042.69 1.622 1.034.347.23.695.46 1.042.804l.348.46-3.592 3.56-.579-.574c-.579-.46-1.158-.804-1.738-1.034-.81-.344-1.737-.574-2.664-.574-.927-.115-1.97.23-2.78.804-.696.46-1.043 1.149-1.043 1.953s.463 1.493 1.042 1.952c.811.575 1.622.92 2.55 1.149 1.042.345 2.084.574 3.243 1.034 1.043.46 2.201.804 3.244 1.378Zm5.482-12.682h5.305v25.87h-5.305v-25.87Zm58.413 2.566c1.966 2.177 3.007 4.927 3.123 8.479v15.124h-5.552V51.129c0-1.719-.578-3.437-1.85-4.698a6.415 6.415 0 0 0-4.51-1.833c-2.198 0-3.817.688-5.089 2.063-1.04 1.145-1.735 2.635-1.85 4.583v15.353h-5.552V40.473h5.552v2.521l.347-.344c.347-.343.693-.572 1.04-.802.463-.458 1.041-.687 1.62-1.03.693-.345 1.387-.574 2.197-.803.925-.229 1.85-.344 2.775-.344 3.123 0 5.783 1.032 7.75 3.094ZM485.205 58.921l7.513-18.722h5.805l-10.586 25.87h-5.465L472 40.199h5.691l7.514 18.722Zm66.368-19.25c3.677 0 7.24 1.481 9.654 3.987a13.896 13.896 0 0 1 4.137 9.91c-.114 7.518-6.32 13.67-13.906 13.555-7.586-.114-13.792-6.265-13.677-13.783.115-7.518 6.206-13.555 13.792-13.669Zm0 21.87c4.597 0 8.275-3.644 8.275-8.2 0-4.557-3.678-8.202-8.275-8.202-4.598 0-8.275 3.645-8.275 8.201 0 4.557 3.677 8.202 8.275 8.202ZM500.645 40.2h5.305v25.87h-5.305v-25.87Zm-74.325-.528c3.674 0 7.232 1.487 9.758 4.118l.344.343c5.166 5.262 4.936 13.726-.344 18.873l-.345.343c-5.395 5.148-13.89 5.033-19.055-.343l-.345-.343c-5.165-5.261-4.936-13.726.345-18.873a13.306 13.306 0 0 1 9.642-4.118Zm0 24.135c5.74 0 10.447-4.69 10.447-10.409S432.06 42.99 426.32 42.99c-5.74 0-10.446 4.69-10.446 10.408 0 5.72 4.707 10.409 10.446 10.409ZM402.922 46.81c2.055.689 3.881 1.837 5.251 3.329 1.484 1.606 2.283 3.672 2.283 6.083a9.765 9.765 0 0 1-3.425 7.804c-2.283 2.066-5.365 3.099-9.246 3.099-1.598 0-3.082-.115-4.566-.574-1.256-.23-2.397-.803-3.539-1.377l-2.397-1.722A21.614 21.614 0 0 1 385 61.157l2.397-2.525c.114.115 1.142 1.147 1.94 1.836.572.46 1.256.918 1.941 1.377.914.46 1.827.919 2.854 1.148 1.256.344 2.512.46 3.767.46 2.968 0 5.251-.69 6.85-2.067 1.483-1.262 2.282-2.984 2.282-5.28.115-1.606-.684-3.098-1.94-4.131-1.484-1.148-3.196-1.951-5.023-2.525-2.055-.574-4.11-1.262-6.164-1.951-2.055-.689-3.881-1.836-5.365-3.443-1.598-1.492-2.397-3.673-2.283-5.854 0-2.984 1.255-5.738 3.424-7.575 2.283-1.95 5.251-3.098 8.79-3.098 1.37 0 2.626.114 3.881.459 1.028.23 2.055.688 3.082 1.147.8.46 1.484.919 2.17 1.378.798.574 1.483 1.262 2.168 1.95l-2.397 2.526a41.076 41.076 0 0 0-1.712-1.492c-.571-.46-1.142-.804-1.713-1.148-.799-.344-1.598-.574-2.397-.803a14.096 14.096 0 0 0-3.082-.345c-2.74 0-4.909.804-6.393 2.066-1.484 1.263-2.283 3.099-2.283 5.05-.114 1.607.685 3.099 1.941 4.017 1.484 1.148 3.196 1.951 5.023 2.525 2.054.574 4.11 1.263 6.164 1.951Z"/><path fill="#FFF" d="M417.903 13.352c0-1.932-1.532-3.54-3.449-3.54-1.943 0-3.421 1.608-3.421 3.54 0 1.933 1.478 3.54 3.421 3.54 1.917 0 3.449-1.607 3.449-3.54Zm-10.537 0a7.06 7.06 0 0 1 7.088-7.08 7.06 7.06 0 0 1 7.087 7.08 7.06 7.06 0 0 1-7.087 7.08 7.06 7.06 0 0 1-7.088-7.08Zm25.324-.027c0-2.015-1.477-3.648-3.502-3.648-2.081 0-3.668 1.552-3.668 3.648S427.107 17 429.188 17c2.025 0 3.502-1.66 3.502-3.675Zm-10.682.027c0-4.82 3.556-7.08 6.648-7.08 1.779 0 3.175.736 4.079 1.743v-1.47h3.75v13.233c0 3.84-2.437 6.945-7.062 6.945-3.475 0-6.02-1.798-7.115-3.922l3.311-1.853c.712 1.417 1.97 2.315 3.804 2.315 2.025 0 3.312-1.578 3.312-3.348v-1.28c-.904 1.061-2.355 1.798-4.134 1.798-2.9 0-6.593-2.289-6.593-7.081Zm15.762-6.808h3.721V8.07c.875-1.116 2.217-1.798 3.777-1.798 3.228 0 5.172 2.07 5.172 5.584v8.303h-3.804v-7.814c0-1.824-.848-2.887-2.52-2.887-1.421 0-2.598.981-2.598 3.268v7.433h-3.748V6.544Zm18.58 10.293 7.198-6.998h-7.09V6.544h12.124v3.35l-7.195 6.971h7.332v3.294h-12.37v-3.322Zm23.109-3.512c0-2.015-1.48-3.648-3.505-3.648-2.079 0-3.665 1.552-3.665 3.648S473.875 17 475.954 17c2.025 0 3.505-1.66 3.505-3.675Zm-10.686.027c0-4.82 3.559-7.08 6.65-7.08 1.78 0 3.176.655 4.079 1.607V6.544h3.748V20.16h-3.748v-1.524c-.903 1.061-2.354 1.798-4.132 1.798-2.902 0-6.597-2.289-6.597-7.081Zm15.764-6.808h3.72V8.07c.877-1.116 2.218-1.798 3.777-1.798 3.23 0 5.173 2.07 5.173 5.584v8.303h-3.805v-7.814c0-1.824-.847-2.887-2.517-2.887-1.423 0-2.6.981-2.6 3.268v7.433h-3.748V6.544Zm-32.94 13.61V6.54h3.749v13.615h-3.749Zm0-14.452V2.343h3.75v3.359h-3.75Zm54.465 4.188h-2.573v4.33c0 2.122.275 2.449 2.573 2.449v3.486h-.547c-4.351 0-5.775-1.47-5.775-5.909V9.89h-2.325V6.54h2.325V2.343h3.749V6.54h2.573v3.35Zm-118.156.322C387.906 4.275 392.393 0 398.168 0c3.748 0 7.005 1.962 8.757 4.929l-3.339 2.124c-1.123-2.07-2.873-3.322-5.418-3.322-3.722 0-6.485 2.831-6.485 6.48 0 3.568 2.735 6.427 6.402 6.427 2.736 0 4.653-1.579 5.666-3.705l3.474 1.826c-1.75 3.376-5.089 5.663-9.057 5.663-6.185 0-10.262-4.547-10.262-10.21Z"/><text font-family="TTNorms-Bold, TT Norms" font-size="36" font-weight="bold" transform="translate(167)">
        <tspan x="0" y="143" fill="#0499EE">We helped West Corp reduce the time </tspan> <tspan x="0" y="186" fill="#0499EE">required to develop and deploy new </tspan> <tspan x="0" y="229" fill="#0499EE">digital products </tspan> <tspan x="272.7" y="229" fill="#FFF">from 1 year to just a </tspan> <tspan x="0" y="272" fill="#FFF">few hours, saving $20 million per year</tspan>
      </text></g></svg>