<svg xmlns="http://www.w3.org/2000/svg" width="980" height="280" viewBox="0 0 980 280"><g fill="none" fill-rule="evenodd"><path d="M0 0h980v280H0z"/><text font-family="TTNorms-Bold, TT Norms" font-size="36" font-weight="bold" transform="translate(153)">
        <tspan x="0" y="111" fill="#F4633A">We helped a leading bank increase loan</tspan> <tspan x="658.08" y="111" fill="#F8794A"> </tspan> <tspan x="0" y="154" fill="#F4633A">processing capacity </tspan> <tspan x="338.22" y="154" fill="#FFF">by 60% with robotic </tspan> <tspan x="0" y="197" fill="#FFF">process automation</tspan>
      </text><g fill="#FFF"><g fill-rule="nonzero"><path d="m309.45 24.781 8.021-7.887h-7.899V13.18h13.512v3.775l-8.023 7.854h8.175v3.715H309.45zM303.751 8.131h4.179v3.818h-4.179zM303.695 13.226h4.179v15.346h-4.179zM253.158 20.853c.017-4.386 3.56-7.93 7.92-7.918 4.358.011 7.883 3.573 7.878 7.96-.006 4.385-3.54 7.938-7.9 7.938a7.867 7.867 0 0 1-5.598-2.337 7.968 7.968 0 0 1-2.3-5.643zm11.742 0c0-2.18-1.708-3.986-3.843-3.986-2.166 0-3.812 1.805-3.812 3.99 0 2.183 1.646 3.99 3.812 3.99 2.135-.004 3.843-1.815 3.843-3.994zm22.913-7.673h4.148V14.9a5.238 5.238 0 0 1 4.209-2.026c3.599 0 5.765 2.332 5.765 6.291v9.362h-4.24v-8.81c0-2.055-.946-3.248-2.806-3.248-1.585 0-2.897 1.104-2.897 3.682v8.38h-4.185l.006-15.35zm35.662 7.673c0-5.432 3.964-7.98 7.413-7.98 1.983 0 3.537.737 4.544 1.811V13.18h4.185v15.346h-4.185v-1.72c-1.007 1.198-2.622 2.027-4.605 2.027-3.235 0-7.352-2.58-7.352-7.98zm12.077-.03c0-2.272-1.647-4.113-3.904-4.113-2.318 0-4.086 1.75-4.086 4.113 0 2.363 1.772 4.143 4.086 4.143 2.257 0 3.904-1.873 3.904-4.143zm5.74-7.643h4.147V14.9a5.235 5.235 0 0 1 4.208-2.026c3.6 0 5.765 2.332 5.765 6.291v9.362h-4.239v-8.81c0-2.055-.946-3.248-2.806-3.248-1.586 0-2.898 1.104-2.898 3.682v8.38h-4.178V13.18z"/><path d="M309.45 28.526v-3.745l8.021-7.887h-7.899V13.18h13.512v3.775l-8.023 7.854M248.701 20.718l-.057.12c-1.154 2.448-3.276 3.85-5.821 3.85-3.692 0-6.577-2.934-6.577-6.681 0-3.842 2.87-6.739 6.669-6.739 2.464 0 4.337 1.161 5.566 3.454l.065.12 3.72-2.392-.064-.107c-1.931-3.312-5.403-5.288-9.287-5.288-6.204 0-10.882 4.708-10.882 10.95 0 6.347 4.578 10.95 10.882 10.95 4.065 0 7.653-2.27 9.606-6.072l.058-.113-3.878-2.052zm21.308.135c0-5.432 3.964-7.98 7.414-7.98 1.981 0 3.537.83 4.544 1.964V13.18h4.178v14.921c0 4.332-2.715 7.822-7.868 7.822-3.873 0-6.71-2.026-7.93-4.42l3.69-2.086c.791 1.595 2.194 2.612 4.238 2.612 2.257 0 3.69-1.78 3.69-3.775V26.81c-1.006 1.198-2.622 2.027-4.604 2.027-3.235-.004-7.352-2.584-7.352-7.984zm12.077-.03c0-2.272-1.646-4.113-3.904-4.113-2.317 0-4.087 1.75-4.087 4.113 0 2.363 1.77 4.143 4.087 4.143 2.258 0 3.904-1.873 3.904-4.143zm83.62-3.868V13.18h-2.87V8.118h-4.185v5.062h-2.592v3.775h2.592v4.91c0 5.004 1.587 6.661 6.436 6.661h.61v-3.929c-2.562 0-2.87-.368-2.87-2.761v-4.88h2.88z"/></g><text font-family="TTNorms-Light, TT Norms" font-size="29" font-weight="300" letter-spacing="-.8" transform="translate(232)">
          <tspan x="145.224" y="28">Intelligent Process Automation</tspan>
        </text></g></g></svg>