<svg xmlns="http://www.w3.org/2000/svg" width="980" height="280" viewBox="0 0 980 280">
  <g fill="none" fill-rule="evenodd">
    <rect width="980" height="280"/>
    <g transform="translate(167)">
      <g transform="translate(218)">
        <path fill="#C800A1" fill-rule="nonzero" d="M79.8469414,30.6962982 L79.8469414,39.9988512 L84.7630619,39.9988512 L84.7630619,43.3293949 L79.8469414,43.3293949 L79.8469414,58.144572 C79.8469414,60.3266521 81.1045537,62.738425 83.7341067,62.738425 L84.8773902,62.738425 L84.8773902,66.068969 L83.7341067,66.068969 C79.5039563,66.068969 76.5314183,62.738425 76.5314183,58.144572 L76.5314183,43.3293949 L71.6152983,43.3293949 L71.6152983,39.9988512 L76.5314183,39.9988512 L76.5314183,30.6962982 L79.8469414,30.6962982 Z M60.0864242,35.3963055 C60.0864242,30.8353147 63.0589622,27.5285963 67.2891121,27.5285963 L68.4323961,27.5285963 L68.4323961,30.8353147 L67.2891121,30.8353147 C64.5452308,30.8353147 63.4019473,33.2298349 63.4019473,35.3963055 L63.4019473,40.0713211 L68.3180678,40.0713211 L68.3180678,43.3780395 L63.4019473,43.3780395 L63.4019473,66.068969 L60.0864242,66.068969 L60.0864242,43.3780395 L55.1703037,43.3780395 L55.1703037,40.0713211 L60.0864242,40.0713211 L60.0864242,35.3963055 Z M115.645485,31.2240822 L120.950362,31.2240822 L120.950362,36.503394 L115.645485,36.503394 L115.645485,31.2240822 Z M145.352693,31.2240822 L150.65757,31.2240822 L150.65757,36.503394 L145.352693,36.503394 L145.352693,31.2240822 Z M139.870866,52.8812562 C140.913541,53.4555955 141.840363,54.2596705 142.187921,55.0637455 C142.883038,56.212424 143.230596,57.4759704 143.230596,58.8543841 C143.230596,61.1517412 142.187921,63.3342304 140.45013,64.7126446 C138.596486,66.3207946 136.279431,67.1248696 133.267259,67.1248696 C131.992879,67.1248696 130.718498,67.0100017 129.55997,66.6653982 C128.517296,66.4356624 127.590474,65.976191 126.663651,65.5167196 C125.968535,65.0572482 125.273418,64.5977768 124.694155,64.1383054 C124.230744,63.7937018 123.767333,63.4490983 123.419774,62.9896268 L123.072216,62.5301554 L126.663651,58.969252 C126.895357,59.3138555 127.242915,59.5435912 127.474621,59.8881948 C128.169738,60.4625341 128.980707,61.0368733 129.791676,61.3814769 C130.950203,61.9558162 132.108731,62.3004197 133.383112,62.3004197 C134.889197,62.3004197 136.047725,61.9558162 136.742842,61.3814769 C137.553811,60.8071376 137.901369,59.8881948 137.901369,58.969252 C137.901369,58.1651775 137.437958,57.4759704 136.858695,57.016499 C136.047725,56.4421597 135.236756,56.0975562 134.309934,55.8678204 C133.267259,55.6380847 132.224584,55.2934812 131.066056,54.8340098 C130.023381,54.3745384 128.864854,53.9150669 127.822179,53.4555955 C126.779504,52.9961241 125.852682,52.1920491 125.273418,51.1582384 C124.578302,50.0095599 124.230744,48.7460136 124.230744,47.3675993 C124.230744,45.2999781 125.041713,43.5769603 126.895357,41.9688104 C128.633149,40.4755283 130.950203,39.6714534 133.614817,39.6714534 C134.657492,39.6714534 135.700167,39.7863213 136.742842,40.016057 C137.553811,40.2457927 138.36478,40.5903962 139.175749,40.9349998 C139.755013,41.1647355 140.218424,41.6242069 140.797688,41.9688104 C141.145247,42.1985461 141.492805,42.4282818 141.840363,42.7728854 L142.187921,43.2323568 L138.596486,46.7932601 C138.480633,46.6783923 138.248928,46.4486566 138.017222,46.2189209 C137.437958,45.7594494 136.858695,45.4148459 136.279431,45.1851102 C135.468461,44.8405067 134.541639,44.610771 133.614817,44.610771 C132.687995,44.4959031 131.64532,44.8405067 130.834351,45.4148459 C130.139234,45.8743173 129.791676,46.5635244 129.791676,47.3675993 C129.791676,48.1716743 130.255087,48.8608814 130.834351,49.3203528 C131.64532,49.8946921 132.45629,50.2392956 133.383112,50.4690313 C134.425786,50.8136348 135.468461,51.0433706 136.626989,51.502842 C137.669664,51.9623134 138.828191,52.3069169 139.870866,52.8812562 Z M145.352693,40.199279 L150.65757,40.199279 L150.65757,66.0689024 L145.352693,66.0689024 L145.352693,40.199279 Z M203.766076,42.7650176 C205.732134,44.9419701 206.772989,47.6918049 206.888639,51.2436749 L206.888639,66.3677663 L201.337416,66.3677663 L201.337416,51.1290985 C201.337416,49.4104517 200.759164,47.6918049 199.487009,46.431464 C198.330504,45.2856995 196.711397,44.5982408 194.97664,44.5982408 C192.779281,44.5982408 191.160174,45.2856995 189.888019,46.6606169 C188.847165,47.8063814 188.153262,49.2958753 188.037612,51.2436749 L188.037612,66.596919 L182.486389,66.596919 L182.486389,40.4734886 L188.037612,40.4734886 L188.037612,42.9941705 L188.384563,42.6504411 C188.731514,42.3067118 189.078466,42.0775589 189.425417,41.848406 C189.888019,41.3901002 190.466272,41.1609473 191.044524,40.8172179 C191.738427,40.4734886 192.43233,40.2443357 193.241883,40.0151828 C194.167087,39.7860299 195.092291,39.6714534 196.017494,39.6714534 C199.140057,39.6714534 201.800018,40.7026415 203.766076,42.7650176 Z M100.204643,58.9206963 L107.717912,40.199279 L113.523429,40.199279 L102.936837,66.0689024 L97.4724499,66.0689024 L86.9995681,40.199279 L92.6913746,40.199279 L100.204643,58.9206963 Z M166.572664,39.6714534 C170.250475,39.6714534 173.813354,41.1522591 176.226917,43.658238 C178.870344,46.2781249 180.364455,49.8092769 180.364455,53.5682451 C180.249523,61.0861817 174.043217,67.2372206 166.457733,67.1233123 C158.872247,67.0094046 152.665942,60.8583656 152.780874,53.3404291 C152.895805,45.8224924 158.987179,39.7853615 166.572664,39.6714534 Z M166.572664,61.5418142 C171.169928,61.5418142 174.847738,57.8967539 174.847738,53.3404291 C174.847738,48.7841038 171.169928,45.1390436 166.572664,45.1390436 C161.975401,45.1390436 158.29759,48.7841038 158.29759,53.3404291 C158.29759,57.8967539 161.975401,61.5418142 166.572664,61.5418142 Z M115.645485,40.199279 L120.950362,40.199279 L120.950362,66.0689024 L115.645485,66.0689024 L115.645485,40.199279 Z M41.3203308,39.6714534 C44.9937364,39.6714534 48.5523481,41.1584124 51.0778144,43.7891861 C51.1926084,43.9035676 51.3074023,44.017949 51.4221962,44.1323305 C56.5879231,49.3938778 56.3583351,57.8581064 51.0778144,63.005272 C50.9630205,63.1196533 50.8482266,63.234035 50.7334327,63.3484163 C45.3381182,68.495582 36.8433678,68.3812007 31.6776411,63.005272 C31.5628472,62.8908902 31.4480533,62.776509 31.3332594,62.6621277 C26.1675327,57.4005803 26.3971206,48.936352 31.6776411,43.7891861 C34.2031075,41.1584124 37.6469252,39.6714534 41.3203308,39.6714534 Z M41.3203308,63.8059423 C47.0600271,63.8059423 51.766578,59.1163022 51.766578,53.3972292 C51.766578,47.6781559 47.0600271,42.9885158 41.3203308,42.9885158 C35.5806346,42.9885158 30.8740837,47.6781559 30.8740837,53.3972292 C30.8740837,59.1163022 35.5806346,63.8059423 41.3203308,63.8059423 Z M17.9219778,46.8102598 C19.9767268,47.4988906 21.8031704,48.6466087 23.1730031,50.1386422 C24.6569885,51.7454475 25.4560576,53.8113402 25.4560576,56.221548 C25.5702103,59.2056147 24.3145303,62.07491 22.0314758,64.0260308 C19.7484214,66.0919231 16.6662978,67.1248696 12.7851052,67.1248696 C11.186967,67.1248696 9.70298156,67.0100976 8.21899615,66.5510106 C6.9633162,66.3214671 5.82178897,65.7476077 4.68026171,65.1737487 C3.88119264,64.5998898 3.08212356,64.0260308 2.28305449,63.4521719 C1.48398542,62.7635409 0.684916347,61.9601385 -1.42108547e-13,61.1567356 L2.39720721,58.6317558 C2.51135994,58.7465278 3.53873446,59.7794742 4.33780353,60.4681046 C4.90856716,60.9271921 5.59348351,61.386279 6.27839983,61.8453665 C7.19162165,62.3044535 8.10484343,62.7635409 9.13221798,62.9930844 C10.3878979,63.3373999 11.6435779,63.4521719 12.8992579,63.4521719 C15.8672287,63.4521719 18.1502832,62.7635409 19.7484214,61.386279 C21.2324068,60.1237891 22.0314758,58.4022123 22.0314758,56.106776 C22.1456285,54.4999706 21.3465595,53.0079372 20.0908796,51.9749911 C18.6068941,50.827273 16.8946032,50.0238704 15.0681596,49.4500113 C13.0134106,48.8761523 10.9586616,48.1875215 8.90391252,47.4988906 C6.84916347,46.8102598 5.02271988,45.6625417 3.53873446,44.0557364 C1.94059632,42.5637029 1.14152725,40.3830386 1.25567997,38.2023743 C1.25567997,35.2183073 2.51135994,32.463784 4.68026171,30.6274351 C6.9633162,28.6763143 9.93128702,27.5285963 13.4700215,27.5285963 C14.8398542,27.5285963 16.0955342,27.6433681 17.3512141,27.9876835 C18.3785887,28.2172271 19.4059632,28.6763143 20.4333377,29.1354016 C21.2324068,29.5944888 21.9173231,30.053576 22.6022395,30.5126632 C23.4013086,31.0865223 24.0862249,31.7751531 24.7711412,32.463784 L22.373934,34.9887637 C22.2597813,34.8739919 21.2324068,33.9558174 20.6616431,33.4967302 C20.0908796,33.037643 19.5201159,32.6933276 18.9493523,32.3490122 C18.1502832,32.0046968 17.3512141,31.7751531 16.5521451,31.5456095 C15.5247705,31.3160659 14.497396,31.2012941 13.4700215,31.2012941 C10.7303561,31.2012941 8.56145434,32.0046968 7.07746893,33.2671866 C5.59348351,34.5296765 4.79441443,36.3660254 4.79441443,38.3171461 C4.68026171,39.9239514 5.47933079,41.4159849 6.73501074,42.3341594 C8.21899615,43.4818774 9.93128702,44.28528 11.7577306,44.8591391 C13.8124797,45.4329981 15.8672287,46.1216289 17.9219778,46.8102598 Z"/>
        <path fill="#FFFFFF" d="M32.9026286,13.3516522 C32.9026286,11.4195652 31.3708571,9.81269565 29.4542857,9.81269565 C27.5109714,9.81269565 26.0326857,11.4195652 26.0326857,13.3516522 C26.0326857,15.2852174 27.5109714,16.892087 29.4542857,16.892087 C31.3708571,16.892087 32.9026286,15.2852174 32.9026286,13.3516522 Z M22.3659429,13.3516522 C22.3659429,9.43130435 25.5126857,6.27226087 29.4542857,6.27226087 C33.3944,6.27226087 36.5411429,9.43130435 36.5411429,13.3516522 C36.5411429,17.2734783 33.3944,20.4325217 29.4542857,20.4325217 C25.5126857,20.4325217 22.3659429,17.2734783 22.3659429,13.3516522 Z M47.6899429,13.3250435 C47.6899429,11.3101739 46.2131429,9.67669565 44.1881143,9.67669565 C42.1066286,9.67669565 40.5198857,11.2288696 40.5198857,13.3250435 C40.5198857,15.4212174 42.1066286,17 44.1881143,17 C46.2131429,17 47.6899429,15.339913 47.6899429,13.3250435 Z M37.0076571,13.3516522 C37.0076571,8.53252174 40.5644571,6.27226087 43.6562286,6.27226087 C45.4346286,6.27226087 46.8312,7.00843478 47.7345143,8.01513043 L47.7345143,6.54426087 L51.4844571,6.54426087 L51.4844571,19.7776522 C51.4844571,23.6181739 49.0478857,26.7225217 44.4228571,26.7225217 C40.9477714,26.7225217 38.4027429,24.9249565 37.3077714,22.8006957 L40.6194286,20.9484348 C41.3310857,22.3646087 42.5894857,23.2633913 44.4228571,23.2633913 C46.4478857,23.2633913 47.7345143,21.6846087 47.7345143,19.9151304 L47.7345143,18.6349565 C46.8312,19.6963478 45.3796571,20.4325217 43.6012571,20.4325217 C40.7011429,20.4325217 37.0076571,18.1441739 37.0076571,13.3516522 Z M52.7696,6.54426087 L56.4913143,6.54426087 L56.4913143,8.06982609 C57.3664,6.95373913 58.708,6.27226087 60.268,6.27226087 C63.4964571,6.27226087 65.4397714,8.34182609 65.4397714,11.8556522 L65.4397714,20.1590435 L61.6363429,20.1590435 L61.6363429,12.3449565 C61.6363429,10.5207826 60.788,9.45791304 59.1165714,9.45791304 C57.6947429,9.45791304 56.5180571,10.4394783 56.5180571,12.7263478 L56.5180571,20.1590435 L52.7696,20.1590435 L52.7696,6.54426087 Z M71.3499429,16.8373913 L78.5482286,9.83930435 L71.4584,9.83930435 L71.4584,6.54426087 L83.5818286,6.54426087 L83.5818286,9.894 L76.3865143,16.8654783 L83.7185143,16.8654783 L83.7185143,20.1590435 L71.3499429,20.1590435 L71.3499429,16.8373913 Z M94.4587429,13.3250435 C94.4587429,11.3101739 92.9789714,9.67669565 90.9539429,9.67669565 C88.8754286,9.67669565 87.2886857,11.2288696 87.2886857,13.3250435 C87.2886857,15.4212174 88.8754286,17 90.9539429,17 C92.9789714,17 94.4587429,15.339913 94.4587429,13.3250435 Z M83.7734857,13.3516522 C83.7734857,8.53252174 87.3317714,6.27226087 90.4235429,6.27226087 C92.2034286,6.27226087 93.5985143,6.92713043 94.5018286,7.87913043 L94.5018286,6.54426087 L98.2502857,6.54426087 L98.2502857,20.1590435 L94.5018286,20.1590435 L94.5018286,18.6349565 C93.5985143,19.6963478 92.1484571,20.4325217 90.3700571,20.4325217 C87.4684571,20.4325217 83.7734857,18.1441739 83.7734857,13.3516522 Z M99.5369143,6.54426087 L103.257143,6.54426087 L103.257143,8.06982609 C104.133714,6.95373913 105.475314,6.27226087 107.033829,6.27226087 C110.263771,6.27226087 112.207086,8.34182609 112.207086,11.8556522 L112.207086,20.1590435 L108.402171,20.1590435 L108.402171,12.3449565 C108.402171,10.5207826 107.555314,9.45791304 105.885371,9.45791304 C104.462057,9.45791304 103.285371,10.4394783 103.285371,12.7263478 L103.285371,20.1590435 L99.5369143,20.1590435 L99.5369143,6.54426087 Z M66.5971429,20.1546087 L66.5971429,6.53982609 L70.3456,6.53982609 L70.3456,20.1546087 L66.5971429,20.1546087 Z M66.5971429,5.70165217 L66.5971429,2.34304348 L70.3470857,2.34304348 L70.3470857,5.70165217 L66.5971429,5.70165217 Z M121.061943,9.88956522 L118.488686,9.88956522 L118.488686,14.2193913 C118.488686,16.3421739 118.763543,16.6688696 121.061943,16.6688696 L121.061943,20.1546087 L120.5152,20.1546087 C116.163543,20.1546087 114.740229,18.6852174 114.740229,14.246 L114.740229,9.88956522 L112.415086,9.88956522 L112.415086,6.53982609 L114.740229,6.53982609 L114.740229,2.34304348 L118.488686,2.34304348 L118.488686,6.53982609 L121.061943,6.53982609 L121.061943,9.88956522 Z M2.90605714,10.2118261 C2.90605714,4.27513043 7.39291429,2.66453526e-14 13.1678857,2.66453526e-14 C16.9163429,2.66453526e-14 20.1730286,1.96165217 21.9246857,4.92852174 L18.5862857,7.05278261 C17.4630857,4.98321739 15.7129143,3.73113043 13.1678857,3.73113043 C9.44617143,3.73113043 6.68274286,6.562 6.68274286,10.2118261 C6.68274286,13.7788696 9.41794286,16.6378261 13.0846857,16.6378261 C15.8213714,16.6378261 17.7379429,15.0590435 18.7512,12.9333043 L22.2248,14.7589565 C20.4746286,18.1353043 17.1362286,20.4221739 13.1678857,20.4221739 C6.98285714,20.4221739 2.90605714,15.8750435 2.90605714,10.2118261 Z"/>
      </g>
      <text font-family="TTNorms-Bold, TT Norms" font-size="36" font-weight="bold">
        <tspan x="0" y="143" fill="#0499EE">We helped West Corp reduce the time </tspan> <tspan x="0" y="186" fill="#0499EE">required to develop and deploy new </tspan> <tspan x="0" y="229" fill="#0499EE">digital products </tspan> <tspan x="272.7" y="229" fill="#FFFFFF">from 1 year to just a </tspan> <tspan x="0" y="272" fill="#FFFFFF">few hours, saving $20 million per year</tspan>
      </text>
    </g>
  </g>
</svg>
