<svg xmlns="http://www.w3.org/2000/svg" width="980" height="280" viewBox="0 0 980 280">
  <g fill="none" fill-rule="evenodd">
    <rect width="980" height="280"/>
    <g transform="translate(153)">
      <text font-family="TTNorms-Bold, TT Norms" font-size="36" font-weight="bold">
        <tspan x="0" y="111" fill="#F4633A">We helped a leading bank increase loan</tspan> <tspan x="658.08" y="111" fill="#F8794A"> </tspan> <tspan x="0" y="154" fill="#F4633A">processing capacity </tspan> <tspan x="338.22" y="154" fill="#FFFFFF">by 60% with robotic </tspan> <tspan x="0" y="197" fill="#FFFFFF">process automation</tspan>
      </text>
      <g fill="#FFFFFF" transform="translate(79)">
        <g transform="translate(0 7)">
          <polygon fill-rule="nonzero" points="77.45 17.781 85.471 9.894 77.572 9.894 77.572 6.18 91.084 6.18 91.084 9.955 83.061 17.809 91.236 17.809 91.236 21.524 77.45 21.524"/>
          <polygon fill-rule="nonzero" points="71.751 1.131 75.93 1.131 75.93 4.949 71.751 4.949"/>
          <polygon fill-rule="nonzero" points="71.695 6.226 75.874 6.226 75.874 21.572 71.695 21.572"/>
          <path fill-rule="nonzero" d="M21.1575731 13.8526141C21.1747274 9.46654572 24.7188412 5.92330181 29.0773321 5.93479909 33.435823 5.94629638 36.9614293 9.50818955 36.9557337 13.8942882 36.9500381 18.2803868 33.4151932 21.8329951 29.0566873 21.833029 26.9557251 21.834976 24.9407111 20.9938057 23.4580265 19.4958608 21.9753419 17.9979158 21.1473857 15.9668549 21.1575731 13.8526141L21.1575731 13.8526141zM32.8998229 13.8526141C32.8998229 11.6721992 31.1922941 9.86721992 29.0566873 9.86721992 26.8911869 9.86721992 25.2446413 11.6721992 25.2446413 13.8562241 25.2446413 16.040249 26.8911869 17.8464315 29.0566873 17.8464315 31.1922941 17.8428216 32.8998229 16.0318257 32.8998229 13.8526141zM55.8127547 6.18024896L59.960806 6.18024896 59.960806 7.89858921C60.9723778 6.59887694 62.5294798 5.84967373 64.1698406 5.87340249 67.7690434 5.87340249 69.9345438 8.20543568 69.9345438 12.1643568L69.9345438 21.5261826 65.6944198 21.5261826 65.6944198 12.7166805C65.6944198 10.6614108 64.7485828 9.46771784 62.889194 9.46771784 61.3036315 9.46771784 59.9918955 10.5723651 59.9918955 13.1498755L59.9918955 21.5297925 55.8067759 21.5297925 55.8127547 6.18024896zM91.4747564 13.8526141C91.4747564 8.42082988 95.4386625 5.87340249 98.8883968 5.87340249 100.870948 5.87340249 102.425421 6.60983402 103.432241 7.68439834L103.432241 6.18024896 107.61736 6.18024896 107.61736 21.5261826 103.432241 21.5261826 103.432241 19.806639C102.425421 21.0039419 100.809965 21.833029 98.8274136 21.833029 95.5917183 21.833029 91.4747564 19.253112 91.4747564 13.8526141zM103.551816 13.8225311C103.551816 11.5506639 101.90527 9.70958506 99.6476971 9.70958506 97.3303366 9.70958506 95.5618246 11.4592116 95.5618246 13.8225311 95.5618246 16.1858506 97.3339238 17.9655602 99.6476971 17.9655602 101.90527 17.9655602 103.551816 16.093195 103.551816 13.8225311zM109.291408 6.18024896L113.43946 6.18024896 113.43946 7.89858921C114.450418 6.59876836 116.007233 5.84949026 117.647298 5.87340249 121.246501 5.87340249 123.412002 8.20543568 123.412002 12.1643568L123.412002 21.5261826 119.173074 21.5261826 119.173074 12.7166805C119.173074 10.6614108 118.227236 9.46771784 116.366652 9.46771784 114.781089 9.46771784 113.469353 10.5723651 113.469353 13.1498755L113.469353 21.5297925 109.291408 21.5297925 109.291408 6.18024896z"/>
          <polyline fill-rule="nonzero" points="77.45 21.526 77.45 17.781 85.471 9.894 77.572 9.894 77.572 6.18 91.084 6.18 91.084 9.955 83.061 17.809"/>
          <path fill-rule="nonzero" d="M16.7010186 13.7178423L16.6436227 13.8381743C15.4897254 16.2857261 13.3684677 17.6887967 10.8227192 17.6887967 7.13144376 17.6887967 4.24610275 14.7539004 4.24610275 11.0067635 4.24610275 7.16456432 7.11589903 4.26817427 10.9147919 4.26817427 13.3792294 4.26817427 15.2517715 5.42937759 16.4810009 7.72170124L16.5455713 7.8420332 20.2655447 5.44983402 20.2021701 5.34273859C18.2710363 2.03120332 14.7985828.0553526971 10.9147919.0553526971 4.71124889.0553526971.0334809566 4.76273859.0334809566 11.0055602.0334809566 17.3518672 4.61080602 21.9557676 10.9147919 21.9557676 14.9803366 21.9557676 18.5675819 19.6851037 20.5214349 15.8826141L20.5788308 15.7695021 16.7010186 13.7178423zM38.009256 13.8526141C38.009256 8.42082988 41.9731621 5.87340249 45.4228964 5.87340249 47.4042516 5.87340249 48.9599203 6.70248963 49.9667405 7.83721992L49.9667405 6.18024896 54.1446856 6.18024896 54.1446856 21.1014108C54.1446856 25.433361 51.4303366 28.9229876 46.2766608 28.9229876 42.4036315 28.9229876 39.5673162 26.8965975 38.346457 24.503195L42.0377325 22.416639C42.8281222 24.0122407 44.2307352 25.0290456 46.275465 25.0290456 48.5318423 25.0290456 49.9655447 23.2493361 49.9655447 21.2542324L49.9655447 19.810249C48.9587245 21.0075519 47.3432684 21.836639 45.3607174 21.836639 42.1262179 21.833029 38.009256 19.253112 38.009256 13.8526141zM50.0863153 13.8225311C50.0863153 11.5506639 48.4397697 9.70958506 46.1821966 9.70958506 43.8648361 9.70958506 42.0951284 11.4592116 42.0951284 13.8225311 42.0951284 16.1858506 43.8648361 17.9655602 46.1821966 17.9655602 48.4397697 17.9655602 50.0863153 16.093195 50.0863153 13.8225311zM133.7062 9.95506224L133.7062 6.18024896 130.836404 6.18024896 130.836404 1.11788382 126.651284 1.11788382 126.651284 6.18024896 124.058902 6.18024896 124.058902 9.95506224 126.651284 9.95506224 126.651284 14.8658091C126.651284 19.8692116 128.238043 21.5261826 133.086802 21.5261826L133.696634 21.5261826 133.696634 17.5973444C131.135341 17.5973444 130.826838 17.2291286 130.826838 14.8357261L130.826838 9.95506224 133.7062 9.95506224z"/>
        </g>
        <text font-family="TTNorms-Light, TT Norms" font-size="29" font-weight="300" letter-spacing="-.8">
          <tspan x="145.224" y="28">Intelligent Process Automation</tspan>
        </text>
      </g>
    </g>
  </g>
</svg>
