<svg xmlns="http://www.w3.org/2000/svg" width="122" height="60" viewBox="0 0 122 60"><g fill="none" fill-rule="evenodd"><path fill="#FFF" d="M10.267 18.263v12.705h3.284c3.738 0 6.57-2.836 6.57-6.353 0-3.516-2.832-6.352-6.57-6.352h-3.284zm3.284-1.588c4.644 0 8.268 3.63 8.268 7.94 0 4.31-3.624 7.94-8.268 7.94H8.568v-15.88h4.983zm10.861 15.88h1.586v-10.89h-1.586v10.89zm.792-15.54c.567 0 1.02.454 1.02 1.02 0 .569-.453 1.022-1.02 1.022-.566 0-1.019-.453-1.019-1.021 0-.567.453-1.02 1.02-1.02zm8.084 13.84c1.925 0 3.624-1.702 3.624-3.97 0-2.27-1.699-3.972-3.624-3.972-1.813 0-3.511 1.702-3.511 3.971s1.698 3.97 3.51 3.97zm3.624-.34s-1.132 1.814-3.624 1.814c-2.719 0-5.097-2.382-5.097-5.445s2.378-5.445 5.097-5.445c2.492 0 3.624 1.815 3.624 1.815v-1.588h1.586v10.21c0 3.062-2.379 5.445-5.323 5.445-3.059 0-4.53-2.27-4.53-2.27l1.019-1.02s1.246 1.815 3.51 1.815c2.04 0 3.738-1.702 3.738-3.97v-1.362zm4.584 2.04h1.585v-10.89h-1.585v10.89zm.793-15.54c.567 0 1.02.454 1.02 1.02 0 .569-.453 1.022-1.02 1.022-.566 0-1.02-.453-1.02-1.021 0-.567.454-1.02 1.02-1.02zm4.697 1.02h1.472v3.63h2.379v1.476h-2.379v6.465c0 1.135.567 1.702 1.473 1.702.793 0 1.472-.34 1.472-.34v1.474s-.68.34-1.54.34c-1.858 0-2.99-1.133-2.99-3.176v-6.465h-2.038v-1.475h1.245c.566 0 .906-.34.906-1.134v-2.496m13.177 9.642v-.68l-3.738.68c-1.36.25-2.038.908-2.038 1.928 0 .908.793 1.702 2.264 1.702 2.039 0 3.512-1.474 3.512-3.63zm0-2.042c0-1.588-1.133-2.723-2.719-2.723-1.925 0-3.057 1.589-3.057 1.589l-1.02-1.02s1.472-2.043 4.077-2.043c2.492 0 4.304 1.815 4.304 4.197v6.92h-1.585V31.08s-1.133 1.702-3.512 1.702c-2.264 0-3.85-1.588-3.85-3.177 0-1.814 1.132-2.948 3.171-3.289l4.19-.68zM64.783 32.556h1.585V16.675h-1.585zM19.667 52.919v1.588H8.568V38.626h10.873v1.589h-9.174v5.217h7.362v1.588h-7.362v5.899h9.4M23.303 45.206s1.132-1.816 3.51-1.816c2.605 0 4.417 1.816 4.417 4.651v6.466h-1.585v-6.466c0-1.928-1.246-3.176-2.945-3.176-1.925 0-3.397 1.475-3.397 3.63v6.012h-1.586v-10.89h1.586v1.589m15.216 7.6c1.925 0 3.624-1.702 3.624-3.97 0-2.27-1.699-3.971-3.624-3.971-1.812 0-3.51 1.702-3.51 3.97 0 2.269 1.698 3.97 3.51 3.97zm3.624-.34S41.01 54.28 38.52 54.28c-2.718 0-5.096-2.381-5.096-5.444s2.378-5.446 5.096-5.446c2.491 0 3.624 1.816 3.624 1.816v-1.589h1.586v10.21c0 3.063-2.378 5.444-5.323 5.444-3.058 0-4.53-2.268-4.53-2.268l1.019-1.02s1.245 1.814 3.51 1.814c2.04 0 3.738-1.701 3.738-3.97v-1.361zm4.584 2.041h1.586v-10.89h-1.586v10.89zm.792-15.54c.567 0 1.02.453 1.02 1.02 0 .568-.453 1.022-1.02 1.022a1.016 1.016 0 0 1-1.018-1.022c0-.567.453-1.02 1.018-1.02zm5.355 6.239s1.132-1.816 3.51-1.816c2.606 0 4.417 1.816 4.417 4.651v6.466h-1.585v-6.466c0-1.928-1.246-3.176-2.945-3.176-1.925 0-3.397 1.475-3.397 3.63v6.012h-1.586v-10.89h1.586v1.589m11.749 3.063h7.361c-.226-1.93-1.699-3.404-3.624-3.404s-3.51 1.588-3.737 3.404zm0 1.36c.113 1.929 1.812 3.63 3.85 3.63 2.288 0 3.511-1.814 3.511-1.814l1.02 1.02s-1.587 2.269-4.53 2.269c-2.945 0-5.437-2.495-5.437-5.672 0-3.176 2.492-5.672 5.323-5.672 2.945 0 5.21 2.27 5.21 5.446 0 .453-.114.816-.114.816l-8.833-.022zm12.088-1.36h7.362c-.227-1.93-1.7-3.404-3.625-3.404s-3.51 1.588-3.737 3.404zm0 1.36c.113 1.929 1.812 3.63 3.85 3.63 2.289 0 3.512-1.814 3.512-1.814l1.019 1.02s-1.586 2.269-4.53 2.269-5.437-2.495-5.437-5.672c0-3.176 2.493-5.672 5.323-5.672 2.945 0 5.21 2.27 5.21 5.446 0 .453-.113.816-.113.816l-8.834-.022zm16.886-4.65h-.68c-1.812 0-3.397 1.36-3.397 3.516v6.012h-1.586v-10.89h1.586v1.475s1.132-1.702 3.624-1.702h.453v1.589m1.597 9.528h1.586v-10.89h-1.586v10.89zm.794-15.54c.565 0 1.019.453 1.019 1.02 0 .568-.454 1.022-1.02 1.022-.565 0-1.018-.454-1.018-1.022 0-.567.453-1.02 1.019-1.02zm5.353 6.239s1.132-1.816 3.511-1.816c2.604 0 4.417 1.816 4.417 4.651v6.466h-1.585v-6.466c0-1.928-1.246-3.176-2.945-3.176-1.925 0-3.398 1.475-3.398 3.63v6.012h-1.586v-10.89h1.586v1.589m15.216 7.6c1.926 0 3.625-1.702 3.625-3.97 0-2.27-1.699-3.971-3.625-3.971-1.811 0-3.51 1.702-3.51 3.97 0 2.269 1.699 3.97 3.51 3.97zm3.625-.34s-1.133 1.814-3.625 1.814c-2.717 0-5.096-2.381-5.096-5.444s2.379-5.446 5.096-5.446c2.492 0 3.625 1.816 3.625 1.816v-1.589h1.585v10.21c0 3.063-2.378 5.444-5.323 5.444-3.058 0-4.53-2.268-4.53-2.268l1.02-1.02s1.245 1.814 3.51 1.814c2.04 0 3.738-1.701 3.738-3.97v-1.361zM22.753 7.238c0-.957-.754-1.752-1.695-1.752-.956 0-1.682.795-1.682 1.752 0 .956.726 1.752 1.682 1.752.941 0 1.695-.796 1.695-1.752zm-5.18 0a3.483 3.483 0 0 1 3.485-3.504 3.483 3.483 0 0 1 3.485 3.504 3.483 3.483 0 0 1-3.485 3.504 3.483 3.483 0 0 1-3.486-3.504zm12.451-.014c0-.997-.726-1.806-1.722-1.806-1.022 0-1.803.769-1.803 1.806 0 1.038.78 1.82 1.803 1.82.996 0 1.722-.823 1.722-1.82zm-5.253.014c0-2.385 1.75-3.504 3.27-3.504.874 0 1.561.364 2.005.862v-.727h1.843v6.55c0 1.9-1.197 3.437-3.471 3.437-1.709 0-2.96-.89-3.499-1.942l1.629-.916c.35.701.968 1.145 1.87 1.145.996 0 1.628-.781 1.628-1.657v-.634c-.444.526-1.157.89-2.031.89-1.427 0-3.244-1.132-3.244-3.504zm7.751-3.37h1.83v.755a2.315 2.315 0 0 1 1.857-.89c1.588 0 2.543 1.025 2.543 2.763v4.112h-1.87V6.739c0-.903-.417-1.429-1.238-1.429-.7 0-1.279.485-1.279 1.618v3.68h-1.843v-6.74M41.658 8.963l3.539-3.464h-3.485v-1.63h5.961v1.657l-3.539 3.451h3.607v1.631h-6.083V8.963M53.02 7.224c0-.997-.727-1.806-1.722-1.806-1.022 0-1.803.769-1.803 1.806 0 1.038.78 1.82 1.803 1.82.995 0 1.722-.823 1.722-1.82zm-5.253.014c0-2.385 1.75-3.504 3.27-3.504.875 0 1.561.323 2.005.795v-.66h1.843v6.739h-1.843v-.756c-.444.526-1.158.89-2.032.89-1.426 0-3.243-1.132-3.243-3.504zm7.751-3.37h1.83v.755a2.317 2.317 0 0 1 1.856-.89c1.589 0 2.544 1.025 2.544 2.763v4.112h-1.87V6.739c0-.903-.417-1.429-1.238-1.429-.7 0-1.279.485-1.279 1.618v3.68h-1.843v-6.74M39.321 10.605h1.843V3.866h-1.843zM39.321 3.451h1.844V1.789h-1.844zM66.102 5.524V3.866h-1.265V1.789h-1.843v2.077H61.85v1.658h1.144V7.68c0 2.197.7 2.925 2.84 2.925h.268V8.88c-1.13 0-1.265-.162-1.265-1.213V5.524h1.265m-58.099.16c0-2.939 2.207-5.055 5.046-5.055 1.844 0 3.445.97 4.306 2.439L15.714 4.12c-.552-1.025-1.413-1.645-2.665-1.645-1.83 0-3.189 1.402-3.189 3.208 0 1.766 1.346 3.18 3.149 3.18 1.345 0 2.288-.78 2.785-1.832l1.71.903c-.862 1.671-2.503 2.803-4.455 2.803-3.04 0-5.046-2.25-5.046-5.054"/><path fill="#0499EE" d="M0 54.632h1.746V.773H0z"/></g></svg>