<svg xmlns="http://www.w3.org/2000/svg" width="144" height="80"><g fill="none" fill-rule="evenodd"><path d="M1.8 35.5c0-1.5.28-2.905.84-4.215s1.325-2.455 2.295-3.435 2.1-1.75 3.39-2.31 2.665-.84 4.125-.84c1.44 0 2.69.235 3.75.705s1.95.985 2.67 1.545A11.34 11.34 0 0 1 21 29.2l-1.05.9c-.52-.72-1.14-1.37-1.86-1.95-.62-.48-1.4-.925-2.34-1.335s-2.04-.615-3.3-.615c-1.28 0-2.475.24-3.585.72s-2.08 1.135-2.91 1.965-1.48 1.81-1.95 2.94S3.3 34.18 3.3 35.5s.235 2.545.705 3.675 1.12 2.11 1.95 2.94 1.8 1.485 2.91 1.965 2.305.72 3.585.72 2.395-.2 3.345-.6 1.745-.85 2.385-1.35c.74-.56 1.38-1.21 1.92-1.95l1.05.9c-.62.84-1.36 1.59-2.22 2.25-.74.58-1.645 1.1-2.715 1.56s-2.325.69-3.765.69c-1.46 0-2.835-.28-4.125-.84s-2.42-1.33-3.39-2.31S3.2 41.025 2.64 39.715 1.8 37 1.8 35.5zm21.25 3.3c0-1.04.19-2.02.57-2.94s.9-1.715 1.56-2.385 1.425-1.2 2.295-1.59 1.795-.585 2.775-.585 1.905.195 2.775.585 1.635.92 2.295 1.59 1.18 1.465 1.56 2.385.57 1.9.57 2.94c0 1.06-.19 2.045-.57 2.955s-.9 1.7-1.56 2.37-1.425 1.2-2.295 1.59-1.795.585-2.775.585-1.905-.195-2.775-.585-1.635-.92-2.295-1.59-1.18-1.46-1.56-2.37-.57-1.895-.57-2.955zm13.05 0a6.26 6.26 0 0 0-.465-2.415c-.31-.75-.735-1.4-1.275-1.95a6.14 6.14 0 0 0-1.875-1.305 5.38 5.38 0 0 0-2.235-.48 5.38 5.38 0 0 0-2.235.48 6.14 6.14 0 0 0-1.875 1.305c-.54.55-.965 1.2-1.275 1.95A6.26 6.26 0 0 0 24.4 38.8a6.26 6.26 0 0 0 .465 2.415c.31.75.735 1.4 1.275 1.95a6.14 6.14 0 0 0 1.875 1.305 5.38 5.38 0 0 0 2.235.48 5.38 5.38 0 0 0 2.235-.48 6.14 6.14 0 0 0 1.875-1.305c.54-.55.965-1.2 1.275-1.95A6.26 6.26 0 0 0 36.1 38.8zm6.1-4.65c.28-.52.65-.99 1.11-1.41.4-.36.915-.69 1.545-.99s1.395-.45 2.295-.45c.82 0 1.585.15 2.295.45a5.56 5.56 0 0 1 1.86 1.275c.53.55.945 1.2 1.245 1.95S53 36.55 53 37.45V46h-1.35v-8.55c0-.72-.115-1.375-.345-1.965s-.545-1.095-.945-1.515a4.16 4.16 0 0 0-1.425-.975 4.58 4.58 0 0 0-1.785-.345c-.68 0-1.32.135-1.92.405a5.12 5.12 0 0 0-1.575 1.095c-.45.46-.805 1.015-1.065 1.665a5.56 5.56 0 0 0-.39 2.085V46h-1.35V31.6h1.35v2.55zm16.45 0c.28-.52.65-.99 1.11-1.41.4-.36.915-.69 1.545-.99s1.395-.45 2.295-.45c.82 0 1.585.15 2.295.45a5.56 5.56 0 0 1 1.86 1.275c.53.55.945 1.2 1.245 1.95s.45 1.575.45 2.475V46H68.1v-8.55c0-.72-.115-1.375-.345-1.965s-.545-1.095-.945-1.515a4.16 4.16 0 0 0-1.425-.975 4.58 4.58 0 0 0-1.785-.345c-.68 0-1.32.135-1.92.405a5.12 5.12 0 0 0-1.575 1.095c-.45.46-.805 1.015-1.065 1.665a5.56 5.56 0 0 0-.39 2.085V46H57.3V31.6h1.35v2.55zM73.9 39.4a5.61 5.61 0 0 0 .54 2.145 6.14 6.14 0 0 0 1.245 1.755c.51.5 1.1.9 1.77 1.2a5.19 5.19 0 0 0 2.145.45c.78 0 1.47-.13 2.07-.39s1.1-.55 1.5-.87a5.65 5.65 0 0 0 1.23-1.26l.9.87c-.4.56-.88 1.06-1.44 1.5-.48.38-1.075.725-1.785 1.035s-1.535.465-2.475.465-1.835-.195-2.685-.585a7.42 7.42 0 0 1-2.25-1.59c-.65-.67-1.165-1.46-1.545-2.37s-.57-1.895-.57-2.955c0-1.04.19-2.02.57-2.94s.89-1.715 1.53-2.385 1.375-1.2 2.205-1.59 1.695-.585 2.595-.585 1.75.18 2.55.54 1.5.87 2.1 1.53 1.075 1.45 1.425 2.37.525 1.94.525 3.06v.6H73.9zm5.55-6.75c-.72 0-1.405.15-2.055.45a6.31 6.31 0 0 0-1.74 1.185 5.83 5.83 0 0 0-1.23 1.71 5.43 5.43 0 0 0-.525 2.055h10.8c-.04-.78-.2-1.5-.48-2.16s-.655-1.23-1.125-1.71-1.015-.855-1.635-1.125-1.29-.405-2.01-.405zm8.8 6.15c0-1.04.19-2.02.57-2.94a7.49 7.49 0 0 1 1.545-2.385 7.42 7.42 0 0 1 2.25-1.59c.85-.39 1.745-.585 2.685-.585s1.765.155 2.475.465 1.305.655 1.785 1.035c.56.44 1.04.94 1.44 1.5l-1.05.9a4.87 4.87 0 0 0-1.14-1.26c-.4-.32-.89-.615-1.47-.885s-1.26-.405-2.04-.405a5.01 5.01 0 0 0-2.16.48c-.68.32-1.285.755-1.815 1.305s-.95 1.2-1.26 1.95A6.26 6.26 0 0 0 89.6 38.8a6.26 6.26 0 0 0 .465 2.415c.31.75.73 1.4 1.26 1.95s1.135.985 1.815 1.305a5.01 5.01 0 0 0 2.16.48c.78 0 1.46-.13 2.04-.39s1.07-.55 1.47-.87c.46-.36.84-.79 1.14-1.29l1.05.9c-.4.56-.88 1.06-1.44 1.5-.48.38-1.075.725-1.785 1.035s-1.535.465-2.475.465-1.835-.195-2.685-.585a7.42 7.42 0 0 1-2.25-1.59c-.65-.67-1.165-1.46-1.545-2.37s-.57-1.895-.57-2.955zm17.05-12h1.2v4.8h3.3v1.35h-3.3v9.45c0 .84.205 1.475.615 1.905s.955.645 1.635.645c.26 0 .51-.02.75-.06a4.18 4.18 0 0 0 .63-.15c.22-.08.41-.16.57-.24v1.35c-.16.08-.35.16-.57.24a4.18 4.18 0 0 1-.63.15c-.24.04-.49.06-.75.06-1.14 0-2.025-.33-2.655-.99s-.945-1.63-.945-2.91v-9.45h-2.85V31.6h1.95c.3 0 .55-.105.75-.315s.3-.505.3-.885v-3.6zm8.05 12.6a5.61 5.61 0 0 0 .54 2.145 6.14 6.14 0 0 0 1.245 1.755c.51.5 1.1.9 1.77 1.2a5.19 5.19 0 0 0 2.145.45c.78 0 1.47-.13 2.07-.39s1.1-.55 1.5-.87a5.65 5.65 0 0 0 1.23-1.26l.9.87c-.4.56-.88 1.06-1.44 1.5-.48.38-1.075.725-1.785 1.035s-1.535.465-2.475.465-1.835-.195-2.685-.585a7.42 7.42 0 0 1-2.25-1.59c-.65-.67-1.165-1.46-1.545-2.37S112 39.86 112 38.8c0-1.04.19-2.02.57-2.94s.89-1.715 1.53-2.385 1.375-1.2 2.205-1.59S118 31.3 118.9 31.3s1.75.18 2.55.54 1.5.87 2.1 1.53 1.075 1.45 1.425 2.37.525 1.94.525 3.06v.6h-12.15zm5.55-6.75c-.72 0-1.405.15-2.055.45a6.31 6.31 0 0 0-1.74 1.185 5.83 5.83 0 0 0-1.23 1.71 5.43 5.43 0 0 0-.525 2.055h10.8c-.04-.78-.2-1.5-.48-2.16s-.655-1.23-1.125-1.71-1.015-.855-1.635-1.125-1.29-.405-2.01-.405zM140 38.8a6.26 6.26 0 0 0-.465-2.415 6.32 6.32 0 0 0-1.245-1.95 6.06 6.06 0 0 0-1.77-1.305c-.66-.32-1.35-.48-2.07-.48-.68 0-1.34.16-1.98.48s-1.215.755-1.725 1.305-.92 1.2-1.23 1.95a6.26 6.26 0 0 0-.465 2.415 6.26 6.26 0 0 0 .465 2.415c.31.75.72 1.4 1.23 1.95s1.085.985 1.725 1.305 1.3.48 1.98.48c.72 0 1.41-.16 2.07-.48a6.06 6.06 0 0 0 1.77-1.305 6.32 6.32 0 0 0 1.245-1.95A6.26 6.26 0 0 0 140 38.8zm0-13.8h1.35v21H140v-2.85a6.99 6.99 0 0 1-1.38 1.59c-.46.4-1.035.76-1.725 1.08s-1.505.48-2.445.48c-.86 0-1.695-.195-2.505-.585a7.28 7.28 0 0 1-2.16-1.59 7.82 7.82 0 0 1-1.515-2.37c-.38-.91-.57-1.895-.57-2.955 0-1.04.19-2.02.57-2.94s.885-1.715 1.515-2.385a7.28 7.28 0 0 1 2.16-1.59c.81-.39 1.645-.585 2.505-.585.94 0 1.755.165 2.445.495s1.265.695 1.725 1.095a7.29 7.29 0 0 1 1.38 1.56V25zM10.8 56c.98 0 1.88.165 2.7.495s1.53.79 2.13 1.38a6.49 6.49 0 0 1 1.41 2.055c.34.78.51 1.62.51 2.52s-.17 1.74-.51 2.52a6.49 6.49 0 0 1-1.41 2.055c-.6.59-1.31 1.05-2.13 1.38s-1.72.495-2.7.495h-6V77H3.3V56h7.5zm-6 1.5v9.9h6c.78 0 1.495-.125 2.145-.375s1.205-.595 1.665-1.035a4.56 4.56 0 0 0 1.065-1.56c.25-.6.375-1.26.375-1.98s-.125-1.38-.375-1.98a4.56 4.56 0 0 0-1.065-1.56c-.46-.44-1.015-.785-1.665-1.035S11.58 57.5 10.8 57.5h-6zM28 63.65h-.6c-.68 0-1.325.125-1.935.375a5.01 5.01 0 0 0-1.62 1.065 5.15 5.15 0 0 0-1.125 1.665c-.28.65-.42 1.365-.42 2.145V77h-1.35V62.6h1.35V65c.28-.5.66-.95 1.14-1.35.4-.34.92-.65 1.56-.93s1.44-.42 2.4-.42h.6v1.35zm1.15 6.15c0-1.04.19-2.02.57-2.94s.9-1.715 1.56-2.385 1.425-1.2 2.295-1.59 1.795-.585 2.775-.585 1.905.195 2.775.585 1.635.92 2.295 1.59 1.18 1.465 1.56 2.385.57 1.9.57 2.94c0 1.06-.19 2.045-.57 2.955s-.9 1.7-1.56 2.37-1.425 1.2-2.295 1.59-1.795.585-2.775.585-1.905-.195-2.775-.585-1.635-.92-2.295-1.59-1.18-1.46-1.56-2.37-.57-1.895-.57-2.955zm13.05 0a6.26 6.26 0 0 0-.465-2.415c-.31-.75-.735-1.4-1.275-1.95a6.14 6.14 0 0 0-1.875-1.305 5.38 5.38 0 0 0-2.235-.48 5.38 5.38 0 0 0-2.235.48 6.14 6.14 0 0 0-1.875 1.305c-.54.55-.965 1.2-1.275 1.95A6.26 6.26 0 0 0 30.5 69.8a6.26 6.26 0 0 0 .465 2.415c.31.75.735 1.4 1.275 1.95a6.14 6.14 0 0 0 1.875 1.305 5.38 5.38 0 0 0 2.235.48 5.38 5.38 0 0 0 2.235-.48 6.14 6.14 0 0 0 1.875-1.305c.54-.55.965-1.2 1.275-1.95A6.26 6.26 0 0 0 42.2 69.8zm15.85 0a6.26 6.26 0 0 0-.465-2.415 6.32 6.32 0 0 0-1.245-1.95 6.06 6.06 0 0 0-1.77-1.305c-.66-.32-1.35-.48-2.07-.48-.68 0-1.34.16-1.98.48s-1.215.755-1.725 1.305-.92 1.2-1.23 1.95A6.26 6.26 0 0 0 47.1 69.8a6.26 6.26 0 0 0 .465 2.415c.31.75.72 1.4 1.23 1.95s1.085.985 1.725 1.305 1.3.48 1.98.48c.72 0 1.41-.16 2.07-.48a6.06 6.06 0 0 0 1.77-1.305 6.32 6.32 0 0 0 1.245-1.95 6.26 6.26 0 0 0 .465-2.415zm0-13.8h1.35v21h-1.35v-2.85a6.99 6.99 0 0 1-1.38 1.59c-.46.4-1.035.76-1.725 1.08s-1.505.48-2.445.48c-.86 0-1.695-.195-2.505-.585a7.28 7.28 0 0 1-2.16-1.59 7.82 7.82 0 0 1-1.515-2.37c-.38-.91-.57-1.895-.57-2.955 0-1.04.19-2.02.57-2.94s.885-1.715 1.515-2.385a7.28 7.28 0 0 1 2.16-1.59c.81-.39 1.645-.585 2.505-.585.94 0 1.755.165 2.445.495s1.265.695 1.725 1.095a7.29 7.29 0 0 1 1.38 1.56V56zM74.8 74.45a5.66 5.66 0 0 1-1.14 1.44c-.4.36-.91.685-1.53.975s-1.38.435-2.28.435c-.82 0-1.59-.15-2.31-.45a5.37 5.37 0 0 1-1.86-1.275c-.52-.55-.93-1.2-1.23-1.95S64 72.05 64 71.15V62.6h1.35v8.55c0 .72.115 1.375.345 1.965s.545 1.095.945 1.515a4.16 4.16 0 0 0 1.425.975 4.58 4.58 0 0 0 1.785.345c.68 0 1.32-.135 1.92-.405a5.12 5.12 0 0 0 1.575-1.095c.45-.46.805-1.01 1.065-1.65s.39-1.34.39-2.1v-8.1h1.35V77H74.8v-2.55zm4.6-4.65c0-1.04.19-2.02.57-2.94a7.49 7.49 0 0 1 1.545-2.385 7.42 7.42 0 0 1 2.25-1.59c.85-.39 1.745-.585 2.685-.585s1.765.155 2.475.465 1.305.655 1.785 1.035c.56.44 1.04.94 1.44 1.5l-1.05.9a4.87 4.87 0 0 0-1.14-1.26c-.4-.32-.89-.615-1.47-.885s-1.26-.405-2.04-.405a5.01 5.01 0 0 0-2.16.48c-.68.32-1.285.755-1.815 1.305s-.95 1.2-1.26 1.95a6.26 6.26 0 0 0-.465 2.415 6.26 6.26 0 0 0 .465 2.415c.31.75.73 1.4 1.26 1.95s1.135.985 1.815 1.305a5.01 5.01 0 0 0 2.16.48c.78 0 1.46-.13 2.04-.39s1.07-.55 1.47-.87c.46-.36.84-.79 1.14-1.29l1.05.9c-.4.56-.88 1.06-1.44 1.5-.48.38-1.075.725-1.785 1.035s-1.535.465-2.475.465-1.835-.195-2.685-.585a7.42 7.42 0 0 1-2.25-1.59c-.65-.67-1.165-1.46-1.545-2.37s-.57-1.895-.57-2.955zm17.05-12h1.2v4.8h3.3v1.35h-3.3v9.45c0 .84.205 1.475.615 1.905s.955.645 1.635.645c.26 0 .51-.02.75-.06a4.18 4.18 0 0 0 .63-.15c.22-.08.41-.16.57-.24v1.35c-.16.08-.35.16-.57.24a4.18 4.18 0 0 1-.63.15c-.24.04-.49.06-.75.06-1.14 0-2.025-.33-2.655-.99s-.945-1.63-.945-2.91v-9.45h-2.85V62.6h1.95c.3 0 .55-.105.75-.315s.3-.505.3-.885v-3.6zm15.7 7.65a4.12 4.12 0 0 0-.87-.9c-.28-.22-.64-.425-1.08-.615a3.75 3.75 0 0 0-1.5-.285c-1.06 0-1.875.26-2.445.78s-.855 1.11-.855 1.77c0 .58.205 1.035.615 1.365s.92.605 1.53.825a24.56 24.56 0 0 0 1.98.615c.71.19 1.37.44 1.98.75s1.12.715 1.53 1.215.615 1.16.615 1.98a4.06 4.06 0 0 1-.36 1.695c-.24.53-.58.99-1.02 1.38s-.975.7-1.605.93-1.335.345-2.115.345c-.84 0-1.57-.125-2.19-.375s-1.15-.525-1.59-.825c-.52-.36-.96-.76-1.32-1.2l1.05-1.05c.32.4.68.75 1.08 1.05a5.04 5.04 0 0 0 1.26.735c.5.21 1.07.315 1.71.315 1.2 0 2.125-.29 2.775-.87s.975-1.29.975-2.13c0-.6-.205-1.07-.615-1.41s-.92-.63-1.53-.87a18.41 18.41 0 0 0-1.98-.645c-.71-.19-1.37-.435-1.98-.735s-1.12-.69-1.53-1.17-.615-1.12-.615-1.92c0-.48.115-.955.345-1.425a4.14 4.14 0 0 1 .96-1.26c.41-.37.9-.665 1.47-.885s1.195-.33 1.875-.33c.7 0 1.33.11 1.89.33s1.04.46 1.44.72c.46.32.85.67 1.17 1.05l-1.05 1.05z" fill="#0033A0"/><path d="M50.213 11.041l4.994-4.914h-4.919V3.813h8.414v2.352l-4.995 4.895h5.09v2.314h-8.582l-.002-2.333zM46.664.669h2.602v2.379h-2.602V.669zm-.035 3.173h2.602v9.56h-2.602v-9.56zm-31.47 4.751c.01-2.733 2.217-4.94 4.932-4.933s4.91 2.226 4.907 4.959-2.205 4.946-4.919 4.946c-1.308.002-2.564-.522-3.487-1.455a4.96 4.96 0 0 1-1.432-3.516zm7.312 0c0-1.357-1.064-2.487-2.393-2.487-1.348 0-2.374 1.128-2.374 2.487s1.026 2.487 2.374 2.487c1.329-.002 2.393-1.13 2.393-2.487zm14.268-4.78h2.584v1.071c.607-.785 1.538-1.262 2.62-1.262 2.242 0 3.59 1.453 3.59 3.919v5.832h-2.64V7.886c0-1.281-.589-2.029-1.747-2.029-.988 0-1.804.688-1.804 2.291v5.22h-2.601l-.002-9.554zm22.206 4.78c0-3.385 2.471-4.975 4.616-4.975 1.235 0 2.203.458 2.829 1.128v-.934h2.601v9.56h-2.601v-1.071c-.626.746-1.633 1.262-2.867 1.262-2.014 0-4.578-1.604-4.578-4.971zm7.52-.019c0-1.415-1.025-2.562-2.431-2.562-1.443 0-2.545 1.09-2.545 2.563s1.101 2.581 2.545 2.581c1.407 0 2.432-1.167 2.432-2.581h-.001zm3.578-4.761h2.583v1.071c.608-.785 1.538-1.262 2.621-1.262 2.241 0 3.59 1.453 3.59 3.919v5.832h-2.64V7.886c0-1.281-.585-2.029-1.747-2.029-.988 0-1.804.688-1.804 2.291v5.22h-2.601l-.001-9.554zm-19.83 9.56v-2.333l4.994-4.914h-4.919V3.813h8.414v2.352l-4.995 4.895M12.384 8.51l-.036.076c-.718 1.524-2.04 2.399-3.625 2.399-2.298 0-4.096-1.829-4.096-4.163 0-2.394 1.785-4.198 4.153-4.198 1.534 0 2.7.723 3.465 2.151l.041.076 2.316-1.49-.039-.065C13.361 1.232 11.198.001 8.78.001c-3.864 0-6.777 2.933-6.777 6.823 0 3.953 2.85 6.823 6.777 6.823 2.531 0 4.767-1.415 5.981-3.783l.036-.071-2.415-1.281zm13.269.083c0-3.385 2.471-4.975 4.616-4.975 1.235 0 2.203.517 2.829 1.223V3.813h2.601v9.294c0 2.696-1.69 4.876-4.9 4.876-2.412 0-4.178-1.263-4.941-2.754l2.298-1.3c.493.994 1.365 1.625 2.64 1.625 1.406 0 2.298-1.109 2.298-2.352v-.901c-.627.746-1.633 1.262-2.867 1.262-2.01 0-4.573-1.604-4.573-4.971zm7.52-.019c0-1.415-1.025-2.562-2.431-2.562-1.443 0-2.545 1.09-2.545 2.563s1.101 2.581 2.545 2.581c1.406 0 2.431-1.167 2.431-2.581zm52.072-2.409V3.813h-1.785V.66h-2.601v3.154h-1.616v2.352h1.612v3.059c0 3.117.988 4.149 4.008 4.149h.38v-2.448c-1.595 0-1.785-.23-1.785-1.721v-3.04h1.787zm.552-4.365a.66.66 0 0 1-.94 0 .65.65 0 0 1-.195-.474c.001-.302.203-.567.493-.645a.66.66 0 0 1 .746.313.67.67 0 0 1-.107.806h.003zm-.874-.88c-.109.107-.169.254-.166.407-.002.154.057.302.165.41s.253.17.404.17.297-.061.404-.17.169-.256.166-.41c.002-.233-.137-.445-.351-.534s-.461-.039-.624.127h.001zm.39.037a.55.55 0 0 1 .199.026c.074.03.121.105.113.186.004.058-.023.113-.071.145-.032.019-.068.031-.105.035.05.005.095.031.125.072.025.033.039.072.04.113v.109c0 .013.002.026.006.038l.005.009h-.12c0-.002 0-.005 0-.007v-.09c.009-.064-.018-.129-.069-.168-.045-.019-.094-.027-.143-.024h-.101v.289h-.13V.958h.253zm.138.115a.33.33 0 0 0-.155-.027h-.11v.266h.116c.041.002.083-.004.122-.016.042-.019.07-.058.076-.104s-.013-.091-.049-.119z" fill="#0033A1" fill-rule="nonzero"/></g></svg>