<svg xmlns="http://www.w3.org/2000/svg" width="114" height="86"><g fill="none" fill-rule="evenodd"><path d="M10.2 27.1L5.55 38.35h9.3L10.2 27.1zM4.95 39.85L2.4 46H.75l8.7-21h1.5l8.7 21H18l-2.55-6.15H4.95zM22.9 25h1.5v21h-1.5V25zm20.9 4.2a4.43 4.43 0 0 1-.63 2.295c-.42.71-.89 1.325-1.41 1.845a13.94 13.94 0 0 1-2.01 1.71l5.4 6.6c.28-.46.53-.99.75-1.59.18-.52.35-1.135.51-1.845s.24-1.515.24-2.415H48c0 1.06-.105 2.01-.315 2.85s-.435 1.56-.675 2.16c-.28.7-.6 1.33-.96 1.89.26.4.54.75.84 1.05.26.28.55.525.87.735s.65.315.99.315c.1 0 .205-.005.315-.015s.215-.025.315-.045a1.07 1.07 0 0 0 .27-.09V46a1.07 1.07 0 0 1-.27.09c-.1.02-.205.035-.315.045s-.215.015-.315.015c-.52 0-1-.125-1.44-.375s-.82-.525-1.14-.825a10.06 10.06 0 0 1-1.02-1.2c-.38.5-.84.93-1.38 1.29-.46.32-1.04.61-1.74.87s-1.51.39-2.43.39c-.86 0-1.65-.14-2.37-.42s-1.335-.655-1.845-1.125-.91-1.01-1.2-1.62a4.45 4.45 0 0 1-.435-1.935c0-.94.22-1.785.66-2.535s.92-1.395 1.44-1.935a10.76 10.76 0 0 1 2.1-1.68c-.62-.6-1.17-1.23-1.65-1.89-.42-.56-.8-1.175-1.14-1.845s-.51-1.325-.51-1.965.125-1.24.375-1.8a4.86 4.86 0 0 1 2.475-2.475c.56-.25 1.16-.375 1.8-.375a4.58 4.58 0 0 1 1.785.345 4.38 4.38 0 0 1 2.37 2.37A4.58 4.58 0 0 1 43.8 29.2zm-5.1 6.75a11.47 11.47 0 0 0-1.8 1.56c-.46.48-.875 1.04-1.245 1.68S35.1 40.5 35.1 41.2c0 1.06.39 1.95 1.17 2.67s1.89 1.08 3.33 1.08c.76 0 1.43-.115 2.01-.345s1.07-.485 1.47-.765c.46-.34.85-.72 1.17-1.14l-5.55-6.75zm-2.7-6.6c0 .52.155 1.065.465 1.635s.655 1.085 1.035 1.545c.44.54.94 1.08 1.5 1.62.62-.5 1.19-1.02 1.71-1.56a9.2 9.2 0 0 0 1.2-1.575c.36-.59.54-1.195.54-1.815 0-.9-.3-1.65-.9-2.25s-1.35-.9-2.25-.9c-.46 0-.89.09-1.29.27s-.75.42-1.05.72a3.29 3.29 0 0 0-.705 1.05A3.19 3.19 0 0 0 36 29.35zM10.2 58.1L5.55 69.35h9.3L10.2 58.1zM4.95 70.85L2.4 77H.75l8.7-21h1.5l8.7 21H18l-2.55-6.15H4.95zm18.55-5.7c.28-.52.65-.99 1.11-1.41.4-.36.915-.69 1.545-.99s1.395-.45 2.295-.45c.82 0 1.585.15 2.295.45a5.56 5.56 0 0 1 1.86 1.275c.53.55.945 1.2 1.245 1.95s.45 1.575.45 2.475V77h-1.35v-8.55c0-.72-.115-1.375-.345-1.965s-.545-1.095-.945-1.515a4.16 4.16 0 0 0-1.425-.975 4.58 4.58 0 0 0-1.785-.345c-.68 0-1.32.135-1.92.405a5.12 5.12 0 0 0-1.575 1.095c-.45.46-.805 1.015-1.065 1.665a5.56 5.56 0 0 0-.39 2.085V77h-1.35V62.6h1.35v2.55zM47.15 68a4.64 4.64 0 0 0-.315-1.725 4.4 4.4 0 0 0-.855-1.38 3.88 3.88 0 0 0-1.275-.915c-.49-.22-1.025-.33-1.605-.33-.66 0-1.25.11-1.77.33s-.96.46-1.32.72a6.95 6.95 0 0 0-1.11 1.05l-.9-.9c.36-.48.8-.9 1.32-1.26.44-.32.975-.615 1.605-.885S42.28 62.3 43.1 62.3a5.31 5.31 0 0 1 2.16.435c.66.29 1.23.69 1.71 1.2s.855 1.115 1.125 1.815.405 1.45.405 2.25v9h-1.35v-2.4c-.34.52-.77.97-1.29 1.35-.44.34-.985.65-1.635.93s-1.425.42-2.325.42c-.72 0-1.375-.11-1.965-.33s-1.095-.52-1.515-.9-.745-.815-.975-1.305-.345-.995-.345-1.515c0-1.14.385-2.095 1.155-2.865S40.09 69.12 41.45 68.9l5.7-.9zm-5.25 7.95a5.38 5.38 0 0 0 2.085-.405c.65-.27 1.205-.635 1.665-1.095s.825-1.01 1.095-1.65.405-1.34.405-2.1v-1.35l-5.4.9c-1.14.18-1.975.535-2.505 1.065s-.795 1.175-.795 1.935a2.19 2.19 0 0 0 .24.99c.16.32.39.61.69.87a3.32 3.32 0 0 0 1.095.615c.43.15.905.225 1.425.225zM54.15 77H52.8V56h1.35v21zm8.35 0l-5.85-14.4h1.5l5.1 12.6 5.1-12.6h1.5l-6.9 17.1c-.52 1.28-1.085 2.2-1.695 2.76s-1.445.84-2.505.84c-.38 0-.7-.05-.96-.15-.14-.04-.27-.09-.39-.15v-1.35c.12.06.25.11.39.15.26.1.58.15.96.15.68 0 1.225-.185 1.635-.555s.765-.935 1.065-1.695L62.5 77zm11.05-19.2h1.2v4.8h3.3v1.35h-3.3v9.45c0 .84.205 1.475.615 1.905s.955.645 1.635.645c.26 0 .51-.02.75-.06a4.18 4.18 0 0 0 .63-.15c.22-.08.41-.16.57-.24v1.35c-.16.08-.35.16-.57.24a4.18 4.18 0 0 1-.63.15c-.24.04-.49.06-.75.06-1.14 0-2.025-.33-2.655-.99s-.945-1.63-.945-2.91v-9.45h-2.85V62.6h1.95c.3 0 .55-.105.75-.315s.3-.505.3-.885v-3.6zm8.5 4.8h1.35V77h-1.35V62.6zm-.3-5.1c0-.3.1-.55.3-.75s.45-.3.75-.3.55.1.75.3.3.45.3.75-.1.55-.3.75-.45.3-.75.3-.55-.1-.75-.3-.3-.45-.3-.75zm5.05 12.3c0-1.04.19-2.02.57-2.94a7.49 7.49 0 0 1 1.545-2.385 7.42 7.42 0 0 1 2.25-1.59c.85-.39 1.745-.585 2.685-.585s1.765.155 2.475.465 1.305.655 1.785 1.035c.56.44 1.04.94 1.44 1.5l-1.05.9a4.87 4.87 0 0 0-1.14-1.26c-.4-.32-.89-.615-1.47-.885s-1.26-.405-2.04-.405a5.01 5.01 0 0 0-2.16.48c-.68.32-1.285.755-1.815 1.305s-.95 1.2-1.26 1.95a6.26 6.26 0 0 0-.465 2.415 6.26 6.26 0 0 0 .465 2.415c.31.75.73 1.4 1.26 1.95s1.135.985 1.815 1.305a5.01 5.01 0 0 0 2.16.48c.78 0 1.46-.13 2.04-.39s1.07-.55 1.47-.87c.46-.36.84-.79 1.14-1.29l1.05.9c-.4.56-.88 1.06-1.44 1.5-.48.38-1.075.725-1.785 1.035s-1.535.465-2.475.465-1.835-.195-2.685-.585a7.42 7.42 0 0 1-2.25-1.59c-.65-.67-1.165-1.46-1.545-2.37s-.57-1.895-.57-2.955zm23.05-4.35a4.12 4.12 0 0 0-.87-.9c-.28-.22-.64-.425-1.08-.615a3.75 3.75 0 0 0-1.5-.285c-1.06 0-1.875.26-2.445.78s-.855 1.11-.855 1.77c0 .58.205 1.035.615 1.365s.92.605 1.53.825a24.56 24.56 0 0 0 1.98.615c.71.19 1.37.44 1.98.75s1.12.715 1.53 1.215.615 1.16.615 1.98a4.06 4.06 0 0 1-.36 1.695c-.24.53-.58.99-1.02 1.38s-.975.7-1.605.93-1.335.345-2.115.345c-.84 0-1.57-.125-2.19-.375s-1.15-.525-1.59-.825c-.52-.36-.96-.76-1.32-1.2l1.05-1.05c.32.4.68.75 1.08 1.05a5.04 5.04 0 0 0 1.26.735c.5.21 1.07.315 1.71.315 1.2 0 2.125-.29 2.775-.87s.975-1.29.975-2.13c0-.6-.205-1.07-.615-1.41s-.92-.63-1.53-.87a18.41 18.41 0 0 0-1.98-.645c-.71-.19-1.37-.435-1.98-.735s-1.12-.69-1.53-1.17-.615-1.12-.615-1.92c0-.48.115-.955.345-1.425a4.14 4.14 0 0 1 .96-1.26c.41-.37.9-.665 1.47-.885s1.195-.33 1.875-.33c.7 0 1.33.11 1.89.33s1.04.46 1.44.72c.46.32.85.67 1.17 1.05l-1.05 1.05z" fill="#0033A0"/><path d="M50.213 11.041l4.994-4.914h-4.919V3.813h8.414v2.352l-4.995 4.895h5.09v2.314h-8.582l-.002-2.333zM46.664.669h2.602v2.379h-2.602V.669zm-.035 3.173h2.602v9.56h-2.602v-9.56zm-31.47 4.751c.01-2.733 2.217-4.94 4.932-4.933s4.91 2.226 4.907 4.959-2.205 4.946-4.919 4.946c-1.308.002-2.564-.522-3.487-1.455a4.96 4.96 0 0 1-1.432-3.516zm7.312 0c0-1.357-1.064-2.487-2.393-2.487-1.348 0-2.374 1.128-2.374 2.487s1.026 2.487 2.374 2.487c1.329-.002 2.393-1.13 2.393-2.487zm14.268-4.78h2.584v1.071c.607-.785 1.538-1.262 2.62-1.262 2.242 0 3.59 1.453 3.59 3.919v5.832h-2.64V7.886c0-1.281-.589-2.029-1.747-2.029-.988 0-1.804.688-1.804 2.291v5.22h-2.601l-.002-9.554zm22.206 4.78c0-3.385 2.471-4.975 4.616-4.975 1.235 0 2.203.458 2.829 1.128v-.934h2.601v9.56h-2.601v-1.071c-.626.746-1.633 1.262-2.867 1.262-2.014 0-4.578-1.604-4.578-4.971zm7.52-.019c0-1.415-1.025-2.562-2.431-2.562-1.443 0-2.545 1.09-2.545 2.563s1.101 2.581 2.545 2.581c1.407 0 2.432-1.167 2.432-2.581h-.001zm3.578-4.761h2.583v1.071c.608-.785 1.538-1.262 2.621-1.262 2.241 0 3.59 1.453 3.59 3.919v5.832h-2.64V7.886c0-1.281-.585-2.029-1.747-2.029-.988 0-1.804.688-1.804 2.291v5.22h-2.601l-.001-9.554zm-19.83 9.56v-2.333l4.994-4.914h-4.919V3.813h8.414v2.352l-4.995 4.895M12.384 8.51l-.036.076c-.718 1.524-2.04 2.399-3.625 2.399-2.298 0-4.096-1.829-4.096-4.163 0-2.394 1.785-4.198 4.153-4.198 1.534 0 2.7.723 3.465 2.151l.041.076 2.316-1.49-.039-.065C13.361 1.232 11.198.001 8.78.001c-3.864 0-6.777 2.933-6.777 6.823 0 3.953 2.85 6.823 6.777 6.823 2.531 0 4.767-1.415 5.981-3.783l.036-.071-2.415-1.281zm13.269.083c0-3.385 2.471-4.975 4.616-4.975 1.235 0 2.203.517 2.829 1.223V3.813h2.601v9.294c0 2.696-1.69 4.876-4.9 4.876-2.412 0-4.178-1.263-4.941-2.754l2.298-1.3c.493.994 1.365 1.625 2.64 1.625 1.406 0 2.298-1.109 2.298-2.352v-.901c-.627.746-1.633 1.262-2.867 1.262-2.01 0-4.573-1.604-4.573-4.971zm7.52-.019c0-1.415-1.025-2.562-2.431-2.562-1.443 0-2.545 1.09-2.545 2.563s1.101 2.581 2.545 2.581c1.406 0 2.431-1.167 2.431-2.581zm52.072-2.409V3.813h-1.785V.66h-2.601v3.154h-1.616v2.352h1.612v3.059c0 3.117.988 4.149 4.008 4.149h.38v-2.448c-1.595 0-1.785-.23-1.785-1.721v-3.04h1.787zm.552-4.365a.66.66 0 0 1-.94 0 .65.65 0 0 1-.195-.474c.001-.302.203-.567.493-.645a.66.66 0 0 1 .746.313.67.67 0 0 1-.107.806h.003zm-.874-.88c-.109.107-.169.254-.166.407-.002.154.057.302.165.41s.253.17.404.17.297-.061.404-.17.169-.256.166-.41c.002-.233-.137-.445-.351-.534s-.461-.039-.624.127h.001zm.39.037a.55.55 0 0 1 .199.026c.074.03.121.105.113.186.004.058-.023.113-.071.145-.032.019-.068.031-.105.035.05.005.095.031.125.072.025.033.039.072.04.113v.109c0 .013.002.026.006.038l.005.009h-.12c0-.002 0-.005 0-.007v-.09c.009-.064-.018-.129-.069-.168-.045-.019-.094-.027-.143-.024h-.101v.289h-.13V.958h.253zm.138.115a.33.33 0 0 0-.155-.027h-.11v.266h.116c.041.002.083-.004.122-.016.042-.019.07-.058.076-.104s-.013-.091-.049-.119z" fill="#0033A1" fill-rule="nonzero"/></g></svg>