<svg xmlns="http://www.w3.org/2000/svg" width="104" height="55"><g fill="none" fill-rule="evenodd"><path d="M13.65 40.45c0-.72-.17-1.315-.51-1.785s-.78-.87-1.32-1.2-1.16-.615-1.86-.855l-2.16-.705c-.74-.23-1.46-.485-2.16-.765s-1.32-.635-1.86-1.065-.98-.95-1.32-1.56-.51-1.365-.51-2.265a5.08 5.08 0 0 1 .465-2.13 5.2 5.2 0 0 1 1.32-1.77c.57-.5 1.26-.9 2.07-1.2s1.725-.45 2.745-.45c.98 0 1.84.135 2.58.405s1.37.565 1.89.885a6.36 6.36 0 0 1 1.53 1.26L13.5 28.3c-.34-.38-.75-.73-1.23-1.05-.42-.26-.935-.5-1.545-.72S9.39 26.2 8.55 26.2c-.82 0-1.55.105-2.19.315s-1.175.5-1.605.87-.755.8-.975 1.29a3.8 3.8 0 0 0-.33 1.575c0 .72.17 1.315.51 1.785s.78.87 1.32 1.2 1.16.615 1.86.855l2.16.705c.74.23 1.46.485 2.16.765s1.32.635 1.86 1.065.98.95 1.32 1.56.51 1.365.51 2.265c0 .82-.155 1.59-.465 2.31a5.18 5.18 0 0 1-1.35 1.86c-.59.52-1.315.93-2.175 1.23s-1.83.45-2.91.45c-1.18 0-2.195-.16-3.045-.48s-1.565-.68-2.145-1.08c-.66-.46-1.23-.99-1.71-1.59L2.4 42.1a5.67 5.67 0 0 0 1.41 1.35c.48.34 1.085.65 1.815.93s1.605.42 2.625.42c1.82 0 3.175-.405 4.065-1.215s1.335-1.855 1.335-3.135zm5.05-1.05a5.61 5.61 0 0 0 .54 2.145 6.14 6.14 0 0 0 1.245 1.755c.51.5 1.1.9 1.77 1.2a5.19 5.19 0 0 0 2.145.45c.78 0 1.47-.13 2.07-.39s1.1-.55 1.5-.87a5.65 5.65 0 0 0 1.23-1.26l.9.87c-.4.56-.88 1.06-1.44 1.5-.48.38-1.075.725-1.785 1.035s-1.535.465-2.475.465-1.835-.195-2.685-.585a7.42 7.42 0 0 1-2.25-1.59c-.65-.67-1.165-1.46-1.545-2.37s-.57-1.895-.57-2.955c0-1.04.19-2.02.57-2.94s.89-1.715 1.53-2.385 1.375-1.2 2.205-1.59 1.695-.585 2.595-.585 1.75.18 2.55.54 1.5.87 2.1 1.53 1.075 1.45 1.425 2.37.525 1.94.525 3.06v.6H18.7zm5.55-6.75c-.72 0-1.405.15-2.055.45a6.31 6.31 0 0 0-1.74 1.185 5.83 5.83 0 0 0-1.23 1.71 5.43 5.43 0 0 0-.525 2.055h10.8c-.04-.78-.2-1.5-.48-2.16s-.655-1.23-1.125-1.71-1.015-.855-1.635-1.125-1.29-.405-2.01-.405zm8.8 6.15c0-1.04.19-2.02.57-2.94a7.49 7.49 0 0 1 1.545-2.385 7.42 7.42 0 0 1 2.25-1.59c.85-.39 1.745-.585 2.685-.585s1.765.155 2.475.465 1.305.655 1.785 1.035c.56.44 1.04.94 1.44 1.5l-1.05.9a4.87 4.87 0 0 0-1.14-1.26c-.4-.32-.89-.615-1.47-.885s-1.26-.405-2.04-.405a5.01 5.01 0 0 0-2.16.48c-.68.32-1.285.755-1.815 1.305s-.95 1.2-1.26 1.95A6.26 6.26 0 0 0 34.4 38.8a6.26 6.26 0 0 0 .465 2.415c.31.75.73 1.4 1.26 1.95s1.135.985 1.815 1.305a5.01 5.01 0 0 0 2.16.48c.78 0 1.46-.13 2.04-.39s1.07-.55 1.47-.87c.46-.36.84-.79 1.14-1.29l1.05.9c-.4.56-.88 1.06-1.44 1.5-.48.38-1.075.725-1.785 1.035s-1.535.465-2.475.465-1.835-.195-2.685-.585a7.42 7.42 0 0 1-2.25-1.59c-.65-.67-1.165-1.46-1.545-2.37s-.57-1.895-.57-2.955zm26.65 4.65a5.66 5.66 0 0 1-1.14 1.44c-.4.36-.91.685-1.53.975s-1.38.435-2.28.435c-.82 0-1.59-.15-2.31-.45a5.37 5.37 0 0 1-1.86-1.275c-.52-.55-.93-1.2-1.23-1.95s-.45-1.575-.45-2.475V31.6h1.35v8.55c0 .72.115 1.375.345 1.965s.545 1.095.945 1.515a4.16 4.16 0 0 0 1.425.975 4.58 4.58 0 0 0 1.785.345c.68 0 1.32-.135 1.92-.405a5.12 5.12 0 0 0 1.575-1.095c.45-.46.805-1.01 1.065-1.65s.39-1.34.39-2.1v-8.1h1.35V46H59.7v-2.55zm12.85-10.8h-.6c-.68 0-1.325.125-1.935.375a5.01 5.01 0 0 0-1.62 1.065 5.15 5.15 0 0 0-1.125 1.665c-.28.65-.42 1.365-.42 2.145V46H65.5V31.6h1.35V34c.28-.5.66-.95 1.14-1.35.4-.34.92-.65 1.56-.93s1.44-.42 2.4-.42h.6v1.35zm2.35-1.05h1.35V46H74.9V31.6zm-.3-5.1c0-.3.1-.55.3-.75s.45-.3.75-.3.55.1.75.3.3.45.3.75-.1.55-.3.75-.45.3-.75.3-.55-.1-.75-.3-.3-.45-.3-.75zm7.45.3h1.2v4.8h3.3v1.35h-3.3v9.45c0 .84.205 1.475.615 1.905s.955.645 1.635.645c.26 0 .51-.02.75-.06a4.18 4.18 0 0 0 .63-.15c.22-.08.41-.16.57-.24v1.35c-.16.08-.35.16-.57.24a4.18 4.18 0 0 1-.63.15c-.24.04-.49.06-.75.06-1.14 0-2.025-.33-2.655-.99s-.945-1.63-.945-2.91v-9.45h-2.85V31.6H81c.3 0 .55-.105.75-.315s.3-.505.3-.885v-3.6zM94.3 46l-5.85-14.4h1.5l5.1 12.6 5.1-12.6h1.5l-6.9 17.1c-.52 1.28-1.085 2.2-1.695 2.76s-1.445.84-2.505.84c-.38 0-.7-.05-.96-.15-.14-.04-.27-.09-.39-.15v-1.35c.12.06.25.11.39.15.26.1.58.15.96.15.68 0 1.225-.185 1.635-.555s.765-.935 1.065-1.695L94.3 46z" fill="#00B140"/><path d="M50.091 11.041l4.994-4.914h-4.919V3.813h8.414v2.352l-4.995 4.895h5.09v2.314h-8.582l-.002-2.333zM46.542.669h2.602v2.379h-2.602V.669zm-.035 3.173h2.602v9.56h-2.602v-9.56zm-31.47 4.751c.01-2.733 2.217-4.94 4.932-4.933s4.91 2.226 4.907 4.959-2.205 4.946-4.919 4.946c-1.308.002-2.564-.522-3.487-1.455a4.96 4.96 0 0 1-1.432-3.516zm7.312 0c0-1.357-1.064-2.487-2.393-2.487-1.348 0-2.374 1.128-2.374 2.487s1.026 2.487 2.374 2.487c1.329-.002 2.393-1.13 2.393-2.487zm14.268-4.78h2.584v1.071c.607-.785 1.538-1.262 2.62-1.262 2.242 0 3.59 1.453 3.59 3.919v5.832h-2.64V7.886c0-1.281-.589-2.029-1.747-2.029-.988 0-1.804.688-1.804 2.291v5.22h-2.601l-.002-9.554zm22.206 4.78c0-3.385 2.471-4.975 4.616-4.975 1.235 0 2.203.458 2.829 1.128v-.934h2.601v9.56h-2.601v-1.071c-.626.746-1.633 1.262-2.867 1.262-2.014 0-4.578-1.604-4.578-4.971zm7.52-.019c0-1.415-1.025-2.562-2.431-2.562-1.443 0-2.545 1.09-2.545 2.563s1.101 2.581 2.545 2.581c1.407 0 2.432-1.167 2.432-2.581h-.001zm3.578-4.761h2.583v1.071c.608-.785 1.538-1.262 2.621-1.262 2.241 0 3.59 1.453 3.59 3.919v5.832h-2.64V7.886c0-1.281-.585-2.029-1.747-2.029-.988 0-1.804.688-1.804 2.291v5.22h-2.601l-.001-9.554zm-19.83 9.56v-2.333l4.994-4.914h-4.919V3.813h8.414v2.352l-4.995 4.895M12.262 8.51l-.036.076c-.718 1.524-2.04 2.399-3.625 2.399-2.298 0-4.096-1.829-4.096-4.163 0-2.394 1.785-4.198 4.153-4.198 1.534 0 2.7.723 3.465 2.151l.041.076 2.316-1.49-.039-.065C13.239 1.232 11.076.001 8.658.001c-3.864 0-6.777 2.933-6.777 6.823 0 3.953 2.85 6.823 6.777 6.823 2.531 0 4.767-1.415 5.981-3.783l.036-.071-2.415-1.281zm13.269.083c0-3.385 2.471-4.975 4.616-4.975 1.235 0 2.203.517 2.829 1.223V3.813h2.601v9.294c0 2.696-1.69 4.876-4.9 4.876-2.412 0-4.178-1.263-4.941-2.754l2.298-1.3c.493.994 1.365 1.625 2.64 1.625 1.406 0 2.298-1.109 2.298-2.352v-.901c-.627.746-1.633 1.262-2.867 1.262-2.01 0-4.573-1.604-4.573-4.971zm7.52-.019c0-1.415-1.025-2.562-2.431-2.562-1.443 0-2.545 1.09-2.545 2.563s1.101 2.581 2.545 2.581c1.406 0 2.431-1.167 2.431-2.581zm52.072-2.409V3.813h-1.785V.66h-2.601v3.154h-1.616v2.352h1.612v3.059c0 3.117.988 4.149 4.008 4.149h.38v-2.448c-1.595 0-1.785-.23-1.785-1.721v-3.04h1.787zm.552-4.365a.66.66 0 0 1-.94 0 .65.65 0 0 1-.195-.474c.001-.302.203-.567.493-.645a.66.66 0 0 1 .746.313.67.67 0 0 1-.107.806h.003zm-.874-.88c-.109.107-.169.254-.166.407-.002.154.057.302.165.41s.253.17.404.17.297-.061.404-.17.169-.256.166-.41c.002-.233-.137-.445-.351-.534s-.461-.039-.624.127h.001zm.39.037a.55.55 0 0 1 .199.026c.074.03.121.105.113.186.004.058-.023.113-.071.145-.032.019-.068.031-.105.035.05.005.095.031.125.072.025.033.039.072.04.113v.109c0 .013.002.026.006.038l.005.009h-.12c0-.002 0-.005 0-.007v-.09c.009-.064-.018-.129-.069-.168-.045-.019-.094-.027-.143-.024h-.101v.289h-.13V.958h.253zm.138.115a.33.33 0 0 0-.155-.027h-.11v.266h.116c.041.002.083-.004.122-.016.042-.019.07-.058.076-.104s-.013-.091-.049-.119z" fill="#0033A1" fill-rule="nonzero"/></g></svg>