<svg xmlns="http://www.w3.org/2000/svg" width="138" height="60"><g><path d="M17.45 17.557c4.782 0 7.173 3.646 7.173 3.646l-1.258 1.13s-1.887-3.017-5.915-3.017-7.174 3.143-7.174 7.29 3.146 7.29 7.174 7.29 6.04-3.017 6.04-3.017l1.258 1.132s-2.516 3.645-7.3 3.645c-5.035 0-9.062-4.022-9.062-9.05s4.027-9.05 9.062-9.05" fill="#fff"/><polygon points="27.038 35.407 28.8 35.407 28.8 17.809 27.038 17.809" fill="#fff"/><path d="M37.56 24.722c-2.39 0-4.405 2.012-4.405 4.652 0 2.614 2.013 4.65 4.405 4.65s4.405-2.01 4.405-4.65-2.014-4.652-4.405-4.652zm0-1.633c3.398 0 6.166 2.765 6.166 6.285s-2.768 6.285-6.166 6.285-6.167-2.766-6.167-6.285 2.77-6.285 6.167-6.285zm17.412 10.683s-1.258 1.886-3.9 1.886c-2.77 0-4.908-2.136-4.908-5.28v-7.04h1.762v7.04c0 2.137 1.5 3.645 3.398 3.645 2.014 0 3.65-1.635 3.65-4.022V23.34h1.762v12.067h-1.762v-1.635m10.184-9.05c-2.014 0-4.027 2.012-4.027 4.652s2.013 4.65 4.027 4.65c2.14 0 4.28-2.137 4.28-4.65s-2.14-4.652-4.28-4.652zm4.28-6.913h1.762v17.598h-1.762v-1.885s-1.51 2.136-4.28 2.136c-3.02 0-5.8-2.766-5.8-6.285s2.77-6.285 5.8-6.285c2.768 0 4.28 2.136 4.28 2.136V17.81z" fill="#fff"/><polyline points="21.854 57.971 21.854 59.732 9.521 59.732 9.521 42.134 21.602 42.134 21.602 43.893 11.409 43.893 11.409 49.676 19.589 49.676 19.589 51.436 11.409 51.436 11.409 57.971 21.854 57.971" fill="#fff"/><path d="M25.893 49.425s1.26-2.01 3.902-2.01c2.895 0 4.908 2.01 4.908 5.153v7.165H32.94v-7.165c0-2.136-1.384-3.52-3.27-3.52-2.14 0-3.776 1.635-3.776 4.022v6.662h-1.76V47.664h1.76v1.76m19.376 4.902v-.755l-4.154.755c-1.5.276-2.265 1.005-2.265 2.137 0 1.005.88 1.885 2.517 1.885 2.265 0 3.9-1.635 3.9-4.022zm0-2.263c0-1.76-1.26-3.017-3.02-3.017-2.14 0-3.398 1.76-3.398 1.76l-1.132-1.13s1.636-2.262 4.53-2.262c2.768 0 4.782 2.01 4.782 4.65v7.668H45.27v-1.635s-1.26 1.886-3.9 1.886c-2.517 0-4.28-1.76-4.28-3.52 0-2.012 1.26-3.268 3.524-3.645l4.657-.755zm11.16 6.285c2.014 0 4.027-2.012 4.027-4.65s-2.013-4.652-4.027-4.652c-2.14 0-4.28 2.137-4.28 4.652s2.14 4.65 4.28 4.65zm-4.28-8.8s1.51-2.136 4.28-2.136c3.02 0 5.8 2.765 5.8 6.285s-2.77 6.285-5.8 6.285c-2.768 0-4.28-2.136-4.28-2.136v1.885h-1.762V42.134h1.762v7.416z" fill="#fff"/><polygon points="64.837 59.732 66.599 59.732 66.599 42.134 64.837 42.134" fill="#fff"/><path d="M70.955 52.82h8.18c-.25-2.137-1.887-3.772-4.027-3.772s-3.9 1.76-4.152 3.772zm0 1.508c.126 2.137 2.013 4.022 4.28 4.022 2.542 0 3.9-2.012 3.9-2.012l1.133 1.132s-1.762 2.514-5.034 2.514-6.04-2.766-6.04-6.285 2.77-6.285 5.915-6.285c3.273 0 5.8 2.513 5.8 6.033 0 .502-.126.904-.126.904l-9.816-.024zm28.58-1.76c0-2.287-1.258-3.52-3.02-3.52s-3.272 1.51-3.272 4.022v6.662H91.48v-7.165c0-2.262-1.257-3.52-3.02-3.52s-3.272 1.51-3.272 4.022v6.662h-1.762V47.664h1.762v1.508s1.007-1.76 3.398-1.76c2.894 0 3.9 2.136 3.9 2.136s1.132-2.136 4.153-2.136c2.643 0 4.656 1.785 4.656 5.153v7.165h-1.762v-7.165m6.032.252h8.18c-.252-2.137-1.888-3.772-4.027-3.772s-3.9 1.76-4.153 3.772zm0 1.508c.126 2.137 2.013 4.022 4.28 4.022 2.542 0 3.9-2.012 3.9-2.012l1.132 1.132s-1.762 2.514-5.034 2.514-6.04-2.766-6.04-6.285 2.768-6.285 5.915-6.285c3.27 0 5.79 2.513 5.79 6.033 0 .502-.126.904-.126.904l-9.816-.024zm14.233-4.902s1.26-2.01 3.9-2.01c2.895 0 4.91 2.01 4.91 5.153v7.165h-1.762v-7.165c0-2.136-1.384-3.52-3.272-3.52-2.14 0-3.776 1.635-3.776 4.022v6.662h-1.762V47.664h1.762v1.76m12.823-5.783h1.637v4.022h2.642V49.3h-2.642v7.165c0 1.257.63 1.885 1.636 1.885.88 0 1.637-.378 1.637-.378v1.635s-.756.377-1.712.377c-2.064 0-3.322-1.257-3.322-3.52V49.3h-2.266v-1.635h1.384c.63 0 1.007-.377 1.007-1.257v-2.766m-107.34-36.3c0-1.06-.838-1.942-1.884-1.942-1.062 0-1.87.88-1.87 1.942s.808 1.942 1.87 1.942c1.046 0 1.884-.88 1.884-1.942zm-5.757 0c0-2.15 1.72-3.883 3.873-3.883s3.873 1.733 3.873 3.883-1.72 3.883-3.873 3.883-3.873-1.733-3.873-3.883zm13.837-.015c0-1.104-.807-2-1.913-2-1.136 0-2.004.85-2.004 2s.868 2.016 2.004 2.016c1.106 0 1.913-.91 1.913-2.016zm-5.837.015c0-2.643 1.944-3.883 3.633-3.883.972 0 1.735.403 2.228.956v-.807h2.048v7.258c0 2.106-1.33 3.808-3.858 3.808-1.9 0-3.29-.985-3.888-2.15l1.81-1.016a2.19 2.19 0 0 0 2.078 1.27c1.106 0 1.81-.866 1.81-1.837v-.7c-.494.582-1.286.985-2.258.985-1.585 0-3.604-1.254-3.604-3.883zm8.613-3.734h2.033v.837c.478-.613 1.21-.986 2.064-.986C42 3.47 43.06 4.604 43.06 6.53v4.555h-2.078V6.8c0-1-.464-1.583-1.376-1.583-.778 0-1.42.538-1.42 1.792v4.078h-2.048V3.618" fill="#fff"/><polyline points="46.29 9.264 50.222 5.425 46.35 5.425 46.35 3.618 52.973 3.618 52.973 5.455 49.041 9.278 53.049 9.278 53.049 11.085 46.29 11.085 46.29 9.264" fill="#fff"/><path d="M58.915 7.336c0-1.104-.808-2-1.913-2-1.136 0-2.003.85-2.003 2s.867 2.016 2.003 2.016c1.106 0 1.913-.91 1.913-2.016zm-5.837.015c0-2.643 1.944-3.883 3.633-3.883.972 0 1.735.358 2.228.88v-.732h2.048v7.468H58.94v-.836c-.494.582-1.287.985-2.258.985-1.585 0-3.603-1.254-3.603-3.883zm8.613-3.734h2.033v.837c.48-.613 1.212-.986 2.064-.986 1.765 0 2.827 1.135 2.827 3.062v4.555h-2.078V6.8c0-1-.464-1.583-1.376-1.583-.778 0-1.42.538-1.42 1.792v4.078H61.69V3.618" fill="#fff"/><polygon points="43.693 11.083 45.741 11.083 45.741 3.615 43.693 3.615" fill="#fff"/><polygon points="43.693 3.156 45.742 3.156 45.742 1.314 43.693 1.314" fill="#fff"/><path d="M73.452 5.453V3.615h-1.406V1.314h-2.048v2.302h-1.27v1.837h1.27v2.39c0 2.434.778 3.24 3.155 3.24h.3V9.17c-1.256 0-1.406-.18-1.406-1.344V5.453h1.406m-64.56.176c0-3.255 2.452-5.6 5.608-5.6 2.048 0 3.827 1.075 4.785 2.703L17.46 3.897c-.614-1.135-1.57-1.822-2.96-1.822-2.034 0-3.544 1.553-3.544 3.554 0 1.956 1.495 3.525 3.5 3.525 1.494 0 2.542-.867 3.094-2.032l1.9 1c-.956 1.85-2.78 3.106-4.95 3.106-3.38 0-5.608-2.495-5.608-5.6" fill="#fff"/><polygon points="0 59.87 1.94 59.87 1.94 .189 0 .189" fill="#00B140"/></g></svg>