<svg xmlns="http://www.w3.org/2000/svg" width="1100" height="300"><g fill="none"><path fill="#FFF" d="M47.37 43.845l-2.635 7.12h5.269l-2.635-7.12zM43.184 54.99l-1.86 5.108h-4.958l8.523-21.672h4.959l8.523 21.672h-4.96l-1.859-5.108h-8.368zm26.499-6.038a9.66 9.66 0 0 0-.79-.124 5.233 5.233 0 0 0-.605-.03c-1.095 0-1.963.34-2.603 1.021-.64.681-.961 1.682-.961 3.003V60.1h-4.184V44.93h4.184v1.857c.31-.371.682-.702 1.116-.99.372-.248.826-.48 1.363-.697.538-.217 1.157-.325 1.86-.325h.62v4.18zm4.184-8.514h3.719v4.8h3.099v3.714h-3.1v6.038c0 .474.176.877.528 1.207.35.33.795.495 1.332.495.434 0 .806-.051 1.116-.154.165-.042.31-.093.434-.155v3.56a19.49 19.49 0 0 1-.806.248 7.335 7.335 0 0 1-.883.155c-.341.041-.708.062-1.1.062-1.55 0-2.738-.429-3.564-1.285-.827-.857-1.24-2.183-1.24-3.979v-6.192h-2.634v-3.715h1.394c.475 0 .878-.18 1.209-.542.33-.361.496-.851.496-1.47v-2.787zM88.899 60.1h-4.184V44.93h4.184v15.17zm.31-19.505c0 .702-.217 1.264-.65 1.687-.435.423-1.044.635-1.83.635-.702 0-1.265-.212-1.689-.635-.423-.423-.635-.985-.635-1.687 0-.702.212-1.264.635-1.687.424-.423.987-.635 1.69-.635.785 0 1.394.212 1.828.635.434.423.65.985.65 1.687zm18.75 19.505h-4.184V49.11h-5.578v10.99h-4.184V49.11h-2.17v-3.716h2.17V43.38c0-1.795.413-3.121 1.24-3.978.826-.857 2.014-1.285 3.564-1.285.392 0 .759.026 1.1.078.34.051.635.108.883.17.29.082.558.155.806.217v3.56a12.666 12.666 0 0 1-.434-.155 4.532 4.532 0 0 0-.496-.108 3.79 3.79 0 0 0-.62-.047c-.537 0-.981.166-1.332.496-.352.33-.527.732-.527 1.207v1.858h9.762v14.706zm.31-19.505c0 .702-.217 1.264-.65 1.687-.435.423-1.044.635-1.83.635-.702 0-1.265-.212-1.688-.635-.424-.423-.636-.985-.636-1.687 0-.702.212-1.264.636-1.687.423-.423.986-.635 1.689-.635.785 0 1.394.212 1.828.635.434.423.651.985.651 1.687zm2.944 11.92c0-1.053.217-2.054.651-3.003a8.238 8.238 0 0 1 1.767-2.508 8.644 8.644 0 0 1 2.619-1.734 7.917 7.917 0 0 1 3.176-.65c1.054 0 1.968.16 2.743.48.775.32 1.42.676 1.937 1.068.6.454 1.106.97 1.519 1.548l-2.635 2.632a4.544 4.544 0 0 0-.898-.991 5.064 5.064 0 0 0-1.116-.697c-.455-.217-.971-.325-1.55-.325-.537 0-1.048.108-1.534.325a4.13 4.13 0 0 0-1.286.898 4.343 4.343 0 0 0-.883 1.331 4.079 4.079 0 0 0-.326 1.626c0 .578.109 1.12.326 1.625.217.506.511.95.883 1.332.372.381.8.68 1.286.897.486.217.997.325 1.534.325.579 0 1.095-.103 1.55-.31a6.313 6.313 0 0 0 1.178-.68c.372-.29.702-.63.991-1.022l2.48 2.632a7.182 7.182 0 0 1-1.519 1.548c-.516.392-1.162.748-1.937 1.068-.775.32-1.689.48-2.743.48a7.917 7.917 0 0 1-3.176-.65 8.644 8.644 0 0 1-2.62-1.734 8.238 8.238 0 0 1-1.766-2.508 7.142 7.142 0 0 1-.65-3.003zm21.54 7.585h-4.184V44.93h4.184v15.17zm.31-19.505c0 .702-.217 1.264-.65 1.687-.435.423-1.044.635-1.83.635-.702 0-1.265-.212-1.688-.635-.424-.423-.636-.985-.636-1.687 0-.702.212-1.264.636-1.687.423-.423.986-.635 1.689-.635.785 0 1.394.212 1.828.635.434.423.651.985.651 1.687zm12.242 17.957c-.33.351-.703.66-1.116.929a6.957 6.957 0 0 1-1.301.635c-.517.196-1.106.294-1.767.294-.785 0-1.488-.119-2.108-.356a5.393 5.393 0 0 1-1.611-.945 3.981 3.981 0 0 1-1.395-3.034c0-1.238.398-2.27 1.193-3.096.796-.825 1.896-1.362 3.301-1.61l4.804-.867c0-.619-.222-1.135-.666-1.548-.445-.412-1.1-.619-1.968-.619-.6 0-1.106.083-1.519.248-.413.165-.765.34-1.054.526-.33.227-.61.485-.837.774l-2.324-2.322a7.292 7.292 0 0 1 1.519-1.455c.496-.372 1.12-.712 1.875-1.022.754-.31 1.637-.464 2.65-.464.97 0 1.854.155 2.65.464.795.31 1.482.738 2.06 1.285a5.635 5.635 0 0 1 1.333 1.92c.31.732.465 1.522.465 2.368V60.1h-4.184v-1.548zm-3.1-1.548c.93 0 1.68-.294 2.248-.882.568-.589.852-1.43.852-2.524v-.464l-3.41.62c-1.136.185-1.704.753-1.704 1.702 0 .475.16.851.48 1.13.32.279.832.418 1.535.418zm15.652 3.096h-4.184V38.427h4.184v21.672zm11.467-21.672h4.649v21.672h-4.65V38.427zm13.482 8.36c.31-.393.681-.754 1.115-1.085a6.966 6.966 0 0 1 1.364-.743c.537-.227 1.157-.34 1.86-.34.847 0 1.632.15 2.355.449.723.3 1.348.738 1.875 1.316.527.578.935 1.274 1.224 2.09.29.815.434 1.749.434 2.801V60.1h-4.184v-8.36c0-.928-.274-1.676-.821-2.244-.548-.567-1.255-.851-2.123-.851-.93 0-1.679.299-2.247.898-.568.598-.852 1.486-.852 2.662V60.1h-4.184V44.93h4.184v1.857zm16.116-6.348h3.719v4.8h3.099v3.714h-3.1v6.038c0 .474.176.877.527 1.207.352.33.796.495 1.333.495.434 0 .806-.051 1.116-.154.165-.042.31-.093.434-.155v3.56c-.248.083-.517.165-.806.248a7.335 7.335 0 0 1-.883.155c-.341.041-.708.062-1.1.062-1.55 0-2.738-.429-3.565-1.285-.826-.857-1.24-2.183-1.24-3.979v-6.192h-2.634v-3.715h1.395c.475 0 .878-.18 1.209-.542.33-.361.496-.851.496-1.47v-2.787zm13.481 13.468c.165.784.584 1.47 1.255 2.059.672.588 1.596.882 2.774.882.661 0 1.24-.098 1.736-.294.496-.196.92-.408 1.27-.635a4.896 4.896 0 0 0 1.023-.928l2.17 2.786a6.349 6.349 0 0 1-1.674 1.331c-.558.33-1.24.63-2.045.898-.806.269-1.736.403-2.79.403a8.104 8.104 0 0 1-5.718-2.322 7.927 7.927 0 0 1-1.72-2.508 7.596 7.596 0 0 1-.62-3.065c0-1.074.207-2.09.62-3.05.413-.96.982-1.8 1.705-2.523a8.063 8.063 0 0 1 2.51-1.703 7.617 7.617 0 0 1 3.068-.62c1.075 0 2.077.192 3.007.574.93.381 1.735.913 2.417 1.594a7.298 7.298 0 0 1 1.596 2.415c.382.929.573 1.93.573 3.003 0 .29-.01.537-.03.743-.021.207-.042.382-.063.527-.02.165-.04.31-.062.433h-11.002zm3.564-5.728c-.93 0-1.7.269-2.309.805a4.112 4.112 0 0 0-1.255 1.982h6.973a3.629 3.629 0 0 0-1.13-1.982c-.59-.536-1.349-.805-2.279-.805zM231 60.1h-4.184V38.427h4.184v21.672zm8.522 0h-4.184V38.427h4.184v21.672zm8.523 0h-4.184V44.93h4.184v15.17zm.31-19.505c0 .702-.217 1.264-.65 1.687-.435.423-1.044.635-1.83.635-.702 0-1.265-.212-1.688-.635-.424-.423-.636-.985-.636-1.687 0-.702.212-1.264.636-1.687.423-.423.986-.635 1.689-.635.785 0 1.394.212 1.828.635.434.423.651.985.651 1.687zm14.257 17.028c-.33.413-.713.774-1.147 1.084-.372.289-.842.542-1.41.758-.568.217-1.214.325-1.937.325a5.584 5.584 0 0 1-2.495-.603 7.589 7.589 0 0 1-2.185-1.626 8.13 8.13 0 0 1-1.55-2.4 7.443 7.443 0 0 1-.589-2.956c0-1.052.197-2.038.59-2.957a8.13 8.13 0 0 1 1.549-2.399 7.589 7.589 0 0 1 2.185-1.625 5.584 5.584 0 0 1 2.495-.604c.723 0 1.369.113 1.937.34.568.227 1.038.475 1.41.743.434.33.816.692 1.147 1.084v-1.858h4.184v13.933c0 1.094-.202 2.11-.605 3.05a7.474 7.474 0 0 1-1.673 2.445 7.883 7.883 0 0 1-2.557 1.641c-.992.403-2.066.604-3.223.604-1.178 0-2.2-.165-3.069-.496-.867-.33-1.59-.701-2.17-1.114a7.745 7.745 0 0 1-1.735-1.641l2.635-2.477c.289.392.64.733 1.053 1.022a6.35 6.35 0 0 0 1.302.68c.517.207 1.126.31 1.829.31 1.24 0 2.22-.36 2.944-1.083.723-.722 1.085-1.703 1.085-2.941v-1.239zm-6.974-5.418c0 .537.088 1.032.264 1.486.175.454.418.847.728 1.177.31.33.672.588 1.085.774.413.186.857.278 1.333.278.454 0 .898-.092 1.332-.278a3.507 3.507 0 0 0 1.147-.79c.33-.34.594-.732.79-1.176.197-.444.295-.934.295-1.47 0-.517-.098-1.002-.295-1.456a3.936 3.936 0 0 0-.79-1.192 3.507 3.507 0 0 0-2.48-1.068c-.475 0-.919.093-1.332.279a3.366 3.366 0 0 0-1.085.774 3.59 3.59 0 0 0-.728 1.176c-.176.454-.264.95-.264 1.486zm18.596 1.703c.165.784.583 1.47 1.255 2.059.671.588 1.596.882 2.774.882.66 0 1.24-.098 1.735-.294.496-.196.92-.408 1.271-.635a4.897 4.897 0 0 0 1.023-.928l2.17 2.786a6.349 6.349 0 0 1-1.674 1.331c-.558.33-1.24.63-2.046.898-.806.269-1.735.403-2.79.403a8.104 8.104 0 0 1-5.718-2.322 7.927 7.927 0 0 1-1.72-2.508 7.596 7.596 0 0 1-.62-3.065c0-1.074.207-2.09.62-3.05.414-.96.982-1.8 1.705-2.523a8.063 8.063 0 0 1 2.51-1.703 7.617 7.617 0 0 1 3.069-.62c1.074 0 2.076.192 3.006.574.93.381 1.736.913 2.418 1.594a7.298 7.298 0 0 1 1.596 2.415c.382.929.573 1.93.573 3.003 0 .29-.01.537-.031.743-.02.207-.041.382-.062.527-.02.165-.041.31-.062.433h-11.002zm3.564-5.728c-.93 0-1.7.269-2.31.805a4.112 4.112 0 0 0-1.254 1.982h6.973a3.629 3.629 0 0 0-1.131-1.982c-.59-.536-1.348-.805-2.278-.805zm14.876-1.393c.31-.392.682-.753 1.116-1.084a6.966 6.966 0 0 1 1.364-.743c.537-.227 1.157-.34 1.86-.34.846 0 1.631.15 2.354.449.724.3 1.349.738 1.876 1.316.526.578.934 1.274 1.224 2.09.289.815.434 1.749.434 2.801V60.1h-4.184v-8.36c0-.928-.274-1.676-.822-2.244-.547-.567-1.255-.851-2.123-.851-.93 0-1.678.299-2.247.898-.568.598-.852 1.486-.852 2.662V60.1h-4.184V44.93h4.184v1.857zM306 52.514c0-1.053.217-2.054.65-3.003a8.238 8.238 0 0 1 1.767-2.508 8.644 8.644 0 0 1 2.62-1.734 7.917 7.917 0 0 1 3.176-.65c1.054 0 1.968.16 2.743.48.774.32 1.42.676 1.937 1.068.599.454 1.105.97 1.518 1.548l-2.634 2.632a4.544 4.544 0 0 0-.899-.991 5.064 5.064 0 0 0-1.116-.697c-.454-.217-.97-.325-1.55-.325-.536 0-1.048.108-1.533.325a4.13 4.13 0 0 0-1.287.898 4.343 4.343 0 0 0-.883 1.331 4.079 4.079 0 0 0-.325 1.626c0 .578.108 1.12.325 1.625.217.506.512.95.883 1.332.372.381.801.68 1.287.897.485.217.997.325 1.534.325.578 0 1.095-.103 1.55-.31a6.313 6.313 0 0 0 1.177-.68c.372-.29.703-.63.992-1.022l2.48 2.632a7.182 7.182 0 0 1-1.52 1.548c-.516.392-1.162.748-1.936 1.068-.775.32-1.69.48-2.743.48a7.917 7.917 0 0 1-3.177-.65 8.644 8.644 0 0 1-2.619-1.734 8.238 8.238 0 0 1-1.766-2.508 7.142 7.142 0 0 1-.651-3.003zm20.61 1.393c.165.784.583 1.47 1.255 2.059.671.588 1.596.882 2.774.882.66 0 1.24-.098 1.735-.294.496-.196.92-.408 1.27-.635a4.897 4.897 0 0 0 1.024-.928l2.17 2.786a6.349 6.349 0 0 1-1.674 1.331c-.558.33-1.24.63-2.046.898-.806.269-1.736.403-2.79.403a8.104 8.104 0 0 1-5.718-2.322 7.927 7.927 0 0 1-1.72-2.508 7.596 7.596 0 0 1-.62-3.065c0-1.074.207-2.09.62-3.05.414-.96.982-1.8 1.705-2.523a8.063 8.063 0 0 1 2.51-1.703 7.617 7.617 0 0 1 3.069-.62c1.074 0 2.076.192 3.006.574.93.381 1.736.913 2.417 1.594a7.298 7.298 0 0 1 1.597 2.415c.382.929.573 1.93.573 3.003 0 .29-.01.537-.031.743-.02.207-.041.382-.062.527-.02.165-.041.31-.062.433H326.61zm3.564-5.728c-.93 0-1.7.269-2.31.805a4.112 4.112 0 0 0-1.254 1.982h6.973a3.629 3.629 0 0 0-1.131-1.982c-.59-.536-1.348-.805-2.278-.805zm27.118-5.418c0 .846-.217 1.636-.65 2.369a9.552 9.552 0 0 1-1.457 1.904c-.62.64-1.312 1.228-2.077 1.765l5.579 6.81c.289-.474.547-1.02.774-1.64.186-.537.362-1.171.527-1.904.166-.733.248-1.564.248-2.492h1.395c0 1.093-.109 2.074-.325 2.94-.217.868-.45 1.61-.698 2.23-.29.722-.62 1.373-.992 1.95.269.413.558.774.868 1.084.269.289.568.542.899.759.33.216.671.325 1.023.325a3.603 3.603 0 0 0 .65-.062c.104-.02.197-.052.28-.093v1.393a1.107 1.107 0 0 1-.28.093 3.603 3.603 0 0 1-.65.062 2.962 2.962 0 0 1-1.488-.387 6.164 6.164 0 0 1-1.178-.852 10.385 10.385 0 0 1-1.053-1.238c-.393.516-.868.96-1.426 1.331-.475.33-1.074.63-1.798.898-.723.269-1.56.403-2.51.403-.888 0-1.704-.145-2.448-.434a5.97 5.97 0 0 1-1.906-1.16 5.426 5.426 0 0 1-1.24-1.673 4.59 4.59 0 0 1-.45-1.997c0-.97.228-1.842.682-2.616.455-.774.95-1.44 1.488-1.997.64-.66 1.364-1.238 2.17-1.733-.641-.62-1.21-1.27-1.705-1.951a12.873 12.873 0 0 1-1.178-1.904c-.351-.692-.527-1.367-.527-2.028 0-.66.13-1.28.388-1.858a5.015 5.015 0 0 1 1.038-1.517 5.02 5.02 0 0 1 1.519-1.037 4.513 4.513 0 0 1 1.86-.387c.66 0 1.275.119 1.843.356a4.526 4.526 0 0 1 1.472.975c.414.413.739.903.977 1.471.237.568.356 1.182.356 1.842zm-5.269 6.966a11.846 11.846 0 0 0-1.86 1.61 9.003 9.003 0 0 0-1.285 1.734 4.082 4.082 0 0 0-.574 2.074c0 1.094.403 2.013 1.209 2.756.806.743 1.952 1.114 3.44 1.114.785 0 1.477-.118 2.077-.356a7.42 7.42 0 0 0 1.518-.79c.475-.35.878-.742 1.209-1.176l-5.734-6.966zm-2.789-6.811c0 .537.16 1.1.48 1.687.32.589.677 1.12 1.07 1.595.454.557.97 1.114 1.55 1.672.64-.516 1.229-1.053 1.766-1.61a9.494 9.494 0 0 0 1.24-1.626c.371-.609.557-1.233.557-1.873 0-.929-.31-1.703-.93-2.322-.62-.619-1.394-.929-2.324-.929-.475 0-.92.093-1.332.279a3.619 3.619 0 0 0-1.085.743 3.393 3.393 0 0 0-.992 2.384zm31.612.929l-2.634 7.12h5.268l-2.634-7.12zm-4.184 11.146l-1.86 5.108h-4.958l8.523-21.672h4.959l8.522 21.672h-4.958l-1.86-5.108h-8.368zm21.54-8.205c.31-.392.682-.753 1.116-1.084a6.966 6.966 0 0 1 1.363-.743c.537-.227 1.157-.34 1.86-.34.847 0 1.632.15 2.355.449.723.3 1.348.738 1.875 1.316.527.578.935 1.274 1.224 2.09.29.815.434 1.749.434 2.801V60.1h-4.184v-8.36c0-.928-.273-1.676-.821-2.244-.548-.567-1.255-.851-2.123-.851-.93 0-1.679.299-2.247.898-.568.598-.852 1.486-.852 2.662V60.1h-4.184V44.93h4.184v1.857zm22.624 11.765c-.33.351-.702.66-1.116.929a6.957 6.957 0 0 1-1.301.635c-.517.196-1.106.294-1.767.294-.785 0-1.487-.119-2.107-.356a5.393 5.393 0 0 1-1.612-.945 3.981 3.981 0 0 1-1.395-3.034c0-1.238.398-2.27 1.194-3.096.795-.825 1.895-1.362 3.3-1.61l4.804-.867c0-.619-.222-1.135-.666-1.548-.444-.412-1.1-.619-1.968-.619-.6 0-1.106.083-1.519.248-.413.165-.764.34-1.054.526-.33.227-.609.485-.836.774l-2.325-2.322a7.292 7.292 0 0 1 1.519-1.455c.496-.372 1.12-.712 1.875-1.022.754-.31 1.637-.464 2.65-.464.97 0 1.854.155 2.65.464.795.31 1.482.738 2.06 1.285a5.635 5.635 0 0 1 1.333 1.92c.31.732.465 1.522.465 2.368V60.1h-4.184v-1.548zm-3.1-1.548c.93 0 1.68-.294 2.248-.882.568-.589.852-1.43.852-2.524v-.464l-3.409.62c-1.136.185-1.705.753-1.705 1.702 0 .475.16.851.48 1.13.321.279.832.418 1.535.418zm15.652 3.096h-4.184V38.427h4.184v21.672zm8.213-.155l-5.889-15.016h4.34l3.563 10.063 3.565-10.063h4.339l-6.044 16.1c-.702 1.878-1.529 3.277-2.48 4.195-.95.919-2.086 1.378-3.409 1.378-.392 0-.748-.02-1.069-.062a6.177 6.177 0 0 1-.821-.155 15.673 15.673 0 0 1-.744-.248v-3.715c.124.062.269.114.434.155.31.103.682.155 1.116.155.702 0 1.265-.165 1.689-.496.423-.33.738-.732.945-1.207l.465-1.084zm13.947-19.505h3.719v4.8h3.099v3.714h-3.1v6.038c0 .474.176.877.527 1.207.352.33.796.495 1.333.495.434 0 .806-.051 1.116-.154.165-.042.31-.093.434-.155v3.56c-.248.083-.517.165-.806.248a7.335 7.335 0 0 1-.883.155c-.341.041-.708.062-1.1.062-1.55 0-2.738-.429-3.565-1.285-.826-.857-1.24-2.183-1.24-3.979v-6.192h-2.634v-3.715h1.395c.475 0 .878-.18 1.209-.542.33-.361.496-.851.496-1.47v-2.787zm15.03 19.66h-4.183V44.93h4.184v15.17zm.31-19.505c0 .702-.216 1.264-.65 1.687-.434.423-1.044.635-1.829.635-.702 0-1.265-.212-1.689-.635-.423-.423-.635-.985-.635-1.687 0-.702.212-1.264.635-1.687.424-.423.987-.635 1.69-.635.784 0 1.394.212 1.828.635.434.423.65.985.65 1.687zm2.945 11.92c0-1.053.217-2.054.65-3.003a8.238 8.238 0 0 1 1.767-2.508 8.644 8.644 0 0 1 2.62-1.734 7.917 7.917 0 0 1 3.176-.65c1.054 0 1.968.16 2.743.48.775.32 1.42.676 1.937 1.068.599.454 1.105.97 1.518 1.548l-2.634 2.632a4.544 4.544 0 0 0-.899-.991 5.064 5.064 0 0 0-1.115-.697c-.455-.217-.972-.325-1.55-.325-.537 0-1.049.108-1.534.325a4.13 4.13 0 0 0-1.286.898 4.343 4.343 0 0 0-.884 1.331 4.079 4.079 0 0 0-.325 1.626c0 .578.108 1.12.325 1.625.217.506.512.95.884 1.332.372.381.8.68 1.286.897.485.217.997.325 1.534.325.578 0 1.095-.103 1.55-.31a6.313 6.313 0 0 0 1.177-.68c.372-.29.703-.63.992-1.022l2.48 2.632a7.182 7.182 0 0 1-1.52 1.548c-.516.392-1.161.748-1.936 1.068-.775.32-1.69.48-2.743.48a7.917 7.917 0 0 1-3.177-.65 8.644 8.644 0 0 1-2.619-1.734 8.238 8.238 0 0 1-1.766-2.508 7.142 7.142 0 0 1-.651-3.003zm25.569-3.096a3.717 3.717 0 0 0-.651-.62 3.824 3.824 0 0 0-.79-.433 2.701 2.701 0 0 0-1.039-.186c-.62 0-1.085.13-1.394.387-.31.258-.465.542-.465.852 0 .35.17.634.511.851.34.217.77.413 1.286.588.517.176 1.08.362 1.69.558.609.196 1.172.464 1.688.805.517.34.946.779 1.287 1.315.34.537.51 1.229.51 2.075a4.353 4.353 0 0 1-1.564 3.375c-.506.433-1.137.779-1.89 1.037-.755.258-1.617.387-2.589.387-1.095 0-2.035-.145-2.82-.434-.785-.289-1.426-.609-1.921-.96a5.225 5.225 0 0 1-1.457-1.393l2.324-2.322c.248.33.538.62.868.867.29.227.63.423 1.023.588.392.165.847.248 1.364.248.702 0 1.213-.134 1.534-.402.32-.269.48-.599.48-.991s-.17-.697-.511-.914a6.536 6.536 0 0 0-1.286-.603 52.72 52.72 0 0 0-1.69-.573 7.23 7.23 0 0 1-1.689-.79 4.307 4.307 0 0 1-1.286-1.269c-.34-.516-.511-1.197-.511-2.043 0-.578.144-1.156.434-1.734a4.98 4.98 0 0 1 1.224-1.548 6.325 6.325 0 0 1 1.875-1.1 6.496 6.496 0 0 1 2.355-.417c.889 0 1.664.124 2.325.371.66.248 1.208.516 1.642.805.517.351.95.733 1.302 1.146l-2.17 2.477zm-237.667 29.81a13.61 13.61 0 0 1 2.455-2.384c.818-.59 1.818-1.135 3-1.635 1.181-.5 2.545-.75 4.09-.75 1.864 0 3.592.33 5.182.988a11.43 11.43 0 0 1 4.126 2.895c1.159 1.272 2.056 2.804 2.693 4.598.636 1.794.954 3.848.954 6.164v19.412h-9.204v-18.39c0-2.044-.603-3.69-1.807-4.938-1.205-1.25-2.762-1.873-4.67-1.873-2.046 0-3.694.658-4.944 1.975-1.25 1.317-1.875 3.27-1.875 5.858v17.368h-9.205V75.141h9.205v4.087zm38.864 15.666c.364 1.725 1.284 3.235 2.762 4.53 1.477 1.293 3.511 1.94 6.102 1.94 1.455 0 2.727-.215 3.818-.647 1.091-.43 2.023-.896 2.796-1.396a10.772 10.772 0 0 0 2.25-2.043l4.773 6.13c-1 1.135-2.228 2.111-3.682 2.929-1.228.726-2.728 1.385-4.5 1.975-1.773.59-3.819.886-6.137.886-2.454 0-4.761-.455-6.92-1.363-2.16-.908-4.046-2.157-5.66-3.746a17.439 17.439 0 0 1-3.784-5.517c-.909-2.089-1.363-4.337-1.363-6.743 0-2.362.454-4.598 1.363-6.71a17.61 17.61 0 0 1 3.75-5.55 17.74 17.74 0 0 1 5.523-3.747c2.091-.908 4.341-1.362 6.75-1.362 2.364 0 4.569.42 6.614 1.26 2.046.84 3.818 2.01 5.318 3.508 1.5 1.498 2.67 3.27 3.512 5.313.84 2.043 1.261 4.245 1.261 6.607 0 .635-.023 1.18-.068 1.634-.046.454-.091.84-.136 1.158-.046.363-.091.681-.137.954H300.59zm7.841-12.601c-2.045 0-3.738.59-5.08 1.77a9.046 9.046 0 0 0-2.76 4.36h15.34a7.983 7.983 0 0 0-2.488-4.36c-1.296-1.18-2.966-1.77-5.012-1.77zm32.046 26.223l-12.614-33.375h9.546l7.841 22.137 7.841-22.137h9.546l-12.614 33.375h-9.546zm34.433-13.622c.363 1.725 1.284 3.235 2.761 4.53 1.477 1.293 3.512 1.94 6.102 1.94 1.455 0 2.728-.215 3.819-.647 1.09-.43 2.022-.896 2.795-1.396a10.772 10.772 0 0 0 2.25-2.043l4.773 6.13c-1 1.135-2.227 2.111-3.682 2.929-1.227.726-2.727 1.385-4.5 1.975-1.773.59-3.818.886-6.136.886-2.455 0-4.762-.455-6.92-1.363-2.16-.908-4.046-2.157-5.66-3.746a17.439 17.439 0 0 1-3.784-5.517c-.91-2.089-1.364-4.337-1.364-6.743 0-2.362.455-4.598 1.364-6.71a17.61 17.61 0 0 1 3.75-5.55A17.74 17.74 0 0 1 376 75.821c2.09-.908 4.34-1.362 6.75-1.362 2.363 0 4.568.42 6.613 1.26 2.046.84 3.819 2.01 5.319 3.508 1.5 1.498 2.67 3.27 3.511 5.313.841 2.043 1.262 4.245 1.262 6.607 0 .635-.023 1.18-.069 1.634-.045.454-.09.84-.136 1.158-.045.363-.09.681-.136.954h-24.205zm7.84-12.601c-2.045 0-3.738.59-5.079 1.77a9.046 9.046 0 0 0-2.761 4.36h15.34a7.983 7.983 0 0 0-2.488-4.36c-1.295-1.18-2.966-1.77-5.011-1.77zm43.638 1.703a21.253 21.253 0 0 0-1.739-.272c-.386-.046-.83-.069-1.33-.069-2.409 0-4.318.75-5.727 2.248-1.409 1.498-2.113 3.7-2.113 6.607v16.006h-9.205V75.141h9.205v4.087a11.39 11.39 0 0 1 2.454-2.18c.818-.545 1.818-1.056 3-1.532 1.182-.477 2.546-.716 4.091-.716h1.364v9.196zm27.955 8.514h-24.546v-8.174h24.546v8.174zm24.887-7.493c-.41-.5-.887-.953-1.432-1.362a8.413 8.413 0 0 0-1.739-.953c-.659-.273-1.42-.41-2.284-.41-1.364 0-2.386.285-3.068.852-.682.568-1.023 1.192-1.023 1.873 0 .772.375 1.397 1.125 1.873.75.477 1.693.909 2.83 1.295 1.136.386 2.375.794 3.716 1.226 1.34.431 2.58 1.021 3.716 1.77a9.56 9.56 0 0 1 2.83 2.895c.75 1.181 1.124 2.702 1.124 4.564a9.578 9.578 0 0 1-.886 4.087 9.8 9.8 0 0 1-2.557 3.337c-1.114.954-2.5 1.715-4.16 2.282-1.658.568-3.556.852-5.692.852-2.41 0-4.478-.318-6.205-.954-1.727-.636-3.137-1.34-4.227-2.112-1.319-.862-2.387-1.884-3.205-3.065l5.114-5.108a9.493 9.493 0 0 0 1.909 1.907c.636.5 1.386.93 2.25 1.294.863.363 1.863.545 3 .545 1.545 0 2.67-.295 3.375-.885.704-.59 1.057-1.317 1.057-2.18 0-.863-.375-1.533-1.125-2.01-.75-.476-1.693-.919-2.83-1.328a115.98 115.98 0 0 0-3.716-1.26 15.907 15.907 0 0 1-3.716-1.737 9.475 9.475 0 0 1-2.83-2.792c-.75-1.135-1.124-2.634-1.124-4.496 0-1.271.318-2.542.954-3.814.637-1.271 1.534-2.407 2.693-3.406 1.16-.999 2.535-1.805 4.125-2.418 1.591-.613 3.319-.92 5.182-.92 1.955 0 3.66.273 5.114.818 1.455.545 2.66 1.135 3.614 1.771 1.136.772 2.09 1.612 2.863 2.52l-4.772 5.45zm20.114 9.877c.363 1.725 1.284 3.235 2.761 4.53 1.477 1.293 3.511 1.94 6.102 1.94 1.455 0 2.728-.215 3.819-.647 1.09-.43 2.022-.896 2.795-1.396a10.772 10.772 0 0 0 2.25-2.043l4.773 6.13c-1 1.135-2.227 2.111-3.682 2.929-1.227.726-2.727 1.385-4.5 1.975-1.773.59-3.818.886-6.136.886-2.455 0-4.762-.455-6.921-1.363-2.16-.908-4.045-2.157-5.66-3.746a17.439 17.439 0 0 1-3.783-5.517c-.91-2.089-1.364-4.337-1.364-6.743 0-2.362.455-4.598 1.364-6.71a17.61 17.61 0 0 1 3.75-5.55 17.74 17.74 0 0 1 5.523-3.747c2.09-.908 4.34-1.362 6.75-1.362 2.363 0 4.568.42 6.613 1.26 2.046.84 3.819 2.01 5.319 3.508 1.5 1.498 2.67 3.27 3.511 5.313.841 2.043 1.262 4.245 1.262 6.607 0 .635-.023 1.18-.069 1.634-.045.454-.09.84-.136 1.158-.045.363-.09.681-.136.954h-24.205zm7.84-12.601c-2.045 0-3.738.59-5.079 1.77a9.046 9.046 0 0 0-2.761 4.36h15.34a7.983 7.983 0 0 0-2.488-4.36c-1.295-1.18-2.966-1.77-5.011-1.77zm31.024 12.6c.364 1.726 1.284 3.236 2.761 4.53 1.478 1.294 3.512 1.942 6.103 1.942 1.454 0 2.727-.216 3.818-.648 1.09-.43 2.023-.896 2.795-1.396a10.772 10.772 0 0 0 2.25-2.043l4.773 6.13c-1 1.135-2.227 2.111-3.682 2.929-1.227.726-2.727 1.385-4.5 1.975-1.772.59-3.818.886-6.136.886-2.455 0-4.762-.455-6.92-1.363-2.16-.908-4.046-2.157-5.66-3.746a17.439 17.439 0 0 1-3.784-5.517c-.91-2.089-1.364-4.337-1.364-6.743 0-2.362.455-4.598 1.364-6.71a17.61 17.61 0 0 1 3.75-5.55 17.74 17.74 0 0 1 5.523-3.747c2.09-.908 4.34-1.362 6.75-1.362 2.364 0 4.568.42 6.614 1.26 2.045.84 3.818 2.01 5.318 3.508 1.5 1.498 2.67 3.27 3.511 5.313.841 2.043 1.262 4.245 1.262 6.607 0 .635-.023 1.18-.068 1.634-.046.454-.091.84-.137 1.158-.045.363-.09.681-.136.954h-24.205zm7.841-12.6c-2.046 0-3.739.59-5.08 1.77a9.046 9.046 0 0 0-2.761 4.36h15.341a7.983 7.983 0 0 0-2.489-4.36c-1.295-1.18-2.966-1.77-5.011-1.77zm32.728-3.065a13.61 13.61 0 0 1 2.454-2.384c.819-.59 1.819-1.135 3-1.635 1.182-.5 2.546-.75 4.091-.75 1.864 0 3.591.33 5.182.988a11.43 11.43 0 0 1 4.125 2.895c1.16 1.272 2.057 2.804 2.694 4.598.636 1.794.954 3.848.954 6.164v19.412h-9.204v-18.39c0-2.044-.603-3.69-1.807-4.938-1.205-1.25-2.762-1.873-4.67-1.873-2.046 0-3.694.658-4.944 1.975-1.25 1.317-1.875 3.27-1.875 5.858v17.368h-9.205V75.141h9.205v4.087zM632.98 92.51h-24.546v-8.174h24.546v8.174zm25.91-18.05c2.136 0 4.17.443 6.102 1.328 1.932.886 3.637 2.1 5.114 3.644 1.477 1.544 2.648 3.383 3.511 5.517.864 2.134 1.296 4.428 1.296 6.88s-.432 4.745-1.296 6.88c-.863 2.133-2.034 3.972-3.511 5.516a16.579 16.579 0 0 1-5.114 3.644 14.477 14.477 0 0 1-6.102 1.329c-1.637 0-3.068-.239-4.296-.716-1.227-.476-2.25-1.033-3.068-1.668a12.566 12.566 0 0 1-2.523-2.384v4.086H639.8V60.837h9.204v18.39a15.786 15.786 0 0 1 2.523-2.383c.818-.59 1.841-1.135 3.068-1.635 1.228-.5 2.66-.75 4.296-.75zm-1.705 26.564c1.091 0 2.137-.227 3.137-.681a8.285 8.285 0 0 0 2.625-1.873c.75-.795 1.34-1.76 1.772-2.895.432-1.135.648-2.384.648-3.746 0-1.363-.216-2.611-.648-3.747-.431-1.135-1.022-2.1-1.772-2.894a8.285 8.285 0 0 0-2.625-1.873 7.502 7.502 0 0 0-3.137-.682c-1.09 0-2.136.227-3.136.682a8.285 8.285 0 0 0-2.625 1.873c-.75.794-1.341 1.76-1.773 2.894-.432 1.136-.648 2.384-.648 3.747 0 1.362.216 2.61.648 3.746.432 1.135 1.023 2.1 1.773 2.895a8.285 8.285 0 0 0 2.625 1.873c1 .454 2.045.681 3.136.681zm32.046-6.13c.364 1.725 1.284 3.235 2.762 4.53 1.477 1.293 3.511 1.94 6.102 1.94 1.455 0 2.727-.215 3.818-.647 1.091-.43 2.023-.896 2.796-1.396a10.772 10.772 0 0 0 2.25-2.043l4.773 6.13c-1 1.135-2.228 2.111-3.682 2.929-1.228.726-2.728 1.385-4.5 1.975-1.773.59-3.819.886-6.137.886-2.454 0-4.761-.455-6.92-1.363-2.16-.908-4.046-2.157-5.66-3.746a17.439 17.439 0 0 1-3.784-5.517c-.909-2.089-1.363-4.337-1.363-6.743 0-2.362.454-4.598 1.363-6.71a17.61 17.61 0 0 1 3.75-5.55 17.74 17.74 0 0 1 5.523-3.747c2.091-.908 4.341-1.362 6.75-1.362 2.364 0 4.569.42 6.614 1.26 2.046.84 3.818 2.01 5.318 3.508 1.5 1.498 2.67 3.27 3.512 5.313.84 2.043 1.261 4.245 1.261 6.607 0 .635-.023 1.18-.068 1.634-.045.454-.091.84-.136 1.158-.046.363-.091.681-.137.954h-24.205zm7.841-12.601c-2.045 0-3.738.59-5.08 1.77a9.046 9.046 0 0 0-2.76 4.36h15.34a7.983 7.983 0 0 0-2.488-4.36c-1.296-1.18-2.966-1.77-5.012-1.77zm42.274 2.043h-7.5v24.18h-9.205v-24.18h-4.773v-8.173h4.773v-4.428c0-3.95.909-6.868 2.727-8.752 1.818-1.885 4.432-2.827 7.841-2.827.864 0 1.67.057 2.42.17.75.114 1.399.239 1.944.375.636.182 1.227.34 1.773.477v7.833c-.273-.091-.591-.205-.955-.34a9.97 9.97 0 0 0-1.09-.24 8.338 8.338 0 0 0-1.364-.101c-1.182 0-2.16.363-2.932 1.09-.773.726-1.16 1.611-1.16 2.656v4.087h7.5v8.173zm13.636 7.493c0 1.271.216 2.452.648 3.542.432 1.09 1.023 2.02 1.773 2.792a8.556 8.556 0 0 0 2.625 1.84c1 .453 2.045.68 3.136.68 1.091 0 2.137-.227 3.137-.68a8.556 8.556 0 0 0 2.625-1.84c.75-.772 1.34-1.703 1.773-2.792.431-1.09.647-2.27.647-3.542 0-1.272-.216-2.452-.647-3.542-.432-1.09-1.023-2.02-1.773-2.793a8.556 8.556 0 0 0-2.625-1.839 7.502 7.502 0 0 0-3.137-.681c-1.09 0-2.136.227-3.136.681a8.556 8.556 0 0 0-2.625 1.84c-.75.771-1.341 1.702-1.773 2.792-.432 1.09-.648 2.27-.648 3.542zm25.91 0c0 2.316-.477 4.518-1.432 6.607a18.42 18.42 0 0 1-3.852 5.517c-1.614 1.59-3.5 2.86-5.66 3.814-2.159.954-4.42 1.43-6.784 1.43-2.409 0-4.682-.476-6.818-1.43a18.94 18.94 0 0 1-5.625-3.814 18.42 18.42 0 0 1-3.852-5.517 15.713 15.713 0 0 1-1.432-6.607c0-2.316.477-4.518 1.432-6.607a18.42 18.42 0 0 1 3.852-5.517 18.94 18.94 0 0 1 5.625-3.815c2.136-.953 4.41-1.43 6.818-1.43 2.364 0 4.625.477 6.785 1.43 2.159.954 4.045 2.225 5.659 3.815a18.42 18.42 0 0 1 3.852 5.517 15.713 15.713 0 0 1 1.432 6.607zm26.932-7.833a21.253 21.253 0 0 0-1.739-.272c-.386-.046-.83-.069-1.33-.069-2.408 0-4.317.75-5.726 2.248-1.41 1.498-2.114 3.7-2.114 6.607v16.006h-9.205V75.141h9.205v4.087a11.39 11.39 0 0 1 2.454-2.18c.819-.545 1.819-1.056 3-1.532 1.182-.477 2.546-.716 4.092-.716h1.363v9.196zm12.614 10.898c.364 1.725 1.284 3.235 2.761 4.53 1.478 1.293 3.512 1.94 6.103 1.94 1.454 0 2.727-.215 3.818-.647 1.091-.43 2.023-.896 2.796-1.396a10.772 10.772 0 0 0 2.25-2.043l4.772 6.13c-1 1.135-2.227 2.111-3.681 2.929-1.228.726-2.728 1.385-4.5 1.975-1.773.59-3.819.886-6.137.886-2.455 0-4.761-.455-6.92-1.363-2.16-.908-4.046-2.157-5.66-3.746a17.439 17.439 0 0 1-3.784-5.517c-.909-2.089-1.364-4.337-1.364-6.743 0-2.362.455-4.598 1.364-6.71a17.61 17.61 0 0 1 3.75-5.55 17.74 17.74 0 0 1 5.523-3.747c2.09-.908 4.34-1.362 6.75-1.362 2.364 0 4.568.42 6.614 1.26 2.045.84 3.818 2.01 5.318 3.508 1.5 1.498 2.67 3.27 3.512 5.313.84 2.043 1.26 4.245 1.26 6.607 0 .635-.022 1.18-.067 1.634-.046.454-.091.84-.137 1.158-.045.363-.09.681-.136.954h-24.205zm7.841-12.601c-2.045 0-3.739.59-5.08 1.77a9.046 9.046 0 0 0-2.761 4.36h15.341a7.983 7.983 0 0 0-2.488-4.36c-1.296-1.18-2.966-1.77-5.012-1.77z"/><path fill="#0499EE" d="M5.258 168.593c0-4.847 1-9.455 2.997-13.827a37.925 37.925 0 0 1 8.133-11.545c3.424-3.326 7.443-5.987 12.056-7.982 4.614-1.996 9.489-2.994 14.626-2.994 4.85 0 9.06.737 12.627 2.21 3.567 1.473 6.54 3.112 8.918 4.917 2.758 2.09 5.089 4.467 6.991 7.127l-12.128 12.116a20.918 20.918 0 0 0-4.138-4.561c-1.331-1.14-3.044-2.21-5.136-3.207-2.093-.998-4.471-1.497-7.134-1.497-2.474 0-4.828.499-7.063 1.497a19.01 19.01 0 0 0-5.922 4.133c-1.712 1.758-3.067 3.801-4.066 6.13-.999 2.327-1.498 4.822-1.498 7.483 0 2.66.499 5.155 1.498 7.483.999 2.328 2.354 4.37 4.066 6.129a19.01 19.01 0 0 0 5.922 4.133 17.136 17.136 0 0 0 7.063 1.497c2.663 0 5.041-.475 7.134-1.425 2.092-.95 3.9-1.996 5.422-3.136a23.829 23.829 0 0 0 4.566-4.704l11.414 12.116c-1.902 2.66-4.233 5.036-6.991 7.127-2.378 1.805-5.35 3.444-8.918 4.917-3.567 1.473-7.776 2.21-12.627 2.21-5.137 0-10.012-.998-14.626-2.994-4.613-1.995-8.632-4.656-12.056-7.982a37.925 37.925 0 0 1-8.133-11.545c-1.998-4.372-2.997-8.98-2.997-13.826zm112.04 27.794a27.902 27.902 0 0 1-5.137 4.276c-1.617 1.046-3.614 2.02-5.992 2.922-2.378.903-5.09 1.355-8.133 1.355-3.615 0-6.85-.547-9.703-1.64-2.853-1.092-5.327-2.542-7.42-4.347-2.092-1.806-3.685-3.92-4.78-6.343a18.328 18.328 0 0 1-1.64-7.626c0-5.701 1.831-10.452 5.493-14.253 3.662-3.801 8.728-6.272 15.196-7.412l22.116-3.991c0-2.851-1.023-5.227-3.068-7.127-2.045-1.9-5.065-2.851-9.06-2.851-2.759 0-5.09.38-6.992 1.14-1.902.76-3.52 1.568-4.85 2.423-1.523 1.046-2.807 2.233-3.853 3.564l-10.702-10.69c1.903-2.471 4.233-4.704 6.992-6.7 2.283-1.71 5.16-3.278 8.632-4.703 3.472-1.426 7.539-2.139 12.2-2.139 4.47 0 8.537.713 12.2 2.139 3.661 1.425 6.824 3.397 9.488 5.915a25.942 25.942 0 0 1 6.135 8.837c1.427 3.374 2.14 7.008 2.14 10.904v43.474h-19.262v-7.127zm-14.268-7.127c4.28 0 7.728-1.354 10.344-4.062 2.616-2.708 3.924-6.58 3.924-11.617v-2.138l-15.695 2.851c-5.232.855-7.848 3.468-7.848 7.84 0 2.185.737 3.92 2.212 5.202 1.474 1.283 3.828 1.924 7.063 1.924zm65.667-47.037c1.427-1.805 3.14-3.468 5.137-4.989 1.712-1.235 3.805-2.375 6.278-3.42 2.473-1.046 5.327-1.569 8.56-1.569 3.9 0 7.516.69 10.845 2.067a23.92 23.92 0 0 1 8.632 6.058c2.426 2.66 4.304 5.868 5.636 9.621 1.332 3.754 1.998 8.054 1.998 12.9v40.623H196.52V165.03c0-4.276-1.26-7.72-3.78-10.334-2.521-2.613-5.78-3.92-9.774-3.92-4.281 0-7.73 1.378-10.345 4.134-2.616 2.756-3.924 6.842-3.924 12.258v36.347h-19.262v-69.843h19.262v8.552zm76.684-32.07l-19.262 30.645-12.128-7.127 14.981-32.784 16.409 9.265zm13.04 2.85h17.122v22.093h14.269v17.105h-14.269v27.795c0 2.185.809 4.038 2.426 5.558 1.617 1.52 3.662 2.281 6.135 2.281 1.998 0 3.71-.237 5.137-.713a9.775 9.775 0 0 0 1.997-.712V202.8c-1.141.38-2.378.76-3.71 1.14-1.14.286-2.496.523-4.066.713a42.23 42.23 0 0 1-5.065.286c-7.134 0-12.604-1.972-16.409-5.916-3.805-3.943-5.707-10.049-5.707-18.316v-28.507h-12.128v-17.105h6.42c2.188 0 4.043-.831 5.565-2.494 1.522-1.663 2.283-3.92 2.283-6.77v-12.83zm91.35 57.015h-51.365v-17.105h51.366v17.105zm27.857 33.496h-19.262v-99.776h19.262v99.776zm33.564 0h-19.263v-69.843h19.263v69.843zm1.427-89.798c0 3.23-1 5.82-2.997 7.768-1.997 1.948-4.803 2.922-8.418 2.922-3.234 0-5.826-.974-7.776-2.922-1.95-1.948-2.925-4.538-2.925-7.768 0-3.231.975-5.82 2.925-7.769 1.95-1.948 4.542-2.922 7.776-2.922 3.615 0 6.42.974 8.418 2.922 1.998 1.948 2.997 4.538 2.997 7.769zm29.996 89.798l-26.396-69.843h19.975l16.409 46.325 16.409-46.325h19.975l-26.396 69.843h-19.976zm66.381-28.507c.761 3.61 2.687 6.77 5.779 9.478 3.091 2.709 7.348 4.063 12.77 4.063 3.044 0 5.707-.452 7.99-1.354 2.283-.903 4.233-1.877 5.85-2.922a22.543 22.543 0 0 0 4.709-4.276l9.988 12.828c-2.093 2.376-4.661 4.419-7.705 6.129-2.569 1.52-5.708 2.898-9.417 4.134-3.71 1.235-7.99 1.853-12.842 1.853-5.137 0-9.964-.95-14.482-2.851-4.519-1.9-8.466-4.514-11.843-7.84a36.494 36.494 0 0 1-7.919-11.545c-1.902-4.371-2.854-9.075-2.854-14.111 0-4.942.952-9.622 2.854-14.04 1.902-4.42 4.518-8.291 7.848-11.617 3.329-3.326 7.181-5.94 11.557-7.84 4.376-1.9 9.084-2.85 14.126-2.85 4.946 0 9.56.878 13.84 2.636 4.28 1.758 7.99 4.205 11.13 7.341 3.138 3.136 5.588 6.842 7.348 11.118 1.76 4.276 2.64 8.885 2.64 13.826 0 1.33-.048 2.47-.144 3.421a59.07 59.07 0 0 1-.285 2.423c-.095.76-.19 1.426-.285 1.996h-50.653zm16.409-26.37c-4.28 0-7.824 1.236-10.63 3.706-2.806 2.47-4.733 5.512-5.779 9.123H541.1c-.761-3.611-2.497-6.652-5.208-9.123-2.711-2.47-6.207-3.706-10.487-3.706zm91.35 21.38H565.39v-17.104h51.366v17.105zm60.674-36.346l13.555 42.048 13.555-42.048h19.975l-23.828 69.843H683.85l-13.555-39.91-13.555 39.91h-16.837l-23.828-69.843h19.976l13.554 42.048 13.555-42.048h14.269zm71.375 69.843H729.54v-69.843h19.263v69.843zm1.426-89.798c0 3.23-.998 5.82-2.996 7.768-1.997 1.948-4.804 2.922-8.418 2.922-3.234 0-5.826-.974-7.776-2.922-1.95-1.948-2.925-4.538-2.925-7.768 0-3.231.974-5.82 2.925-7.769 1.95-1.948 4.542-2.922 7.776-2.922 3.614 0 6.42.974 8.418 2.922 1.998 1.948 2.996 4.538 2.996 7.769zm20.723-.713h17.122v22.093h14.268v17.105h-14.268v27.795c0 2.185.808 4.038 2.425 5.558 1.617 1.52 3.662 2.281 6.136 2.281 1.997 0 3.71-.237 5.136-.713a9.775 9.775 0 0 0 1.998-.712V202.8c-1.142.38-2.378.76-3.71 1.14-1.141.286-2.497.523-4.066.713a42.23 42.23 0 0 1-5.066.286c-7.134 0-12.603-1.972-16.408-5.916-3.805-3.943-5.708-10.049-5.708-18.316v-28.507h-12.128v-17.105h6.421c2.188 0 4.043-.831 5.565-2.494 1.522-1.663 2.283-3.92 2.283-6.77v-12.83zm63.527 29.22c1.427-1.805 3.139-3.468 5.136-4.989 1.713-1.235 3.805-2.375 6.279-3.42 2.473-1.046 5.326-1.569 8.56-1.569 3.9 0 7.515.69 10.845 2.067a23.92 23.92 0 0 1 8.632 6.058c2.426 2.66 4.304 5.868 5.636 9.621 1.332 3.754 1.997 8.054 1.997 12.9v40.623h-19.262V165.03c0-4.276-1.26-7.72-3.781-10.334-2.52-2.613-5.779-3.92-9.774-3.92-4.28 0-7.728 1.378-10.344 4.134-2.616 2.756-3.924 6.842-3.924 12.258v36.347h-19.262v-99.776h19.262v38.485zm75.655 26.37c0 2.66.452 5.13 1.356 7.411.903 2.281 2.14 4.23 3.71 5.844a17.905 17.905 0 0 0 5.493 3.849 15.7 15.7 0 0 0 6.563 1.425 15.7 15.7 0 0 0 6.564-1.425 17.905 17.905 0 0 0 5.493-3.849c1.57-1.615 2.806-3.563 3.71-5.844.903-2.28 1.355-4.75 1.355-7.411 0-2.661-.452-5.132-1.355-7.412-.904-2.281-2.14-4.229-3.71-5.844a17.905 17.905 0 0 0-5.493-3.849 15.7 15.7 0 0 0-6.564-1.425 15.7 15.7 0 0 0-6.563 1.425 17.905 17.905 0 0 0-5.494 3.849c-1.57 1.615-2.806 3.563-3.71 5.844-.903 2.28-1.355 4.75-1.355 7.412zm54.22 0c0 4.846-.999 9.454-2.996 13.826-1.998 4.37-4.685 8.22-8.062 11.545-3.377 3.326-7.324 5.987-11.843 7.982a34.765 34.765 0 0 1-14.197 2.994c-5.041 0-9.797-.998-14.268-2.994-4.47-1.995-8.395-4.656-11.772-7.982-3.376-3.326-6.064-7.174-8.061-11.545-1.998-4.372-2.997-8.98-2.997-13.826 0-4.847 1-9.455 2.997-13.827 1.997-4.37 4.685-8.22 8.061-11.545 3.377-3.326 7.301-5.987 11.772-7.982 4.47-1.996 9.227-2.994 14.268-2.994 4.947 0 9.679.998 14.197 2.994 4.519 1.995 8.466 4.656 11.843 7.982 3.377 3.326 6.064 7.174 8.062 11.545 1.997 4.372 2.996 8.98 2.996 13.827zm55.68 27.794c-1.427 1.616-3.14 3.041-5.137 4.276-1.712 1.046-3.805 2.02-6.278 2.922-2.473.903-5.327 1.355-8.561 1.355-3.9 0-7.515-.69-10.844-2.067-3.33-1.378-6.207-3.35-8.632-5.916-2.426-2.565-4.305-5.654-5.636-9.264-1.332-3.611-1.998-7.697-1.998-12.259v-41.763h19.262v39.91c0 3.991 1.26 7.246 3.781 9.764 2.521 2.518 5.78 3.777 9.774 3.777 4.28 0 7.729-1.377 10.345-4.133 2.616-2.756 3.924-6.842 3.924-12.258v-37.06h19.262v69.843h-19.262v-7.127zm41.41-83.384h17.123v22.093h14.268v17.105h-14.268v27.795c0 2.185.808 4.038 2.426 5.558 1.617 1.52 3.662 2.281 6.135 2.281 1.998 0 3.71-.237 5.137-.713a9.775 9.775 0 0 0 1.997-.712V202.8c-1.141.38-2.378.76-3.71 1.14-1.141.286-2.497.523-4.066.713a42.23 42.23 0 0 1-5.065.286c-7.135 0-12.604-1.972-16.409-5.916-3.805-3.943-5.707-10.049-5.707-18.316v-28.507h-12.128v-17.105h6.42c2.188 0 4.043-.831 5.565-2.494 1.522-1.663 2.283-3.92 2.283-6.77v-12.83z"/><path fill="#FFF" d="M708.7 219.003c0 1.713.29 3.303.872 4.772.582 1.468 1.378 2.722 2.389 3.762a11.527 11.527 0 0 0 3.536 2.478c1.348.612 2.756.917 4.226.917 1.47 0 2.878-.305 4.226-.917a11.527 11.527 0 0 0 3.536-2.478c1.01-1.04 1.807-2.294 2.389-3.762.581-1.469.872-3.06.872-4.772 0-1.713-.29-3.304-.872-4.772-.582-1.468-1.378-2.723-2.389-3.763a11.527 11.527 0 0 0-3.536-2.477 10.108 10.108 0 0 0-4.226-.918c-1.47 0-2.878.306-4.226.918a11.527 11.527 0 0 0-3.536 2.477c-1.01 1.04-1.807 2.295-2.389 3.763-.581 1.468-.872 3.059-.872 4.772zm34.907 0c0 3.12-.643 6.087-1.93 8.901a24.816 24.816 0 0 1-5.19 7.433c-2.173 2.142-4.715 3.855-7.624 5.14a22.382 22.382 0 0 1-9.14 1.926c-3.246 0-6.308-.642-9.186-1.927-2.878-1.284-5.405-2.997-7.579-5.139a24.816 24.816 0 0 1-5.19-7.433 21.17 21.17 0 0 1-1.929-8.901c0-3.12.643-6.087 1.93-8.902a24.816 24.816 0 0 1 5.19-7.433c2.173-2.141 4.7-3.854 7.578-5.139 2.878-1.284 5.94-1.927 9.186-1.927 3.185 0 6.231.643 9.14 1.927 2.91 1.285 5.45 2.998 7.625 5.14a24.816 24.816 0 0 1 5.19 7.432 21.17 21.17 0 0 1 1.929 8.902zm16.876 22.483L743.49 196.52h12.86l10.565 29.824 10.564-29.824h12.86l-16.994 44.966h-12.86zm42.598-18.354c.49 2.325 1.73 4.36 3.72 6.103 1.99 1.743 4.73 2.615 8.222 2.615 1.96 0 3.674-.29 5.144-.872 1.47-.58 2.725-1.208 3.766-1.88a14.513 14.513 0 0 0 3.032-2.754l6.43 8.26c-1.347 1.529-3 2.844-4.96 3.945-1.654.979-3.675 1.866-6.063 2.661-2.389.796-5.145 1.193-8.268 1.193-3.307 0-6.415-.611-9.324-1.835s-5.45-2.906-7.624-5.047a23.495 23.495 0 0 1-5.099-7.433c-1.224-2.814-1.837-5.843-1.837-9.085 0-3.181.613-6.194 1.837-9.04 1.225-2.844 2.91-5.337 5.053-7.478a23.9 23.9 0 0 1 7.44-5.047c2.818-1.224 5.849-1.836 9.095-1.836 3.184 0 6.154.566 8.91 1.698 2.756 1.132 5.144 2.707 7.165 4.726s3.598 4.405 4.731 7.158 1.7 5.72 1.7 8.901c0 .857-.03 1.59-.092 2.203a38.03 38.03 0 0 1-.184 1.56c-.061.489-.122.917-.184 1.284h-32.61zm10.564-16.977c-2.756 0-5.037.796-6.844 2.386-1.807 1.591-3.047 3.549-3.72 5.873h20.668c-.49-2.324-1.607-4.282-3.352-5.873-1.746-1.59-3.996-2.386-6.752-2.386zm54.998 2.295a28.634 28.634 0 0 0-2.342-.367 15.51 15.51 0 0 0-1.791-.092c-3.246 0-5.818 1.01-7.717 3.028-1.898 2.019-2.847 4.986-2.847 8.901v21.566h-12.402V196.52h12.402v5.506a15.345 15.345 0 0 1 3.307-2.937c1.102-.734 2.45-1.422 4.042-2.064 1.592-.643 3.43-.964 5.511-.964h1.837v12.389zm15.499-6.424c.919-1.162 2.02-2.233 3.307-3.212 1.102-.795 2.45-1.53 4.042-2.202 1.592-.673 3.43-1.01 5.512-1.01 2.51 0 4.838.444 6.981 1.33a15.4 15.4 0 0 1 5.558 3.9c1.561 1.714 2.77 3.779 3.628 6.195.857 2.417 1.286 5.185 1.286 8.305v26.154h-12.401v-24.777c0-2.753-.812-4.971-2.434-6.653-1.623-1.683-3.72-2.524-6.293-2.524-2.756 0-4.976.887-6.66 2.661-1.684 1.774-2.526 4.405-2.526 7.892v23.4h-12.401V196.52h12.401v5.506zm51.324 39.46h-12.401V196.52h12.401v44.966zm.919-57.813c0 2.08-.643 3.747-1.93 5-1.285 1.255-3.092 1.882-5.419 1.882-2.082 0-3.751-.627-5.006-1.881-1.256-1.254-1.884-2.921-1.884-5.001 0-2.08.628-3.748 1.884-5.002 1.255-1.254 2.924-1.881 5.006-1.881 2.327 0 4.134.627 5.42 1.881 1.286 1.254 1.929 2.921 1.929 5.002zm38.464 50.471a16.93 16.93 0 0 1-3.4 3.212c-1.102.857-2.495 1.606-4.179 2.248-1.684.643-3.598.964-5.741.964-2.511 0-4.976-.596-7.395-1.79a22.493 22.493 0 0 1-6.476-4.817c-1.899-2.02-3.43-4.39-4.593-7.112-1.164-2.723-1.746-5.644-1.746-8.764 0-3.12.582-6.041 1.746-8.764 1.163-2.722 2.694-5.093 4.593-7.112a22.493 22.493 0 0 1 6.476-4.817c2.419-1.193 4.884-1.79 7.395-1.79 2.143 0 4.057.337 5.741 1.01 1.684.673 3.077 1.407 4.18 2.202a21.268 21.268 0 0 1 3.399 3.212v-5.506h12.4v41.295c0 3.242-.596 6.255-1.79 9.04-1.195 2.783-2.848 5.2-4.96 7.249-2.114 2.05-4.64 3.67-7.58 4.863-2.94 1.193-6.124 1.79-9.553 1.79-3.49 0-6.522-.49-9.094-1.469-2.572-.978-4.716-2.08-6.43-3.303-2.022-1.407-3.736-3.028-5.145-4.864l7.808-7.341a13.358 13.358 0 0 0 3.124 3.028c1.04.734 2.327 1.407 3.858 2.019 1.53.612 3.337.918 5.42.918 3.674 0 6.583-1.07 8.726-3.212 2.144-2.141 3.216-5.047 3.216-8.718v-3.67zm-20.67-16.059c0 1.59.261 3.059.782 4.405.52 1.346 1.24 2.508 2.158 3.487a9.976 9.976 0 0 0 3.216 2.294 9.522 9.522 0 0 0 3.95.826 9.946 9.946 0 0 0 3.95-.826 10.394 10.394 0 0 0 3.398-2.34c.98-1.01 1.761-2.172 2.343-3.487.582-1.315.873-2.768.873-4.359 0-1.53-.291-2.967-.873-4.313a11.666 11.666 0 0 0-2.343-3.533 10.394 10.394 0 0 0-3.398-2.34 9.946 9.946 0 0 0-3.95-.826 9.522 9.522 0 0 0-3.95.826 9.976 9.976 0 0 0-3.216 2.294c-.918.979-1.638 2.141-2.158 3.487s-.781 2.814-.781 4.405zm54.081-16.06c.919-1.161 2.02-2.232 3.307-3.21 1.102-.796 2.45-1.53 4.042-2.203 1.592-.673 3.43-1.01 5.512-1.01 2.51 0 4.838.444 6.981 1.33a15.4 15.4 0 0 1 5.558 3.9c1.561 1.714 2.77 3.779 3.628 6.195.857 2.417 1.286 5.185 1.286 8.305v26.154h-12.401v-24.777c0-2.753-.812-4.971-2.434-6.653-1.623-1.683-3.72-2.524-6.293-2.524-2.756 0-4.976.887-6.66 2.661-1.684 1.774-2.526 4.405-2.526 7.892v23.4h-12.401V177.25h12.401v24.777zm43.975-18.811h11.024v14.224h9.186v11.012h-9.186v17.894c0 1.407.52 2.6 1.561 3.58 1.041.978 2.358 1.467 3.95 1.467 1.286 0 2.389-.153 3.307-.459.49-.122.919-.275 1.286-.458v10.553c-.734.245-1.53.49-2.388.734a21.74 21.74 0 0 1-2.618.459c-1.01.122-2.097.183-3.261.183-4.593 0-8.114-1.27-10.564-3.808-2.45-2.539-3.675-6.47-3.675-11.792V208.45h-7.808v-11.012h4.134c1.409 0 2.603-.536 3.583-1.606.98-1.071 1.47-2.524 1.47-4.36v-8.258zm26.522 52.307c0-1.836.704-3.441 2.113-4.818 1.409-1.376 3.154-2.065 5.236-2.065s3.828.689 5.236 2.065c1.409 1.377 2.113 2.982 2.113 4.818 0 1.835-.704 3.441-2.113 4.818-1.408 1.376-3.154 2.064-5.236 2.064s-3.827-.688-5.236-2.064c-1.409-1.377-2.113-2.983-2.113-4.818zM854.39 97.516h1.073v11.432h-1.073V97.516zm-.239-4.049c0-.238.08-.436.239-.595a.81.81 0 0 1 .596-.238.81.81 0 0 1 .596.238.807.807 0 0 1 .238.595c0 .238-.08.437-.238.596a.81.81 0 0 1-.596.238.81.81 0 0 1-.596-.238.807.807 0 0 1-.239-.596zm6.676 6.073c.222-.413.516-.786.882-1.119.318-.286.727-.548 1.227-.786.501-.238 1.109-.357 1.824-.357.652 0 1.26.119 1.824.357a4.42 4.42 0 0 1 1.478 1.012c.421.437.751.953.99 1.548a5.24 5.24 0 0 1 .357 1.965v6.788h-1.073v-6.788c0-.572-.091-1.092-.274-1.56a3.635 3.635 0 0 0-.75-1.203 3.306 3.306 0 0 0-1.133-.774 3.643 3.643 0 0 0-1.419-.273c-.54 0-1.049.107-1.526.321a4.07 4.07 0 0 0-1.251.87c-.358.364-.64.805-.846 1.321a4.411 4.411 0 0 0-.31 1.655v6.43h-1.073V97.517h1.073v2.024zm13.589-5.835h.953v3.811h2.623v1.072h-2.623v7.502c0 .666.163 1.17.489 1.512.326.341.759.512 1.3.512a3.625 3.625 0 0 0 1.096-.167c.175-.063.326-.127.453-.19v1.071a4.338 4.338 0 0 1-.453.191 3.625 3.625 0 0 1-1.097.167c-.906 0-1.61-.262-2.11-.786-.5-.524-.75-1.294-.75-2.31v-7.502h-2.266v-1.072h1.55a.79.79 0 0 0 .596-.25c.159-.167.239-.401.239-.703v-2.858zm5.96 9.527c0-.826.15-1.604.453-2.334a5.844 5.844 0 0 1 3.063-3.156 5.334 5.334 0 0 1 2.205-.464c.779 0 1.514.155 2.205.464a5.844 5.844 0 0 1 3.063 3.156c.303.73.454 1.508.454 2.334 0 .841-.151 1.623-.453 2.346a5.876 5.876 0 0 1-3.064 3.143 5.334 5.334 0 0 1-2.205.465 5.334 5.334 0 0 1-2.205-.465 5.876 5.876 0 0 1-3.063-3.144 6.021 6.021 0 0 1-.453-2.345zm10.37 0c0-.683-.123-1.322-.37-1.917a4.8 4.8 0 0 0-2.503-2.584 4.278 4.278 0 0 0-1.776-.381c-.62 0-1.212.127-1.776.38a4.8 4.8 0 0 0-2.503 2.584 4.964 4.964 0 0 0-.37 1.918c0 .682.124 1.322.37 1.917a4.8 4.8 0 0 0 2.503 2.584 4.278 4.278 0 0 0 1.776.381c.62 0 1.212-.127 1.776-.381a4.8 4.8 0 0 0 2.503-2.584c.247-.595.37-1.235.37-1.917zM193.897 80.376c0-.587-.083-1.119-.25-1.595a3.49 3.49 0 0 0-.692-1.203 3.023 3.023 0 0 0-2.277-1.012 3.23 3.23 0 0 0-1.346.286c-.422.19-.787.464-1.097.821-.31.357-.556.794-.74 1.31-.182.516-.273 1.1-.273 1.75v6.43h-1.073v-6.787c0-.587-.084-1.119-.25-1.595a3.49 3.49 0 0 0-.692-1.203 3.023 3.023 0 0 0-2.277-1.012 3.23 3.23 0 0 0-1.346.286c-.422.19-.787.464-1.097.821-.31.357-.556.794-.74 1.31-.182.516-.273 1.1-.273 1.75v6.43H178.4v-11.43h1.073v1.666c.206-.349.469-.666.786-.952.27-.238.624-.457 1.061-.655.437-.199.974-.298 1.61-.298.715 0 1.315.139 1.8.417.484.278.878.575 1.18.893.35.397.627.834.834 1.31.19-.476.46-.913.81-1.31.302-.318.708-.615 1.216-.893.509-.278 1.145-.417 1.908-.417.588 0 1.144.111 1.668.334.525.222.982.54 1.371.952.39.413.696.921.918 1.524.223.604.334 1.294.334 2.072v6.788h-1.073v-6.788zm11.92-.357a3.68 3.68 0 0 0-.25-1.37 3.494 3.494 0 0 0-.68-1.095 3.082 3.082 0 0 0-1.013-.726 3.08 3.08 0 0 0-1.275-.262c-.525 0-.994.087-1.407.262a5.359 5.359 0 0 0-1.049.571 5.52 5.52 0 0 0-.882.834l-.715-.715a4.498 4.498 0 0 1 1.049-1c.35-.254.775-.488 1.275-.702.5-.215 1.077-.322 1.729-.322.62 0 1.192.115 1.716.345.525.23.978.548 1.359.953.381.405.68.885.894 1.44.215.557.322 1.152.322 1.787v7.145h-1.073v-1.905c-.27.412-.612.77-1.025 1.071-.35.27-.783.516-1.3.739-.516.222-1.132.333-1.847.333a4.444 4.444 0 0 1-1.561-.262 3.697 3.697 0 0 1-1.204-.714 3.253 3.253 0 0 1-.775-1.036 2.798 2.798 0 0 1-.274-1.203c0-.905.306-1.663.917-2.275.612-.61 1.459-1.004 2.54-1.178l4.53-.715zm-4.172 6.311a4.28 4.28 0 0 0 1.657-.321 4.035 4.035 0 0 0 1.323-.87c.366-.365.656-.801.87-1.31a4.242 4.242 0 0 0 .322-1.666V81.09l-4.291.714c-.906.143-1.57.425-1.99.846a2.09 2.09 0 0 0-.633 1.536c0 .27.064.532.191.786s.31.484.548.69c.239.207.529.37.87.489.342.119.72.178 1.133.178zm10.37.834h-1.072V70.493h1.073V82.52l6.317-6.788h1.43l-4.29 4.644 4.887 6.788h-1.312l-4.29-5.954h-.12l-2.622 2.858v3.096zm10.967-5.24c.032.604.175 1.171.43 1.703a4.782 4.782 0 0 0 2.396 2.346c.532.238 1.1.357 1.704.357.62 0 1.168-.103 1.645-.31a5.236 5.236 0 0 0 1.192-.69c.381-.286.707-.62.977-1l.715.69c-.318.445-.699.842-1.144 1.191a6.416 6.416 0 0 1-1.419.822c-.564.246-1.22.369-1.966.369a5.062 5.062 0 0 1-2.134-.464 5.895 5.895 0 0 1-3.016-3.144 6.021 6.021 0 0 1-.453-2.346c0-.826.151-1.604.453-2.334a6.055 6.055 0 0 1 1.216-1.893 5.838 5.838 0 0 1 1.752-1.263 4.798 4.798 0 0 1 2.062-.464c.716 0 1.391.143 2.027.429.636.286 1.192.69 1.669 1.214a5.858 5.858 0 0 1 1.132 1.882c.278.73.417 1.54.417 2.429v.476h-9.655zm4.41-5.358c-.572 0-1.116.119-1.633.357a5.013 5.013 0 0 0-1.382.94 4.628 4.628 0 0 0-.978 1.358 4.306 4.306 0 0 0-.417 1.632h8.583a5.009 5.009 0 0 0-.382-1.715 4.34 4.34 0 0 0-.894-1.358 4.082 4.082 0 0 0-1.3-.893 3.96 3.96 0 0 0-1.597-.321zm14.305 1.429a3.272 3.272 0 0 0-.692-.715 3.883 3.883 0 0 0-.858-.488 2.983 2.983 0 0 0-1.192-.226c-.842 0-1.49.206-1.943.619-.453.413-.68.881-.68 1.405 0 .46.163.822.49 1.084.325.262.73.48 1.215.655.485.174 1.01.337 1.574.488.564.15 1.088.35 1.573.595.485.246.89.568 1.216.965.326.397.489.92.489 1.572a3.221 3.221 0 0 1-1.097 2.44c-.35.31-.775.557-1.275.74-.501.182-1.061.273-1.681.273-.668 0-1.248-.1-1.74-.298a6.677 6.677 0 0 1-1.264-.655 5.072 5.072 0 0 1-1.05-.952l.835-.834c.255.318.54.596.859.834.27.222.604.416 1 .583.398.167.851.25 1.36.25.953 0 1.688-.23 2.205-.69.517-.46.775-1.024.775-1.691 0-.477-.163-.85-.489-1.12-.326-.27-.731-.5-1.216-.69a14.64 14.64 0 0 0-1.573-.512 8.59 8.59 0 0 1-1.574-.584 3.753 3.753 0 0 1-1.216-.929c-.325-.38-.488-.889-.488-1.524 0-.38.091-.758.274-1.131.183-.373.437-.707.763-1a3.725 3.725 0 0 1 1.168-.703c.453-.175.95-.262 1.49-.262.556 0 1.057.087 1.502.262.445.175.826.365 1.144.572.366.254.676.532.93.833l-.834.834z"/></g></svg>