<svg xmlns="http://www.w3.org/2000/svg" width="1100" height="300"><g fill="none"><path fill="#00B140" d="M144.982 210.926a13.641 13.641 0 0 0 2.4 2.823 12.294 12.294 0 0 0 2.612 1.976c.988.565 2.141.847 3.459.847.941 0 1.788-.094 2.541-.282.377-.095.706-.236.988-.424v16.232c-.658.376-1.458.753-2.4 1.13-1.788.658-3.812.987-6.07.987-2.73 0-5.154-.494-7.271-1.482-2.118-.988-3.977-2.14-5.577-3.458a26.563 26.563 0 0 1-4.8-4.94c-1.695 1.882-3.765 3.529-6.212 4.94-2.071 1.317-4.66 2.47-7.765 3.458-3.106.988-6.683 1.482-10.73 1.482-4.8 0-9.107-.706-12.919-2.117-3.811-1.412-7.059-3.293-9.741-5.646-2.683-2.352-4.753-5.105-6.212-8.257-1.46-3.152-2.188-6.516-2.188-10.092 0-4.61.94-8.704 2.823-12.28 1.883-3.575 4-6.586 6.353-9.033 2.636-2.917 5.695-5.458 9.177-7.622-2.447-2.54-4.565-5.175-6.353-7.904-1.6-2.353-3.059-4.987-4.377-7.904-1.317-2.917-1.976-5.881-1.976-8.892 0-3.388.659-6.564 1.976-9.528a24.628 24.628 0 0 1 5.507-7.833c2.353-2.259 5.13-4.047 8.33-5.364 3.2-1.317 6.635-1.976 10.306-1.976 3.859 0 7.388.612 10.588 1.835 3.2 1.223 5.954 2.917 8.26 5.081a22.865 22.865 0 0 1 5.364 7.622c1.271 2.917 1.906 6.07 1.906 9.457 0 3.576-.847 6.916-2.54 10.021-1.695 3.105-3.577 5.787-5.648 8.046a53.991 53.991 0 0 1-8.048 7.34l14.825 18.348c.753-1.223 1.458-2.635 2.117-4.234.47-1.318.942-2.87 1.412-4.658.47-1.788.706-3.764.706-5.928h17.648c0 4.234-.447 8.092-1.341 11.574-.894 3.481-1.86 6.445-2.895 8.892-1.223 2.917-2.635 5.505-4.235 7.763zm-38.12 6.352c2.165 0 4.071-.283 5.719-.847 1.647-.565 3.13-1.224 4.447-1.976a30.005 30.005 0 0 0 3.953-2.823l-16.942-20.466c-1.882 1.411-3.53 2.964-4.941 4.657-1.318 1.412-2.471 3.035-3.46 4.87-.988 1.835-1.482 3.834-1.482 5.999 0 3.199 1.059 5.763 3.177 7.692 2.118 1.93 5.294 2.894 9.53 2.894zm8.472-62.105c0-2.446-.8-4.47-2.4-6.069-1.6-1.6-3.624-2.4-6.071-2.4-2.824 0-5.06.8-6.707 2.4-1.647 1.6-2.47 3.623-2.47 6.07 0 1.599.47 3.246 1.412 4.94.94 1.693 1.976 3.199 3.106 4.516 1.317 1.6 2.87 3.152 4.659 4.658a38.693 38.693 0 0 0 4.235-4.658c1.035-1.317 2-2.823 2.894-4.517.895-1.693 1.342-3.34 1.342-4.94zm92.064 76.22h-19.06V162.23h19.06v69.161zm1.412-88.923c0 3.2-.988 5.764-2.965 7.693-1.976 1.929-4.753 2.893-8.33 2.893-3.2 0-5.765-.964-7.694-2.893-1.93-1.93-2.894-4.494-2.894-7.693 0-3.2.964-5.763 2.894-7.692 1.93-1.93 4.494-2.894 7.694-2.894 3.577 0 6.354.965 8.33 2.894 1.977 1.929 2.965 4.493 2.965 7.692zm31.914 28.23c1.412-1.788 3.106-3.435 5.083-4.94 1.694-1.224 3.764-2.353 6.212-3.388 2.447-1.035 5.27-1.553 8.47-1.553 3.86 0 7.436.682 10.73 2.047a23.668 23.668 0 0 1 8.542 5.998c2.4 2.635 4.259 5.811 5.577 9.528 1.317 3.717 1.976 7.975 1.976 12.774v40.226h-19.06v-38.11c0-4.234-1.247-7.645-3.74-10.232-2.495-2.588-5.719-3.882-9.672-3.882-4.235 0-7.647 1.365-10.236 4.093-2.588 2.73-3.882 6.775-3.882 12.139v35.992h-19.06v-69.161h19.06v8.468zm98.976 10.585h-15.53v50.107h-19.06v-50.107h-9.883v-16.937h9.883v-9.175c0-8.186 1.882-14.232 5.647-18.137 3.765-3.905 9.177-5.858 16.236-5.858 1.789 0 3.46.118 5.012.353 1.553.236 2.894.494 4.024.777 1.318.376 2.541.705 3.67.988v16.231a57.672 57.672 0 0 1-1.976-.705 20.631 20.631 0 0 0-2.259-.494 17.253 17.253 0 0 0-2.823-.212c-2.448 0-4.471.753-6.071 2.258-1.6 1.506-2.4 3.34-2.4 5.505v8.469h15.53v16.937zm49.562-.705c-.471-.095-.989-.189-1.553-.283a43.975 43.975 0 0 0-2.048-.282c-.8-.094-1.717-.141-2.753-.141-4.988 0-8.941 1.552-11.859 4.658-2.918 3.105-4.377 7.669-4.377 13.69v33.17h-19.06v-69.161h19.06v8.468c1.412-1.693 3.106-3.199 5.083-4.516 1.694-1.13 3.765-2.188 6.212-3.176 2.447-.988 5.27-1.482 8.47-1.482h2.825v19.055zm43.914 43.755a27.614 27.614 0 0 1-5.083 4.234c-1.6 1.035-3.576 2-5.93 2.894-2.352.894-5.035 1.34-8.047 1.34-3.576 0-6.776-.54-9.6-1.623-2.824-1.082-5.27-2.517-7.342-4.304-2.07-1.788-3.647-3.882-4.73-6.281a18.16 18.16 0 0 1-1.623-7.552c0-5.646 1.812-10.35 5.436-14.114 3.624-3.764 8.635-6.21 15.036-7.34l21.883-3.952c0-2.823-1.012-5.175-3.035-7.057-2.024-1.882-5.012-2.823-8.965-2.823-2.73 0-5.036.376-6.918 1.129-1.883.753-3.483 1.552-4.8 2.4-1.507 1.034-2.777 2.21-3.813 3.528l-10.588-10.586c1.882-2.447 4.188-4.658 6.918-6.634 2.259-1.694 5.106-3.246 8.541-4.658 3.436-1.411 7.46-2.117 12.071-2.117 4.424 0 8.448.706 12.071 2.117 3.624 1.412 6.754 3.364 9.39 5.858a25.689 25.689 0 0 1 6.07 8.75c1.412 3.341 2.118 6.94 2.118 10.799v43.05h-19.06v-7.058zm-14.118-7.057c4.235 0 7.647-1.341 10.236-4.023 2.588-2.682 3.882-6.516 3.882-11.503v-2.118l-15.53 2.823c-5.177.847-7.765 3.435-7.765 7.763 0 2.165.73 3.882 2.188 5.152 1.46 1.27 3.789 1.906 6.989 1.906zm84.857-34.581a16.936 16.936 0 0 0-2.965-2.823c-1.035-.753-2.235-1.412-3.6-1.976-1.364-.565-2.941-.847-4.73-.847-2.823 0-4.94.588-6.353 1.764-1.411 1.176-2.117 2.47-2.117 3.882 0 1.6.776 2.893 2.33 3.881 1.552.988 3.505 1.882 5.858 2.682 2.353.8 4.918 1.647 7.695 2.54a31.325 31.325 0 0 1 7.694 3.67c2.353 1.553 4.306 3.553 5.86 6 1.552 2.446 2.329 5.598 2.329 9.456 0 3.011-.612 5.834-1.836 8.469-1.223 2.635-2.988 4.94-5.294 6.916-2.306 1.976-5.177 3.552-8.612 4.728-3.435 1.177-7.365 1.765-11.789 1.765-4.988 0-9.27-.659-12.847-1.976-3.577-1.318-6.495-2.776-8.754-4.376-2.73-1.788-4.941-3.905-6.635-6.352l10.588-10.585a19.664 19.664 0 0 0 3.953 3.952c1.318 1.035 2.871 1.929 4.66 2.681 1.788.753 3.859 1.13 6.212 1.13 3.2 0 5.53-.612 6.988-1.835 1.459-1.224 2.188-2.73 2.188-4.517 0-1.788-.776-3.176-2.33-4.164-1.552-.988-3.505-1.905-5.858-2.752a240.028 240.028 0 0 0-7.695-2.611 32.927 32.927 0 0 1-7.694-3.6 19.627 19.627 0 0 1-5.86-5.787c-1.552-2.352-2.329-5.457-2.329-9.315 0-2.635.66-5.27 1.977-7.904 1.318-2.635 3.176-4.988 5.577-7.058 2.4-2.07 5.247-3.74 8.541-5.01 3.294-1.27 6.871-1.906 10.73-1.906 4.047 0 7.577.565 10.589 1.694 3.012 1.13 5.506 2.352 7.482 3.67 2.353 1.6 4.33 3.34 5.93 5.222l-9.883 11.292zm29.797-40.933h16.941v21.878h14.119v16.938h-14.119v27.523c0 2.164.8 4 2.4 5.505 1.6 1.505 3.624 2.258 6.071 2.258 1.977 0 3.671-.235 5.083-.706a9.668 9.668 0 0 0 1.977-.705v16.231a88.73 88.73 0 0 1-3.671 1.13c-1.13.282-2.47.517-4.024.705a41.755 41.755 0 0 1-5.012.283c-7.059 0-12.471-1.953-16.236-5.858-3.765-3.905-5.647-9.95-5.647-18.137v-28.23h-12v-16.937h6.353c2.164 0 4-.823 5.506-2.47 1.506-1.647 2.259-3.882 2.259-6.704v-12.704zm85.563 38.816c-.47-.095-.988-.189-1.553-.283a43.975 43.975 0 0 0-2.047-.282c-.8-.094-1.718-.141-2.753-.141-4.989 0-8.942 1.552-11.86 4.658-2.917 3.105-4.376 7.669-4.376 13.69v33.17h-19.06v-69.161h19.06v8.468c1.412-1.693 3.106-3.199 5.082-4.516 1.695-1.13 3.765-2.188 6.212-3.176 2.448-.988 5.271-1.482 8.471-1.482h2.824v19.055zm52.385 43.755c-1.411 1.6-3.106 3.011-5.082 4.234-1.694 1.035-3.765 2-6.212 2.894-2.447.894-5.27 1.34-8.471 1.34-3.86 0-7.436-.682-10.73-2.046-3.294-1.364-6.141-3.317-8.542-5.858-2.4-2.54-4.259-5.598-5.576-9.174-1.318-3.576-1.977-7.622-1.977-12.139v-41.355h19.06v39.52c0 3.953 1.247 7.175 3.741 9.669 2.494 2.494 5.718 3.74 9.671 3.74 4.236 0 7.648-1.364 10.236-4.093 2.588-2.729 3.882-6.775 3.882-12.138V162.23h19.06v69.161h-19.06v-7.057zm29.09-27.524c0-4.799.99-9.362 2.966-13.69a37.554 37.554 0 0 1 8.047-11.434c3.388-3.293 7.365-5.928 11.93-7.904 4.565-1.976 9.389-2.964 14.471-2.964 4.8 0 8.965.73 12.495 2.188 3.53 1.458 6.47 3.082 8.824 4.87 2.73 2.07 5.035 4.422 6.918 7.057l-12 11.997a20.708 20.708 0 0 0-4.095-4.517c-1.318-1.129-3.012-2.187-5.083-3.175-2.07-.988-4.423-1.482-7.059-1.482-2.447 0-4.776.494-6.988 1.482a18.81 18.81 0 0 0-5.86 4.093c-1.694 1.74-3.035 3.764-4.023 6.07-.988 2.305-1.483 4.775-1.483 7.41 0 2.634.495 5.104 1.483 7.41.988 2.305 2.33 4.328 4.024 6.069a18.81 18.81 0 0 0 5.859 4.093 16.945 16.945 0 0 0 6.988 1.482c2.636 0 4.989-.47 7.06-1.411 2.07-.941 3.858-1.976 5.364-3.106a23.588 23.588 0 0 0 4.518-4.657l11.295 11.997c-1.883 2.635-4.189 4.987-6.918 7.057-2.353 1.788-5.295 3.411-8.824 4.87-3.53 1.458-7.695 2.188-12.495 2.188-5.082 0-9.906-.988-14.471-2.964-4.565-1.976-8.542-4.611-11.93-7.905a37.554 37.554 0 0 1-8.047-11.432c-1.977-4.329-2.965-8.893-2.965-13.692zm82.035-55.047h16.942v21.878h14.118v16.938h-14.118v27.523c0 2.164.8 4 2.4 5.505 1.6 1.505 3.623 2.258 6.07 2.258 1.977 0 3.671-.235 5.083-.706a9.668 9.668 0 0 0 1.977-.705v16.231a88.73 88.73 0 0 1-3.671 1.13c-1.13.282-2.47.517-4.024.705a41.754 41.754 0 0 1-5.012.283c-7.059 0-12.47-1.953-16.236-5.858-3.765-3.905-5.647-9.95-5.647-18.137v-28.23h-12v-16.937h6.353c2.164 0 4-.823 5.506-2.47 1.506-1.647 2.259-3.882 2.259-6.704v-12.704zm90.504 82.57c-1.411 1.6-3.106 3.012-5.082 4.235-1.694 1.035-3.765 2-6.212 2.894-2.447.894-5.27 1.34-8.471 1.34-3.86 0-7.436-.682-10.73-2.046-3.294-1.364-6.141-3.317-8.542-5.858-2.4-2.54-4.259-5.598-5.576-9.174-1.318-3.576-1.977-7.622-1.977-12.139v-41.355h19.06v39.52c0 3.953 1.247 7.175 3.741 9.669 2.494 2.494 5.718 3.74 9.671 3.74 4.236 0 7.648-1.364 10.236-4.093 2.588-2.729 3.882-6.775 3.882-12.138V162.23h19.06v69.161h-19.06v-7.057zm74.975-43.754c-.47-.095-.988-.189-1.553-.283a43.975 43.975 0 0 0-2.047-.282c-.8-.094-1.718-.141-2.753-.141-4.988 0-8.942 1.552-11.86 4.658-2.917 3.105-4.376 7.669-4.376 13.69v33.17h-19.06v-69.161h19.06v8.468c1.412-1.693 3.106-3.199 5.083-4.516 1.694-1.13 3.764-2.188 6.212-3.176 2.447-.988 5.27-1.482 8.47-1.482h2.824v19.055zm21.326 22.583c.752 3.576 2.658 6.704 5.717 9.386 3.06 2.682 7.271 4.023 12.636 4.023 3.012 0 5.648-.447 7.906-1.341 2.26-.894 4.189-1.858 5.789-2.894a22.312 22.312 0 0 0 4.659-4.234l9.883 12.703c-2.07 2.353-4.612 4.376-7.624 6.07-2.541 1.505-5.647 2.87-9.318 4.093-3.67 1.223-7.906 1.835-12.707 1.835-5.082 0-9.859-.941-14.33-2.823-4.47-1.882-8.376-4.47-11.718-7.763a36.138 36.138 0 0 1-7.835-11.433c-1.883-4.329-2.824-8.986-2.824-13.974 0-4.893.941-9.527 2.824-13.903 1.882-4.375 4.47-8.21 7.765-11.503 3.294-3.293 7.106-5.881 11.435-7.763 4.33-1.882 8.989-2.823 13.978-2.823 4.894 0 9.459.87 13.694 2.611 4.236 1.741 7.906 4.164 11.013 7.27 3.106 3.105 5.53 6.774 7.27 11.009 1.742 4.234 2.612 8.798 2.612 13.69 0 1.318-.047 2.447-.14 3.388-.095.941-.19 1.741-.283 2.4a49.669 49.669 0 0 1-.283 1.976h-50.12zm16.236-26.112c-4.236 0-7.742 1.223-10.519 3.67-2.776 2.446-4.682 5.457-5.717 9.033h31.766c-.753-3.576-2.471-6.587-5.154-9.033-2.682-2.447-6.141-3.67-10.376-3.67z"/><path fill="#FFF" d="M178.132 138.34a20.25 20.25 0 0 1-3.727 3.104c-1.174.76-2.623 1.467-4.349 2.122-1.725.656-3.692.984-5.901.984-2.623 0-4.97-.397-7.04-1.19-2.071-.794-3.866-1.847-5.384-3.158-1.519-1.31-2.675-2.846-3.469-4.606a13.318 13.318 0 0 1-1.19-5.537c0-4.14 1.329-7.591 3.986-10.351 2.657-2.76 6.333-4.554 11.026-5.383l16.048-2.898c0-2.07-.742-3.795-2.226-5.175s-3.675-2.07-6.574-2.07c-2.002 0-3.693.276-5.073.828-1.381.552-2.554 1.138-3.52 1.76-1.105.758-2.037 1.621-2.796 2.587l-7.765-7.763c1.38-1.794 3.071-3.416 5.073-4.865 1.657-1.242 3.745-2.38 6.264-3.415 2.52-1.036 5.47-1.553 8.852-1.553 3.244 0 6.195.517 8.852 1.553 2.658 1.035 4.953 2.466 6.885 4.295a18.839 18.839 0 0 1 4.452 6.417c1.035 2.45 1.553 5.09 1.553 7.919v31.57h-13.977v-5.176zm-10.353-5.176c3.106 0 5.608-.984 7.506-2.95 1.898-1.967 2.847-4.779 2.847-8.436v-1.553l-11.389 2.07c-3.796.622-5.694 2.52-5.694 5.693 0 1.588.535 2.847 1.605 3.778 1.07.932 2.778 1.398 5.125 1.398zm62.944 11.386c-2.485 0-4.659-.363-6.522-1.087-1.864-.725-3.417-1.57-4.66-2.536a19.087 19.087 0 0 1-3.83-3.623v27.947h-13.977V92.796h13.977v6.21a23.978 23.978 0 0 1 3.83-3.622c1.243-.897 2.796-1.725 4.66-2.485 1.863-.759 4.037-1.138 6.522-1.138 3.244 0 6.333.673 9.267 2.018a25.175 25.175 0 0 1 7.765 5.538c2.243 2.346 4.02 5.14 5.332 8.384 1.311 3.243 1.967 6.728 1.967 10.454 0 3.726-.656 7.211-1.967 10.454-1.312 3.244-3.09 6.038-5.332 8.385a25.175 25.175 0 0 1-7.765 5.537 21.97 21.97 0 0 1-9.267 2.019zm-2.588-40.368c-1.657 0-3.244.345-4.763 1.035a12.58 12.58 0 0 0-3.986 2.846c-1.139 1.208-2.036 2.674-2.692 4.4-.655 1.724-.983 3.622-.983 5.692 0 2.07.328 3.968.983 5.693.656 1.725 1.553 3.192 2.692 4.4a12.58 12.58 0 0 0 3.986 2.846 11.385 11.385 0 0 0 4.763 1.035c1.656 0 3.244-.345 4.762-1.035a12.58 12.58 0 0 0 3.987-2.847c1.138-1.207 2.036-2.674 2.691-4.399.656-1.725.984-3.623.984-5.693 0-2.07-.328-3.968-.984-5.693-.655-1.725-1.553-3.191-2.691-4.399a12.58 12.58 0 0 0-3.987-2.846 11.385 11.385 0 0 0-4.762-1.035zm62.427 40.368c-2.485 0-4.66-.363-6.523-1.087-1.863-.725-3.416-1.57-4.659-2.536a19.087 19.087 0 0 1-3.83-3.623v27.947h-13.978V92.796h13.977v6.21a23.978 23.978 0 0 1 3.831-3.622c1.243-.897 2.796-1.725 4.66-2.485 1.863-.759 4.037-1.138 6.522-1.138 3.244 0 6.333.673 9.266 2.018a25.175 25.175 0 0 1 7.765 5.538c2.243 2.346 4.02 5.14 5.332 8.384 1.312 3.243 1.967 6.728 1.967 10.454 0 3.726-.655 7.211-1.967 10.454-1.311 3.244-3.089 6.038-5.332 8.385a25.175 25.175 0 0 1-7.765 5.537 21.97 21.97 0 0 1-9.266 2.019zm-2.588-40.368c-1.657 0-3.245.345-4.763 1.035a12.58 12.58 0 0 0-3.986 2.846c-1.139 1.208-2.036 2.674-2.692 4.4-.656 1.724-.984 3.622-.984 5.692 0 2.07.328 3.968.984 5.693.656 1.725 1.553 3.192 2.692 4.4a12.58 12.58 0 0 0 3.986 2.846 11.385 11.385 0 0 0 4.763 1.035c1.656 0 3.244-.345 4.762-1.035a12.58 12.58 0 0 0 3.986-2.847c1.139-1.207 2.036-2.674 2.692-4.399.656-1.725.984-3.623.984-5.693 0-2.07-.328-3.968-.984-5.693-.656-1.725-1.553-3.191-2.692-4.399a12.58 12.58 0 0 0-3.986-2.846 11.385 11.385 0 0 0-4.762-1.035zm47.932 39.332h-13.977V71.06h13.977v72.455zm24.637 0h-13.977V92.796h13.977v50.718zm1.035-65.209c0 2.346-.725 4.227-2.174 5.641-1.45 1.415-3.486 2.122-6.109 2.122-2.346 0-4.227-.707-5.642-2.122-1.415-1.414-2.123-3.295-2.123-5.641s.708-4.227 2.123-5.641c1.415-1.415 3.296-2.122 5.642-2.122 2.623 0 4.66.707 6.109 2.122 1.45 1.414 2.174 3.295 2.174 5.641zm6.001 39.85c0-3.519.725-6.866 2.174-10.04a27.54 27.54 0 0 1 5.902-8.384c2.484-2.415 5.4-4.347 8.748-5.796 3.348-1.45 6.885-2.174 10.613-2.174 3.52 0 6.574.535 9.162 1.604 2.589 1.07 4.746 2.26 6.471 3.571 2.002 1.518 3.693 3.243 5.073 5.176l-8.8 8.798a15.186 15.186 0 0 0-3.003-3.313c-.966-.828-2.208-1.604-3.727-2.328-1.518-.725-3.244-1.087-5.176-1.087-1.795 0-3.503.362-5.125 1.087a13.794 13.794 0 0 0-4.297 3.001 14.52 14.52 0 0 0-2.95 4.451c-.726 1.69-1.088 3.502-1.088 5.434 0 1.932.362 3.744 1.087 5.434a14.52 14.52 0 0 0 2.95 4.451 13.794 13.794 0 0 0 4.298 3.002 12.426 12.426 0 0 0 5.125 1.087c1.932 0 3.658-.345 5.176-1.035 1.519-.69 2.83-1.45 3.935-2.278a17.298 17.298 0 0 0 3.313-3.415l8.282 8.798c-1.38 1.932-3.071 3.657-5.073 5.175-1.725 1.311-3.882 2.502-6.47 3.571-2.59 1.07-5.643 1.605-9.163 1.605-3.728 0-7.265-.725-10.613-2.174-3.347-1.45-6.264-3.381-8.748-5.797a27.54 27.54 0 0 1-5.902-8.384 23.894 23.894 0 0 1-2.174-10.04zm81.58 20.184a20.25 20.25 0 0 1-3.726 3.105c-1.174.76-2.623 1.467-4.349 2.122-1.725.656-3.693.984-5.901.984-2.623 0-4.97-.397-7.04-1.19-2.071-.794-3.866-1.847-5.384-3.158-1.519-1.31-2.675-2.846-3.469-4.606a13.318 13.318 0 0 1-1.19-5.537c0-4.14 1.328-7.591 3.986-10.351 2.657-2.76 6.332-4.554 11.026-5.383l16.048-2.898c0-2.07-.742-3.795-2.226-5.175s-3.676-2.07-6.575-2.07c-2.001 0-3.692.276-5.073.828-1.38.552-2.554 1.138-3.52 1.76-1.104.758-2.036 1.621-2.795 2.587l-7.765-7.763c1.38-1.794 3.071-3.416 5.073-4.865 1.656-1.242 3.744-2.38 6.264-3.415 2.519-1.036 5.47-1.553 8.852-1.553 3.244 0 6.194.517 8.852 1.553 2.657 1.035 4.952 2.466 6.885 4.295a18.839 18.839 0 0 1 4.452 6.417c1.035 2.45 1.553 5.09 1.553 7.919v31.57H449.16v-5.176zm-10.353-5.175c3.106 0 5.608-.984 7.507-2.95 1.898-1.967 2.847-4.779 2.847-8.436v-1.553l-11.389 2.07c-3.796.622-5.694 2.52-5.694 5.693 0 1.588.535 2.847 1.604 3.778 1.07.932 2.779 1.398 5.125 1.398zm40.167-55.377h12.425v16.044h10.353v12.42h-10.353v20.185c0 1.587.586 2.932 1.76 4.037 1.173 1.104 2.657 1.656 4.452 1.656 1.45 0 2.691-.173 3.727-.518a7.09 7.09 0 0 0 1.45-.517v11.903a65.07 65.07 0 0 1-2.693.828c-.828.207-1.811.38-2.95.518a30.62 30.62 0 0 1-3.676.207c-5.176 0-9.145-1.432-11.906-4.296-2.761-2.864-4.142-7.297-4.142-13.3v-20.702h-8.8V93.83h4.66c1.587 0 2.933-.604 4.037-1.811 1.104-1.208 1.656-2.847 1.656-4.917v-9.316zm46.38 65.727h-13.977V92.796h13.977v50.718zm1.035-65.209c0 2.346-.725 4.227-2.174 5.641-1.45 1.415-3.486 2.122-6.109 2.122-2.347 0-4.227-.707-5.642-2.122-1.415-1.414-2.123-3.295-2.123-5.641s.708-4.227 2.123-5.641c1.415-1.415 3.295-2.122 5.642-2.122 2.623 0 4.66.707 6.109 2.122 1.45 1.414 2.174 3.295 2.174 5.641zm20.496 39.85c0 1.932.328 3.726.983 5.383.656 1.656 1.553 3.07 2.692 4.243a12.992 12.992 0 0 0 3.986 2.795 11.385 11.385 0 0 0 4.763 1.035c1.656 0 3.244-.345 4.762-1.035a12.992 12.992 0 0 0 3.986-2.795c1.14-1.173 2.037-2.587 2.692-4.243.656-1.657.984-3.45.984-5.383 0-1.932-.328-3.726-.984-5.382-.655-1.656-1.553-3.07-2.692-4.244a12.992 12.992 0 0 0-3.986-2.795 11.385 11.385 0 0 0-4.762-1.035c-1.657 0-3.244.345-4.763 1.035a12.992 12.992 0 0 0-3.986 2.795c-1.139 1.173-2.036 2.588-2.692 4.244-.655 1.656-.983 3.45-.983 5.382zm39.343 0c0 3.52-.725 6.866-2.175 10.04a27.99 27.99 0 0 1-5.85 8.384c-2.45 2.416-5.314 4.348-8.593 5.797a25.21 25.21 0 0 1-10.301 2.174c-3.658 0-7.11-.725-10.354-2.174-3.244-1.45-6.09-3.381-8.541-5.797a27.99 27.99 0 0 1-5.85-8.384 23.894 23.894 0 0 1-2.174-10.04c0-3.519.725-6.866 2.174-10.04a27.99 27.99 0 0 1 5.85-8.384c2.45-2.415 5.297-4.347 8.541-5.796 3.244-1.45 6.696-2.174 10.354-2.174 3.589 0 7.023.724 10.301 2.174 3.279 1.449 6.143 3.38 8.594 5.796a27.99 27.99 0 0 1 5.85 8.384 23.894 23.894 0 0 1 2.174 10.04zm20.495-19.149c1.036-1.31 2.278-2.518 3.727-3.622 1.243-.897 2.761-1.725 4.556-2.485 1.795-.759 3.865-1.138 6.212-1.138 2.83 0 5.453.5 7.869 1.5 2.415 1.001 4.503 2.468 6.263 4.4 1.76 1.932 3.124 4.26 4.09 6.987.966 2.725 1.45 5.848 1.45 9.367v29.5H626.91v-27.947c0-3.106-.914-5.607-2.743-7.505-1.83-1.897-4.193-2.846-7.092-2.846-3.106 0-5.608 1-7.507 3.002-1.898 2-2.847 4.968-2.847 8.901v26.394h-13.977V92.796h13.977v6.21zm71.745 8.799a12.42 12.42 0 0 0-2.174-2.07 12.773 12.773 0 0 0-2.64-1.45c-1-.414-2.157-.62-3.468-.62-2.071 0-3.624.43-4.66 1.293-1.035.863-1.552 1.811-1.552 2.847 0 1.173.569 2.121 1.708 2.846 1.139.725 2.57 1.38 4.296 1.967 1.726.586 3.607 1.207 5.643 1.863a22.972 22.972 0 0 1 5.643 2.69 14.523 14.523 0 0 1 4.296 4.4c1.14 1.794 1.709 4.106 1.709 6.935 0 2.208-.449 4.278-1.346 6.21-.898 1.933-2.192 3.623-3.883 5.072-1.69 1.45-3.796 2.605-6.315 3.468-2.52.862-5.401 1.294-8.645 1.294-3.659 0-6.8-.483-9.422-1.45-2.623-.966-4.763-2.035-6.42-3.208-2-1.311-3.623-2.864-4.865-4.658l7.765-7.763a14.42 14.42 0 0 0 2.899 2.898c.966.76 2.105 1.415 3.416 1.967 1.312.552 2.83.828 4.556.828 2.347 0 4.055-.449 5.125-1.346 1.07-.897 1.605-2.001 1.605-3.312s-.57-2.329-1.709-3.054c-1.139-.724-2.57-1.397-4.296-2.018a176.021 176.021 0 0 0-5.643-1.915 24.146 24.146 0 0 1-5.643-2.64 14.393 14.393 0 0 1-4.296-4.243c-1.14-1.725-1.709-4.002-1.709-6.831 0-1.933.484-3.865 1.45-5.797.966-1.932 2.33-3.657 4.09-5.175 1.76-1.518 3.847-2.743 6.263-3.675 2.416-.931 5.039-1.397 7.869-1.397 2.968 0 5.556.414 7.765 1.242 2.209.828 4.038 1.725 5.487 2.691 1.726 1.173 3.175 2.45 4.349 3.83l-7.248 8.28zM87.1 110.188L80.842 94.79h2.406l4.974 12.51 4.973-12.51h2.407l-7.06 17.643c-.641 1.604-1.326 2.754-2.053 3.449-.727.695-1.647 1.042-2.76 1.042-.534 0-.994-.053-1.38-.16a2.782 2.782 0 0 1-.545-.16v-2.086c.172.064.343.118.514.16.32.108.684.161 1.09.161.728 0 1.316-.198 1.766-.593.449-.396.823-1 1.123-1.813l.802-2.245zm22.582-7.7c0-.833-.15-1.614-.45-2.341a6 6 0 0 0-1.219-1.893 5.599 5.599 0 0 0-1.78-1.25 5.273 5.273 0 0 0-2.167-.45c-.77 0-1.492.15-2.166.45-.673.299-1.267.716-1.78 1.25a6 6 0 0 0-1.22 1.893c-.3.727-.449 1.508-.449 2.342 0 .834.15 1.614.45 2.342a5.808 5.808 0 0 0 3 3.127c.673.31 1.395.465 2.165.465s1.492-.15 2.166-.449a5.599 5.599 0 0 0 1.781-1.25 6 6 0 0 0 1.22-1.893c.299-.728.449-1.508.449-2.342zm-13.477 0c0-1.111.209-2.16.626-3.143a8.09 8.09 0 0 1 1.684-2.55 7.908 7.908 0 0 1 2.487-1.7 7.552 7.552 0 0 1 3.064-.626c1.091 0 2.113.209 3.065.626.952.417 1.78.983 2.486 1.7a8.09 8.09 0 0 1 1.685 2.55c.417.984.626 2.032.626 3.144 0 1.133-.209 2.186-.626 3.16a8.139 8.139 0 0 1-1.685 2.534 7.908 7.908 0 0 1-2.486 1.7 7.552 7.552 0 0 1-3.065.625 7.552 7.552 0 0 1-3.064-.625 7.908 7.908 0 0 1-2.487-1.7 8.139 8.139 0 0 1-1.684-2.534c-.417-.974-.626-2.027-.626-3.16zm29.641 5.615a5.49 5.49 0 0 1-1.22 1.219 7.68 7.68 0 0 1-1.572.818c-.62.245-1.347.368-2.182.368-.877 0-1.7-.16-2.47-.48a5.641 5.641 0 0 1-1.99-1.38 6.638 6.638 0 0 1-1.315-2.133c-.321-.824-.481-1.738-.481-2.743V94.79h2.246v8.982c0 .684.112 1.31.337 1.877.224.566.534 1.058.93 1.475.396.417.856.738 1.38.963a4.232 4.232 0 0 0 1.684.336c.642 0 1.246-.123 1.813-.369a4.361 4.361 0 0 0 1.476-1.042c.417-.45.749-.99.995-1.62.246-.631.369-1.331.369-2.101V94.79h2.246v15.398h-2.246v-2.085zm14.24-11.388h-.963c-.642 0-1.252.117-1.83.352a4.887 4.887 0 0 0-1.54.995c-.449.428-.802.946-1.058 1.556-.257.61-.386 1.299-.386 2.069v8.5h-2.246V94.79h2.246v2.085c.343-.428.76-.823 1.252-1.187.428-.3.957-.577 1.588-.834.631-.257 1.396-.385 2.294-.385h.642v2.246zM20.894 56.367c0-.913-.364-1.626-1.091-2.139-.728-.513-1.64-.955-2.739-1.326-1.098-.37-2.281-.748-3.55-1.133a15.887 15.887 0 0 1-3.551-1.561 8.626 8.626 0 0 1-2.739-2.588c-.727-1.07-1.09-2.502-1.09-4.299 0-1.169.242-2.288.727-3.357a8.178 8.178 0 0 1 2.096-2.802c.913-.798 2.018-1.433 3.316-1.903s2.745-.706 4.342-.706c1.655 0 3.095.214 4.321.642 1.227.427 2.254.898 3.08 1.411a12.226 12.226 0 0 1 2.44 2.01l-3.851 4.064a9.137 9.137 0 0 0-1.498-1.283 10.038 10.038 0 0 0-1.754-.877c-.684-.271-1.454-.407-2.31-.407-1.283 0-2.282.321-2.995.963-.713.641-1.07 1.39-1.07 2.245 0 .941.364 1.661 1.092 2.16.727.5 1.64.934 2.738 1.305 1.098.37 2.282.748 3.55 1.133 1.27.385 2.454.906 3.552 1.561a8.538 8.538 0 0 1 2.738 2.61c.727 1.083 1.09 2.509 1.09 4.277 0 1.34-.249 2.58-.748 3.72a8.306 8.306 0 0 1-2.203 2.973c-.97.842-2.154 1.504-3.551 1.99-1.398.484-3.01.726-4.835.726-1.882 0-3.53-.25-4.941-.748-1.412-.5-2.588-1.062-3.53-1.69a14.367 14.367 0 0 1-2.866-2.48l3.85-3.85a9.264 9.264 0 0 0 1.84 1.626c.599.399 1.333.762 2.203 1.09.87.328 1.876.492 3.017.492 1.625 0 2.852-.37 3.679-1.112.827-.741 1.24-1.654 1.24-2.737zm16.742 8.768H31.86V44.177h5.776v20.958zm.428-26.946c0 .97-.3 1.746-.899 2.33-.599.585-1.44.878-2.524.878-.97 0-1.747-.293-2.332-.877-.584-.585-.877-1.362-.877-2.331 0-.97.293-1.747.877-2.331.585-.585 1.362-.877 2.332-.877 1.084 0 1.925.292 2.524.877.599.584.899 1.361.899 2.33zm30.86 15.397c0-1.397-.328-2.459-.984-3.186-.656-.727-1.469-1.09-2.439-1.09-1.083 0-1.996.413-2.738 1.24-.741.827-1.112 2.053-1.112 3.678v10.907h-5.776V53.586c0-1.397-.328-2.459-.984-3.186-.656-.727-1.469-1.09-2.438-1.09-1.084 0-1.997.413-2.738 1.24-.742.827-1.113 2.053-1.113 3.678v10.907h-5.775V44.177h5.775v2.566c.4-.542.87-1.04 1.412-1.497a9.178 9.178 0 0 1 1.754-1.027c.685-.313 1.483-.47 2.396-.47 1.112 0 2.046.192 2.802.577.756.385 1.376.806 1.861 1.262a6.387 6.387 0 0 1 1.327 1.797 6.986 6.986 0 0 1 1.754-1.797c.57-.456 1.297-.877 2.182-1.262.884-.385 1.925-.577 3.123-.577 2.253 0 4.064.756 5.433 2.267 1.37 1.511 2.054 3.82 2.054 6.929v12.19h-5.776V53.586zm22.732 11.976c-1.027 0-1.926-.15-2.696-.449-.77-.299-1.411-.648-1.925-1.048a7.887 7.887 0 0 1-1.583-1.497v11.549h-5.775v-29.94h5.775v2.566a9.908 9.908 0 0 1 1.583-1.497c.514-.37 1.155-.713 1.925-1.027.77-.313 1.669-.47 2.696-.47 1.34 0 2.617.278 3.829.834a10.403 10.403 0 0 1 3.208 2.288c.927.97 1.662 2.125 2.204 3.465.542 1.34.813 2.78.813 4.32 0 1.54-.271 2.98-.813 4.32-.542 1.34-1.277 2.495-2.204 3.464a10.403 10.403 0 0 1-3.208 2.288 9.078 9.078 0 0 1-3.83.834zm-1.07-16.68c-.684 0-1.34.142-1.968.427a5.199 5.199 0 0 0-1.647 1.177 5.419 5.419 0 0 0-1.112 1.817c-.271.713-.407 1.497-.407 2.353 0 .855.136 1.64.407 2.352a5.419 5.419 0 0 0 1.112 1.818c.47.499 1.02.891 1.647 1.176a4.704 4.704 0 0 0 1.968.428c.685 0 1.34-.143 1.968-.428a5.199 5.199 0 0 0 1.647-1.176 5.419 5.419 0 0 0 1.113-1.818c.27-.713.406-1.497.406-2.352 0-.856-.135-1.64-.406-2.353a5.419 5.419 0 0 0-1.113-1.817 5.199 5.199 0 0 0-1.647-1.177 4.704 4.704 0 0 0-1.968-.427zm20.807 16.253h-5.776v-29.94h5.776v29.94zm11.18 0h-5.776V44.177h5.776v20.958zm.428-26.946c0 .97-.3 1.746-.899 2.33-.599.585-1.44.878-2.524.878-.97 0-1.747-.293-2.331-.877-.585-.585-.877-1.362-.877-2.331 0-.97.292-1.747.877-2.331.584-.585 1.362-.877 2.331-.877 1.084 0 1.925.292 2.524.877.6.584.899 1.361.899 2.33zM139.53 49.95h-4.706v15.184h-5.776V49.95h-2.994v-5.133h2.994v-2.78c0-2.48.57-4.313 1.712-5.496 1.14-1.183 2.78-1.775 4.92-1.775.542 0 1.048.036 1.518.107.471.071.878.15 1.22.235.4.114.77.214 1.112.3v4.918c-.171-.057-.37-.128-.599-.214a6.252 6.252 0 0 0-.684-.15 5.228 5.228 0 0 0-.856-.063c-.742 0-1.355.228-1.84.684a2.204 2.204 0 0 0-.727 1.668v2.566h4.706v5.133zm8.827 14.97l-8.128-20.744h5.99l4.92 13.9 4.92-13.9h5.989l-8.343 22.24c-.97 2.596-2.11 4.528-3.422 5.796-1.312 1.27-2.881 1.904-4.706 1.904-.542 0-1.034-.029-1.476-.086a8.52 8.52 0 0 1-1.134-.214c-.37-.114-.713-.228-1.027-.342v-5.132c.171.085.37.156.599.214.428.142.941.213 1.54.213.97 0 1.747-.228 2.332-.684a4.233 4.233 0 0 0 1.305-1.668l.641-1.497zm20.165-3.208l-5.561 8.982-3.85-1.925 4.705-9.837 4.706 2.78zm38.19-8.127c0-1.397-.327-2.459-.983-3.186-.656-.727-1.47-1.09-2.439-1.09-1.084 0-1.996.413-2.738 1.24s-1.112 2.053-1.112 3.678v10.907h-5.776V53.586c0-1.397-.328-2.459-.984-3.186-.656-.727-1.469-1.09-2.439-1.09-1.083 0-1.996.413-2.738 1.24-.741.827-1.112 2.053-1.112 3.678v10.907h-5.776V44.177h5.776v2.566c.4-.542.87-1.04 1.412-1.497a9.178 9.178 0 0 1 1.754-1.027c.684-.313 1.483-.47 2.396-.47 1.112 0 2.046.192 2.802.577.756.385 1.376.806 1.861 1.262a6.387 6.387 0 0 1 1.326 1.797 6.986 6.986 0 0 1 1.754-1.797c.57-.456 1.298-.877 2.182-1.262.884-.385 1.925-.577 3.123-.577 2.254 0 4.065.756 5.434 2.267 1.369 1.511 2.053 3.82 2.053 6.929v12.19h-5.775V53.586zm15.46 1.07c0 .798.135 1.54.406 2.224a5.267 5.267 0 0 0 1.112 1.754c.47.484 1.02.87 1.647 1.154a4.704 4.704 0 0 0 1.968.428c.685 0 1.34-.143 1.968-.428a5.369 5.369 0 0 0 1.647-1.154c.471-.485.842-1.07 1.113-1.754a5.987 5.987 0 0 0 .406-2.224c0-.799-.135-1.54-.406-2.224a5.267 5.267 0 0 0-1.113-1.754 5.369 5.369 0 0 0-1.647-1.155 4.704 4.704 0 0 0-1.968-.428c-.684 0-1.34.143-1.968.428a5.369 5.369 0 0 0-1.647 1.155 5.267 5.267 0 0 0-1.112 1.754 5.987 5.987 0 0 0-.407 2.224zm16.257 0c0 1.454-.3 2.837-.899 4.149a11.566 11.566 0 0 1-2.417 3.464 11.804 11.804 0 0 1-3.55 2.395 10.417 10.417 0 0 1-4.258.898c-1.511 0-2.937-.299-4.278-.898a11.884 11.884 0 0 1-3.53-2.395 11.566 11.566 0 0 1-2.417-3.464 9.873 9.873 0 0 1-.898-4.15c0-1.453.3-2.836.898-4.148a11.566 11.566 0 0 1 2.417-3.465 11.884 11.884 0 0 1 3.53-2.395 10.37 10.37 0 0 1 4.278-.898c1.483 0 2.902.3 4.257.898a11.804 11.804 0 0 1 3.551 2.395 11.566 11.566 0 0 1 2.417 3.465 9.873 9.873 0 0 1 .899 4.149zm12.464-10.907c.998 0 1.89.157 2.674.47.784.314 1.433.656 1.946 1.027a9.908 9.908 0 0 1 1.583 1.497V35.195h5.776v29.94h-5.776v-2.567a7.887 7.887 0 0 1-1.583 1.497c-.513.4-1.162.749-1.946 1.048-.785.3-1.676.45-2.674.45a9.078 9.078 0 0 1-3.83-.835 10.403 10.403 0 0 1-3.208-2.288c-.927-.97-1.661-2.124-2.203-3.464-.542-1.34-.813-2.78-.813-4.32 0-1.54.27-2.98.813-4.32.542-1.34 1.276-2.495 2.203-3.465a10.403 10.403 0 0 1 3.209-2.288 9.078 9.078 0 0 1 3.829-.834zm1.07 16.68c.684 0 1.34-.142 1.967-.427a5.199 5.199 0 0 0 1.647-1.176 5.419 5.419 0 0 0 1.113-1.818c.27-.713.406-1.497.406-2.352 0-.856-.135-1.64-.406-2.353a5.419 5.419 0 0 0-1.113-1.817 5.199 5.199 0 0 0-1.647-1.177 4.704 4.704 0 0 0-1.968-.427c-.684 0-1.34.142-1.968.427a5.199 5.199 0 0 0-1.647 1.177 5.419 5.419 0 0 0-1.112 1.817c-.271.713-.407 1.497-.407 2.353 0 .855.136 1.64.407 2.352a5.419 5.419 0 0 0 1.112 1.818c.47.499 1.02.891 1.647 1.176a4.704 4.704 0 0 0 1.968.428zm20.806-3.849c.228 1.084.805 2.032 1.732 2.845.927.812 2.204 1.219 3.83 1.219.912 0 1.71-.136 2.395-.407.685-.27 1.27-.563 1.754-.876a6.761 6.761 0 0 0 1.412-1.284l2.995 3.85c-.627.713-1.398 1.326-2.31 1.84-.77.455-1.712.869-2.824 1.24-1.112.37-2.396.555-3.85.555-1.54 0-2.988-.285-4.343-.855a11.186 11.186 0 0 1-3.55-2.352 10.951 10.951 0 0 1-2.375-3.465c-.57-1.312-.856-2.723-.856-4.234 0-1.483.285-2.887.856-4.213a11.058 11.058 0 0 1 2.353-3.486 11.13 11.13 0 0 1 3.465-2.353c1.312-.57 2.724-.855 4.236-.855 1.483 0 2.866.264 4.15.791a10.086 10.086 0 0 1 3.337 2.203 10.083 10.083 0 0 1 2.203 3.336c.528 1.283.791 2.666.791 4.149 0 .4-.014.741-.042 1.027-.029.285-.057.527-.086.727-.028.228-.057.427-.085.598h-15.188zm4.92-7.912c-1.284 0-2.346.37-3.188 1.112a5.681 5.681 0 0 0-1.732 2.737h9.626a5.014 5.014 0 0 0-1.562-2.737c-.813-.742-1.86-1.112-3.144-1.112zm26.796 1.069a13.326 13.326 0 0 0-1.091-.171 7.218 7.218 0 0 0-.834-.043c-1.512 0-2.71.47-3.594 1.412-.884.94-1.326 2.324-1.326 4.148v10.052h-5.776V44.177h5.776v2.566c.427-.513.94-.97 1.54-1.369.513-.342 1.14-.663 1.882-.962.742-.3 1.597-.45 2.567-.45h.856v5.775zm8.4-2.994a8.543 8.543 0 0 1 1.54-1.497c.513-.37 1.14-.713 1.882-1.027.742-.313 1.597-.47 2.567-.47 1.17 0 2.253.207 3.251.62a7.172 7.172 0 0 1 2.589 1.818c.727.798 1.29 1.76 1.69 2.887.399 1.126.599 2.417.599 3.87v12.19h-5.776V53.587c0-1.283-.378-2.316-1.134-3.1-.756-.785-1.732-1.177-2.93-1.177-1.284 0-2.318.414-3.102 1.24-.784.828-1.177 2.054-1.177 3.679v10.907h-5.775V44.177h5.775v2.566zm25.084 18.392h-5.776V44.177h5.776v20.958zm.428-26.946c0 .97-.3 1.746-.898 2.33-.6.585-1.44.878-2.525.878-.97 0-1.747-.293-2.331-.877-.585-.585-.877-1.362-.877-2.331 0-.97.292-1.747.877-2.331.584-.585 1.362-.877 2.331-.877 1.084 0 1.926.292 2.525.877.598.584.898 1.361.898 2.33zm21.234 11.12l-10.268 10.693h10.696v5.133H342.09v-5.133l10.268-10.693h-9.84v-5.132h17.113v5.132zm9.042 7.271c.228 1.084.805 2.032 1.732 2.845.927.812 2.204 1.219 3.83 1.219.912 0 1.71-.136 2.395-.407.685-.27 1.27-.563 1.754-.876a6.761 6.761 0 0 0 1.412-1.284l2.995 3.85c-.628.713-1.398 1.326-2.31 1.84-.77.455-1.712.869-2.824 1.24-1.112.37-2.396.555-3.85.555-1.54 0-2.988-.285-4.343-.855a11.186 11.186 0 0 1-3.55-2.352 10.951 10.951 0 0 1-2.375-3.465c-.57-1.312-.856-2.723-.856-4.234 0-1.483.285-2.887.856-4.213a11.058 11.058 0 0 1 2.353-3.486 11.13 11.13 0 0 1 3.465-2.353c1.312-.57 2.724-.855 4.236-.855 1.483 0 2.866.264 4.15.791a10.086 10.086 0 0 1 3.337 2.203 10.083 10.083 0 0 1 2.203 3.336c.528 1.283.791 2.666.791 4.149 0 .4-.014.741-.042 1.027-.029.285-.058.527-.086.727-.029.228-.057.427-.086.598h-15.187zm4.92-7.912c-1.284 0-2.346.37-3.188 1.112a5.681 5.681 0 0 0-1.732 2.737h9.626a5.014 5.014 0 0 0-1.562-2.737c-.813-.742-1.86-1.112-3.144-1.112zm37.12-7.485c0 1.169-.3 2.26-.898 3.272a13.194 13.194 0 0 1-2.01 2.63 19.878 19.878 0 0 1-2.867 2.438l7.7 9.41c.4-.656.756-1.412 1.07-2.267.257-.741.5-1.618.728-2.63.228-1.013.342-2.16.342-3.444h1.925c0 1.512-.15 2.866-.45 4.064-.299 1.197-.62 2.224-.962 3.08a15.87 15.87 0 0 1-1.369 2.694c.37.57.77 1.07 1.198 1.497.37.4.784.748 1.24 1.048.457.3.928.449 1.413.449a4.97 4.97 0 0 0 .898-.086c.143-.028.271-.07.385-.128v1.925c-.114.057-.242.1-.385.128a4.97 4.97 0 0 1-.898.086 4.087 4.087 0 0 1-2.054-.535 8.51 8.51 0 0 1-1.626-1.176 14.344 14.344 0 0 1-1.454-1.711 8.074 8.074 0 0 1-1.968 1.84c-.656.455-1.483.869-2.482 1.24-.998.37-2.153.555-3.465.555-1.227 0-2.353-.2-3.38-.598-1.027-.4-1.904-.934-2.631-1.604a7.495 7.495 0 0 1-1.711-2.31 6.345 6.345 0 0 1-.62-2.759c0-1.34.313-2.545.94-3.614.628-1.07 1.312-1.989 2.054-2.759a15.346 15.346 0 0 1 2.995-2.395 20.678 20.678 0 0 1-2.353-2.694 17.785 17.785 0 0 1-1.626-2.63c-.485-.956-.727-1.89-.727-2.802 0-.913.178-1.768.535-2.567a6.928 6.928 0 0 1 1.433-2.096 6.93 6.93 0 0 1 2.096-1.432 6.226 6.226 0 0 1 2.567-.535c.913 0 1.761.164 2.546.492a6.247 6.247 0 0 1 2.032 1.347c.57.57 1.02 1.248 1.347 2.032.328.784.492 1.632.492 2.545zm-7.273 9.623a16.357 16.357 0 0 0-2.567 2.224 12.436 12.436 0 0 0-1.775 2.396c-.528.912-.792 1.867-.792 2.865 0 1.512.557 2.78 1.669 3.807 1.112 1.027 2.695 1.54 4.749 1.54 1.084 0 2.04-.164 2.866-.492.827-.328 1.526-.692 2.097-1.09a8.221 8.221 0 0 0 1.668-1.626l-7.915-9.624zm-3.85-9.41c0 .742.221 1.519.663 2.332.442.812.934 1.547 1.476 2.202.628.77 1.34 1.54 2.14 2.31a26.288 26.288 0 0 0 2.438-2.224 13.115 13.115 0 0 0 1.711-2.246c.514-.84.77-1.703.77-2.587 0-1.283-.428-2.353-1.283-3.208-.856-.856-1.925-1.283-3.209-1.283-.656 0-1.27.128-1.84.385-.57.256-1.07.598-1.497 1.026a4.688 4.688 0 0 0-1.37 3.294zm41.827 8.983a5.132 5.132 0 0 0-.899-.856 5.278 5.278 0 0 0-1.09-.599c-.414-.17-.892-.256-1.434-.256-.855 0-1.497.178-1.925.534-.428.357-.642.749-.642 1.177 0 .484.236.876.706 1.176.47.3 1.063.57 1.776.812.713.243 1.49.5 2.331.77.842.271 1.619.642 2.332 1.112a6.001 6.001 0 0 1 1.775 1.818c.471.742.706 1.697.706 2.866 0 .912-.185 1.768-.556 2.566a6.153 6.153 0 0 1-1.604 2.096c-.699.599-1.569 1.076-2.61 1.433-1.04.356-2.232.534-3.572.534-1.512 0-2.81-.2-3.893-.598-1.084-.4-1.968-.841-2.653-1.326-.827-.542-1.497-1.184-2.01-1.925l3.208-3.208c.342.456.742.856 1.198 1.198.4.313.87.584 1.412.812.542.229 1.17.343 1.882.343.97 0 1.676-.186 2.118-.556.442-.371.663-.827.663-1.37 0-.54-.235-.961-.706-1.26-.47-.3-1.062-.578-1.775-.835-.713-.257-1.49-.52-2.332-.791a9.978 9.978 0 0 1-2.332-1.09 5.948 5.948 0 0 1-1.775-1.754c-.47-.713-.706-1.654-.706-2.823 0-.799.2-1.597.599-2.396a6.88 6.88 0 0 1 1.69-2.138c.727-.628 1.59-1.134 2.588-1.519s2.082-.577 3.252-.577c1.226 0 2.296.171 3.208.513.913.342 1.669.713 2.268 1.112a8.917 8.917 0 0 1 1.797 1.583l-2.995 3.422zm12.036 6.201c.228 1.084.806 2.032 1.733 2.845.927.812 2.203 1.219 3.829 1.219.912 0 1.711-.136 2.396-.407.684-.27 1.269-.563 1.754-.876a6.761 6.761 0 0 0 1.411-1.284l2.995 3.85c-.627.713-1.397 1.326-2.31 1.84-.77.455-1.711.869-2.824 1.24-1.112.37-2.396.555-3.85.555-1.54 0-2.988-.285-4.343-.855a11.186 11.186 0 0 1-3.55-2.352 10.951 10.951 0 0 1-2.375-3.465c-.57-1.312-.856-2.723-.856-4.234 0-1.483.286-2.887.856-4.213a11.058 11.058 0 0 1 2.353-3.486 11.13 11.13 0 0 1 3.465-2.353c1.312-.57 2.724-.855 4.236-.855 1.483 0 2.866.264 4.15.791a10.086 10.086 0 0 1 3.337 2.203 10.083 10.083 0 0 1 2.203 3.336c.528 1.283.792 2.666.792 4.149 0 .4-.015.741-.043 1.027-.029.285-.057.527-.086.727-.028.228-.057.427-.085.598h-15.188zm4.92-7.912c-1.284 0-2.346.37-3.187 1.112a5.681 5.681 0 0 0-1.733 2.737h9.626a5.014 5.014 0 0 0-1.562-2.737c-.812-.742-1.86-1.112-3.144-1.112zm12.892 5.988c0-1.454.3-2.837.898-4.15a11.38 11.38 0 0 1 2.439-3.464 11.932 11.932 0 0 1 3.615-2.395 10.921 10.921 0 0 1 4.385-.898c1.455 0 2.717.221 3.786.663 1.07.442 1.961.934 2.674 1.476a9.918 9.918 0 0 1 2.097 2.138l-3.637 3.636a6.275 6.275 0 0 0-1.24-1.369c-.4-.342-.913-.663-1.54-.962-.628-.3-1.341-.45-2.14-.45-.742 0-1.447.15-2.118.45a5.7 5.7 0 0 0-1.775 1.24 6 6 0 0 0-1.22 1.84c-.299.698-.449 1.446-.449 2.245 0 .798.15 1.547.45 2.245a6 6 0 0 0 1.219 1.84 5.7 5.7 0 0 0 1.775 1.24c.67.3 1.376.449 2.118.449.799 0 1.512-.143 2.14-.428a8.712 8.712 0 0 0 1.625-.94c.513-.4.97-.87 1.369-1.412l3.423 3.635a9.918 9.918 0 0 1-2.097 2.139c-.713.542-1.604 1.034-2.674 1.476-1.07.442-2.331.662-3.786.662-1.54 0-3.002-.299-4.385-.898a11.932 11.932 0 0 1-3.615-2.395 11.38 11.38 0 0 1-2.439-3.464 9.873 9.873 0 0 1-.898-4.15zm37.277 8.34a6.828 6.828 0 0 1-1.54 1.283c-.513.314-1.14.606-1.882.877s-1.597.406-2.567.406c-1.17 0-2.253-.206-3.252-.62a7.426 7.426 0 0 1-2.588-1.775c-.727-.77-1.29-1.696-1.69-2.78-.4-1.083-.599-2.31-.599-3.678V44.177h5.776v11.976c0 1.197.378 2.174 1.134 2.93.755.755 1.732 1.133 2.93 1.133 1.284 0 2.318-.413 3.102-1.24.784-.827 1.176-2.053 1.176-3.679v-11.12h5.776v20.958h-5.776v-2.139zm23.588-13.259a13.326 13.326 0 0 0-1.091-.171 7.218 7.218 0 0 0-.834-.043c-1.512 0-2.71.47-3.594 1.412-.884.94-1.326 2.324-1.326 4.148v10.052h-5.776V44.177h5.776v2.566c.427-.513.94-.97 1.54-1.369.513-.342 1.14-.663 1.882-.962.742-.3 1.597-.45 2.567-.45h.856v5.775zm7.33 6.843c.228 1.084.806 2.032 1.733 2.845.927.812 2.203 1.219 3.829 1.219.912 0 1.71-.136 2.395-.407.685-.27 1.27-.563 1.755-.876a6.761 6.761 0 0 0 1.411-1.284l2.995 3.85c-.627.713-1.397 1.326-2.31 1.84-.77.455-1.711.869-2.824 1.24-1.112.37-2.396.555-3.85.555-1.54 0-2.988-.285-4.343-.855a11.186 11.186 0 0 1-3.55-2.352 10.951 10.951 0 0 1-2.375-3.465c-.57-1.312-.856-2.723-.856-4.234 0-1.483.286-2.887.856-4.213a11.058 11.058 0 0 1 2.353-3.486 11.13 11.13 0 0 1 3.465-2.353c1.312-.57 2.724-.855 4.236-.855 1.483 0 2.866.264 4.15.791a10.086 10.086 0 0 1 3.337 2.203 10.083 10.083 0 0 1 2.203 3.336c.528 1.283.792 2.666.792 4.149 0 .4-.015.741-.043 1.027-.029.285-.057.527-.086.727-.028.228-.057.427-.085.598H539.46zm4.92-7.912c-1.284 0-2.346.37-3.187 1.112a5.681 5.681 0 0 0-1.733 2.737h9.626a5.014 5.014 0 0 0-1.562-2.737c-.812-.742-1.86-1.112-3.144-1.112zm94.324 174.954h-7.551v27.366h-2.832v-27.366h-5.034v-2.83h5.034V214.5c0-2.685.66-4.719 1.982-6.103 1.322-1.384 3.178-2.076 5.57-2.076.545 0 1.069.053 1.572.158.504.104.944.22 1.322.346.461.167.86.314 1.196.44v2.83c-.336-.125-.735-.272-1.196-.44a11.885 11.885 0 0 0-1.322-.346 7.698 7.698 0 0 0-1.573-.157c-1.426 0-2.57.451-3.43 1.353-.86.901-1.29 2.233-1.29 3.995v6.29h7.552v2.831zm4.169 12.268c0-2.181.398-4.236 1.195-6.165.797-1.93 1.888-3.597 3.273-5.002a15.72 15.72 0 0 1 4.813-3.334 14.07 14.07 0 0 1 5.821-1.227c2.056 0 3.996.41 5.82 1.227a15.72 15.72 0 0 1 4.815 3.334c1.384 1.405 2.475 3.072 3.272 5.002.797 1.929 1.195 3.984 1.195 6.165 0 2.223-.398 4.288-1.195 6.196-.797 1.909-1.888 3.565-3.272 4.97a15.72 15.72 0 0 1-4.814 3.335 14.07 14.07 0 0 1-5.82 1.226 14.07 14.07 0 0 1-5.822-1.226 15.72 15.72 0 0 1-4.813-3.335c-1.385-1.405-2.476-3.061-3.273-4.97-.797-1.908-1.195-3.973-1.195-6.196zm27.373 0c0-1.804-.325-3.492-.976-5.064-.65-1.573-1.541-2.936-2.674-4.09a12.875 12.875 0 0 0-3.933-2.736 11.285 11.285 0 0 0-4.688-1.007c-1.636 0-3.199.336-4.688 1.007-1.49.671-2.8 1.583-3.933 2.736-1.132 1.154-2.024 2.517-2.674 4.09-.65 1.572-.976 3.26-.976 5.064 0 1.803.326 3.491.976 5.064.65 1.573 1.542 2.936 2.674 4.09a12.875 12.875 0 0 0 3.933 2.736 11.285 11.285 0 0 0 4.688 1.006c1.636 0 3.199-.335 4.688-1.006 1.49-.671 2.8-1.583 3.933-2.737 1.133-1.153 2.024-2.516 2.674-4.089.65-1.573.976-3.26.976-5.064zm25.563-12.897h-1.258a10.6 10.6 0 0 0-4.059.787 10.512 10.512 0 0 0-3.398 2.233c-.986.965-1.772 2.128-2.36 3.492-.587 1.363-.88 2.862-.88 4.498v16.985h-2.832v-30.196h2.831v5.032c.588-1.048 1.385-1.992 2.392-2.83.839-.714 1.93-1.364 3.272-1.95 1.342-.588 3.02-.882 5.034-.882h1.258v2.831zm19.035-12.267h2.517v10.066h6.922v2.83h-6.922v19.817c0 1.762.43 3.093 1.29 3.995.86.902 2.004 1.352 3.43 1.352.545 0 1.07-.042 1.573-.125a8.773 8.773 0 0 0 1.322-.315c.461-.168.86-.335 1.195-.503v2.83c-.335.168-.734.336-1.195.504a9.561 9.561 0 0 1-2.895.44c-2.391 0-4.248-.692-5.569-2.076-1.321-1.384-1.982-3.418-1.982-6.102v-19.817h-5.978v-2.83h4.09c.63 0 1.154-.22 1.573-.661.42-.44.63-1.059.63-1.856v-7.55zm21.474 15.413a11.15 11.15 0 0 1 2.328-2.957c.84-.755 1.92-1.447 3.24-2.076 1.322-.629 2.927-.944 4.815-.944 1.72 0 3.324.315 4.814.944 1.489.63 2.79 1.52 3.901 2.674 1.112 1.153 1.982 2.516 2.611 4.089.63 1.573.944 3.303.944 5.19v17.93h-2.831v-17.93c0-1.51-.242-2.883-.724-4.12-.482-1.238-1.143-2.297-1.982-3.178a8.725 8.725 0 0 0-2.99-2.044c-1.153-.482-2.4-.724-3.743-.724a9.703 9.703 0 0 0-4.027.85 10.742 10.742 0 0 0-3.304 2.296c-.944.964-1.689 2.128-2.234 3.491-.545 1.363-.818 2.82-.818 4.373v16.985h-2.832v-44.037h2.832v19.188zm32.8 11.01a11.765 11.765 0 0 0 1.133 4.497 12.874 12.874 0 0 0 2.611 3.68 12.622 12.622 0 0 0 3.713 2.517c1.405.629 2.905.943 4.5.943 1.635 0 3.083-.272 4.341-.817 1.259-.546 2.307-1.154 3.146-1.825a11.852 11.852 0 0 0 2.58-2.642l1.888 1.824a15.302 15.302 0 0 1-3.02 3.146c-1.007.797-2.255 1.52-3.744 2.17-1.49.65-3.22.975-5.192.975s-3.849-.409-5.632-1.226a15.56 15.56 0 0 1-4.72-3.335c-1.363-1.405-2.443-3.061-3.24-4.97-.797-1.908-1.196-3.973-1.196-6.196 0-2.181.399-4.236 1.196-6.165.797-1.93 1.867-3.597 3.21-5.002a15.409 15.409 0 0 1 4.624-3.334 12.657 12.657 0 0 1 5.444-1.227c1.887 0 3.67.378 5.348 1.133a13.244 13.244 0 0 1 4.405 3.208c1.259 1.384 2.255 3.04 2.99 4.97.733 1.93 1.1 4.068 1.1 6.417v1.258h-25.485zm11.642-14.156c-1.51 0-2.948.315-4.31.944a13.231 13.231 0 0 0-3.65 2.485 12.225 12.225 0 0 0-2.58 3.586 11.381 11.381 0 0 0-1.102 4.31h22.654c-.084-1.637-.42-3.146-1.007-4.53-.588-1.384-1.374-2.58-2.36-3.586a10.775 10.775 0 0 0-3.43-2.36c-1.3-.566-2.705-.849-4.215-.849zm43.89-3.46c1.469 0 2.78.231 3.933.692 1.154.462 2.108.965 2.863 1.51a14.573 14.573 0 0 1 2.329 2.202v-16.986h8.495v44.037h-8.495v-3.774a11.6 11.6 0 0 1-2.329 2.201c-.755.588-1.709 1.101-2.863 1.542-1.153.44-2.464.66-3.933.66-1.971 0-3.849-.409-5.631-1.226a15.3 15.3 0 0 1-4.72-3.366c-1.363-1.426-2.444-3.125-3.24-5.096-.798-1.971-1.196-4.089-1.196-6.354 0-2.264.398-4.382 1.195-6.354.797-1.97 1.878-3.67 3.241-5.095a15.3 15.3 0 0 1 4.72-3.366 13.353 13.353 0 0 1 5.631-1.227zm1.574 24.535a6.92 6.92 0 0 0 2.894-.629 7.646 7.646 0 0 0 2.423-1.73c.692-.734 1.237-1.625 1.636-2.674.398-1.048.598-2.201.598-3.46 0-1.258-.2-2.411-.598-3.46-.399-1.048-.944-1.94-1.636-2.673a7.646 7.646 0 0 0-2.423-1.73 6.92 6.92 0 0 0-2.894-.63 6.92 6.92 0 0 0-2.895.63c-.923.419-1.73.996-2.423 1.73-.692.734-1.237 1.625-1.636 2.673-.398 1.049-.598 2.202-.598 3.46 0 1.259.2 2.412.598 3.46.399 1.049.944 1.94 1.636 2.674.693.734 1.5 1.31 2.423 1.73a6.92 6.92 0 0 0 2.895.63zm32.485 6.92h-8.495v-30.826h8.495v30.826zm.63-39.633c0 1.426-.441 2.569-1.322 3.429-.881.86-2.119 1.29-3.713 1.29-1.426 0-2.57-.43-3.43-1.29-.86-.86-1.29-2.003-1.29-3.429 0-1.426.43-2.569 1.29-3.429.86-.86 2.004-1.29 3.43-1.29 1.594 0 2.832.43 3.713 1.29.88.86 1.321 2.003 1.321 3.429zm28.08 34.6a11.6 11.6 0 0 1-2.328 2.202c-.755.587-1.71 1.101-2.863 1.542-1.154.44-2.465.66-3.933.66-1.72 0-3.409-.409-5.066-1.227a15.41 15.41 0 0 1-4.436-3.302c-1.3-1.384-2.35-3.01-3.146-4.876-.797-1.866-1.196-3.869-1.196-6.008s.399-4.141 1.196-6.008c.797-1.866 1.846-3.491 3.146-4.875a15.41 15.41 0 0 1 4.436-3.303c1.657-.818 3.346-1.227 5.066-1.227 1.468 0 2.78.231 3.933.692 1.153.462 2.108.965 2.863 1.51a14.573 14.573 0 0 1 2.328 2.202v-3.775h8.495v28.31c0 2.223-.409 4.288-1.227 6.196a15.186 15.186 0 0 1-3.398 4.97c-1.447 1.405-3.178 2.517-5.191 3.335-2.014.817-4.195 1.226-6.545 1.226-2.39 0-4.467-.335-6.23-1.006-1.761-.671-3.23-1.426-4.404-2.265a15.73 15.73 0 0 1-3.524-3.334l5.349-5.033a9.154 9.154 0 0 0 2.14 2.076c.712.503 1.593.965 2.642 1.384 1.049.42 2.286.63 3.713.63 2.517 0 4.51-.735 5.978-2.203s2.202-3.46 2.202-5.976v-2.517zm-14.158-11.009c0 1.09.178 2.097.535 3.02.356.923.85 1.72 1.478 2.39a6.834 6.834 0 0 0 2.203 1.573 6.518 6.518 0 0 0 2.706.566c.923 0 1.825-.188 2.705-.566a7.12 7.12 0 0 0 2.329-1.604 8.114 8.114 0 0 0 1.604-2.39c.399-.902.598-1.898.598-2.989 0-1.048-.2-2.034-.598-2.957a7.998 7.998 0 0 0-1.604-2.422 7.12 7.12 0 0 0-2.329-1.604 6.808 6.808 0 0 0-2.705-.566c-.965 0-1.867.189-2.706.566a6.834 6.834 0 0 0-2.203 1.573 7.296 7.296 0 0 0-1.478 2.39c-.357.923-.535 1.93-.535 3.02zm38.778 16.042h-8.495v-30.826h8.495v30.826zm.63-39.633c0 1.426-.441 2.569-1.322 3.429-.881.86-2.119 1.29-3.713 1.29-1.426 0-2.57-.43-3.43-1.29-.86-.86-1.29-2.003-1.29-3.429 0-1.426.43-2.569 1.29-3.429.86-.86 2.004-1.29 3.43-1.29 1.594 0 2.832.43 3.713 1.29.88.86 1.321 2.003 1.321 3.429zm10.775-.315h7.551v9.752h6.293v7.549h-6.293v12.267c0 .965.357 1.783 1.07 2.454.713.67 1.615 1.006 2.706 1.006.881 0 1.636-.105 2.265-.314.336-.084.63-.19.881-.315v7.235c-.503.167-1.048.335-1.636.503-.503.126-1.101.23-1.793.315a18.61 18.61 0 0 1-2.234.125c-3.146 0-5.558-.87-7.237-2.61-1.678-1.74-2.517-4.436-2.517-8.084V228.34h-5.348v-7.55h2.831c.965 0 1.783-.366 2.454-1.1.672-.734 1.007-1.73 1.007-2.989v-5.662zm37.835 36.803a12.308 12.308 0 0 1-2.266 1.887c-.713.461-1.594.891-2.643 1.29-1.048.398-2.244.597-3.586.597-1.595 0-3.02-.24-4.28-.723-1.258-.482-2.349-1.122-3.272-1.919a8.031 8.031 0 0 1-2.108-2.8 8.094 8.094 0 0 1-.723-3.365c0-2.516.807-4.613 2.422-6.291 1.616-1.678 3.85-2.768 6.702-3.271l9.754-1.762c0-1.258-.451-2.307-1.353-3.145-.902-.84-2.234-1.259-3.996-1.259-1.217 0-2.244.168-3.083.504-.84.335-1.553.692-2.14 1.07a7.65 7.65 0 0 0-1.699 1.572l-4.72-4.718c.84-1.09 1.867-2.076 3.084-2.957 1.007-.755 2.276-1.447 3.807-2.076 1.531-.63 3.325-.944 5.38-.944 1.972 0 3.765.315 5.38.944 1.615.63 3.01 1.5 4.185 2.61a11.45 11.45 0 0 1 2.706 3.901c.629 1.489.944 3.093.944 4.813v19.187h-8.495v-3.145zm-6.293-3.146c1.888 0 3.408-.597 4.562-1.793 1.154-1.195 1.73-2.904 1.73-5.127v-.943l-6.921 1.258c-2.308.377-3.461 1.53-3.461 3.46 0 .964.325 1.73.975 2.296.65.566 1.689.85 3.115.85zm30.912 6.291h-8.495v-44.037h8.495v44.037zm20.609-13.84a11.765 11.765 0 0 0 1.132 4.498 12.874 12.874 0 0 0 2.612 3.68 12.622 12.622 0 0 0 3.712 2.517c1.406.629 2.905.943 4.5.943 1.636 0 3.083-.272 4.342-.817 1.258-.546 2.307-1.154 3.146-1.825a11.851 11.851 0 0 0 2.58-2.642l1.888 1.824a15.302 15.302 0 0 1-3.02 3.146c-1.008.797-2.256 1.52-3.745 2.17-1.49.65-3.22.975-5.191.975-1.972 0-3.85-.409-5.632-1.226a15.56 15.56 0 0 1-4.72-3.335c-1.363-1.405-2.443-3.061-3.24-4.97-.797-1.908-1.196-3.973-1.196-6.196 0-2.181.399-4.236 1.196-6.165.797-1.93 1.866-3.597 3.209-5.002a15.409 15.409 0 0 1 4.625-3.334 12.657 12.657 0 0 1 5.443-1.227c1.888 0 3.67.378 5.349 1.133a13.244 13.244 0 0 1 4.405 3.208c1.258 1.384 2.254 3.04 2.989 4.97.734 1.93 1.1 4.068 1.1 6.417v1.258h-25.484zm11.641-14.155c-1.51 0-2.947.315-4.31.944a13.231 13.231 0 0 0-3.65 2.485 12.225 12.225 0 0 0-2.58 3.586 11.381 11.381 0 0 0-1.101 4.31h22.653c-.084-1.637-.42-3.146-1.007-4.53-.587-1.384-1.374-2.58-2.36-3.586a10.775 10.775 0 0 0-3.429-2.36c-1.3-.566-2.706-.849-4.216-.849zm36.576 0h-1.259a10.6 10.6 0 0 0-4.058.787 10.512 10.512 0 0 0-3.398 2.233c-.986.965-1.773 2.128-2.36 3.492-.588 1.363-.881 2.862-.881 4.498v16.985h-2.832v-30.196h2.832v5.032c.587-1.048 1.384-1.992 2.391-2.83.839-.714 1.93-1.364 3.272-1.95 1.343-.588 3.02-.882 5.034-.882h1.259v2.831zm23.676 9.122c0-1.3-.22-2.506-.661-3.617a9.23 9.23 0 0 0-1.793-2.894 8.134 8.134 0 0 0-2.675-1.919c-1.028-.461-2.15-.692-3.366-.692-1.385 0-2.622.231-3.713.692-1.09.462-2.014.965-2.769 1.51a14.573 14.573 0 0 0-2.328 2.202l-1.888-1.887a11.876 11.876 0 0 1 2.769-2.642c.923-.672 2.045-1.29 3.367-1.856 1.321-.567 2.842-.85 4.562-.85 1.636 0 3.146.304 4.53.913a10.875 10.875 0 0 1 3.587 2.516c1.007 1.07 1.794 2.338 2.36 3.806.566 1.468.85 3.04.85 4.718v18.873h-2.832v-5.033a10.832 10.832 0 0 1-2.706 2.831c-.923.713-2.066 1.363-3.43 1.95-1.363.588-2.989.881-4.876.881-1.51 0-2.884-.23-4.122-.692-1.238-.461-2.297-1.09-3.178-1.887a8.592 8.592 0 0 1-2.045-2.737 7.396 7.396 0 0 1-.724-3.176c0-2.391.808-4.394 2.423-6.008 1.615-1.615 3.85-2.653 6.702-3.114l11.956-1.888zm-11.012 16.671c1.552 0 3.01-.283 4.373-.849 1.363-.566 2.528-1.331 3.492-2.296.965-.965 1.73-2.118 2.297-3.46.567-1.342.85-2.81.85-4.404v-2.83l-11.327 1.887c-2.391.377-4.143 1.121-5.254 2.233-1.112 1.111-1.668 2.464-1.668 4.058 0 .712.168 1.404.504 2.076.335.67.818 1.279 1.447 1.824.63.545 1.395.975 2.297 1.29.902.314 1.898.471 2.989.471zm22.417.315c0-.63.21-1.153.63-1.573.419-.42.943-.629 1.572-.629.63 0 1.154.21 1.574.63.42.419.629.943.629 1.572 0 .629-.21 1.153-.63 1.573-.419.42-.943.629-1.573.629-.629 0-1.153-.21-1.573-.63-.42-.419-.629-.943-.629-1.572z"/></g></svg>