<svg xmlns="http://www.w3.org/2000/svg" width="1100" height="300"><g fill="none"><path fill="#0499EE" d="M156.776 209.542c.985 4.678 3.479 8.772 7.48 12.28 4.002 3.51 9.512 5.264 16.53 5.264 3.94 0 7.387-.585 10.342-1.754 2.956-1.17 5.48-2.432 7.573-3.786 2.34-1.6 4.37-3.447 6.095-5.54l12.928 16.62c-2.709 3.078-6.033 5.725-9.973 7.941-3.325 1.97-7.388 3.756-12.19 5.356s-10.343 2.4-16.622 2.4c-6.649 0-12.897-1.23-18.746-3.693-5.849-2.462-10.958-5.848-15.33-10.157-4.37-4.309-7.787-9.295-10.25-14.959-2.462-5.663-3.693-11.757-3.693-18.283 0-6.402 1.23-12.465 3.693-18.19 2.463-5.725 5.849-10.742 10.158-15.051 4.31-4.31 9.296-7.695 14.96-10.158 5.664-2.462 11.759-3.693 18.285-3.693 6.402 0 12.374 1.139 17.914 3.416 5.541 2.278 10.343 5.448 14.406 9.511 4.063 4.063 7.234 8.865 9.512 14.405 2.278 5.54 3.416 11.512 3.416 17.914 0 1.723-.061 3.2-.184 4.432a76.603 76.603 0 0 1-.37 3.14 64.975 64.975 0 0 1-.369 2.585h-65.565zm21.24-34.165c-5.541 0-10.128 1.6-13.76 4.801-3.632 3.201-6.125 7.141-7.48 11.82h41.555c-.985-4.679-3.232-8.619-6.74-11.82-3.51-3.2-8.035-4.801-13.575-4.801zm83.14-8.31c1.847-2.34 4.063-4.494 6.649-6.464 2.216-1.6 4.925-3.078 8.126-4.433 3.202-1.354 6.895-2.031 11.082-2.031 5.048 0 9.727.893 14.036 2.678a30.961 30.961 0 0 1 11.174 7.849c3.14 3.447 5.571 7.602 7.295 12.465 1.724 4.863 2.586 10.434 2.586 16.713v52.633H297.17v-49.862c0-5.54-1.632-10.004-4.895-13.39-3.262-3.385-7.48-5.078-12.65-5.078-5.542 0-10.005 1.785-13.39 5.355-3.387 3.57-5.08 8.865-5.08 15.883v47.092h-24.933v-90.491h24.933v11.08zm141.318 64.636a34.051 34.051 0 0 1-6.833 6.464c-2.217 1.723-5.018 3.232-8.404 4.524-3.386 1.293-7.233 1.94-11.543 1.94-5.048 0-10.004-1.201-14.867-3.602-4.864-2.4-9.204-5.632-13.021-9.695-3.817-4.063-6.895-8.834-9.234-14.313-2.34-5.479-3.51-11.357-3.51-17.636 0-6.28 1.17-12.158 3.51-17.637 2.339-5.479 5.417-10.25 9.234-14.312 3.817-4.063 8.157-7.295 13.02-9.696 4.864-2.4 9.82-3.601 14.868-3.601 4.31 0 8.157.677 11.543 2.031 3.386 1.355 6.187 2.832 8.404 4.433 2.585 1.97 4.863 4.124 6.833 6.463v-11.08h24.933v83.104c0 6.525-1.2 12.589-3.601 18.19-2.401 5.603-5.726 10.466-9.974 14.59-4.247 4.125-9.326 7.387-15.236 9.788-5.91 2.4-12.313 3.601-19.208 3.601-7.018 0-13.113-.985-18.284-2.955-5.172-1.97-9.481-4.186-12.929-6.648-4.063-2.832-7.51-6.094-10.342-9.788l15.698-14.774c1.724 2.34 3.817 4.37 6.28 6.094 2.093 1.478 4.679 2.832 7.757 4.063 3.078 1.231 6.71 1.847 10.896 1.847 7.388 0 13.237-2.155 17.546-6.464 4.31-4.309 6.464-10.157 6.464-17.544v-7.387zm-41.555-32.318c0 3.2.523 6.156 1.57 8.864 1.046 2.709 2.493 5.048 4.34 7.018a20.058 20.058 0 0 0 6.464 4.617c2.463 1.108 5.11 1.662 7.942 1.662 2.709 0 5.356-.554 7.941-1.662a20.897 20.897 0 0 0 6.834-4.71 23.818 23.818 0 0 0 4.71-7.017c1.17-2.647 1.754-5.571 1.754-8.772 0-3.078-.585-5.972-1.754-8.68-1.17-2.709-2.74-5.079-4.71-7.11a20.897 20.897 0 0 0-6.834-4.71c-2.585-1.107-5.232-1.661-7.941-1.661-2.832 0-5.48.554-7.942 1.662a20.058 20.058 0 0 0-6.464 4.616c-1.847 1.97-3.294 4.31-4.34 7.018-1.047 2.709-1.57 5.664-1.57 8.865zm110.844 47.092H446.83v-90.491h24.933v90.491zm1.847-116.346c0 4.186-1.293 7.541-3.879 10.065-2.585 2.524-6.217 3.786-10.896 3.786-4.187 0-7.542-1.262-10.066-3.786-2.524-2.524-3.786-5.879-3.786-10.065s1.262-7.54 3.786-10.065c2.524-2.524 5.88-3.786 10.066-3.786 4.679 0 8.31 1.262 10.896 3.786 2.586 2.524 3.879 5.879 3.879 10.065zm42.509 36.935c1.847-2.339 4.063-4.493 6.649-6.463 2.216-1.6 4.925-3.078 8.126-4.433 3.201-1.354 6.895-2.031 11.081-2.031 5.049 0 9.727.893 14.037 2.678a30.961 30.961 0 0 1 11.174 7.849c3.14 3.447 5.571 7.602 7.295 12.465 1.724 4.863 2.585 10.434 2.585 16.713v52.633h-24.933v-49.862c0-5.54-1.631-10.004-4.894-13.39-3.263-3.385-7.48-5.078-12.651-5.078-5.54 0-10.004 1.785-13.39 5.355-3.386 3.57-5.079 8.865-5.079 15.883v47.092h-24.933v-90.491h24.933v11.08zm99.763 42.476c.985 4.678 3.478 8.772 7.48 12.28 4.001 3.51 9.511 5.264 16.53 5.264 3.94 0 7.387-.585 10.342-1.754 2.955-1.17 5.48-2.432 7.572-3.786 2.34-1.6 4.371-3.447 6.095-5.54l12.928 16.62c-2.709 3.078-6.033 5.725-9.973 7.941-3.324 1.97-7.388 3.756-12.19 5.356-4.801 1.6-10.342 2.4-16.622 2.4-6.648 0-12.897-1.23-18.746-3.693-5.848-2.462-10.958-5.848-15.329-10.157-4.37-4.309-7.788-9.295-10.25-14.959-2.463-5.663-3.694-11.757-3.694-18.283 0-6.402 1.231-12.465 3.694-18.19 2.462-5.725 5.848-10.742 10.158-15.051 4.31-4.31 9.296-7.695 14.96-10.158 5.664-2.462 11.758-3.693 18.284-3.693 6.403 0 12.374 1.139 17.915 3.416 5.54 2.278 10.342 5.448 14.406 9.511 4.063 4.063 7.233 8.865 9.511 14.405 2.278 5.54 3.417 11.512 3.417 17.914 0 1.723-.062 3.2-.185 4.432a76.603 76.603 0 0 1-.37 3.14 64.975 64.975 0 0 1-.369 2.585h-65.564zm21.239-34.165c-5.54 0-10.127 1.6-13.76 4.801-3.632 3.201-6.125 7.141-7.48 11.82h41.556c-.985-4.679-3.232-8.619-6.741-11.82-3.51-3.2-8.034-4.801-13.575-4.801zm78.523 34.165c.985 4.678 3.479 8.772 7.48 12.28 4.002 3.51 9.512 5.264 16.53 5.264 3.94 0 7.388-.585 10.343-1.754 2.955-1.17 5.479-2.432 7.572-3.786 2.34-1.6 4.37-3.447 6.095-5.54l12.928 16.62c-2.709 3.078-6.033 5.725-9.973 7.941-3.325 1.97-7.388 3.756-12.19 5.356s-10.342 2.4-16.622 2.4c-6.649 0-12.897-1.23-18.746-3.693-5.848-2.462-10.958-5.848-15.329-10.157s-7.788-9.295-10.25-14.959c-2.463-5.663-3.694-11.757-3.694-18.283 0-6.402 1.231-12.465 3.694-18.19 2.462-5.725 5.848-10.742 10.158-15.051 4.31-4.31 9.296-7.695 14.96-10.158 5.663-2.462 11.758-3.693 18.284-3.693 6.402 0 12.374 1.139 17.915 3.416 5.54 2.278 10.342 5.448 14.405 9.511 4.064 4.063 7.234 8.865 9.512 14.405 2.278 5.54 3.417 11.512 3.417 17.914 0 1.723-.062 3.2-.185 4.432a76.6 76.6 0 0 1-.37 3.14 64.975 64.975 0 0 1-.369 2.585h-65.565zm21.24-34.165c-5.541 0-10.127 1.6-13.76 4.801-3.632 3.201-6.125 7.141-7.48 11.82H757.2c-.985-4.679-3.232-8.619-6.742-11.82-3.509-3.2-8.034-4.801-13.574-4.801zm112.69 4.617a64.411 64.411 0 0 0-2.03-.37 57.515 57.515 0 0 0-2.679-.37 31.152 31.152 0 0 0-3.601-.184c-6.526 0-11.697 2.032-15.514 6.095-3.817 4.062-5.726 10.034-5.726 17.913v43.4h-24.933v-90.492h24.933v11.08c1.847-2.216 4.064-4.186 6.65-5.91 2.216-1.477 4.924-2.862 8.126-4.155 3.2-1.292 6.895-1.939 11.08-1.939h3.695v24.932zm34.199 66.483H858.84v-90.491h24.933v90.491zm1.847-116.346c0 4.186-1.293 7.541-3.879 10.065-2.586 2.524-6.218 3.786-10.897 3.786-4.186 0-7.541-1.262-10.065-3.786-2.524-2.524-3.786-5.879-3.786-10.065s1.262-7.54 3.786-10.065c2.524-2.524 5.88-3.786 10.065-3.786 4.68 0 8.311 1.262 10.897 3.786 2.586 2.524 3.879 5.879 3.879 10.065zm42.509 36.935c1.846-2.339 4.063-4.493 6.648-6.463 2.217-1.6 4.925-3.078 8.127-4.433 3.201-1.354 6.895-2.031 11.081-2.031 5.048 0 9.727.893 14.037 2.678a30.961 30.961 0 0 1 11.173 7.849c3.14 3.447 5.572 7.602 7.295 12.465 1.724 4.863 2.586 10.434 2.586 16.713v52.633h-24.933v-49.862c0-5.54-1.631-10.004-4.894-13.39-3.263-3.385-7.48-5.078-12.651-5.078-5.541 0-10.004 1.785-13.39 5.355-3.386 3.57-5.08 8.865-5.08 15.883v47.092h-24.932v-90.491h24.933v11.08zm141.317 64.637a34.051 34.051 0 0 1-6.833 6.464c-2.216 1.723-5.017 3.232-8.403 4.524-3.386 1.293-7.234 1.94-11.544 1.94-5.048 0-10.003-1.201-14.867-3.602-4.864-2.4-9.204-5.632-13.02-9.695-3.818-4.063-6.896-8.834-9.235-14.313-2.34-5.479-3.51-11.357-3.51-17.636 0-6.28 1.17-12.158 3.51-17.637 2.34-5.479 5.417-10.25 9.234-14.312 3.817-4.063 8.157-7.295 13.021-9.696 4.864-2.4 9.82-3.601 14.867-3.601 4.31 0 8.158.677 11.544 2.031 3.386 1.355 6.187 2.832 8.403 4.433 2.586 1.97 4.863 4.124 6.833 6.463v-11.08h24.934v83.104c0 6.525-1.2 12.589-3.602 18.19-2.4 5.603-5.725 10.466-9.973 14.59-4.248 4.125-9.327 7.387-15.237 9.788-5.91 2.4-12.313 3.601-19.208 3.601-7.018 0-13.113-.985-18.284-2.955-5.171-1.97-9.48-4.186-12.928-6.648-4.063-2.832-7.51-6.094-10.343-9.788l15.699-14.774c1.724 2.34 3.817 4.37 6.28 6.094 2.092 1.478 4.678 2.832 7.756 4.063 3.078 1.231 6.71 1.847 10.897 1.847 7.387 0 13.236-2.155 17.545-6.464 4.31-4.309 6.464-10.157 6.464-17.544v-7.387zm-41.555-32.318c0 3.2.524 6.156 1.57 8.864 1.047 2.709 2.493 5.048 4.34 7.018a20.058 20.058 0 0 0 6.465 4.617c2.462 1.108 5.11 1.662 7.941 1.662 2.709 0 5.356-.554 7.942-1.662a20.897 20.897 0 0 0 6.833-4.71 23.818 23.818 0 0 0 4.71-7.017c1.17-2.647 1.754-5.571 1.754-8.772 0-3.078-.584-5.972-1.754-8.68-1.17-2.709-2.74-5.079-4.71-7.11a20.897 20.897 0 0 0-6.833-4.71c-2.586-1.107-5.233-1.661-7.942-1.661-2.832 0-5.479.554-7.941 1.662a20.058 20.058 0 0 0-6.465 4.616c-1.847 1.97-3.293 4.31-4.34 7.018-1.046 2.709-1.57 5.664-1.57 8.865z"/><path fill="#FFF" d="M101.72 82.536c3.859 0 7.409.657 10.651 1.97 3.243 1.314 6.034 3.099 8.373 5.356 2.34 2.257 4.166 4.925 5.479 8.003 1.313 3.078 1.97 6.381 1.97 9.91 0 2.545-.267 4.843-.8 6.895-.534 2.052-1.252 3.878-2.155 5.479-.903 1.6-1.929 2.996-3.078 4.186-1.15 1.19-2.34 2.195-3.57 3.016-2.792 2.052-5.952 3.53-9.482 4.432l20.932 36.936h-6.772l-20.316-35.704H75.25v35.704h-6.157V82.536h32.629zM75.25 88.692v38.167h26.472c3.037 0 5.807-.472 8.31-1.416 2.505-.944 4.66-2.257 6.465-3.94 1.806-1.682 3.18-3.693 4.125-6.033.944-2.339 1.416-4.904 1.416-7.694 0-2.791-.472-5.356-1.416-7.695-.944-2.34-2.32-4.35-4.125-6.033-1.806-1.683-3.96-2.996-6.464-3.94-2.504-.944-5.274-1.416-8.311-1.416H75.249zm67.134 52.94c.164 3.12.903 6.054 2.216 8.804 1.314 2.75 3.017 5.15 5.11 7.202 2.093 2.052 4.515 3.694 7.264 4.925 2.75 1.231 5.685 1.847 8.804 1.847 3.201 0 6.033-.534 8.496-1.6 2.462-1.068 4.514-2.258 6.156-3.571a23.192 23.192 0 0 0 5.048-5.171l3.694 3.57a29.944 29.944 0 0 1-5.91 6.156c-1.97 1.56-4.412 2.975-7.326 4.248-2.914 1.272-6.3 1.908-10.158 1.908-3.858 0-7.531-.8-11.02-2.4a30.444 30.444 0 0 1-9.234-6.526c-2.668-2.75-4.782-5.992-6.341-9.726-1.56-3.735-2.34-7.777-2.34-12.127 0-4.269.78-8.29 2.34-12.066 1.56-3.776 3.652-7.038 6.28-9.788a30.15 30.15 0 0 1 9.049-6.525c3.406-1.6 6.957-2.4 10.65-2.4 3.694 0 7.183.738 10.466 2.215 3.283 1.478 6.156 3.57 8.619 6.28 2.462 2.708 4.412 5.95 5.848 9.726 1.437 3.775 2.155 7.961 2.155 12.558v2.462h-49.866zm22.778-27.7c-2.955 0-5.766.615-8.434 1.846a25.889 25.889 0 0 0-7.141 4.863 23.926 23.926 0 0 0-5.048 7.018 22.277 22.277 0 0 0-2.155 8.434h44.325c-.164-3.201-.82-6.156-1.97-8.865-1.149-2.708-2.688-5.048-4.617-7.018a21.082 21.082 0 0 0-6.71-4.616c-2.545-1.109-5.295-1.663-8.25-1.663zm38.816-4.31h5.54v59.097h-5.54v-59.097zm-1.232-20.93c0-1.23.41-2.257 1.232-3.078.82-.82 1.846-1.23 3.078-1.23 1.231 0 2.257.41 3.078 1.23.82.821 1.231 1.847 1.231 3.078 0 1.232-.41 2.258-1.231 3.078-.821.821-1.847 1.231-3.078 1.231-1.232 0-2.258-.41-3.078-1.23-.821-.821-1.232-1.847-1.232-3.079zm28.965 31.395c1.15-2.134 2.668-4.063 4.556-5.786 1.642-1.478 3.755-2.832 6.341-4.063 2.586-1.231 5.725-1.847 9.42-1.847 3.365 0 6.504.616 9.418 1.847a22.826 22.826 0 0 1 7.634 5.232c2.175 2.258 3.879 4.925 5.11 8.003 1.231 3.078 1.847 6.464 1.847 10.157v35.089h-5.54V133.63c0-2.955-.473-5.643-1.417-8.064-.944-2.421-2.237-4.494-3.878-6.217-1.642-1.724-3.591-3.058-5.849-4.002-2.257-.944-4.699-1.416-7.326-1.416-2.79 0-5.417.554-7.88 1.663a21.019 21.019 0 0 0-6.464 4.493c-1.847 1.888-3.304 4.166-4.371 6.833-1.067 2.668-1.6 5.52-1.6 8.557v33.242h-5.541v-59.097h5.54v10.465zm75.138 48.632l-24.01-59.097h6.157l20.931 51.71 20.932-51.71h6.156l-24.01 59.097h-6.156zm38.815-27.086c.164 3.119.903 6.053 2.216 8.803 1.314 2.75 3.017 5.15 5.11 7.202 2.093 2.052 4.515 3.694 7.265 4.925 2.75 1.231 5.684 1.847 8.803 1.847 3.201 0 6.033-.534 8.496-1.6 2.462-1.068 4.514-2.258 6.156-3.571a23.192 23.192 0 0 0 5.048-5.171l3.694 3.57a29.944 29.944 0 0 1-5.91 6.156c-1.97 1.56-4.412 2.975-7.326 4.248-2.914 1.272-6.3 1.908-10.158 1.908-3.858 0-7.531-.8-11.02-2.4a30.444 30.444 0 0 1-9.234-6.526c-2.668-2.75-4.782-5.992-6.341-9.726-1.56-3.735-2.34-7.777-2.34-12.127 0-4.269.78-8.29 2.34-12.066 1.56-3.776 3.653-7.038 6.28-9.788a30.15 30.15 0 0 1 9.049-6.525c3.407-1.6 6.957-2.4 10.65-2.4 3.694 0 7.183.738 10.466 2.215 3.284 1.478 6.156 3.57 8.619 6.28 2.463 2.708 4.412 5.95 5.849 9.726 1.436 3.775 2.154 7.961 2.154 12.558v2.462h-49.866zm22.778-27.702c-2.955 0-5.766.616-8.434 1.847a25.889 25.889 0 0 0-7.141 4.863 23.925 23.925 0 0 0-5.048 7.018 22.277 22.277 0 0 0-2.155 8.434h44.326c-.165-3.201-.821-6.156-1.97-8.865-1.15-2.708-2.689-5.048-4.618-7.018a21.082 21.082 0 0 0-6.71-4.616c-2.545-1.109-5.295-1.663-8.25-1.663zm44.356 6.156c1.15-2.134 2.668-4.063 4.556-5.786 1.642-1.478 3.755-2.832 6.341-4.063 2.586-1.231 5.725-1.847 9.42-1.847 3.365 0 6.504.616 9.418 1.847a22.826 22.826 0 0 1 7.634 5.232c2.175 2.258 3.879 4.925 5.11 8.003 1.231 3.078 1.847 6.464 1.847 10.157v35.089h-5.54V133.63c0-2.955-.473-5.643-1.417-8.064-.944-2.421-2.237-4.494-3.878-6.217-1.642-1.724-3.591-3.058-5.849-4.002-2.257-.944-4.7-1.416-7.326-1.416-2.79 0-5.417.554-7.88 1.663a21.019 21.019 0 0 0-6.464 4.493c-1.847 1.888-3.304 4.166-4.371 6.833-1.067 2.668-1.6 5.52-1.6 8.557v33.242h-5.541v-59.097h5.54v10.465zm64.672-30.163h4.925v19.698h13.544v5.54h-13.544v38.783c0 3.447.841 6.053 2.524 7.818 1.683 1.764 3.92 2.647 6.71 2.647 1.068 0 2.094-.082 3.079-.247.985-.164 1.847-.369 2.585-.615a22.393 22.393 0 0 0 2.34-.985v5.54c-.657.328-1.437.657-2.34.985-.738.246-1.6.452-2.585.616-.985.164-2.011.246-3.078.246-4.68 0-8.311-1.354-10.897-4.063-2.586-2.709-3.879-6.69-3.879-11.942v-38.782h-11.697v-5.54h8.004c1.23 0 2.257-.432 3.078-1.293.82-.862 1.231-2.073 1.231-3.632V89.924zm32.659 19.698h5.54v59.097h-5.54v-59.097zm-1.231-20.93c0-1.23.41-2.257 1.231-3.078.82-.82 1.847-1.23 3.078-1.23 1.231 0 2.257.41 3.078 1.23.821.821 1.232 1.847 1.232 3.078 0 1.232-.41 2.258-1.232 3.078-.82.821-1.847 1.231-3.078 1.231-1.231 0-2.257-.41-3.078-1.23-.82-.821-1.231-1.847-1.231-3.079zm28.965 31.395c1.149-2.134 2.668-4.063 4.555-5.786 1.642-1.478 3.756-2.832 6.341-4.063 2.586-1.231 5.726-1.847 9.42-1.847 3.365 0 6.505.616 9.419 1.847a22.826 22.826 0 0 1 7.634 5.232c2.175 2.258 3.878 4.925 5.11 8.003 1.23 3.078 1.846 6.464 1.846 10.157v35.089h-5.54V133.63c0-2.955-.472-5.643-1.416-8.064-.944-2.421-2.237-4.494-3.879-6.217-1.642-1.724-3.591-3.058-5.848-4.002-2.258-.944-4.7-1.416-7.326-1.416-2.791 0-5.418.554-7.88 1.663a21.019 21.019 0 0 0-6.465 4.493c-1.846 1.888-3.303 4.166-4.37 6.833-1.068 2.668-1.601 5.52-1.601 8.557v33.242h-5.54v-59.097h5.54v10.465zm60.362 17.852c0 3.366.595 6.526 1.785 9.48 1.19 2.955 2.791 5.5 4.802 7.634a22.992 22.992 0 0 0 6.895 5.048c2.586 1.23 5.274 1.846 8.065 1.846 2.791 0 5.5-.615 8.127-1.846 2.626-1.232 4.986-2.914 7.08-5.048 2.092-2.134 3.775-4.679 5.047-7.634 1.273-2.954 1.909-6.114 1.909-9.48 0-3.365-.636-6.504-1.909-9.418-1.272-2.914-2.955-5.458-5.048-7.633s-4.453-3.879-7.08-5.11c-2.626-1.231-5.335-1.847-8.126-1.847-2.79 0-5.479.616-8.065 1.847-2.585 1.231-4.884 2.935-6.895 5.11-2.01 2.175-3.611 4.72-4.802 7.633-1.19 2.914-1.785 6.053-1.785 9.418zm43.71 17.237c-1.395 2.298-3.16 4.35-5.294 6.156-1.806 1.56-4.105 2.975-6.896 4.247-2.79 1.272-6.115 1.909-9.973 1.909-3.53 0-6.936-.76-10.22-2.278a27.822 27.822 0 0 1-8.68-6.28c-2.503-2.667-4.494-5.786-5.971-9.356-1.478-3.57-2.217-7.449-2.217-11.635s.74-8.064 2.217-11.634c1.477-3.57 3.468-6.69 5.971-9.357a27.822 27.822 0 0 1 8.68-6.28c3.284-1.518 6.69-2.277 10.22-2.277 3.858 0 7.183.636 9.973 1.908 2.791 1.273 5.09 2.689 6.896 4.248 2.134 1.806 3.899 3.858 5.294 6.156v-11.08h5.54v55.402c0 4.186-.759 8.064-2.277 11.635-1.519 3.57-3.57 6.69-6.157 9.357a28.642 28.642 0 0 1-8.988 6.279c-3.406 1.518-7.038 2.277-10.896 2.277-4.023 0-7.511-.636-10.466-1.908-2.955-1.272-5.377-2.688-7.265-4.247a28.711 28.711 0 0 1-5.663-6.156l3.693-3.694a22.11 22.11 0 0 0 5.049 5.294c1.641 1.313 3.673 2.504 6.094 3.57 2.422 1.068 5.274 1.601 8.558 1.601a21.43 21.43 0 0 0 8.742-1.847c2.79-1.23 5.212-2.913 7.264-5.047 2.052-2.134 3.694-4.679 4.925-7.634 1.231-2.955 1.847-6.115 1.847-9.48v-9.85zM49.882 8.998l-4.77 11.542h9.542L49.882 8.998zm-5.386 13.08l-2.617 6.31h-1.693l8.927-21.545h1.539l8.927 21.546h-1.693l-2.617-6.31H44.496zm19.016-1.076c0 .882.16 1.708.477 2.477.318.77.744 1.437 1.278 2.001a6.218 6.218 0 0 0 1.816 1.339 4.81 4.81 0 0 0 2.124.492c.698 0 1.375-.164 2.031-.492a6.16 6.16 0 0 0 1.77-1.339 6.64 6.64 0 0 0 1.262-2c.318-.77.478-1.596.478-2.478 0-.883-.16-1.709-.478-2.478a6.64 6.64 0 0 0-1.262-2 6.16 6.16 0 0 0-1.77-1.34 4.492 4.492 0 0 0-2.031-.492 4.81 4.81 0 0 0-2.124.492 6.218 6.218 0 0 0-1.816 1.34 6.484 6.484 0 0 0-1.278 2 6.421 6.421 0 0 0-.477 2.478zm0 13.85h-1.385V13.615h1.385v2.924a7.48 7.48 0 0 1 1.416-1.6c.472-.411 1.057-.786 1.755-1.124.697-.339 1.539-.508 2.524-.508.882 0 1.739.2 2.57.6.831.4 1.57.944 2.216 1.631a7.975 7.975 0 0 1 1.555 2.447c.39.944.585 1.95.585 3.017a7.788 7.788 0 0 1-.585 3.031 8.023 8.023 0 0 1-1.555 2.432 7.47 7.47 0 0 1-2.216 1.631c-.831.4-1.688.6-2.57.6-.985 0-1.827-.164-2.524-.492-.698-.328-1.283-.698-1.755-1.108a7.171 7.171 0 0 1-1.416-1.631v9.387zm17.478-13.85c0 .882.159 1.708.477 2.477.318.77.744 1.437 1.277 2.001a6.218 6.218 0 0 0 1.816 1.339 4.81 4.81 0 0 0 2.124.492c.698 0 1.375-.164 2.032-.492a6.16 6.16 0 0 0 1.77-1.339 6.64 6.64 0 0 0 1.262-2c.318-.77.477-1.596.477-2.478 0-.883-.16-1.709-.477-2.478a6.64 6.64 0 0 0-1.262-2 6.16 6.16 0 0 0-1.77-1.34 4.492 4.492 0 0 0-2.032-.492 4.81 4.81 0 0 0-2.124.492 6.218 6.218 0 0 0-1.816 1.34 6.484 6.484 0 0 0-1.277 2 6.421 6.421 0 0 0-.477 2.478zm0 13.85h-1.385V13.615h1.385v2.924a7.48 7.48 0 0 1 1.416-1.6c.472-.411 1.056-.786 1.754-1.124.698-.339 1.54-.508 2.524-.508.883 0 1.74.2 2.57.6.832.4 1.57.944 2.217 1.631a7.975 7.975 0 0 1 1.554 2.447c.39.944.585 1.95.585 3.017a7.788 7.788 0 0 1-.585 3.031 8.023 8.023 0 0 1-1.554 2.432 7.47 7.47 0 0 1-2.216 1.631c-.832.4-1.688.6-2.57.6-.986 0-1.827-.164-2.525-.492-.698-.328-1.282-.698-1.754-1.108a7.171 7.171 0 0 1-1.416-1.631v9.387zm17.477-6.463h-1.385V6.843h1.385V28.39zm8.551 0l-6.002-14.774h1.539l5.233 12.927 5.232-12.927h1.54l-7.08 17.544c-.534 1.313-1.114 2.257-1.74 2.832-.625.574-1.482.861-2.57.861-.39 0-.718-.05-.985-.154a2.315 2.315 0 0 1-.4-.153v-1.386c.123.062.257.113.4.154.267.103.595.154.985.154.698 0 1.257-.19 1.678-.57.42-.379.785-.958 1.093-1.738l1.077-2.77zm10.09-14.774h1.385v14.774h-1.385V13.615zm-.308-5.233c0-.308.103-.564.308-.77.205-.205.462-.307.77-.307.307 0 .564.102.769.308.205.205.308.461.308.77 0 .307-.103.563-.308.769a1.044 1.044 0 0 1-.77.307c-.307 0-.564-.102-.77-.307a1.044 1.044 0 0 1-.307-.77zm7.781 7.849a5.455 5.455 0 0 1 1.14-1.447c.41-.37.938-.708 1.585-1.016.646-.307 1.43-.461 2.354-.461.842 0 1.627.154 2.355.461a5.707 5.707 0 0 1 1.909 1.309c.543.564.97 1.23 1.277 2 .308.77.462 1.616.462 2.54v8.772h-1.385v-8.772c0-.74-.118-1.411-.354-2.016a4.698 4.698 0 0 0-.97-1.555 4.268 4.268 0 0 0-1.462-1 4.7 4.7 0 0 0-1.832-.354c-.697 0-1.354.138-1.97.415a5.255 5.255 0 0 0-1.616 1.124 5.139 5.139 0 0 0-1.092 1.708c-.267.667-.4 1.38-.4 2.14v8.31h-1.386V13.615h1.385v2.616zm15.631 4.463c0 .841.149 1.631.446 2.37a6.038 6.038 0 0 0 1.2 1.908 5.748 5.748 0 0 0 1.725 1.262 4.637 4.637 0 0 0 2.016.462c.697 0 1.375-.154 2.031-.462a6.078 6.078 0 0 0 1.77-1.262 6.187 6.187 0 0 0 1.262-1.908 5.928 5.928 0 0 0 .477-2.37 5.82 5.82 0 0 0-.477-2.355 6.44 6.44 0 0 0-1.262-1.908 5.945 5.945 0 0 0-1.77-1.277 4.736 4.736 0 0 0-2.031-.462c-.698 0-1.37.154-2.016.462a5.628 5.628 0 0 0-1.724 1.277 6.278 6.278 0 0 0-1.2 1.908 6.166 6.166 0 0 0-.447 2.355zm10.927 4.309a6.275 6.275 0 0 1-1.323 1.539c-.452.39-1.026.744-1.724 1.062-.698.318-1.529.477-2.493.477a6.02 6.02 0 0 1-2.555-.57 6.955 6.955 0 0 1-2.17-1.57 7.664 7.664 0 0 1-1.493-2.339c-.37-.892-.554-1.862-.554-2.908 0-1.047.184-2.016.554-2.909a7.664 7.664 0 0 1 1.493-2.339 6.955 6.955 0 0 1 2.17-1.57 6.02 6.02 0 0 1 2.555-.57c.964 0 1.795.16 2.493.478.698.318 1.272.672 1.724 1.062.533.451.975.964 1.323 1.539v-2.77h1.386v13.85c0 1.047-.19 2.016-.57 2.909a7.598 7.598 0 0 1-1.539 2.34 7.16 7.16 0 0 1-2.247 1.569c-.852.38-1.76.57-2.724.57-1.006 0-1.878-.16-2.617-.478-.738-.318-1.344-.672-1.816-1.062a7.178 7.178 0 0 1-1.416-1.539l.924-.923c.349.513.77.954 1.262 1.324.41.328.918.625 1.524.892.605.267 1.318.4 2.139.4.76 0 1.488-.154 2.185-.461a5.661 5.661 0 0 0 1.816-1.262 6.111 6.111 0 0 0 1.232-1.909 6.1 6.1 0 0 0 .461-2.37v-2.462zM13.03 46.705a11.065 11.065 0 0 1 1.994-1.939c.665-.48 1.477-.923 2.438-1.33.96-.406 2.068-.609 3.324-.609 1.515 0 2.918.268 4.211.804a9.288 9.288 0 0 1 3.352 2.354c.942 1.034 1.672 2.28 2.189 3.74.517 1.459.775 3.13.775 5.014v15.79h-7.48v-14.96c0-1.661-.489-3-1.468-4.016S20.12 50.03 18.57 50.03c-1.662 0-3.001.535-4.017 1.606-1.016 1.071-1.524 2.66-1.524 4.765v14.128h-7.48V31.747h7.48v14.958zm43.01 21.054a8.843 8.843 0 0 1-1.994 1.662c-.665.406-1.478.784-2.438 1.135-.96.351-2.069.527-3.325.527-1.514 0-2.918-.268-4.21-.804a9.617 9.617 0 0 1-3.353-2.299c-.942-.997-1.671-2.197-2.188-3.601-.518-1.404-.776-2.992-.776-4.765V43.381h7.48v15.513c0 1.551.49 2.816 1.468 3.795.979.979 2.244 1.468 3.795 1.468 1.663 0 3.002-.535 4.017-1.606 1.016-1.071 1.524-2.66 1.524-4.765V43.381h7.48V70.53h-7.48v-2.77zm47.998-12.19c0-1.809-.425-3.185-1.275-4.127-.85-.941-1.902-1.412-3.158-1.412-1.403 0-2.585.535-3.546 1.606-.96 1.071-1.44 2.66-1.44 4.765v14.128h-7.48v-14.96c0-1.809-.425-3.185-1.275-4.127-.85-.941-1.902-1.412-3.158-1.412-1.404 0-2.586.535-3.546 1.606-.96 1.071-1.44 2.66-1.44 4.765v14.128h-7.48V43.38h7.48v3.324a11.292 11.292 0 0 1 1.828-1.939c.628-.48 1.385-.923 2.272-1.33.886-.406 1.92-.609 3.102-.609 1.441 0 2.65.25 3.63.748.978.499 1.782 1.044 2.41 1.635a8.273 8.273 0 0 1 1.717 2.326 9.048 9.048 0 0 1 2.272-2.326c.739-.591 1.68-1.136 2.826-1.635 1.145-.498 2.493-.748 4.044-.748 2.919 0 5.264.979 7.037 2.937 1.773 1.957 2.66 4.949 2.66 8.975v15.79h-7.48v-14.96zm28.882 12.19a10.837 10.837 0 0 1-1.995 1.662c-.628.406-1.403.784-2.327 1.135-.923.351-1.976.527-3.158.527-1.404 0-2.66-.213-3.768-.637-1.108-.425-2.068-.988-2.88-1.69a7.073 7.073 0 0 1-1.857-2.466 7.13 7.13 0 0 1-.637-2.964c0-2.216.711-4.063 2.133-5.54 1.422-1.477 3.39-2.438 5.901-2.88l8.588-1.552c0-1.108-.397-2.032-1.191-2.77-.794-.74-1.967-1.108-3.519-1.108-1.07 0-1.976.147-2.715.443-.738.295-1.366.61-1.883.942a6.736 6.736 0 0 0-1.496 1.385l-4.156-4.155a13.042 13.042 0 0 1 2.715-2.604c.887-.665 2.004-1.275 3.352-1.829 1.348-.554 2.928-.83 4.737-.83 1.737 0 3.316.276 4.738.83 1.422.554 2.65 1.32 3.684 2.3a10.084 10.084 0 0 1 2.383 3.434c.554 1.312.83 2.724.83 4.239v16.898h-7.479v-2.77zm-5.54-2.77c1.662 0 3-.527 4.016-1.58 1.016-1.052 1.524-2.557 1.524-4.515v-.831l-6.095 1.108c-2.031.333-3.047 1.348-3.047 3.047 0 .85.286 1.524.859 2.022.572.5 1.486.748 2.742.748zm26.942-18.284a11.065 11.065 0 0 1 1.995-1.939c.665-.48 1.477-.923 2.438-1.33.96-.406 2.068-.609 3.324-.609 1.515 0 2.918.268 4.211.804a9.288 9.288 0 0 1 3.352 2.354c.942 1.034 1.672 2.28 2.189 3.74.517 1.459.776 3.13.776 5.014v15.79h-7.48v-14.96c0-1.661-.49-3-1.469-4.016-.978-1.016-2.244-1.523-3.795-1.523-1.662 0-3.001.535-4.017 1.606-1.016 1.071-1.524 2.66-1.524 4.765v14.128h-7.48V43.38h7.48v3.324zm43.082 23.824h-7.48V43.38h7.48V70.53zm.554-34.904c0 1.256-.388 2.262-1.163 3.02-.776.756-1.866 1.135-3.27 1.135-1.255 0-2.262-.379-3.02-1.136-.756-.757-1.135-1.763-1.135-3.02 0-1.255.379-2.261 1.136-3.019.757-.757 1.764-1.135 3.02-1.135 1.403 0 2.493.378 3.269 1.135.775.758 1.163 1.764 1.163 3.02zm13.645 11.08a11.065 11.065 0 0 1 1.995-1.939c.665-.48 1.478-.923 2.438-1.33.96-.406 2.069-.609 3.324-.609 1.515 0 2.919.268 4.211.804a9.288 9.288 0 0 1 3.352 2.354c.942 1.034 1.672 2.28 2.189 3.74.517 1.459.776 3.13.776 5.014v15.79h-7.48v-14.96c0-1.661-.49-3-1.468-4.016-.98-1.016-2.244-1.523-3.796-1.523-1.662 0-3.001.535-4.017 1.606-1.016 1.071-1.524 2.66-1.524 4.765v14.128h-7.48V43.38h7.48v3.324zm39.687 4.71a6.647 6.647 0 0 0-1.164-1.108 6.835 6.835 0 0 0-1.412-.776c-.536-.222-1.155-.332-1.857-.332-1.108 0-1.939.23-2.493.692-.554.462-.83.97-.83 1.524 0 .628.304 1.135.913 1.523.61.388 1.376.739 2.3 1.053.923.314 1.93.646 3.02.997 1.089.351 2.096.831 3.019 1.44a7.773 7.773 0 0 1 2.3 2.355c.609.96.914 2.198.914 3.712 0 1.182-.24 2.29-.72 3.324a7.97 7.97 0 0 1-2.078 2.715c-.905.776-2.032 1.394-3.38 1.856-1.348.462-2.89.693-4.627.693-1.957 0-3.638-.259-5.042-.776-1.403-.517-2.548-1.09-3.435-1.717-1.071-.702-1.94-1.533-2.604-2.494l4.155-4.155c.444.591.96 1.108 1.552 1.552a7.91 7.91 0 0 0 1.828 1.052c.702.296 1.515.443 2.438.443 1.256 0 2.17-.24 2.743-.72.572-.48.859-1.071.859-1.773s-.305-1.246-.915-1.634c-.61-.388-1.376-.748-2.299-1.08a94.186 94.186 0 0 0-3.02-1.025 12.92 12.92 0 0 1-3.02-1.413 7.703 7.703 0 0 1-2.299-2.272c-.61-.923-.914-2.142-.914-3.656 0-1.035.259-2.069.776-3.103.517-1.034 1.246-1.957 2.188-2.77.942-.813 2.06-1.468 3.352-1.967 1.293-.498 2.697-.748 4.211-.748 1.589 0 2.974.222 4.156.665 1.182.443 2.16.923 2.936 1.44.924.628 1.7 1.312 2.328 2.05l-3.879 4.433zm17.247 19.114h-7.48V43.38h7.48V70.53zm.554-34.904c0 1.256-.388 2.262-1.164 3.02-.775.756-1.865 1.135-3.269 1.135-1.256 0-2.262-.379-3.02-1.136-.757-.757-1.135-1.763-1.135-3.02 0-1.255.378-2.261 1.136-3.019.757-.757 1.763-1.135 3.02-1.135 1.403 0 2.493.378 3.268 1.135.776.758 1.164 1.764 1.164 3.02zm24.727 30.471a10.215 10.215 0 0 1-2.05 1.94c-.665.517-1.506.97-2.521 1.357-1.016.388-2.17.582-3.463.582-1.515 0-3.002-.36-4.46-1.08a13.568 13.568 0 0 1-3.907-2.91c-1.145-1.218-2.068-2.65-2.77-4.293-.702-1.644-1.053-3.407-1.053-5.291 0-1.884.351-3.647 1.053-5.291.702-1.644 1.625-3.075 2.77-4.294a13.568 13.568 0 0 1 3.906-2.908c1.46-.72 2.946-1.08 4.46-1.08 1.293 0 2.448.202 3.464.609 1.015.406 1.856.85 2.52 1.33a12.833 12.833 0 0 1 2.05 1.938v-3.324h7.48v24.932c0 1.957-.36 3.776-1.08 5.457a13.374 13.374 0 0 1-2.992 4.377c-1.274 1.237-2.798 2.216-4.57 2.936-1.774.72-3.695 1.08-5.763 1.08-2.106 0-3.934-.295-5.485-.886-1.552-.591-2.845-1.256-3.879-1.995a13.852 13.852 0 0 1-3.103-2.936l4.71-4.432a8.06 8.06 0 0 0 1.884 1.828c.628.443 1.403.85 2.327 1.219.923.37 2.013.554 3.269.554 2.216 0 3.97-.646 5.263-1.94 1.293-1.292 1.94-3.046 1.94-5.262v-2.217zm-12.467-9.695c0 .96.157 1.847.471 2.66a6.426 6.426 0 0 0 1.302 2.105 6.017 6.017 0 0 0 1.94 1.385 5.738 5.738 0 0 0 2.382.498c.813 0 1.607-.166 2.382-.498a6.27 6.27 0 0 0 2.05-1.413 7.146 7.146 0 0 0 1.413-2.105c.351-.795.527-1.672.527-2.632 0-.923-.176-1.791-.527-2.604a7.043 7.043 0 0 0-1.413-2.133 6.27 6.27 0 0 0-2.05-1.413 5.994 5.994 0 0 0-2.382-.498c-.85 0-1.644.166-2.383.498a6.017 6.017 0 0 0-1.939 1.385 6.426 6.426 0 0 0-1.302 2.106c-.314.812-.47 1.699-.47 2.659zm34.146-9.696a11.065 11.065 0 0 1 1.995-1.939c.665-.48 1.477-.923 2.438-1.33.96-.406 2.068-.609 3.324-.609 1.514 0 2.918.268 4.21.804a9.288 9.288 0 0 1 3.353 2.354c.942 1.034 1.671 2.28 2.189 3.74.517 1.459.775 3.13.775 5.014v15.79h-7.48v-14.96c0-1.661-.49-3-1.468-4.016-.979-1.016-2.244-1.523-3.795-1.523-1.663 0-3.002.535-4.017 1.606-1.016 1.071-1.524 2.66-1.524 4.765v14.128h-7.48V31.747h7.48v14.958zm28.051-11.357h6.649v8.587h5.54v6.649h-5.54v10.803c0 .85.314 1.57.942 2.16.628.592 1.422.887 2.382.887.776 0 1.441-.092 1.995-.277.296-.074.554-.166.776-.277v6.372c-.444.147-.924.295-1.44.443-.444.11-.97.203-1.58.277-.61.074-1.265.11-1.967.11-2.77 0-4.894-.766-6.372-2.299-1.477-1.532-2.216-3.905-2.216-7.119v-11.08h-4.71v-6.649h2.494c.85 0 1.57-.323 2.16-.97.592-.646.887-1.523.887-2.63v-4.987zm31.723-.277h2.217v8.864h6.094v2.493h-6.094V63.88c0 1.552.378 2.724 1.136 3.518.757.795 1.763 1.192 3.02 1.192a8.417 8.417 0 0 0 2.548-.388c.406-.148.757-.296 1.053-.443v2.493c-.296.147-.647.295-1.053.443a8.417 8.417 0 0 1-2.549.388c-2.105 0-3.74-.61-4.903-1.829-1.164-1.218-1.746-3.01-1.746-5.374V46.428h-5.263v-2.493h3.601c.554 0 1.016-.194 1.385-.581.37-.388.554-.933.554-1.635v-6.648zm13.092 22.161c0-1.92.35-3.73 1.052-5.43.702-1.699 1.663-3.167 2.882-4.404a13.842 13.842 0 0 1 4.238-2.936 12.387 12.387 0 0 1 5.125-1.08c1.81 0 3.519.36 5.126 1.08 1.606.72 3.02 1.699 4.238 2.936 1.22 1.237 2.18 2.705 2.881 4.404.702 1.7 1.053 3.51 1.053 5.43 0 1.958-.35 3.777-1.053 5.457-.702 1.68-1.662 3.14-2.88 4.377a13.842 13.842 0 0 1-4.24 2.936 12.387 12.387 0 0 1-5.125 1.08c-1.81 0-3.518-.36-5.125-1.08a13.842 13.842 0 0 1-4.238-2.936c-1.22-1.237-2.18-2.696-2.882-4.377-.701-1.68-1.052-3.5-1.052-5.457zm24.102 0c0-1.588-.287-3.075-.86-4.46a11.169 11.169 0 0 0-2.354-3.601 11.337 11.337 0 0 0-3.463-2.41 9.935 9.935 0 0 0-4.128-.887c-1.44 0-2.816.296-4.127.887a11.337 11.337 0 0 0-3.463 2.41 11.169 11.169 0 0 0-2.355 3.601c-.573 1.385-.859 2.872-.859 4.46s.286 3.075.859 4.46a11.169 11.169 0 0 0 2.355 3.601 11.337 11.337 0 0 0 3.463 2.41 9.935 9.935 0 0 0 4.127.887c1.441 0 2.817-.296 4.128-.887a11.337 11.337 0 0 0 3.463-2.41 11.169 11.169 0 0 0 2.355-3.601c.572-1.385.859-2.872.859-4.46zm16.21-.277c0-1.884.387-3.675 1.163-5.374a14.74 14.74 0 0 1 3.158-4.488c1.33-1.292 2.89-2.327 4.682-3.102a14.141 14.141 0 0 1 5.679-1.164c1.884 0 3.518.286 4.903.859 1.386.572 2.54 1.21 3.463 1.911a12.846 12.846 0 0 1 2.715 2.77l-4.71 4.71a8.128 8.128 0 0 0-1.606-1.773c-.517-.443-1.182-.859-1.995-1.247-.812-.388-1.736-.581-2.77-.581-.96 0-1.875.193-2.743.581a7.382 7.382 0 0 0-2.3 1.607 7.772 7.772 0 0 0-1.578 2.382 7.305 7.305 0 0 0-.582 2.909c0 1.034.194 2.004.582 2.909a7.772 7.772 0 0 0 1.579 2.382 7.382 7.382 0 0 0 2.3 1.607 6.649 6.649 0 0 0 2.742.581c1.034 0 1.958-.184 2.77-.554.813-.369 1.515-.775 2.106-1.219a9.258 9.258 0 0 0 1.773-1.828l4.432 4.71a12.846 12.846 0 0 1-2.715 2.77c-.923.701-2.077 1.338-3.463 1.911-1.385.572-3.02.859-4.903.859-1.995 0-3.888-.388-5.68-1.164-1.79-.775-3.351-1.81-4.681-3.102a14.74 14.74 0 0 1-3.158-4.488 12.791 12.791 0 0 1-1.164-5.374zm36.084 0c0 1.034.176 1.994.527 2.88.35.887.83 1.645 1.44 2.272a6.953 6.953 0 0 0 2.133 1.496c.813.37 1.663.554 2.549.554.887 0 1.736-.184 2.549-.554a6.953 6.953 0 0 0 2.133-1.496 6.822 6.822 0 0 0 1.44-2.271c.351-.887.527-1.847.527-2.881a7.757 7.757 0 0 0-.527-2.881 6.822 6.822 0 0 0-1.44-2.272 6.953 6.953 0 0 0-2.133-1.495 6.092 6.092 0 0 0-2.549-.554c-.886 0-1.736.184-2.549.554a6.953 6.953 0 0 0-2.133 1.495 6.822 6.822 0 0 0-1.44 2.272 7.757 7.757 0 0 0-.527 2.881zm21.055 0c0 1.884-.388 3.675-1.164 5.374a14.982 14.982 0 0 1-3.13 4.488 15.287 15.287 0 0 1-4.599 3.102 13.489 13.489 0 0 1-5.513 1.164c-1.958 0-3.805-.388-5.54-1.164a15.39 15.39 0 0 1-4.572-3.102 14.982 14.982 0 0 1-3.13-4.488A12.791 12.791 0 0 1 457 56.955c0-1.884.388-3.675 1.164-5.374a14.982 14.982 0 0 1 3.13-4.488 15.39 15.39 0 0 1 4.571-3.102 13.429 13.429 0 0 1 5.541-1.164c1.92 0 3.758.388 5.513 1.164a15.287 15.287 0 0 1 4.599 3.102 14.982 14.982 0 0 1 3.13 4.488 12.791 12.791 0 0 1 1.164 5.374zm16.138-14.128c1.293 0 2.448.203 3.463.61 1.016.406 1.857.85 2.521 1.33a12.833 12.833 0 0 1 2.05 1.938V31.747h7.48v38.782h-7.48v-3.324a10.215 10.215 0 0 1-2.05 1.939c-.664.517-1.505.97-2.52 1.357-1.016.388-2.17.582-3.464.582-1.736 0-3.389-.36-4.958-1.08a13.472 13.472 0 0 1-4.156-2.965c-1.2-1.256-2.152-2.751-2.853-4.487-.702-1.736-1.053-3.602-1.053-5.596 0-1.995.35-3.86 1.053-5.596.701-1.736 1.653-3.232 2.853-4.487a13.472 13.472 0 0 1 4.156-2.964c1.57-.72 3.222-1.08 4.958-1.08zm1.386 21.607c.886 0 1.736-.184 2.548-.554a6.733 6.733 0 0 0 2.134-1.523c.609-.647 1.09-1.431 1.44-2.355.351-.923.526-1.939.526-3.047s-.175-2.124-.526-3.047c-.35-.924-.831-1.708-1.44-2.355a6.733 6.733 0 0 0-2.134-1.523 6.092 6.092 0 0 0-2.548-.554c-.887 0-1.736.184-2.55.554a6.733 6.733 0 0 0-2.132 1.523c-.61.647-1.09 1.431-1.44 2.355-.352.923-.527 1.939-.527 3.047s.175 2.124.526 3.047c.351.924.831 1.708 1.44 2.355a6.733 6.733 0 0 0 2.134 1.523c.813.37 1.662.554 2.549.554zm26.943-4.986c.295 1.404 1.043 2.632 2.244 3.684 1.2 1.053 2.853 1.58 4.959 1.58 1.182 0 2.216-.176 3.102-.527.887-.35 1.644-.73 2.272-1.136a8.757 8.757 0 0 0 1.828-1.662l3.879 4.986c-.813.924-1.81 1.718-2.992 2.383-.997.59-2.216 1.126-3.657 1.606-1.44.48-3.103.72-4.987.72-1.994 0-3.869-.369-5.623-1.107a14.487 14.487 0 0 1-4.6-3.048 14.185 14.185 0 0 1-3.074-4.487c-.739-1.7-1.108-3.527-1.108-5.485 0-1.92.37-3.74 1.108-5.457a14.324 14.324 0 0 1 3.047-4.516 14.415 14.415 0 0 1 4.488-3.047c1.7-.738 3.528-1.108 5.485-1.108 1.921 0 3.713.342 5.375 1.025 1.662.683 3.103 1.635 4.322 2.853 1.219 1.22 2.17 2.66 2.853 4.322.683 1.662 1.025 3.453 1.025 5.374 0 .517-.018.96-.055 1.33-.037.369-.074.683-.111.941-.037.296-.074.554-.11.776h-19.67zm6.371-10.25c-1.662 0-3.038.48-4.127 1.441a7.36 7.36 0 0 0-2.244 3.546h12.466a6.495 6.495 0 0 0-2.022-3.546c-1.053-.96-2.41-1.44-4.073-1.44zm17.524 17.73c0-1.109.425-2.078 1.275-2.91.85-.83 1.902-1.246 3.158-1.246s2.308.416 3.158 1.247c.85.83 1.274 1.8 1.274 2.908 0 1.109-.424 2.078-1.274 2.91-.85.83-1.902 1.246-3.158 1.246s-2.309-.416-3.158-1.247c-.85-.83-1.275-1.8-1.275-2.909zm-22.437 191.248h-6.602v23.932h-2.476v-23.932h-4.402V255.7h4.402v-5.502c0-2.348.577-4.126 1.733-5.337 1.155-1.21 2.779-1.815 4.87-1.815.476 0 .935.045 1.375.137.44.092.825.193 1.155.303.404.146.752.275 1.046.385v2.476c-.294-.11-.642-.239-1.046-.385-.33-.11-.715-.211-1.155-.303a6.73 6.73 0 0 0-1.376-.138c-1.247 0-2.246.395-2.998 1.183-.752.789-1.128 1.953-1.128 3.494v5.502h6.602v2.476zm4.402 10.728c0-1.907.349-3.704 1.046-5.392.696-1.687 1.65-3.145 2.86-4.374a13.746 13.746 0 0 1 4.21-2.916 12.3 12.3 0 0 1 5.09-1.072 12.3 12.3 0 0 1 5.089 1.072 13.746 13.746 0 0 1 4.21 2.916c1.21 1.23 2.163 2.687 2.86 4.374.697 1.688 1.046 3.485 1.046 5.392 0 1.944-.349 3.75-1.046 5.42-.697 1.668-1.65 3.117-2.86 4.346a13.746 13.746 0 0 1-4.21 2.916 12.3 12.3 0 0 1-5.09 1.073 12.3 12.3 0 0 1-5.09-1.073 13.746 13.746 0 0 1-4.208-2.916c-1.21-1.229-2.165-2.678-2.861-4.347-.697-1.668-1.046-3.475-1.046-5.419zm23.935 0c0-1.577-.285-3.053-.853-4.429a11.091 11.091 0 0 0-2.339-3.576 11.258 11.258 0 0 0-3.438-2.393 9.866 9.866 0 0 0-4.1-.88c-1.43 0-2.797.293-4.099.88a11.258 11.258 0 0 0-3.439 2.393c-.99 1.009-1.77 2.2-2.338 3.576-.569 1.376-.853 2.852-.853 4.43 0 1.576.284 3.053.853 4.428a11.091 11.091 0 0 0 2.338 3.576 11.258 11.258 0 0 0 3.44 2.394 9.866 9.866 0 0 0 4.098.88c1.431 0 2.797-.294 4.1-.88a11.258 11.258 0 0 0 3.438-2.394c.99-1.008 1.77-2.2 2.339-3.576.568-1.375.853-2.852.853-4.429zm23.109-11.279h-1.1c-1.248 0-2.43.23-3.55.688a9.191 9.191 0 0 0-2.97 1.953c-.863.844-1.55 1.862-2.064 3.054-.513 1.192-.77 2.503-.77 3.934v14.854h-2.476V255.7h2.476v4.401c.513-.917 1.21-1.742 2.09-2.476.734-.623 1.688-1.192 2.862-1.705 1.174-.514 2.64-.77 4.402-.77h1.1v2.475zm18.157-10.728h2.201v8.803h6.053v2.476h-6.053v17.33c0 1.54.376 2.705 1.128 3.494.752.789 1.752 1.183 2.999 1.183a8.359 8.359 0 0 0 2.53-.385c.404-.147.753-.294 1.046-.44v2.475c-.293.147-.642.294-1.045.44a8.359 8.359 0 0 1-2.531.385c-2.091 0-3.714-.605-4.87-1.815-1.155-1.21-1.733-2.99-1.733-5.337v-17.33h-5.227V255.7h3.577c.55 0 1.008-.193 1.375-.578.367-.385.55-.926.55-1.623v-6.602zm19.533 13.48a9.752 9.752 0 0 1 2.036-2.587c.734-.66 1.678-1.265 2.834-1.815 1.155-.55 2.558-.825 4.209-.825 1.504 0 2.907.275 4.209.825a10.2 10.2 0 0 1 3.411 2.338c.972 1.009 1.734 2.2 2.284 3.576.55 1.376.825 2.889.825 4.54v15.68h-2.476v-15.68c0-1.321-.21-2.522-.633-3.604-.421-1.082-1-2.009-1.733-2.779a7.63 7.63 0 0 0-2.613-1.788c-1.01-.422-2.1-.633-3.274-.633a8.483 8.483 0 0 0-3.522.743 9.393 9.393 0 0 0-2.888 2.008c-.826.844-1.477 1.862-1.954 3.054a10.199 10.199 0 0 0-.715 3.824v14.854h-2.476v-38.512h2.476v16.78zm29.437 9.627a10.29 10.29 0 0 0 .99 3.934 11.259 11.259 0 0 0 2.284 3.219c.935.917 2.017 1.65 3.246 2.2 1.229.55 2.54.826 3.934.826 1.43 0 2.696-.239 3.797-.715 1.1-.477 2.017-1.009 2.75-1.596.881-.66 1.633-1.43 2.257-2.31l1.65 1.595a13.381 13.381 0 0 1-2.64 2.75c-.881.698-1.972 1.33-3.275 1.899-1.302.568-2.815.853-4.539.853-1.724 0-3.365-.358-4.924-1.073a13.605 13.605 0 0 1-4.127-2.916c-1.192-1.229-2.137-2.678-2.834-4.347-.697-1.668-1.045-3.475-1.045-5.419 0-1.907.348-3.704 1.045-5.392.697-1.687 1.633-3.145 2.807-4.374a13.473 13.473 0 0 1 4.044-2.916 11.065 11.065 0 0 1 4.759-1.072c1.65 0 3.21.33 4.677.99a11.58 11.58 0 0 1 3.851 2.806c1.1 1.21 1.972 2.659 2.614 4.346.642 1.688.963 3.558.963 5.612v1.1H650.31zm10.179-12.379a8.89 8.89 0 0 0-3.769.826 11.57 11.57 0 0 0-3.191 2.173 10.692 10.692 0 0 0-2.256 3.136 9.955 9.955 0 0 0-.963 3.769h19.808c-.073-1.43-.367-2.751-.88-3.962-.514-1.21-1.202-2.255-2.064-3.136a9.421 9.421 0 0 0-2.998-2.063c-1.138-.495-2.366-.743-3.687-.743zm43.467 21.733a10.762 10.762 0 0 1-1.98 1.65c-.624.404-1.394.78-2.311 1.128-.917.348-1.963.523-3.136.523-1.394 0-2.642-.211-3.742-.633-1.1-.422-2.054-.981-2.861-1.678a7.024 7.024 0 0 1-1.843-2.448 7.08 7.08 0 0 1-.633-2.944c0-2.2.706-4.035 2.118-5.502 1.412-1.467 3.366-2.42 5.86-2.86l8.528-1.541c0-1.1-.394-2.017-1.182-2.751-.79-.734-1.954-1.1-3.494-1.1-1.064 0-1.963.146-2.696.44a11.09 11.09 0 0 0-1.871.935 6.689 6.689 0 0 0-1.486 1.375l-4.126-4.126a12.952 12.952 0 0 1 2.696-2.586c.88-.66 1.99-1.265 3.328-1.815 1.34-.55 2.907-.826 4.705-.826 1.724 0 3.292.275 4.704.826 1.412.55 2.632 1.31 3.66 2.283a10.014 10.014 0 0 1 2.365 3.411c.55 1.302.825 2.705.825 4.209v16.78h-7.428v-2.75zm-5.502-2.751c1.651 0 2.98-.523 3.99-1.568 1.008-1.046 1.512-2.54 1.512-4.484v-.826l-6.052 1.1c-2.017.33-3.026 1.34-3.026 3.027 0 .843.284 1.513.853 2.008.568.495 1.476.743 2.723.743zm35.49 6.052c-1.321 0-2.476-.193-3.467-.578-.99-.385-1.816-.834-2.476-1.348a10.144 10.144 0 0 1-2.036-1.926v14.855h-7.428V255.15h7.428v3.3a12.744 12.744 0 0 1 2.036-1.925c.66-.477 1.486-.917 2.476-1.32.99-.404 2.146-.606 3.467-.606 1.724 0 3.365.358 4.924 1.073a13.379 13.379 0 0 1 4.127 2.944c1.192 1.247 2.136 2.732 2.833 4.456.697 1.724 1.046 3.576 1.046 5.557 0 1.98-.349 3.833-1.046 5.557-.697 1.724-1.641 3.21-2.833 4.456a13.379 13.379 0 0 1-4.127 2.944 11.673 11.673 0 0 1-4.924 1.073zm-1.376-21.457a6.05 6.05 0 0 0-2.531.55 6.686 6.686 0 0 0-2.118 1.513c-.606.642-1.082 1.421-1.431 2.338-.348.917-.523 1.926-.523 3.026 0 1.1.175 2.11.523 3.026.349.917.825 1.696 1.43 2.338a6.686 6.686 0 0 0 2.119 1.513 6.05 6.05 0 0 0 2.531.55 6.05 6.05 0 0 0 2.531-.55 6.686 6.686 0 0 0 2.118-1.513c.606-.642 1.082-1.421 1.43-2.338.35-.917.524-1.926.524-3.026 0-1.1-.175-2.109-.523-3.026-.349-.917-.825-1.696-1.43-2.338a6.686 6.686 0 0 0-2.119-1.513 6.05 6.05 0 0 0-2.531-.55zm35.214 21.457c-1.32 0-2.476-.193-3.466-.578-.99-.385-1.816-.834-2.476-1.348a10.144 10.144 0 0 1-2.036-1.926v14.855h-7.428V255.15h7.428v3.3a12.744 12.744 0 0 1 2.036-1.925c.66-.477 1.485-.917 2.476-1.32.99-.404 2.146-.606 3.466-.606 1.724 0 3.366.358 4.925 1.073a13.379 13.379 0 0 1 4.126 2.944c1.192 1.247 2.137 2.732 2.834 4.456.697 1.724 1.045 3.576 1.045 5.557 0 1.98-.348 3.833-1.045 5.557-.697 1.724-1.642 3.21-2.834 4.456a13.379 13.379 0 0 1-4.126 2.944 11.673 11.673 0 0 1-4.925 1.073zm-1.375-21.457a6.05 6.05 0 0 0-2.531.55 6.686 6.686 0 0 0-2.119 1.513c-.605.642-1.082 1.421-1.43 2.338-.349.917-.523 1.926-.523 3.026 0 1.1.174 2.11.523 3.026.348.917.825 1.696 1.43 2.338a6.686 6.686 0 0 0 2.119 1.513 6.05 6.05 0 0 0 2.53.55 6.05 6.05 0 0 0 2.532-.55 6.686 6.686 0 0 0 2.118-1.513c.605-.642 1.082-1.421 1.43-2.338.349-.917.523-1.926.523-3.026 0-1.1-.174-2.109-.522-3.026-.349-.917-.826-1.696-1.431-2.338a6.686 6.686 0 0 0-2.118-1.513 6.05 6.05 0 0 0-2.531-.55zm37.14 9.903c.293 1.394 1.036 2.613 2.228 3.659 1.192 1.045 2.833 1.568 4.924 1.568 1.174 0 2.201-.175 3.082-.523.88-.349 1.632-.724 2.255-1.128a8.696 8.696 0 0 0 1.816-1.65l3.852 4.951c-.807.917-1.798 1.706-2.971 2.366-.99.587-2.201 1.119-3.632 1.595-1.43.477-3.081.716-4.952.716-1.98 0-3.842-.367-5.585-1.1a14.386 14.386 0 0 1-4.566-3.027 14.087 14.087 0 0 1-3.054-4.456c-.734-1.687-1.1-3.503-1.1-5.447 0-1.907.366-3.714 1.1-5.42a14.225 14.225 0 0 1 3.026-4.483 14.315 14.315 0 0 1 4.457-3.026c1.687-.734 3.503-1.1 5.447-1.1 1.907 0 3.686.339 5.337 1.017 1.65.679 3.081 1.623 4.292 2.834 1.21 1.21 2.155 2.64 2.834 4.291.678 1.65 1.017 3.43 1.017 5.337 0 .513-.018.954-.055 1.32-.036.367-.073.679-.11.936-.036.293-.073.55-.11.77h-19.533zm6.327-10.179c-1.65 0-3.017.477-4.1 1.431a7.308 7.308 0 0 0-2.228 3.521h12.38a6.45 6.45 0 0 0-2.008-3.521c-1.045-.954-2.393-1.43-4.044-1.43zm17.332 7.703c0-1.87.385-3.65 1.155-5.337a14.639 14.639 0 0 1 3.137-4.456c1.32-1.284 2.87-2.311 4.65-3.081a14.043 14.043 0 0 1 5.639-1.156c1.87 0 3.494.285 4.87.853 1.375.569 2.521 1.201 3.438 1.898a12.757 12.757 0 0 1 2.696 2.751l-4.677 4.677a8.072 8.072 0 0 0-1.595-1.76c-.514-.441-1.174-.854-1.981-1.239-.807-.385-1.724-.577-2.751-.577-.954 0-1.862.192-2.724.577a7.33 7.33 0 0 0-2.283 1.596 7.718 7.718 0 0 0-1.568 2.366 7.254 7.254 0 0 0-.578 2.888c0 1.027.193 1.99.578 2.888a7.718 7.718 0 0 0 1.568 2.366 7.33 7.33 0 0 0 2.283 1.596c.862.385 1.77.577 2.724.577 1.027 0 1.944-.183 2.75-.55.808-.366 1.505-.77 2.092-1.21a9.194 9.194 0 0 0 1.76-1.816l4.402 4.677a12.757 12.757 0 0 1-2.696 2.75c-.917.698-2.063 1.33-3.439 1.899-1.375.568-2.998.853-4.87.853-1.98 0-3.86-.385-5.639-1.156-1.779-.77-3.329-1.797-4.65-3.08a14.639 14.639 0 0 1-3.136-4.457 12.702 12.702 0 0 1-1.155-5.337zm36.59 0c0 1.027.174 1.98.522 2.861.349.88.826 1.632 1.43 2.256a6.905 6.905 0 0 0 2.12 1.485 6.05 6.05 0 0 0 2.53.55 6.05 6.05 0 0 0 2.531-.55 6.905 6.905 0 0 0 2.119-1.485 6.775 6.775 0 0 0 1.43-2.256c.349-.88.523-1.834.523-2.861 0-1.027-.174-1.98-.523-2.86a6.775 6.775 0 0 0-1.43-2.257 6.905 6.905 0 0 0-2.119-1.485 6.05 6.05 0 0 0-2.53-.55 6.05 6.05 0 0 0-2.532.55 6.905 6.905 0 0 0-2.118 1.485 6.775 6.775 0 0 0-1.43 2.256 7.703 7.703 0 0 0-.523 2.861zm20.908 0c0 1.87-.385 3.65-1.155 5.337a14.878 14.878 0 0 1-3.11 4.456 15.181 15.181 0 0 1-4.566 3.081 13.395 13.395 0 0 1-5.475 1.156c-1.944 0-3.778-.385-5.502-1.156a15.283 15.283 0 0 1-4.54-3.08 14.878 14.878 0 0 1-3.108-4.457 12.702 12.702 0 0 1-1.155-5.337c0-1.87.385-3.65 1.155-5.337a14.878 14.878 0 0 1 3.109-4.456 15.283 15.283 0 0 1 4.54-3.081 13.335 13.335 0 0 1 5.501-1.156c1.908 0 3.733.386 5.475 1.156a15.181 15.181 0 0 1 4.567 3.08 14.878 14.878 0 0 1 3.109 4.457 12.702 12.702 0 0 1 1.155 5.337zm12.93-10.178c.55-.697 1.21-1.34 1.981-1.926.66-.477 1.467-.917 2.421-1.32.954-.404 2.054-.606 3.301-.606 1.504 0 2.898.266 4.182.798a9.224 9.224 0 0 1 3.329 2.338c.935 1.027 1.66 2.265 2.173 3.714.514 1.449.77 3.109.77 4.98v15.68h-7.427v-14.855c0-1.651-.486-2.98-1.459-3.99-.972-1.008-2.228-1.512-3.769-1.512-1.65 0-2.98.532-3.989 1.595-1.008 1.064-1.513 2.641-1.513 4.732v14.03h-7.428v-26.96h7.428v3.302zm31.363 10.178c0 1.027.174 1.98.523 2.861.348.88.825 1.632 1.43 2.256a6.905 6.905 0 0 0 2.118 1.485 6.05 6.05 0 0 0 2.531.55 6.05 6.05 0 0 0 2.531-.55 6.905 6.905 0 0 0 2.119-1.485 6.775 6.775 0 0 0 1.43-2.256c.349-.88.523-1.834.523-2.861 0-1.027-.174-1.98-.523-2.86a6.775 6.775 0 0 0-1.43-2.257 6.905 6.905 0 0 0-2.119-1.485 6.05 6.05 0 0 0-2.53-.55 6.05 6.05 0 0 0-2.532.55 6.905 6.905 0 0 0-2.118 1.485 6.775 6.775 0 0 0-1.43 2.256 7.703 7.703 0 0 0-.523 2.861zm20.908 0c0 1.87-.385 3.65-1.155 5.337a14.878 14.878 0 0 1-3.109 4.456 15.181 15.181 0 0 1-4.567 3.081 13.395 13.395 0 0 1-5.475 1.156c-1.944 0-3.778-.385-5.502-1.156a15.283 15.283 0 0 1-4.54-3.08 14.878 14.878 0 0 1-3.108-4.457 12.702 12.702 0 0 1-1.155-5.337c0-1.87.385-3.65 1.155-5.337a14.878 14.878 0 0 1 3.109-4.456 15.283 15.283 0 0 1 4.54-3.081 13.335 13.335 0 0 1 5.501-1.156c1.908 0 3.733.386 5.475 1.156a15.181 15.181 0 0 1 4.567 3.08 14.878 14.878 0 0 1 3.109 4.457 12.702 12.702 0 0 1 1.155 5.337zm39.066-1.375c0-1.798-.422-3.164-1.266-4.1-.843-.935-1.889-1.402-3.136-1.402-1.394 0-2.568.532-3.521 1.595-.954 1.064-1.43 2.641-1.43 4.732v14.03h-7.429v-14.855c0-1.798-.422-3.164-1.265-4.1-.844-.935-1.89-1.402-3.137-1.402-1.393 0-2.567.532-3.521 1.595-.954 1.064-1.43 2.641-1.43 4.732v14.03h-7.429v-26.96h7.428v3.302a11.213 11.213 0 0 1 1.816-1.926c.624-.477 1.376-.917 2.256-1.32.88-.404 1.907-.606 3.081-.606 1.43 0 2.632.248 3.604.743s1.77 1.036 2.394 1.623a8.215 8.215 0 0 1 1.705 2.31 8.985 8.985 0 0 1 2.256-2.31c.734-.587 1.67-1.128 2.806-1.623 1.138-.495 2.476-.743 4.017-.743 2.898 0 5.227.972 6.988 2.916 1.76 1.944 2.64 4.915 2.64 8.913v15.68h-7.427v-14.854zm21.734 14.58l-10.455-26.684h7.704l6.327 17.88 6.328-17.88h7.703l-10.73 28.609c-1.247 3.338-2.714 5.823-4.401 7.455-1.688 1.632-3.705 2.448-6.053 2.448-.697 0-1.33-.036-1.898-.11a10.957 10.957 0 0 1-1.458-.275 27.804 27.804 0 0 1-1.32-.44v-6.602c.22.11.476.202.77.275.55.183 1.21.275 1.98.275 1.248 0 2.247-.293 3-.88a5.445 5.445 0 0 0 1.677-2.146l.826-1.926zm17.332-3.302c0-1.1.421-2.063 1.265-2.888.844-.825 1.89-1.238 3.136-1.238 1.248 0 2.293.413 3.137 1.238.843.825 1.265 1.788 1.265 2.888 0 1.1-.422 2.063-1.265 2.889-.844.825-1.89 1.238-3.137 1.238s-2.292-.413-3.136-1.238c-.844-.826-1.265-1.788-1.265-2.889z"/></g></svg>