<svg xmlns="http://www.w3.org/2000/svg" width="1100" height="300"><g fill="none"><path fill="#0499EE" d="M178.702 230.257c0-4.917-1.963-8.759-5.888-11.525-3.925-2.765-8.852-5.147-14.778-7.145a650.042 650.042 0 0 0-19.166-6.108c-6.85-2.074-13.239-4.879-19.165-8.413-5.927-3.534-10.853-8.182-14.778-13.945-3.926-5.762-5.889-13.484-5.889-23.164 0-6.3 1.309-12.332 3.926-18.094 2.617-5.763 6.388-10.795 11.314-15.098 4.926-4.302 10.892-7.721 17.896-10.257 7.004-2.535 14.817-3.803 23.437-3.803 8.929 0 16.703 1.153 23.322 3.458 6.62 2.305 12.161 4.84 16.626 7.606 5.08 3.227 9.467 6.838 13.161 10.833L187.94 156.5a49.292 49.292 0 0 0-8.082-6.915c-2.617-1.69-5.773-3.265-9.468-4.725-3.694-1.46-7.85-2.19-12.469-2.19-6.927 0-12.315 1.73-16.163 5.187-3.849 3.457-5.773 7.49-5.773 12.1 0 5.071 1.963 8.951 5.888 11.64 3.926 2.69 8.852 5.033 14.778 7.03a650.044 650.044 0 0 0 19.166 6.109c6.85 2.074 13.239 4.878 19.165 8.413 5.927 3.534 10.853 8.22 14.779 14.06 3.925 5.839 5.888 13.522 5.888 23.05 0 7.221-1.347 13.906-4.041 20.052-2.694 6.147-6.658 11.486-11.892 16.02-5.234 4.533-11.622 8.105-19.166 10.717-7.543 2.613-16.24 3.919-26.092 3.919-10.16 0-19.05-1.345-26.67-4.034-7.62-2.689-13.97-5.724-19.05-9.104-6.004-3.996-11.161-8.452-15.471-13.369l20.781-20.744c2.771 3.226 6.081 6.146 9.93 8.758 3.232 2.152 7.196 4.11 11.891 5.878 4.696 1.767 10.122 2.65 16.28 2.65 8.774 0 15.394-1.997 19.858-5.992s6.696-8.913 6.696-14.752zm74.781-9.22c0 4.303.731 8.298 2.194 11.986 1.462 3.688 3.463 6.838 6.003 9.45 2.54 2.613 5.504 4.687 8.89 6.224a25.424 25.424 0 0 0 10.622 2.305c3.695 0 7.235-.769 10.622-2.305 3.387-1.537 6.35-3.611 8.89-6.224 2.54-2.612 4.541-5.762 6.004-9.45 1.462-3.688 2.193-7.683 2.193-11.986 0-4.302-.73-8.297-2.193-11.985-1.463-3.688-3.464-6.838-6.004-9.45-2.54-2.613-5.503-4.687-8.89-6.224a25.424 25.424 0 0 0-10.622-2.305c-3.694 0-7.235.769-10.622 2.305-3.386 1.537-6.35 3.611-8.89 6.223-2.54 2.613-4.54 5.763-6.003 9.45-1.463 3.689-2.194 7.684-2.194 11.986zm87.746 0c0 7.837-1.617 15.29-4.85 22.358-3.232 7.069-7.58 13.292-13.046 18.67-5.465 5.379-11.853 9.681-19.165 12.908-7.312 3.227-14.97 4.84-22.976 4.84-8.159 0-15.855-1.613-23.09-4.84-7.236-3.227-13.586-7.53-19.05-12.908-5.466-5.378-9.814-11.601-13.047-18.67-3.233-7.068-4.85-14.52-4.85-22.358 0-7.836 1.617-15.289 4.85-22.357 3.233-7.069 7.581-13.292 13.046-18.67 5.465-5.379 11.815-9.681 19.05-12.908 7.236-3.227 14.932-4.84 23.091-4.84 8.005 0 15.664 1.613 22.976 4.84 7.312 3.227 13.7 7.53 19.165 12.908 5.465 5.378 9.814 11.601 13.047 18.67 3.232 7.068 4.849 14.52 4.849 22.357zm96.717-89.892h27.71v36.879h23.09v27.66h-23.09v43.793c0 3.534 1.308 6.53 3.925 8.99 2.617 2.458 5.926 3.687 9.929 3.687 3.233 0 6.004-.384 8.313-1.152 1.231-.308 2.309-.692 3.232-1.153v26.507a145.29 145.29 0 0 1-6.003 1.844c-1.848.46-4.041.845-6.581 1.152-2.54.308-5.273.461-8.198.461-11.545 0-20.397-3.188-26.554-9.565-6.158-6.377-9.237-16.25-9.237-29.619v-44.946H390.61v81.825h-31.173v-81.825h-16.164v-27.66h16.164v-14.981c0-13.369 3.079-23.242 9.236-29.619 6.158-6.377 15.01-9.565 26.555-9.565 2.925 0 5.657.192 8.197.576 2.54.384 4.734.807 6.581 1.268 2.155.614 4.156 1.152 6.004 1.613v26.507a94.42 94.42 0 0 1-3.233-1.152 33.788 33.788 0 0 0-3.695-.807c-1.385-.23-2.924-.346-4.618-.346-4.002 0-7.312 1.23-9.929 3.688-2.617 2.459-3.925 5.455-3.925 8.99v13.829h34.636c3.54 0 6.543-1.345 9.006-4.034s3.694-6.338 3.694-10.948v-21.897zm96.717 146.363l-42.718-112.942h32.328l26.554 74.91 26.555-74.91h32.327l-42.718 112.942h-32.328zm111.727 0h-31.173V164.566h31.173v112.942zm2.309-145.21c0 5.224-1.616 9.411-4.85 12.561-3.232 3.15-7.773 4.725-13.623 4.725-5.234 0-9.429-1.575-12.584-4.725-3.156-3.15-4.734-7.337-4.734-12.562 0-5.224 1.578-9.412 4.734-12.562 3.155-3.15 7.35-4.725 12.584-4.725 5.85 0 10.391 1.575 13.624 4.725 3.233 3.15 4.849 7.338 4.849 12.562zm79.4 65.69a27.681 27.681 0 0 0-4.85-4.61c-1.693-1.23-3.656-2.305-5.888-3.227-2.232-.922-4.81-1.383-7.736-1.383-4.618 0-8.081.96-10.39 2.881-2.31 1.921-3.464 4.034-3.464 6.339 0 2.612 1.27 4.725 3.81 6.339 2.54 1.613 5.734 3.073 9.583 4.379a823.513 823.513 0 0 0 12.584 4.149c4.541 1.46 8.736 3.457 12.585 5.993 3.848 2.535 7.042 5.8 9.582 9.796 2.54 3.995 3.81 9.143 3.81 15.443 0 4.917-1 9.527-3.001 13.83-2.002 4.302-4.888 8.067-8.66 11.294-3.771 3.227-8.466 5.8-14.085 7.721-5.619 1.92-12.046 2.881-19.28 2.881-8.16 0-15.164-1.075-21.014-3.227-5.85-2.15-10.622-4.533-14.316-7.145-4.464-2.92-8.082-6.377-10.853-10.372l17.318-17.287a32.137 32.137 0 0 0 6.466 6.454c2.155 1.69 4.695 3.15 7.62 4.38 2.925 1.228 6.311 1.843 10.16 1.843 5.234 0 9.044-.999 11.43-2.996 2.386-1.998 3.579-4.457 3.579-7.376 0-2.92-1.27-5.186-3.81-6.8-2.54-1.613-5.734-3.111-9.583-4.494a392.996 392.996 0 0 0-12.584-4.265c-4.542-1.46-8.736-3.419-12.585-5.877-3.848-2.459-7.043-5.609-9.583-9.45-2.54-3.842-3.81-8.913-3.81-15.213 0-4.303 1.078-8.605 3.233-12.908 2.155-4.302 5.196-8.144 9.121-11.524 3.926-3.38 8.582-6.108 13.97-8.183 5.388-2.074 11.238-3.112 17.55-3.112 6.619 0 12.391.922 17.317 2.766 4.927 1.844 9.006 3.842 12.239 5.993 3.848 2.613 7.08 5.455 9.698 8.529l-16.164 18.439zm63.235 79.52H760.16V164.566h31.173v112.942zm2.309-145.21c0 5.224-1.617 9.411-4.85 12.561-3.232 3.15-7.773 4.725-13.623 4.725-5.234 0-9.429-1.575-12.585-4.725-3.155-3.15-4.733-7.337-4.733-12.562 0-5.224 1.578-9.412 4.733-12.562 3.156-3.15 7.35-4.725 12.585-4.725 5.85 0 10.39 1.575 13.624 4.725 3.232 3.15 4.849 7.338 4.849 12.562zm42.453 88.74c0 4.302.731 8.297 2.194 11.985 1.462 3.688 3.464 6.838 6.004 9.45 2.54 2.613 5.503 4.687 8.89 6.224a25.424 25.424 0 0 0 10.621 2.305c3.695 0 7.236-.769 10.622-2.305 3.387-1.537 6.35-3.611 8.89-6.224 2.54-2.612 4.542-5.762 6.004-9.45 1.462-3.688 2.194-7.683 2.194-11.986 0-4.302-.732-8.297-2.194-11.985-1.462-3.688-3.464-6.838-6.004-9.45-2.54-2.613-5.503-4.687-8.89-6.224a25.424 25.424 0 0 0-10.622-2.305c-3.694 0-7.235.769-10.621 2.305-3.387 1.537-6.35 3.611-8.89 6.223-2.54 2.613-4.542 5.763-6.004 9.45-1.463 3.689-2.194 7.684-2.194 11.986zm87.746 0c0 7.836-1.616 15.289-4.85 22.357-3.232 7.069-7.58 13.292-13.046 18.67-5.464 5.379-11.853 9.681-19.165 12.908-7.312 3.227-14.97 4.84-22.976 4.84-8.158 0-15.855-1.613-23.09-4.84-7.236-3.227-13.586-7.53-19.05-12.908-5.465-5.378-9.814-11.601-13.047-18.67-3.233-7.068-4.85-14.52-4.85-22.358 0-7.836 1.617-15.289 4.85-22.357 3.233-7.069 7.582-13.292 13.046-18.67 5.465-5.379 11.815-9.681 19.05-12.908 7.236-3.227 14.933-4.84 23.091-4.84 8.005 0 15.664 1.613 22.976 4.84 7.312 3.227 13.7 7.53 19.165 12.908 5.465 5.378 9.814 11.601 13.047 18.67 3.233 7.068 4.849 14.52 4.849 22.357zm42.454-42.642c2.309-2.92 5.08-5.609 8.312-8.067 2.771-1.998 6.158-3.842 10.16-5.532 4.003-1.69 8.62-2.536 13.855-2.536 6.311 0 12.161 1.115 17.549 3.343a38.71 38.71 0 0 1 13.97 9.796c3.926 4.302 6.966 9.488 9.121 15.558 2.155 6.07 3.233 13.023 3.233 20.86v65.69h-31.173v-62.233c0-6.915-2.04-12.485-6.12-16.71-4.079-4.226-9.351-6.34-15.817-6.34-6.927 0-12.507 2.229-16.74 6.685-4.234 4.456-6.35 11.064-6.35 19.822v58.776h-31.173V164.566h31.173v13.83zm90.944 84.13c0-4.61 1.77-8.643 5.311-12.1 3.54-3.458 7.928-5.187 13.162-5.187 5.234 0 9.621 1.729 13.162 5.186 3.54 3.458 5.31 7.491 5.31 12.101 0 4.61-1.77 8.644-5.31 12.101-3.54 3.458-7.928 5.186-13.162 5.186-5.234 0-9.621-1.728-13.162-5.186-3.54-3.457-5.31-7.49-5.31-12.1z"/><path fill="#FFF" d="M32.922 56.924v2.817H5.83V20.3h26.529v2.817H8.65v14.649h19.191v2.817H8.652v16.34h24.27zm15.116-11.269l10.16 14.086h-3.105l-8.749-12.114-8.749 12.114h-3.104l10.16-14.086-9.313-12.959h3.104l7.902 10.987 7.902-10.987h3.105l-9.313 12.959zm17.373.563c0 1.616.291 3.127.875 4.536.583 1.409 1.364 2.63 2.342 3.662a11.4 11.4 0 0 0 3.33 2.451 8.833 8.833 0 0 0 3.895.902c1.28 0 2.521-.3 3.725-.902a11.294 11.294 0 0 0 3.246-2.45c.96-1.034 1.73-2.254 2.314-3.663.583-1.409.875-2.92.875-4.536 0-1.615-.292-3.127-.875-4.535-.583-1.409-1.355-2.63-2.314-3.662a11.294 11.294 0 0 0-3.246-2.451c-1.204-.601-2.446-.902-3.725-.902-1.355 0-2.653.3-3.895.902a11.4 11.4 0 0 0-3.33 2.45c-.978 1.033-1.76 2.254-2.342 3.663-.584 1.408-.875 2.92-.875 4.535zm0 25.355h-2.54V32.696h2.54v5.353a13.7 13.7 0 0 1 2.596-2.93c.866-.751 1.938-1.437 3.217-2.057 1.28-.62 2.823-.93 4.629-.93 1.618 0 3.189.367 4.713 1.1a13.696 13.696 0 0 1 4.064 2.986c1.185 1.258 2.135 2.751 2.85 4.479.715 1.728 1.073 3.568 1.073 5.521 0 1.991-.358 3.841-1.073 5.55-.715 1.71-1.665 3.193-2.85 4.451a13.696 13.696 0 0 1-4.064 2.986c-1.524.733-3.095 1.1-4.713 1.1-1.806 0-3.35-.301-4.629-.902-1.279-.601-2.351-1.277-3.217-2.029a13.134 13.134 0 0 1-2.596-2.986v17.185zm45.595-28.735c0-1.165-.198-2.244-.593-3.24a8.264 8.264 0 0 0-1.608-2.592 7.296 7.296 0 0 0-2.4-1.718c-.921-.413-1.928-.62-3.019-.62-1.242 0-2.352.207-3.33.62-.979.413-1.806.864-2.484 1.352a13.064 13.064 0 0 0-2.088 1.972l-1.694-1.69a10.646 10.646 0 0 1 2.484-2.367c.828-.6 1.834-1.155 3.02-1.662 1.185-.507 2.55-.76 4.092-.76 1.468 0 2.822.272 4.064.817a9.754 9.754 0 0 1 3.217 2.253c.903.958 1.609 2.094 2.117 3.41.508 1.314.762 2.722.762 4.225V59.74h-2.54v-4.508a9.708 9.708 0 0 1-2.427 2.536c-.828.638-1.853 1.22-3.076 1.746s-2.681.79-4.375.79c-1.354 0-2.587-.207-3.697-.62-1.11-.414-2.06-.977-2.85-1.69a7.696 7.696 0 0 1-1.835-2.452 6.616 6.616 0 0 1-.649-2.845c0-2.141.724-3.935 2.173-5.38 1.449-1.447 3.453-2.377 6.012-2.79l10.724-1.69zm-9.878 14.93c1.393 0 2.7-.253 3.923-.76 1.223-.507 2.267-1.192 3.133-2.056.865-.864 1.552-1.897 2.06-3.1.508-1.201.762-2.516.762-3.943v-2.536l-10.16 1.69c-2.145.339-3.716 1.005-4.713 2-.997.996-1.496 2.208-1.496 3.635 0 .638.15 1.258.452 1.86a5.301 5.301 0 0 0 1.298 1.633c.564.488 1.251.873 2.06 1.155.81.282 1.703.423 2.681.423zm23.018-20.283a9.99 9.99 0 0 1 2.088-2.648c.753-.676 1.722-1.296 2.907-1.86 1.185-.563 2.625-.844 4.318-.844 1.543 0 2.982.281 4.318.845a10.465 10.465 0 0 1 3.5 2.394c.997 1.033 1.778 2.254 2.342 3.663.565 1.408.847 2.958.847 4.648v16.058h-2.54V43.683c0-1.352-.217-2.582-.65-3.69-.432-1.109-1.025-2.057-1.777-2.846a7.827 7.827 0 0 0-2.681-1.83c-1.035-.433-2.155-.649-3.359-.649-1.28 0-2.483.254-3.612.76a9.636 9.636 0 0 0-2.964 2.057c-.846.864-1.514 1.907-2.003 3.127a10.428 10.428 0 0 0-.734 3.916v15.213h-2.54V32.696h2.54v4.79zm49.264 8.733c0-1.615-.292-3.127-.875-4.535-.583-1.409-1.364-2.63-2.342-3.662a11.4 11.4 0 0 0-3.33-2.451 8.833 8.833 0 0 0-3.895-.902c-1.28 0-2.521.3-3.726.902a11.294 11.294 0 0 0-3.245 2.45c-.96 1.033-1.731 2.254-2.314 3.663-.584 1.408-.875 2.92-.875 4.535 0 1.616.291 3.127.875 4.536.583 1.409 1.354 2.63 2.314 3.662a11.294 11.294 0 0 0 3.245 2.451c1.205.601 2.446.902 3.726.902 1.354 0 2.653-.3 3.894-.902a11.4 11.4 0 0 0 3.33-2.45c.98-1.034 1.76-2.254 2.343-3.663.583-1.409.875-2.92.875-4.536zm0-25.917h2.54v39.44h-2.54v-5.353a13.134 13.134 0 0 1-2.596 2.986c-.866.752-1.948 1.428-3.246 2.029-1.298.6-2.832.901-4.6.901-1.618 0-3.19-.366-4.713-1.099a13.696 13.696 0 0 1-4.064-2.986c-1.186-1.258-2.136-2.742-2.85-4.45-.716-1.71-1.073-3.56-1.073-5.55 0-1.954.357-3.794 1.072-5.522.715-1.728 1.665-3.221 2.85-4.48a13.696 13.696 0 0 1 4.065-2.986c1.524-.732 3.095-1.098 4.713-1.098 1.768 0 3.302.31 4.6.93 1.298.62 2.38 1.305 3.246 2.056a13.7 13.7 0 0 1 2.596 2.93V20.3zm11.164 12.395h2.54v27.045h-2.54V32.696zm-.564-9.578c0-.564.188-1.033.564-1.409.376-.375.847-.563 1.411-.563.565 0 1.035.188 1.411.563.377.376.565.845.565 1.409 0 .563-.188 1.033-.565 1.408-.376.376-.846.564-1.41.564-.565 0-1.036-.188-1.412-.564-.376-.375-.564-.845-.564-1.408zm14.268 14.367a9.99 9.99 0 0 1 2.089-2.648c.752-.676 1.721-1.296 2.907-1.86 1.185-.563 2.624-.844 4.318-.844 1.543 0 2.982.281 4.318.845a10.465 10.465 0 0 1 3.5 2.394c.997 1.033 1.777 2.254 2.342 3.663.564 1.408.846 2.958.846 4.648v16.058h-2.54V43.683c0-1.352-.216-2.582-.649-3.69-.432-1.109-1.025-2.057-1.778-2.846a7.827 7.827 0 0 0-2.68-1.83c-1.036-.433-2.155-.649-3.36-.649-1.279 0-2.483.254-3.612.76a9.636 9.636 0 0 0-2.963 2.057c-.847.864-1.515 1.907-2.004 3.127a10.428 10.428 0 0 0-.734 3.916v15.213h-2.54V32.696h2.54v4.79zm28.662 8.17c0 1.54.273 2.986.819 4.338.545 1.353 1.28 2.517 2.201 3.494a10.54 10.54 0 0 0 3.161 2.31 8.514 8.514 0 0 0 3.697.845c1.28 0 2.521-.282 3.726-.845a11.146 11.146 0 0 0 3.245-2.31c.96-.977 1.731-2.141 2.314-3.494.584-1.352.875-2.798.875-4.338s-.291-2.977-.875-4.31a11.788 11.788 0 0 0-2.314-3.493 10.9 10.9 0 0 0-3.245-2.339 8.697 8.697 0 0 0-3.726-.845c-1.28 0-2.512.282-3.697.845a10.32 10.32 0 0 0-3.16 2.339 11.489 11.489 0 0 0-2.202 3.493c-.546 1.333-.819 2.77-.819 4.31zm20.038 7.888a11.492 11.492 0 0 1-2.427 2.817c-.828.714-1.881 1.362-3.16 1.944-1.28.582-2.804.873-4.573.873-1.618 0-3.18-.347-4.685-1.042a12.754 12.754 0 0 1-3.98-2.874c-1.147-1.22-2.06-2.648-2.737-4.282s-1.016-3.408-1.016-5.324.339-3.69 1.016-5.324c.678-1.634 1.59-3.062 2.738-4.282a12.754 12.754 0 0 1 3.98-2.874 11.056 11.056 0 0 1 4.684-1.042c1.769 0 3.293.29 4.572.873 1.28.582 2.333 1.23 3.161 1.944a11.492 11.492 0 0 1 2.427 2.817v-5.07h2.54V58.05c0 1.916-.348 3.69-1.044 5.325a13.906 13.906 0 0 1-2.822 4.282 13.13 13.13 0 0 1-4.12 2.873 12.148 12.148 0 0 1-4.996 1.043c-1.844 0-3.443-.291-4.798-.874-1.355-.582-2.465-1.23-3.33-1.943a13.148 13.148 0 0 1-2.597-2.818l1.694-1.69c.64.94 1.41 1.747 2.314 2.423.753.6 1.684 1.146 2.794 1.634s2.418.732 3.923.732a9.839 9.839 0 0 0 4.008-.845 10.381 10.381 0 0 0 3.33-2.31c.94-.976 1.693-2.14 2.258-3.493.564-1.352.846-2.798.846-4.339v-4.507zm17.813-7.325c0-1.953.357-3.793 1.072-5.521.715-1.728 1.694-3.221 2.936-4.48a14.102 14.102 0 0 1 4.318-2.986 12.638 12.638 0 0 1 5.22-1.098c1.845 0 3.585.366 5.222 1.098a14.102 14.102 0 0 1 4.318 2.987c1.242 1.258 2.22 2.751 2.935 4.479.715 1.728 1.072 3.568 1.072 5.521 0 1.991-.357 3.841-1.072 5.55-.715 1.71-1.693 3.193-2.935 4.451a14.102 14.102 0 0 1-4.318 2.986 12.638 12.638 0 0 1-5.221 1.1c-1.844 0-3.585-.367-5.221-1.1a14.102 14.102 0 0 1-4.318-2.986c-1.242-1.258-2.22-2.742-2.936-4.45-.715-1.71-1.072-3.56-1.072-5.55zm24.553 0c0-1.615-.291-3.127-.874-4.535a11.356 11.356 0 0 0-5.927-6.113 10.136 10.136 0 0 0-4.205-.902c-1.468 0-2.87.3-4.205.902a11.356 11.356 0 0 0-5.927 6.113c-.583 1.408-.875 2.92-.875 4.535 0 1.616.292 3.127.875 4.536a11.356 11.356 0 0 0 5.927 6.113c1.335.601 2.737.902 4.205.902 1.467 0 2.869-.3 4.205-.902a11.356 11.356 0 0 0 5.927-6.113c.583-1.409.874-2.92.874-4.536zm29.227 8.734a10.636 10.636 0 0 1-2.145 2.704c-.753.676-1.712 1.287-2.879 1.831-1.166.545-2.596.817-4.29.817-1.542 0-2.991-.282-4.346-.845a10.101 10.101 0 0 1-3.5-2.395c-.978-1.033-1.75-2.253-2.314-3.662-.564-1.408-.846-2.958-.846-4.648V32.696h2.54v16.058c0 1.352.216 2.582.649 3.69.433 1.108 1.025 2.057 1.778 2.846a7.827 7.827 0 0 0 2.681 1.83c1.035.433 2.154.649 3.358.649 1.28 0 2.484-.254 3.613-.76a9.636 9.636 0 0 0 2.963-2.057c.847-.864 1.515-1.897 2.004-3.1.49-1.201.734-2.516.734-3.943V32.696h2.54v27.045h-2.54v-4.79zm24.146-20.284h-1.129c-1.279 0-2.493.235-3.64.704a9.43 9.43 0 0 0-3.048 2c-.885.865-1.59 1.907-2.117 3.128-.527 1.22-.79 2.563-.79 4.028v15.213h-2.54V32.696h2.54v4.508c.527-.94 1.242-1.785 2.145-2.536.752-.638 1.73-1.22 2.935-1.746 1.204-.526 2.71-.79 4.515-.79h1.13v2.536zm346.135 81.113l5.87 18.48 6.097-18.48h2.257l-7.224 21.636h-2.032l-5.87-18.255-5.87 18.255h-2.033l-7.225-21.636h2.258l6.096 18.255 5.87-18.255h1.806zm17.963 0h2.032v21.636h-2.032V115.78zm-.452-7.662c0-.451.15-.827.452-1.127.301-.3.677-.451 1.129-.451.451 0 .828.15 1.129.45.3.301.451.677.451 1.128 0 .45-.15.826-.451 1.126-.301.301-.678.451-1.13.451-.45 0-.827-.15-1.128-.45-.301-.301-.452-.677-.452-1.127zm11.19.45h1.806v7.212h4.967v2.029h-4.967v14.198c0 1.262.308 2.216.925 2.862.618.646 1.438.97 2.461.97a6.871 6.871 0 0 0 2.078-.316c.33-.12.617-.24.858-.36v2.028c-.241.12-.527.24-.858.36a6.871 6.871 0 0 1-2.077.316c-1.717 0-3.049-.496-3.997-1.488-.948-.991-1.422-2.449-1.422-4.372V117.81h-4.29v-2.029h2.935c.452 0 .828-.158 1.129-.473.301-.316.452-.759.452-1.33v-5.409zm14.801 11.044a7.991 7.991 0 0 1 1.67-2.119c.603-.54 1.378-1.037 2.326-1.487.949-.451 2.1-.676 3.455-.676 1.234 0 2.385.225 3.454.676a8.372 8.372 0 0 1 2.8 1.915 8.973 8.973 0 0 1 1.874 2.93c.451 1.127.677 2.367.677 3.719v12.846h-2.032V124.57c0-1.082-.173-2.066-.52-2.953a6.878 6.878 0 0 0-1.422-2.276 6.262 6.262 0 0 0-2.144-1.465 6.904 6.904 0 0 0-2.687-.518 6.972 6.972 0 0 0-2.89.608 7.709 7.709 0 0 0-2.37 1.646c-.678.69-1.213 1.525-1.604 2.501a8.343 8.343 0 0 0-.587 3.133v12.17h-2.032v-31.552h2.032v13.748zm-625.495-8.394c0-3.793.782-7.4 2.347-10.822a29.682 29.682 0 0 1 6.37-9.036c2.682-2.603 5.83-4.685 9.444-6.247 3.613-1.562 7.432-2.343 11.455-2.343 3.8 0 7.097.576 9.891 1.73 2.794 1.152 5.122 2.435 6.985 3.848 2.16 1.636 3.986 3.495 5.476 5.578l-9.5 9.482a16.377 16.377 0 0 0-3.24-3.57c-1.044-.892-2.385-1.729-4.024-2.51-1.639-.78-3.502-1.17-5.588-1.17-1.937 0-3.781.39-5.532 1.17a14.89 14.89 0 0 0-4.638 3.236 15.647 15.647 0 0 0-3.185 4.797c-.782 1.822-1.174 3.774-1.174 5.857 0 2.082.392 4.034 1.174 5.856a15.647 15.647 0 0 0 3.185 4.797 14.89 14.89 0 0 0 4.638 3.236c1.751.78 3.595 1.171 5.532 1.171 2.086 0 3.949-.372 5.588-1.116 1.64-.743 3.055-1.561 4.247-2.454a18.657 18.657 0 0 0 3.576-3.681l8.941 9.482c-1.49 2.083-3.315 3.942-5.476 5.578-1.863 1.413-4.191 2.696-6.985 3.849-2.794 1.153-6.09 1.73-9.89 1.73-4.024 0-7.843-.782-11.456-2.344-3.614-1.561-6.762-3.644-9.444-6.247a29.682 29.682 0 0 1-6.37-9.036 25.719 25.719 0 0 1-2.347-10.821zm88.481 21.754a21.851 21.851 0 0 1-4.023 3.346c-1.267.818-2.832 1.58-4.694 2.287-1.863.707-3.986 1.06-6.37 1.06-2.832 0-5.365-.428-7.6-1.283-2.236-.855-4.173-1.99-5.812-3.402-1.639-1.413-2.887-3.068-3.744-4.965a14.335 14.335 0 0 1-1.285-5.968c0-4.463 1.434-8.181 4.303-11.156 2.868-2.975 6.836-4.909 11.902-5.801l17.323-3.124c0-2.231-.8-4.09-2.403-5.578-1.602-1.487-3.967-2.23-7.097-2.23-2.16 0-3.986.297-5.476.892-1.49.595-2.757 1.227-3.8 1.896-1.192.818-2.198 1.748-3.017 2.789l-8.382-8.367c1.49-1.934 3.315-3.681 5.476-5.243 1.788-1.339 4.042-2.566 6.762-3.682 2.719-1.115 5.904-1.673 9.555-1.673 3.502 0 6.687.558 9.556 1.673 2.868 1.116 5.345 2.66 7.432 4.63a20.304 20.304 0 0 1 4.805 6.917c1.118 2.64 1.677 5.485 1.677 8.534v34.025H195.34v-5.577zm-11.176-5.578c3.353 0 6.054-1.06 8.103-3.18 2.049-2.12 3.073-5.15 3.073-9.092v-1.673l-12.294 2.23c-4.097.67-6.146 2.715-6.146 6.137 0 1.71.577 3.068 1.732 4.072s2.999 1.506 5.532 1.506zm68.365 12.271c-2.683 0-5.03-.39-7.041-1.171-2.012-.781-3.688-1.692-5.03-2.733a20.59 20.59 0 0 1-4.135-3.905v30.12h-15.087v-78.09h15.087v6.693a25.866 25.866 0 0 1 4.135-3.904c1.342-.967 3.018-1.86 5.03-2.678 2.011-.818 4.358-1.227 7.04-1.227 3.502 0 6.836.725 10.003 2.175a27.174 27.174 0 0 1 8.382 5.969c2.422 2.528 4.34 5.54 5.756 9.036 1.415 3.496 2.123 7.251 2.123 11.268 0 4.016-.708 7.771-2.123 11.267-1.416 3.496-3.334 6.508-5.756 9.036a27.174 27.174 0 0 1-8.382 5.969 23.746 23.746 0 0 1-10.002 2.175zm-2.795-43.508c-1.788 0-3.501.372-5.14 1.116a13.58 13.58 0 0 0-4.303 3.068c-1.23 1.301-2.198 2.881-2.906 4.74-.708 1.86-1.062 3.905-1.062 6.137 0 2.23.354 4.276 1.062 6.135.708 1.86 1.676 3.44 2.906 4.742a13.58 13.58 0 0 0 4.303 3.067 12.305 12.305 0 0 0 5.14 1.116c1.789 0 3.502-.372 5.141-1.116a13.58 13.58 0 0 0 4.303-3.067c1.23-1.302 2.198-2.882 2.906-4.742.708-1.86 1.062-3.904 1.062-6.135 0-2.232-.354-4.277-1.062-6.136-.708-1.86-1.676-3.44-2.906-4.741a13.58 13.58 0 0 0-4.303-3.068 12.305 12.305 0 0 0-5.14-1.116zm66.689 36.815a21.851 21.851 0 0 1-4.024 3.346c-1.266.818-2.831 1.58-4.694 2.287-1.862.707-3.986 1.06-6.37 1.06-2.831 0-5.365-.428-7.6-1.283-2.235-.855-4.172-1.99-5.811-3.402-1.64-1.413-2.887-3.068-3.744-4.965a14.335 14.335 0 0 1-1.286-5.968c0-4.463 1.435-8.181 4.303-11.156 2.869-2.975 6.836-4.909 11.903-5.801l17.323-3.124c0-2.231-.801-4.09-2.403-5.578-1.602-1.487-3.968-2.23-7.097-2.23-2.16 0-3.986.297-5.476.892-1.49.595-2.757 1.227-3.8 1.896-1.192.818-2.198 1.748-3.018 2.789l-8.382-8.367c1.49-1.934 3.316-3.681 5.477-5.243 1.788-1.339 4.042-2.566 6.761-3.682 2.72-1.115 5.905-1.673 9.556-1.673 3.501 0 6.687.558 9.555 1.673 2.869 1.116 5.346 2.66 7.432 4.63a20.304 20.304 0 0 1 4.806 6.917c1.117 2.64 1.676 5.485 1.676 8.534v34.025h-15.087v-5.577zm-11.176-5.578c3.352 0 6.053-1.06 8.102-3.18 2.05-2.12 3.074-5.15 3.074-9.092v-1.673l-12.294 2.23c-4.098.67-6.147 2.715-6.147 6.137 0 1.71.578 3.068 1.732 4.072 1.155 1.004 3 1.506 5.533 1.506zM374.17 82.77c3.502 0 6.836.725 10.002 2.175a27.174 27.174 0 0 1 8.382 5.969c2.422 2.528 4.34 5.54 5.756 9.036 1.416 3.496 2.123 7.251 2.123 11.268 0 4.016-.707 7.771-2.123 11.267-1.416 3.496-3.334 6.508-5.756 9.036a27.174 27.174 0 0 1-8.382 5.969 23.746 23.746 0 0 1-10.002 2.175c-2.682 0-5.03-.39-7.041-1.171-2.012-.781-3.688-1.692-5.03-2.733a20.59 20.59 0 0 1-4.134-3.905v6.693h-15.088V60.46h15.088v30.12a25.866 25.866 0 0 1 4.135-3.904c1.34-.967 3.017-1.86 5.029-2.678 2.012-.818 4.359-1.227 7.04-1.227zm-2.794 43.508c1.788 0 3.502-.372 5.14-1.116a13.58 13.58 0 0 0 4.304-3.067c1.229-1.302 2.198-2.882 2.905-4.742.708-1.86 1.062-3.904 1.062-6.135 0-2.232-.354-4.277-1.062-6.136-.707-1.86-1.676-3.44-2.905-4.741a13.58 13.58 0 0 0-4.303-3.068 12.305 12.305 0 0 0-5.141-1.116c-1.788 0-3.502.372-5.141 1.116a13.58 13.58 0 0 0-4.303 3.068c-1.23 1.301-2.198 2.881-2.906 4.74-.708 1.86-1.061 3.905-1.061 6.137 0 2.23.353 4.276 1.061 6.135.708 1.86 1.677 3.44 2.906 4.742a13.58 13.58 0 0 0 4.303 3.067 12.305 12.305 0 0 0 5.14 1.116zm52.16 12.271h-15.089V83.887h15.088v54.663zm1.117-70.282c0 2.529-.783 4.556-2.347 6.08-1.565 1.525-3.763 2.287-6.594 2.287-2.533 0-4.564-.762-6.091-2.287-1.527-1.524-2.291-3.551-2.291-6.08 0-2.528.764-4.555 2.29-6.08 1.528-1.524 3.559-2.287 6.092-2.287 2.831 0 5.03.763 6.594 2.287 1.564 1.525 2.347 3.552 2.347 6.08zm25.895 70.282h-15.087V60.46h15.087v78.09zm27.013 0h-15.087V83.887h15.087v54.663zm1.118-70.282c0 2.529-.782 4.556-2.347 6.08-1.565 1.525-3.763 2.287-6.594 2.287-2.533 0-4.563-.762-6.09-2.287-1.528-1.524-2.292-3.551-2.292-6.08 0-2.528.764-4.555 2.291-6.08 1.528-1.524 3.558-2.287 6.091-2.287 2.831 0 5.03.763 6.594 2.287 1.565 1.525 2.347 3.552 2.347 6.08zm16.955-.557h13.411v17.291h11.176V98.39h-11.176v21.754c0 1.71.633 3.161 1.9 4.351s2.868 1.785 4.806 1.785c1.564 0 2.905-.186 4.023-.558a7.66 7.66 0 0 0 1.565-.558v12.83a70.32 70.32 0 0 1-2.906.892c-.894.223-1.956.41-3.185.558-1.23.149-2.552.223-3.968.223-5.588 0-9.872-1.543-12.852-4.63-2.98-3.086-4.47-7.864-4.47-14.335V98.389h-9.5V85.002h5.029c1.714 0 3.166-.65 4.359-1.952 1.192-1.302 1.788-3.068 1.788-5.3V67.71zm50.483 70.84h-15.088V83.886h15.088v54.663zm1.117-70.283c0 2.529-.782 4.556-2.347 6.08-1.564 1.525-3.762 2.287-6.594 2.287-2.533 0-4.563-.762-6.09-2.287-1.528-1.524-2.292-3.551-2.292-6.08 0-2.528.764-4.555 2.291-6.08 1.528-1.524 3.558-2.287 6.091-2.287 2.832 0 5.03.763 6.594 2.287 1.565 1.525 2.347 3.552 2.347 6.08zm22.543 47.97c.596 2.827 2.105 5.3 4.526 7.42 2.422 2.119 5.756 3.179 10.003 3.179 2.384 0 4.47-.353 6.258-1.06 1.789-.707 3.316-1.469 4.583-2.287a17.652 17.652 0 0 0 3.688-3.347l7.823 10.04c-1.64 1.86-3.65 3.459-6.035 4.798-2.012 1.19-4.47 2.268-7.376 3.235-2.906.967-6.259 1.45-10.059 1.45-4.023 0-7.804-.744-11.343-2.231-3.54-1.488-6.632-3.533-9.277-6.136a28.562 28.562 0 0 1-6.202-9.036c-1.49-3.421-2.235-7.103-2.235-11.044 0-3.868.745-7.53 2.235-10.989 1.49-3.458 3.539-6.489 6.147-9.092a29.078 29.078 0 0 1 9.052-6.136c3.427-1.487 7.116-2.231 11.064-2.231 3.875 0 7.488.688 10.841 2.064 3.353 1.376 6.259 3.29 8.717 5.745 2.46 2.454 4.378 5.355 5.756 8.702 1.379 3.347 2.068 6.954 2.068 10.82a27.39 27.39 0 0 1-.112 2.678 46.197 46.197 0 0 1-.224 1.897 39.186 39.186 0 0 1-.223 1.562h-39.675zM582.629 95.6c-3.352 0-6.128.967-8.326 2.9-2.198 1.934-3.706 4.314-4.526 7.14h25.146c-.596-2.826-1.956-5.206-4.08-7.14-2.123-1.933-4.86-2.9-8.214-2.9zm65.012 4.463a13.398 13.398 0 0 0-2.347-2.232c-.82-.595-1.77-1.115-2.85-1.561-1.08-.447-2.328-.67-3.744-.67-2.235 0-3.911.465-5.029 1.395-1.118.93-1.676 1.952-1.676 3.068 0 1.264.614 2.287 1.844 3.067 1.23.781 2.775 1.488 4.638 2.12 1.862.632 3.893 1.302 6.09 2.008a24.814 24.814 0 0 1 6.092 2.9c1.862 1.228 3.408 2.808 4.638 4.742 1.229 1.934 1.844 4.425 1.844 7.474 0 2.38-.485 4.612-1.453 6.694-.969 2.082-2.366 3.905-4.191 5.466-1.826 1.562-4.098 2.808-6.818 3.738-2.72.93-5.83 1.394-9.332 1.394-3.948 0-7.338-.52-10.17-1.562-2.831-1.041-5.14-2.194-6.929-3.458-2.16-1.413-3.911-3.087-5.253-5.02l8.382-8.367a15.554 15.554 0 0 0 3.13 3.123c1.043.819 2.272 1.525 3.688 2.12 1.415.595 3.055.893 4.917.893 2.533 0 4.378-.484 5.532-1.45 1.155-.968 1.733-2.157 1.733-3.57 0-1.414-.615-2.51-1.844-3.292-1.23-.78-2.776-1.506-4.638-2.175a190.21 190.21 0 0 0-6.091-2.064 26.083 26.083 0 0 1-6.091-2.845 15.525 15.525 0 0 1-4.638-4.573c-1.23-1.86-1.844-4.314-1.844-7.363 0-2.083.521-4.165 1.564-6.248 1.043-2.082 2.515-3.941 4.415-5.578 1.9-1.636 4.154-2.956 6.761-3.96 2.608-1.004 5.44-1.506 8.494-1.506 3.204 0 5.998.446 8.382 1.339 2.384.892 4.359 1.859 5.923 2.9 1.863 1.265 3.428 2.64 4.694 4.128l-7.823 8.925z"/></g></svg>