<svg xmlns="http://www.w3.org/2000/svg" width="1100" height="300"><g fill="none"><path fill="#FFF" d="M60.128 5.485c1.098 0 2.107.187 3.03.56a7.373 7.373 0 0 1 2.381 1.524 6.876 6.876 0 0 1 1.559 2.276c.373.876.56 1.815.56 2.82a7.8 7.8 0 0 1-.228 1.96 6.476 6.476 0 0 1-.613 1.559 5.817 5.817 0 0 1-.875 1.19 6.194 6.194 0 0 1-1.016.859 7.741 7.741 0 0 1-2.696 1.26L68.183 30h-1.926l-5.779-10.156h-7.88V30h-1.75V5.485h9.28zm-7.53 1.75v10.858h7.53c.864 0 1.652-.135 2.364-.403a5.517 5.517 0 0 0 1.839-1.12 4.737 4.737 0 0 0 1.173-1.717 5.797 5.797 0 0 0 .403-2.189c0-.794-.134-1.523-.403-2.189a4.737 4.737 0 0 0-1.173-1.716 5.517 5.517 0 0 0-1.839-1.12c-.712-.269-1.5-.403-2.364-.403h-7.53zm19.7 15.06a6.55 6.55 0 0 0 .63 2.504 7.025 7.025 0 0 0 3.52 3.45c.781.35 1.616.525 2.503.525.91 0 1.716-.152 2.417-.455.7-.304 1.284-.642 1.75-1.016.561-.42 1.04-.91 1.437-1.47l1.05 1.015a8.517 8.517 0 0 1-1.68 1.751c-.561.444-1.256.846-2.085 1.208-.828.362-1.791.543-2.889.543a7.43 7.43 0 0 1-3.134-.683 8.66 8.66 0 0 1-4.43-4.623c-.444-1.062-.666-2.212-.666-3.45a8.9 8.9 0 0 1 .666-3.431 8.905 8.905 0 0 1 1.786-2.785 8.576 8.576 0 0 1 2.574-1.856 7.043 7.043 0 0 1 3.03-.683c1.05 0 2.042.21 2.976.63a7.37 7.37 0 0 1 2.451 1.787c.7.77 1.255 1.693 1.664 2.767.409 1.074.613 2.264.613 3.572v.7H72.297zm6.478-7.88c-.84 0-1.64.175-2.399.526a7.364 7.364 0 0 0-2.031 1.383 6.806 6.806 0 0 0-1.436 1.996 6.337 6.337 0 0 0-.613 2.4h12.608a7.372 7.372 0 0 0-.56-2.522A6.382 6.382 0 0 0 83.03 16.2a5.997 5.997 0 0 0-1.908-1.313 5.812 5.812 0 0 0-2.347-.473zM90.42 13.19h1.576V30H90.42V13.19zm-.35-5.954c0-.35.116-.642.35-.876.233-.233.525-.35.875-.35s.642.117.876.35c.233.234.35.526.35.876s-.117.642-.35.875c-.234.234-.526.35-.876.35s-.642-.116-.875-.35a1.188 1.188 0 0 1-.35-.875zm8.841 8.93a6.207 6.207 0 0 1 1.296-1.646c.467-.42 1.068-.805 1.804-1.155.735-.35 1.628-.526 2.679-.526.957 0 1.85.175 2.679.526.829.35 1.553.846 2.171 1.488a6.973 6.973 0 0 1 1.454 2.277c.35.875.525 1.838.525 2.889V30h-1.576v-9.981c0-.84-.134-1.605-.403-2.294a5.346 5.346 0 0 0-1.103-1.769 4.856 4.856 0 0 0-1.663-1.138 5.346 5.346 0 0 0-2.084-.403c-.794 0-1.541.158-2.242.473-.7.315-1.313.741-1.838 1.278a5.847 5.847 0 0 0-1.243 1.944 6.492 6.492 0 0 0-.456 2.434V30h-1.576V13.19h1.576v2.976zM120.886 30l-6.829-16.81h1.751l5.954 14.709 5.953-14.71h1.751L122.637 30h-1.75zm11.644-7.705a6.55 6.55 0 0 0 .63 2.504 7.025 7.025 0 0 0 3.52 3.45c.782.35 1.617.525 2.504.525.91 0 1.716-.152 2.416-.455.7-.304 1.284-.642 1.751-1.016.56-.42 1.04-.91 1.436-1.47l1.051 1.015a8.517 8.517 0 0 1-1.681 1.751c-.56.444-1.255.846-2.084 1.208-.829.362-1.792.543-2.89.543a7.43 7.43 0 0 1-3.134-.683 8.66 8.66 0 0 1-4.43-4.623c-.443-1.062-.665-2.212-.665-3.45a8.9 8.9 0 0 1 .665-3.431 8.905 8.905 0 0 1 1.786-2.785 8.576 8.576 0 0 1 2.574-1.856 7.043 7.043 0 0 1 3.03-.683c1.05 0 2.043.21 2.977.63a7.37 7.37 0 0 1 2.451 1.787c.7.77 1.255 1.693 1.664 2.767.408 1.074.613 2.264.613 3.572v.7H132.53zm6.479-7.88c-.84 0-1.64.175-2.4.526a7.364 7.364 0 0 0-2.03 1.383 6.806 6.806 0 0 0-1.436 1.996 6.337 6.337 0 0 0-.613 2.4h12.608a7.372 7.372 0 0 0-.56-2.522 6.382 6.382 0 0 0-1.314-1.997 5.997 5.997 0 0 0-1.909-1.313 5.812 5.812 0 0 0-2.346-.473zm13.22 1.751a6.207 6.207 0 0 1 1.295-1.646c.467-.42 1.068-.805 1.804-1.155.735-.35 1.628-.526 2.679-.526.957 0 1.85.175 2.679.526.829.35 1.553.846 2.171 1.488a6.973 6.973 0 0 1 1.454 2.277c.35.875.525 1.838.525 2.889V30h-1.576v-9.981c0-.84-.134-1.605-.403-2.294a5.346 5.346 0 0 0-1.103-1.769 4.856 4.856 0 0 0-1.663-1.138 5.346 5.346 0 0 0-2.084-.403c-.794 0-1.541.158-2.242.473-.7.315-1.313.741-1.838 1.278a5.847 5.847 0 0 0-1.243 1.944 6.492 6.492 0 0 0-.456 2.434V30h-1.576V13.19h1.576v2.976zm18.997-8.58h1.401v5.604h3.853v1.576h-3.853v11.031c0 .981.24 1.722.718 2.224.479.502 1.115.753 1.909.753a5.32 5.32 0 0 0 1.61-.245c.258-.093.48-.187.666-.28v1.576a6.369 6.369 0 0 1-.665.28 5.32 5.32 0 0 1-1.611.245c-1.331 0-2.364-.385-3.1-1.155-.735-.771-1.103-1.903-1.103-3.398V14.766h-3.327V13.19h2.277c.35 0 .642-.123.875-.368.234-.245.35-.59.35-1.033V7.586zm16.984 14.009c0 1.004.18 1.943.542 2.819a7.378 7.378 0 0 0 1.454 2.276 7.075 7.075 0 0 0 2.066 1.524c.77.373 1.576.56 2.417.56a5.11 5.11 0 0 0 2.311-.56 7.009 7.009 0 0 0 2.014-1.524 7.555 7.555 0 0 0 1.436-2.276 7.307 7.307 0 0 0 .542-2.82c0-1.003-.18-1.943-.542-2.818a7.555 7.555 0 0 0-1.436-2.277A7.009 7.009 0 0 0 197 14.976a5.11 5.11 0 0 0-2.311-.56c-.841 0-1.646.186-2.417.56-.77.373-1.46.881-2.066 1.523a7.378 7.378 0 0 0-1.454 2.277 7.307 7.307 0 0 0-.542 2.819zm0-5.078a8.511 8.511 0 0 1 1.61-1.821c.538-.467 1.203-.894 1.997-1.279.794-.385 1.75-.578 2.872-.578 1.004 0 1.978.228 2.924.683a8.499 8.499 0 0 1 2.521 1.856c.736.783 1.325 1.71 1.769 2.785a8.9 8.9 0 0 1 .665 3.432c0 1.237-.221 2.387-.665 3.45a9.13 9.13 0 0 1-1.769 2.766 8.499 8.499 0 0 1-2.521 1.856 6.668 6.668 0 0 1-2.924.683c-1.121 0-2.078-.187-2.872-.56-.794-.374-1.46-.794-1.996-1.26a8.16 8.16 0 0 1-1.611-1.857V30h-1.576V5.485h1.576v11.032zm30.905 10.506c-.35.63-.794 1.19-1.33 1.681-.468.42-1.063.8-1.787 1.138-.724.339-1.61.508-2.662.508a6.94 6.94 0 0 1-2.696-.525 6.267 6.267 0 0 1-2.172-1.489 7.127 7.127 0 0 1-1.435-2.276c-.35-.875-.526-1.839-.526-2.89v-9.98h1.576v9.98c0 .841.134 1.606.403 2.295a5.346 5.346 0 0 0 1.103 1.768c.467.49 1.022.87 1.664 1.138a5.346 5.346 0 0 0 2.083.403c.794 0 1.541-.157 2.242-.473a5.979 5.979 0 0 0 1.838-1.278c.526-.537.94-1.179 1.244-1.926a6.453 6.453 0 0 0 .455-2.452V13.19h1.576V30h-1.576v-2.977zm15.146-10.506a4.81 4.81 0 0 0-1.016-1.051c-.327-.257-.747-.496-1.26-.718-.514-.222-1.098-.333-1.752-.333-1.237 0-2.189.304-2.854.91-.665.608-.998 1.297-.998 2.067 0 .677.24 1.208.718 1.594.478.385 1.074.706 1.786.963a28.67 28.67 0 0 0 2.311.718c.83.222 1.6.513 2.312.875a5.496 5.496 0 0 1 1.786 1.419c.479.583.718 1.354.718 2.311a4.74 4.74 0 0 1-1.611 3.59c-.514.455-1.138.817-1.874 1.085-.735.269-1.558.403-2.469.403-.98 0-1.833-.146-2.556-.438a9.806 9.806 0 0 1-1.857-.963 7.454 7.454 0 0 1-1.54-1.4l1.225-1.226c.374.467.794.875 1.261 1.225.397.327.887.613 1.47.859.585.245 1.25.367 1.997.367 1.401 0 2.48-.338 3.24-1.015.758-.677 1.138-1.506 1.138-2.487 0-.7-.24-1.249-.718-1.646-.479-.397-1.074-.735-1.786-1.016a21.491 21.491 0 0 0-2.312-.753A12.61 12.61 0 0 1 227.31 21a5.514 5.514 0 0 1-1.786-1.365c-.479-.56-.718-1.308-.718-2.242 0-.56.134-1.115.403-1.663a4.835 4.835 0 0 1 1.12-1.471 5.471 5.471 0 0 1 1.716-1.033 6.03 6.03 0 0 1 2.19-.386c.816 0 1.552.129 2.206.386a9.389 9.389 0 0 1 1.68.84c.538.374.993.782 1.367 1.226l-1.226 1.226zm5.69-3.327h1.576V30h-1.576V13.19zm-.35-5.954c0-.35.116-.642.35-.876.233-.233.525-.35.875-.35s.642.117.876.35c.233.234.35.526.35.876s-.117.642-.35.875c-.234.234-.526.35-.876.35s-.642-.116-.875-.35a1.188 1.188 0 0 1-.35-.875zm8.841 8.93a6.207 6.207 0 0 1 1.296-1.646c.467-.42 1.068-.805 1.804-1.155.735-.35 1.628-.526 2.679-.526.957 0 1.85.175 2.679.526.829.35 1.553.846 2.171 1.488a6.973 6.973 0 0 1 1.454 2.277c.35.875.525 1.838.525 2.889V30h-1.576v-9.981c0-.84-.134-1.605-.403-2.294a5.346 5.346 0 0 0-1.103-1.769 4.856 4.856 0 0 0-1.663-1.138 5.346 5.346 0 0 0-2.084-.403c-.794 0-1.541.158-2.242.473-.7.315-1.313.741-1.838 1.278a5.847 5.847 0 0 0-1.244 1.944 6.492 6.492 0 0 0-.455 2.434V30h-1.576V13.19h1.576v2.976zm17.773 6.13a6.55 6.55 0 0 0 .63 2.503 7.025 7.025 0 0 0 3.52 3.45c.782.35 1.616.525 2.504.525.91 0 1.716-.152 2.416-.455.7-.304 1.284-.642 1.751-1.016.56-.42 1.04-.91 1.436-1.47l1.05 1.015a8.517 8.517 0 0 1-1.68 1.751c-.56.444-1.255.846-2.084 1.208-.829.362-1.792.543-2.89.543a7.43 7.43 0 0 1-3.134-.683 8.66 8.66 0 0 1-4.43-4.623c-.444-1.062-.665-2.212-.665-3.45a8.9 8.9 0 0 1 .665-3.431 8.905 8.905 0 0 1 1.786-2.785 8.576 8.576 0 0 1 2.574-1.856 7.043 7.043 0 0 1 3.03-.683c1.05 0 2.042.21 2.976.63a7.37 7.37 0 0 1 2.452 1.787c.7.77 1.255 1.693 1.663 2.767.41 1.074.613 2.264.613 3.572v.7h-14.183zm6.479-7.88c-.841 0-1.64.174-2.4.525a7.364 7.364 0 0 0-2.03 1.383 6.806 6.806 0 0 0-1.437 1.996 6.337 6.337 0 0 0-.612 2.4h12.607a7.372 7.372 0 0 0-.56-2.522 6.382 6.382 0 0 0-1.313-1.997 5.997 5.997 0 0 0-1.909-1.313 5.812 5.812 0 0 0-2.346-.473zm20.048 2.1a4.81 4.81 0 0 0-1.015-1.05c-.327-.257-.747-.496-1.261-.718-.514-.222-1.097-.333-1.751-.333-1.238 0-2.189.304-2.854.91-.666.608-.999 1.297-.999 2.067 0 .677.24 1.208.718 1.594.479.385 1.074.706 1.786.963a28.67 28.67 0 0 0 2.312.718c.829.222 1.6.513 2.311.875a5.496 5.496 0 0 1 1.786 1.419c.48.583.718 1.354.718 2.311a4.74 4.74 0 0 1-1.61 3.59c-.514.455-1.139.817-1.874 1.085-.736.269-1.559.403-2.47.403-.98 0-1.832-.146-2.556-.438a9.806 9.806 0 0 1-1.856-.963 7.454 7.454 0 0 1-1.541-1.4l1.226-1.226c.373.467.794.875 1.26 1.225.397.327.888.613 1.471.859.584.245 1.25.367 1.997.367 1.4 0 2.48-.338 3.24-1.015.758-.677 1.137-1.506 1.137-2.487 0-.7-.239-1.249-.718-1.646-.478-.397-1.074-.735-1.786-1.016a21.491 21.491 0 0 0-2.311-.753A12.61 12.61 0 0 1 285.79 21a5.514 5.514 0 0 1-1.787-1.365c-.478-.56-.718-1.308-.718-2.242 0-.56.135-1.115.403-1.663a4.835 4.835 0 0 1 1.12-1.471 5.471 5.471 0 0 1 1.717-1.033 6.03 6.03 0 0 1 2.189-.386c.817 0 1.552.129 2.206.386a9.389 9.389 0 0 1 1.681.84c.537.374.993.782 1.366 1.226l-1.226 1.226zm14.095 0a4.81 4.81 0 0 0-1.015-1.05c-.327-.257-.747-.496-1.261-.718-.514-.222-1.097-.333-1.751-.333-1.238 0-2.189.304-2.854.91-.666.608-.998 1.297-.998 2.067 0 .677.239 1.208.717 1.594.48.385 1.074.706 1.787.963a28.67 28.67 0 0 0 2.311.718c.829.222 1.6.513 2.311.875a5.496 5.496 0 0 1 1.787 1.419c.478.583.717 1.354.717 2.311a4.74 4.74 0 0 1-1.61 3.59c-.514.455-1.139.817-1.874 1.085-.736.269-1.559.403-2.47.403-.98 0-1.832-.146-2.556-.438a9.806 9.806 0 0 1-1.856-.963 7.454 7.454 0 0 1-1.54-1.4l1.225-1.226c.373.467.794.875 1.26 1.225.398.327.888.613 1.472.859.583.245 1.249.367 1.996.367 1.4 0 2.48-.338 3.24-1.015.758-.677 1.137-1.506 1.137-2.487 0-.7-.239-1.249-.717-1.646-.48-.397-1.074-.735-1.787-1.016a21.491 21.491 0 0 0-2.311-.753 12.61 12.61 0 0 1-2.311-.858 5.514 5.514 0 0 1-1.787-1.365c-.478-.56-.717-1.308-.717-2.242 0-.56.134-1.115.402-1.663a4.835 4.835 0 0 1 1.121-1.471 5.471 5.471 0 0 1 1.716-1.033 6.03 6.03 0 0 1 2.189-.386c.817 0 1.553.129 2.206.386a9.389 9.389 0 0 1 1.681.84c.537.374.993.782 1.366 1.226l-1.226 1.226zm9.804 5.079a8.9 8.9 0 0 1 .666-3.432 8.594 8.594 0 0 1 1.82-2.785 8.75 8.75 0 0 1 2.68-1.856 7.83 7.83 0 0 1 3.24-.683 7.83 7.83 0 0 1 3.239.683 8.75 8.75 0 0 1 2.679 1.856 8.594 8.594 0 0 1 1.821 2.785 8.9 8.9 0 0 1 .666 3.432c0 1.237-.222 2.387-.666 3.45a8.642 8.642 0 0 1-1.821 2.766 8.75 8.75 0 0 1-2.68 1.856 7.83 7.83 0 0 1-3.239.683 7.83 7.83 0 0 1-3.24-.683 8.75 8.75 0 0 1-2.678-1.856 8.642 8.642 0 0 1-1.821-2.767c-.444-1.062-.666-2.212-.666-3.45zm15.235 0c0-1.004-.181-1.944-.543-2.82a7.06 7.06 0 0 0-3.678-3.8 6.28 6.28 0 0 0-2.609-.56c-.91 0-1.78.187-2.609.56a7.06 7.06 0 0 0-3.677 3.8 7.307 7.307 0 0 0-.543 2.82c0 1.004.181 1.943.543 2.819a7.06 7.06 0 0 0 3.677 3.8 6.28 6.28 0 0 0 2.61.56c.91 0 1.78-.187 2.608-.56a7.06 7.06 0 0 0 3.677-3.8 7.307 7.307 0 0 0 .544-2.82zm7.09 0c0 1.004.181 1.943.543 2.819a7.378 7.378 0 0 0 1.454 2.276 7.075 7.075 0 0 0 2.066 1.524c.77.373 1.576.56 2.416.56a5.11 5.11 0 0 0 2.312-.56 7.009 7.009 0 0 0 2.013-1.524 7.555 7.555 0 0 0 1.436-2.276 7.307 7.307 0 0 0 .543-2.82c0-1.003-.18-1.943-.543-2.818a7.555 7.555 0 0 0-1.436-2.277 7.009 7.009 0 0 0-2.013-1.523 5.11 5.11 0 0 0-2.312-.56c-.84 0-1.646.186-2.416.56-.77.373-1.46.881-2.066 1.523a7.378 7.378 0 0 0-1.454 2.277 7.307 7.307 0 0 0-.543 2.819zm0 15.76h-1.576V13.19h1.576v3.327a8.511 8.511 0 0 1 1.611-1.821c.537-.467 1.203-.894 1.997-1.279.793-.385 1.75-.578 2.871-.578 1.004 0 1.979.228 2.925.683a8.499 8.499 0 0 1 2.521 1.856c.736.783 1.325 1.71 1.769 2.785a8.9 8.9 0 0 1 .665 3.432c0 1.237-.222 2.387-.665 3.45a9.13 9.13 0 0 1-1.769 2.766 8.499 8.499 0 0 1-2.521 1.856 6.668 6.668 0 0 1-2.925.683c-1.12 0-2.078-.187-2.871-.56-.794-.374-1.46-.794-1.997-1.26a8.16 8.16 0 0 1-1.61-1.857v10.682zm18.473-15.06a6.55 6.55 0 0 0 .63 2.504 7.025 7.025 0 0 0 3.52 3.45c.782.35 1.617.525 2.504.525.91 0 1.716-.152 2.417-.455.7-.304 1.284-.642 1.75-1.016.561-.42 1.04-.91 1.437-1.47l1.05 1.015a8.517 8.517 0 0 1-1.68 1.751c-.561.444-1.256.846-2.085 1.208-.828.362-1.791.543-2.889.543a7.43 7.43 0 0 1-3.134-.683 8.66 8.66 0 0 1-4.43-4.623c-.444-1.062-.666-2.212-.666-3.45a8.9 8.9 0 0 1 .666-3.431 8.905 8.905 0 0 1 1.786-2.785 8.576 8.576 0 0 1 2.574-1.856 7.043 7.043 0 0 1 3.03-.683c1.05 0 2.042.21 2.976.63a7.37 7.37 0 0 1 2.451 1.787c.7.77 1.255 1.693 1.664 2.767.409 1.074.613 2.264.613 3.572v.7h-14.184zm6.48-7.88c-.841 0-1.641.175-2.4.526a7.364 7.364 0 0 0-2.031 1.383 6.806 6.806 0 0 0-1.436 1.996 6.337 6.337 0 0 0-.613 2.4h12.608a7.372 7.372 0 0 0-.56-2.522 6.382 6.382 0 0 0-1.314-1.997 5.997 5.997 0 0 0-1.908-1.313 5.812 5.812 0 0 0-2.347-.473zm19.873 0h-.7a5.899 5.899 0 0 0-4.15 1.681 6.012 6.012 0 0 0-1.314 1.944c-.327.759-.49 1.594-.49 2.504V30h-1.576V13.19h1.576v2.801a5.635 5.635 0 0 1 1.33-1.576c.467-.397 1.074-.758 1.822-1.085.747-.327 1.68-.49 2.801-.49h.7v1.575zm12.694 5.078c0-.723-.123-1.395-.368-2.013a5.138 5.138 0 0 0-.998-1.611 4.527 4.527 0 0 0-1.488-1.068 4.522 4.522 0 0 0-1.874-.386c-.77 0-1.46.129-2.066.386a7.87 7.87 0 0 0-1.541.84c-.49.374-.922.782-1.296 1.226l-1.05-1.05a6.61 6.61 0 0 1 1.54-1.472c.514-.373 1.138-.718 1.874-1.033.735-.315 1.582-.473 2.539-.473.91 0 1.751.17 2.522.508.77.339 1.435.806 1.996 1.401.56.595.998 1.302 1.313 2.119.315.817.473 1.693.473 2.626V30h-1.576v-2.802a6.03 6.03 0 0 1-1.506 1.576c-.514.397-1.15.759-1.909 1.086-.758.327-1.663.49-2.714.49-.84 0-1.605-.128-2.294-.385a5.43 5.43 0 0 1-1.768-1.05 4.783 4.783 0 0 1-1.139-1.524 4.118 4.118 0 0 1-.402-1.769c0-1.33.45-2.445 1.348-3.344.899-.9 2.142-1.477 3.73-1.734l6.654-1.05zm-6.129 9.281c.864 0 1.675-.157 2.434-.473a5.928 5.928 0 0 0 1.944-1.278 5.973 5.973 0 0 0 1.278-1.926 6.243 6.243 0 0 0 .473-2.452V21.07l-6.304 1.051c-1.33.21-2.306.625-2.924 1.243-.619.62-.928 1.372-.928 2.26 0 .396.093.781.28 1.155.187.374.455.712.805 1.016.35.303.777.542 1.279.718a5.023 5.023 0 0 0 1.663.262zm14.095-21.188h1.401v5.604h3.852v1.576h-3.852v11.031c0 .981.24 1.722.718 2.224.479.502 1.115.753 1.909.753a5.32 5.32 0 0 0 1.61-.245c.258-.093.48-.187.666-.28v1.576a6.369 6.369 0 0 1-.665.28 5.32 5.32 0 0 1-1.611.245c-1.331 0-2.364-.385-3.1-1.155-.735-.771-1.103-1.903-1.103-3.398V14.766h-3.327V13.19h2.276c.35 0 .643-.123.876-.368.233-.245.35-.59.35-1.033V7.586zm9.893 5.604h1.576V30h-1.576V13.19zm-.35-5.954c0-.35.116-.642.35-.876.233-.233.525-.35.875-.35s.642.117.876.35c.233.234.35.526.35.876s-.117.642-.35.875c-.234.234-.526.35-.876.35s-.642-.116-.875-.35a1.188 1.188 0 0 1-.35-.875zm5.864 14.359a8.9 8.9 0 0 1 .666-3.432 8.594 8.594 0 0 1 1.821-2.785 8.75 8.75 0 0 1 2.68-1.856 7.83 7.83 0 0 1 3.239-.683 7.83 7.83 0 0 1 3.24.683 8.75 8.75 0 0 1 2.678 1.856 8.594 8.594 0 0 1 1.821 2.785 8.9 8.9 0 0 1 .666 3.432c0 1.237-.222 2.387-.666 3.45a8.642 8.642 0 0 1-1.82 2.766 8.75 8.75 0 0 1-2.68 1.856 7.83 7.83 0 0 1-3.24.683 7.83 7.83 0 0 1-3.239-.683 8.75 8.75 0 0 1-2.679-1.856 8.642 8.642 0 0 1-1.821-2.767c-.444-1.062-.666-2.212-.666-3.45zm15.235 0c0-1.004-.181-1.944-.543-2.82a7.06 7.06 0 0 0-3.677-3.8 6.28 6.28 0 0 0-2.61-.56c-.91 0-1.78.187-2.608.56a7.06 7.06 0 0 0-3.677 3.8 7.307 7.307 0 0 0-.544 2.82c0 1.004.181 1.943.543 2.819a7.06 7.06 0 0 0 3.678 3.8 6.28 6.28 0 0 0 2.609.56c.91 0 1.78-.187 2.609-.56a7.06 7.06 0 0 0 3.677-3.8 7.307 7.307 0 0 0 .543-2.82zm7.09-5.429a6.207 6.207 0 0 1 1.296-1.646c.467-.42 1.069-.805 1.804-1.155.735-.35 1.629-.526 2.68-.526.956 0 1.85.175 2.678.526.83.35 1.553.846 2.172 1.488a6.973 6.973 0 0 1 1.453 2.277c.35.875.525 1.838.525 2.889V30h-1.576v-9.981c0-.84-.134-1.605-.402-2.294a5.346 5.346 0 0 0-1.104-1.769 4.856 4.856 0 0 0-1.663-1.138 5.346 5.346 0 0 0-2.084-.403c-.794 0-1.54.158-2.241.473-.7.315-1.314.741-1.839 1.278a5.847 5.847 0 0 0-1.243 1.944 6.492 6.492 0 0 0-.455 2.434V30h-1.576V13.19h1.576v2.976zm26.003.35a4.81 4.81 0 0 0-1.016-1.05c-.326-.257-.747-.496-1.26-.718-.514-.222-1.098-.333-1.751-.333-1.238 0-2.19.304-2.855.91-.665.608-.998 1.297-.998 2.067 0 .677.24 1.208.718 1.594.479.385 1.074.706 1.786.963a28.67 28.67 0 0 0 2.312.718c.828.222 1.599.513 2.311.875a5.496 5.496 0 0 1 1.786 1.419c.479.583.718 1.354.718 2.311a4.74 4.74 0 0 1-1.61 3.59c-.515.455-1.14.817-1.875 1.085-.735.269-1.558.403-2.469.403-.98 0-1.832-.146-2.556-.438a9.806 9.806 0 0 1-1.856-.963 7.454 7.454 0 0 1-1.541-1.4l1.225-1.226c.374.467.794.875 1.261 1.225.397.327.887.613 1.471.859.584.245 1.25.367 1.996.367 1.401 0 2.481-.338 3.24-1.015.759-.677 1.138-1.506 1.138-2.487 0-.7-.24-1.249-.718-1.646-.478-.397-1.074-.735-1.786-1.016a21.491 21.491 0 0 0-2.311-.753 12.61 12.61 0 0 1-2.312-.858 5.514 5.514 0 0 1-1.786-1.365c-.479-.56-.718-1.308-.718-2.242 0-.56.134-1.115.403-1.663a4.835 4.835 0 0 1 1.12-1.471 5.471 5.471 0 0 1 1.717-1.033 6.03 6.03 0 0 1 2.189-.386c.817 0 1.552.129 2.206.386a9.389 9.389 0 0 1 1.68.84c.538.374.993.782 1.367 1.226l-1.226 1.226zm21.186-3.326l4.553 14.358 4.728-14.358h1.75L494.802 30h-1.576l-4.553-14.184L484.12 30h-1.576l-5.604-16.81h1.751l4.728 14.183 4.553-14.183h1.4zm13.92 0h1.576V30h-1.576V13.19zm-.35-5.954c0-.35.116-.642.35-.876.233-.233.525-.35.875-.35s.642.117.876.35c.233.234.35.526.35.876s-.117.642-.35.875c-.234.234-.525.35-.876.35-.35 0-.642-.116-.875-.35a1.188 1.188 0 0 1-.35-.875zm8.666.35h1.401v5.604h3.853v1.576h-3.853v11.031c0 .981.24 1.722.718 2.224.479.502 1.115.753 1.909.753a5.32 5.32 0 0 0 1.61-.245 6.37 6.37 0 0 0 .666-.28v1.576a6.37 6.37 0 0 1-.665.28 5.32 5.32 0 0 1-1.611.245c-1.331 0-2.364-.385-3.1-1.155-.735-.771-1.103-1.903-1.103-3.398V14.766h-3.327V13.19h2.276c.35 0 .643-.123.876-.368.234-.245.35-.59.35-1.033V7.586zm11.469 8.58a6.207 6.207 0 0 1 1.296-1.646c.466-.42 1.068-.805 1.803-1.155.736-.35 1.629-.526 2.68-.526.957 0 1.85.175 2.678.526.83.35 1.553.846 2.172 1.488a6.973 6.973 0 0 1 1.453 2.277c.35.875.526 1.838.526 2.889V30h-1.576v-9.981c0-.84-.135-1.605-.403-2.294a5.346 5.346 0 0 0-1.103-1.769 4.856 4.856 0 0 0-1.664-1.138 5.346 5.346 0 0 0-2.084-.403c-.794 0-1.54.158-2.241.473-.7.315-1.313.741-1.839 1.278a5.847 5.847 0 0 0-1.243 1.944 6.492 6.492 0 0 0-.455 2.434V30h-1.576V5.485h1.576v10.681z"/><path fill="#F4633A" d="M316.134 181.07c0-4.33-1.725-7.71-5.174-10.146-3.45-2.435-7.778-4.531-12.986-6.29a570.468 570.468 0 0 0-16.841-5.377c-6.02-1.826-11.634-4.295-16.842-7.406-5.208-3.111-9.536-7.203-12.986-12.276-3.45-5.073-5.174-11.87-5.174-20.392 0-5.546 1.15-10.856 3.45-15.928 2.3-5.073 5.613-9.503 9.942-13.29 4.329-3.788 9.57-6.798 15.725-9.03 6.155-2.232 13.02-3.348 20.595-3.348 7.846 0 14.677 1.014 20.494 3.044 5.817 2.029 10.686 4.26 14.61 6.696 4.463 2.84 8.318 6.02 11.565 9.536L324.25 116.14a43.335 43.335 0 0 0-7.101-6.087c-2.3-1.488-5.073-2.874-8.32-4.16-3.246-1.285-6.898-1.927-10.957-1.927-6.087 0-10.821 1.522-14.203 4.565-3.382 3.044-5.073 6.595-5.073 10.653 0 4.464 1.725 7.88 5.174 10.247 3.45 2.367 7.778 4.43 12.986 6.188a570.469 570.469 0 0 0 16.842 5.377c6.02 1.827 11.633 4.295 16.841 7.407 5.208 3.11 9.537 7.236 12.986 12.377 3.45 5.14 5.174 11.904 5.174 20.29 0 6.358-1.183 12.243-3.55 17.653-2.368 5.411-5.851 10.112-10.45 14.102-4.6 3.991-10.213 7.136-16.842 9.436-6.628 2.3-14.27 3.45-22.928 3.45-8.928 0-16.74-1.185-23.436-3.552-6.696-2.367-12.276-5.039-16.74-8.015-5.275-3.517-9.807-7.44-13.595-11.768l18.262-18.262c2.435 2.84 5.343 5.411 8.725 7.71 2.84 1.894 6.324 3.62 10.45 5.175 4.126 1.555 8.894 2.333 14.305 2.333 7.71 0 13.527-1.758 17.45-5.275 3.923-3.517 5.884-7.846 5.884-12.986zm67.568-8.117c0 3.788.643 7.305 1.928 10.551 1.285 3.247 3.043 6.02 5.275 8.32a25.462 25.462 0 0 0 7.812 5.478 22.307 22.307 0 0 0 9.334 2.03c3.246 0 6.358-.677 9.334-2.03a25.462 25.462 0 0 0 7.812-5.478c2.232-2.3 3.99-5.073 5.275-8.32 1.285-3.246 1.928-6.763 1.928-10.55 0-3.788-.643-7.305-1.928-10.552-1.285-3.246-3.043-6.02-5.275-8.32a25.462 25.462 0 0 0-7.812-5.478 22.307 22.307 0 0 0-9.334-2.029c-3.247 0-6.358.677-9.334 2.03a25.462 25.462 0 0 0-7.812 5.478c-2.232 2.3-3.99 5.073-5.275 8.32-1.285 3.246-1.928 6.763-1.928 10.55zm77.105 0c0 6.9-1.42 13.46-4.261 19.682-2.841 6.223-6.662 11.701-11.465 16.436-4.802 4.734-10.415 8.522-16.84 11.362-6.426 2.841-13.156 4.262-20.19 4.262-7.17 0-13.933-1.42-20.29-4.262-6.359-2.84-11.938-6.628-16.74-11.362-4.803-4.735-8.624-10.213-11.465-16.436-2.84-6.222-4.26-12.783-4.26-19.682 0-6.899 1.42-13.46 4.26-19.682 2.84-6.222 6.662-11.7 11.464-16.435 4.803-4.735 10.382-8.522 16.74-11.363 6.358-2.84 13.121-4.261 20.29-4.261 7.035 0 13.765 1.42 20.19 4.261 6.426 2.84 12.04 6.628 16.841 11.363 4.803 4.734 8.624 10.213 11.465 16.435 2.84 6.223 4.26 12.783 4.26 19.682zm40.175 49.712H473.59V80.631h27.392v142.034zm85.83-10.145c-2.03 2.3-4.464 4.329-7.305 6.087-2.435 1.488-5.41 2.875-8.928 4.16-3.517 1.285-7.575 1.928-12.174 1.928-5.546 0-10.686-.981-15.421-2.943-4.734-1.961-8.826-4.768-12.276-8.42-3.45-3.653-6.12-8.049-8.015-13.19-1.893-5.14-2.84-10.956-2.84-17.45v-59.451h27.392v56.814c0 5.681 1.792 10.314 5.377 13.9 3.585 3.584 8.218 5.376 13.9 5.376 6.086 0 10.99-1.961 14.71-5.884 3.72-3.923 5.58-9.74 5.58-17.45V123.24h27.392v99.424h-27.392V212.52zm58.437-118.7h24.349v31.45h20.29v24.349h-20.29v39.567c0 3.111 1.15 5.749 3.45 7.913 2.299 2.165 5.207 3.247 8.724 3.247 2.841 0 5.276-.338 7.305-1.015 1.082-.27 2.03-.609 2.84-1.014v23.334a127.499 127.499 0 0 1-5.275 1.623c-1.623.406-3.55.744-5.783 1.015-2.232.27-4.633.406-7.203.406-10.145 0-17.923-2.807-23.334-8.421-5.411-5.614-8.116-14.305-8.116-26.074V149.62h-17.248V125.27h9.131c3.112 0 5.75-1.184 7.914-3.55 2.164-2.368 3.246-5.58 3.246-9.639V93.82zm89.888 128.845h-27.393v-99.424h27.393v99.424zm2.029-127.83c0 4.598-1.42 8.284-4.261 11.057-2.84 2.774-6.831 4.16-11.972 4.16-4.599 0-8.285-1.386-11.058-4.16-2.773-2.773-4.16-6.459-4.16-11.058 0-4.6 1.387-8.285 4.16-11.058 2.773-2.773 6.46-4.16 11.058-4.16 5.14 0 9.131 1.387 11.972 4.16 2.84 2.773 4.261 6.459 4.261 11.058zm39.161 78.118c0 3.788.643 7.305 1.928 10.551 1.285 3.247 3.043 6.02 5.275 8.32a25.462 25.462 0 0 0 7.812 5.478 22.307 22.307 0 0 0 9.334 2.03c3.246 0 6.358-.677 9.334-2.03a25.462 25.462 0 0 0 7.812-5.478c2.231-2.3 3.99-5.073 5.275-8.32 1.285-3.246 1.928-6.763 1.928-10.55 0-3.788-.643-7.305-1.928-10.552-1.285-3.246-3.044-6.02-5.275-8.32a25.462 25.462 0 0 0-7.812-5.478 22.307 22.307 0 0 0-9.334-2.029c-3.247 0-6.358.677-9.334 2.03a25.462 25.462 0 0 0-7.812 5.478c-2.232 2.3-3.99 5.073-5.275 8.32-1.285 3.246-1.928 6.763-1.928 10.55zm77.105 0c0 6.9-1.42 13.46-4.261 19.682-2.841 6.223-6.662 11.701-11.465 16.436-4.802 4.734-10.415 8.522-16.84 11.362-6.426 2.841-13.156 4.262-20.19 4.262-7.17 0-13.933-1.42-20.29-4.262-6.359-2.84-11.938-6.628-16.74-11.362-4.803-4.735-8.624-10.213-11.465-16.436-2.84-6.222-4.26-12.783-4.26-19.682 0-6.899 1.42-13.46 4.26-19.682 2.84-6.222 6.662-11.7 11.464-16.435 4.803-4.735 10.382-8.522 16.74-11.363 6.358-2.84 13.121-4.261 20.29-4.261 7.035 0 13.765 1.42 20.19 4.261 6.426 2.84 12.04 6.628 16.841 11.363 4.803 4.734 8.624 10.213 11.465 16.435 2.84 6.223 4.26 12.783 4.26 19.682zm39.16-37.538c2.03-2.57 4.465-4.937 7.305-7.101 2.435-1.759 5.411-3.382 8.928-4.87 3.517-1.488 7.575-2.232 12.175-2.232 5.546 0 10.686.98 15.42 2.942a34.015 34.015 0 0 1 12.276 8.624c3.45 3.787 6.122 8.353 8.015 13.696 1.894 5.343 2.841 11.464 2.841 18.363v57.828H932.16v-54.784c0-6.088-1.793-10.991-5.377-14.711-3.585-3.72-8.218-5.58-13.9-5.58-6.087 0-10.99 1.961-14.71 5.884-3.72 3.923-5.58 9.74-5.58 17.45v51.741H865.2v-99.424h27.393v12.174zm139.6 17.248a24.343 24.343 0 0 0-4.26-4.059c-1.488-1.082-3.213-2.029-5.174-2.84-1.962-.812-4.228-1.218-6.798-1.218-4.058 0-7.102.846-9.13 2.537-2.03 1.69-3.044 3.55-3.044 5.58 0 2.3 1.116 4.16 3.348 5.58 2.232 1.42 5.039 2.705 8.42 3.855a722.714 722.714 0 0 0 11.059 3.652c3.99 1.285 7.676 3.044 11.058 5.276 3.382 2.232 6.189 5.106 8.42 8.623 2.233 3.517 3.349 8.049 3.349 13.595 0 4.329-.88 8.387-2.638 12.174-1.759 3.788-4.295 7.102-7.609 9.943-3.314 2.84-7.44 5.106-12.377 6.797-4.938 1.691-10.585 2.537-16.943 2.537-7.17 0-13.324-.947-18.465-2.841-5.14-1.894-9.333-3.99-12.58-6.29-3.923-2.57-7.102-5.614-9.536-9.131l15.218-15.218a28.265 28.265 0 0 0 5.681 5.681c1.894 1.488 4.126 2.773 6.696 3.856 2.57 1.082 5.546 1.623 8.928 1.623 4.6 0 7.947-.88 10.044-2.638 2.096-1.759 3.145-3.923 3.145-6.493 0-2.57-1.116-4.565-3.348-5.986-2.232-1.42-5.039-2.739-8.42-3.956a344.906 344.906 0 0 0-11.06-3.754c-3.99-1.285-7.676-3.01-11.058-5.174a28.211 28.211 0 0 1-8.42-8.32c-2.232-3.381-3.348-7.845-3.348-13.391 0-3.788.947-7.576 2.84-11.363 1.894-3.788 4.566-7.17 8.015-10.146 3.45-2.976 7.542-5.377 12.276-7.203 4.735-1.826 9.875-2.739 15.421-2.739 5.817 0 10.89.812 15.218 2.435 4.329 1.623 7.913 3.382 10.754 5.275 3.382 2.3 6.223 4.803 8.522 7.508l-14.203 16.233z"/><path fill="#FFF" d="M51.095 43.399h11.82v55.16h-11.82v-55.16zM83.19 64.675a15.738 15.738 0 0 1 2.837-2.758c.946-.683 2.101-1.314 3.467-1.892 1.366-.577 2.942-.866 4.728-.866 2.154 0 4.15.38 5.989 1.142a13.21 13.21 0 0 1 4.767 3.35c1.34 1.47 2.377 3.243 3.113 5.318.735 2.075 1.103 4.452 1.103 7.131v22.458H98.556V77.282c0-2.364-.696-4.268-2.088-5.712-1.392-1.445-3.191-2.167-5.398-2.167-2.364 0-4.268.761-5.713 2.285-1.444 1.523-2.167 3.782-2.167 6.776v20.094H72.552V59.947H83.19v4.728zm50.22-5.516c1.838 0 3.48.289 4.925.866 1.444.578 2.64 1.209 3.585 1.892 1.103.84 2.075 1.76 2.915 2.758V43.399h10.638v55.16h-10.638V93.83a14.529 14.529 0 0 1-2.915 2.758c-.946.736-2.14 1.38-3.585 1.93-1.445.552-3.087.828-4.925.828-2.47 0-4.82-.512-7.053-1.536a19.16 19.16 0 0 1-5.91-4.216c-1.707-1.786-3.06-3.914-4.058-6.383-.998-2.469-1.497-5.122-1.497-7.959 0-2.836.499-5.49 1.497-7.958.998-2.47 2.35-4.597 4.058-6.383a19.16 19.16 0 0 1 5.91-4.216 16.717 16.717 0 0 1 7.053-1.536zm1.97 30.731c1.26 0 2.469-.262 3.624-.788a9.575 9.575 0 0 0 3.034-2.167c.867-.919 1.55-2.035 2.049-3.349.499-1.313.748-2.758.748-4.334 0-1.576-.25-3.02-.748-4.334-.5-1.313-1.182-2.43-2.049-3.348a9.575 9.575 0 0 0-3.034-2.167 8.663 8.663 0 0 0-3.624-.788c-1.261 0-2.47.262-3.625.788a9.575 9.575 0 0 0-3.034 2.167c-.867.919-1.55 2.035-2.049 3.348-.499 1.314-.748 2.758-.748 4.334 0 1.576.25 3.021.748 4.334.5 1.314 1.182 2.43 2.05 3.35a9.575 9.575 0 0 0 3.033 2.166 8.663 8.663 0 0 0 3.625.788zm54.553 4.728a12.576 12.576 0 0 1-2.837 2.364c-.945.578-2.101 1.116-3.467 1.616-1.366.499-2.942.748-4.728.748-2.154 0-4.15-.38-5.989-1.142a13.677 13.677 0 0 1-4.767-3.27c-1.34-1.419-2.377-3.126-3.113-5.123-.735-1.996-1.103-4.255-1.103-6.776V59.947h10.638V82.01c0 2.207.696 4.006 2.088 5.398 1.392 1.392 3.192 2.088 5.398 2.088 2.364 0 4.268-.761 5.713-2.285 1.445-1.523 2.167-3.782 2.167-6.777V59.947h10.638v38.611h-10.638v-3.94zm40.37-23.245a9.454 9.454 0 0 0-1.655-1.576 9.72 9.72 0 0 0-2.01-1.104c-.761-.315-1.641-.472-2.64-.472-1.575 0-2.757.328-3.545.985-.788.656-1.182 1.379-1.182 2.167 0 .893.433 1.615 1.3 2.166.867.552 1.957 1.051 3.27 1.498 1.313.446 2.745.919 4.294 1.418 1.55.5 2.982 1.182 4.295 2.049a11.055 11.055 0 0 1 3.27 3.349c.867 1.366 1.3 3.125 1.3 5.28a11.09 11.09 0 0 1-1.024 4.727c-.683 1.471-1.668 2.758-2.955 3.861-1.287 1.104-2.89 1.983-4.807 2.64-1.917.657-4.11.985-6.58.985-2.784 0-5.174-.368-7.17-1.103-1.996-.736-3.625-1.55-4.886-2.443-1.523-.998-2.758-2.18-3.703-3.546l5.91-5.91c.63.84 1.366 1.576 2.206 2.207.736.578 1.602 1.077 2.6 1.497.999.42 2.154.63 3.468.63 1.786 0 3.086-.341 3.9-1.024.814-.683 1.222-1.524 1.222-2.522 0-.998-.434-1.773-1.3-2.324-.867-.552-1.958-1.064-3.27-1.537a133.944 133.944 0 0 0-4.295-1.458 18.375 18.375 0 0 1-4.295-2.009 10.956 10.956 0 0 1-3.27-3.23c-.867-1.314-1.3-3.048-1.3-5.201 0-1.471.367-2.942 1.103-4.413.735-1.471 1.773-2.784 3.113-3.94 1.34-1.156 2.928-2.088 4.767-2.798 1.838-.709 3.835-1.063 5.989-1.063 2.258 0 4.228.315 5.91.945 1.68.63 3.073 1.314 4.176 2.05 1.313.892 2.416 1.864 3.31 2.915l-5.517 6.304zm17.123-22.852h9.456v12.214h7.88v9.456h-7.88v15.365c0 1.209.447 2.233 1.34 3.073.893.841 2.022 1.261 3.388 1.261 1.103 0 2.049-.131 2.837-.394.42-.105.788-.236 1.103-.394v9.062c-.63.21-1.313.42-2.049.63-.63.158-1.379.29-2.246.395-.866.105-1.799.157-2.797.157-3.94 0-6.96-1.09-9.062-3.27-2.101-2.18-3.152-5.555-3.152-10.126V70.19h-6.698v-9.455h3.546c1.209 0 2.233-.46 3.074-1.38.84-.919 1.26-2.166 1.26-3.742V48.52zm48.25 21.67a24.538 24.538 0 0 0-2.01-.315 13.29 13.29 0 0 0-1.536-.08c-2.784 0-4.99.867-6.62 2.6-1.628 1.734-2.442 4.282-2.442 7.644v18.518H272.43V59.947h10.638v4.728a13.167 13.167 0 0 1 2.837-2.522c.945-.63 2.1-1.221 3.467-1.773 1.366-.552 2.942-.827 4.728-.827h1.576V70.19zm13.972 27.973l-14.972-38.217h11.032l9.062 25.61 9.061-25.61h11.032l-15.366 40.975c-1.786 4.78-3.887 8.34-6.303 10.677-2.417 2.338-5.306 3.507-8.668 3.507-.998 0-1.905-.053-2.719-.158a15.69 15.69 0 0 1-2.088-.394 39.82 39.82 0 0 1-1.891-.63v-9.456c.315.158.683.289 1.103.394.788.263 1.734.394 2.837.394 1.786 0 3.217-.42 4.294-1.26 1.077-.841 1.878-1.866 2.404-3.074l1.182-2.758zm69.707-43.733c0 2.154-.552 4.163-1.655 6.028-1.103 1.865-2.338 3.48-3.704 4.846a36.614 36.614 0 0 1-5.279 4.492l14.184 17.335c.735-1.208 1.392-2.6 1.97-4.176.473-1.366.919-2.981 1.34-4.846.42-1.865.63-3.98.63-6.343h3.546c0 2.784-.276 5.279-.828 7.485-.551 2.207-1.142 4.098-1.773 5.674-.735 1.839-1.576 3.493-2.521 4.964a16.926 16.926 0 0 0 2.206 2.758 12.364 12.364 0 0 0 2.285 1.93c.84.552 1.708.828 2.6.828.263 0 .54-.013.828-.04.289-.025.565-.065.827-.117.263-.053.5-.132.71-.237v3.546c-.21.105-.447.184-.71.237a7.838 7.838 0 0 1-.827.118c-.289.026-.565.04-.827.04a7.525 7.525 0 0 1-3.783-.986c-1.155-.657-2.154-1.379-2.994-2.167a26.424 26.424 0 0 1-2.68-3.152 14.873 14.873 0 0 1-3.624 3.389c-1.208.84-2.732 1.602-4.57 2.285-1.839.683-3.967 1.024-6.383 1.024-2.259 0-4.334-.368-6.225-1.103-1.891-.736-3.507-1.72-4.846-2.955a13.808 13.808 0 0 1-3.152-4.255 11.692 11.692 0 0 1-1.143-5.083c0-2.469.578-4.688 1.734-6.658 1.155-1.97 2.416-3.664 3.782-5.083a28.266 28.266 0 0 1 5.516-4.412 38.092 38.092 0 0 1-4.334-4.965 32.768 32.768 0 0 1-2.994-4.846c-.893-1.76-1.34-3.48-1.34-5.161 0-1.681.328-3.257.985-4.728a12.764 12.764 0 0 1 2.64-3.861 12.764 12.764 0 0 1 3.861-2.64c1.471-.657 3.047-.985 4.728-.985 1.681 0 3.244.302 4.689.906 1.444.604 2.692 1.432 3.742 2.482 1.051 1.051 1.878 2.299 2.483 3.743.604 1.445.906 3.008.906 4.689zm-13.396 17.73c-1.786 1.26-3.362 2.626-4.728 4.097-1.208 1.26-2.298 2.732-3.27 4.413-.972 1.68-1.458 3.44-1.458 5.28 0 2.784 1.025 5.121 3.073 7.012 2.05 1.892 4.965 2.837 8.747 2.837 1.996 0 3.756-.302 5.28-.906 1.523-.604 2.81-1.274 3.86-2.01a15.144 15.144 0 0 0 3.074-2.994l-14.578-17.73zm-7.092-17.336c0 1.366.407 2.797 1.221 4.294a25.41 25.41 0 0 0 2.719 4.058 48.475 48.475 0 0 0 3.94 4.256 48.423 48.423 0 0 0 4.492-4.098 24.162 24.162 0 0 0 3.151-4.137c.946-1.55 1.419-3.139 1.419-4.767 0-2.364-.788-4.334-2.364-5.91-1.576-1.576-3.546-2.364-5.91-2.364a8.16 8.16 0 0 0-3.388.71 9.201 9.201 0 0 0-2.758 1.89 8.637 8.637 0 0 0-1.852 2.758 8.375 8.375 0 0 0-.67 3.31zm79.163-11.426c2.837 0 5.464.473 7.88 1.418 2.417.946 4.505 2.26 6.265 3.94a17.831 17.831 0 0 1 4.097 5.91c.972 2.26 1.458 4.676 1.458 7.25 0 2.626-.486 5.069-1.458 7.328a17.409 17.409 0 0 1-4.097 5.87c-1.76 1.655-3.848 2.955-6.265 3.901-2.416.946-5.043 1.418-7.88 1.418h-11.426v18.124h-11.82v-55.16h23.246zm-11.426 10.638v15.76h11.032c1.156 0 2.246-.21 3.27-.63 1.025-.421 1.905-.986 2.64-1.695a7.833 7.833 0 0 0 1.734-2.482c.42-.946.63-1.97.63-3.073a7.48 7.48 0 0 0-.63-3.073 7.833 7.833 0 0 0-1.734-2.483c-.735-.709-1.615-1.274-2.64-1.694a8.531 8.531 0 0 0-3.27-.63h-11.032zm48.25 44.521h-10.638v-55.16h10.638v55.16zm29.731-3.94a15.413 15.413 0 0 1-2.836 2.364c-.893.578-1.997 1.116-3.31 1.616-1.313.499-2.81.748-4.491.748-1.997 0-3.783-.302-5.359-.906-1.576-.604-2.942-1.405-4.097-2.403a10.06 10.06 0 0 1-2.64-3.507 10.141 10.141 0 0 1-.906-4.216c0-3.152 1.011-5.778 3.034-7.88 2.022-2.1 4.82-3.467 8.392-4.097l12.213-2.207c0-1.575-.564-2.889-1.694-3.94-1.13-1.05-2.797-1.575-5.004-1.575-1.523 0-2.81.21-3.86.63-1.051.42-1.944.867-2.68 1.34a9.58 9.58 0 0 0-2.127 1.97l-5.91-5.91c1.05-1.366 2.337-2.6 3.86-3.704 1.262-.946 2.85-1.812 4.768-2.6 1.918-.788 4.163-1.182 6.737-1.182 2.47 0 4.715.394 6.738 1.182 2.022.788 3.769 1.878 5.24 3.27 1.47 1.392 2.6 3.02 3.388 4.885.788 1.865 1.182 3.875 1.182 6.028v24.034h-10.638v-3.94zm-7.88-3.94c2.364 0 4.269-.748 5.713-2.246 1.445-1.497 2.167-3.637 2.167-6.422v-1.182l-8.667 1.576c-2.89.473-4.334 1.918-4.334 4.334 0 1.209.407 2.167 1.221 2.876.814.71 2.114 1.064 3.9 1.064zm31.308-42.157h9.456v12.214h7.88v9.456h-7.88v15.365c0 1.209.447 2.233 1.34 3.073.893.841 2.022 1.261 3.388 1.261 1.103 0 2.049-.131 2.837-.394.42-.105.788-.236 1.103-.394v9.062c-.63.21-1.313.42-2.049.63-.63.158-1.379.29-2.246.395-.866.105-1.799.157-2.797.157-3.94 0-6.96-1.09-9.062-3.27-2.101-2.18-3.152-5.555-3.152-10.126V70.19h-6.698v-9.455h3.546c1.208 0 2.233-.46 3.073-1.38.84-.919 1.261-2.166 1.261-3.742V48.52zm46.674 22.064h-8.668v27.973H555.38V70.585h-5.516v-9.456h5.516v-5.122c0-4.57 1.05-7.946 3.152-10.126 2.101-2.18 5.122-3.27 9.062-3.27.998 0 1.93.066 2.797.197.867.131 1.615.276 2.246.433.735.21 1.418.394 2.049.552v9.062a32.183 32.183 0 0 1-1.104-.394 11.512 11.512 0 0 0-1.26-.276 9.627 9.627 0 0 0-1.576-.118c-1.366 0-2.496.42-3.389 1.26-.893.841-1.34 1.865-1.34 3.074v4.728h8.669v9.456zm13.577 8.667c0 1.471.25 2.837.75 4.098.498 1.26 1.181 2.338 2.048 3.23a9.888 9.888 0 0 0 3.034 2.128 8.663 8.663 0 0 0 3.624.788c1.261 0 2.47-.262 3.625-.788a9.888 9.888 0 0 0 3.034-2.127c.867-.893 1.55-1.97 2.049-3.231.499-1.26.748-2.627.748-4.098 0-1.47-.25-2.836-.748-4.097-.5-1.26-1.182-2.338-2.05-3.23a9.888 9.888 0 0 0-3.033-2.128 8.663 8.663 0 0 0-3.625-.788c-1.26 0-2.469.262-3.624.788a9.888 9.888 0 0 0-3.034 2.127c-.867.893-1.55 1.97-2.049 3.23-.499 1.262-.749 2.627-.749 4.098zm29.944 0c0 2.68-.552 5.227-1.655 7.644a21.31 21.31 0 0 1-4.452 6.383c-1.865 1.838-4.045 3.31-6.54 4.412a19.183 19.183 0 0 1-7.84 1.655c-2.785 0-5.411-.551-7.88-1.655-2.47-1.103-4.637-2.574-6.501-4.412a21.31 21.31 0 0 1-4.453-6.383 18.194 18.194 0 0 1-1.654-7.644c0-2.679.551-5.227 1.654-7.643a21.31 21.31 0 0 1 4.453-6.383c1.864-1.838 4.031-3.31 6.5-4.413 2.47-1.103 5.096-1.654 7.88-1.654 2.732 0 5.346.551 7.84 1.654 2.496 1.104 4.676 2.575 6.541 4.413a21.31 21.31 0 0 1 4.452 6.383 18.194 18.194 0 0 1 1.655 7.643zm28.944-9.061a24.538 24.538 0 0 0-2.01-.315 13.29 13.29 0 0 0-1.536-.08c-2.784 0-4.99.867-6.62 2.6-1.628 1.734-2.442 4.282-2.442 7.644v18.518h-10.638V59.947h10.638v4.728a13.167 13.167 0 0 1 2.837-2.522c.945-.63 2.101-1.221 3.467-1.773 1.366-.552 2.942-.827 4.728-.827h1.576V70.19zm51.795 7.091c0-2.574-.604-4.53-1.812-5.87-1.209-1.34-2.706-2.01-4.492-2.01-1.996 0-3.677.762-5.043 2.286-1.366 1.523-2.049 3.782-2.049 6.776v20.094h-10.638V77.282c0-2.574-.604-4.53-1.812-5.87-1.208-1.34-2.705-2.01-4.491-2.01-1.997 0-3.678.762-5.044 2.286-1.365 1.523-2.048 3.782-2.048 6.776v20.094H650.88V59.947h10.638v4.728a16.06 16.06 0 0 1 2.6-2.758c.893-.683 1.97-1.314 3.23-1.892 1.262-.577 2.732-.866 4.413-.866 2.05 0 3.77.354 5.162 1.063 1.392.71 2.534 1.485 3.428 2.325a11.766 11.766 0 0 1 2.442 3.31c.84-1.261 1.918-2.364 3.231-3.31 1.05-.84 2.39-1.615 4.019-2.325 1.628-.709 3.546-1.063 5.752-1.063 4.15 0 7.486 1.392 10.008 4.176 2.521 2.784 3.782 7.04 3.782 12.765v22.458h-10.638V77.282zm-278.543 175.65c1.532 0 2.9.241 4.104.723 1.204.482 2.2 1.007 2.988 1.576.92.7 1.73 1.466 2.43 2.298V239.8h8.864v45.967h-8.864v-3.94c-.7.875-1.51 1.641-2.43 2.298-.788.613-1.784 1.149-2.988 1.609-1.204.46-2.572.69-4.104.69a13.93 13.93 0 0 1-5.877-1.281 15.967 15.967 0 0 1-4.925-3.513c-1.423-1.489-2.55-3.262-3.382-5.32-.832-2.057-1.247-4.268-1.247-6.632s.415-4.574 1.247-6.632c.832-2.057 1.96-3.83 3.382-5.319a15.967 15.967 0 0 1 4.925-3.513 13.93 13.93 0 0 1 5.877-1.28zm1.642 25.61a7.22 7.22 0 0 0 3.02-.656 7.98 7.98 0 0 0 2.528-1.806c.723-.766 1.292-1.697 1.708-2.791.416-1.094.624-2.298.624-3.612 0-1.313-.208-2.517-.624-3.611-.416-1.095-.985-2.025-1.708-2.791a7.98 7.98 0 0 0-2.528-1.806 7.22 7.22 0 0 0-3.02-.656 7.22 7.22 0 0 0-3.02.656 7.98 7.98 0 0 0-2.53 1.806c-.721.766-1.29 1.696-1.706 2.79-.416 1.095-.624 2.3-.624 3.612 0 1.314.208 2.518.624 3.612.416 1.094.985 2.025 1.707 2.79a7.98 7.98 0 0 0 2.528 1.807 7.22 7.22 0 0 0 3.02.656zm41.52 3.94c-.7.744-1.488 1.401-2.363 1.97-.744.482-1.664.93-2.758 1.346-1.095.416-2.342.624-3.743.624-1.664 0-3.152-.252-4.465-.755-1.314-.503-2.452-1.171-3.415-2.003a8.383 8.383 0 0 1-2.2-2.922 8.45 8.45 0 0 1-.755-3.513c0-2.627.843-4.816 2.528-6.567 1.686-1.75 4.017-2.889 6.994-3.414l10.178-1.839c0-1.313-.47-2.408-1.412-3.283-.941-.876-2.331-1.313-4.17-1.313-1.27 0-2.342.175-3.217.525-.876.35-1.62.722-2.233 1.116a7.983 7.983 0 0 0-1.773 1.642l-4.925-4.925c.876-1.138 1.948-2.167 3.218-3.086 1.05-.788 2.375-1.51 3.972-2.167 1.598-.657 3.47-.985 5.615-.985 2.057 0 3.929.328 5.614.985 1.686.656 3.141 1.565 4.367 2.725a11.951 11.951 0 0 1 2.824 4.071c.656 1.554.985 3.229.985 5.023v20.029h-8.865v-3.284zM457 279.2c1.97 0 3.557-.624 4.761-1.872 1.204-1.247 1.806-3.031 1.806-5.351v-.985l-7.223 1.313c-2.408.394-3.612 1.598-3.612 3.612 0 1.007.34 1.805 1.018 2.396.678.591 1.762.887 3.25.887zm26.09-35.131h7.88v10.178h6.566v7.88h-6.566v12.805c0 1.007.372 1.86 1.116 2.56.744.701 1.686 1.051 2.824 1.051.92 0 1.707-.11 2.364-.328.35-.088.656-.197.92-.328v7.551c-.526.175-1.095.35-1.708.526-.526.13-1.15.24-1.872.328-.722.087-1.5.131-2.33.131-3.284 0-5.801-.908-7.552-2.725-1.751-1.817-2.627-4.63-2.627-8.438v-13.133h-5.582v-7.88h2.955c1.007 0 1.86-.383 2.561-1.15.7-.765 1.051-1.805 1.051-3.118v-5.91zm38.566 38.414c-.7.744-1.488 1.401-2.364 1.97-.744.482-1.663.93-2.758 1.346-1.094.416-2.342.624-3.743.624-1.663 0-3.152-.252-4.465-.755-1.313-.503-2.451-1.171-3.415-2.003a8.383 8.383 0 0 1-2.2-2.922 8.45 8.45 0 0 1-.755-3.513c0-2.627.843-4.816 2.529-6.567 1.685-1.75 4.016-2.889 6.993-3.414l10.178-1.839c0-1.313-.47-2.408-1.412-3.283-.94-.876-2.33-1.313-4.17-1.313-1.269 0-2.341.175-3.217.525-.876.35-1.62.722-2.233 1.116a7.983 7.983 0 0 0-1.773 1.642l-4.925-4.925c.876-1.138 1.949-2.167 3.218-3.086 1.05-.788 2.375-1.51 3.973-2.167 1.598-.657 3.47-.985 5.614-.985 2.058 0 3.93.328 5.615.985 1.685.656 3.14 1.565 4.366 2.725a11.951 11.951 0 0 1 2.824 4.071c.657 1.554.985 3.229.985 5.023v20.029h-8.865v-3.284zm-6.566-3.283c1.97 0 3.556-.624 4.76-1.872 1.204-1.247 1.806-3.031 1.806-5.351v-.985l-7.223 1.313c-2.408.394-3.612 1.598-3.612 3.612 0 1.007.34 1.805 1.018 2.396.679.591 1.762.887 3.25.887zm32.328 1.313l-8.537 13.79-5.91-2.955 7.223-15.103 7.224 4.268zm34.45 1.97c-.701.744-1.49 1.401-2.365 1.97-.744.482-1.663.93-2.758 1.346-1.094.416-2.342.624-3.743.624-1.663 0-3.152-.252-4.465-.755-1.313-.503-2.451-1.171-3.415-2.003a8.383 8.383 0 0 1-2.2-2.922 8.45 8.45 0 0 1-.754-3.513c0-2.627.842-4.816 2.528-6.567 1.685-1.75 4.016-2.889 6.993-3.414l10.178-1.839c0-1.313-.47-2.408-1.412-3.283-.94-.876-2.33-1.313-4.17-1.313-1.269 0-2.341.175-3.217.525-.876.35-1.62.722-2.233 1.116a7.983 7.983 0 0 0-1.773 1.642l-4.925-4.925c.876-1.138 1.949-2.167 3.218-3.086 1.05-.788 2.375-1.51 3.973-2.167 1.598-.657 3.47-.985 5.614-.985 2.058 0 3.93.328 5.615.985 1.685.656 3.14 1.565 4.366 2.725a11.951 11.951 0 0 1 2.824 4.071c.657 1.554.985 3.229.985 5.023v20.029h-8.865v-3.284zM575.3 279.2c1.97 0 3.557-.624 4.76-1.872 1.204-1.247 1.806-3.031 1.806-5.351v-.985l-7.223 1.313c-2.408.394-3.612 1.598-3.612 3.612 0 1.007.34 1.805 1.018 2.396.679.591 1.762.887 3.25.887zm43.82 3.283a10.48 10.48 0 0 1-2.365 1.97c-.788.482-1.75.93-2.89 1.346-1.137.416-2.45.624-3.94.624-1.794 0-3.457-.317-4.99-.952a11.398 11.398 0 0 1-3.972-2.725c-1.117-1.182-1.981-2.605-2.594-4.268-.613-1.664-.92-3.546-.92-5.648v-19.24h8.865v18.387c0 1.838.58 3.338 1.74 4.498 1.16 1.16 2.66 1.74 4.499 1.74 1.97 0 3.556-.635 4.76-1.904 1.204-1.27 1.806-3.152 1.806-5.648V253.59h8.865v32.177h-8.865v-3.284zm19.85-38.414h7.88v10.178h6.567v7.88h-6.567v12.805c0 1.007.373 1.86 1.117 2.56.744.701 1.685 1.051 2.823 1.051.92 0 1.708-.11 2.364-.328.35-.088.657-.197.92-.328v7.551c-.526.175-1.095.35-1.708.526-.525.13-1.149.24-1.871.328-.722.087-1.5.131-2.331.131-3.284 0-5.8-.908-7.552-2.725-1.75-1.817-2.626-4.63-2.626-8.438v-13.133h-5.582v-7.88h2.955c1.007 0 1.86-.383 2.56-1.15.701-.765 1.052-1.805 1.052-3.118v-5.91zm26.747 25.61c0 1.225.208 2.363.624 3.414.416 1.05.985 1.948 1.707 2.692a8.24 8.24 0 0 0 2.528 1.773 7.22 7.22 0 0 0 3.02.657 7.22 7.22 0 0 0 3.021-.657 8.24 8.24 0 0 0 2.529-1.773c.722-.744 1.291-1.641 1.707-2.692.416-1.05.624-2.189.624-3.415 0-1.225-.208-2.364-.624-3.414-.416-1.05-.985-1.948-1.707-2.692a8.24 8.24 0 0 0-2.529-1.773 7.22 7.22 0 0 0-3.02-.657 7.22 7.22 0 0 0-3.02.657 8.24 8.24 0 0 0-2.529 1.773c-.722.744-1.291 1.641-1.707 2.692-.416 1.05-.624 2.189-.624 3.414zm24.953 0c0 2.232-.46 4.355-1.38 6.369a17.758 17.758 0 0 1-3.71 5.319c-1.553 1.532-3.37 2.758-5.45 3.677a15.986 15.986 0 0 1-6.533 1.38c-2.32 0-4.51-.46-6.567-1.38a18.24 18.24 0 0 1-5.417-3.677 17.758 17.758 0 0 1-3.71-5.319 15.162 15.162 0 0 1-1.38-6.37c0-2.232.46-4.355 1.38-6.37a17.758 17.758 0 0 1 3.71-5.318 18.24 18.24 0 0 1 5.417-3.677c2.058-.92 4.247-1.38 6.567-1.38 2.276 0 4.454.46 6.534 1.38 2.079.919 3.896 2.145 5.45 3.677a17.758 17.758 0 0 1 3.71 5.319 15.162 15.162 0 0 1 1.379 6.37zm44.804-1.642c0-2.145-.503-3.776-1.51-4.892-1.007-1.117-2.255-1.675-3.743-1.675-1.663 0-3.064.635-4.203 1.905-1.138 1.27-1.707 3.151-1.707 5.647v16.745h-8.865v-17.73c0-2.145-.503-3.776-1.51-4.892-1.007-1.117-2.255-1.675-3.743-1.675-1.664 0-3.064.635-4.203 1.905-1.138 1.27-1.707 3.151-1.707 5.647v16.745h-8.865v-32.177h8.865v3.94a13.383 13.383 0 0 1 2.167-2.298c.744-.57 1.642-1.094 2.692-1.576 1.051-.482 2.277-.722 3.678-.722 1.707 0 3.14.295 4.3.886 1.16.591 2.113 1.237 2.857 1.937a9.805 9.805 0 0 1 2.036 2.758c.7-1.05 1.598-1.97 2.692-2.758.876-.7 1.992-1.346 3.35-1.937 1.356-.59 2.954-.886 4.793-.886 3.458 0 6.238 1.16 8.34 3.48 2.1 2.32 3.151 5.866 3.151 10.638v18.715h-8.865v-17.73zm33.313 14.446c-.7.744-1.488 1.401-2.364 1.97-.744.482-1.663.93-2.758 1.346-1.094.416-2.342.624-3.743.624-1.663 0-3.152-.252-4.465-.755-1.313-.503-2.451-1.171-3.414-2.003a8.383 8.383 0 0 1-2.2-2.922 8.45 8.45 0 0 1-.755-3.513c0-2.627.842-4.816 2.528-6.567 1.685-1.75 4.016-2.889 6.993-3.414l10.178-1.839c0-1.313-.47-2.408-1.412-3.283-.94-.876-2.33-1.313-4.17-1.313-1.269 0-2.341.175-3.217.525-.875.35-1.62.722-2.233 1.116a7.983 7.983 0 0 0-1.773 1.642l-4.924-4.925c.875-1.138 1.948-2.167 3.217-3.086 1.05-.788 2.375-1.51 3.973-2.167 1.598-.657 3.47-.985 5.614-.985 2.058 0 3.93.328 5.615.985 1.685.656 3.14 1.565 4.367 2.725a11.951 11.951 0 0 1 2.823 4.071c.657 1.554.985 3.229.985 5.023v20.029h-8.865v-3.284zm-6.566-3.283c1.97 0 3.557-.624 4.76-1.872 1.204-1.247 1.806-3.031 1.806-5.351v-.985l-7.223 1.313c-2.408.394-3.612 1.598-3.612 3.612 0 1.007.34 1.805 1.018 2.396.679.591 1.762.887 3.25.887zm26.09-35.131h7.88v10.178h6.566v7.88h-6.567v12.805c0 1.007.372 1.86 1.117 2.56.744.701 1.685 1.051 2.823 1.051.92 0 1.708-.11 2.364-.328.35-.088.657-.197.92-.328v7.551c-.526.175-1.095.35-1.708.526-.525.13-1.149.24-1.871.328-.723.087-1.5.131-2.331.131-3.284 0-5.8-.908-7.552-2.725-1.751-1.817-2.627-4.63-2.627-8.438v-13.133h-5.581v-7.88h2.955c1.007 0 1.86-.383 2.56-1.15.701-.765 1.051-1.805 1.051-3.118v-5.91zm30.029 41.698h-8.865v-32.177h8.865v32.177zm.657-41.37c0 1.489-.46 2.681-1.38 3.579-.919.897-2.21 1.346-3.874 1.346-1.488 0-2.68-.449-3.578-1.346-.898-.898-1.346-2.09-1.346-3.579 0-1.488.448-2.681 1.346-3.579.897-.897 2.09-1.346 3.578-1.346 1.664 0 2.955.449 3.875 1.346.919.898 1.379 2.09 1.379 3.58zm13.613 25.281c0 1.226.208 2.364.624 3.415.416 1.05.985 1.948 1.707 2.692a8.24 8.24 0 0 0 2.528 1.773 7.22 7.22 0 0 0 3.02.657 7.22 7.22 0 0 0 3.021-.657 8.24 8.24 0 0 0 2.529-1.773c.722-.744 1.291-1.641 1.707-2.692.416-1.05.624-2.189.624-3.415 0-1.225-.208-2.364-.624-3.414-.416-1.05-.985-1.948-1.707-2.692a8.24 8.24 0 0 0-2.529-1.773 7.22 7.22 0 0 0-3.02-.657 7.22 7.22 0 0 0-3.02.657 8.24 8.24 0 0 0-2.529 1.773c-.722.744-1.291 1.641-1.707 2.692-.416 1.05-.624 2.189-.624 3.414zm24.953 0c0 2.233-.46 4.356-1.38 6.37a17.758 17.758 0 0 1-3.71 5.319c-1.553 1.532-3.37 2.758-5.45 3.677a15.986 15.986 0 0 1-6.533 1.38c-2.32 0-4.51-.46-6.567-1.38a18.24 18.24 0 0 1-5.417-3.677 17.758 17.758 0 0 1-3.71-5.319 15.162 15.162 0 0 1-1.38-6.37c0-2.232.46-4.355 1.38-6.37a17.758 17.758 0 0 1 3.71-5.318 18.24 18.24 0 0 1 5.417-3.677c2.058-.92 4.247-1.38 6.567-1.38 2.276 0 4.454.46 6.534 1.38 2.079.919 3.896 2.145 5.45 3.677a17.758 17.758 0 0 1 3.71 5.319 15.162 15.162 0 0 1 1.379 6.37zm13.613-12.148a13.115 13.115 0 0 1 2.364-2.298c.788-.57 1.751-1.094 2.89-1.576 1.138-.482 2.45-.722 3.94-.722 1.794 0 3.458.317 4.99.952a11.008 11.008 0 0 1 3.973 2.79c1.116 1.226 1.98 2.704 2.593 4.433.613 1.73.92 3.71.92 5.943v18.715h-8.865v-17.73c0-1.97-.58-3.557-1.74-4.761-1.16-1.204-2.66-1.806-4.498-1.806-1.97 0-3.557.635-4.761 1.905-1.204 1.27-1.806 3.151-1.806 5.647v16.745h-8.865v-32.177h8.865v3.94zm61.373-8.536c0 1.795-.46 3.47-1.38 5.023-.919 1.554-1.947 2.9-3.086 4.039a30.512 30.512 0 0 1-4.4 3.743l11.82 14.446c.614-1.007 1.16-2.167 1.642-3.48.394-1.139.766-2.485 1.117-4.039.35-1.554.525-3.316.525-5.286h2.955c0 2.32-.23 4.4-.69 6.238-.46 1.84-.952 3.415-1.477 4.728-.613 1.533-1.313 2.912-2.101 4.137.569.876 1.182 1.642 1.838 2.299.57.612 1.204 1.149 1.905 1.608.7.46 1.422.69 2.167.69a7.627 7.627 0 0 0 1.379-.131c.218-.044.415-.11.59-.197v2.955a2.344 2.344 0 0 1-.59.197 7.627 7.627 0 0 1-1.379.131 6.271 6.271 0 0 1-3.152-.821c-.963-.547-1.795-1.15-2.496-1.806a22.02 22.02 0 0 1-2.232-2.626 12.394 12.394 0 0 1-3.02 2.823c-1.008.7-2.277 1.335-3.81 1.905-1.532.569-3.305.853-5.318.853-1.883 0-3.612-.306-5.188-.92-1.576-.612-2.922-1.433-4.039-2.462a11.507 11.507 0 0 1-2.626-3.546 9.744 9.744 0 0 1-.952-4.235c0-2.058.481-3.907 1.444-5.549.963-1.641 2.014-3.053 3.152-4.235a23.555 23.555 0 0 1 4.597-3.677 31.743 31.743 0 0 1-3.612-4.137 27.306 27.306 0 0 1-2.495-4.039c-.744-1.466-1.116-2.9-1.116-4.3 0-1.402.273-2.715.82-3.94a10.637 10.637 0 0 1 2.2-3.219c.92-.919 1.992-1.652 3.218-2.2a9.554 9.554 0 0 1 3.94-.82c1.4 0 2.703.252 3.907.755a9.589 9.589 0 0 1 3.12 2.068 9.589 9.589 0 0 1 2.068 3.12c.503 1.203.755 2.506.755 3.907zm-11.163 14.775a25.107 25.107 0 0 0-3.94 3.414c-1.007 1.05-1.916 2.277-2.726 3.677-.81 1.401-1.214 2.868-1.214 4.4 0 2.32.853 4.268 2.56 5.844 1.708 1.576 4.138 2.364 7.29 2.364 1.663 0 3.13-.252 4.4-.755 1.269-.503 2.341-1.062 3.217-1.674a12.62 12.62 0 0 0 2.56-2.496l-12.147-14.774zm-5.91-14.447c0 1.138.339 2.331 1.017 3.579a21.176 21.176 0 0 0 2.266 3.382 40.396 40.396 0 0 0 3.283 3.546 40.352 40.352 0 0 0 3.743-3.415 20.135 20.135 0 0 0 2.627-3.448c.788-1.29 1.182-2.615 1.182-3.972 0-1.97-.657-3.612-1.97-4.925-1.314-1.314-2.955-1.97-4.925-1.97a6.8 6.8 0 0 0-2.824.59 7.668 7.668 0 0 0-2.298 1.577 7.197 7.197 0 0 0-1.543 2.298 6.98 6.98 0 0 0-.558 2.758zm63.342 1.97l-5.581 15.103H984.4l-5.582-15.103zm-8.865 23.64l-3.94 10.835h-10.506l18.058-45.966h10.506l18.059 45.966h-10.507l-3.94-10.835h-17.73zm36.925-35.131h9.85v45.966h-9.85V239.8zm16.896 41.697c0-1.313.504-2.462 1.51-3.447 1.008-.985 2.255-1.478 3.744-1.478 1.488 0 2.736.493 3.743 1.478 1.006.985 1.51 2.134 1.51 3.447 0 1.314-.504 2.463-1.51 3.448-1.007.985-2.255 1.477-3.743 1.477-1.489 0-2.736-.492-3.743-1.477-1.007-.985-1.51-2.134-1.51-3.448zM249.54 244.411c0 .878.159 1.7.475 2.467.317.766.741 1.43 1.272 1.992a6.19 6.19 0 0 0 1.808 1.333c.674.327 1.38.49 2.115.49.694 0 1.368-.163 2.022-.49a6.133 6.133 0 0 0 1.762-1.333 6.61 6.61 0 0 0 1.257-1.992 6.394 6.394 0 0 0 .475-2.467c0-.879-.159-1.7-.475-2.467a6.61 6.61 0 0 0-1.257-1.992 6.133 6.133 0 0 0-1.762-1.333 4.471 4.471 0 0 0-2.022-.49c-.736 0-1.44.163-2.115.49a6.19 6.19 0 0 0-1.808 1.333 6.455 6.455 0 0 0-1.272 1.992 6.394 6.394 0 0 0-.475 2.467zm0 13.79h-1.379v-21.145h1.38v2.912a7.447 7.447 0 0 1 1.41-1.594c.469-.409 1.051-.781 1.746-1.118.694-.338 1.532-.506 2.513-.506.878 0 1.731.2 2.558.598.828.398 1.563.94 2.207 1.624a7.94 7.94 0 0 1 1.547 2.436c.388.94.583 1.94.583 3.003a7.754 7.754 0 0 1-.583 3.018 7.988 7.988 0 0 1-1.547 2.421 7.436 7.436 0 0 1-2.207 1.624 5.834 5.834 0 0 1-2.558.598c-.981 0-1.819-.163-2.513-.49-.695-.327-1.277-.695-1.747-1.104a7.14 7.14 0 0 1-1.41-1.624v9.347zm15.629-13.79c0-1.062.194-2.063.582-3.003a7.52 7.52 0 0 1 1.594-2.436 7.656 7.656 0 0 1 2.344-1.624 6.85 6.85 0 0 1 2.834-.598c1.002 0 1.946.2 2.835.598a7.52 7.52 0 0 1 3.938 4.06c.388.94.582 1.94.582 3.003a7.754 7.754 0 0 1-.582 3.018 7.562 7.562 0 0 1-3.938 4.045 6.85 6.85 0 0 1-2.835.598 6.85 6.85 0 0 1-2.834-.598 7.562 7.562 0 0 1-3.938-4.045 7.754 7.754 0 0 1-.582-3.018zm13.33 0c0-.879-.158-1.7-.475-2.467a6.178 6.178 0 0 0-3.218-3.325 5.495 5.495 0 0 0-2.283-.49c-.796 0-1.557.163-2.283.49a6.178 6.178 0 0 0-3.218 3.325 6.394 6.394 0 0 0-.474 2.467c0 .878.158 1.7.475 2.467a6.178 6.178 0 0 0 3.217 3.325c.726.327 1.487.49 2.283.49.797 0 1.558-.163 2.283-.49a6.178 6.178 0 0 0 3.218-3.325 6.394 6.394 0 0 0 .475-2.467zm14.403-7.355l3.983 12.564 4.137-12.564h1.533l-4.903 14.71h-1.38l-3.983-12.411-3.984 12.41h-1.379l-4.903-14.709h1.532l4.137 12.411 3.984-12.41h1.226zm13.177 7.968c.04.776.224 1.506.551 2.19a6.147 6.147 0 0 0 3.08 3.018 5.3 5.3 0 0 0 2.191.461c.797 0 1.502-.133 2.114-.398.613-.266 1.124-.562 1.533-.89.49-.367.909-.796 1.256-1.286l.92.889a7.453 7.453 0 0 1-1.472 1.532c-.49.388-1.098.74-1.823 1.057-.725.317-1.568.475-2.528.475s-1.874-.2-2.743-.598a7.577 7.577 0 0 1-3.876-4.045 7.754 7.754 0 0 1-.582-3.018c0-1.062.194-2.063.582-3.003.388-.94.909-1.752 1.563-2.436a7.504 7.504 0 0 1 2.252-1.624 6.162 6.162 0 0 1 2.65-.598c.92 0 1.788.184 2.606.552a6.45 6.45 0 0 1 2.145 1.562c.612.675 1.098 1.482 1.455 2.421.358.94.536 1.982.536 3.126v.613h-12.41zm5.669-6.895a4.95 4.95 0 0 0-2.1.46 6.443 6.443 0 0 0-1.777 1.21c-.52.5-.94 1.083-1.256 1.747a5.545 5.545 0 0 0-.536 2.099h11.031a6.45 6.45 0 0 0-.49-2.207 5.584 5.584 0 0 0-1.149-1.746 5.247 5.247 0 0 0-1.67-1.15 5.086 5.086 0 0 0-2.053-.413zm18.233 0h-.613a5.161 5.161 0 0 0-3.631 1.47 5.26 5.26 0 0 0-1.15 1.702 5.48 5.48 0 0 0-.428 2.19v8.275h-1.38v-14.71h1.38v2.452a4.93 4.93 0 0 1 1.164-1.38c.409-.346.94-.663 1.594-.949.653-.286 1.47-.429 2.451-.429h.613v1.379zm3.37 6.895c.042.776.226 1.506.552 2.19a6.147 6.147 0 0 0 3.08 3.018 5.3 5.3 0 0 0 2.191.461c.797 0 1.502-.133 2.115-.398.612-.266 1.123-.562 1.532-.89.49-.367.909-.796 1.256-1.286l.92.889a7.453 7.453 0 0 1-1.471 1.532c-.49.388-1.098.74-1.824 1.057-.725.317-1.568.475-2.528.475s-1.874-.2-2.742-.598a7.577 7.577 0 0 1-3.877-4.045 7.754 7.754 0 0 1-.582-3.018c0-1.062.194-2.063.582-3.003.388-.94.91-1.752 1.563-2.436a7.504 7.504 0 0 1 2.252-1.624 6.162 6.162 0 0 1 2.65-.598c.92 0 1.788.184 2.606.552a6.45 6.45 0 0 1 2.145 1.562c.613.675 1.098 1.482 1.455 2.421.358.94.537 1.982.537 3.126v.613h-12.411zm5.67-6.895a4.95 4.95 0 0 0-2.1.46 6.443 6.443 0 0 0-1.777 1.21c-.52.5-.94 1.083-1.256 1.747a5.545 5.545 0 0 0-.536 2.099h11.032a6.45 6.45 0 0 0-.49-2.207 5.584 5.584 0 0 0-1.15-1.746 5.247 5.247 0 0 0-1.67-1.15 5.086 5.086 0 0 0-2.053-.413zm22.37 6.282c0-.879-.158-1.7-.475-2.467a6.455 6.455 0 0 0-1.272-1.992 6.19 6.19 0 0 0-1.808-1.333 4.789 4.789 0 0 0-2.114-.49c-.695 0-1.369.163-2.023.49a6.133 6.133 0 0 0-1.762 1.333 6.61 6.61 0 0 0-1.256 1.992 6.394 6.394 0 0 0-.475 2.467c0 .878.158 1.7.475 2.467a6.61 6.61 0 0 0 1.256 1.992 6.133 6.133 0 0 0 1.762 1.333c.654.327 1.328.49 2.023.49.735 0 1.44-.163 2.114-.49a6.19 6.19 0 0 0 1.808-1.333 6.455 6.455 0 0 0 1.272-1.992 6.394 6.394 0 0 0 .475-2.467zm0-14.096h1.379v21.45h-1.379v-2.91a7.14 7.14 0 0 1-1.41 1.623c-.47.409-1.057.777-1.762 1.104-.704.327-1.537.49-2.497.49-.879 0-1.731-.2-2.559-.598a7.436 7.436 0 0 1-2.206-1.624 7.988 7.988 0 0 1-1.548-2.42 7.754 7.754 0 0 1-.582-3.019c0-1.062.194-2.063.582-3.003a7.94 7.94 0 0 1 1.548-2.436 7.436 7.436 0 0 1 2.206-1.624 5.834 5.834 0 0 1 2.559-.598c.96 0 1.793.168 2.497.506.705.337 1.293.71 1.762 1.118a7.447 7.447 0 0 1 1.41 1.594v-9.653zm13.943 14.096c0 .878.158 1.7.475 2.467.317.766.74 1.43 1.272 1.992a6.19 6.19 0 0 0 1.808 1.333c.674.327 1.379.49 2.114.49.695 0 1.369-.163 2.023-.49a6.133 6.133 0 0 0 1.762-1.333 6.61 6.61 0 0 0 1.256-1.992 6.394 6.394 0 0 0 .475-2.467c0-.879-.158-1.7-.475-2.467a6.61 6.61 0 0 0-1.256-1.992 6.133 6.133 0 0 0-1.762-1.333 4.471 4.471 0 0 0-2.023-.49c-.735 0-1.44.163-2.114.49a6.19 6.19 0 0 0-1.808 1.333 6.455 6.455 0 0 0-1.272 1.992 6.394 6.394 0 0 0-.475 2.467zm0-4.443a7.447 7.447 0 0 1 1.41-1.594c.47-.409 1.052-.781 1.746-1.118.695-.338 1.533-.506 2.513-.506.879 0 1.732.2 2.559.598.827.398 1.563.94 2.206 1.624a7.94 7.94 0 0 1 1.548 2.436c.388.94.582 1.94.582 3.003a7.754 7.754 0 0 1-.582 3.018 7.988 7.988 0 0 1-1.548 2.421 7.437 7.437 0 0 1-2.206 1.624 5.834 5.834 0 0 1-2.559.598c-.98 0-1.818-.163-2.513-.49-.694-.327-1.276-.695-1.746-1.104a7.14 7.14 0 0 1-1.41-1.624v2.912h-1.379v-21.451h1.379v9.653zm20.685 11.798l-5.976-14.71h1.532l5.21 12.87 5.21-12.87h1.532l-7.049 17.467c-.53 1.308-1.108 2.248-1.731 2.82-.623.572-1.476.858-2.559.858-.388 0-.715-.051-.98-.153a2.304 2.304 0 0 1-.399-.154v-1.379c.123.062.256.113.399.154.265.102.592.153.98.153.695 0 1.252-.19 1.67-.567.42-.378.782-.955 1.088-1.732l1.073-2.757z"/></g></svg>