<svg xmlns="http://www.w3.org/2000/svg" width="1100" height="300"><g fill="none"><path fill="#0499EE" d="M78.47 73.452h17.616V96.2h14.68v17.61h-14.68v28.619c0 2.25.832 4.158 2.496 5.724 1.664 1.565 3.768 2.348 6.312 2.348 2.055 0 3.817-.245 5.285-.734.783-.196 1.468-.44 2.055-.734v16.877a92.258 92.258 0 0 1-3.817 1.174c-1.174.294-2.569.539-4.183.734a43.415 43.415 0 0 1-5.212.294c-7.34 0-12.967-2.03-16.881-6.09-3.915-4.061-5.872-10.347-5.872-18.86v-29.351H63.79V96.2h6.606c2.25 0 4.159-.856 5.725-2.569 1.566-1.712 2.349-4.036 2.349-6.97V73.45zm87.66 40.359a45.724 45.724 0 0 0-3.743-.587 24.766 24.766 0 0 0-2.863-.147c-5.187 0-9.297 1.614-12.331 4.843-3.034 3.229-4.55 7.974-4.55 14.236v34.488h-19.819V94.732h19.818v8.806c1.468-1.762 3.23-3.327 5.285-4.697 1.761-1.174 3.914-2.274 6.459-3.302 2.544-1.027 5.48-1.54 8.808-1.54h2.936v19.812zm44.354 45.495a28.712 28.712 0 0 1-5.285 4.403c-1.664 1.076-3.719 2.08-6.166 3.009-2.446.93-5.235 1.394-8.367 1.394-3.719 0-7.046-.563-9.982-1.688-2.936-1.125-5.48-2.617-7.634-4.476-2.153-1.86-3.792-4.036-4.918-6.53a18.883 18.883 0 0 1-1.688-7.853c0-5.87 1.884-10.762 5.652-14.675 3.768-3.914 8.98-6.458 15.634-7.632l22.754-4.11c0-2.934-1.052-5.38-3.157-7.337-2.104-1.957-5.21-2.935-9.321-2.935-2.838 0-5.236.39-7.193 1.174-1.958.782-3.621 1.614-4.991 2.495-1.566 1.076-2.887 2.299-3.964 3.669l-11.01-11.007c1.958-2.544 4.355-4.843 7.193-6.898 2.35-1.761 5.31-3.376 8.882-4.843 3.572-1.468 7.755-2.202 12.55-2.202 4.6 0 8.784.734 12.552 2.202 3.768 1.467 7.022 3.498 9.762 6.09a26.71 26.71 0 0 1 6.312 9.1c1.468 3.473 2.202 7.215 2.202 11.227v44.761h-19.817v-7.338zm-14.68-7.338c4.404 0 7.951-1.394 10.643-4.182 2.69-2.789 4.037-6.776 4.037-11.961v-2.202l-16.148 2.935c-5.383.881-8.074 3.572-8.074 8.072 0 2.25.758 4.036 2.275 5.357 1.517 1.32 3.94 1.981 7.267 1.981zm67.107-48.43c1.468-1.86 3.23-3.572 5.285-5.137 1.762-1.272 3.915-2.446 6.459-3.522 2.545-1.076 5.48-1.615 8.808-1.615 4.012 0 7.731.71 11.157 2.128a24.609 24.609 0 0 1 8.88 6.238c2.496 2.74 4.43 6.041 5.8 9.906s2.054 8.292 2.054 13.282v41.826h-19.817V127.02c0-4.403-1.297-7.95-3.89-10.64-2.594-2.69-5.946-4.036-10.056-4.036-4.404 0-7.952 1.419-10.643 4.256-2.691 2.838-4.037 7.045-4.037 12.622v37.423h-19.817V94.732h19.817v8.806zm100.871 12.474a17.61 17.61 0 0 0-3.083-2.935c-1.076-.783-2.324-1.468-3.743-2.055-1.419-.587-3.058-.88-4.918-.88-2.936 0-5.138.611-6.606 1.834s-2.202 2.569-2.202 4.036c0 1.663.808 3.009 2.423 4.036 1.614 1.027 3.645 1.957 6.092 2.788 2.446.832 5.113 1.713 8 2.642a32.571 32.571 0 0 1 8 3.816c2.447 1.614 4.478 3.693 6.093 6.237 1.615 2.544 2.422 5.822 2.422 9.833 0 3.131-.636 6.066-1.908 8.806-1.273 2.74-3.108 5.136-5.505 7.19-2.398 2.055-5.383 3.694-8.955 4.917-3.572 1.223-7.658 1.835-12.258 1.835-5.186 0-9.64-.685-13.358-2.055-3.72-1.37-6.753-2.886-9.102-4.55-2.838-1.858-5.138-4.06-6.9-6.604l11.01-11.007a20.446 20.446 0 0 0 4.111 4.11c1.37 1.076 2.985 2.005 4.844 2.788 1.86.783 4.013 1.174 6.46 1.174 3.327 0 5.749-.636 7.266-1.908 1.517-1.272 2.275-2.837 2.275-4.696 0-1.859-.807-3.302-2.422-4.33-1.615-1.027-3.645-1.98-6.092-2.861a249.575 249.575 0 0 0-8-2.715c-2.887-.93-5.554-2.177-8-3.743a20.408 20.408 0 0 1-6.093-6.017c-1.615-2.446-2.422-5.674-2.422-9.686 0-2.74.685-5.479 2.055-8.218 1.37-2.74 3.303-5.186 5.798-7.338 2.496-2.153 5.456-3.89 8.882-5.21 3.425-1.321 7.144-1.982 11.156-1.982 4.209 0 7.878.587 11.01 1.762 3.132 1.174 5.725 2.446 7.78 3.815 2.447 1.664 4.502 3.474 6.166 5.43l-10.276 11.741zm61.236-1.467H408.87v52.1h-19.818v-52.1h-10.276V96.933h10.276v-9.539c0-8.512 1.958-14.798 5.872-18.859 3.915-4.06 9.542-6.09 16.882-6.09 1.86 0 3.596.122 5.211.367 1.615.244 3.01.514 4.184.807 1.37.391 2.642.734 3.817 1.027v16.878a59.965 59.965 0 0 1-2.056-.734 21.452 21.452 0 0 0-2.348-.514 17.94 17.94 0 0 0-2.936-.22c-2.545 0-4.649.783-6.313 2.348-1.663 1.566-2.495 3.474-2.495 5.724v8.805h16.148v17.612zm23.068 16.143c0 2.74.465 5.283 1.394 7.632.93 2.348 2.202 4.353 3.817 6.017a18.421 18.421 0 0 0 5.652 3.962 16.142 16.142 0 0 0 6.753 1.468c2.348 0 4.6-.49 6.752-1.468a18.421 18.421 0 0 0 5.652-3.962c1.615-1.664 2.887-3.67 3.817-6.017.93-2.349 1.394-4.892 1.394-7.632 0-2.74-.465-5.283-1.394-7.631-.93-2.349-2.202-4.354-3.817-6.018a18.421 18.421 0 0 0-5.652-3.962 16.142 16.142 0 0 0-6.752-1.468c-2.35 0-4.6.49-6.753 1.468a18.421 18.421 0 0 0-5.652 3.962c-1.615 1.664-2.887 3.67-3.817 6.018-.93 2.348-1.394 4.892-1.394 7.631zm55.783 0c0 4.99-1.028 9.735-3.083 14.236-2.055 4.5-4.82 8.463-8.294 11.887-3.474 3.425-7.535 6.164-12.184 8.219a35.744 35.744 0 0 1-14.606 3.082c-5.187 0-10.08-1.028-14.68-3.082-4.6-2.055-8.637-4.794-12.111-8.219-3.474-3.424-6.239-7.387-8.294-11.887-2.055-4.5-3.083-9.246-3.083-14.236s1.028-9.735 3.083-14.236c2.055-4.5 4.82-8.463 8.294-11.887 3.474-3.424 7.511-6.164 12.11-8.219 4.6-2.054 9.494-3.082 14.68-3.082 5.09 0 9.958 1.028 14.607 3.082 4.649 2.055 8.71 4.795 12.184 8.219 3.474 3.424 6.239 7.387 8.294 11.887 2.055 4.501 3.083 9.246 3.083 14.236zm51.694-16.877a45.724 45.724 0 0 0-3.743-.587 24.766 24.766 0 0 0-2.863-.147c-5.187 0-9.297 1.614-12.331 4.843-3.034 3.229-4.551 7.974-4.551 14.236v34.488h-19.818V94.732h19.818v8.806c1.468-1.762 3.23-3.327 5.285-4.697 1.761-1.174 3.914-2.274 6.459-3.302 2.544-1.027 5.48-1.54 8.808-1.54h2.936v19.812zm94.265 13.208c0-4.794-1.126-8.439-3.377-10.933-2.25-2.495-5.04-3.743-8.367-3.743-3.72 0-6.85 1.419-9.395 4.256-2.545 2.838-3.817 7.045-3.817 12.622v37.423h-19.818V127.02c0-4.794-1.125-8.439-3.376-10.933-2.25-2.495-5.04-3.743-8.367-3.743-3.72 0-6.851 1.419-9.396 4.256-2.544 2.838-3.816 7.045-3.816 12.622v37.423H560.28V94.732H580.1v8.806a29.913 29.913 0 0 1 4.844-5.137c1.664-1.272 3.67-2.446 6.019-3.522 2.349-1.076 5.089-1.615 8.22-1.615 3.817 0 7.022.66 9.616 1.982 2.593 1.32 4.722 2.764 6.385 4.33a21.914 21.914 0 0 1 4.551 6.163c1.566-2.348 3.572-4.403 6.019-6.164 1.957-1.565 4.453-3.008 7.486-4.33 3.034-1.32 6.606-1.98 10.717-1.98 7.731 0 13.945 2.592 18.643 7.778 4.697 5.185 7.046 13.11 7.046 23.775v41.826h-19.817V127.02zm72.245 32.287a28.712 28.712 0 0 1-5.285 4.403c-1.664 1.076-3.719 2.08-6.165 3.009-2.447.93-5.236 1.394-8.368 1.394-3.719 0-7.046-.563-9.982-1.688-2.936-1.125-5.48-2.617-7.633-4.476-2.153-1.86-3.793-4.036-4.918-6.53a18.883 18.883 0 0 1-1.688-7.853c0-5.87 1.884-10.762 5.651-14.675 3.768-3.914 8.98-6.458 15.634-7.632l22.754-4.11c0-2.934-1.052-5.38-3.156-7.337-2.104-1.957-5.212-2.935-9.322-2.935-2.838 0-5.236.39-7.193 1.174-1.957.782-3.62 1.614-4.991 2.495-1.566 1.076-2.887 2.299-3.964 3.669l-11.01-11.007c1.958-2.544 4.356-4.843 7.194-6.898 2.348-1.761 5.309-3.376 8.88-4.843 3.573-1.468 7.757-2.202 12.552-2.202 4.6 0 8.783.734 12.551 2.202 3.768 1.467 7.022 3.498 9.762 6.09a26.71 26.71 0 0 1 6.313 9.1c1.468 3.473 2.202 7.215 2.202 11.227v44.761h-19.818v-7.338zm-14.68-7.338c4.404 0 7.952-1.394 10.643-4.182 2.691-2.789 4.037-6.776 4.037-11.961v-2.202l-16.148 2.935c-5.382.881-8.074 3.572-8.074 8.072 0 2.25.759 4.036 2.276 5.357 1.517 1.32 3.939 1.981 7.266 1.981zm56.098-78.516h17.615V96.2h14.68v17.61h-14.68v28.619c0 2.25.832 4.158 2.496 5.724 1.664 1.565 3.768 2.348 6.312 2.348 2.056 0 3.817-.245 5.285-.734.783-.196 1.468-.44 2.055-.734v16.877a92.258 92.258 0 0 1-3.817 1.174c-1.174.294-2.568.539-4.183.734a43.415 43.415 0 0 1-5.212.294c-7.34 0-12.967-2.03-16.881-6.09-3.915-4.061-5.872-10.347-5.872-18.86v-29.351H748.81V96.2h6.606c2.25 0 4.16-.856 5.725-2.569 1.566-1.712 2.349-4.036 2.349-6.97V73.45zm64.905 93.192H808.58V94.732h19.817v71.912zm1.468-92.458c0 3.326-1.027 5.992-3.083 7.998-2.055 2.006-4.942 3.009-8.66 3.009-3.328 0-5.995-1.003-8.001-3.009-2.006-2.006-3.01-4.672-3.01-7.998 0-3.327 1.004-5.993 3.01-7.999 2.006-2.005 4.673-3.008 8-3.008 3.72 0 6.606 1.003 8.661 3.008 2.056 2.006 3.083 4.672 3.083 7.999zm28.206 56.502c0 2.74.465 5.283 1.395 7.632.93 2.348 2.202 4.353 3.817 6.017a18.421 18.421 0 0 0 5.651 3.962 16.142 16.142 0 0 0 6.753 1.468c2.349 0 4.6-.49 6.753-1.468a18.421 18.421 0 0 0 5.651-3.962c1.615-1.664 2.887-3.67 3.817-6.017.93-2.349 1.395-4.892 1.395-7.632 0-2.74-.465-5.283-1.395-7.631-.93-2.349-2.202-4.354-3.817-6.018a18.421 18.421 0 0 0-5.651-3.962 16.142 16.142 0 0 0-6.753-1.468c-2.349 0-4.6.49-6.753 1.468a18.421 18.421 0 0 0-5.651 3.962c-1.615 1.664-2.887 3.67-3.817 6.018-.93 2.348-1.395 4.892-1.395 7.631zm55.783 0c0 4.99-1.027 9.735-3.082 14.236-2.056 4.5-4.82 8.463-8.294 11.887-3.475 3.425-7.536 6.164-12.185 8.219a35.744 35.744 0 0 1-14.606 3.082c-5.187 0-10.08-1.028-14.68-3.082-4.6-2.055-8.636-4.794-12.11-8.219-3.475-3.424-6.24-7.387-8.295-11.887-2.055-4.5-3.082-9.246-3.082-14.236s1.027-9.735 3.082-14.236c2.056-4.5 4.82-8.463 8.294-11.887 3.475-3.424 7.512-6.164 12.111-8.219 4.6-2.054 9.493-3.082 14.68-3.082 5.089 0 9.958 1.028 14.606 3.082 4.649 2.055 8.71 4.795 12.185 8.219 3.474 3.424 6.238 7.387 8.294 11.887 2.055 4.501 3.082 9.246 3.082 14.236zm28.206-27.15c1.468-1.86 3.23-3.572 5.285-5.137 1.762-1.272 3.915-2.446 6.46-3.522 2.544-1.076 5.48-1.615 8.807-1.615 4.013 0 7.731.71 11.157 2.128a24.609 24.609 0 0 1 8.881 6.238c2.496 2.74 4.428 6.041 5.799 9.906 1.37 3.865 2.055 8.292 2.055 13.282v41.826h-19.818V127.02c0-4.403-1.297-7.95-3.89-10.64-2.594-2.69-5.945-4.036-10.056-4.036-4.404 0-7.951 1.419-10.643 4.256-2.69 2.838-4.037 7.045-4.037 12.622v37.423h-19.817V94.732h19.817v8.806z"/><path fill="#FFF" d="M52.11 75.802V87.69H5.869V26.05h45.36v11.888H19.081v12.328h25.102v11.887H19.08v13.65H52.11zM67.72 87.69H54.95l14.532-22.014L55.83 44.542h13.212L76.97 57.31l7.927-12.768h13.212L84.456 65.676 98.989 87.69H86.217L76.97 74.04 67.721 87.69zm60.532.88c-2.114 0-3.964-.308-5.55-.924-1.585-.617-2.906-1.336-3.963-2.158a16.238 16.238 0 0 1-3.259-3.082v23.775h-11.89V44.542h11.89v5.284a20.398 20.398 0 0 1 3.26-3.082c1.056-.763 2.377-1.468 3.963-2.114 1.585-.645 3.435-.968 5.549-.968 2.76 0 5.387.572 7.883 1.717a21.417 21.417 0 0 1 6.606 4.71c1.908 1.997 3.42 4.374 4.536 7.133 1.115 2.76 1.673 5.724 1.673 8.894s-.558 6.135-1.673 8.894c-1.116 2.759-2.628 5.136-4.536 7.132a21.417 21.417 0 0 1-6.606 4.711 18.69 18.69 0 0 1-7.883 1.717zm-2.202-34.342c-1.41 0-2.76.294-4.052.881a10.703 10.703 0 0 0-3.39 2.422c-.97 1.027-1.733 2.274-2.29 3.742-.559 1.468-.838 3.082-.838 4.843 0 1.761.28 3.375.837 4.843.558 1.468 1.321 2.715 2.29 3.742a10.703 10.703 0 0 0 3.391 2.422 9.685 9.685 0 0 0 4.052.88c1.41 0 2.76-.293 4.051-.88a10.703 10.703 0 0 0 3.391-2.422c.97-1.027 1.733-2.274 2.29-3.742.558-1.468.837-3.082.837-4.843 0-1.761-.279-3.375-.836-4.843-.558-1.468-1.322-2.715-2.29-3.742a10.703 10.703 0 0 0-3.392-2.422 9.685 9.685 0 0 0-4.051-.88zm39.832 15.85c.47 2.231 1.66 4.183 3.567 5.856 1.909 1.673 4.536 2.51 7.883 2.51 1.88 0 3.524-.28 4.933-.837 1.41-.557 2.613-1.16 3.611-1.805a13.92 13.92 0 0 0 2.907-2.642l6.165 7.925c-1.292 1.468-2.877 2.73-4.756 3.787-1.585.94-3.523 1.79-5.813 2.553-2.29.764-4.933 1.145-7.927 1.145-3.171 0-6.151-.587-8.94-1.76-2.79-1.175-5.226-2.79-7.31-4.844a22.545 22.545 0 0 1-4.89-7.132c-1.174-2.7-1.76-5.607-1.76-8.718 0-3.053.586-5.944 1.76-8.674a22.766 22.766 0 0 1 4.845-7.176 22.915 22.915 0 0 1 7.135-4.843c2.7-1.174 5.607-1.761 8.72-1.761 3.053 0 5.9.543 8.543 1.629 2.642 1.086 4.932 2.597 6.87 4.535 1.938 1.937 3.45 4.226 4.536 6.868 1.086 2.642 1.63 5.489 1.63 8.541 0 .822-.03 1.527-.089 2.114a36.52 36.52 0 0 1-.176 1.497c-.058.47-.117.88-.176 1.232h-31.268zm10.13-16.29c-2.643 0-4.83.763-6.563 2.29a11.696 11.696 0 0 0-3.567 5.635H185.7c-.47-2.23-1.541-4.11-3.215-5.635-1.673-1.527-3.831-2.29-6.474-2.29zm54.805 2.202a27.434 27.434 0 0 0-2.246-.352 14.86 14.86 0 0 0-1.717-.089c-3.113 0-5.579.969-7.399 2.906-1.82 1.937-2.73 4.784-2.73 8.542V87.69h-11.891V44.542h11.89v5.284a14.717 14.717 0 0 1 3.171-2.818c1.057-.705 2.35-1.365 3.876-1.981 1.527-.617 3.288-.925 5.285-.925h1.761V55.99zm17.373 31.7h-11.891V44.542h11.89V87.69zm.88-55.475c0 1.995-.616 3.595-1.85 4.799-1.232 1.203-2.965 1.805-5.196 1.805-1.996 0-3.596-.602-4.8-1.805-1.204-1.204-1.806-2.804-1.806-4.8 0-1.995.602-3.595 1.806-4.798 1.204-1.204 2.804-1.806 4.8-1.806 2.231 0 3.964.602 5.197 1.806 1.233 1.203 1.85 2.803 1.85 4.799zm19.134 37.863c.47 2.231 1.66 4.183 3.568 5.856 1.908 1.673 4.536 2.51 7.883 2.51 1.879 0 3.523-.28 4.932-.837 1.41-.557 2.613-1.16 3.611-1.805a13.92 13.92 0 0 0 2.907-2.642l6.165 7.925c-1.292 1.468-2.877 2.73-4.756 3.787-1.585.94-3.523 1.79-5.813 2.553-2.29.764-4.933 1.145-7.927 1.145-3.171 0-6.151-.587-8.94-1.76-2.79-1.175-5.226-2.79-7.31-4.844a22.545 22.545 0 0 1-4.89-7.132c-1.173-2.7-1.76-5.607-1.76-8.718 0-3.053.587-5.944 1.76-8.674a22.766 22.766 0 0 1 4.845-7.176 22.915 22.915 0 0 1 7.135-4.843c2.7-1.174 5.607-1.761 8.72-1.761 3.053 0 5.9.543 8.543 1.629 2.642 1.086 4.932 2.597 6.87 4.535 1.938 1.937 3.45 4.226 4.536 6.868 1.086 2.642 1.63 5.489 1.63 8.541 0 .822-.03 1.527-.088 2.114a36.518 36.518 0 0 1-.177 1.497c-.058.47-.117.88-.176 1.232h-31.268zm10.13-16.29c-2.643 0-4.83.763-6.562 2.29a11.696 11.696 0 0 0-3.568 5.635h19.818c-.47-2.23-1.541-4.11-3.215-5.635-1.673-1.527-3.831-2.29-6.474-2.29zm40.713-3.962a17.589 17.589 0 0 1 3.17-3.082c1.057-.763 2.35-1.468 3.876-2.114 1.527-.645 3.288-.968 5.285-.968 2.407 0 4.638.425 6.694 1.277a14.765 14.765 0 0 1 5.328 3.742c1.498 1.644 2.657 3.625 3.48 5.944.822 2.319 1.233 4.975 1.233 7.969V87.69h-11.891V63.915c0-2.642-.778-4.77-2.334-6.384-1.556-1.615-3.567-2.422-6.034-2.422-2.642 0-4.77.851-6.385 2.554-1.615 1.702-2.422 4.226-2.422 7.572V87.69h-11.891V44.542h11.89v5.284zm36.309 16.29c0-2.994.616-5.841 1.85-8.541a23.429 23.429 0 0 1 5.02-7.133c2.114-2.055 4.595-3.698 7.443-4.931s5.857-1.85 9.028-1.85c2.994 0 5.593.456 7.795 1.366 2.202.91 4.037 1.922 5.505 3.038 1.702 1.291 3.141 2.759 4.315 4.402l-7.486 7.485a12.92 12.92 0 0 0-2.554-2.818c-.823-.704-1.88-1.365-3.171-1.981-1.292-.616-2.76-.925-4.404-.925-1.527 0-2.98.309-4.36.925a11.735 11.735 0 0 0-3.655 2.554 12.352 12.352 0 0 0-2.51 3.786c-.617 1.438-.925 2.98-.925 4.623 0 1.644.308 3.185.924 4.623a12.352 12.352 0 0 0 2.51 3.786 11.735 11.735 0 0 0 3.656 2.554c1.38.616 2.833.925 4.36.925 1.644 0 3.112-.294 4.404-.881 1.292-.587 2.407-1.233 3.347-1.937a14.716 14.716 0 0 0 2.818-2.906l7.046 7.485c-1.174 1.643-2.613 3.11-4.315 4.402-1.468 1.116-3.303 2.128-5.505 3.038-2.202.91-4.8 1.365-7.795 1.365-3.171 0-6.18-.616-9.028-1.849-2.848-1.233-5.329-2.876-7.443-4.931a23.429 23.429 0 0 1-5.02-7.133 20.327 20.327 0 0 1-1.85-8.541zm57.008 3.962c.47 2.231 1.659 4.183 3.567 5.856 1.908 1.673 4.536 2.51 7.883 2.51 1.879 0 3.523-.28 4.932-.837 1.41-.557 2.613-1.16 3.612-1.805a13.92 13.92 0 0 0 2.906-2.642l6.166 7.925c-1.292 1.468-2.878 2.73-4.757 3.787-1.585.94-3.523 1.79-5.813 2.553-2.29.764-4.932 1.145-7.927 1.145-3.17 0-6.15-.587-8.94-1.76-2.789-1.175-5.226-2.79-7.31-4.844a22.545 22.545 0 0 1-4.889-7.132c-1.174-2.7-1.761-5.607-1.761-8.718 0-3.053.587-5.944 1.761-8.674a22.766 22.766 0 0 1 4.845-7.176 22.915 22.915 0 0 1 7.134-4.843c2.701-1.174 5.608-1.761 8.72-1.761 3.053 0 5.901.543 8.543 1.629 2.643 1.086 4.933 2.597 6.87 4.535 1.938 1.937 3.45 4.226 4.537 6.868 1.086 2.642 1.629 5.489 1.629 8.541 0 .822-.03 1.527-.088 2.114a36.518 36.518 0 0 1-.176 1.497c-.059.47-.118.88-.176 1.232h-31.268zm10.129-16.29c-2.643 0-4.83.763-6.562 2.29a11.696 11.696 0 0 0-3.567 5.635h19.817c-.47-2.23-1.541-4.11-3.214-5.635-1.674-1.527-3.832-2.29-6.474-2.29zm-4.626 158.813h1.784v4.391h2.882v1.784h-2.882v7.822c0 .695.16 1.212.48 1.55.32.339.755.508 1.304.508a4.17 4.17 0 0 0 1.263-.192c.201-.073.375-.147.521-.22v1.784a8.562 8.562 0 0 1-.549.22c-.164.055-.361.1-.59.137a4.606 4.606 0 0 1-.727.055c-1.135 0-2.022-.33-2.663-.988-.64-.659-.96-1.61-.96-2.854v-7.822h-2.471v-1.784h1.51c.731 0 1.098-.457 1.098-1.372v-3.019zm18.286 10.978a5.208 5.208 0 0 0-1.428-3.623 4.79 4.79 0 0 0-1.523-1.07 4.511 4.511 0 0 0-1.853-.384c-.66 0-1.277.128-1.853.384a4.79 4.79 0 0 0-1.524 1.07c-.44.458-.787.997-1.043 1.62a5.209 5.209 0 0 0-.384 2.003c0 .713.128 1.381.384 2.003a4.969 4.969 0 0 0 2.567 2.676 4.379 4.379 0 0 0 1.853.398c.658 0 1.276-.128 1.853-.384a4.79 4.79 0 0 0 1.523-1.07c.44-.458.787-.998 1.043-1.62.256-.622.385-1.29.385-2.003zm-11.53 0c0-.952.179-1.848.535-2.69a6.921 6.921 0 0 1 1.442-2.181 6.766 6.766 0 0 1 2.127-1.455 6.46 6.46 0 0 1 2.622-.535 6.46 6.46 0 0 1 2.621.535 6.766 6.766 0 0 1 2.128 1.455 6.921 6.921 0 0 1 1.44 2.181c.358.842.536 1.738.536 2.69 0 .97-.178 1.87-.535 2.703a6.963 6.963 0 0 1-1.441 2.168 6.766 6.766 0 0 1-2.128 1.455 6.46 6.46 0 0 1-2.621.535 6.46 6.46 0 0 1-2.622-.535 6.766 6.766 0 0 1-2.127-1.455 6.963 6.963 0 0 1-1.442-2.168 6.788 6.788 0 0 1-.535-2.703zm22.298.686c.036.585.183 1.143.439 1.674.256.53.595.997 1.016 1.4.42.402.905.722 1.454.96a4.372 4.372 0 0 0 1.757.357c.696 0 1.304-.114 1.826-.343.521-.229.965-.48 1.331-.755.421-.33.787-.695 1.098-1.098l1.235 1.235c-.384.513-.85.97-1.4 1.373a8.48 8.48 0 0 1-1.729.946c-.677.284-1.464.426-2.36.426a6.138 6.138 0 0 1-2.54-.535 6.772 6.772 0 0 1-3.527-3.623 6.943 6.943 0 0 1-.522-2.703c0-.952.174-1.848.522-2.69a6.852 6.852 0 0 1 1.413-2.181 6.788 6.788 0 0 1 2.06-1.455 5.825 5.825 0 0 1 2.456-.535c.897 0 1.73.165 2.498.494.769.33 1.437.782 2.004 1.358a6.13 6.13 0 0 1 1.331 2.086c.32.814.48 1.697.48 2.648 0 .147-.008.28-.027.398a7.245 7.245 0 0 1-.055.316c-.018.11-.036.201-.054.274l-10.706-.027zm4.529-5.763c-.586 0-1.14.11-1.66.329-.522.22-.984.521-1.387.906a4.974 4.974 0 0 0-.988 1.317 4.731 4.731 0 0 0-.494 1.564h8.921a5.117 5.117 0 0 0-.48-1.633 4.55 4.55 0 0 0-.947-1.303 4.34 4.34 0 0 0-1.332-.865 4.192 4.192 0 0 0-1.633-.315zm11.286.411a4.91 4.91 0 0 1 1.043-1.097c.366-.275.81-.526 1.332-.755.521-.229 1.148-.343 1.88-.343.787 0 1.51.132 2.169.398.658.265 1.221.64 1.688 1.125a5.179 5.179 0 0 1 1.098 1.77c.265.695.398 1.473.398 2.333v7.821h-1.922v-7.821c0-1.171-.334-2.104-1.002-2.8-.668-.695-1.523-1.042-2.566-1.042-.586 0-1.13.105-1.634.315-.503.21-.938.508-1.304.892a4.189 4.189 0 0 0-.864 1.386 4.91 4.91 0 0 0-.316 1.798v7.272h-1.922v-13.173h1.922v1.921zm17.188 11.252l-5.353-13.173h2.059l4.255 10.566 4.255-10.566h2.059l-5.353 13.173h-1.922zm9.502-13.173h1.921v13.173h-1.921v-13.173zm-.275-4.39c0-.348.12-.641.357-.879.238-.238.53-.357.879-.357.347 0 .64.12.878.357.238.238.357.53.357.878s-.12.64-.357.878c-.238.238-.53.357-.878.357s-.641-.119-.879-.357a1.193 1.193 0 0 1-.357-.878zm12.796 7.272a3.635 3.635 0 0 0-.714-.686 5.722 5.722 0 0 0-.92-.467c-.356-.146-.773-.22-1.248-.22-.75 0-1.35.202-1.798.604-.449.403-.673.842-.673 1.318 0 .475.179.85.535 1.125.357.274.796.503 1.318.686.522.183 1.093.361 1.716.535a8.192 8.192 0 0 1 1.715.686c.522.284.961.664 1.318 1.14.357.475.535 1.097.535 1.865 0 .55-.11 1.066-.33 1.551-.219.485-.534.906-.946 1.262a4.64 4.64 0 0 1-1.51.851c-.595.21-1.267.316-2.018.316-.823 0-1.537-.12-2.14-.357-.605-.238-1.108-.503-1.51-.796a4.157 4.157 0 0 1-1.154-1.18l1.373-1.372a4.9 4.9 0 0 0 .878.96c.293.257.655.48 1.085.673.43.192.92.288 1.468.288.97 0 1.693-.21 2.169-.631.476-.421.714-.943.714-1.565 0-.494-.179-.887-.536-1.18a4.524 4.524 0 0 0-1.317-.727 22.466 22.466 0 0 0-1.716-.549 8.699 8.699 0 0 1-1.716-.672 4.032 4.032 0 0 1-1.317-1.098c-.357-.457-.535-1.061-.535-1.811 0-.476.105-.938.315-1.386.21-.448.508-.842.892-1.18a4.603 4.603 0 0 1 1.387-.824c.54-.21 1.139-.315 1.798-.315.695 0 1.304.096 1.825.288.522.192.966.398 1.332.617.42.257.786.55 1.098.879l-1.373 1.372zm4.835-2.882h1.922v13.173h-1.922v-13.173zm-.274-4.39c0-.348.118-.641.356-.879s.531-.357.879-.357.64.12.878.357c.238.238.357.53.357.878s-.119.64-.357.878-.53.357-.878.357-.64-.119-.879-.357a1.193 1.193 0 0 1-.356-.878zm16.776 10.977a5.208 5.208 0 0 0-1.428-3.623 4.79 4.79 0 0 0-1.523-1.07 4.511 4.511 0 0 0-1.853-.384c-.659 0-1.277.128-1.853.384a4.79 4.79 0 0 0-1.524 1.07c-.439.458-.787.997-1.043 1.62a5.209 5.209 0 0 0-.384 2.003c0 .713.128 1.381.384 2.003a4.969 4.969 0 0 0 2.567 2.676 4.379 4.379 0 0 0 1.853.398c.659 0 1.276-.128 1.853-.384a4.79 4.79 0 0 0 1.523-1.07c.44-.458.787-.998 1.043-1.62.257-.622.385-1.29.385-2.003zm-11.53 0c0-.952.179-1.848.536-2.69a6.921 6.921 0 0 1 1.44-2.181 6.766 6.766 0 0 1 2.128-1.455 6.46 6.46 0 0 1 2.622-.535 6.46 6.46 0 0 1 2.621.535 6.766 6.766 0 0 1 2.128 1.455 6.921 6.921 0 0 1 1.441 2.181c.357.842.535 1.738.535 2.69 0 .97-.178 1.87-.535 2.703a6.963 6.963 0 0 1-1.441 2.168 6.766 6.766 0 0 1-2.128 1.455 6.46 6.46 0 0 1-2.621.535 6.46 6.46 0 0 1-2.622-.535 6.766 6.766 0 0 1-2.127-1.455 6.963 6.963 0 0 1-1.441-2.168 6.788 6.788 0 0 1-.536-2.703zm18.424-4.666a4.91 4.91 0 0 1 1.043-1.097c.366-.275.81-.526 1.331-.755.522-.229 1.148-.343 1.88-.343.787 0 1.51.132 2.17.398.658.265 1.22.64 1.687 1.125a5.179 5.179 0 0 1 1.098 1.77c.266.695.398 1.473.398 2.333v7.821h-1.921v-7.821c0-1.171-.334-2.104-1.002-2.8-.668-.695-1.524-1.042-2.567-1.042-.585 0-1.13.105-1.633.315-.503.21-.938.508-1.304.892a4.189 4.189 0 0 0-.865 1.386 4.91 4.91 0 0 0-.315 1.798v7.272h-1.922v-13.173h1.922v1.921zm27.925-4.116c0 .732-.188 1.418-.563 2.058-.375.64-.783 1.208-1.222 1.702a11.43 11.43 0 0 1-1.784 1.591l4.392 5.352c.22-.366.421-.787.604-1.263.146-.402.288-.887.426-1.454.137-.567.205-1.217.205-1.949h1.785c0 .934-.096 1.78-.289 2.539a14.3 14.3 0 0 1-.617 1.935c-.256.622-.55 1.189-.879 1.701a5 5 0 0 0 .66.824c.2.2.43.388.685.562.257.174.54.26.851.26a2.758 2.758 0 0 0 .55-.054c.091-.018.182-.046.274-.082v1.784a1.456 1.456 0 0 1-.302.082 2.67 2.67 0 0 1-.316.041 4.48 4.48 0 0 1-.343.014c-.476 0-.91-.115-1.304-.343a4.864 4.864 0 0 1-1.002-.755 5.511 5.511 0 0 1-.85-1.098 7.771 7.771 0 0 1-1.318 1.098c-.421.274-.947.526-1.579.755-.631.228-1.359.343-2.182.343-.824 0-1.574-.128-2.251-.384a5.393 5.393 0 0 1-1.73-1.03 4.711 4.711 0 0 1-1.111-1.482 4.071 4.071 0 0 1-.398-1.77c0-.86.187-1.633.562-2.319a8.21 8.21 0 0 1 1.277-1.77 9.496 9.496 0 0 1 1.867-1.537 12.785 12.785 0 0 1-1.455-1.729 11.2 11.2 0 0 1-.989-1.687c-.292-.613-.439-1.213-.439-1.798s.115-1.134.343-1.647c.23-.512.54-.96.934-1.344.393-.385.855-.691 1.386-.92a4.323 4.323 0 0 1 1.73-.343c.622 0 1.198.11 1.729.33.53.22.993.521 1.386.905.394.384.705.823.933 1.317.23.494.344 1.016.344 1.565zm-4.804 6.45c-.568.438-1.07.905-1.51 1.399-.384.42-.732.9-1.043 1.44a3.333 3.333 0 0 0-.467 1.688c0 .879.325 1.578.975 2.1.65.521 1.56.782 2.73.782.623 0 1.172-.087 1.648-.26a6.811 6.811 0 0 0 1.208-.563 4.38 4.38 0 0 0 .988-.824l-4.53-5.763zm-2.196-6.313c0 .42.128.86.384 1.317.256.458.54.888.85 1.29.349.476.76.933 1.236 1.372.513-.384.97-.805 1.373-1.262a6.9 6.9 0 0 0 .947-1.276c.283-.485.425-.965.425-1.441 0-.695-.242-1.28-.727-1.756s-1.112-.714-1.88-.714c-.77 0-1.396.238-1.881.714-.485.475-.727 1.06-.727 1.756zm29.709 8.645a5.209 5.209 0 0 0-1.428-3.623 4.79 4.79 0 0 0-1.523-1.07 4.511 4.511 0 0 0-1.853-.384c-.659 0-1.277.128-1.853.384a4.79 4.79 0 0 0-1.524 1.07c-.439.458-.786.997-1.043 1.62a5.209 5.209 0 0 0-.384 2.003c0 .713.128 1.381.384 2.003a4.969 4.969 0 0 0 2.567 2.676 4.379 4.379 0 0 0 1.853.398c.659 0 1.276-.128 1.853-.384a4.79 4.79 0 0 0 1.523-1.07 5.209 5.209 0 0 0 1.427-3.623zm-11.53 0c0-.952.179-1.848.536-2.69a6.921 6.921 0 0 1 1.44-2.181 6.766 6.766 0 0 1 2.128-1.455 6.46 6.46 0 0 1 2.622-.535 6.46 6.46 0 0 1 2.621.535 6.766 6.766 0 0 1 2.128 1.455 6.921 6.921 0 0 1 1.441 2.181c.357.842.535 1.738.535 2.69 0 .97-.178 1.87-.535 2.703a6.963 6.963 0 0 1-1.441 2.168 6.766 6.766 0 0 1-2.128 1.455 6.46 6.46 0 0 1-2.621.535 6.46 6.46 0 0 1-2.622-.535 6.766 6.766 0 0 1-2.127-1.455 6.963 6.963 0 0 1-1.441-2.168 6.788 6.788 0 0 1-.536-2.703zm18.424 0c0 .695.132 1.35.398 1.962a5.38 5.38 0 0 0 1.057 1.606c.439.457.938.823 1.496 1.097.558.275 1.13.412 1.715.412.55 0 1.085-.128 1.606-.384a4.61 4.61 0 0 0 1.4-1.07 5.559 5.559 0 0 0 1.002-1.62c.256-.622.385-1.29.385-2.003 0-.714-.129-1.382-.385-2.004a5.559 5.559 0 0 0-1.002-1.619 4.61 4.61 0 0 0-1.4-1.07 3.604 3.604 0 0 0-1.606-.384c-.585 0-1.157.137-1.715.411a5.309 5.309 0 0 0-1.496 1.098c-.44.458-.792.997-1.057 1.62a4.916 4.916 0 0 0-.398 1.948zm0 12.35h-1.922v-18.937h1.922v2.059a5.18 5.18 0 0 1 1.208-1.153 7.696 7.696 0 0 1 1.454-.81c.568-.247 1.236-.37 2.004-.37.824 0 1.615.178 2.375.535.76.357 1.432.842 2.018 1.455a6.978 6.978 0 0 1 1.4 2.181c.347.842.521 1.738.521 2.69 0 .97-.174 1.87-.521 2.703a7.019 7.019 0 0 1-1.4 2.168 6.722 6.722 0 0 1-2.018 1.455 5.521 5.521 0 0 1-2.375.535c-.768 0-1.436-.12-2.004-.357a7.21 7.21 0 0 1-1.454-.796 4.938 4.938 0 0 1-1.208-1.18v7.822zm14.992-11.664c.036.585.183 1.143.439 1.674.256.53.595.997 1.016 1.4.42.402.905.722 1.454.96a4.372 4.372 0 0 0 1.757.357c.696 0 1.304-.114 1.826-.343.521-.229.965-.48 1.331-.755.421-.33.787-.695 1.098-1.098l1.235 1.235c-.384.513-.85.97-1.4 1.373a8.48 8.48 0 0 1-1.729.946c-.677.284-1.464.426-2.36.426a6.138 6.138 0 0 1-2.54-.535 6.772 6.772 0 0 1-3.527-3.623 6.943 6.943 0 0 1-.522-2.703c0-.952.174-1.848.522-2.69a6.852 6.852 0 0 1 1.413-2.181 6.788 6.788 0 0 1 2.06-1.455 5.825 5.825 0 0 1 2.456-.535c.897 0 1.73.165 2.498.494.769.33 1.437.782 2.004 1.358a6.13 6.13 0 0 1 1.331 2.086c.32.814.48 1.697.48 2.648 0 .147-.008.28-.027.398a7.244 7.244 0 0 1-.055.316c-.018.11-.036.201-.055.274l-10.705-.027zm4.529-5.763c-.586 0-1.14.11-1.66.329-.522.22-.984.521-1.387.906a4.974 4.974 0 0 0-.988 1.317 4.731 4.731 0 0 0-.494 1.564h8.921a5.117 5.117 0 0 0-.48-1.633 4.55 4.55 0 0 0-.947-1.303 4.34 4.34 0 0 0-1.332-.865 4.192 4.192 0 0 0-1.633-.315zm16.227.137h-.823c-.55 0-1.07.1-1.565.302a4.18 4.18 0 0 0-1.318.85c-.384.366-.686.81-.906 1.332-.22.521-.329 1.111-.329 1.77v7.272h-1.922v-13.173h1.922v1.784a5.69 5.69 0 0 1 1.07-1.015 6.925 6.925 0 0 1 1.36-.714c.54-.22 1.194-.33 1.962-.33h.55v1.922zm10.188 3.156c0-.97-.306-1.761-.92-2.374-.613-.613-1.404-.92-2.374-.92-.586 0-1.107.101-1.565.303-.457.2-.841.42-1.153.658a7.021 7.021 0 0 0-.988.96l-1.235-1.234c.366-.458.796-.87 1.29-1.235.421-.311.933-.595 1.537-.85.604-.257 1.309-.385 2.114-.385.75 0 1.446.128 2.086.384a4.99 4.99 0 0 1 1.661 1.07 4.8 4.8 0 0 1 1.084 1.62c.257.622.385 1.29.385 2.003v8.37h-1.922v-1.784a4.697 4.697 0 0 1-1.043 1.043 6.57 6.57 0 0 1-1.345.7c-.53.21-1.153.316-1.867.316a5.21 5.21 0 0 1-1.894-.33 4.943 4.943 0 0 1-1.468-.864 3.891 3.891 0 0 1-.961-1.235 3.182 3.182 0 0 1-.343-1.413c0-1.098.329-1.985.988-2.662.659-.677 1.61-1.116 2.855-1.318l5.078-.823zm-4.255 6.86c.622 0 1.194-.104 1.716-.315.522-.21.97-.507 1.345-.892.375-.384.668-.846.878-1.386a4.91 4.91 0 0 0 .316-1.797v-.823l-4.53.823c-1.646.31-2.47 1.089-2.47 2.333 0 .549.234 1.029.7 1.44.467.412 1.149.618 2.045.618zm11.424-16.054h1.784v4.391h2.882v1.784h-2.882v7.822c0 .695.16 1.212.48 1.55.32.339.755.508 1.304.508a4.17 4.17 0 0 0 1.263-.192c.201-.073.375-.147.521-.22v1.784a8.562 8.562 0 0 1-.549.22c-.164.055-.361.1-.59.137a4.606 4.606 0 0 1-.727.055c-1.135 0-2.022-.33-2.663-.988-.64-.659-.96-1.61-.96-2.854v-7.822h-2.471v-1.784h1.51c.732 0 1.098-.457 1.098-1.372v-3.019zm8.678 11.664c.036.585.183 1.143.439 1.674.256.53.595.997 1.016 1.4.42.402.905.722 1.455.96a4.372 4.372 0 0 0 1.756.357c.696 0 1.304-.114 1.826-.343.521-.229.965-.48 1.331-.755.421-.33.787-.695 1.098-1.098l1.236 1.235c-.385.513-.851.97-1.4 1.373a8.48 8.48 0 0 1-1.73.946c-.677.284-1.464.426-2.36.426a6.138 6.138 0 0 1-2.54-.535 6.772 6.772 0 0 1-3.527-3.623 6.943 6.943 0 0 1-.522-2.703c0-.952.174-1.848.522-2.69a6.852 6.852 0 0 1 1.413-2.181 6.788 6.788 0 0 1 2.06-1.455 5.825 5.825 0 0 1 2.456-.535c.897 0 1.73.165 2.498.494.769.33 1.437.782 2.004 1.358a6.13 6.13 0 0 1 1.331 2.086c.32.814.48 1.697.48 2.648 0 .147-.008.28-.027.398a7.246 7.246 0 0 1-.055.316c-.018.11-.036.201-.054.274l-10.706-.027zm4.53-5.763c-.587 0-1.14.11-1.662.329-.521.22-.983.521-1.386.906a4.974 4.974 0 0 0-.988 1.317 4.731 4.731 0 0 0-.494 1.564h8.921a5.117 5.117 0 0 0-.48-1.633 4.55 4.55 0 0 0-.947-1.303 4.34 4.34 0 0 0-1.332-.865 4.192 4.192 0 0 0-1.633-.315zm-369.965-21.607a12.59 12.59 0 0 1-2.536 3.202c-.89.8-2.024 1.524-3.403 2.168-1.379.645-3.07.968-5.07.968-1.825 0-3.537-.334-5.139-1.001a11.94 11.94 0 0 1-4.137-2.835c-1.156-1.223-2.068-2.668-2.736-4.336-.667-1.668-1-3.502-1-5.504v-19.012h3.002v19.012c0 1.601.256 3.058.768 4.37.511 1.312 1.212 2.435 2.101 3.369a9.252 9.252 0 0 0 3.17 2.168c1.223.511 2.547.767 3.97.767 1.513 0 2.936-.3 4.27-.9a11.39 11.39 0 0 0 3.504-2.436c1-1.023 1.79-2.246 2.368-3.669.579-1.423.868-2.98.868-4.67v-18.01h3.003v32.02h-3.003v-5.67zm28.845-20.012a9.163 9.163 0 0 0-1.935-2.002c-.623-.489-1.424-.945-2.403-1.367-.978-.423-2.09-.634-3.336-.634-2.358 0-4.17.578-5.438 1.735-1.268 1.156-1.902 2.468-1.902 3.935 0 1.29.456 2.302 1.368 3.036.912.733 2.046 1.345 3.403 1.834 1.357.49 2.825.945 4.404 1.368a22.57 22.57 0 0 1 4.404 1.667c1.357.69 2.491 1.59 3.403 2.702.912 1.112 1.368 2.58 1.368 4.403a9.046 9.046 0 0 1-3.07 6.838c-.978.867-2.168 1.556-3.57 2.068-1.4.511-2.969.767-4.703.767-1.869 0-3.492-.278-4.871-.834-1.38-.556-2.558-1.168-3.537-1.835-1.157-.8-2.135-1.69-2.936-2.668l2.335-2.335c.712.89 1.513 1.668 2.403 2.335.756.623 1.69 1.167 2.802 1.634 1.112.467 2.38.7 3.804.7 2.669 0 4.726-.644 6.172-1.934 1.445-1.29 2.168-2.868 2.168-4.736 0-1.334-.456-2.38-1.368-3.135-.912-.756-2.046-1.401-3.403-1.935a40.955 40.955 0 0 0-4.404-1.434 24.03 24.03 0 0 1-4.403-1.635c-1.357-.667-2.492-1.534-3.404-2.601-.911-1.068-1.367-2.49-1.367-4.27 0-1.067.255-2.123.767-3.168a9.21 9.21 0 0 1 2.135-2.802c.912-.823 2.002-1.479 3.27-1.968 1.268-.49 2.658-.734 4.17-.734 1.557 0 2.958.245 4.204.734 1.245.49 2.313 1.023 3.203 1.601 1.023.712 1.89 1.49 2.602 2.335l-2.335 2.335zm10.828-6.338h3.003v32.02h-3.003v-32.02zm-.667-11.34c0-.667.223-1.223.667-1.668.445-.445 1.001-.667 1.669-.667.667 0 1.223.222 1.668.667.445.445.667 1 .667 1.668 0 .667-.222 1.223-.667 1.668-.445.444-1.001.667-1.668.667-.668 0-1.224-.223-1.669-.667-.444-.445-.667-1.001-.667-1.668zm16.834 17.01a11.824 11.824 0 0 1 2.469-3.135c.89-.8 2.035-1.534 3.436-2.201 1.402-.667 3.103-1 5.105-1 1.824 0 3.525.333 5.105 1a12.37 12.37 0 0 1 4.137 2.835c1.178 1.223 2.101 2.668 2.769 4.336.667 1.668 1 3.502 1 5.504v19.012h-3.002v-19.012c0-1.601-.256-3.058-.767-4.37-.512-1.312-1.213-2.435-2.102-3.369a9.252 9.252 0 0 0-3.17-2.168c-1.223-.511-2.547-.767-3.97-.767-1.513 0-2.936.3-4.27.9a11.39 11.39 0 0 0-3.504 2.436c-1 1.022-1.79 2.257-2.368 3.702-.579 1.445-.868 2.99-.868 4.636v18.012h-3.003v-32.02h3.003v5.67zm33.85 9.673c0 1.824.322 3.536.967 5.137.645 1.601 1.512 2.98 2.602 4.136a12.46 12.46 0 0 0 3.737 2.735c1.401.667 2.858 1 4.37 1 1.513 0 2.98-.333 4.404-1a13.176 13.176 0 0 0 3.837-2.735c1.134-1.156 2.046-2.535 2.736-4.136.69-1.601 1.034-3.313 1.034-5.137 0-1.823-.345-3.524-1.034-5.103-.69-1.579-1.602-2.957-2.736-4.136a12.886 12.886 0 0 0-3.837-2.768c-1.423-.667-2.891-1-4.404-1-1.512 0-2.969.333-4.37 1a12.2 12.2 0 0 0-3.737 2.768c-1.09 1.179-1.957 2.557-2.602 4.136-.645 1.579-.968 3.28-.968 5.103zm23.687 9.34a13.6 13.6 0 0 1-2.87 3.335c-.978.845-2.223 1.612-3.736 2.302-1.512.689-3.314 1.033-5.405 1.033-1.912 0-3.758-.41-5.538-1.234a15.078 15.078 0 0 1-4.704-3.402c-1.357-1.445-2.436-3.135-3.236-5.07-.801-1.934-1.201-4.036-1.201-6.304 0-2.268.4-4.37 1.2-6.304.801-1.934 1.88-3.624 3.237-5.07a15.077 15.077 0 0 1 4.704-3.402 13.053 13.053 0 0 1 5.538-1.234c2.091 0 3.893.345 5.405 1.034 1.513.69 2.758 1.457 3.737 2.302a13.6 13.6 0 0 1 2.87 3.335v-6.004h3.002v30.02c0 2.267-.412 4.369-1.235 6.303-.823 1.935-1.935 3.625-3.336 5.07a15.522 15.522 0 0 1-4.87 3.402c-1.847.823-3.815 1.234-5.906 1.234-2.18 0-4.07-.344-5.672-1.034-1.601-.689-2.914-1.456-3.937-2.301a15.558 15.558 0 0 1-3.07-3.335l2.003-2.002a11.98 11.98 0 0 0 2.735 2.869c.89.711 1.991 1.356 3.303 1.934 1.313.578 2.858.868 4.638.868 1.646 0 3.225-.334 4.737-1.001a12.272 12.272 0 0 0 3.937-2.735c1.112-1.156 2.002-2.535 2.67-4.136.667-1.601 1-3.313 1-5.137v-5.336zm31.333-21.347a13.325 13.325 0 0 1 2.402-2.335c.8-.578 1.78-1.112 2.936-1.601 1.157-.49 2.491-.734 4.004-.734 1.823 0 3.514.323 5.07.967a11.186 11.186 0 0 1 4.038 2.836c1.134 1.245 2.013 2.746 2.635 4.502.623 1.757.934 3.77.934 6.038v19.012h-9.008v-18.012c0-2.001-.589-3.613-1.768-4.836-1.179-1.223-2.702-1.835-4.57-1.835-2.002 0-3.615.645-4.838 1.935-1.224 1.29-1.835 3.202-1.835 5.737v17.01h-9.008V155.87h9.008v18.012zm50.864 25.35a10.649 10.649 0 0 1-2.402 2c-.8.49-1.78.945-2.936 1.368-1.156.422-2.491.634-4.003.634-1.824 0-3.515-.323-5.072-.968a11.582 11.582 0 0 1-4.037-2.768c-1.134-1.2-2.012-2.646-2.635-4.336-.623-1.69-.934-3.602-.934-5.737v-19.546h9.008v18.679c0 1.868.589 3.39 1.768 4.57 1.179 1.178 2.702 1.767 4.57 1.767 2.002 0 3.615-.645 4.838-1.935 1.224-1.29 1.835-3.202 1.835-5.736v-17.345h9.008v32.688h-9.008v-3.336zm56.87-14.677c0-2.179-.512-3.836-1.535-4.97s-2.29-1.7-3.803-1.7c-1.69 0-3.114.644-4.27 1.934-1.157 1.29-1.735 3.202-1.735 5.737v17.01h-9.009v-18.01c0-2.18-.511-3.837-1.534-4.97-1.023-1.135-2.291-1.702-3.804-1.702-1.69 0-3.113.645-4.27 1.935-1.157 1.29-1.735 3.202-1.735 5.737v17.01h-9.008v-32.687h9.008v4.003a13.597 13.597 0 0 1 2.202-2.335c.756-.578 1.668-1.112 2.736-1.601 1.067-.49 2.313-.734 3.736-.734 1.735 0 3.192.3 4.371.9 1.179.601 2.146 1.257 2.903 1.969a9.961 9.961 0 0 1 2.068 2.801c.712-1.067 1.624-2 2.736-2.801.89-.712 2.024-1.368 3.403-1.968 1.379-.6 3.003-.9 4.87-.9 3.515 0 6.34 1.178 8.475 3.535s3.203 5.959 3.203 10.807v19.012h-9.008v-18.012zm33.85 14.676a13.05 13.05 0 0 1-2.403 2.001c-.756.49-1.69.945-2.802 1.368-1.113.422-2.38.634-3.804.634-1.69 0-3.203-.256-4.537-.767-1.335-.512-2.491-1.19-3.47-2.035a8.516 8.516 0 0 1-2.235-2.969 8.583 8.583 0 0 1-.768-3.569c0-2.668.857-4.892 2.57-6.67 1.712-1.78 4.08-2.936 7.106-3.47l10.342-1.867c0-1.334-.478-2.446-1.434-3.336-.957-.89-2.37-1.334-4.238-1.334-1.29 0-2.38.178-3.27.534-.889.356-1.645.734-2.268 1.134a8.111 8.111 0 0 0-1.801 1.668l-5.005-5.004c.89-1.156 1.98-2.2 3.27-3.135 1.067-.8 2.413-1.534 4.037-2.201 1.623-.667 3.525-1 5.705-1 2.09 0 3.992.333 5.705 1 1.712.667 3.192 1.59 4.437 2.768a12.141 12.141 0 0 1 2.87 4.136c.667 1.579 1 3.28 1 5.103v20.347h-9.008v-3.336zm-6.673-3.335c2.001 0 3.614-.634 4.837-1.902 1.224-1.267 1.835-3.08 1.835-5.436v-1l-7.34 1.333c-2.446.4-3.67 1.623-3.67 3.67 0 1.022.345 1.834 1.035 2.434.69.6 1.79.9 3.303.9zm31.513-22.014a13.325 13.325 0 0 1 2.403-2.335c.8-.578 1.779-1.112 2.935-1.601 1.157-.49 2.492-.734 4.004-.734 1.824 0 3.514.323 5.071.967a11.186 11.186 0 0 1 4.037 2.836c1.135 1.245 2.013 2.746 2.636 4.502.623 1.757.934 3.77.934 6.038v19.012H608.2v-18.012c0-2.001-.59-3.613-1.768-4.836-1.18-1.223-2.703-1.835-4.571-1.835-2.002 0-3.614.645-4.838 1.935-1.223 1.29-1.835 3.202-1.835 5.737v17.01h-9.008v-32.687h9.008v4.003zm50.016 28.685h-9.008v-32.688h9.008v32.688zm.668-42.027c0 1.512-.467 2.724-1.402 3.636-.934.911-2.246 1.367-3.936 1.367-1.513 0-2.725-.456-3.637-1.367-.912-.912-1.368-2.124-1.368-3.636s.456-2.724 1.368-3.636c.912-.911 2.124-1.367 3.637-1.367 1.69 0 3.002.456 3.936 1.367.935.912 1.402 2.124 1.402 3.636zm15.5 13.342a13.325 13.325 0 0 1 2.401-2.335c.801-.578 1.78-1.112 2.936-1.601 1.157-.49 2.491-.734 4.004-.734 1.824 0 3.514.323 5.071.967a11.186 11.186 0 0 1 4.037 2.836c1.134 1.245 2.013 2.746 2.636 4.502.622 1.757.934 3.77.934 6.038v19.012h-9.008v-18.012c0-2.001-.59-3.613-1.768-4.836-1.18-1.223-2.703-1.835-4.571-1.835-2.002 0-3.615.645-4.838 1.935-1.223 1.29-1.835 3.202-1.835 5.737v17.01h-9.008v-32.687h9.008v4.003zm46.86 5.67c-.4-.49-.867-.934-1.401-1.334a8.232 8.232 0 0 0-1.702-.934c-.645-.267-1.39-.4-2.235-.4-1.335 0-2.336.278-3.003.834-.667.555-1 1.167-1 1.834 0 .756.366 1.368 1.1 1.835.734.466 1.657.889 2.77 1.267 1.112.378 2.324.778 3.636 1.2 1.312.423 2.524 1.001 3.637 1.735a9.36 9.36 0 0 1 2.769 2.835c.734 1.157 1.1 2.646 1.1 4.47 0 1.423-.288 2.757-.867 4.002a9.597 9.597 0 0 1-2.502 3.27c-1.09.933-2.447 1.678-4.07 2.234-1.624.556-3.481.834-5.572.834-2.358 0-4.382-.312-6.072-.934-1.69-.623-3.07-1.312-4.137-2.068-1.29-.845-2.335-1.846-3.136-3.002l5.004-5.003a9.294 9.294 0 0 0 1.869 1.868c.622.489 1.356.911 2.202 1.267.845.356 1.823.534 2.936.534 1.512 0 2.613-.29 3.303-.868.69-.578 1.034-1.29 1.034-2.134 0-.845-.367-1.501-1.101-1.968-.734-.467-1.657-.9-2.77-1.3-1.111-.401-2.324-.813-3.636-1.235a15.562 15.562 0 0 1-3.636-1.701 9.276 9.276 0 0 1-2.77-2.735c-.734-1.112-1.1-2.58-1.1-4.403 0-1.245.31-2.49.934-3.736.622-1.245 1.5-2.357 2.635-3.335 1.135-.979 2.48-1.768 4.037-2.368 1.557-.6 3.248-.9 5.071-.9 1.913 0 3.581.266 5.005.8 1.423.533 2.602 1.111 3.536 1.734 1.112.756 2.047 1.579 2.803 2.468l-4.671 5.337zm19.837 23.015h-9.008v-32.688h9.008v32.688zm.667-42.027c0 1.512-.467 2.724-1.401 3.636-.934.911-2.247 1.367-3.937 1.367-1.513 0-2.725-.456-3.637-1.367-.912-.912-1.368-2.124-1.368-3.636s.456-2.724 1.368-3.636c.912-.911 2.124-1.367 3.637-1.367 1.69 0 3.003.456 3.937 1.367.934.912 1.401 2.124 1.401 3.636zm28.845 36.69a12.301 12.301 0 0 1-2.47 2.335c-.8.622-1.812 1.167-3.035 1.634-1.223.467-2.614.7-4.17.7-1.824 0-3.615-.433-5.372-1.3a16.34 16.34 0 0 1-4.704-3.503c-1.38-1.467-2.491-3.19-3.336-5.17-.846-1.979-1.268-4.102-1.268-6.37s.422-4.392 1.268-6.37c.845-1.98 1.957-3.703 3.336-5.17a16.34 16.34 0 0 1 4.704-3.503c1.757-.867 3.548-1.3 5.371-1.3 1.557 0 2.948.244 4.17.733 1.224.49 2.236 1.023 3.037 1.601.934.712 1.757 1.49 2.469 2.335v-4.003h9.008v30.02c0 2.356-.434 4.547-1.301 6.57a16.103 16.103 0 0 1-3.604 5.27c-1.534 1.49-3.37 2.668-5.504 3.536-2.136.867-4.449 1.3-6.94 1.3-2.536 0-4.738-.355-6.606-1.067-1.868-.711-3.425-1.512-4.67-2.401-1.469-1.023-2.714-2.202-3.737-3.536l5.671-5.337a9.707 9.707 0 0 0 2.269 2.202c.756.533 1.69 1.023 2.803 1.467 1.112.445 2.424.667 3.936.667 2.67 0 4.782-.778 6.34-2.334 1.556-1.557 2.335-3.67 2.335-6.338v-2.668zm-15.014-11.674c0 1.156.19 2.223.568 3.202.378.978.9 1.823 1.568 2.535a7.247 7.247 0 0 0 2.335 1.667c.89.4 1.846.6 2.87.6.978 0 1.934-.2 2.868-.6a7.55 7.55 0 0 0 2.47-1.7 8.604 8.604 0 0 0 1.7-2.536c.423-.956.635-2.012.635-3.168a7.822 7.822 0 0 0-.634-3.136 8.48 8.48 0 0 0-1.702-2.568 7.55 7.55 0 0 0-2.469-1.7 7.22 7.22 0 0 0-2.869-.601c-1.023 0-1.98.2-2.869.6-.89.4-1.668.956-2.335 1.668a7.737 7.737 0 0 0-1.568 2.535c-.379.978-.568 2.046-.568 3.202zm40.189-11.674a13.325 13.325 0 0 1 2.402-2.335c.8-.578 1.78-1.112 2.936-1.601 1.156-.49 2.49-.734 4.003-.734 1.824 0 3.514.323 5.071.967a11.186 11.186 0 0 1 4.037 2.836c1.135 1.245 2.013 2.746 2.636 4.502.623 1.757.934 3.77.934 6.038v19.012h-9.008v-18.012c0-2.001-.59-3.613-1.768-4.836-1.179-1.223-2.702-1.835-4.57-1.835-2.003 0-3.615.645-4.838 1.935-1.224 1.29-1.835 3.202-1.835 5.737v17.01h-9.008V155.87h9.008v18.012zm32.848-13.676h8.007v10.34h6.673v8.005h-6.673v13.009c0 1.022.378 1.89 1.134 2.601.757.712 1.713 1.068 2.87 1.068.934 0 1.734-.112 2.402-.334.356-.089.667-.2.934-.333v7.671c-.534.178-1.112.356-1.735.534-.534.133-1.168.244-1.902.333-.734.09-1.523.134-2.368.134-3.337 0-5.895-.923-7.674-2.769-1.78-1.845-2.669-4.703-2.669-8.572V178.55h-5.672v-8.005h3.003c1.023 0 1.89-.389 2.602-1.167s1.068-1.835 1.068-3.169v-6.004zm54.687 5.004a9.85 9.85 0 0 1-1.402 5.103c-.934 1.579-1.979 2.946-3.136 4.102a31.002 31.002 0 0 1-4.47 3.803l12.01 14.676c.623-1.023 1.18-2.202 1.669-3.536.4-1.156.778-2.524 1.134-4.102.356-1.58.534-3.37.534-5.37h3.002c0 2.357-.233 4.469-.7 6.337-.467 1.868-.968 3.469-1.502 4.803-.622 1.556-1.334 2.957-2.135 4.203a14.33 14.33 0 0 0 1.869 2.334 10.469 10.469 0 0 0 1.935 1.635c.711.467 1.445.7 2.202.7a7.752 7.752 0 0 0 1.4-.133c.223-.045.423-.111.601-.2v3.002a2.382 2.382 0 0 1-.6.2 7.752 7.752 0 0 1-1.401.133 6.374 6.374 0 0 1-3.203-.834c-.979-.556-1.824-1.167-2.536-1.834-.8-.8-1.557-1.69-2.269-2.669a12.593 12.593 0 0 1-3.069 2.869c-1.023.711-2.313 1.356-3.87 1.934-1.557.579-3.359.868-5.405.868-1.913 0-3.67-.312-5.271-.934-1.602-.623-2.97-1.457-4.104-2.502a11.69 11.69 0 0 1-2.669-3.602 9.896 9.896 0 0 1-.968-4.303c0-2.09.49-3.969 1.468-5.637.98-1.667 2.047-3.102 3.203-4.302a23.935 23.935 0 0 1 4.671-3.736 32.25 32.25 0 0 1-3.67-4.203 27.739 27.739 0 0 1-2.535-4.102c-.757-1.49-1.135-2.947-1.135-4.37s.278-2.757.834-4.002a10.805 10.805 0 0 1 2.236-3.27 10.808 10.808 0 0 1 3.27-2.234 9.71 9.71 0 0 1 4.003-.834c1.423 0 2.747.256 3.97.767a9.744 9.744 0 0 1 3.17 2.102c.89.89 1.59 1.945 2.101 3.168.512 1.223.768 2.546.768 3.97zm-11.344 15.01a25.51 25.51 0 0 0-4.003 3.468c-1.023 1.067-1.946 2.313-2.77 3.736-.822 1.423-1.234 2.913-1.234 4.47 0 2.356.868 4.335 2.602 5.936 1.735 1.601 4.204 2.402 7.407 2.402 1.69 0 3.18-.256 4.47-.767 1.29-.512 2.38-1.079 3.27-1.701a12.822 12.822 0 0 0 2.603-2.535l-12.345-15.01zm-6.005-14.677c0 1.156.345 2.368 1.034 3.636a21.512 21.512 0 0 0 2.302 3.435c.979 1.201 2.091 2.402 3.337 3.603a41 41 0 0 0 3.803-3.47 20.456 20.456 0 0 0 2.669-3.502c.8-1.311 1.201-2.657 1.201-4.035 0-2.002-.667-3.67-2.002-5.004-1.334-1.334-3.002-2-5.004-2-1.023 0-1.98.2-2.87.6-.89.4-1.668.933-2.335 1.6a7.311 7.311 0 0 0-1.568 2.335 7.089 7.089 0 0 0-.567 2.802zm64.362 2.001l-5.672 15.343h11.344l-5.672-15.343zm-9.008 24.016l-4.004 11.007h-10.676l18.35-46.697h10.676l18.35 46.697h-10.676l-4.004-11.007h-18.016zm37.52-35.69h10.008v46.697h-10.009v-46.697zM447.13 240.274h1.595v6.378h4.386v1.793h-4.386v12.556c0 1.116.272 1.96.817 2.531.545.572 1.27.857 2.173.857a6.058 6.058 0 0 0 1.834-.279c.293-.106.545-.212.758-.318v1.793a7.252 7.252 0 0 1-.758.32 6.058 6.058 0 0 1-1.834.279c-1.515 0-2.691-.44-3.528-1.316-.838-.877-1.256-2.166-1.256-3.867v-12.556h-3.788v-1.793h2.592c.398 0 .73-.14.996-.419.266-.279.399-.67.399-1.176v-4.783zm9.415 15.944c0-1.382.252-2.684.757-3.906a9.781 9.781 0 0 1 2.074-3.17 9.96 9.96 0 0 1 3.05-2.112 8.915 8.915 0 0 1 3.688-.777c1.302 0 2.532.26 3.688.777a9.96 9.96 0 0 1 3.05 2.113 9.781 9.781 0 0 1 2.073 3.169c.505 1.222.758 2.524.758 3.906 0 1.408-.253 2.717-.758 3.926a9.836 9.836 0 0 1-2.073 3.15 9.96 9.96 0 0 1-3.05 2.112 8.915 8.915 0 0 1-3.688.777 8.915 8.915 0 0 1-3.688-.777 9.96 9.96 0 0 1-3.05-2.113 9.836 9.836 0 0 1-2.074-3.149c-.505-1.209-.757-2.518-.757-3.926zm17.344 0a8.315 8.315 0 0 0-.618-3.209 8.035 8.035 0 0 0-4.187-4.325 7.15 7.15 0 0 0-2.97-.637 7.15 7.15 0 0 0-2.97.637 8.035 8.035 0 0 0-4.186 4.325 8.315 8.315 0 0 0-.619 3.21c0 1.142.206 2.211.618 3.208a8.035 8.035 0 0 0 4.186 4.325 7.15 7.15 0 0 0 2.97.637 7.15 7.15 0 0 0 2.971-.637 8.035 8.035 0 0 0 4.186-4.325 8.315 8.315 0 0 0 .619-3.209zm32.739-1.794c0-.983-.14-1.873-.419-2.67-.279-.798-.664-1.468-1.156-2.013a5.109 5.109 0 0 0-1.715-1.256 5.052 5.052 0 0 0-2.093-.438c-.797 0-1.548.16-2.252.478a5.294 5.294 0 0 0-1.835 1.375c-.518.598-.93 1.329-1.236 2.193-.305.863-.458 1.84-.458 2.93v10.762h-1.794v-11.36c0-.984-.14-1.874-.419-2.671-.279-.798-.664-1.468-1.156-2.013a5.109 5.109 0 0 0-1.715-1.256 5.052 5.052 0 0 0-2.093-.438c-.797 0-1.548.16-2.252.478a5.294 5.294 0 0 0-1.835 1.375c-.518.598-.93 1.329-1.236 2.193-.305.863-.458 1.84-.458 2.93v10.762h-1.794v-19.133h1.794v2.79a6.784 6.784 0 0 1 1.316-1.595c.452-.398 1.043-.764 1.774-1.096.73-.332 1.628-.498 2.691-.498 1.196 0 2.2.232 3.01.698.811.465 1.469.963 1.974 1.494a8.292 8.292 0 0 1 1.396 2.193 7.538 7.538 0 0 1 1.355-2.193c.505-.531 1.183-1.03 2.034-1.494.85-.466 1.913-.698 3.19-.698.983 0 1.913.186 2.79.558a6.725 6.725 0 0 1 2.293 1.594c.651.691 1.163 1.542 1.535 2.551.372 1.01.558 2.166.558 3.468v11.36h-1.794v-11.36zm6.424 1.794c0-1.382.253-2.684.758-3.906a9.781 9.781 0 0 1 2.073-3.17 9.96 9.96 0 0 1 3.05-2.112 8.915 8.915 0 0 1 3.688-.777c1.303 0 2.532.26 3.688.777a9.96 9.96 0 0 1 3.05 2.113 9.781 9.781 0 0 1 2.074 3.169c.505 1.222.757 2.524.757 3.906 0 1.408-.252 2.717-.757 3.926a9.836 9.836 0 0 1-2.074 3.15 9.96 9.96 0 0 1-3.05 2.112 8.915 8.915 0 0 1-3.688.777 8.915 8.915 0 0 1-3.688-.777 9.96 9.96 0 0 1-3.05-2.113 9.836 9.836 0 0 1-2.073-3.149c-.505-1.209-.758-2.518-.758-3.926zm17.344 0a8.315 8.315 0 0 0-.618-3.209 8.035 8.035 0 0 0-4.186-4.325 7.15 7.15 0 0 0-2.97-.637 7.15 7.15 0 0 0-2.971.637 8.035 8.035 0 0 0-4.186 4.325 8.315 8.315 0 0 0-.619 3.21c0 1.142.206 2.211.618 3.208a8.035 8.035 0 0 0 4.187 4.325 7.15 7.15 0 0 0 2.97.637 7.15 7.15 0 0 0 2.97-.637 8.035 8.035 0 0 0 4.186-4.325 8.315 8.315 0 0 0 .619-3.209zm16.193-8.171h-.798a6.717 6.717 0 0 0-4.724 1.913 6.842 6.842 0 0 0-1.495 2.212c-.373.864-.559 1.814-.559 2.85v10.763h-1.794v-19.133h1.794v3.188a6.414 6.414 0 0 1 1.515-1.793c.532-.452 1.223-.864 2.074-1.236.85-.372 1.914-.558 3.19-.558h.797v1.794zm13.003 0h-.797a6.717 6.717 0 0 0-4.725 1.913 6.842 6.842 0 0 0-1.495 2.212c-.372.864-.558 1.814-.558 2.85v10.763h-1.795v-19.133h1.795v3.188a6.414 6.414 0 0 1 1.515-1.793c.531-.452 1.222-.864 2.073-1.236.85-.372 1.914-.558 3.19-.558h.797v1.794zm2.039 8.171c0-1.382.252-2.684.757-3.906a9.781 9.781 0 0 1 2.074-3.17 9.96 9.96 0 0 1 3.05-2.112 8.915 8.915 0 0 1 3.688-.777c1.302 0 2.531.26 3.688.777a9.96 9.96 0 0 1 3.05 2.113 9.781 9.781 0 0 1 2.073 3.169c.505 1.222.758 2.524.758 3.906 0 1.408-.253 2.717-.758 3.926a9.836 9.836 0 0 1-2.073 3.15 9.96 9.96 0 0 1-3.05 2.112 8.915 8.915 0 0 1-3.688.777 8.915 8.915 0 0 1-3.688-.777 9.96 9.96 0 0 1-3.05-2.113 9.836 9.836 0 0 1-2.074-3.149c-.505-1.209-.757-2.518-.757-3.926zm17.343 0a8.315 8.315 0 0 0-.618-3.209 8.035 8.035 0 0 0-4.186-4.325 7.15 7.15 0 0 0-2.97-.637 7.15 7.15 0 0 0-2.97.637 8.035 8.035 0 0 0-4.186 4.325 8.315 8.315 0 0 0-.62 3.21c0 1.142.207 2.211.619 3.208a8.035 8.035 0 0 0 4.186 4.325 7.15 7.15 0 0 0 2.97.637 7.15 7.15 0 0 0 2.971-.637 8.035 8.035 0 0 0 4.186-4.325 8.315 8.315 0 0 0 .618-3.209zm18.187-9.566l5.183 16.342 5.383-16.342h1.993l-6.38 19.133h-1.793l-5.184-16.144-5.183 16.144h-1.794l-6.38-19.133h1.994l5.383 16.143 5.183-16.143h1.595zm21.793-8.371l-4.186 6.577-1.196-.598 3.389-7.175 1.993 1.196zm10.284 12.157a5.475 5.475 0 0 0-1.156-1.196c-.372-.292-.85-.564-1.435-.817-.585-.252-1.25-.378-1.994-.378-1.409 0-2.492.345-3.25 1.036-.757.691-1.136 1.475-1.136 2.352 0 .77.273 1.375.818 1.813.544.439 1.222.804 2.033 1.097.81.292 1.688.564 2.631.817.944.252 1.821.584 2.632.996.81.412 1.488.95 2.033 1.615.545.664.818 1.54.818 2.63a5.395 5.395 0 0 1-1.834 4.086c-.585.518-1.296.93-2.133 1.236-.838.305-1.775.458-2.811.458-1.117 0-2.087-.166-2.91-.498-.825-.332-1.53-.698-2.114-1.096a8.486 8.486 0 0 1-1.754-1.595l1.395-1.395c.425.532.904.997 1.435 1.395.452.372 1.01.698 1.675.977s1.422.418 2.273.418c1.595 0 2.824-.385 3.688-1.156.864-.77 1.296-1.714 1.296-2.83 0-.797-.273-1.421-.818-1.873-.545-.452-1.223-.837-2.033-1.156a24.471 24.471 0 0 0-2.632-.857 14.358 14.358 0 0 1-2.631-.977 6.278 6.278 0 0 1-2.034-1.554c-.544-.638-.817-1.488-.817-2.551 0-.638.153-1.27.459-1.894a5.503 5.503 0 0 1 1.275-1.674 6.23 6.23 0 0 1 1.954-1.176c.758-.292 1.588-.438 2.492-.438.93 0 1.768.146 2.512.438a10.69 10.69 0 0 1 1.914.957 7.95 7.95 0 0 1 1.555 1.395l-1.396 1.395zm24.013 15.745c-.957 0-1.794-.14-2.512-.418-.718-.28-1.316-.605-1.794-.977a7.35 7.35 0 0 1-1.475-1.395v10.762h-5.383v-27.902h5.383v2.392c.425-.505.917-.97 1.475-1.396.478-.345 1.076-.664 1.794-.956.718-.292 1.555-.439 2.512-.439 1.25 0 2.439.26 3.568.778a9.695 9.695 0 0 1 2.99 2.132c.865.904 1.549 1.98 2.054 3.229.505 1.249.758 2.59.758 4.026 0 1.435-.253 2.777-.758 4.026-.505 1.249-1.19 2.325-2.053 3.228a9.695 9.695 0 0 1-2.99 2.133 8.46 8.46 0 0 1-3.57.777zm-.997-15.545c-.638 0-1.25.132-1.834.398a4.845 4.845 0 0 0-1.535 1.096 5.05 5.05 0 0 0-1.037 1.694 6.124 6.124 0 0 0-.378 2.193c0 .797.126 1.528.378 2.192a5.05 5.05 0 0 0 1.037 1.694c.439.465.95.83 1.535 1.096a4.384 4.384 0 0 0 1.834.399c.638 0 1.25-.133 1.834-.399a4.845 4.845 0 0 0 1.535-1.096 5.05 5.05 0 0 0 1.037-1.694 6.124 6.124 0 0 0 .379-2.192c0-.797-.127-1.528-.38-2.193a5.05 5.05 0 0 0-1.036-1.694 4.845 4.845 0 0 0-1.535-1.096 4.384 4.384 0 0 0-1.834-.398zm25.563.797a12.419 12.419 0 0 0-1.017-.16 6.726 6.726 0 0 0-.778-.04c-1.408 0-2.525.439-3.349 1.316-.824.877-1.236 2.166-1.236 3.866v9.368h-5.382v-19.532h5.382v2.392a6.662 6.662 0 0 1 1.436-1.276 9.765 9.765 0 0 1 1.754-.897c.691-.279 1.488-.418 2.392-.418h.798v5.38zm6.823 4.584c0 .744.126 1.435.379 2.072a4.908 4.908 0 0 0 1.036 1.635c.439.452.95.81 1.535 1.076a4.384 4.384 0 0 0 1.834.399c.638 0 1.25-.133 1.834-.399a5.003 5.003 0 0 0 1.535-1.076 4.908 4.908 0 0 0 1.037-1.635 5.58 5.58 0 0 0 .379-2.072 5.58 5.58 0 0 0-.379-2.073 4.908 4.908 0 0 0-1.037-1.634 5.003 5.003 0 0 0-1.535-1.076 4.384 4.384 0 0 0-1.834-.4c-.638 0-1.249.134-1.834.4a5.003 5.003 0 0 0-1.535 1.076 4.908 4.908 0 0 0-1.036 1.634 5.58 5.58 0 0 0-.38 2.073zm15.15 0c0 1.355-.278 2.644-.837 3.866a10.78 10.78 0 0 1-2.252 3.229 11 11 0 0 1-3.31 2.232 9.708 9.708 0 0 1-3.967.837 9.665 9.665 0 0 1-3.987-.837 11.075 11.075 0 0 1-3.29-2.232 10.78 10.78 0 0 1-2.252-3.229 9.201 9.201 0 0 1-.837-3.866c0-1.356.279-2.644.837-3.867a10.78 10.78 0 0 1 2.253-3.228c.944-.93 2.04-1.675 3.29-2.233a9.665 9.665 0 0 1 3.986-.837c1.383 0 2.705.28 3.967.837a11 11 0 0 1 3.31 2.233 10.78 10.78 0 0 1 2.252 3.228 9.201 9.201 0 0 1 .838 3.867zm11.608-10.165c.93 0 1.761.147 2.492.439.731.292 1.336.611 1.814.956.559.426 1.05.89 1.476 1.396v-10.763h5.382v27.903h-5.382v-2.392a7.35 7.35 0 0 1-1.476 1.395c-.478.372-1.083.698-1.814.977-.73.279-1.561.418-2.492.418a8.46 8.46 0 0 1-3.568-.777 9.695 9.695 0 0 1-2.99-2.133c-.864-.903-1.549-1.98-2.054-3.228-.505-1.25-.757-2.591-.757-4.026 0-1.435.252-2.777.757-4.026.505-1.25 1.19-2.325 2.054-3.229a9.695 9.695 0 0 1 2.99-2.132 8.46 8.46 0 0 1 3.568-.778zm.997 15.546c.638 0 1.25-.133 1.834-.399a4.845 4.845 0 0 0 1.535-1.096 5.05 5.05 0 0 0 1.037-1.694 6.124 6.124 0 0 0 .379-2.192c0-.797-.127-1.528-.38-2.193a5.05 5.05 0 0 0-1.036-1.694 4.845 4.845 0 0 0-1.535-1.096 4.384 4.384 0 0 0-1.834-.398c-.638 0-1.25.132-1.834.398a4.845 4.845 0 0 0-1.535 1.096 5.05 5.05 0 0 0-1.037 1.694 6.124 6.124 0 0 0-.378 2.193c0 .797.126 1.528.378 2.192a5.05 5.05 0 0 0 1.037 1.694c.439.465.95.83 1.535 1.096a4.384 4.384 0 0 0 1.834.399zm28.154 2.392c-.399.451-.877.85-1.435 1.195a9.892 9.892 0 0 1-1.754.817c-.692.253-1.489.38-2.393.38-1.09 0-2.1-.194-3.03-.579a6.92 6.92 0 0 1-2.412-1.654c-.678-.718-1.203-1.581-1.575-2.591-.372-1.01-.558-2.152-.558-3.428v-11.679h5.382v11.16c0 1.117.353 2.027 1.057 2.731.704.705 1.615 1.057 2.731 1.057 1.196 0 2.16-.386 2.89-1.156.732-.771 1.097-1.914 1.097-3.428v-10.364h5.383v19.532h-5.383v-1.993zm9.016-7.773c0-1.356.28-2.644.838-3.867a10.606 10.606 0 0 1 2.272-3.228 11.12 11.12 0 0 1 3.37-2.233 10.178 10.178 0 0 1 4.086-.837c1.356 0 2.532.206 3.529.618.996.412 1.827.87 2.491 1.375a9.243 9.243 0 0 1 1.954 1.993l-3.389 3.389a5.848 5.848 0 0 0-1.156-1.276c-.372-.319-.85-.618-1.435-.897-.585-.279-1.25-.418-1.994-.418-.691 0-1.349.14-1.974.418a5.312 5.312 0 0 0-1.654 1.156 5.592 5.592 0 0 0-1.137 1.714 5.255 5.255 0 0 0-.418 2.093c0 .744.14 1.441.418 2.092.28.651.658 1.223 1.137 1.714.478.492 1.03.877 1.654 1.156a4.785 4.785 0 0 0 1.974.419c.744 0 1.409-.133 1.994-.399a8.12 8.12 0 0 0 1.515-.877c.478-.372.903-.81 1.276-1.315l3.19 3.388a9.243 9.243 0 0 1-1.955 1.993c-.664.505-1.495.963-2.491 1.375-.997.412-2.173.618-3.529.618-1.435 0-2.798-.279-4.087-.837a11.12 11.12 0 0 1-3.369-2.232 10.606 10.606 0 0 1-2.272-3.229 9.201 9.201 0 0 1-.838-3.866zm23.968-15.546h4.784v6.179h3.987v4.783h-3.987v7.773c0 .61.226 1.129.678 1.554.452.425 1.024.638 1.715.638.558 0 1.036-.067 1.435-.2a2.73 2.73 0 0 0 .558-.199v4.584c-.319.107-.664.213-1.036.32a9.43 9.43 0 0 1-1.137.198c-.438.054-.91.08-1.415.08-1.994 0-3.522-.551-4.585-1.654-1.064-1.103-1.595-2.81-1.595-5.122v-7.972h-3.39v-4.783h1.795c.611 0 1.13-.233 1.555-.698.425-.465.638-1.096.638-1.893v-3.588zm23.968 11.56a4.783 4.783 0 0 0-.838-.797 4.919 4.919 0 0 0-1.016-.559c-.386-.159-.831-.239-1.336-.239-.798 0-1.396.166-1.794.499-.399.332-.598.697-.598 1.096 0 .451.219.817.657 1.096.439.279.99.531 1.655.757.665.226 1.389.465 2.173.718a8.846 8.846 0 0 1 2.173 1.036 5.593 5.593 0 0 1 1.655 1.694c.438.691.658 1.581.658 2.67 0 .851-.173 1.648-.519 2.392a5.734 5.734 0 0 1-1.495 1.954c-.651.558-1.462 1.003-2.432 1.335-.97.332-2.08.498-3.33.498-1.408 0-2.617-.186-3.628-.558-1.01-.372-1.834-.784-2.471-1.236a6.724 6.724 0 0 1-1.874-1.793l2.99-2.99c.319.425.691.797 1.116 1.116.372.293.811.545 1.316.758.505.212 1.09.319 1.754.319.904 0 1.562-.173 1.974-.519.412-.345.618-.77.618-1.275 0-.505-.22-.897-.658-1.176-.439-.28-.99-.538-1.655-.777a67.788 67.788 0 0 0-2.173-.738 9.299 9.299 0 0 1-2.173-1.016 5.543 5.543 0 0 1-1.654-1.634c-.439-.665-.658-1.542-.658-2.631 0-.744.186-1.488.558-2.232a6.412 6.412 0 0 1 1.575-1.993c.678-.585 1.482-1.057 2.412-1.416.93-.358 1.94-.538 3.03-.538 1.143 0 2.14.16 2.99.479.851.319 1.556.664 2.114 1.036a8.31 8.31 0 0 1 1.674 1.475l-2.79 3.189zm33.98 7.972c.186.292.412.558.678.797.212.213.458.399.737.558.28.16.605.24.977.24.266 0 .505-.027.718-.08a.886.886 0 0 0 .279-.12v4.584a5.487 5.487 0 0 1-.678.319c-.505.186-1.076.279-1.714.279-.771 0-1.456-.14-2.054-.419a7.356 7.356 0 0 1-1.574-.976 7.501 7.501 0 0 1-1.356-1.395 7.124 7.124 0 0 1-1.754 1.395c-.585.372-1.316.697-2.193.976-.877.28-1.888.419-3.03.419-1.356 0-2.572-.2-3.649-.598-1.076-.399-1.993-.93-2.75-1.595a6.967 6.967 0 0 1-1.755-2.331 6.704 6.704 0 0 1-.618-2.85c0-1.303.266-2.458.797-3.468.532-1.01 1.13-1.86 1.795-2.551a12.015 12.015 0 0 1 2.591-2.153 15.359 15.359 0 0 1-1.794-2.232 14.777 14.777 0 0 1-1.236-2.232 6.045 6.045 0 0 1-.558-2.511c0-.957.186-1.854.558-2.69a6.955 6.955 0 0 1 1.555-2.213 7.458 7.458 0 0 1 2.352-1.515 7.57 7.57 0 0 1 2.91-.558c1.09 0 2.087.173 2.991.518a7.034 7.034 0 0 1 2.333 1.435 6.457 6.457 0 0 1 1.515 2.153c.359.823.538 1.714.538 2.67 0 1.01-.24 1.953-.718 2.83a11.472 11.472 0 0 1-1.595 2.272 15.247 15.247 0 0 1-2.272 2.073l4.186 5.182a8.35 8.35 0 0 0 .598-1.196c.133-.372.266-.81.399-1.315.133-.505.2-1.063.2-1.674h4.983c0 1.196-.126 2.285-.379 3.268-.252.983-.525 1.82-.817 2.511a11.418 11.418 0 0 1-1.196 2.193zm-10.765 1.794c.611 0 1.15-.08 1.615-.24a7.3 7.3 0 0 0 1.256-.558c.398-.239.77-.505 1.116-.797l-4.785-5.78a8.244 8.244 0 0 0-1.395 1.316 6.562 6.562 0 0 0-.977 1.375 3.516 3.516 0 0 0-.418 1.694c0 .903.299 1.628.897 2.172.598.545 1.495.818 2.69.818zm2.392-17.54c0-.69-.226-1.261-.678-1.713-.452-.452-1.023-.678-1.714-.678-.798 0-1.429.226-1.894.678-.465.452-.698 1.023-.698 1.714 0 .452.133.917.399 1.395s.558.904.877 1.276c.372.451.81.89 1.316 1.315.452-.425.85-.864 1.196-1.315.292-.372.565-.798.817-1.276.253-.478.38-.943.38-1.395zm32.784 7.774a4.783 4.783 0 0 0-.837-.797 4.919 4.919 0 0 0-1.017-.559c-.385-.159-.83-.239-1.335-.239-.798 0-1.396.166-1.794.499-.4.332-.598.697-.598 1.096 0 .451.219.817.657 1.096.439.279.99.531 1.655.757.665.226 1.389.465 2.173.718a8.846 8.846 0 0 1 2.173 1.036 5.593 5.593 0 0 1 1.655 1.694c.438.691.657 1.581.657 2.67 0 .851-.172 1.648-.518 2.392a5.734 5.734 0 0 1-1.495 1.954c-.651.558-1.462 1.003-2.432 1.335-.97.332-2.08.498-3.33.498-1.408 0-2.617-.186-3.628-.558-1.01-.372-1.834-.784-2.472-1.236a6.724 6.724 0 0 1-1.873-1.793l2.99-2.99c.319.425.691.797 1.116 1.116.372.293.81.545 1.316.758.505.212 1.09.319 1.754.319.904 0 1.562-.173 1.974-.519.412-.345.618-.77.618-1.275 0-.505-.22-.897-.658-1.176-.439-.28-.99-.538-1.655-.777a67.789 67.789 0 0 0-2.173-.738 9.299 9.299 0 0 1-2.173-1.016 5.543 5.543 0 0 1-1.654-1.634c-.439-.665-.658-1.542-.658-2.631 0-.744.186-1.488.558-2.232a6.412 6.412 0 0 1 1.575-1.993c.678-.585 1.482-1.057 2.412-1.416.93-.358 1.94-.538 3.03-.538 1.143 0 2.14.16 2.99.479.851.319 1.556.664 2.114 1.036a8.31 8.31 0 0 1 1.674 1.475l-2.79 3.189zm11.21 5.78c.212 1.01.75 1.893 1.614 2.65.864.758 2.054 1.136 3.569 1.136.85 0 1.594-.126 2.232-.378a9.355 9.355 0 0 0 1.635-.818 6.301 6.301 0 0 0 1.316-1.195l2.79 3.587a8.168 8.168 0 0 1-2.152 1.714c-.718.425-1.595.81-2.632 1.156-1.036.345-2.232.518-3.588.518-1.435 0-2.784-.266-4.047-.797a10.425 10.425 0 0 1-3.31-2.192 10.206 10.206 0 0 1-2.212-3.23c-.532-1.221-.797-2.537-.797-3.945 0-1.382.265-2.69.797-3.926a10.306 10.306 0 0 1 2.193-3.25c.93-.93 2.007-1.66 3.23-2.191 1.222-.532 2.538-.798 3.947-.798 1.382 0 2.67.246 3.867.738a9.4 9.4 0 0 1 3.11 2.053 9.397 9.397 0 0 1 2.053 3.109c.492 1.196.738 2.484.738 3.866 0 .372-.013.691-.04.957a16.53 16.53 0 0 1-.08.677c-.026.213-.053.399-.08.558h-14.154zm4.585-7.375c-1.197 0-2.187.346-2.97 1.037a5.295 5.295 0 0 0-1.616 2.55h8.971a4.673 4.673 0 0 0-1.455-2.55c-.757-.691-1.734-1.037-2.93-1.037zm24.964.997a12.419 12.419 0 0 0-1.017-.16 6.726 6.726 0 0 0-.777-.04c-1.409 0-2.525.439-3.35 1.316-.823.877-1.235 2.166-1.235 3.866v9.368h-5.383v-19.532h5.383v2.392a6.662 6.662 0 0 1 1.435-1.276 9.765 9.765 0 0 1 1.754-.897c.691-.279 1.489-.418 2.393-.418h.797v5.38zm8.617 14.35l-7.376-19.532h5.582l4.585 12.955 4.585-12.955h5.582l-7.376 19.532h-5.582zm20.778 0h-5.382v-19.532h5.382v19.532zm.399-25.112c0 .903-.28 1.627-.837 2.172-.558.545-1.343.817-2.353.817-.903 0-1.628-.272-2.173-.817-.544-.545-.817-1.269-.817-2.172 0-.904.273-1.628.817-2.173.545-.545 1.27-.817 2.173-.817 1.01 0 1.795.272 2.353.817.558.545.837 1.269.837 2.173zm3.235 15.346c0-1.356.279-2.644.837-3.867a10.606 10.606 0 0 1 2.273-3.228 11.12 11.12 0 0 1 3.369-2.233 10.178 10.178 0 0 1 4.087-.837c1.355 0 2.531.206 3.528.618.997.412 1.828.87 2.492 1.375a9.243 9.243 0 0 1 1.954 1.993l-3.39 3.389a5.848 5.848 0 0 0-1.156-1.276c-.372-.319-.85-.618-1.435-.897-.585-.279-1.25-.418-1.993-.418-.691 0-1.35.14-1.974.418a5.312 5.312 0 0 0-1.655 1.156 5.592 5.592 0 0 0-1.136 1.714 5.255 5.255 0 0 0-.419 2.093c0 .744.14 1.441.419 2.092.28.651.658 1.223 1.136 1.714.479.492 1.03.877 1.655 1.156a4.785 4.785 0 0 0 1.974.419c.744 0 1.408-.133 1.993-.399a8.12 8.12 0 0 0 1.515-.877c.479-.372.904-.81 1.276-1.315l3.19 3.388a9.243 9.243 0 0 1-1.954 1.993c-.664.505-1.495.963-2.492 1.375-.997.412-2.173.618-3.528.618-1.436 0-2.798-.279-4.087-.837a11.12 11.12 0 0 1-3.37-2.232 10.606 10.606 0 0 1-2.272-3.229 9.201 9.201 0 0 1-.837-3.866zm25.961 1.793c.213 1.01.75 1.894 1.615 2.651.864.758 2.053 1.136 3.568 1.136.85 0 1.595-.126 2.233-.378a9.355 9.355 0 0 0 1.635-.818 6.301 6.301 0 0 0 1.315-1.195l2.791 3.587a8.168 8.168 0 0 1-2.153 1.714c-.717.425-1.595.81-2.631 1.156-1.037.345-2.233.518-3.589.518-1.435 0-2.784-.266-4.046-.797a10.425 10.425 0 0 1-3.31-2.192 10.206 10.206 0 0 1-2.212-3.23c-.532-1.221-.798-2.537-.798-3.945 0-1.382.266-2.69.798-3.926a10.306 10.306 0 0 1 2.192-3.25c.93-.93 2.007-1.66 3.23-2.191 1.223-.532 2.538-.798 3.947-.798 1.382 0 2.671.246 3.868.738a9.4 9.4 0 0 1 3.11 2.053 9.397 9.397 0 0 1 2.053 3.109c.492 1.196.737 2.484.737 3.866 0 .372-.013.691-.04.957a16.53 16.53 0 0 1-.08.677c-.026.213-.052.399-.079.558h-14.154zm4.585-7.374c-1.196 0-2.186.346-2.97 1.037a5.295 5.295 0 0 0-1.615 2.55h8.97a4.673 4.673 0 0 0-1.454-2.55c-.758-.691-1.735-1.037-2.93-1.037zm23.968 1.595a4.783 4.783 0 0 0-.838-.797 4.919 4.919 0 0 0-1.016-.559c-.386-.159-.83-.239-1.336-.239-.797 0-1.395.166-1.794.499-.399.332-.598.697-.598 1.096 0 .451.22.817.658 1.096.438.279.99.531 1.654.757.665.226 1.39.465 2.173.718a8.846 8.846 0 0 1 2.173 1.036 5.593 5.593 0 0 1 1.655 1.694c.438.691.658 1.581.658 2.67 0 .851-.173 1.648-.519 2.392a5.734 5.734 0 0 1-1.495 1.954c-.65.558-1.462 1.003-2.432 1.335-.97.332-2.08.498-3.329.498-1.409 0-2.618-.186-3.628-.558-1.01-.372-1.834-.784-2.472-1.236a6.724 6.724 0 0 1-1.874-1.793l2.99-2.99c.32.425.691.797 1.117 1.116.372.293.81.545 1.315.758.505.212 1.09.319 1.755.319.903 0 1.561-.173 1.973-.519.412-.345.618-.77.618-1.275 0-.505-.22-.897-.658-1.176-.438-.28-.99-.538-1.654-.777a67.788 67.788 0 0 0-2.173-.738 9.299 9.299 0 0 1-2.173-1.016 5.543 5.543 0 0 1-1.655-1.634c-.438-.665-.658-1.542-.658-2.631 0-.744.186-1.488.558-2.232a6.412 6.412 0 0 1 1.575-1.993c.678-.585 1.482-1.057 2.413-1.416.93-.358 1.94-.538 3.03-.538 1.143 0 2.14.16 2.99.479.85.319 1.555.664 2.113 1.036a8.31 8.31 0 0 1 1.675 1.475l-2.791 3.189zm16.238-11.76h1.595v6.379h4.385v1.793h-4.385v12.556c0 1.116.272 1.96.817 2.531.545.572 1.27.857 2.173.857a6.058 6.058 0 0 0 1.834-.279c.292-.106.545-.212.757-.318v1.793a7.251 7.251 0 0 1-.757.32 6.058 6.058 0 0 1-1.834.279c-1.515 0-2.691-.44-3.529-1.316-.837-.877-1.256-2.166-1.256-3.867v-12.556h-3.787v-1.793h2.591c.399 0 .731-.14.997-.419.266-.279.399-.67.399-1.176v-4.783zm9.415 15.945c0-1.382.252-2.684.757-3.906a9.781 9.781 0 0 1 2.073-3.17 9.96 9.96 0 0 1 3.05-2.112 8.915 8.915 0 0 1 3.689-.777c1.302 0 2.531.26 3.688.777a9.96 9.96 0 0 1 3.05 2.113 9.781 9.781 0 0 1 2.073 3.169c.505 1.222.757 2.524.757 3.906 0 1.408-.252 2.717-.757 3.926a9.836 9.836 0 0 1-2.073 3.15 9.96 9.96 0 0 1-3.05 2.112 8.915 8.915 0 0 1-3.688.777 8.915 8.915 0 0 1-3.689-.777 9.96 9.96 0 0 1-3.05-2.113 9.836 9.836 0 0 1-2.073-3.149c-.505-1.209-.757-2.518-.757-3.926zm17.343 0a8.315 8.315 0 0 0-.618-3.209 8.035 8.035 0 0 0-4.186-4.325 7.15 7.15 0 0 0-2.97-.637 7.15 7.15 0 0 0-2.97.637 8.035 8.035 0 0 0-4.186 4.325 8.315 8.315 0 0 0-.62 3.21c0 1.142.207 2.211.619 3.208a8.035 8.035 0 0 0 4.186 4.325 7.15 7.15 0 0 0 2.97.637 7.15 7.15 0 0 0 2.97-.637 8.035 8.035 0 0 0 4.186-4.325 8.315 8.315 0 0 0 .62-3.209zm21.576 0a8.315 8.315 0 0 0-.618-3.209 8.397 8.397 0 0 0-1.655-2.59 8.054 8.054 0 0 0-2.352-1.735 6.232 6.232 0 0 0-2.751-.637c-.904 0-1.781.212-2.632.637a7.98 7.98 0 0 0-2.292 1.734 8.599 8.599 0 0 0-1.635 2.591 8.315 8.315 0 0 0-.618 3.21c0 1.142.206 2.211.618 3.208.412.996.957 1.86 1.635 2.59a7.98 7.98 0 0 0 2.292 1.735c.85.425 1.728.637 2.632.637.957 0 1.874-.212 2.75-.637a8.054 8.054 0 0 0 2.353-1.734 8.397 8.397 0 0 0 1.655-2.591 8.315 8.315 0 0 0 .618-3.209zm0-18.336h1.794v27.903h-1.794v-3.787a9.287 9.287 0 0 1-1.834 2.112c-.612.532-1.376 1.01-2.293 1.435-.917.426-2 .638-3.25.638a7.593 7.593 0 0 1-3.329-.777 9.675 9.675 0 0 1-2.87-2.113c-.838-.89-1.509-1.94-2.014-3.149-.505-1.209-.757-2.518-.757-3.926 0-1.382.252-2.684.757-3.906.505-1.223 1.176-2.279 2.014-3.17a9.676 9.676 0 0 1 2.87-2.112 7.593 7.593 0 0 1 3.33-.777c1.249 0 2.332.22 3.25.658.916.438 1.68.923 2.292 1.455a9.688 9.688 0 0 1 1.834 2.072v-12.556zm19.78 15.944c0-.823-.139-1.587-.418-2.292a5.848 5.848 0 0 0-1.136-1.833 5.154 5.154 0 0 0-1.695-1.216 5.149 5.149 0 0 0-2.133-.438c-.877 0-1.661.146-2.352.438-.691.292-1.276.611-1.754.957-.559.425-1.05.89-1.476 1.395l-1.196-1.196a7.525 7.525 0 0 1 1.755-1.674c.584-.425 1.295-.817 2.133-1.176.837-.359 1.8-.538 2.89-.538 1.037 0 1.994.193 2.871.578a6.89 6.89 0 0 1 2.273 1.594 7.316 7.316 0 0 1 1.495 2.412c.359.93.538 1.926.538 2.99v11.958h-1.794v-3.19a6.864 6.864 0 0 1-1.715 1.794c-.584.452-1.309.864-2.173 1.236-.863.372-1.893.558-3.09.558-.956 0-1.827-.146-2.611-.438a6.183 6.183 0 0 1-2.014-1.196 5.444 5.444 0 0 1-1.295-1.734 4.686 4.686 0 0 1-.459-2.013c0-1.515.512-2.784 1.535-3.807 1.024-1.023 2.439-1.68 4.246-1.973l7.576-1.196zm-6.977 10.563c.984 0 1.908-.179 2.772-.538a6.748 6.748 0 0 0 2.212-1.455 6.798 6.798 0 0 0 1.456-2.192c.358-.85.538-1.78.538-2.79v-1.794l-7.177 1.196c-1.515.24-2.625.71-3.33 1.415-.703.704-1.056 1.561-1.056 2.571 0 .452.107.89.32 1.315.212.426.518.81.916 1.156.4.346.884.618 1.456.817a5.72 5.72 0 0 0 1.893.3zm19.981 1.396l-7.775-19.133h1.994l6.778 16.74 6.778-16.74h1.993l-9.17 22.72c-.691 1.7-1.442 2.923-2.253 3.667-.81.744-1.92 1.116-3.329 1.116-.505 0-.93-.066-1.276-.2a2.998 2.998 0 0 1-.518-.198v-1.794c.16.08.332.146.518.2.346.132.771.199 1.276.199.904 0 1.628-.246 2.173-.738.545-.492 1.017-1.242 1.416-2.252l1.395-3.587zm10.412-1.196c0-.399.133-.731.398-.997.266-.266.598-.398.997-.398s.731.132.997.398.399.598.399.997c0 .398-.133.73-.4.996a1.353 1.353 0 0 1-.996.399c-.399 0-.73-.133-.997-.399a1.352 1.352 0 0 1-.398-.996z"/></g></svg>