<svg xmlns="http://www.w3.org/2000/svg" width="1100" height="300"><g fill="none"><path fill="#F4633A" d="M41.76 86.451c4.444 0 8.56.743 12.346 2.227 3.786 1.485 7.058 3.547 9.815 6.186a27.996 27.996 0 0 1 6.42 9.279c1.523 3.546 2.284 7.34 2.284 11.381 0 4.124-.761 7.96-2.284 11.506-1.523 3.547-3.663 6.619-6.42 9.217-2.757 2.598-6.029 4.64-9.815 6.124-3.786 1.484-7.902 2.227-12.346 2.227H23.858v28.454H5.34v-86.6h36.42zm-17.902 16.702v24.743h17.285c1.81 0 3.518-.33 5.123-.99 1.605-.66 2.984-1.546 4.136-2.66a12.299 12.299 0 0 0 2.716-3.897c.659-1.484.988-3.092.988-4.825 0-1.732-.33-3.34-.988-4.824a12.299 12.299 0 0 0-2.716-3.897c-1.152-1.114-2.53-2-4.136-2.66-1.605-.66-3.313-.99-5.123-.99H23.858zm94.916 25.362a38.371 38.371 0 0 0-3.148-.495 20.78 20.78 0 0 0-2.408-.124c-4.362 0-7.819 1.36-10.37 4.083-2.552 2.721-3.828 6.721-3.828 12v29.073H82.353v-60.62H99.02v7.423c1.235-1.485 2.717-2.805 4.445-3.96 1.482-.99 3.292-1.917 5.432-2.783 2.14-.866 4.61-1.299 7.408-1.299h2.47v16.702zm19.605 14.227c0 2.31.391 4.454 1.173 6.433.782 1.98 1.852 3.67 3.21 5.072a15.493 15.493 0 0 0 4.753 3.34 13.55 13.55 0 0 0 5.68 1.238 13.55 13.55 0 0 0 5.679-1.237 15.493 15.493 0 0 0 4.753-3.34c1.358-1.403 2.428-3.094 3.21-5.073.782-1.98 1.173-4.124 1.173-6.433 0-2.31-.391-4.454-1.173-6.433-.782-1.98-1.852-3.67-3.21-5.073a15.493 15.493 0 0 0-4.753-3.34 13.55 13.55 0 0 0-5.68-1.237 13.55 13.55 0 0 0-5.679 1.237 15.493 15.493 0 0 0-4.753 3.34c-1.358 1.402-2.428 3.093-3.21 5.073-.782 1.98-1.173 4.123-1.173 6.433zm46.915 0c0 4.206-.864 8.206-2.592 12a33.456 33.456 0 0 1-6.976 10.021c-2.922 2.887-6.338 5.196-10.247 6.928a30.002 30.002 0 0 1-12.284 2.598c-4.363 0-8.478-.866-12.347-2.598-3.868-1.732-7.263-4.041-10.185-6.928a33.456 33.456 0 0 1-6.976-10.02c-1.728-3.795-2.592-7.795-2.592-12.001 0-4.207.864-8.207 2.592-12a33.456 33.456 0 0 1 6.976-10.021c2.922-2.887 6.317-5.196 10.185-6.929 3.869-1.732 7.984-2.598 12.347-2.598 4.28 0 8.374.866 12.284 2.598 3.91 1.733 7.325 4.042 10.247 6.929a33.456 33.456 0 0 1 6.976 10.02c1.728 3.794 2.592 7.794 2.592 12zm5.407 0c0-4.207.865-8.207 2.593-12a32.917 32.917 0 0 1 7.037-10.021c2.963-2.887 6.44-5.196 10.433-6.929 3.992-1.732 8.21-2.598 12.654-2.598 4.198 0 7.84.64 10.927 1.918 3.086 1.278 5.658 2.701 7.716 4.268 2.387 1.815 4.403 3.877 6.05 6.186l-10.495 10.516a18.136 18.136 0 0 0-3.58-3.96c-1.152-.989-2.634-1.917-4.445-2.783-1.81-.866-3.868-1.299-6.173-1.299-2.14 0-4.177.433-6.11 1.3a16.448 16.448 0 0 0-5.124 3.587 17.358 17.358 0 0 0-3.52 5.32c-.863 2.02-1.295 4.185-1.295 6.495 0 2.31.432 4.474 1.296 6.495a17.358 17.358 0 0 0 3.519 5.32 16.448 16.448 0 0 0 5.123 3.587 14.789 14.789 0 0 0 6.111 1.3c2.305 0 4.363-.413 6.173-1.238 1.811-.825 3.375-1.732 4.692-2.722a20.653 20.653 0 0 0 3.95-4.082l9.878 10.516c-1.647 2.309-3.663 4.37-6.05 6.185-2.058 1.567-4.63 2.99-7.716 4.269-3.087 1.278-6.729 1.917-10.927 1.917-4.444 0-8.662-.866-12.654-2.598-3.992-1.732-7.47-4.041-10.433-6.928a32.917 32.917 0 0 1-7.037-10.02c-1.728-3.795-2.593-7.795-2.593-12.001zm78.867 5.567c.658 3.134 2.325 5.876 5 8.227 2.675 2.35 6.358 3.526 11.05 3.526 2.633 0 4.938-.392 6.913-1.175 1.976-.784 3.663-1.63 5.062-2.537a19.527 19.527 0 0 0 4.074-3.711l8.643 11.134c-1.811 2.062-4.033 3.836-6.667 5.32-2.223 1.32-4.939 2.516-8.149 3.588-3.21 1.072-6.913 1.608-11.111 1.608-4.445 0-8.622-.825-12.531-2.474-3.91-1.65-7.326-3.918-10.248-6.804a31.678 31.678 0 0 1-6.852-10.021c-1.646-3.794-2.469-7.877-2.469-12.248 0-4.289.823-8.35 2.47-12.186 1.645-3.835 3.909-7.196 6.79-10.083a32.117 32.117 0 0 1 10-6.804c3.786-1.65 7.86-2.475 12.223-2.475 4.28 0 8.271.763 11.975 2.29 3.704 1.525 6.914 3.649 9.63 6.37 2.716 2.722 4.836 5.939 6.358 9.65 1.523 3.712 2.284 7.712 2.284 12 0 1.155-.04 2.145-.123 2.97a51.421 51.421 0 0 1-.247 2.103c-.082.66-.165 1.237-.247 1.732h-43.828zm14.198-22.887c-3.704 0-6.77 1.072-9.198 3.216-2.428 2.145-4.095 4.784-5 7.918h27.778c-.658-3.134-2.16-5.773-4.506-7.918-2.346-2.144-5.37-3.216-9.074-3.216zm72.693 4.948a14.825 14.825 0 0 0-2.593-2.474c-.905-.66-1.955-1.237-3.148-1.732-1.194-.495-2.572-.742-4.136-.742-2.47 0-4.321.515-5.556 1.546-1.234 1.031-1.852 2.165-1.852 3.402 0 1.402.68 2.536 2.037 3.402 1.358.866 3.066 1.65 5.124 2.351 2.058.701 4.3 1.443 6.729 2.227a27.366 27.366 0 0 1 6.728 3.217c2.058 1.36 3.766 3.113 5.124 5.257 1.358 2.145 2.037 4.908 2.037 8.29 0 2.639-.535 5.113-1.605 7.422-1.07 2.31-2.613 4.33-4.63 6.062-2.016 1.732-4.527 3.114-7.531 4.145-3.004 1.03-6.44 1.546-10.309 1.546-4.362 0-8.107-.577-11.235-1.732s-5.68-2.433-7.654-3.835c-2.387-1.567-4.322-3.423-5.803-5.567l9.26-9.279a17.216 17.216 0 0 0 3.456 3.464c1.153.907 2.51 1.691 4.075 2.35 1.563.66 3.374.99 5.432.99 2.798 0 4.835-.536 6.111-1.608 1.276-1.072 1.914-2.392 1.914-3.959 0-1.567-.68-2.783-2.037-3.65-1.358-.865-3.066-1.67-5.124-2.412a209.56 209.56 0 0 0-6.729-2.288 28.763 28.763 0 0 1-6.728-3.155 17.183 17.183 0 0 1-5.124-5.072c-1.358-2.062-2.037-4.784-2.037-8.166 0-2.31.576-4.618 1.729-6.928 1.152-2.31 2.777-4.371 4.876-6.185 2.1-1.815 4.589-3.279 7.47-4.392 2.88-1.114 6.008-1.67 9.383-1.67 3.539 0 6.625.494 9.26 1.484 2.633.99 4.814 2.062 6.543 3.217 2.057 1.402 3.786 2.928 5.185 4.577l-8.642 9.897zm52.94 0a14.825 14.825 0 0 0-2.594-2.474c-.905-.66-1.954-1.237-3.148-1.732-1.193-.495-2.572-.742-4.136-.742-2.469 0-4.32.515-5.555 1.546-1.235 1.031-1.852 2.165-1.852 3.402 0 1.402.679 2.536 2.037 3.402 1.358.866 3.066 1.65 5.123 2.351 2.058.701 4.3 1.443 6.729 2.227a27.366 27.366 0 0 1 6.729 3.217c2.057 1.36 3.765 3.113 5.123 5.257 1.358 2.145 2.037 4.908 2.037 8.29 0 2.639-.535 5.113-1.605 7.422-1.07 2.31-2.613 4.33-4.63 6.062-2.016 1.732-4.526 3.114-7.53 4.145-3.005 1.03-6.441 1.546-10.31 1.546-4.362 0-8.107-.577-11.234-1.732-3.128-1.155-5.68-2.433-7.655-3.835-2.387-1.567-4.321-3.423-5.803-5.567l9.26-9.279a17.216 17.216 0 0 0 3.457 3.464c1.152.907 2.51 1.691 4.074 2.35 1.564.66 3.375.99 5.432.99 2.799 0 4.836-.536 6.112-1.608 1.275-1.072 1.913-2.392 1.913-3.959 0-1.567-.679-2.783-2.037-3.65-1.358-.865-3.066-1.67-5.124-2.412a209.56 209.56 0 0 0-6.728-2.288 28.763 28.763 0 0 1-6.729-3.155 17.183 17.183 0 0 1-5.123-5.072c-1.358-2.062-2.037-4.784-2.037-8.166 0-2.31.576-4.618 1.728-6.928 1.152-2.31 2.778-4.371 4.877-6.185 2.099-1.815 4.588-3.279 7.47-4.392 2.88-1.114 6.007-1.67 9.382-1.67 3.54 0 6.626.494 9.26 1.484 2.633.99 4.815 2.062 6.543 3.217 2.058 1.402 3.786 2.928 5.185 4.577l-8.642 9.897zm79.334-22.268l-10.494 28.454h20.988l-10.494-28.454zm-16.667 44.537l-7.408 20.413h-19.753l33.951-86.6h19.754l33.952 86.6h-19.754l-7.408-20.413h-33.334zm106.645 14.227c-1.235 1.402-2.716 2.64-4.445 3.712-1.481.907-3.292 1.752-5.432 2.536-2.14.783-4.61 1.175-7.408 1.175-3.374 0-6.502-.598-9.383-1.794-2.88-1.196-5.37-2.907-7.47-5.134-2.098-2.227-3.724-4.907-4.876-8.041-1.152-3.134-1.728-6.681-1.728-10.64v-36.248h16.667v34.64c0 3.464 1.09 6.289 3.272 8.474 2.18 2.186 5 3.279 8.457 3.279 3.703 0 6.687-1.196 8.95-3.588 2.264-2.392 3.396-5.938 3.396-10.64v-32.165h16.667v60.62H578.71v-6.186zm37.507-72.373h14.815v19.176h12.346v14.846h-12.346v24.124c0 1.897.7 3.505 2.099 4.825 1.399 1.32 3.168 1.98 5.308 1.98 1.729 0 3.21-.207 4.445-.62a8.441 8.441 0 0 0 1.728-.618v14.227c-.987.33-2.057.66-3.21.99-.987.248-2.16.454-3.518.619a36.43 36.43 0 0 1-4.383.247c-6.173 0-10.906-1.711-14.198-5.134s-4.938-8.722-4.938-15.897v-24.743H603.87v-14.846h5.556c1.893 0 3.498-.722 4.815-2.165 1.317-1.444 1.976-3.402 1.976-5.877V94.493zm50.47 48.249c0 2.31.39 4.454 1.173 6.433.782 1.98 1.852 3.67 3.21 5.072a15.493 15.493 0 0 0 4.753 3.34 13.55 13.55 0 0 0 5.679 1.238 13.55 13.55 0 0 0 5.68-1.237 15.493 15.493 0 0 0 4.752-3.34c1.359-1.403 2.429-3.094 3.21-5.073.782-1.98 1.173-4.124 1.173-6.433 0-2.31-.39-4.454-1.173-6.433-.781-1.98-1.851-3.67-3.21-5.073a15.493 15.493 0 0 0-4.753-3.34 13.55 13.55 0 0 0-5.679-1.237 13.55 13.55 0 0 0-5.68 1.237 15.493 15.493 0 0 0-4.752 3.34c-1.358 1.402-2.428 3.093-3.21 5.073-.782 1.98-1.173 4.123-1.173 6.433zm46.915 0c0 4.206-.864 8.206-2.593 12a33.456 33.456 0 0 1-6.975 10.021c-2.922 2.887-6.338 5.196-10.248 6.928a30.002 30.002 0 0 1-12.284 2.598c-4.362 0-8.478-.866-12.346-2.598-3.868-1.732-7.264-4.041-10.186-6.928a33.456 33.456 0 0 1-6.975-10.02c-1.728-3.795-2.593-7.795-2.593-12.001 0-4.207.865-8.207 2.593-12a33.456 33.456 0 0 1 6.975-10.021c2.922-2.887 6.318-5.196 10.186-6.929 3.868-1.732 7.984-2.598 12.346-2.598 4.28 0 8.375.866 12.284 2.598 3.91 1.733 7.326 4.042 10.248 6.929a33.456 33.456 0 0 1 6.975 10.02c1.729 3.794 2.593 7.794 2.593 12zm84.422-3.093c0-4.041-.947-7.114-2.84-9.217-1.893-2.103-4.239-3.155-7.037-3.155-3.128 0-5.762 1.196-7.902 3.588-2.14 2.392-3.21 5.938-3.21 10.64v31.547H760.37v-33.403c0-4.041-.946-7.114-2.84-9.217-1.892-2.103-4.238-3.155-7.037-3.155-3.127 0-5.761 1.196-7.901 3.588-2.14 2.392-3.21 5.938-3.21 10.64v31.547h-16.667v-60.62h16.667v7.423a25.192 25.192 0 0 1 4.074-4.33c1.4-1.073 3.087-2.062 5.062-2.97 1.975-.907 4.28-1.36 6.914-1.36 3.21 0 5.905.556 8.086 1.67 2.182 1.113 3.972 2.33 5.371 3.65a18.47 18.47 0 0 1 3.827 5.195c1.317-1.98 3.004-3.711 5.062-5.196 1.646-1.32 3.745-2.536 6.297-3.65 2.551-1.113 5.555-1.67 9.012-1.67 6.503 0 11.729 2.186 15.68 6.557 3.95 4.372 5.926 11.052 5.926 20.042v35.259h-16.667v-33.403zm62.816 27.217a24.16 24.16 0 0 1-4.445 3.712c-1.399.907-3.127 1.752-5.185 2.536-2.058.783-4.403 1.175-7.037 1.175-3.128 0-5.926-.474-8.395-1.423-2.47-.948-4.61-2.206-6.42-3.773-1.811-1.567-3.19-3.402-4.136-5.505a15.95 15.95 0 0 1-1.42-6.619c0-4.949 1.584-9.072 4.753-12.371 3.169-3.3 7.552-5.444 13.149-6.434l19.136-3.464c0-2.474-.885-4.536-2.654-6.185-1.77-1.65-4.383-2.475-7.84-2.475-2.387 0-4.404.33-6.05.99-1.646.66-3.045 1.36-4.197 2.103-1.317.907-2.428 1.938-3.334 3.093l-9.26-9.279c1.647-2.144 3.663-4.082 6.05-5.814 1.976-1.485 4.465-2.846 7.47-4.083 3.004-1.237 6.522-1.856 10.555-1.856 3.869 0 7.388.619 10.556 1.856 3.17 1.237 5.906 2.949 8.21 5.134a22.518 22.518 0 0 1 5.31 7.67c1.234 2.929 1.851 6.083 1.851 9.465v37.733h-16.667v-6.186zm-12.346-6.185c3.704 0 6.687-1.176 8.95-3.526 2.264-2.351 3.396-5.712 3.396-10.083v-1.856l-13.58 2.474c-4.528.743-6.791 3.01-6.791 6.805 0 1.897.638 3.402 1.914 4.515 1.275 1.114 3.312 1.67 6.111 1.67zm49.236-66.188h14.815v19.176h12.346v14.846h-12.346v24.124c0 1.897.7 3.505 2.099 4.825 1.399 1.32 3.168 1.98 5.308 1.98 1.729 0 3.21-.207 4.445-.62a8.441 8.441 0 0 0 1.729-.618v14.227c-.988.33-2.058.66-3.21.99-.988.248-2.161.454-3.52.619a36.43 36.43 0 0 1-4.382.247c-6.173 0-10.906-1.711-14.198-5.134s-4.938-8.722-4.938-15.897v-24.743h-10.494v-14.846h5.555c1.893 0 3.498-.722 4.815-2.165 1.317-1.444 1.976-3.402 1.976-5.877V94.493zm56.643 78.559h-16.667v-60.62h16.667v60.62zm1.234-77.94c0 2.804-.864 5.051-2.592 6.742-1.729 1.69-4.157 2.536-7.284 2.536-2.799 0-5.042-.845-6.729-2.536-1.687-1.69-2.53-3.938-2.53-6.742 0-2.805.843-5.052 2.53-6.743 1.687-1.69 3.93-2.536 6.729-2.536 3.127 0 5.555.845 7.284 2.536 1.728 1.69 2.592 3.938 2.592 6.743zm25.779 47.63c0 2.31.39 4.454 1.172 6.433.782 1.98 1.852 3.67 3.21 5.072a15.493 15.493 0 0 0 4.754 3.34 13.55 13.55 0 0 0 5.679 1.238 13.55 13.55 0 0 0 5.679-1.237 15.493 15.493 0 0 0 4.753-3.34c1.358-1.403 2.428-3.094 3.21-5.073.782-1.98 1.173-4.124 1.173-6.433 0-2.31-.39-4.454-1.173-6.433-.782-1.98-1.852-3.67-3.21-5.073a15.493 15.493 0 0 0-4.753-3.34 13.55 13.55 0 0 0-5.68-1.237 13.55 13.55 0 0 0-5.678 1.237 15.493 15.493 0 0 0-4.754 3.34c-1.358 1.402-2.428 3.093-3.21 5.073-.781 1.98-1.172 4.123-1.172 6.433zm46.915 0c0 4.206-.865 8.206-2.593 12a33.456 33.456 0 0 1-6.976 10.021c-2.921 2.887-6.337 5.196-10.247 6.928a30.002 30.002 0 0 1-12.284 2.598c-4.362 0-8.478-.866-12.346-2.598-3.869-1.732-7.264-4.041-10.186-6.928a33.456 33.456 0 0 1-6.975-10.02c-1.729-3.795-2.593-7.795-2.593-12.001 0-4.207.864-8.207 2.593-12a33.456 33.456 0 0 1 6.975-10.021c2.922-2.887 6.317-5.196 10.186-6.929 3.868-1.732 7.984-2.598 12.346-2.598 4.28 0 8.375.866 12.284 2.598 3.91 1.733 7.326 4.042 10.247 6.929a33.456 33.456 0 0 1 6.976 10.02c1.728 3.794 2.593 7.794 2.593 12zm25.778-22.887c1.234-1.568 2.716-3.01 4.444-4.33 1.482-1.073 3.293-2.062 5.433-2.97 2.14-.907 4.609-1.36 7.407-1.36 3.375 0 6.502.597 9.383 1.793a20.697 20.697 0 0 1 7.47 5.258c2.098 2.31 3.724 5.093 4.876 8.351 1.153 3.258 1.729 6.99 1.729 11.196v35.259h-16.667v-33.403c0-3.712-1.091-6.701-3.272-8.97-2.181-2.268-5-3.402-8.457-3.402-3.704 0-6.688 1.196-8.951 3.588-2.264 2.392-3.395 5.938-3.395 10.64v31.547h-16.667v-60.62h16.667v7.423z"/><path fill="#FFF" d="M24.034 37.374H36.8v59.702H24.034V37.374zm35.063 23.028a17.015 17.015 0 0 1 3.064-2.985c1.022-.74 2.27-1.421 3.745-2.047 1.476-.625 3.178-.938 5.107-.938 2.326 0 4.483.412 6.469 1.237a14.268 14.268 0 0 1 5.149 3.624c1.447 1.593 2.568 3.511 3.362 5.757.794 2.246 1.191 4.82 1.191 7.719v24.307h-11.49V74.048c0-2.558-.752-4.62-2.255-6.183-1.504-1.564-3.447-2.345-5.83-2.345-2.554 0-4.61.824-6.171 2.473-1.56 1.649-2.34 4.094-2.34 7.335v21.748H47.606V55.285h11.49v5.117zm42.298-17.484h10.214v13.22h8.511v10.234h-8.511v16.632c0 1.307.482 2.416 1.447 3.326.964.91 2.184 1.365 3.66 1.365 1.191 0 2.213-.143 3.064-.427a5.82 5.82 0 0 0 1.191-.426v9.808a53.4 53.4 0 0 1-2.213.682c-.68.17-1.49.313-2.425.427-.937.113-1.944.17-3.022.17-4.256 0-7.518-1.18-9.788-3.54-2.27-2.359-3.404-6.012-3.404-10.959V66.372h-7.235V56.138h3.83c1.305 0 2.412-.498 3.32-1.493.907-.995 1.361-2.345 1.361-4.051v-7.676zm35.064 37.1c.454 2.161 1.603 4.052 3.447 5.672s4.383 2.43 7.617 2.43c1.816 0 3.405-.27 4.767-.81 1.362-.54 2.525-1.122 3.49-1.748a13.462 13.462 0 0 0 2.808-2.558l5.958 7.676c-1.248 1.421-2.78 2.644-4.596 3.667-1.532.91-3.405 1.734-5.618 2.473-2.212.74-4.766 1.11-7.66 1.11-3.064 0-5.943-.57-8.639-1.707-2.695-1.137-5.05-2.7-7.064-4.69a21.839 21.839 0 0 1-4.724-6.909c-1.135-2.615-1.702-5.43-1.702-8.443 0-2.957.567-5.757 1.702-8.401a22.054 22.054 0 0 1 4.681-6.951 22.141 22.141 0 0 1 6.895-4.691c2.61-1.137 5.418-1.706 8.426-1.706 2.95 0 5.702.526 8.256 1.578 2.553 1.052 4.766 2.516 6.639 4.392 1.872 1.877 3.333 4.094 4.383 6.653 1.05 2.558 1.574 5.316 1.574 8.273 0 .796-.028 1.478-.085 2.047a35.45 35.45 0 0 1-.17 1.45c-.057.454-.113.852-.17 1.194h-30.215zm9.788-15.778c-2.554 0-4.667.74-6.341 2.218a11.332 11.332 0 0 0-3.447 5.458h19.15c-.454-2.16-1.49-3.98-3.106-5.458-1.618-1.479-3.703-2.218-6.256-2.218zm39.319 32.836h-11.49V37.374h11.49v59.702zm21.445 0h-11.49V37.374h11.49v59.702zm21.446 0h-11.49V55.285h11.49v41.791zm.85-53.731c0 1.933-.595 3.482-1.787 4.648-1.191 1.165-2.865 1.748-5.021 1.748-1.93 0-3.476-.583-4.639-1.748-1.163-1.166-1.745-2.715-1.745-4.648 0-1.934.582-3.483 1.745-4.649 1.163-1.165 2.71-1.748 4.639-1.748 2.156 0 3.83.583 5.021 1.748 1.192 1.166 1.788 2.715 1.788 4.649zM266.5 90.253a15.706 15.706 0 0 1-3.15 2.985c-1.02.796-2.311 1.493-3.872 2.09-1.56.597-3.333.895-5.32.895-2.326 0-4.61-.554-6.85-1.663a20.846 20.846 0 0 1-6.001-4.477c-1.76-1.877-3.178-4.08-4.256-6.61-1.078-2.53-1.617-5.245-1.617-8.145 0-2.9.539-5.615 1.617-8.145 1.078-2.53 2.497-4.734 4.256-6.61a20.846 20.846 0 0 1 6-4.478c2.241-1.109 4.525-1.663 6.852-1.663 1.986 0 3.759.313 5.32.938 1.56.626 2.85 1.308 3.872 2.047a19.73 19.73 0 0 1 3.15 2.985v-5.117h11.49v38.38c0 3.013-.554 5.814-1.66 8.4-1.107 2.588-2.639 4.834-4.596 6.738-1.958 1.905-4.299 3.412-7.022 4.52-2.724 1.11-5.674 1.664-8.852 1.664-3.234 0-6.043-.455-8.426-1.365-2.383-.91-4.37-1.933-5.958-3.07-1.873-1.308-3.461-2.815-4.766-4.52l7.234-6.824a12.394 12.394 0 0 0 2.894 2.815c.965.682 2.156 1.308 3.575 1.876 1.418.569 3.092.853 5.021.853 3.405 0 6.1-.995 8.086-2.985 1.986-1.99 2.98-4.69 2.98-8.102v-3.412zm-19.15-14.925c0 1.478.24 2.843.723 4.094.482 1.25 1.15 2.33 2 3.24a9.244 9.244 0 0 0 2.98 2.133 8.8 8.8 0 0 0 3.66.767 9.19 9.19 0 0 0 3.659-.767 9.63 9.63 0 0 0 3.15-2.175 11.001 11.001 0 0 0 2.17-3.241c.539-1.223.808-2.573.808-4.051 0-1.422-.27-2.758-.808-4.009a10.845 10.845 0 0 0-2.17-3.283 9.63 9.63 0 0 0-3.15-2.175 9.19 9.19 0 0 0-3.66-.768 8.8 8.8 0 0 0-3.66.768 9.244 9.244 0 0 0-2.979 2.132c-.85.91-1.518 1.99-2 3.24-.482 1.252-.723 2.616-.723 4.095zm49.107 4.69c.454 2.161 1.603 4.052 3.447 5.672s4.383 2.43 7.617 2.43c1.816 0 3.405-.27 4.767-.81 1.362-.54 2.525-1.122 3.49-1.748a13.462 13.462 0 0 0 2.808-2.558l5.958 7.676c-1.248 1.421-2.78 2.644-4.596 3.667-1.532.91-3.405 1.734-5.617 2.473-2.213.74-4.767 1.11-7.66 1.11-3.065 0-5.944-.57-8.64-1.707-2.695-1.137-5.05-2.7-7.064-4.69a21.839 21.839 0 0 1-4.724-6.909c-1.135-2.615-1.702-5.43-1.702-8.443 0-2.957.567-5.757 1.702-8.401a22.054 22.054 0 0 1 4.681-6.951 22.141 22.141 0 0 1 6.895-4.691c2.61-1.137 5.418-1.706 8.426-1.706 2.95 0 5.702.526 8.256 1.578 2.553 1.052 4.766 2.516 6.639 4.392 1.872 1.877 3.333 4.094 4.383 6.653 1.05 2.558 1.574 5.316 1.574 8.273 0 .796-.028 1.478-.085 2.047a35.448 35.448 0 0 1-.17 1.45c-.057.454-.113.852-.17 1.194h-30.215zm9.788-15.778c-2.554 0-4.667.74-6.341 2.218a11.332 11.332 0 0 0-3.447 5.458h19.15c-.454-2.16-1.49-3.98-3.106-5.458-1.618-1.479-3.703-2.218-6.256-2.218zm38.893-3.838a17.015 17.015 0 0 1 3.064-2.985c1.022-.74 2.27-1.421 3.745-2.047 1.476-.625 3.178-.938 5.107-.938 2.327 0 4.483.412 6.469 1.237a14.268 14.268 0 0 1 5.15 3.624c1.446 1.593 2.567 3.511 3.361 5.757.794 2.246 1.192 4.82 1.192 7.719v24.307h-11.49V74.048c0-2.558-.752-4.62-2.256-6.183-1.504-1.564-3.447-2.345-5.83-2.345-2.554 0-4.61.824-6.171 2.473-1.56 1.649-2.34 4.094-2.34 7.335v21.748h-11.49V55.285h11.49v5.117zm42.298-17.484h10.214v13.22h8.511v10.234h-8.511v16.632c0 1.307.482 2.416 1.447 3.326.965.91 2.184 1.365 3.66 1.365 1.191 0 2.213-.143 3.064-.427a5.82 5.82 0 0 0 1.191-.426v9.808a53.4 53.4 0 0 1-2.213.682c-.68.17-1.489.313-2.425.427-.937.113-1.944.17-3.022.17-4.255 0-7.518-1.18-9.788-3.54-2.27-2.359-3.404-6.012-3.404-10.959V66.372h-7.235V56.138h3.83c1.305 0 2.412-.498 3.32-1.493.907-.995 1.361-2.345 1.361-4.051v-7.676zM519.87 196.494h-8.333v-30.31h8.333v30.31zm.618-38.97c0 1.402-.432 2.526-1.297 3.371-.864.846-2.078 1.269-3.642 1.269-1.399 0-2.52-.423-3.364-1.269-.844-.845-1.265-1.969-1.265-3.37 0-1.403.421-2.527 1.265-3.372.844-.845 1.965-1.268 3.364-1.268 1.564 0 2.778.423 3.642 1.268.865.845 1.297 1.97 1.297 3.371zm14.346 12.372a12.34 12.34 0 0 1 2.222-2.165c.74-.536 1.646-1.031 2.716-1.485 1.07-.454 2.305-.68 3.704-.68 1.687 0 3.251.299 4.692.897a10.348 10.348 0 0 1 3.734 2.629c1.05 1.154 1.862 2.546 2.439 4.175.576 1.629.864 3.495.864 5.598v17.63h-8.334v-16.702c0-1.856-.545-3.35-1.636-4.485-1.09-1.134-2.5-1.7-4.228-1.7-1.852 0-3.344.597-4.476 1.793-1.131 1.196-1.697 2.97-1.697 5.32v15.773H526.5v-30.31h8.334v3.712zm39.347-4.33c1.44 0 2.726.226 3.858.68 1.131.454 2.068.949 2.808 1.485a14.31 14.31 0 0 1 2.285 2.165v-16.702h8.333v43.3h-8.333v-3.711a11.391 11.391 0 0 1-2.285 2.165c-.74.577-1.677 1.083-2.808 1.516-1.132.433-2.418.649-3.858.649-1.935 0-3.776-.402-5.525-1.206a15.01 15.01 0 0 1-4.63-3.31c-1.338-1.402-2.397-3.072-3.18-5.01-.781-1.938-1.172-4.02-1.172-6.248 0-2.227.391-4.309 1.173-6.247.782-1.938 1.841-3.609 3.179-5.01a15.01 15.01 0 0 1 4.63-3.31 13.073 13.073 0 0 1 5.525-1.206zm1.543 24.124c.988 0 1.934-.206 2.84-.618a7.501 7.501 0 0 0 2.376-1.702c.68-.721 1.214-1.598 1.605-2.628.391-1.031.587-2.165.587-3.403 0-1.237-.196-2.37-.587-3.402-.39-1.03-.926-1.907-1.605-2.629a7.501 7.501 0 0 0-2.377-1.7 6.775 6.775 0 0 0-2.84-.62c-.987 0-1.933.207-2.839.62a7.501 7.501 0 0 0-2.376 1.7c-.68.722-1.214 1.598-1.605 2.63-.391 1.03-.587 2.164-.587 3.401 0 1.238.196 2.372.587 3.403.39 1.03.926 1.907 1.605 2.628a7.501 7.501 0 0 0 2.376 1.702 6.775 6.775 0 0 0 2.84.618zm42.742 3.712a9.857 9.857 0 0 1-2.222 1.855c-.741.454-1.647.877-2.717 1.268-1.07.392-2.304.588-3.703.588-1.688 0-3.251-.299-4.692-.897a10.714 10.714 0 0 1-3.735-2.567c-1.049-1.113-1.862-2.454-2.438-4.02-.576-1.568-.864-3.341-.864-5.32v-18.125h8.333v17.32c0 1.732.546 3.145 1.636 4.238 1.09 1.092 2.5 1.639 4.229 1.639 1.852 0 3.344-.598 4.475-1.794 1.132-1.196 1.698-2.97 1.698-5.32v-16.083h8.333v30.31h-8.333v-3.092zm31.63-18.248a7.412 7.412 0 0 0-1.296-1.238 7.61 7.61 0 0 0-1.574-.866c-.597-.247-1.286-.37-2.068-.37-1.235 0-2.16.257-2.778.773-.617.515-.926 1.082-.926 1.7 0 .702.34 1.269 1.019 1.702.679.433 1.533.824 2.562 1.175 1.028.35 2.15.722 3.364 1.113 1.214.392 2.335.928 3.364 1.609a8.67 8.67 0 0 1 2.562 2.629c.679 1.072 1.018 2.453 1.018 4.144a8.72 8.72 0 0 1-.802 3.712 8.897 8.897 0 0 1-2.315 3.03c-1.008.867-2.263 1.557-3.765 2.073-1.503.515-3.22.773-5.155.773-2.181 0-4.054-.289-5.617-.866-1.564-.577-2.84-1.217-3.828-1.918-1.193-.783-2.16-1.71-2.901-2.783l4.63-4.64a8.608 8.608 0 0 0 1.728 1.733 8.807 8.807 0 0 0 2.037 1.175c.782.33 1.688.495 2.716.495 1.4 0 2.418-.268 3.056-.804.638-.537.957-1.196.957-1.98 0-.783-.34-1.392-1.019-1.825-.679-.433-1.533-.835-2.561-1.206a104.78 104.78 0 0 0-3.365-1.144 14.382 14.382 0 0 1-3.364-1.578 8.591 8.591 0 0 1-2.562-2.536c-.679-1.03-1.018-2.392-1.018-4.082 0-1.155.288-2.31.864-3.464.576-1.155 1.389-2.186 2.438-3.093 1.05-.908 2.294-1.64 3.735-2.196 1.44-.557 3.004-.835 4.691-.835 1.77 0 3.313.247 4.63.742 1.317.495 2.408 1.03 3.272 1.608 1.029.701 1.893 1.464 2.593 2.289l-4.322 4.949zm13.42-17.94h7.408v9.589h6.173v7.423h-6.173v12.062c0 .948.35 1.753 1.05 2.412.7.66 1.584.99 2.654.99.864 0 1.605-.103 2.222-.31a4.22 4.22 0 0 0 .864-.308v7.113a38.73 38.73 0 0 1-1.605.495c-.493.124-1.08.227-1.759.31-.679.082-1.41.123-2.191.123-3.087 0-5.453-.856-7.1-2.567-1.645-1.711-2.468-4.361-2.468-7.949v-12.371h-5.248v-7.423h2.778c.947 0 1.75-.361 2.408-1.083.658-.721.987-1.7.987-2.938v-5.567zm37.804 17.012a19.187 19.187 0 0 0-1.574-.247 10.39 10.39 0 0 0-1.204-.063c-2.181 0-3.91.68-5.185 2.042-1.276 1.36-1.914 3.36-1.914 6v14.536h-8.333v-30.31h8.333v3.712a10.322 10.322 0 0 1 2.223-1.98c.74-.495 1.646-.959 2.716-1.392 1.07-.433 2.304-.649 3.703-.649h1.235v8.35zm10.95 21.96l-11.728-30.002h8.642l7.1 20.104 7.098-20.104h8.643l-12.038 32.166c-1.399 3.753-3.045 6.547-4.938 8.382-1.893 1.835-4.157 2.753-6.79 2.753-.782 0-1.492-.042-2.13-.124a12.27 12.27 0 0 1-1.636-.31 31.15 31.15 0 0 1-1.482-.494v-7.423c.247.123.535.227.865.31.617.205 1.358.308 2.222.308 1.4 0 2.52-.33 3.364-.99a6.12 6.12 0 0 0 1.883-2.412l.926-2.165zm-28.772 18.716c0 1.69-.432 3.268-1.297 4.732-.864 1.464-1.831 2.732-2.901 3.804a28.699 28.699 0 0 1-4.136 3.526l11.112 13.609c.576-.949 1.09-2.042 1.543-3.279.37-1.072.72-2.34 1.05-3.804.328-1.464.493-3.124.493-4.98h2.778c0 2.186-.216 4.145-.648 5.877-.432 1.732-.895 3.216-1.39 4.454-.575 1.443-1.234 2.742-1.975 3.897a13.282 13.282 0 0 0 1.729 2.165 9.69 9.69 0 0 0 1.79 1.515c.659.433 1.338.65 2.037.65a7.155 7.155 0 0 0 1.297-.124 2.2 2.2 0 0 0 .555-.186v2.784a2.2 2.2 0 0 1-.555.186 7.155 7.155 0 0 1-1.296.124 5.886 5.886 0 0 1-2.964-.774 12.28 12.28 0 0 1-2.346-1.701 20.732 20.732 0 0 1-2.098-2.474 11.661 11.661 0 0 1-2.84 2.66c-.947.66-2.14 1.257-3.58 1.793-1.44.537-3.107.805-5 .805-1.77 0-3.396-.29-4.877-.866-1.482-.578-2.747-1.351-3.797-2.32a10.838 10.838 0 0 1-2.469-3.34 9.194 9.194 0 0 1-.895-3.99c0-1.938.453-3.68 1.358-5.227.905-1.547 1.893-2.877 2.963-3.99a22.152 22.152 0 0 1 4.321-3.464 29.884 29.884 0 0 1-3.395-3.897 25.732 25.732 0 0 1-2.346-3.804c-.7-1.382-1.05-2.732-1.05-4.052 0-1.32.258-2.557.773-3.711a10.02 10.02 0 0 1 2.068-3.031 9.998 9.998 0 0 1 3.024-2.073 8.966 8.966 0 0 1 3.704-.773c1.317 0 2.541.237 3.673.711a9.013 9.013 0 0 1 2.932 1.949 9.034 9.034 0 0 1 1.945 2.938c.473 1.134.71 2.361.71 3.68zm-10.494 13.918c-1.4.99-2.634 2.062-3.704 3.216-.947.99-1.8 2.145-2.562 3.464-.761 1.32-1.142 2.701-1.142 4.145 0 2.185.802 4.02 2.407 5.505 1.605 1.485 3.89 2.227 6.852 2.227 1.564 0 2.943-.237 4.136-.711 1.194-.475 2.202-1 3.025-1.578a11.875 11.875 0 0 0 2.408-2.35l-11.42-13.918zm-5.556-13.609c0 1.072.319 2.196.957 3.371a19.95 19.95 0 0 0 2.13 3.186 38.023 38.023 0 0 0 3.086 3.34 37.962 37.962 0 0 0 3.518-3.216 18.963 18.963 0 0 0 2.47-3.248c.74-1.216 1.11-2.464 1.11-3.742 0-1.856-.616-3.402-1.851-4.64-1.235-1.237-2.778-1.855-4.63-1.855-.946 0-1.831.185-2.654.556a7.208 7.208 0 0 0-2.16 1.485 6.78 6.78 0 0 0-1.451 2.165 6.586 6.586 0 0 0-.525 2.598zm53.693 3.402c1.44 0 2.726.227 3.858.68 1.132.454 2.068.95 2.809 1.485a14.31 14.31 0 0 1 2.284 2.165v-16.701h8.333v43.3h-8.333v-3.711a11.391 11.391 0 0 1-2.284 2.165c-.741.577-1.677 1.082-2.81 1.515-1.13.433-2.417.65-3.857.65-1.935 0-3.776-.403-5.525-1.207a15.01 15.01 0 0 1-4.63-3.309c-1.337-1.402-2.397-3.072-3.18-5.01-.781-1.939-1.172-4.021-1.172-6.248 0-2.227.391-4.31 1.173-6.248.782-1.938 1.842-3.608 3.179-5.01a15.01 15.01 0 0 1 4.63-3.31 13.073 13.073 0 0 1 5.525-1.206zm1.543 24.125c.988 0 1.934-.207 2.84-.619a7.501 7.501 0 0 0 2.376-1.701c.68-.722 1.214-1.598 1.605-2.629.391-1.03.587-2.165.587-3.402s-.196-2.371-.587-3.402c-.39-1.031-.926-1.908-1.605-2.63a7.501 7.501 0 0 0-2.376-1.7 6.775 6.775 0 0 0-2.84-.619c-.988 0-1.934.206-2.84.619a7.501 7.501 0 0 0-2.376 1.7c-.68.722-1.214 1.599-1.605 2.63-.391 1.03-.587 2.165-.587 3.402s.196 2.371.587 3.402c.39 1.031.926 1.907 1.605 2.629a7.501 7.501 0 0 0 2.376 1.701 6.775 6.775 0 0 0 2.84.619zm31.013 6.804h-8.333v-30.31h8.333v30.31zm.617-38.97c0 1.402-.432 2.526-1.296 3.371-.864.845-2.078 1.268-3.642 1.268-1.4 0-2.52-.423-3.364-1.268-.844-.845-1.266-1.97-1.266-3.371 0-1.402.422-2.526 1.266-3.372.843-.845 1.965-1.268 3.364-1.268 1.564 0 2.778.423 3.642 1.268.864.846 1.296 1.97 1.296 3.372zm26.693 34.021a11.391 11.391 0 0 1-2.284 2.165c-.741.578-1.677 1.083-2.81 1.516-1.13.433-2.417.65-3.857.65-1.688 0-3.344-.403-4.97-1.207a15.119 15.119 0 0 1-4.352-3.247c-1.275-1.361-2.304-2.96-3.086-4.794-.782-1.835-1.173-3.805-1.173-5.908s.391-4.072 1.173-5.907 1.81-3.433 3.086-4.794a15.119 15.119 0 0 1 4.352-3.248c1.626-.804 3.282-1.206 4.97-1.206 1.44 0 2.726.227 3.858.68 1.132.454 2.068.95 2.809 1.485a14.31 14.31 0 0 1 2.284 2.165v-3.711h8.333v27.836c0 2.185-.401 4.216-1.204 6.093a14.934 14.934 0 0 1-3.333 4.886c-1.42 1.382-3.117 2.475-5.093 3.279-1.975.804-4.115 1.206-6.42 1.206-2.345 0-4.383-.33-6.111-.99-1.728-.66-3.169-1.402-4.321-2.227a15.447 15.447 0 0 1-3.457-3.278l5.247-4.949a8.99 8.99 0 0 0 2.099 2.042c.7.495 1.564.948 2.593 1.36 1.028.413 2.242.62 3.642.62 2.469 0 4.424-.723 5.864-2.166 1.44-1.443 2.16-3.402 2.16-5.876v-2.475zm-13.89-10.825c0 1.073.175 2.062.525 2.97.35.907.833 1.69 1.45 2.35a6.704 6.704 0 0 0 2.161 1.546 6.382 6.382 0 0 0 2.655.557c.905 0 1.79-.185 2.654-.557a6.984 6.984 0 0 0 2.284-1.577 7.98 7.98 0 0 0 1.574-2.35c.391-.887.587-1.866.587-2.939 0-1.03-.196-2-.587-2.907a7.865 7.865 0 0 0-1.574-2.382 6.984 6.984 0 0 0-2.284-1.577 6.666 6.666 0 0 0-2.654-.557c-.947 0-1.832.186-2.655.557a6.704 6.704 0 0 0-2.16 1.547 7.177 7.177 0 0 0-1.451 2.35c-.35.907-.525 1.897-.525 2.97zm37.187 15.774h-8.334v-30.31h8.334v30.31zm.617-38.97c0 1.402-.432 2.526-1.297 3.371-.864.845-2.078 1.268-3.642 1.268-1.399 0-2.52-.423-3.364-1.268-.844-.845-1.265-1.97-1.265-3.371 0-1.402.421-2.526 1.265-3.372.844-.845 1.965-1.268 3.364-1.268 1.564 0 2.778.423 3.642 1.268.865.846 1.297 1.97 1.297 3.372zm9.716-.31h7.408v9.588h6.173v7.423h-6.173v12.062c0 .949.35 1.753 1.05 2.413.699.66 1.584.99 2.654.99.864 0 1.605-.103 2.222-.31a4.22 4.22 0 0 0 .864-.309v7.114a38.73 38.73 0 0 1-1.605.495c-.494.123-1.08.226-1.76.309-.678.082-1.409.124-2.19.124-3.087 0-5.454-.856-7.1-2.568-1.646-1.71-2.469-4.36-2.469-7.948v-12.372h-5.247v-7.423h2.778c.946 0 1.749-.36 2.407-1.082.659-.722.988-1.701.988-2.938v-5.568zm36.26 36.187a12.08 12.08 0 0 1-2.222 1.856c-.7.453-1.564.876-2.593 1.268-1.028.392-2.201.588-3.518.588-1.564 0-2.963-.238-4.198-.712-1.234-.474-2.304-1.103-3.21-1.886a7.895 7.895 0 0 1-2.068-2.753 7.975 7.975 0 0 1-.71-3.31c0-2.474.792-4.536 2.377-6.185 1.584-1.65 3.776-2.722 6.574-3.217l9.568-1.732c0-1.237-.442-2.268-1.327-3.093-.885-.825-2.191-1.237-3.92-1.237-1.193 0-2.201.165-3.024.495-.824.33-1.523.68-2.1 1.052a7.51 7.51 0 0 0-1.666 1.546l-4.63-4.64c.823-1.072 1.832-2.04 3.025-2.907.988-.742 2.233-1.422 3.735-2.04 1.502-.62 3.261-.929 5.278-.929 1.934 0 3.693.31 5.278.928 1.584.619 2.952 1.474 4.105 2.567a11.259 11.259 0 0 1 2.654 3.835c.617 1.464.926 3.042.926 4.732v18.867h-8.334v-3.093zm-6.173-3.093c1.852 0 3.344-.587 4.476-1.763 1.132-1.175 1.697-2.855 1.697-5.041v-.928l-6.79 1.237c-2.263.371-3.395 1.505-3.395 3.402 0 .949.319 1.701.957 2.258.638.557 1.656.835 3.055.835zm29.47 6.186h-8.333v-43.3h8.333v43.3zm5.704-4.02c0-1.238.473-2.32 1.42-3.248.946-.928 2.12-1.392 3.519-1.392s2.572.464 3.518 1.392c.947.928 1.42 2.01 1.42 3.247s-.473 2.32-1.42 3.248c-.946.928-2.12 1.392-3.518 1.392-1.4 0-2.573-.464-3.52-1.392-.946-.928-1.419-2.01-1.419-3.248zM251.113 188.78c0-.994-.313-1.805-.94-2.433-.626-.627-1.435-.941-2.427-.941-.598 0-1.132.103-1.6.309a5.75 5.75 0 0 0-1.178.675c-.374.3-.71.628-1.01.984l-1.263-1.265c.375-.47.814-.89 1.32-1.266.43-.318.953-.609 1.57-.871.618-.263 1.338-.394 2.161-.394a5.68 5.68 0 0 1 2.133.394c.654.262 1.22.628 1.697 1.096a4.918 4.918 0 0 1 1.109 1.66c.261.636.392 1.32.392 2.052v8.575h-1.964v-1.827c-.28.393-.636.75-1.066 1.068a6.71 6.71 0 0 1-1.375.717c-.542.216-1.178.324-1.908.324-.71 0-1.356-.113-1.936-.338a5.05 5.05 0 0 1-1.501-.886 3.986 3.986 0 0 1-.982-1.265 3.266 3.266 0 0 1-.351-1.448c0-1.125.337-2.034 1.01-2.727.674-.694 1.646-1.144 2.918-1.35l5.191-.843zm-4.349 7.029c.636 0 1.22-.108 1.754-.323.533-.216.991-.52 1.375-.914.383-.394.682-.867.898-1.42a5.041 5.041 0 0 0 .322-1.842v-.843l-4.63.843c-1.683.319-2.525 1.115-2.525 2.39 0 .562.239 1.054.716 1.476.477.422 1.173.633 2.09.633zm12.066-16.449h1.823v4.5h2.947v1.827h-2.947v8.013c0 .712.164 1.242.491 1.589.328.347.772.52 1.333.52a4.254 4.254 0 0 0 1.291-.197c.206-.075.383-.15.533-.225v1.828a8.74 8.74 0 0 1-.561.225c-.168.056-.37.103-.603.14a4.697 4.697 0 0 1-.744.057c-1.16 0-2.067-.338-2.722-1.013-.654-.675-.982-1.65-.982-2.924v-8.013h-2.525v-1.828h1.543c.748 0 1.123-.468 1.123-1.406v-3.093zm15.432 0h1.824v4.5h2.946v1.827h-2.946v8.013c0 .712.164 1.242.491 1.589.327.347.772.52 1.333.52a4.254 4.254 0 0 0 1.29-.197c.206-.075.384-.15.534-.225v1.828a8.74 8.74 0 0 1-.562.225c-.168.056-.369.103-.603.14a4.697 4.697 0 0 1-.743.057c-1.16 0-2.067-.338-2.722-1.013-.655-.675-.982-1.65-.982-2.924v-8.013h-2.525v-1.828h1.543c.748 0 1.122-.468 1.122-1.406v-3.093zm10.943 6.467c.28-.412.636-.787 1.066-1.124a6.847 6.847 0 0 1 1.361-.774c.533-.234 1.174-.351 1.922-.351a5.87 5.87 0 0 1 2.217.408 4.902 4.902 0 0 1 1.726 1.152 5.308 5.308 0 0 1 1.122 1.814c.271.712.407 1.509.407 2.39v8.013h-1.964v-8.013c0-1.2-.342-2.156-1.024-2.868-.683-.712-1.558-1.068-2.624-1.068-.598 0-1.155.107-1.67.323a3.89 3.89 0 0 0-1.332.914 4.293 4.293 0 0 0-.884 1.42 5.041 5.041 0 0 0-.323 1.841v7.451h-1.964v-19.682h1.964v8.154zm15.293 5.483c.037.6.187 1.172.448 1.715a4.937 4.937 0 0 0 1.039 1.434c.43.413.926.74 1.487.984a4.46 4.46 0 0 0 1.796.366c.71 0 1.332-.117 1.866-.352a6.847 6.847 0 0 0 1.36-.773 6.38 6.38 0 0 0 1.123-1.124l1.262 1.265c-.392.525-.87.993-1.43 1.406-.487.356-1.076.68-1.768.97-.692.29-1.497.436-2.413.436a6.262 6.262 0 0 1-2.596-.549 7.01 7.01 0 0 1-2.146-1.49 6.94 6.94 0 0 1-1.46-2.221 7.128 7.128 0 0 1-.533-2.77c0-.974.178-1.893.533-2.755a7.022 7.022 0 0 1 1.446-2.236 6.938 6.938 0 0 1 2.104-1.49 5.942 5.942 0 0 1 2.511-.548c.917 0 1.768.169 2.554.506a6.351 6.351 0 0 1 2.048 1.392 6.283 6.283 0 0 1 1.36 2.137c.328.834.492 1.738.492 2.713 0 .15-.01.286-.028.408-.019.122-.038.23-.056.323a3.7 3.7 0 0 1-.056.281l-10.943-.028zm4.63-5.904c-.6 0-1.165.112-1.698.337a4.642 4.642 0 0 0-1.417.928 5.095 5.095 0 0 0-1.01 1.35 4.856 4.856 0 0 0-.505 1.602h9.119a5.251 5.251 0 0 0-.491-1.673 4.66 4.66 0 0 0-.968-1.335 4.434 4.434 0 0 0-1.361-.886 4.276 4.276 0 0 0-1.67-.323zm15.292-1.547h1.964v13.496h-1.964V183.86zm-.281-4.499c0-.356.122-.656.365-.9.243-.243.542-.365.898-.365.355 0 .654.122.898.366.243.243.364.543.364.9 0 .356-.121.655-.364.9a1.219 1.219 0 0 1-.898.365c-.356 0-.655-.122-.898-.366a1.224 1.224 0 0 1-.365-.9zm8.698 6.467c.28-.412.636-.787 1.067-1.124a6.847 6.847 0 0 1 1.36-.774c.534-.234 1.174-.351 1.923-.351a5.87 5.87 0 0 1 2.216.408 4.902 4.902 0 0 1 1.726 1.152 5.308 5.308 0 0 1 1.122 1.814c.271.712.407 1.509.407 2.39v8.013h-1.964v-8.013c0-1.2-.341-2.156-1.024-2.868-.683-.712-1.558-1.068-2.624-1.068-.598 0-1.155.107-1.67.323a3.89 3.89 0 0 0-1.332.914 4.293 4.293 0 0 0-.884 1.42 5.041 5.041 0 0 0-.323 1.841v7.451h-1.964V183.86h1.964v1.968zm15.573-6.467h1.824v4.5h2.946v1.827h-2.946v8.013c0 .712.164 1.242.491 1.589.327.347.772.52 1.333.52a4.254 4.254 0 0 0 1.29-.197c.206-.075.384-.15.534-.225v1.828a8.74 8.74 0 0 1-.561.225c-.169.056-.37.103-.604.14a4.697 4.697 0 0 1-.743.057c-1.16 0-2.067-.338-2.722-1.013-.655-.675-.982-1.65-.982-2.924v-8.013h-2.525v-1.828h1.543c.748 0 1.122-.468 1.122-1.406v-3.093zm9.26 11.95c.037.6.187 1.172.449 1.715a4.937 4.937 0 0 0 1.038 1.434c.43.413.926.74 1.487.984a4.46 4.46 0 0 0 1.796.366c.71 0 1.333-.117 1.866-.352a6.847 6.847 0 0 0 1.36-.773 6.38 6.38 0 0 0 1.123-1.124l1.263 1.265c-.393.525-.87.993-1.431 1.406-.487.356-1.076.68-1.768.97-.692.29-1.497.436-2.413.436a6.262 6.262 0 0 1-2.596-.549 7.01 7.01 0 0 1-2.146-1.49 6.94 6.94 0 0 1-1.46-2.221 7.128 7.128 0 0 1-.532-2.77c0-.974.177-1.893.533-2.755a7.022 7.022 0 0 1 1.445-2.236 6.938 6.938 0 0 1 2.104-1.49 5.942 5.942 0 0 1 2.512-.548c.916 0 1.767.169 2.553.506a6.351 6.351 0 0 1 2.048 1.392 6.283 6.283 0 0 1 1.361 2.137c.327.834.491 1.738.491 2.713 0 .15-.01.286-.028.408-.019.122-.037.23-.056.323a3.7 3.7 0 0 1-.056.281l-10.943-.028zm4.63-5.904c-.6 0-1.165.112-1.698.337a4.642 4.642 0 0 0-1.417.928 5.095 5.095 0 0 0-1.01 1.35 4.856 4.856 0 0 0-.505 1.602h9.119a5.251 5.251 0 0 0-.491-1.673 4.66 4.66 0 0 0-.968-1.335 4.434 4.434 0 0 0-1.361-.886 4.276 4.276 0 0 0-1.67-.323zm16.975.14h-.841a4.19 4.19 0 0 0-1.6.31 4.272 4.272 0 0 0-1.347.871 4 4 0 0 0-.926 1.364c-.224.534-.336 1.138-.336 1.813v7.451h-1.964V183.86h1.964v1.828c.299-.375.664-.722 1.094-1.04a7.073 7.073 0 0 1 1.389-.732c.552-.225 1.22-.337 2.006-.337h.561v1.968zm9.4 1.265a3.719 3.719 0 0 0-.73-.702 5.843 5.843 0 0 0-.94-.478c-.364-.15-.79-.225-1.276-.225-.767 0-1.38.206-1.838.618-.458.413-.687.862-.687 1.35 0 .487.182.871.547 1.153.365.28.814.515 1.347.702.533.188 1.117.37 1.753.549.636.178 1.22.412 1.754.703.533.29.982.68 1.347 1.167s.547 1.124.547 1.912c0 .562-.112 1.091-.337 1.588a3.732 3.732 0 0 1-.968 1.294c-.42.365-.935.656-1.543.871-.608.216-1.295.324-2.062.324-.842 0-1.572-.122-2.189-.366s-1.132-.515-1.543-.815a4.254 4.254 0 0 1-1.179-1.21l1.403-1.405c.262.375.561.703.898.984.3.262.669.492 1.109.689.44.196.94.295 1.5.295.992 0 1.731-.216 2.217-.647.487-.43.73-.965.73-1.602 0-.507-.182-.91-.547-1.21a4.621 4.621 0 0 0-1.347-.745 22.925 22.925 0 0 0-1.754-.562 8.88 8.88 0 0 1-1.754-.689 4.123 4.123 0 0 1-1.346-1.125c-.365-.468-.547-1.087-.547-1.855 0-.488.107-.96.322-1.42.215-.46.52-.862.912-1.21a4.702 4.702 0 0 1 1.417-.843 5.012 5.012 0 0 1 1.838-.323c.71 0 1.333.098 1.866.295.533.197.987.408 1.36.633.431.262.805.562 1.123.9l-1.403 1.405zm6.314 4.5c.037.599.187 1.17.448 1.714a4.937 4.937 0 0 0 1.039 1.434c.43.413.926.74 1.487.984a4.46 4.46 0 0 0 1.796.366c.71 0 1.332-.117 1.866-.352a6.847 6.847 0 0 0 1.36-.773 6.38 6.38 0 0 0 1.123-1.124l1.262 1.265c-.392.525-.87.993-1.43 1.406-.487.356-1.076.68-1.768.97-.692.29-1.497.436-2.413.436a6.262 6.262 0 0 1-2.596-.549 7.01 7.01 0 0 1-2.146-1.49 6.94 6.94 0 0 1-1.46-2.221 7.128 7.128 0 0 1-.533-2.77c0-.974.178-1.893.534-2.755a7.022 7.022 0 0 1 1.445-2.236 6.938 6.938 0 0 1 2.104-1.49 5.942 5.942 0 0 1 2.511-.548c.917 0 1.768.169 2.554.506a6.351 6.351 0 0 1 2.048 1.392 6.283 6.283 0 0 1 1.36 2.137c.328.834.492 1.738.492 2.713 0 .15-.01.286-.028.408-.019.122-.038.23-.056.323a3.702 3.702 0 0 1-.056.281l-10.943-.028zm4.63-5.905c-.6 0-1.165.112-1.698.337a4.642 4.642 0 0 0-1.417.928 5.095 5.095 0 0 0-1.01 1.35 4.856 4.856 0 0 0-.505 1.602h9.119a5.251 5.251 0 0 0-.491-1.673 4.66 4.66 0 0 0-.968-1.335 4.434 4.434 0 0 0-1.361-.886 4.276 4.276 0 0 0-1.67-.323zm8.978 5.201c0-.974.178-1.893.533-2.755a6.901 6.901 0 0 1 1.46-2.236 7.01 7.01 0 0 1 2.146-1.49 6.262 6.262 0 0 1 2.595-.548c.88 0 1.656.14 2.33.422.673.28 1.243.59 1.711.928.542.393 1.02.834 1.431 1.321l-1.403 1.406a6.553 6.553 0 0 0-1.038-1.125 5.622 5.622 0 0 0-1.277-.773c-.514-.234-1.099-.351-1.754-.351a4.28 4.28 0 0 0-1.81.393 4.828 4.828 0 0 0-1.515 1.097 5.394 5.394 0 0 0-1.052 1.659 5.347 5.347 0 0 0-.393 2.052c0 .731.131 1.415.393 2.053.262.637.613 1.19 1.052 1.659.44.468.945.834 1.516 1.096a4.28 4.28 0 0 0 1.81.394c.654 0 1.243-.117 1.767-.352a6.985 6.985 0 0 0 1.347-.773c.43-.337.795-.712 1.094-1.124l1.403 1.265c-.43.525-.926.993-1.487 1.406-.486.356-1.075.68-1.768.97-.692.29-1.477.436-2.357.436a6.262 6.262 0 0 1-2.595-.549 7.01 7.01 0 0 1-2.147-1.49 6.94 6.94 0 0 1-1.459-2.221 7.128 7.128 0 0 1-.533-2.77zm16.695-11.247h1.824v4.5h2.947v1.827h-2.947v8.013c0 .712.164 1.242.491 1.589.328.347.772.52 1.333.52a4.254 4.254 0 0 0 1.29-.197c.207-.075.384-.15.534-.225v1.828a8.74 8.74 0 0 1-.561.225c-.169.056-.37.103-.603.14a4.697 4.697 0 0 1-.744.057c-1.16 0-2.067-.338-2.722-1.013-.654-.675-.982-1.65-.982-2.924v-8.013h-2.525v-1.828h1.543c.748 0 1.122-.468 1.122-1.406v-3.093zm8.84 4.5h1.963v13.495h-1.964V183.86zm-.281-4.5c0-.356.121-.656.364-.9.244-.243.543-.365.898-.365.356 0 .655.122.898.366.243.243.365.543.365.9 0 .356-.122.655-.365.9a1.219 1.219 0 0 1-.898.365c-.355 0-.654-.122-.898-.366a1.224 1.224 0 0 1-.364-.9zm17.537 11.247a5.347 5.347 0 0 0-1.46-3.711 4.896 4.896 0 0 0-1.557-1.097 4.602 4.602 0 0 0-1.894-.393c-.673 0-1.305.13-1.894.393a4.896 4.896 0 0 0-1.557 1.097 5.347 5.347 0 0 0-1.46 3.711c0 .731.132 1.415.394 2.053a5.092 5.092 0 0 0 2.623 2.741c.59.272 1.22.408 1.894.408.674 0 1.305-.131 1.894-.394a4.896 4.896 0 0 0 1.557-1.096 5.347 5.347 0 0 0 1.46-3.711zm-11.785 0c0-.974.182-1.893.547-2.755a7.092 7.092 0 0 1 1.473-2.236 6.915 6.915 0 0 1 2.175-1.49 6.59 6.59 0 0 1 2.68-.548 6.59 6.59 0 0 1 2.679.548 6.915 6.915 0 0 1 2.174 1.49 7.092 7.092 0 0 1 1.474 2.236c.364.862.547 1.78.547 2.755 0 .994-.183 1.917-.547 2.77a7.135 7.135 0 0 1-1.474 2.221 6.915 6.915 0 0 1-2.174 1.49 6.59 6.59 0 0 1-2.68.549 6.59 6.59 0 0 1-2.68-.549 6.915 6.915 0 0 1-2.174-1.49 7.135 7.135 0 0 1-1.473-2.221 6.968 6.968 0 0 1-.547-2.77zm19.22-4.78c.28-.412.636-.787 1.067-1.124a6.847 6.847 0 0 1 1.36-.774c.534-.234 1.174-.351 1.922-.351a5.87 5.87 0 0 1 2.217.408 4.902 4.902 0 0 1 1.726 1.152 5.308 5.308 0 0 1 1.122 1.814c.271.712.407 1.509.407 2.39v8.013h-1.964v-8.013c0-1.2-.342-2.156-1.024-2.868-.683-.712-1.558-1.068-2.624-1.068-.598 0-1.155.107-1.67.323a3.89 3.89 0 0 0-1.332.914 4.293 4.293 0 0 0-.884 1.42 5.041 5.041 0 0 0-.323 1.841v7.451h-1.964V183.86h1.964v1.968zm30.445 4.78a5.347 5.347 0 0 0-1.46-3.711 4.896 4.896 0 0 0-1.557-1.097 4.602 4.602 0 0 0-1.894-.393c-.673 0-1.305.13-1.894.393a4.896 4.896 0 0 0-1.557 1.097 5.347 5.347 0 0 0-1.46 3.711c0 .731.132 1.415.394 2.053a5.092 5.092 0 0 0 2.623 2.741c.59.272 1.22.408 1.894.408.674 0 1.305-.131 1.894-.394a4.896 4.896 0 0 0 1.557-1.096 5.347 5.347 0 0 0 1.46-3.711zm-11.785 0c0-.974.182-1.893.547-2.755a7.092 7.092 0 0 1 1.473-2.236 6.915 6.915 0 0 1 2.175-1.49 6.59 6.59 0 0 1 2.68-.548 6.59 6.59 0 0 1 2.679.548 6.915 6.915 0 0 1 2.174 1.49 7.092 7.092 0 0 1 1.474 2.236c.364.862.547 1.78.547 2.755 0 .994-.183 1.917-.547 2.77a7.135 7.135 0 0 1-1.474 2.221 6.915 6.915 0 0 1-2.174 1.49 6.59 6.59 0 0 1-2.68.549 6.59 6.59 0 0 1-2.68-.549 6.915 6.915 0 0 1-2.174-1.49 7.135 7.135 0 0 1-1.473-2.221 6.968 6.968 0 0 1-.547-2.77zm23.149-4.92h-3.227v11.668h-1.964v-11.668h-2.105v-1.828h2.105v-2.53c0-1.275.327-2.25.982-2.925.654-.674 1.543-1.012 2.665-1.012.28 0 .538.024.772.07.234.047.444.099.631.155.206.075.393.14.561.197v1.828a57.81 57.81 0 0 0-.533-.197 5.29 5.29 0 0 0-.589-.155 3.425 3.425 0 0 0-.701-.07c-.562 0-1.006.173-1.333.52-.328.347-.491.876-.491 1.589v2.53h3.227v1.828z"/></g></svg>