<svg xmlns="http://www.w3.org/2000/svg" width="1200" height="500" viewBox="0 0 1200 500"><g fill="none" fill-rule="evenodd"><path fill="#E6E5E5" d="M0 0h1200v500H0z"/><g fill-rule="nonzero"><path fill="#666" d="m938.429 77.576 1.58-.431 1.582 1.15h1.725l.719-.72 1.724-.574.144.862 3.306.288 1.15-1.15 3.737-1.15 2.444.575 1.293.575.72-1.438 1.005-.863 2.588-4.313 1.437 2.732 1.437.431 2.156-.144.144-1.15 1.15-.575 2.444 1.438 1.15.287v1.007l-1.15 1.006-.144 1.294 3.306-1.437 2.156-.144-.575 1.869-2.875 1.006-.287 1.294-1.869 1.15-.431 1.15-1.869.576-.43 1.437-1.438.576v.718l-3.45 2.732-.287 1.15-1.15.288-.863 1.438-1.58.862v1.294h-1.007l-.862 1.15-2.3 1.007-.288.863-1.58.43.143 1.007-2.013-.431 1.582 2.013-.144.719-1.725 1.006-1.294-.575-1.437.575-.719-1.581-1.437.143-.288 1.582-1.006.719-1.006 1.725.863 2.013-1.007 4.888-.862.575.144 1.15-1.438 1.295.575 1.581-.718.431-1.007 2.588h-.862l-1.437 1.582-1.007-.144.432 1.87-1.007 1.437-2.156 1.294-1.724-.719-.432-1.581-2.443-1.87-.144 1.438-1.869.575-1.293-2.156-.431-1.87-1.294-1.293.144-2.3-.288-1.87.431-1.869 1.438-2.588-1.294-.144 1.294-2.3 4.743-6.326.288-.863 2.73-3.45 1.438-1.438 2.012-1.438 1.294-2.157.575 2.013 2.012.863.575-2.157 2.875-2.156 1.006-1.15 2.731-1.007-1.868-.575-3.738 1.294-1.58.288-2.588 1.15-.719.862h-2.3l-1.006.863-.143 1.15-2.588.432.432-2.445 1.58-2.012 1.582-3.164.143-1.581.863-1.15-1.006-.432-.288 1.726-2.012.143-.575 1.582-.287 2.3-1.438.432-.719 1.581-3.018 2.876-1.869 2.875-3.45 3.307-1.868-.719-.862.432-.144 1.869-2.3 2.444-1.006-.863-2.444 2.444h-2.012l-.862-1.294-1.15 2.013-1.294-1.006-1.006-.144-1.006 1.006-2.013-1.437v-1.87l-1.293-1.437.575-.863-.575-1.15-1.869.288-3.018-1.438v-1.15l-.72-2.157-5.749-17.11-2.587-2.156-3.306-1.438-1.294-.143-.575 1.437-1.724.575-.863 1.15-1.15.576-1.437 1.294-2.156-1.15-.575-2.013-2.012-.144-.432.431-4.6 14.378.576 4.744-.863 1.438-.431 2.732.719 1.006-.432 1.294.288 1.15 1.006 1.15-1.15 2.589.431.862-1.724 2.013-.72 1.582.145 1.725-1.007 1.581.432 1.438h-1.438l-1.437.863-.431 1.006-1.869-.144-.862 1.15-.288 4.026-9.055 2.588-12.074 3.163-15.668 4.026 2.444-1.869.575-1.438 2.587-2.156 1.15-.288 1.294-2.157 2.012-2.156h1.581l.431-1.007-.575-1.15.431-1.294-.143-2.444 1.437-2.157.431-3.738 1.006-.575 1.007-1.438 2.156-1.15.287-1.294 1.581-2.3 2.156-1.726.575-1.869 1.725-1.294 1.438-2.156 1.58.287 4.17-3.163 1.149-2.013 2.012-.862.575-1.007 3.594-2.875 1.006-2.157 1.294-3.882 1.006-1.294v-1.725l1.725-3.163 1.724-4.457-.143-.719.575-2.013 1.15-1.006 1.868-4.17 2.013-3.163.862-.287 1.725-2.157.287-1.15 1.006-.863 1.15-1.869 2.3-1.725 3.594-4.026 1.293-.575 2.731-2.588 4.456-4.313 3.737-2.732 3.45-1.581 3.019-1.726 6.612-1.581 4.168.287 3.019 1.007 2.443 1.15-.431 1.294-2.731.144 3.593 1.437 1.725 1.15-.862.576v1.006l1.15.288-.863 2.156-2.012 1.294-1.294 1.582-.144 2.157-1.293 1.006-.575 1.15-2.444 2.876-1.58.719-1.007-.576-3.306.144-2.3-.719-1.006 2.157-1.869.287-2.587 1.007-.144.863-2.874 2.156 1.293-.287 3.306-2.732 1.581.719 3.594.287 1.725-.287 1.15.575 1.293 1.869.863.575 1.58-.719.863-1.725 1.294-1.582 1.869-1.15.574.863 1.725-1.007 2.013.863-.575.863-.719 2.588.719 1.006v3.45l-.719.576-.431 1.581-1.725 2.444 5.462-1.869.862 1.582-.575 2.013 1.15 1.438 2.156 1.006.575 1.725 2.013 2.157.287 1.294 1.869 1.15 2.875-1.006 1.437.719 1.294-.863 2.587-.144-.575 1.725-1.725.575.719 1.007Zm-112.26 47.733-1.437 1.582-.144 1.006-1.725 2.013-1.868.144-2.731 2.156-1.438 1.438-3.88 5.751-.72 1.582-1.437 2.013-3.162 1.869-2.3 2.013-2.3.862-1.868 1.438-1.294 1.725-1.437-1.438-.144 2.3 1.581.288 1.15.863-2.156 1.87h-1.438l-1.724-1.151-1.581.575-1.582-1.15-2.3.862-1.15.72-4.311 1.437-2.444 1.438h-1.294l-5.462 2.588-2.73 3.594-1.15.144-1.294 1.581v1.294l-1.438 3.02 1.294 1.294 1.869.287 2.587-.287 1.581-1.438 1.437-.575.432 2.875.575 1.582 1.58.719-.287 1.006-1.437 1.007-1.438-.288-2.874.575-2.3 1.007-1.006-.288-1.725 1.006-4.169 1.582-2.156 2.876.144.575 4.168-.288v.575l-3.162-.144-1.868.432-5.319-.72-3.593.576-1.581.575-2.013 1.725-2.587 3.163-.575 1.87-.719.718-1.58.288-3.45 2.732-1.869 2.731-1.006-.719-1.15.288-1.294 1.006-1.15.144-2.73-1.006-.144-2.876.143-1.006v-.144h.144l1.437-.863 2.157.288 1.868-.288 2.156-.862-.144-2.588-2.156.144-.718-.72.718-.43.72-1.295-.145-2.875.288-3.45 3.018-1.726 1.438-2.3 1.437-1.007 1.437-2.3.144-2.3-.718-2.732-.575-4.314-.72-2.3.72-1.294.287-3.02 1.006-1.725 1.006-.718.144-1.007.863-2.444-.575-2.732-1.15-1.15-.144-1.438h-1.006l-.431-1.006-2.013-1.87-.287-1.15 3.593-.575.144 1.726.862 2.013 1.725 1.437 1.581-.287v1.869l1.15-.144.719.863-.288 2.156 1.87-1.869 1.436-.287.863 1.438 1.869.718 2.587.288 1.725.575.862-1.15-.144-2.732-1.58-.862-.145-1.007 1.725-1.15 1.15 1.438h1.581l-1.58-2.876-1.15-.144-1.87-1.725.432-1.438-1.725-1.006.863-1.725-1.294-1.15-2.012 1.15-1.294-1.438-.144-1.438-1.868-1.15-1.725-1.438-.719-1.869-2.731-1.294-4.312.431-4.169-.287.575-1.294-5.462.575-3.737-.144-1.006-.575-3.019 1.007-.43-.576-3.163.863h-3.162l-4.456-.719-.863.288-2.587-.575h-2.3l-.862-1.294.431-1.726-1.006-.143-1.15.862h-1.437l-.719 1.007-1.294-1.294.288-1.007 1.15-1.725-1.581-2.013 1.724-.431.288-1.007-.863-.719-2.73.144-1.294-.431.287-2.732 1.294-2.875-1.725-1.87-2.443-1.15-1.438-1.437v-1.726l.863-1.437-.432-1.007.863-1.15-1.006-.863-4.025.72-1.437.718h-3.738l-1.293-.431-2.875-2.732-2.156-4.313-.719-2.588-2.443-3.02-1.15.72-1.869-1.007-1.15 1.006-2.3-.287-2.874.575-2.013-1.15-.862.287-1.437-.862-3.163-.575-.862-.576-2.875.144.862 2.444 1.15.576.288 1.581-.863 1.725-2.587 1.007 1.006-3.163-.575-1.582-.862-.144-1.15 1.294v2.588l-.575.288-.144 1.725-.718 2.444-1.581.144.287-3.307-3.593 1.726-.72.719.288 1.869-1.15 3.738-1.15.431-1.58 1.87-2.444-.145-1.15.575-.862-.287-1.15-1.438-1.15-.287-4.025.862-2.875-.144-.718-2.012h-1.007l-1.58 1.006-2.157 1.87-1.725.574h-1.725l-1.293-.862-.863-1.438-2.3-.575-1.006-1.726-1.293-.287-1.581.719-.863 1.438-1.725-3.595-2.012.144.575-1.582-2.731-.718-1.006-.576-3.162-.143-2.157.575-.43 1.006-3.02.575-1.293-2.013-4.025-.287-.862-1.007-1.869.288-1.293-.431-1.438-1.294v-1.87l-1.15-4.313-.143-2.012-1.725-1.15-2.012-.144v6.038l-.144.288-7.33.143-15.525-.143-16.386-.432-12.218-.431-17.392-.863-16.817-1.15-13.08-1.006-13.656-1.294-9.774-1.007-12.218-1.437-9.63-1.294-9.774-1.438-10.637-1.582-8.768-1.294-9.63-1.725-14.374-2.588-11.93-2.3-12.074-2.588-9.487-2.013-10.78-2.444-13.224-3.307-9.487-2.444-11.787-3.02-11.786-3.306-15.093-4.601-1.725-2.013-1.293 1.15-.575-.144-.719-2.588.862-1.437-.43-1.15.718-.863v-1.294l.862-3.02-3.018.576-.144 1.294-1.15.431-3.593-3.45-.431-2.157.862-1.438 1.294-.575-1.007-1.294-1.58.575-2.444-.575-2.444-4.17 2.731-4.025-.575-1.87-2.587-1.15-1.006-.143-.144-2.013-2.443-1.87-1.438.288-2.012-.431-.863-1.87-1.58.432-2.732-1.438 1.006-1.006v-1.15l2.156.287.575-.718-1.15-1.007V6.551l-2.156-.719-1.15.288-.43-1.87-1.15.144-1.582-1.725-2.3 1.438-.862-1.15-2.587-2.3-.719-1.439 1.006-1.725-1.437-.144-1.006-1.581.143-1.15 3.306-.288-1.58-1.006.574-.863 1.581-.719 1.007-1.869.718-.431 1.725.144 2.731.718 3.306 1.582.144-.288-3.737-2.012-3.019-.576-1.868-1.294v1.294l-1.725 2.3-1.15-.143.144-2.588-.288-1.294.575-2.444 88.974-8.77 102.317 6.214 2.467-15.958 78.626 6.006L615.305-14.44l93.861 3.45.288 2.732.718 1.294 1.581 1.15 1.87 4.17-.432 3.738 1.15 3.02.718 2.443-1.006 1.15-.287 2.013.287 2.445 2.156 1.006 1.438 1.294 1.006 2.013 1.294.575 1.293 1.582 1.725 1.006.288 2.444-1.582 1.582 2.444-.432 1.581 1.726 2.731 1.006 1.869.431.862 1.438 1.725.719 2.3 2.013 1.293 2.875 1.007.863.43 2.013-1.437 1.006-1.293 2.157.575.575 1.293-2.444 1.438-1.15 3.018.287 4.312 2.157.575 1.006 2.444 1.726-.144-.432-1.868-1.294-1.15-2.156.287-2.157-.431-1.15 1.581-1.726-.575-1.437.863-.575 1.006-1.582 1.15.288.143 1.869 1.294-.575 1.581 1.294 1.438.575.718-1.438-.431-2.3-1.581-.576-1.294-2.012 1.725-1.15-.862-1.726 1.293-.719.144-1.438 1.15-1.15.287-1.581-.575-1.438.432-1.294-.719-2.157-1.294-.575-2.012-1.869-.144-2.156-.43-1.438-1.295-.575-1.437-2.444.431-2.3-1.006-3.02-.719-1.15-1.437-.72 1.725-1.15-1.581-.862.143-1.294-.574-1.006.143-1.582-1.868-4.313-1.15-.72-1.438-.287 138.852.432 1.006-.575 2.156.43 1.15.145 1.293-1.294h1.15l.719.862 2.3-.862 1.437.862v1.007l1.294.144 1.437 1.15 1.581-.288 1.007.288.718-1.15 2.013.143 2.3 1.582 1.437-1.87.143-1.437 54.909 1.582-2.013 1.437-.287 1.438.718.863-1.724 1.869-1.15-.144-1.15 1.15-1.581.432-.72 1.006-1.868.719h-1.437l-.575 1.294h-1.15l-1.15 1.15-1.437.431L938.14 3.1l-2.012-1.294-3.881 1.007-1.437-.288-1.007.863-4.312 1.15-3.306 1.294-.43 1.15-1.87 1.007-1.006-.432-.862.576-1.581-.432-2.731 1.007-1.294 1.15-1.15.431h-2.587l-1.294 1.15-2.587 1.15-4.168.576-4.6 2.731-2.156.144-.719 1.438-1.15.863-2.012.575-.862-.72-1.15 1.151.143 1.006-1.006.72-.287 1.725-1.869 1.725-.144 2.875-.862.288v1.581l.431 1.007-.287 1.294.718 2.444-.862 2.444-3.593 1.582-.72.862-1.437.144-1.724 1.007.143 2.588-1.437.862-.719-.431-2.156 2.875.431 1.582-1.437.575-1.581 2.732-.719.719v2.731l-.862.432v2.3l-.863 3.307-1.725 2.732-1.437.575-2.587-1.294-1.725.575-2.875-1.007-.719.432-3.737-.144.431 1.294 2.875-.863 2.3.144 1.581.575 1.438-.431 1.293.144.863.862 1.725.144v2.3l-.432 4.026-2.156 3.738.144 1.726-2.587 1.869-.288 3.307-.719 2.444-2.156 2.3-1.868 3.45-.144 1.007-1.15 1.438-1.15.431-2.3 1.582-2.156.287-1.58 2.157-1.726 1.15v1.438l-2.012 1.725-1.15 2.157-2.587 1.294-1.438 1.294.144 1.725-1.437 1.006-.575 3.595-1.725 3.02-2.012.862-.863.719-1.15 2.731-1.58 1.726 1.724 1.437-2.012 1.007-.431 1.006-1.438 1.294ZM270.046 47.527v1.15l.718 1.15-1.58.575-.288-2.156 1.15-.72ZM243.31 31.855l.431-1.725 1.15.144v2.157l-1.58-.576Zm21.992 0 1.006 2.588-.43.575-2.157-2.3-.431-2.732 1.581 1.15.431.72Zm-24.148-11.214.431 1.869-.43 2.157-.863.431-1.15-1.006-.719-1.438.719-1.438-.575-1.006 2.443-.144.144.575Zm19.261 3.594-.287-2.013 1.437-.287-.144 1.725-1.006.575Zm-2.3-2.013-.718-1.15.287-1.725.863-.575.862 1.438-1.006 1.294v2.3l-.288-1.582Zm6.756-.862-.431 1.15-1.294-1.294 1.294-.719.431.863Zm-13.08-13.084-1.581 1.15-2.731-1.869 2.587-1.006h1.294l.43 1.725ZM238.567 3.1l.575 1.438 1.581 2.157 4.025 2.732 2.73 2.3 1.007.144 2.443 1.294 1.294 1.581 2.012 1.438 1.582.287 1.293 1.438-.144 3.307.863 2.157-.144 1.725 2.012 4.17-.718 1.581.287 2.875.719.288 1.437 2.157 1.869.862 1.869 1.438.574 1.438 1.15.575-.143 1.438 1.15.862.143 1.438-.575.863 1.294 3.019-.431 3.45 1.437.72.431 3.163-1.15.43-.575-.862-1.868 1.438-1.15-.144-1.15-1.15-1.15-.431-4.6-4.17-2.587-1.869-1.293-1.725-2.444-2.3-.575-1.438 2.444-1.007.862-1.294-1.869-.719-1.006.432-1.437-1.15-1.581.718-1.15-1.294-.719-1.725 1.006-1.869-.862-2.013-1.437.144-.432-2.876.575-.862h-2.443l-1.438-.863-1.293.288-.431-.72 1.006-2.875 1.437-.287.144-1.294-1.15-.863.431-2.732-1.15-.718-2.156.143-2.012-.862-.431-1.582 1.437-1.725-2.3-.144-.719-2.013-1.293-.287-.144-1.007-1.869.863-.862-1.294 1.869-1.007-.432-2.156-1.006-.288 1.294-1.725 3.45.863.43-1.15-2.874.143-2.587-.287-1.15-1.726-.431-1.725V-.35l3.88-.287 2.013.863 3.306 2.875Zm-.719-12.077-1.006-1.581.144-2.444 2.012-1.007.144 2.3-.288 2.157-1.006.575Zm1.15-5.894h-1.15 1.15ZM725.84 132.21l1.006 1.582 1.869-1.006 1.006-1.15 2.012-1.007.431 1.006 1.869 1.007.431-1.582 1.437-1.006.72 1.294 1.868.575 2.012 1.438-1.725 3.738h-2.587l-1.869-.288-2.156-1.15h-1.293l-3.019-1.15-3.162.144-1.581-.72h-1.725l-.144-.718 3.162-1.007h1.438Zm-5.606.432.575.719-1.15 1.15-1.294-.863.575-1.15 1.294.144Zm-9.343-4.313 2.444.143.862.72-.862 1.15-.432 1.58-2.012-2.012v-1.581Zm-20.555-22.142-1.58.719-2.3.144.718-1.438 1.438-.144 1.724.72Zm-26.304-15.096-.43.719-1.87.143-1.293-.862 1.294-1.007 2.156-.143.143 1.15Zm169.18 24.154-1.293 2.732-1.581.143 1.724-2.587 1.15-.288Zm.432 4.313h-2.157v-.862l1.007-1.15.287-1.15 1.438-1.582v3.163l-.575 1.581Zm22.998-30.911-.719-.576 1.581-2.587.575 1.294-1.437 1.869Zm59.939-73.613 6.324-1.007 4.743-.287 1.007.431 4.168.144 2.3 1.15 1.437-.144.863.72 3.737-.432 3.593 2.3-1.15 1.87-.718.143-3.738 1.725-3.162-.143-1.868.575-4.744.287-2.443-.575h-3.594l-1.293-1.725-1.869-1.007-2.012-.43-6.037-.288-1.15-.72.287-.862 3.162-1.869 2.157.144Zm-2.013 92.16 1.294 1.869-1.294.719-.718-.432.143-1.869.575-.287Zm7.906-57.654-.288 2.013-1.437-.432.144-1.006 1.58-.575Zm52.464 21.422.288 1.294-1.294.432-.719-.576 1.725-1.15Zm-4.456-24.154.72 1.438h2.299l1.15 3.882-.144 4.6 1.437.863-1.006 3.307-.718 1.006-.288 2.876-1.437 1.006.431 1.582-1.15 1.15 1.15 1.006.719-1.293 2.587-.432-.288-1.294 2.013-4.17-2.731 2.732-1.006-.718 1.293-1.87-.575-1.15.719-2.731.862-1.726 2.444.432.862-.575 2.588.143.862 1.007-.287 1.15 1.15.287.143 1.15-.862 1.438-1.581.863 1.006.863-1.006 1.15-.144 1.006-1.294 1.726-3.162 2.588-.431-.288-2.875 1.006-1.006 1.294-1.15-.287-1.15 1.006-2.156-1.725-1.581-2.588-1.437-2.157.143-2.012 1.294-2.3.287-2.733.432-1.437.287-6.326.719-1.15.575-3.739 1.293.144Zm-36.797 17.54-.43.863 3.736 1.726.144 1.581 1.006.719 1.006-.144-.43-1.869.718-.431 3.737-.144 1.869.575 2.73-1.006 4.313-2.588 4.6-1.87h1.437l-1.437 2.301-1.438.719-.719 2.588-1.58.287.287 1.007 2.012 1.006-.719.575.432 1.438-2.588 1.15-2.156-.575-.143-1.006-1.294-.863-1.437-.144-1.007 1.582-4.743.431-2.3-1.006-.575-.72-1.725-.287-2.012 1.007-.575-2.157-1.868-1.006-1.582.719-.718-.72.143-1.437.72-1.438v-1.294l1.149-2.588 1.581 1.726-.144 1.294Z"/><g fill="#999" stroke="#FFF" stroke-linecap="round" stroke-linejoin="round" stroke-width=".5"><path d="m886.539 174.337 1.437 1.438-3.306 1.006 1.006-2.013.863-.431h0Zm-9.2-21.998.72 2.588 1.005.863 1.007-.863.575 1.294-2.3 1.582.43.719-1.149 1.869-.287 1.869h3.162l2.587 2.156.431 2.3 1.006-.287 1.15 2.157 1.294.575 2.156.144 2.156-1.726 1.15-1.725 1.006 2.876-5.75 2.444-.574 1.294-1.725 1.294-.863-3.307-1.006 1.581-1.437 1.007v1.15l-1.15 1.006-1.006.144-.863-2.3h-.718l-.719-.432-1.581-1.006-1.581-3.45-4.887 1.437-1.438.288-10.205 2.444-8.768 1.869-.431-.288.143-11.502 9.63-2.3 13.8-3.163 3.737-4.313 1.294-.288h0ZM644.771 106.187l-5.462 3.595-4.887 2.013-2.875 1.725-2.444 2.3-5.318 6.47-3.162 3.019-3.306 2.732-.144.575-1.15 1.582-.862.287.287 9.777-.718 1.006-3.881 2.013-1.006 2.301-1.007 1.15v2.3l1.581.288 1.15 1.869-1.006 2.444-.431 3.738.575 2.588-.575 2.732 2.875 2.444 2.3.431 1.581 1.87 2.012.431 1.869 1.581 1.581 2.445 2.156 1.725 1.437.144 1.438.575 1.581 1.725.718 2.444.288 4.457-7.906.432-11.93.431-11.787.431-11.93.144-11.786.144h-7.906l.144-30.193-1.294-1.582-1.437-.287-2.156-3.307.287-.719 2.444-2.013 1.006-3.019v-2.732l-.575-3.594-1.15-1.869-.575-2.876-.431-.718.144-3.882-.432-2.157-.287-4.313v-3.882l-.431-3.307-1.007-2.3-1.581-6.039.144-4.313-.287-1.869.575-2.013-1.294-5.32v-.431l15.524.144 7.33-.144.144-.288v-6.038l2.012.144 1.725 1.15.144 2.013 1.15 4.313v1.869l1.437 1.294 1.294.431 1.869-.287.862 1.006 4.025.288 1.293 2.012 3.019-.575.431-1.006 2.156-.575 3.162.144 1.006.575 2.732.719-.575 1.581 2.012-.144 1.725 3.595.862-1.438 1.581-.719 1.294.288 1.006 1.725 2.3.575.862 1.438 1.294.862h1.725l1.725-.575 2.156-1.869 1.581-1.006h1.006l.719 2.013 2.875.143 4.024-.862 1.15.287 1.15 1.438.862.288 1.15-.575 2.444.143zM482.634 87.928l-4.456 51.328-1.293 15.815h-.288l-8.768-.719-11.643-1.294-16.673-1.869-7.619-1.006-16.673-2.301-11.499-1.725-9.487-1.582-1.437 8.339-1.581-2.013-.719-2.444-1.725-.144-1.15 2.876-2.012-.719-1.581.431-.719-.718-2.587-.144-1.725-.719-1.006.287-.719 1.007-3.594-1.294-2.012 1.006-1.15-.143-.718-.863v-3.163l-1.15-2.876-1.725-.143-1.294-2.588.719-1.007-.575-2.3-1.725-3.451v-4.744l-1.581-2.157-2.156 1.725-2.731.863-1.15-1.582-1.006-.431 1.006-2.013-.431-1.438 2.299-1.437v-1.582l-.574-1.294 1.006-2.156v-1.294l2.156-4.026.575-1.725-.288-.863-2.443.144-.288-1.438-2.875-2.588.144-1.294-3.018-5.463-.432-1.438-1.724-1.15-.575-1.438-1.294-1.007 1.006-.718-.862-1.438.862-.575-.144-1.726-.862-1.581-.144-1.15-1.581-3.02 3.737-16.39 9.487 2.013 12.074 2.588 11.93 2.3 14.374 2.588 9.631 1.726 8.768 1.294 10.636 1.581 9.775 1.438 9.63 1.294 12.218 1.438 9.774 1.006 13.655 1.294z"/><path d="M558.528 91.81v.431l1.294 5.32-.575 2.013.287 1.869-.144 4.313 1.581 6.039 1.007 2.3.431 3.307v3.882l.287 4.313.432 2.157-.144 3.882.431.718.575 2.876 1.15 1.869.575 3.594v2.732h-10.924l-10.924-.287-10.924-.432-10.925-.431-10.78-.575-16.386-1.007-16.674-1.437 4.456-51.328 13.08 1.006 16.818 1.151 17.392.862 12.218.432 16.386.431zM350.682 67.368l-3.737 16.39 1.581 3.02.144 1.15.862 1.581.144 1.726-.862.575.862 1.438-1.006.718 1.294 1.007.575 1.438 1.724 1.15.432 1.438 3.018 5.463-.144 1.294 2.875 2.588.288 1.438 2.443-.144.288.863-.575 1.725-2.156 4.026v1.294l-1.006 2.156.574 1.294v1.582l-2.299 1.437.431 1.438-1.006 2.013 1.006.431 1.15 1.582 2.731-.863 2.156-1.725 1.581 2.157v4.744l1.725 3.451.575 2.3-.719 1.007 1.294 2.588 1.725.143 1.15 2.876v3.163l.718.863 1.15.143 2.012-1.006 3.594 1.294.719-1.007 1.006-.287 1.725.719 2.587.144.719.718 1.581-.431 2.012.719 1.15-2.876 1.725.144.719 2.444 1.581 2.013-6.9 41.264-15.955-2.732-11.499-2.157-9.055-1.869-13.655-2.731-6.756-1.582-15.811-3.594 6.899-29.043 1.869-3.738-.144-1.006 1.15-1.438-.719-1.726-2.3-1.006.575-3.019 1.438-1.294 1.868-2.588 1.294-.575 1.437-1.726.575-1.869 1.581-1.581 1.581-3.019 3.019-3.307.287-1.007-.431-2.013-2.3-2.012-.575-1.438-.143-1.582-.575-1.869 1.006-1.15-.862-3.307 6.468-27.892 1.293-5.032 2.444-10.352 10.78 2.444z"/><path d="m278.526 48.246 15.092 4.601 11.787 3.307 11.786 3.019 9.487 2.444 13.224 3.307-2.444 10.352-1.293 5.032-6.468 27.892.862 3.307-1.006 1.15.575 1.869-7.331-1.725-16.817-4.169-1.15.575-2.875-.719-2.875-.288-1.006.575-3.306-.287-2.443.144-1.294.575-2.875-.288-1.581-.863-3.593.576-1.582-.576-1.149.144-1.15-1.869-3.306-1.294-2.588-.575-2.299.719-3.738.287-2.874-1.869-1.438-.575-.575-.719.863-5.319-.575-2.444-1.869-2.013-.862-.144h-1.438l-1.293-2.588-1.438-.144-.862-1.006h-2.875l-1.006-2.157 2.3-.862 1.293-4.601-1.868-.863.287-1.15 1.006-1.007 2.013-.287-1.15-1.15v-.719l-1.438-.719.432-3.163-.432-2.444.575-3.163.288-3.451-.288-1.294-1.149-2.157.431-3.306-.144-1.151 1.581-2.156 1.15-.575 1.581 1.869 1.581 1.15 1.438 1.869 3.737 1.438 1.15.862 3.449 1.438h1.725l.863 1.294 2.443-.144-.143.863.431 2.876-.144 1.006-1.15 1.006-1.15-.143-2.156 2.588 2.444-.432.575-1.15 2.443-2.157.575.144v2.588l-2.012.575-.144 1.726.575 1.437-1.725 2.732-1.293.288-1.725 1.15v-2.013l-1.006.431-.863 1.438.431 1.006 1.15-.143.575 1.437 2.3-1.437.719-1.007.862.432 1.869-1.294-.144-1.294.431-3.307.719-2.301 1.725-2.3 1.581-.863-1.15-2.156.575-3.163-1.15-1.582 1.15-2.3.862-.719v-3.307l-1.437-.288-.575-2.444.719-1.725zM398.547 280.874l-13.655 94.173-13.08-1.869-14.805-2.444-.719-.288-16.674-9.633-10.78-6.326-10.637-6.47-11.067-6.757.575-1.582 1.581-1.725.575-.431 2.012.575.431-1.007 1.15-1.006.144-1.869-.719-1.007-1.15-.287-.862-1.007.719-1.869-.288-1.725.431-1.869 1.294-.144 1.725-1.725 1.006-3.02.431-3.163 1.869-1.437.718-1.151 2.013-.862 1.868-1.007.288-.862-2.875-2.876.288-1.006-1.007-4.026-.575-.431-.718-2.013.287-2.157.431-2.156 1.007-.719.287-2.732-.431-2.875.719-1.726-.288-1.581.719-2.588-.575-2.013.575-1.725 2.443-.575 1.581.862h1.15l1.15 2.157h1.438l1.724-2.588 2.588-12.94 8.193 1.725 12.218 2.301 16.53 2.875 18.398 3.02 10.349 1.581z"/><path d="m318.341 300.571-.287 2.157.718 2.013.575.431 1.007 4.026-.288 1.006 2.875 2.876-.288.862-1.868 1.007-2.013.862-.718 1.151-1.869 1.437-.431 3.163-1.006 3.02-1.725 1.725-1.294.144-.431 1.869.288 1.725-.719 1.869.862 1.007 1.15.287.719 1.007-.144 1.869-1.15 1.006-.431 1.007-2.012-.575-.575.431-15.093-1.869-18.83-2.444v-2.445l-1.149-.862.143-2.301.575-.719v-3.881l-1.725-4.314-2.874-4.025-2.3-2.445-1.15-1.869-2.012-1.15-.863.863-1.437-1.007.718-1.437-.287-2.013-1.006-1.726-3.306-.575-1.869-.862-3.45-2.732-.143-1.869-2.013-2.588-2.012-1.438h-1.581l-1.869-.719-1.581-1.294-1.581-.575-4.6-1.006-.143-1.15-1.581-1.582 1.15-1.725-.288-1.007.719-1.581-.431-1.007 1.293-2.588v-1.006l-1.725-1.294-1.006-1.438 1.006-2.444-1.581-1.438-1.293-3.45-1.15-.719-.288-2.3-1.293-2.013.143-1.726-.862-.862-.288-1.726-1.006-1.725-1.006-1.294-.575-1.15.144-3.163.862-2.301.719.719 1.15-1.006.862-1.869-.431-2.157-.719-1.15h-1.725l-1.006-.719-2.156-4.457.863-2.732-.144-2.3-.575-.863 1.006-2.013.288-2.012h1.293l-.287 3.738 2.587 1.006.288-1.438-.719-1.725-.863-4.026 2.588-.862.862.862 2.444-.143-.719-1.294-1.15 1.006-1.868-.863-1.294-1.725-1.294.431-1.15 2.876.719.863-1.437.719-1.438-2.013-.718-.144-.719-1.869-1.006-1.007.431-3.882-1.006-3.45-1.294-1.438-1.437-3.594-1.869-3.451-.431-2.013.862-1.006-.143-5.607.718-1.438 1.006-1.438.432-2.444v-2.444l-1.869-5.464-2.156-3.45.431-.863v-2.157l2.875-3.594.719.288 2.874-4.601v-2.157l.719-.575 2.012-3.882.288-2.732.144-2.444-1.15-1.006 1.006-1.007.719-2.3 9.63 3.019 9.343 2.876 15.668 4.601 15.667 4.313-13.08 48.452 6.756 10.352 4.599 6.757 6.9 10.208 7.33 11.359 7.331 11.214 5.031 7.62 10.205 15.528 6.037 8.626zM494.852 240.617l-3.306 50.034-12.793-.863-15.092-1.294-12.506-1.294-15.092-1.581-17.536-2.013-12.505-1.725-7.475-1.007 9.631-66.28 15.667 2.156 9.774 1.294 15.812 1.726 11.786 1.294 9.487.862 9.343.719 15.811 1.294-1.006 16.678z"/><path d="m332.859 269.372-2.588 12.94-1.724 2.588h-1.438l-1.15-2.157h-1.15l-1.581-.862-2.443.575-.575 1.725.575 2.013-.719 2.588.288 1.581-.719 1.726.431 2.875-.287 2.732-1.007.719-.431 2.156-6.037-8.626-10.205-15.528-5.031-7.62-7.331-11.214-7.33-11.359-6.9-10.208-4.599-6.757-6.756-10.352 13.08-48.452 15.668 4.169 9.055 2.301 11.212 2.588 15.811 3.594 6.756 1.582 13.655 2.731-16.53 81.952zM478.178 298.127l-.575.144-6.18 75.051-12.649-1.151-12.649-1.15-15.668-1.581-10.062-1.151.575 3.02 1.15 1.15-24.292-3.307-1.006 7.62-10.78-1.581-1.15-.144 13.655-94.173 7.475 1.007 12.505 1.725 17.536 2.013 15.092 1.581 12.506 1.294 15.092 1.294-.575 8.339z"/><path d="m259.84 92.385.862.144 1.869 2.013.575 2.444-.863 5.319.575.719 1.438.575 2.874 1.869 3.738-.287 2.299-.719 2.588.575 3.306 1.294 1.15 1.869 1.149-.144 1.582.576 3.593-.576 1.581.863 2.875.288 1.294-.575 2.443-.144 3.306.287 1.006-.575 2.875.288 2.875.719 1.15-.575 16.817 4.169 7.331 1.725.143 1.582.575 1.438 2.3 2.012.431 2.013-.287 1.007-3.019 3.307-1.581 3.019-1.581 1.581-.575 1.869-1.437 1.726-1.294.575-1.868 2.588-1.438 1.294-.575 3.019 2.3 1.006.719 1.726-1.15 1.438.144 1.006-1.869 3.738-6.899 29.043-11.212-2.588-9.055-2.301-15.668-4.169-15.667-4.313-15.668-4.601-9.343-2.876-9.63-3.019-1.15-2.444.287-3.738 1.725-3.595.288-1.581-.719-1.726v-1.725l2.156-2.588 2.443-4.601 1.582-1.006 3.737-6.901 4.743-11.215 1.15-3.45.575-.719 2.156-4.313 1.437-4.745 1.725-3.163-.143-1.725.718-1.726v-1.294l.863-.431.431-1.581v-2.157l1.294 1.15 2.874.431 1.294-.431 1.006 1.869 1.725.719.719-.575zM385.898 194.178l-2.731 16.534 17.105 2.732 7.906 1.15-9.631 66.28-10.349-1.581-18.398-3.02-16.53-2.875-12.218-2.301-8.193-1.725 16.53-81.952 9.055 1.869 11.499 2.157 15.955 2.732z"/><path d="m473.722 188.57-3.018 33.356-9.487-.862-11.786-1.294-15.812-1.726-9.774-1.294-15.667-2.156-7.906-1.15-17.105-2.732 2.731-16.534 6.9-41.264 1.437-8.339 9.487 1.582 11.499 1.725 16.673 2.301 7.619 1.006 16.673 1.869 11.643 1.294 8.768.719-2.875 33.499zM657.132 307.185l.863 1.294-1.294.144.575 1.294-2.731 1.869.431 1.294v1.725l-1.293.719v1.006l-1.006 1.151v1.869l.431 1.437-1.15 1.151-.575 1.294-1.006.862.431 1.294-1.006 1.15-1.438.575.144 1.151-1.294.431-.574 1.725.431 1.15-.144 2.445-3.019 2.588-.574 1.294-1.15.862 1.006 1.007-.288 1.006-2.299.863.718 1.006-.144 2.013-1.868 1.869.575 1.15-.719 1.726 1.294.862v1.726l-.719 1.006 1.15.863.144 2.012-.719.576v1.725l-10.349.431-17.536.719-12.649.431-.288-9.201-.718-.432-2.731-.143-1.294.575-1.294-1.438v-29.186l-2.731-18.547 7.475-.144 14.661-.431 14.805-.575 11.068-.576 11.93-.718 1.438 2.156v1.294l-1.869 1.869-1.581 2.157-.288 1.294 8.768-.719zM638.303 199.21l-.144.287 2.444 1.726.862 2.156 3.018 2.013.575 1.438-.575 3.594-1.293 1.294-.288 2.301-1.15 1.15-2.012.719-1.15 1.006-3.593.575-.719.863-.431 2.157.144 1.006 1.149.719.719 1.15-.144 2.157-1.437 2.156-.287 2.013-.719.863-2.444 1.15.144 3.307-.719.287-3.162-2.731-.719-1.007-2.731.288-14.517 1.006-5.893.144-5.894.288-5.749.143-16.386-.287-.144-1.007-1.15-1.15.431-1.15-.144-3.163-.431-.431v-2.588l-.575-.719.575-1.869-1.006-.288.288-2.157-1.869-1.437-.288-1.582.575-2.444-.862-1.294-.288-2.013-1.293-1.15-.144-1.006-1.006-1.438.144-1.582-.719-1.15v-2.157l-1.006-.431-.575-2.156-1.294-1.726.863-1.581.718-2.013v-1.294l.575-1.294-.287-1.582-1.006-.143.431-2.732-.719-1.869h9.631l11.786-.144 11.93-.144 11.787-.431 11.93-.431 7.906-.432.719 2.301 1.149.287.288 1.007-.862 2.156.718 4.026 1.15 2.875 1.006.576 3.306.575 1.006 1.869-.143.575zM590.725 293.239l-15.523.144-9.2-.144-15.523-.144-15.38-.288-9.2-.431-12.361-.431-12.362-.719-9.63-.575 3.306-50.034 18.973 1.007 13.512.718 13.367.432 8.05.143 18.829.144h13.368l1.581 1.582 1.581.719.863-.719 1.581 1.438-2.012 2.731-.719 2.157 2.443 2.732 1.15 2.444 2.731 1.581.575 35.513z"/><path d="m630.253 235.297-.718 1.151-.144 2.3.431 2.732.719 1.006v1.438l1.293 2.588 3.45 2.732.719 1.294 3.162 2.012 1.294 2.013.575 3.307 1.581 1.869 1.868-1.581 3.306 1.294.863.718-.863 1.582.144 1.725-.862 1.726-1.294 4.025.575 1.582 3.306 3.019 2.587.863 2.731 1.725 1.15 1.725 1.294.432.431 2.3 1.15 2.013v1.294l-.719 1.581 2.875 4.026 1.15-.575 1.725 1.006-.288 2.157.288 1.869-.719 2.301-.575.575-1.437-1.007-.719 2.444H658.714l.574 2.013-1.293 1.007.719 1.15-1.438.287 1.15 1.582-.719.719-.575 1.869-8.768.719.288-1.294 1.581-2.157 1.869-1.869v-1.294l-1.438-2.156-11.93.718-11.068.576-14.805.575-14.661.431-7.475.144v-8.339l-.575-35.513-2.731-1.581-1.15-2.444-2.443-2.732.719-2.157 2.012-2.731-1.581-1.438-.863.719-1.581-.719-1.581-1.582-1.294-.719.144-1.15-2.875-3.882-.862-2.875-.862-1.294 16.386.287 5.749-.143 5.894-.288 5.893-.144 14.517-1.006 2.731-.288.719 1.007 3.162 2.731z"/><path d="m566.29 200.935 1.006.431v2.157l.719 1.15-.144 1.582 1.006 1.438.144 1.006 1.293 1.15.288 2.013.862 1.294-.575 2.444.288 1.582 1.869 1.437-.288 2.157 1.006.288-.575 1.869.575.719v2.588l.431.431.144 3.163-.431 1.15 1.15 1.15.144 1.007.862 1.294.862 2.875 2.875 3.882-.144 1.15 1.294.719h-13.368l-18.829-.144-8.05-.143-13.367-.432-13.512-.718-18.973-1.007 1.006-16.678-15.811-1.294-9.343-.719 3.018-33.356 12.793 1.007 18.686 1.294 12.505.719 10.349.431 13.656.431 3.018 2.301 2.875 1.581.719-.143 1.293-1.294 2.156.287 4.456-.431 2.156 1.581 3.306.863.719.863 1.006.287.288 1.007 1.006 1.294 1.581.287zM590.725 301.578l2.731 18.547v29.186h-.718l-3.163-1.294-1.581-.431-1.581-1.726-3.306-1.725-.719 1.007-1.293.575-2.444-.288-.862-1.006-2.444 1.437-1.15.144-1.149-.719-1.438.863-1.581.431-.719 1.007h-1.15l-.575 1.006-1.149-1.438h-1.15l-2.156-2.156-.575 1.006-2.3-.431-.719-1.294-2.3 2.444-.287 1.15-1.438-.862.288-1.294-.431-.719-2.3 1.294-1.294-1.007-1.437-.143-.431-1.438h-1.007l-1.724 1.581-1.15.288-1.15-.431.287-1.438-2.012-.863v-1.869l-3.45-.144-1.006 1.007h-1.15l-1.006-1.294-2.012.144-2.3-.576-1.006-.718h-1.007l-2.299-.432.143-1.581-1.006-1.438-1.725-.863-.143 1.151-2.013-.576-1.868.288-2.731-3.019-1.581-.144 1.437-32.206-10.062-.575-14.23-.862-15.955-1.007.575-8.339 12.793.863 9.63.575 12.362.719 12.361.431 9.2.431 15.38.288 15.523.144 9.2.144 15.523-.144v8.339z"/><path d="m565.715 143.425-1.006 3.019-2.444 2.013-.287.719 2.156 3.307 1.437.287 1.294 1.582-.144 30.193h-1.725l.719 1.869-.431 2.732 1.006.143.287 1.582-.575 1.294v1.294l-.718 2.013-.863 1.581 1.294 1.726.575 2.156-1.581-.287-1.006-1.294-.288-1.007-1.006-.287-.719-.863-3.306-.863-2.156-1.581-4.456.431-2.156-.287-1.293 1.294-.719.143-2.875-1.581-3.018-2.301-13.656-.431-10.349-.431-12.505-.719-18.686-1.294-12.793-1.007 2.875-33.499h.288l1.293-15.815 16.674 1.437 16.386 1.007 10.78.575 10.925.431 10.924.432 10.924.287h10.924zM634.134 418.18l-.575.143-2.73-1.294 1.293-1.438 3.018 1.007-1.006 1.581h0Zm32.629-13.803-2.731.431-.863-1.006-3.018-.144-1.437-1.581-2.3-.288-2.588 3.02-.287 1.293 1.437 1.15 2.588.576 1.868-.432 1.581-1.006.575-1.007 1.438.863-.575 1.725 2.3 1.726h1.006l.575-1.87 2.012-1.293v2.156l1.581.72-1.15 1.58-.575-.575-2.443 3.739-1.15.431.862 1.294 1.869.719.575 1.294 1.15-.288 1.437.863 2.012-.288 2.875 3.307-2.3 2.157-1.724-.144-1.15-.575-1.725-2.588-4.169-1.438-.43-.719-1.87-1.294-1.006.144-1.58-1.006.718 2.875-.719 1.438.288 1.725-2.013 1.726-.718-1.294.143-1.438-2.156-.719-2.443.144-2.013 3.163-1.868-.863-1.438.144-4.455-.863-1.582-.862 1.582-2.013-1.007-2.013-.575.575-3.162-.431-.575-1.87h-1.15l.144-1.437-.862-.288h-2.875l.431-1.294-2.012.144-.144.575-2.012.72-.144.862.719 1.437-2.444 1.582-4.025-.431-2.012-.575-5.174-2.013-2.588-.575-3.737.143-4.168.72-1.294.718-.862-1.869 1.58-.863.288-1.725-.575-.431 1.15-1.582-.144-3.594-.575-1.725.72-1.007-.432-1.869.575-.719 1.581-3.738.431-2.013-.575-1.15.863-.575-2.444-4.745.288-.719-2.588-3.594.144-2.157-1.294-2.875-2.012-1.87-.431-16.965 12.649-.43 17.536-.72 10.349-.431 1.437 1.438-.862 1.15-.144 3.882.863 1.15.143 1.725 2.731 1.726-2.012 4.457-.287 1.15-.863.575-1.293 1.869-1.15.431-.863 2.013-.287 2.876-1.294 1.294.575 1.437-.575 2.157-1.294.144.432 1.294-.288 1.006.863 1.438-1.15 1.006 13.655-.719 14.086-.862v.862l-1.293 4.601.862 1.87 1.869 1.725.862 2.588.719 1.437 1.006.288h0Z"/><path d="m554.503 450.673-2.3 5.032-.718.143 2.156-5.032.862-.143Zm2.156-3.595 1.869-3.882.862.432-2.73 3.45h0Zm9.487-8.051-4.456 2.731-.144-.43 3.019-2.158 1.581-.143Zm27.31-89.716 1.294 1.438 1.294-.575 2.73.143.72.432.287 9.201.431 16.966 2.012 1.869 1.294 2.875-.144 2.157 2.588 3.594-.288.72 2.444 4.744-.863.575.575 1.15-.431 2.013-1.581 3.738-.575.72.431 1.868-.719 1.007.575 1.725.144 3.594-1.15 1.582h-.862l-1.006 2.013-.144 1.581 1.006 1.725-2.731-.143-8.768 4.17.719-1.726-2.156.431.862-2.875-.862-1.438-1.15.288-.719 1.725-2.012-1.007-.144 3.02 2.012 2.875-2.587 2.876-1.294 1.006v1.725l-3.306 2.876-3.306 2.013-1.293.431h-1.869l-5.75 2.588-.862-1.725-1.294.862-3.162-.287-.287 1.15.862.575 1.725 2.013-3.737 1.869-1.869-2.013-1.006.432 1.006 1.437v1.438l-1.58 1.582-4.17.287.863 1.007 1.15.575-2.443 3.45-1.15-.862-3.881.143.43.575 1.582.144.431 1.582 1.438 1.006-2.588 6.039-1.58-.432-1.582.863v.863l1.725.287 1.15-.719-.144 2.445-.719.43.288 1.439-1.15.143-.144 3.163 1.006.863 1.007 4.17-.432 1.869 1.438 1.294-.144 1.15.719 1.438v1.294l1.006.862.144 1.582 1.437.287h-1.725l-2.73 1.87-3.882-3.164-1.868-.575-2.156.144-4.313-.431-1.15-.72-1.006-1.437-3.162-1.15-1.006.287-1.438-1.15-.862-1.15h-1.437l-1.15-.575-1.869-.144-.287-2.157-.863-.718.719-2.157-1.294-1.006-.575-2.445-1.437-.862-.288-1.294-1.293-.72.575-2.587-.863-2.3.432-1.438-.432-2.444-1.437-1.294-1.581-.575-1.438-1.726-.718-.575-.288-1.725-1.725-2.013-1.006-2.444-1.725-1.007-1.293-1.437-1.438-5.176-1.293-2.013-.288-1.725-1.437-2.013-.575-3.307-1.294-1.007-.718-1.725-2.875-2.156-.288-1.294-1.437-1.007-1.294-2.156-1.006.143-.719-.862-.574-1.582-2.157-.575-1.15.288-4.887-1.15-2.156.143-2.587-1.581-1.15.575-.575 1.15-1.58-.288-2.588.575-1.581 2.445-1.725 4.17-.431 2.012-1.438.575-1.868 1.87-.72 1.293-2.299-1.006h-1.006l-1.437-1.15-.863-1.15-1.868-.576-1.438-1.15-.144-.719-2.012-.431-1.869-1.007-2.73-3.45-1.15-.288-2.588-2.444-.287-2.013-1.438-2.732-.143-1.581.575-2.732-.863-1.294-1.293-3.02-.288-2.012-1.581-2.3-1.006-.575-1.869-2.013-1.868-.863-2.588-2.732-.287-1.294-2.444-2.012-1.15-2.013-1.725-2.013-2.3-1.15-1.437-2.445-.718-2.444-2.013-1.006-1.15-1.15-.575-3.02 10.062 1.15 15.668 1.582 12.649 1.15 12.649 1.15 6.18-75.05.575-.144 15.955 1.007 14.23.862 10.062.575-1.437 32.206 1.58.144 2.732 3.019 1.868-.288 2.013.576.143-1.15 1.725.862 1.006 1.438-.143 1.581 2.3.432h1.006l1.006.718 2.3.576 2.012-.144 1.006 1.294h1.15l1.006-1.007 3.45.144v1.87l2.012.862-.287 1.438 1.15.43 1.15-.287 1.724-1.581h1.007l.43 1.438 1.438.143 1.294 1.007 2.3-1.294.43.719-.287 1.294 1.438.862.287-1.15 2.3-2.444.719 1.294 2.3.431.575-1.006 2.156 2.156h1.15l1.15 1.438.574-1.006h1.15l.719-1.007 1.581-.431 1.438-.863 1.15.72 1.15-.145 2.443-1.437.862 1.006 2.444.288 1.293-.575.72-1.007 3.305 1.725 1.581 1.726 1.581.431 3.163 1.294h.718ZM869.578 169.592l2.156 8.052.287 3.45-.718-.431-2.444 1.294-1.006.144-1.006.862-1.869.432-.719.718-1.293-.143-2.013.862-4.312 2.876-4.312 3.594-.862.575-1.438-1.437 2.444-2.588-1.006-1.151-2.3-12.508 8.768-1.869 10.205-2.444zM877.196 148.889l.575 1.006-.431 2.444-1.294.288-3.737 4.313-13.799 3.163-1.725-2.013.431-2.156-.719-4.457.288-.719-1.006-3.882.431-1.869-.144-1.438.863-1.294-.144-1.725.431-4.601-.431-2.301.431-1.15 1.438-.719 1.581-1.869.718-2.875-1.581-2.013.719-3.019-.431-1.869.287-4.026.863-1.15 1.868.143.431-1.006 9.487 27.749.575 2.875 2.444 1.869.287 1.294 1.294 1.007z"/><path d="m879.927 175.343-.863.575-.718-2.875h.718l.863 2.3Zm-2.3-2.732-1.581-.143-.288 3.019.72 1.725-.432 1.87-1.294.287-2.73 1.725-.288-3.45-2.156-8.052 4.887-1.438 1.58 3.451 1.582 1.006h0ZM858.51 160.103l-9.631 2.3-3.162-13.227-.862-1.006h-1.581l.287-1.726-1.581-4.169-.575-.575.144-2.876.431-.431-.575-2.157v-1.869l-1.294-1.437-.431-1.294-.144-2.445-.575-.575-.431-2.731 12.074-3.163 9.056-2.588.431 1.869-.719 3.019 1.581 2.013-.718 2.875-1.581 1.869-1.438.719-.431 1.15.431 2.301-.431 4.601.144 1.725-.863 1.294.144 1.438-.431 1.869 1.006 3.882-.288.719.719 4.457-.431 2.156 1.725 2.013zM714.628 318.975l1.006 3.738 2.3 7.907 6.18 21.71.719 2.013.575.575 1.006 2.588 1.294 1.438.719 1.438.143 1.869 1.15 1.006-1.868 2.301.143 2.156-.862 3.163.862 2.157 1.15 2.588-.431 4.457.431 1.438 1.294 1.581.431 1.438-13.799 1.581-9.055.863-14.374 1.438-.288 2.157 2.157 2.444 1.437 1.15-.431 1.725.431 1.15.287.575-.862 1.438-1.437.863-.144.719-2.731.862v-1.294l-2.3-1.581-.431-1.007.431-1.15-.719-1.869-1.581.288-.575 3.45.144 2.013-3.593-.862-.575.287-3.306-25.161.575-25.016.718-25.736-1.437-1.582-.144-.287 9.199-.719 10.781-.719 15.38-1.581z"/><path d="m800.583 415.879-.287 2.3-.719 1.007-.575-2.588 1.581-.72h0Zm-18.83-33.643 1.15.287.144 2.876 1.294 2.012.144 1.438 3.306 8.195 1.724 3.163 5.175 8.052 5.893 6.901-2.3.431-.143-2.012-1.581-.863 2.156 5.463 1.437 2.445 6.468 9.776 1.006 2.444 3.594 5.751.431.144 1.581 2.588 1.006 2.588.863 3.738-.288.575.432 4.601.43 6.901-.574.575v1.87l-.719.43-.575 2.157-.144 2.157.72 2.013-1.007 1.438-.288 1.437h-2.443l-1.725 2.013-2.3-.287-.718.719-2.588.862-1.725-1.581.144-1.726 1.294.72 2.156.718.144-.862-1.007-.863-1.868-.288-.863-.575-3.737-6.038-1.293-1.007-2.731-.719-1.869.144.144-1.006-2.444-1.582-.862-3.307-.863-2.588-1.006.144-2.012-1.006-1.006-2.444-.144-3.307-1.438-1.007-.43 2.445-1.87-.432-1.293-1.438-3.593-5.32-.432-1.868-1.293-.72-.288-1.293 1.15-.575.144-1.87 1.868-2.731-.718-2.013-.863.575-1.868-1.294-1.294-.287-.431 1.437 1.869.576.287.862-.287 2.3h-.72l-2.012-1.581-.718-.144.431-4.888-.431-1.438 1.15-4.457-.288-5.176-.575-2.588-1.868-1.581-.575-1.726-1.15-.862-2.587.431-1.15-1.581-1.15-.288-1.15-1.725-3.019-1.582-.287-2.3-1.869-.575-1.293-1.726-1.438-1.437-1.725-.863-1.006-.144-2.73-1.438-3.45.72-1.582 1.437.863 1.87h-2.444l-1.868 1.437-1.15 1.15-2.013 1.294-3.45.575-2.587.863-.143-1.725-1.007-1.438-5.03-3.45-.863-2.014-2.156.72-3.018-1.151-4.456-.863 2.874-1.581-2.012-.431-1.725.718-1.15-.143-2.73 1.294-5.175 1.006 1.437-1.15-1.294-1.007-1.868 1.007-2.3 2.732-1.294-.288.575-2.013-.862-.144-.431-1.15.43-1.725-1.436-1.15-2.157-2.444.288-2.157 14.374-1.438 9.055-.863 13.8-1.581 1.005 1.581.719 2.157.862.575 18.83-1.15 19.261-1.438.719 2.444.862.72 1.725-.432-.144-3.594-.575-1.007-.143-1.438.862-1.294.863-.287 3.018.863h3.019Z"/><path d="m783.335 370.302-.575-.287.575-2.013h.862l-.862 2.3Zm3.45-11.502.862.288-1.581 2.731-1.438-.287.432 1.725-1.725 1.438-1.007 2.732-.43 2.731.718 1.582 1.006.575-1.294 2.444-.287 2.013-.862 1.15-.144 1.87.719 2.444h-3.019l-3.018-.863-.863.287-.862 1.294.143 1.438.575 1.007.144 3.594-1.725.431-.862-.719-.719-2.444-19.26 1.438-18.83 1.15-.863-.575-.719-2.157-1.006-1.581-.431-1.438-1.294-1.581-.43-1.438.43-4.457-1.15-2.588-.862-2.157.862-3.163-.143-2.156 1.868-2.3-1.15-1.007-.143-1.87-.72-1.437-1.293-1.438-1.006-2.588-.575-.575-.719-2.013-6.18-21.71-2.3-7.907-1.006-3.738 3.162-.432 14.23-1.869 16.386-2.444-.431 1.15-1.725 2.3-.431 1.87.575.575 3.018 1.294 1.582 1.294h2.3l1.724 2.588.575 1.725 2.156 2.013.575 1.294 3.162 1.581 1.869 1.294 1.006 1.87 2.3.862 1.869 1.438.143 1.725 1.438.575.575 1.438 1.006 1.006 3.593 1.438.575 1.725 1.15 1.15.719 1.726.287 2.013 3.163 1.869 1.58 2.875-.143 1.87 1.437 1.58.863-.287 1.868.72h0ZM679.412 322.281l1.437 1.582-.718 25.736-.575 25.016 3.306 25.161-1.007 1.15-1.293-.287-2.588.144-1.581-1.007-1.293-.287-1.15 1.15-4.456 1.725-1.294.719-.287 1.294h-1.15l-1.006-.288-.719-1.437-.862-2.588-1.869-1.726-.862-1.869 1.293-4.601v-.862l-14.086.862-13.655.719 1.15-1.006-.863-1.438.288-1.006-.432-1.294 1.294-.144.575-2.157-.575-1.437 1.294-1.294.287-2.876.863-2.013 1.15-.431 1.293-1.869.863-.575.287-1.15 2.012-4.457-2.731-1.726-.143-1.725-.863-1.15.144-3.882.862-1.15-1.437-1.438v-1.725l.719-.576-.144-2.012-1.15-.863.719-1.006v-1.726l-1.294-.862.719-1.726-.575-1.15 1.868-1.869.144-2.013-.718-1.006 2.299-.863.288-1.006-1.006-1.007 1.15-.862.574-1.294 3.019-2.588.144-2.445-.431-1.15.574-1.725 1.294-.431-.144-1.151 1.438-.575 1.006-1.15-.431-1.294 14.23-.862 14.805-1.151z"/><path d="m813.52 322.281-2.3 2.301-2.012 2.731-2.013 4.17-.287 3.882-2.013 3.45-1.293.576-1.438-.144v1.725l-1.437 2.301-1.437.862-.288 1.294-1.437 1.582-1.869.862-2.3 2.013-1.006.288-1.868-.719-.432 1.006 1.438.575.718 1.151-1.293 1.725-1.15.431-2.012-1.294-.432.719 2.013 1.438-.719 1.15-1.869 1.869v.575l-1.868-.719-.863.288-1.437-1.582.144-1.869-1.581-2.875-3.163-1.869-.287-2.013-.719-1.725-1.15-1.151-.575-1.725-3.593-1.438-1.006-1.006-.575-1.438-1.438-.575-.143-1.725-1.869-1.438-2.3-.863-1.006-1.869-1.869-1.294-3.162-1.581-.575-1.294-2.156-2.013-.575-1.725-1.725-2.588h-2.299l-1.582-1.294-3.018-1.294-.575-.575.431-1.869 1.725-2.301.431-1.15 4.025-1.869.862-.144 2.3-1.725 3.594-1.294 16.53-1.725.862 1.437 1.294-1.006 2.156 2.156.575 2.157 14.661-2.157h.719l6.755 4.889 10.781 7.332zM673.231 196.909l.144 3.595 1.006 2.444.862.575.719 2.301 1.15 2.587.862.863 3.45 39.394-1.006 1.151.431 1.581-.718.863 1.149 2.444.719.575-.144 1.582.863 1.725-.431 1.438-.863.575-.144 2.3-1.437 1.15.144.576-1.006 1.869-1.294.431-.431 1.581.862.719-1.293 1.869.287 4.17-.144.863-1.15 2.012 1.294 1.869-.575.863-4.456 1.438-.287 2.444 1.15 1.582-.575 1.581-2.013-.575-3.737-1.438-1.868.432-1.582 2.588.863 1.293-1.725-1.006-1.15.575-2.875-4.026.719-1.581v-1.294l-1.15-2.013-.431-2.3-1.294-.432-1.15-1.725-2.731-1.725-2.587-.863-3.306-3.019-.575-1.582 1.294-4.025.862-1.726-.144-1.725.863-1.582-.863-.718-3.306-1.294-1.868 1.581-1.581-1.869-.575-3.307-1.294-2.013-3.162-2.012-.719-1.294-3.45-2.732-1.293-2.588v-1.438l-.719-1.006-.431-2.732.144-2.3.718-1.151.719-.287-.144-3.307 2.444-1.15.719-.863.287-2.013 1.437-2.156.144-2.157-.719-1.15-1.149-.719-.144-1.006.431-2.157.719-.863 3.593-.575 1.15-1.006 2.012-.719 1.15-1.15.288-2.301 1.293-1.294.575-3.594-.575-1.438-3.018-2.013-.862-2.156-2.444-1.726.144-.287 10.924-.719 13.08-.719 10.924-.863z"/><path d="m711.609 206.111 1.006 6.757 4.169 36.519-.575.575.719 1.151-.432 1.294 1.15.287-.143 1.725-2.3.576-2.3 1.581-1.006-.719-2.3.432.719 2.731-1.438 1.869-1.006.719-.431 2.157-1.869.575-.862 1.438v2.444l-1.438 1.294-2.012-.288-1.294-.719-.287-1.15-1.725.719-1.15 1.725v1.438l-2.731.719-1.15-1.438-2.731 2.013-.431 1.582-4.743-2.013-1.581.719-.575 1.006-1.007-.575-1.581.431-1.293-.719v1.726l-.575.719-1.294-.144-.287-4.17 1.293-1.869-.862-.719.431-1.581 1.294-.431 1.006-1.869-.144-.576 1.437-1.15.144-2.3.863-.575.431-1.438-.863-1.725.144-1.582-.719-.575-1.149-2.444.718-.863-.431-1.581 1.006-1.151-3.45-39.394 1.294 1.15 1.725.288 3.162-1.294 2.156-1.438 7.043-.719 18.255-2.156v1.006z"/><path d="m747.113 256.576.718 2.876-.575 1.725 5.606 6.901 1.581.863 1.006.862 2.013.144-4.312 5.032-3.45 2.445-.863 1.006-.143 1.294-1.438 1.438-.287 1.294-2.444 1.294-.575 1.581-1.293.431-2.156 1.294-1.294.288-1.869 1.438-.862.287-18.542 1.726-4.169.718-8.48.576-5.319.143-1.149.288-17.105 1.869-.575-.431-2.731-.144.718 3.163-18.542 1.581.719-2.444 1.437 1.007.575-.575.719-2.301-.288-1.869.288-2.157-.863-1.293 1.582-2.588 1.868-.432 3.737 1.438 2.013.575.575-1.581-1.15-1.582.287-2.444 4.456-1.438.575-.863-1.294-1.869 1.15-2.012.144-.863 1.294.144.575-.719v-1.726l1.293.719 1.581-.431 1.007.575.575-1.006 1.581-.719 4.743 2.013.431-1.582 2.731-2.013 1.15 1.438 2.731-.719v-1.438l1.15-1.725 1.725-.719.287 1.15 1.294.719 2.012.288 1.438-1.294v-2.444l.862-1.438 1.869-.575.431-2.157 1.006-.719 1.438-1.869-.719-2.731 2.3-.432 1.006.719 2.3-1.581 2.3-.576.143-1.725-1.15-.287.432-1.294-.719-1.151.575-.575 1.293-1.006 1.15 1.006 2.444-.719 1.725 1.007 2.156 3.451 1.437.287 1.438-.431 1.437.287 2.156 1.869.863-.143 1.437-1.438 2.156.575 1.006.863 2.156-.719 1.15-1.726 1.725-.718 1.15 2.444 1.868.575 1.582 1.725zM838.674 271.385l.575-.144h.287l.432-.144-.575 1.007-.72-.719Zm-.288.144.575 1.294 1.438.719 1.725 3.738h-2.3l-2.013 2.013-2.73.862-1.294 1.582-2.3-.288-.144 1.87 2.3-.288 1.006-.863 1.294.288 2.3-1.438 2.012-.288-.144 2.157.719 1.438 1.006.431-.431-2.588 1.437-1.869 2.3 2.013.431 2.156-.143 1.438-1.725 1.007-2.588 4.6-1.58.288-2.444-.431-2.013.575-1.15 1.006 2.732.144.43 1.294-2.155 1.294 1.58.719-2.299 2.732.288 1.294 1.437-1.582 1.15-.431h2.443l.719 1.006-1.725 2.588h-1.006l-.862 1.15-3.306.432-3.881 2.3-.432 1.15-3.45 2.876-1.437 1.869-1.725 3.163-.287 1.581.144 2.732-1.438 1.438-3.162.144-4.168 1.437-10.78-7.332-6.756-4.889h-.72l-14.66 2.157-.575-2.157-2.156-2.156-1.294 1.006-.862-1.437-16.53 1.725-3.594 1.294-2.3 1.725-.862.144-4.025 1.869-16.386 2.444-.144-3.594.432-.863 2.3-.431.574-.72.144-2.156 1.581-1.725 1.869-1.15 3.162-.432 3.019-3.019 2.156-1.438 1.293-.143 1.006-3.02.863.288.431-1.294 1.725-1.15.862 1.294 1.15-.575 1.006-1.87 2.444-1.437 1.725.719.719-.72.862-2.731 2.156-2.3.144-2.013.431-1.582.575.288 5.318-.432 7.33-1.15 7.763-1.006 16.673-3.02 12.218-2.444 24.58-5.32h0Z"/><path d="m767.667 215.6-1.868 1.294 1.293 1.869-.144 1.007.575 1.294-.575 1.294-.431 3.45.144 2.157-.719 2.444v2.732l-2.012 2.013-.719 1.437-1.006 1.151-2.012.862-1.294-.431-.862 2.013-1.438.575-.575 1.438.288 4.313-.863.431-2.299-1.438-.575.432-1.438 3.882.719 3.163h-.862l-.575 2.731-2.156.863h-1.15l-1.582-1.725-1.868-.575-1.15-2.444-1.725.718-1.15 1.726-2.156.719-1.006-.863-2.156-.575-1.437 1.438-.863.143-2.156-1.869-1.437-.287-1.438.431-1.437-.287-2.156-3.451-1.725-1.007-2.444.719-1.15-1.006-1.293 1.006-4.169-36.519-1.006-6.757 6.325-.863 10.205-1.869 2.012.144 1.294.863 1.581.144 2.588 2.875 1.149-.863 2.588-.143 1.581.862 3.018-1.437 2.444-1.438 2.012.144 2.444-1.007 3.45-4.026 3.737-2.588 5.749-3.306 3.881 21.997zM737.338 288.782l11.068-1.582 11.643-1.725.575-.431 3.306-.432-.431 1.582-.144 2.013-2.156 2.3-.862 2.732-.719.719-1.725-.719-2.444 1.438-1.006 1.869-1.15.575-.862-1.294-1.725 1.15-.431 1.294-.863-.288-1.006 3.02-1.293.143-2.156 1.438-3.019 3.019-3.162.432-1.869 1.15-1.581 1.725-.144 2.157-.575.719-2.299.431-.432.863.144 3.594-14.23 1.869-3.162.432-15.38 1.581-10.781.719-9.199.719.144.287-14.805 1.151-14.23.862 1.006-.862.575-1.294 1.15-1.151-.431-1.437v-1.869l1.006-1.151v-1.006l1.293-.719v-1.725l-.431-1.294 2.731-1.869-.575-1.294 1.294-.144-.863-1.294.575-1.869.719-.719-1.15-1.582 1.438-.287-.719-1.15 1.293-1.007-.574-2.013H660.582l18.542-1.581-.718-3.163 2.731.144.575.431 17.105-1.869 1.149-.288 5.319-.143 8.48-.576 4.169-.718 18.542-1.726.862-.287z"/><path d="m838.099 247.23.287-.574 3.019-1.007-.431 1.007.43 1.437-.718.863-2.875 7.189-.574 1.725-.144 3.882-1.15-1.87-.144-1.005.719-4.314-.575-.719 1.294-2.3-.432-1.15 1.006-.863.288-2.3h0zm-31.335-16.533h2.3l1.293.718.144 2.013 1.006.575 2.013.144.718.863 1.582.575.862.288.575.575.287 2.444-.862.431v1.15l-1.294-.143-.575 3.738.863 1.581.575.144 2.875-1.294v1.006l1.293 1.438 1.15.288 3.45-.288 1.58 1.87 4.026 1.15.287 1.293-.575 1.726v1.725l-1.15.431 1.438 1.438 1.724.863-.718 1.15h-1.294l.863 2.013-.863 1.294 2.444.575.43 2.157-1.58 1.006-.431-.863-2.444-1.006-.431-1.294-3.594-.288 2.588 1.438 1.006 1.582h1.293l1.582 1.725 2.156-.144.43-1.294 2.013.288 1.869-.288.718 1.582 2.3 3.882-.287.143-1.294-2.444h-.431l.575 2.588-.575.144-.288.144-24.579 5.32-12.218 2.444-16.673 3.019-7.762 1.006-7.33 1.15-5.32.432-.574-.288-3.306.432-.575.43-11.643 1.726-11.068 1.582 1.869-1.438 1.294-.288 2.156-1.294 1.293-.43.575-1.582 2.444-1.294.287-1.294 1.438-1.438.143-1.294.863-1.006 3.45-2.445 4.312-5.032.144 1.294.718 1.294 1.725 1.294 2.587.863 1.294-.288 2.3-2.3 1.725 1.15 1.15-.719 2.443-.719.863-1.006v-1.294l1.724.287 2.444-1.725 1.006.431 1.869-1.725-.288-1.006.863-.72-1.006-1.15.718-2.3 2.156-3.594.575-3.02 1.294-2.012.719-2.876.287-2.588 1.15.144.862 1.438 2.875.287 1.006-1.725.288-2.157 1.437-3.738 1.725.575 1.15-2.588 1.006-.287 2.3-4.313-.144-1.87.431-3.162 7.187 3.881.719-3.306h0zm-128.79-81.52v2.012l-1.15 3.307-.43 1.869-.576 1.006-1.006-.287-.575-1.294 1.725-4.457 1.006-.432 1.006-1.725h0zm-40.965-18.548.144.575 2.012.575 1.438 2.732 11.786 2.444 3.45 1.726 2.3.143 1.15-.287 4.312.719.862.575.719 2.156 1.868.288 1.438 1.15.143 3.45-.718 1.87h2.73l-.574 2.013v1.006l1.581 1.15-.287 1.726-2.013 1.15-.144 1.006-1.293 2.732-.575 2.875 1.581-.575 1.437-1.15 1.15-2.732 2.3-1.437 1.581 1.15-.287 2.013-1.15 2.875-.431 3.595.862 1.581-1.581 2.157-.719 3.019v1.725l.575 1.87-.862 2.156v2.013l-1.006 3.45.718 2.732-.143 1.007.718 1.294.144 1.294.862 1.006-.143 2.732.287 2.731-10.924.863-13.08.719-10.924.719.143-.575-1.006-1.87-3.306-.574-1.006-.576-1.15-2.875-.718-4.026.862-2.156-.288-1.007-1.15-.287-.718-2.3-.288-4.458-.718-2.444-1.581-1.725-1.438-.575-1.437-.144-2.156-1.725-1.581-2.445-1.869-1.581-2.012-.431-1.581-1.87-2.3-.43-2.875-2.445.575-2.732-.575-2.588.431-3.738 1.006-2.444-1.15-1.87-1.58-.287v-2.3l1.006-1.15 1.006-2.3 3.88-2.014.72-1.006-.288-9.777.862-.287 1.15-1.582 1.725 1.15 2.012-.287 4.169-1.725 2.156-1.582 1.15.288 1.725-1.582 1.437-.287 1.006 1.006-1.006 1.725-.287 3.45 1.868-1.58 2.012 1.15 1.87.287h0z"/><path d="m783.478 228.54 1.294 8.483 3.45-3.738 1.15-1.726 1.293.288 1.869-3.595.575 1.007 2.3.287 1.293-.287.144-1.582 2.012-.575.575-1.15 1.007-.288 2.443 1.151 1.006-.432.575 1.582 1.006.287 1.294 2.445-.719 3.306-7.187-3.881-.431 3.163.144 1.869-2.3 4.313-1.006.287-1.15 2.588-1.725-.575-1.437 3.738-.288 2.157-1.006 1.725-2.875-.287-.862-1.438-1.15-.144-.287 2.588-.719 2.876-1.294 2.013-.575 3.019-2.156 3.594-.718 2.301 1.006 1.15-.863.719.288 1.006-1.869 1.725-1.006-.431-2.444 1.725-1.724-.287v1.294l-.863 1.006-2.443.719-1.15.719-1.725-1.15-2.3 2.3-1.294.288-2.587-.863-1.725-1.294-.718-1.294-.144-1.294-2.013-.144-1.006-.862-1.581-.863-5.606-6.901.575-1.725-.718-2.876h1.15l2.156-.863.575-2.731h.862l-.719-3.163 1.438-3.882.575-.432 2.299 1.438.863-.431-.288-4.313.575-1.438 1.438-.575.862-2.013 1.294.431 2.012-.862 1.006-1.151.719-1.437 2.012-2.013v-2.732l.719-2.444-.144-2.157.431-3.45.575-1.294-.575-1.294.144-1.007-1.293-1.869 1.868-1.294 2.587 15.24 13.224-2.3zM834.074 216.607l-1.581 3.594 1.006 1.006-.143 1.438 2.443 2.013.863 1.294.718 2.732 1.15 1.006.288.863 2.299 1.725 1.15-.287.575 1.869-.431 1.725 1.006.288.575 1.581-.144.144h-.287l-7.762 1.725-5.606-19.122-.287-1.15.431-1.15 1.437-1.294h2.3zM817.544 237.454l-.143-.863-.144-.143-.575-.575-.862-.288.862-1.294 2.012 1.294-1.15 1.869z"/><path d="m829.906 219.051.287 1.15 5.606 19.122 7.762-1.725-.144 3.738-1.006.431-.287 2.013-.719 1.869-3.019 1.007-.287.575-3.162.287.431-2.588h-1.725l.863-1.294-.863-.575-1.437.719-2.731-1.006-1.725-1.869 1.437-3.595-1.293-.575h-1.438l.144-1.581h1.294l.431-1.582-1.438-.719 1.007-1.15-.144-1.869-1.869-.144.575-3.019 1.581-1.582-.718-1.15-1.438 2.013-2.587 1.294.575.863-.431 1.294 1.293 2.875-1.006.719.575 1.15-.719 2.444.575.719.863 3.163 2.012 2.013-.144 1.15.863 1.438 1.15 1.294-1.438.431-2.731-1.006-1.725.288-2.443-.576-1.869-2.444-1.868 2.013-.863-.287-.431-1.582.575-2.157.862-.431.719-1.438-.144-1.725 1.15-1.869-2.012-1.294-.862 1.294-1.582-.575-.718-.863-2.013-.144-1.006-.575-.144-2.013-1.293-.718h-2.3l-1.294-2.445-1.006-.287-.575-1.582-1.006.432-2.443-1.151-1.007.288-.575 1.15-2.012.575-.144 1.582-1.293.287-2.3-.287-.575-1.007-1.869 3.595-1.293-.288-1.15 1.726-3.45 3.738-1.294-8.483 13.081-2.444 11.642-2.444 14.518-3.02 7.187-1.581zM838.386 212.006l2.875-3.595-5.174-3.45-.575-1.582h-1.294l-.719-3.019.863-.863.144-1.581-1.294-1.294 1.15-1.438 1.15-2.588.143-1.581 1.438-1.726 11.211 3.595.144.862h0l-.575 3.882-.575 1.151-.718.143-.575.575-.432 2.445 1.294.718 2.156-.287 1.15 1.438.144 5.319-.575.144.431 2.732-.431 1.869.431.719-1.725 3.019-1.294 3.163-.431 2.013-.575 1.438-.575 2.588-1.293 2.156-1.15.432.287-3.595-2.012-.719-1.725.575-1.437-1.294-1.581-.287-2.731-1.869-.288-2.876.431-2.3 1.294-1.438 2.012-1.006 1.006-2.588z"/><path d="m847.73 199.066-.144 1.438-1.294.144.144-1.438 1.293-.144Zm20.267-13.802-1.725 1.725.862.863 1.15-.432 1.15-1.15.719.719 1.58-1.582.576.432-5.175 4.313-2.156 1.725-1.437.288-2.444 1.725-3.45 1.294-1.437 1.294-2.3 1.007-1.58 1.294-1.726-.576-1.58 1.726-.863-1.007.862-2.875 1.725-.72.287-1.005 2.3-1.438.288-.575 3.306-.288 1.15-1.438 4.024-.862 2.156-1.007 2.444-3.307 1.294-.143h0Zm-45.134-55.354 15.667-4.025.431 2.731.575.575.144 2.445.431 1.294 1.294 1.437v1.87l.575 2.156-.431.431-.144 2.876.575.575 1.581 4.17-.287 1.725h1.58l.863 1.006 3.162 13.227-.143 11.502.43.288 2.3 12.508 1.007 1.15-2.444 2.589 1.438 1.437-1.438 3.163-1.293.863-.288-2.157-.144-.862-11.211-3.595-.863-1.15-1.724.144-1.582-.719-1.15-1.438-.574-2.731-.432-.72-3.88-2.012-15.237 3.307-18.255 3.882-9.918 1.869-10.492 2.013-.72-4.457 3.163-3.02 1.006-1.581 2.3-2.013 1.006-2.444 1.294-.863.287-1.581-1.293-2.157v-1.582l-1.869-.143-.431-2.876 4.168-2.157 3.594-1.294 1.868-.143 1.294-.575h4.456l1.725.862 1.15.144 1.868-1.15 4.6-.719 3.018-1.582.432-1.15 2.443-2.875 2.012-.432.432-2.444-2.013-3.163 1.438-.862-.288-2.157h-1.868l-1.15-.863 1.725-2.013 1.293-1.006 2.731-3.738-.43-.72.718-1.58 3.88-5.752 1.438-1.437 2.731-2.157 1.869-.144h0Z"/><path d="m837.093 189.289-1.438 1.726-.143 1.581-1.15 2.588-1.15 1.438 1.294 1.294-.144 1.581-.863.863.719 3.019h1.294l.575 1.582 5.174 3.45-2.875 3.595-1.149 1.006v1.15l-2.875 1.726-.288.719h-2.3l-1.437 1.294-.431 1.15-7.187 1.581-14.518 3.02-11.642 2.444-13.081 2.444-13.224 2.3-2.587-15.24-3.881-21.997 1.725-1.007 5.318-4.457 1.438-.862.719 4.457 10.492-2.013 9.918-1.869 18.255-3.882 15.236-3.307 3.881 2.013.432.719.574 2.731 1.15 1.438 1.582.719 1.724-.144.863 1.15zM900.913 120.277l-2.3 1.582-.431-.575.287-2.3.862-.576 1.438 1.007.144.862h0zm-3.019-24.729v1.006l2.587.863 2.3-.719.575 1.15-.575.863 1.294 1.438v1.869l2.012 1.438 1.006-1.007 1.007.144 2.443 3.594 1.581 1.438-1.868 3.738-1.15.144-.719 1.15-1.725-.144.144 1.582-2.731.431-.288 2.876-1.15 1.15-1.006.144-.575-1.438-1.868.431-2.875 2.445.862 1.581-1.15.288-1.58-.144-1.582-2.157-1.58 1.582.862 1.006-.288 1.007-.144 4.6-.43 1.582-.72.575-1.724-1.006-.575.575v2.013l-1.294-.576-.719.863-.862 3.163-.863-.144-2.012-1.294-1.15 1.438-1.006 2.157 1.006 2.013-1.58 1.15.287 2.156-1.294 1.438-.575 4.313-1.006.576-1.294-1.007-.287-1.294-2.444-1.869-.575-2.875-9.487-27.749 1.438-.863h1.437l-.431-1.437 1.006-1.582-.144-1.725.72-1.582 1.724-2.013-.431-.862 1.15-2.588-1.007-1.15-.287-1.15.431-1.295-.718-1.006.43-2.732.863-1.437-.575-4.745 4.6-14.378.431-.43 2.012.143.575 2.013 2.156 1.15 1.438-1.294 1.15-.575.862-1.15 1.725-.575.575-1.438 1.294.144 3.306 1.437 2.587 2.157 5.75 17.11.718 2.156v1.15h0zM695.08 142.131l-1.006-.144.431-2.3 1.15 1.869-.575.575h0zm42.834 38.1-.287 3.451.144 2.876-.72 1.294-.718.43-.144-1.868-1.006-.431-1.15 1.294-.43 1.293.143 2.732-1.725 1.294-.287.575-.144.144-.431.575-.144.575-.431 4.17-.575.287-1.438 3.02-.43 1.437-10.206 1.87-6.325.862v-1.006l-18.255 2.156-7.043.72 1.438-1.295 1.15-2.013 1.15-3.307 1.15-2.3.862-3.738.287-4.026-.575-4.17-.862-2.3-3.594-7.045-.574-1.294.143-1.294.863-1.581-.432-2.876-1.006-2.012 1.15-1.438 1.294-3.738v-3.451l-.575-1.725.431-.72 1.437-.43.144-3.02 1.438-1.15 1.006.431.862-2.012 1.725-1.582.431 1.294-.575 3.594.863.432.431-3.02 1.294 1.007.287-2.876-.575-2.156.575-1.582 1.869-1.15 1.437-.288.144-1.006-1.15-1.294.144-1.87 1.293-1.868 1.869-1.294 4.025 1.581 1.58-.143 1.15.287 1.87 2.157 1.724-.144 1.294.719 2.156.719 2.012.144 1.581 1.15-.144.719 1.15 1.15.432 1.006-1.582.72-.143 1.293 1.725 1.438 1.006 3.163-.144 1.294.431 3.594-.143 1.438-2.013 1.294-.287 3.45-1.006 1.15-1.582.288-.862 2.157.144 2.588.43.719 2.876.862 1.437-2.156.719.287.862-2.731 1.15-2.157 2.012-1.006 1.87-1.15 1.436.43 1.725 1.582.863 1.726 1.437 4.6.575 1.294.719 2.732 1.006 2.876.862 1.294h0zm-20.842-48.883 1.15 1.15-.862 1.294-3.162-.287 1.437-1.438-.144-1.15 1.581.431h0zm-11.643-5.032.72-1.007h1.437l1.15-.862 1.006.144-.432 1.725.863 1.294h-1.438l.575 1.725-.575.719 2.732.719-.144 1.006 2.012 1.582-1.294.575-5.174-.288-2.444-.287-.575 1.725.144 1.725-1.15-.287-2.587-2.157-3.881-1.006-2.3.431-1.15 2.157-4.887.719-2.012.431-1.15 2.732-1.581.862-1.006 2.013-1.007-.287.72-2.013-1.438-1.15-1.15 2.444-1.438.575-.143-1.438-.863-.431-.287 2.013-.863.575-1.006 2.3-.575 2.013-2.156 4.17-.431 1.437-1.581-1.15v-1.006l.575-2.013h-2.731l.718-1.87-.143-3.45-1.438-1.15-1.868-.288-.719-2.156-.862-.575-4.313-.72-1.15.288-2.3-.143-3.449-1.726-11.786-2.444-1.438-2.732-2.012-.575-.144-.575 4.312-2.156 2.444-2.445 4.6-.862 1.868-1.294 1.006-1.294 1.869-.432.718-1.581 2.157-2.157.718 1.294 1.15.288 1.294 2.3-.288 2.3 1.15-.143 1.581-1.725 5.031.287 2.012 1.15.575 1.007 3.163 3.882 1.437.143 1.725-.862 1.15-.144 1.15 1.294 1.437-.863 1.581.863 1.438-2.013 2.3-1.438 1.437-1.294.575.144 2.587-.863h4.025l3.45-2.012 1.868-.144.431.719-.143 3.307 2.73.862 2.013-.862 1.15 1.15.718-.72h0zm-38.809-12.221-1.868.575-3.594 4.026-1.869 3.45-1.15-2.3-1.293-.288v-1.437l1.869-2.444 2.443-1.438 1.725-.72 2.587-.287 1.15.863h0zm-9.918-11.79-.718 1.87-1.007 1.006-2.874 1.438-.144.862-1.869 1.15-1.006-1.293 1.006-1.007 3.162-1.869 2.157-1.581 1.293-.576h0z"/></g><path fill="#666" stroke="#FFF" stroke-linecap="round" stroke-linejoin="round" stroke-width=".5" d="m275.364 333.64 18.83 2.444 15.092 1.869-1.581 1.725-.575 1.581 11.068 6.758 10.637 6.47 10.78 6.326 16.674 9.633.718.287 14.805 2.445 13.08 1.869 1.15.143 10.78 1.582 1.007-7.62 24.292 3.307 2.012 1.006.719 2.444 1.437 2.444 2.3 1.15 1.725 2.013 1.15 2.013 2.443 2.013.288 1.294 2.587 2.732 1.869.863 1.868 2.012 1.006.575 1.582 2.3.287 2.014 1.294 3.019.862 1.294-.575 2.732.144 1.581 1.437 2.732.288 2.013 2.587 2.444 1.15.288 2.731 3.45 1.869 1.007 2.012.43.144.72 1.437 1.15 1.869.575.862 1.15 1.437 1.15h1.007l2.3 1.007.718-1.294 1.869-1.87 1.437-.574.431-2.013 1.725-4.17 1.581-2.444 2.588-.575 1.58.288.576-1.15 1.15-.576 2.587 1.582 2.156-.144 4.887 1.15 1.15-.287 2.156.575.575 1.581.719.863 1.15.575-.575 1.007 2.3 1.581.862-.144.287 1.294 2.875 2.157.719 1.725 1.293 1.007.575 3.306 1.438 2.013.287 1.726 1.294 2.013 1.437 5.175 1.294 1.438 1.725 1.007 1.006 2.444 1.725 2.013.287 1.725.719.575 1.437 1.725 1.581.575 1.438 1.294.431 2.445-.431 1.437.862 2.3-.575 2.589.719 1.581.719.575.143 1.582 1.438.719v3.882l1.15.143.862.72.288 2.156 1.868.144 1.15.575h1.438l.862 1.15 1.437 1.15 1.007-.287 3.162 1.15 1.006 1.438 1.15.718 4.312.432 2.156-.144 1.869.575 3.88 3.163 2.732-1.869h1.724l-.43 2.3v1.87l-2.444 5.75-2.3 3.451-3.162 11.502-1.15 8.627-.144 4.744-.719 5.176-.287 3.02.431 5.032-1.006 2.875-.575.719-1.006 2.444 1.15 3.307.575 2.875.143 3.02 2.444 4.6 1.581 2.013 2.731 2.157.288.719-.432 2.444-1.437 1.294-.575-1.581 1.581-1.15-.144-.863-1.724-1.582-2.157-2.732-1.293-.575.718 3.307 1.294 2.444 1.438.288-.144 1.438 1.58 3.45.863 2.588 2.3 4.313-.144 1.294.863 1.582 1.868 2.444 5.894 6.326 3.593 5.032.719 2.3.862 3.595 1.294 4.026 2.012 1.581 1.869 2.732 1.15.144 1.15 3.163.862 2.875 2.156-.718 3.881.862h4.887l2.588 1.725.862 1.007 3.306.431 1.581 2.588 1.437 1.582.863 1.725 1.868.719 5.606-1.15 4.6-1.87 3.018-1.006 1.581.144.144-1.15 2.3-.575 8.48-.288 1.438-.431 1.437-1.294 1.294-1.582 3.45-.719 1.15-.287 5.75-.863 2.012.144 1.293 1.006-.575.72-1.437-.432v1.438l2.012-.144.863 1.15 2.443.288 2.3-.144.575-1.007 2.875-1.294.718-1.15.288-1.725-.719-.863-1.006.288-1.15-1.87 2.444-1.724 1.868-1.007 1.294-1.294 2.3-1.438 1.293-1.725.863-.575 1.15-1.725v-5.464l.575-1.725 3.018-2.588v-1.725l-.431-.863v-6.039l-.431-2.156.43-3.738 1.007-1.438-.575.144.719-3.307.431-.575 3.737-2.588 1.869-.72.862-.718 2.156-1.006 10.637-2.013 6.756-2.3 1.437-1.438 2.444-.863h2.73l2.444-1.15h2.731l3.162.575v.719l2.444-.432 1.437.288 1.007.431 3.88.144 1.582-1.581-.144-1.726 2.3.72 1.293 2.012h1.581l.72 4.026 1.149.575-1.006 2.588-.575 3.019-2.731 4.457-2.444 2.444-3.018 5.607-.144 2.157.288 3.163-.432 1.007-1.58 1.294-.288 1.15-1.725.575.144 1.438 1.15.718 1.724-.43h2.3v1.15l-1.437 1.725-.863-.432-1.293 1.15-.288 2.3.863.288 1.006-1.725 1.15-.287-.575 3.45-.719 2.157-.575 4.457-.862 1.725v2.588l-.288 2.3-1.006 2.588-1.868-3.019-2.444-.719v-.719l1.006-2.875-.287-1.582-.575-1.581-1.006 1.438-2.588 5.75-3.45.432-.718.719-.144 1.725-.862 2.013-1.294 1.15-.575 2.3-2.156 3.164-3.019-1.726-1.58.863v2.588l-18.687 1.15-11.786.719-.575.288.575 9.776-7.475.432 1.15 1.006h1.294l2.156 2.732.863.144 1.006 1.725 5.893 2.875 1.869 2.588-.144 1.15 1.868.576 1.15 1.006 1.438.144v1.294l-.863 1.581.575 1.582-.862 1.869-8.768.575-12.65.575-.43.431-7.331 14.09.144 1.007 2.3 2.732-1.294 1.581v1.725l-.575 1.582.719 2.013-.72 2.444-.718.431-1.15-1.15-7.187-6.757-2.156-2.445v-.575l-2.874-1.581-4.456-4.17-4.313-3.45-3.306-2.444-5.03-3.02 1.58-.287-.862-1.15-3.162-1.007-.862-1.294-1.581.431-2.444-1.581-.862 1.006 2.156 1.726 1.006-.432.862.72 1.581.287-.43.862-5.607-2.3h-4.6l-.143-.719 2.156-.863.144-.862-1.294-.719-1.868 1.294-.863-1.725-.719-.575-1.15.575-1.006 1.294h-1.006l-.431 1.006 2.731.431.144.575-2.875.576-1.581-.144-1.438.575-3.45 3.307-2.3.287-1.58.863-5.175 1.581-2.875 1.294-1.868 1.294-3.45-.287-2.156.719-2.156-1.007-2.875-.431-1.437-.863-1.581-.431-2.444-1.87-1.868-.574-3.306-.144-1.15-.431-4.312-.288-5.319-3.45-.575-.863-5.606-1.438-1.868-.719-3.594-4.313-1.437.431-4.887-1.725-3.881-1.15-4.025-.431-2.3-.863-4.168-3.45-12.074-4.89-5.03-2.156-2.732-3.019-1.293-.863-3.306-1.437-.575-1.582-2.444-1.15-.431-1.294-1.15-1.007-1.006-1.725-3.737-2.156-1.007.143-1.293 1.007-7.043-2.732-2.444-.575-4.6-2.444-1.437-.288-4.025-1.581-2.3-1.438-1.006-2.876-2.156-2.156-.287-1.582-3.737-3.594-3.163-2.013-2.443-1.15-.288-1.582h-1.58l-2.3-1.006-2.3-1.725h-1.15l-3.306-2.876-.719-1.438v-2.013l-1.006-.575-1.581-1.581-2.444-4.17-1.437-2.731-.144-3.02-1.437-2.156-.575-1.726 2.156-1.15h4.168l1.438-1.15.287-.863-.862-1.006-1.006-1.438-.863.432-1.581-.863 2.156-2.444 1.581-1.726 1.294-.43.575-2.445-.144-2.444 1.15-1.582-1.15-1.438-2.3-1.725-2.875-6.47-.287-1.725.431-3.594-.575-4.457-1.006-2.445-2.012-2.731-1.294-.863-2.587-4.17-.863-.718-2.156-2.732-1.006-3.307-1.294-1.15-1.868-2.876-.719-.287-1.293-3.882-1.725-2.588-4.887-4.6-.288-.72-2.012-2.013 1.15-.718-.432-2.013-1.724.719-1.725-1.007-1.006-1.725-2.588-1.294-.431-2.444-1.581-1.87-.288-1.868 1.438-.432.144-1.581-1.007-.144-.575-1.006-1.868-.144-1.438-2.013-1.58-.863-1.294-1.725-1.15-.288-.719-2.444-1.294-.575-.143 1.15-1.725-.431-.575.575-1.15-1.438-.575-2.013-3.737-3.019.575-1.725.144-2.157 1.58-1.725 1.007-1.582h.144l.862-.287 1.294-.575.287-.432-1.581-.575.287-2.444-2.156-3.45-.143-.72-1.581-.43-2.3.574-1.006-.718-1.15-1.726-.432-2.731.144-1.87-.719-1.006-1.724-.144-2.875-1.15-1.438-2.013-1.006-2.731-.862.143-.431-4.025.862-1.87.288-1.869-1.007-1.294-2.012-.718-1.006.718-1.725-1.869-1.006.288-2.444-2.3-2.012-4.889-.287-1.294-3.306-1.869-.432-2.156-1.868-2.732.575-1.007-1.869-1.725-.719-1.725-.718-.288-.432-3.882.432-1.006-.432-1.438-1.437-.144-.719-1.006.863-1.725-1.438-2.588-.143-1.294-1.581-4.026-.863-.431.575-1.438-.287-.863.43-2.156-1.005-1.87.143-2.444-1.293-2.012-1.006-2.588-.144-2.445.862-2.731.863-.72.43-2.012-.718-1.15-5.893-2.588-.719-1.007-.143-2.588-2.731-2.3-1.438.431-1.15.863-1.725-.288-4.168-4.025-1.006-1.726-1.294-.287-.862-.719.862 1.438-.719.287-1.006-1.15.863-.575-.575-.431-1.581-2.013 1.006 2.3.287 2.3-1.437 2.013-.575 2.3-1.294 3.595.288 2.732 1.293 1.438-.143 3.307-.575 1.725.43 1.581-.143 2.157-1.293 3.882.862 2.157.287 1.869 1.294 1.294v2.156l.719.72 1.006-.145 2.731 3.595.862.575 1.582 2.588.862.719 1.581 3.019-.575.431 1.294 3.163.431 1.87 1.294 1.006v1.725l1.58-.287.576 1.725.575 4.313 1.437 1.007h1.437l.575 1.725-.718 1.581.862 1.726-.431 1.15.287 2.156-.575 2.3.72 2.014 1.293 1.869 3.018 2.156.432.863.287 2.732 1.006 2.156.288 1.582 2.012 1.15.431 1.007-.862 1.294 1.725 3.019-.863 1.438 2.013 3.738 1.006-.575-1.438-2.157-.287-3.307.575-.144 2.012 2.876 1.294 1.15-.575 2.013 1.725 1.294-.575 1.869.862 1.438-.287 1.294.575 3.163-.863 1.725.288 3.307 1.006 1.15.287 1.87.863 1.725 1.437.43-.287 1.007 1.006 5.608 1.15 2.156.718.431 1.007 3.739-1.438 2.012-.575 2.157.575 1.582-.144 1.725 1.438 2.875 2.3 1.007.718 1.15 1.007-1.581-.144-2.013h1.58l.72 1.725 2.156 1.869.143 2.157.863.431 1.581-.431-.431 1.869 1.868 3.019-.143 2.588 3.018 2.013.431 1.869-.287 2.732-.863 1.725-1.293 1.294-3.162.863-.432.718-2.874 1.582-.863-.144-1.437-1.581-.431-1.294-.288-5.32-1.581-4.17-1.437-1.293-2.444-1.726-1.006-1.15-2.156-3.307-2.875-4.025-2.587-2.3-3.019-2.445-2.3-3.02-.575-2.012-2.3 1.006-.143-2.588-1.438-2.444-.862.431-1.006-.718-.288-1.87.575-1.006-.143-2.588.43-1.438 1.007-1.294 1.437-6.182v-1.581l-.575-1.87-.43-3.163-1.294-1.15-.288-2.3-1.294-1.726-.862.288-1.581-1.725-1.15-.288-.431-.862-4.169-4.745.144-.863-.862-2.156-1.006-.72 1.293-.862.431-1.294-.862-.287-.575 1.437-1.581 1.438-1.006-.863-2.013-.43-.862 1.15-1.437-.432-1.007-1.438-.862-2.875-2.012-1.15-.72.143-1.149-2.444-1.725-1.15-.862-.144-2.588-2.013.288-2.875-1.006-1.438-1.869-1.294-.431-1.438-1.294-1.869-1.58-.719-.432-1.869 2.012.144 4.456 2.013 1.581.288 2.875-1.15.144 2.443 1.725 1.582.575.863 1.006-.72 1.293.576.72-.863-1.007-.719-1.725.288-.719-2.157.863-.719-.719-2.3.863.144.718.144.431.143h.144l-.287-2.156 1.006-1.294-.863-1.007 2.013-3.163-1.294-3.45-1.437-.575-1.15-3.739-.863-1.294-.862-.143-.862-3.163-1.294-.575-2.587-5.033-3.019-1.581-1.006-2.013-2.731-2.013-2.444-3.02.432-1.15-.144-1.868-1.15-.863.862-1.87.432-2.587-.288-1.87-1.15-1.15-1.15.432-.143-2.157.718-2.3.288-3.163-1.438-1.15-.718-1.87-1.15-.287 1.15-3.02-.288-1.293-1.725-4.17-1.725-2.444 1.725-3.307.288-1.437-1.725-1.294v-1.15l-.862-.432-.144-2.444-.431-2.157-.863-.719-.575-3.163.144-1.294h0Zm273.39 155.708-.862 1.294-1.869-1.007-.575 1.87.575 1.725-.575 2.3.288 1.15 1.15.72-1.582 1.724.575 3.451-.575 1.725-.862-.718-1.294.575.288 1.581 1.725.863 1.725-5.751.43-2.157 1.007-2.444-.144-1.15 2.013-4.026-.432-2.3-1.006.575h0Z"/></g></g></svg>