<svg width="48" height="48" viewBox="0 0 48 48" xmlns="http://www.w3.org/2000/svg"><path fill="#71c5e8" d="M17 25.964h-2c-.266 0-.52.106-.708.292L8 32.55v-5.586a1 1 0 0 0-1-1H2v-22h36v12a1 1 0 0 0 2 0v-13a1 1 0 0 0-1-1H1a1 1 0 0 0-1 1v24a1 1 0 0 0 1 1h5v7a1 1 0 0 0 1.708.708l7.708-7.708H17a1 1 0 0 0 0-2Z"/><path fill="#71c5e8" d="M47 19.964H23a1 1 0 0 0-1 1v16a1 1 0 0 0 1 1h10.62l8.716 7.748a.997.997 0 0 0 1.074.164 1 1 0 0 0 .59-.912v-7h3a1 1 0 0 0 1-1v-16a1 1 0 0 0-1-1Zm-1 16h-3a1 1 0 0 0-1 1v5.774l-7.336-6.522a.998.998 0 0 0-.664-.252H24v-14h22v14Z"/><path fill="none" d="M0 0h48v48H0Z"/></svg>