<svg width="48" height="48" viewBox="0 0 48 48" xmlns="http://www.w3.org/2000/svg"><path fill="#71c5e8" d="M43.922 12.616a.941.941 0 0 0-.216-.322l-11.998-12a1.016 1.016 0 0 0-.324-.214A.964.964 0 0 0 31 0H5a1 1 0 0 0-1 1v46a1 1 0 0 0 1 1h38a1 1 0 0 0 1-1V13c0-.132-.028-.264-.078-.384ZM32 3.414 40.586 12H32V3.414ZM6 46V2h24v11a1 1 0 0 0 1 1h11v32H6Z"/><path fill="#71c5e8" d="M33.44 24.87c-2.73-.1-5.39.252-8.032 1.056a24.362 24.362 0 0 1-5.212-3.76c-.418-3.9-1.41-6.806-1.71-7.622-.392-1.056-1.23-1.686-2.242-1.686-.978 0-1.944.596-2.462 1.518-.542.96-.504 2.082.102 3.082a29.892 29.892 0 0 0 4.392 5.63c.19 2.244.128 4.368-.184 6.326-3.226 2.142-5.156 4.316-5.852 5.17-.758.936-.934 2.014-.484 2.958.456.956 1.512 1.598 2.63 1.598.96 0 1.854-.468 2.452-1.288 1.486-2.04 2.518-4.468 3.07-7.226a26.2 26.2 0 0 1 5.326-2.542 25.905 25.905 0 0 0 8.194 2.458c1.724.2 2.956-.962 2.986-2.624.026-1.458-.988-2.972-2.974-3.048Zm-17.848-8.452c-.228-.376-.252-.734-.068-1.06.182-.322.506-.5.718-.5.062 0 .226 0 .366.38.204.546.738 2.104 1.17 4.302a29.113 29.113 0 0 1-2.186-3.122Zm-.372 20.254c-.466.644-1.416.52-1.66.01-.136-.288.05-.612.232-.836.496-.608 1.676-1.95 3.586-3.452-.52 1.59-1.244 3.022-2.158 4.278Zm5.052-8.574c.092-1.01.128-2.05.106-3.12.822.664 1.68 1.276 2.57 1.832-.906.378-1.798.808-2.676 1.288Zm13.536.468-.138-.008a23.807 23.807 0 0 1-5.316-1.306 21.454 21.454 0 0 1 5.008-.382c1.016.038 1.052.85 1.05 1.014-.004.204-.07.682-.604.682Z"/><path fill="none" d="M0 0h48v48H0Z"/></svg>