<svg width="48" height="48" viewBox="0 0 48 48" xmlns="http://www.w3.org/2000/svg"><path fill="#71c5e8" d="M30.816 19.136c-.014-.012-.022-.03-.038-.04-.01-.006-.022-.006-.032-.014A11.93 11.93 0 0 0 24 17c-6.618 0-12 5.382-12 12s5.382 12 12 12c2.91 0 5.578-1.042 7.658-2.77.01-.008.024-.01.034-.02.014-.012.02-.03.034-.042C34.336 35.966 36 32.676 36 29c0-4.086-2.056-7.696-5.184-9.864ZM24 19c1.736 0 3.344.484 4.768 1.266L23.472 28h-9.37c.51-5.04 4.726-9 9.898-9Zm-9.898 11h9.43l6.074 7.274A9.923 9.923 0 0 1 24 39c-5.172 0-9.388-3.96-9.898-9Zm17.034 5.984-5.882-7.044 5.166-7.544C32.59 23.23 34 25.942 34 29a9.958 9.958 0 0 1-2.864 6.984Z"/><path fill="#71c5e8" d="M43.922 12.616a.941.941 0 0 0-.216-.322l-11.998-12a1.016 1.016 0 0 0-.324-.214A.964.964 0 0 0 31 0H5a1 1 0 0 0-1 1v46a1 1 0 0 0 1 1h38a1 1 0 0 0 1-1V13c0-.132-.028-.264-.078-.384ZM32 3.414 40.586 12H32V3.414ZM6 46V2h24v11a1 1 0 0 0 1 1h11v32H6Z"/><path fill="none" d="M0 0h48v48H0Z"/></svg>