<svg width="48" height="48" viewBox="0 0 48 48" xmlns="http://www.w3.org/2000/svg"><path fill="#71c5e8" d="M48 31a5.006 5.006 0 0 0-4-4.898V25c0-2.758-2.244-5-5-5h-.05C38.432 12.196 31.934 6 24 6 16.066 6 9.568 12.196 9.05 20H9c-2.756 0-5 2.242-5 5v1.102c-2.28.464-4 2.484-4 4.898a5.006 5.006 0 0 0 4 4.898V37c0 2.758 2.244 5 5 5h4a1 1 0 0 0 1-1V21a1 1 0 0 0-1-1h-1.95C11.564 13.298 17.17 8 24 8c6.83 0 12.436 5.298 12.95 12H35a1 1 0 0 0-1 1v20a1 1 0 0 0 1 1h4c2.756 0 5-2.242 5-5v-1.102c2.28-.464 4-2.484 4-4.898ZM2 31c0-1.3.838-2.402 2-2.816v5.632A2.997 2.997 0 0 1 2 31Zm10 9H9c-1.654 0-3-1.346-3-3V25c0-1.654 1.346-3 3-3h3v18Zm30-3c0 1.654-1.346 3-3 3h-3V22h3c1.654 0 3 1.346 3 3v12Zm2-3.184v-5.632c1.162.414 2 1.516 2 2.816 0 1.3-.838 2.402-2 2.816Z"/><path fill="none" d="M0 0h48v48H0Z"/></svg>