<svg width="48" height="48" viewBox="0 0 48 48" xmlns="http://www.w3.org/2000/svg"><path fill="#71c5e8" d="M47 16H1a1 1 0 0 0-1 1v25.2C0 44.294 1.738 46 3.876 46h40.25C46.262 46 48 44.294 48 42.2V17a1 1 0 0 0-1-1Zm-1 26.2c0 .994-.84 1.8-1.876 1.8H3.876C2.84 44 2 43.192 2 42.2V18h44v24.2Z"/><path fill="#71c5e8" d="M17 40c.154 0 .306-.036.448-.106l16-8a1.002 1.002 0 0 0 0-1.788l-16-8A1.001 1.001 0 0 0 16 23v16a1.001 1.001 0 0 0 1 1Zm1-15.38L30.764 31 18 37.382V24.62ZM45 2H3C1.346 2 0 3.346 0 5v8a1 1 0 0 0 1 1h46a1 1 0 0 0 1-1V5c0-1.654-1.346-3-3-3Zm.93 2.656L38.586 12h-5.17l7.998-8H45c.43 0 .79.276.93.656ZM17.414 4h5.172l-8 8H9.414l8-8ZM6.586 12h-4.17l8-8h4.17l-8 8Zm18.828-8h5.172l-8 8h-5.172l8-8Zm8 0h5.172l-7.998 8h-5.174l8-8ZM3 4h4.588L2 9.588V5a1 1 0 0 1 1-1Zm38.414 8L46 7.414V12h-4.586Z"/><path fill="none" d="M0 0h48v48H0Z"/></svg>