<svg data-name="Layer 1" xmlns="http://www.w3.org/2000/svg" viewBox="0 0 64 64"><title>icon-caseStudy-productsResources</title><path d="M25.27 31.12h-6.09l.22 4.92h6.14l-.27-4.92z"/><path d="M55.44 39H19.65l.65 12.2h-3L16 27.58H8.15L6.58 60.65H5V64h51.81v-3.35h-1.37ZM34.76 50.81h-7.08v-7.09h7.09Zm13 0h-7.09v-7.09h7.09ZM13 22.24a13.09 13.09 0 0 1 4.43-4C20.39 16.7 23 17 32 17.46c10.85.54 14.57.47 17.08-2.39 5.07-5.78 0-14.45-7.79-12.8a7 7 0 0 0-10.74.47 6.5 6.5 0 0 0-8.3 2c-7.81.35-12 8.11-12 16.53a1.58 1.58 0 0 0 2.75.97Zm6.67-13.73c2.72-1.15 4 0 4.76-1.41a3.45 3.45 0 0 1 5.48-1 1.58 1.58 0 0 0 2.52-.53 4 4 0 0 1 7-.66c1.31 1.94 3.55-1.24 6.72 1.23a4.62 4.62 0 0 1 .51 6.86c-1.56 1.78-4.62 1.83-16.93 1.2-7.89-.41-11.46-.77-15.91 2.71.9-4.08 3.01-7.19 5.85-8.4Z"/><path d="m53.23 11.66-.94 3.05c2.91.44 4.71 3.28 2.62 5.74-1.28 1.51-4.24 1.45-13.38 1s-12.3-.9-16.54 1.93a33.18 33.18 0 0 0 1.41-3.32h-3.42a16 16 0 0 0-1.86 7.65 1.58 1.58 0 0 0 1.05 1.47c2 .68 1.77-1.87 5.82-3.87 2.44-1.2 4.64-1.1 11.2-.79 11.76.56 15.68.86 18.13-2 3.23-3.83 1.68-9.34-4.09-10.86Z"/></svg>