<svg data-name="Layer 1" xmlns="http://www.w3.org/2000/svg" viewBox="0 0 64 64"><title>icon-caseStudy-hospitality</title><path d="M52.45 0h-40.9a6.6 6.6 0 0 0-6.6 6.6v50.8a6.6 6.6 0 0 0 6.6 6.6h40.9a6.6 6.6 0 0 0 6.6-6.6V6.6a6.6 6.6 0 0 0-6.6-6.6Zm-15 5.06v6.16h-11V5.06ZM55.09 57.4a2.64 2.64 0 0 1-2.64 2.6h-40.9a2.64 2.64 0 0 1-2.64-2.6V6.6A2.64 2.64 0 0 1 11.55 4h10.77v9.2a2.2 2.2 0 0 0 2.2 2.2h15a2.2 2.2 0 0 0 2.2-2.2V4h10.73a2.64 2.64 0 0 1 2.64 2.6Z"/><path d="m37.32 27.2-3.88-3.36-2.77 3.2 6.68 5.78 11.5-10.14-2.8-3.18-8.73 7.7zM37.32 41.23l-3.88-3.35-2.77 3.19 6.68 5.78 11.5-10.14-2.8-3.17-8.73 7.69z"/></svg>