<svg data-name="Layer 1" xmlns="http://www.w3.org/2000/svg" viewBox="0 0 64 64"><title>icon-caseStudy-energyUtilities</title><path d="M33 4.45V1.01a1 1 0 0 0-.77-1A1 1 0 0 0 31 1v3.48a1 1 0 0 0 1.18 1A1 1 0 0 0 33 4.45ZM47.79 6.62 45.2 9a1 1 0 1 0 1.32 1.44l2.58-2.38a1 1 0 0 0-1.32-1.44ZM57.32 19.93a1 1 0 0 0-1.15-.75l-3.43.72a1 1 0 0 0 .2 1.93h.2l3.43-.72a1 1 0 0 0 .75-1.18ZM55.67 35.25l-3.25-1.32a1 1 0 1 0-.73 1.81l3.25 1.32a1 1 0 1 0 .73-1.81ZM17.49 10.43A1 1 0 0 0 18.8 9l-2.59-2.38a1 1 0 0 0-1.31 1.44ZM11.07 21.82a1 1 0 0 0 .2-1.93l-3.43-.72a1 1 0 0 0-.4 1.91l3.43.72ZM11.59 33.93l-3.26 1.32a1 1 0 1 0 .73 1.81l3.25-1.32a1 1 0 1 0-.73-1.81ZM31.87 9.59A17.31 17.31 0 0 0 14.73 27a17.54 17.54 0 0 0 2.83 9.57l.08.13.09.12.07.1.36.5a22.3 22.3 0 0 1 3 5.63 24.79 24.79 0 0 1 1.33 7.72l.12 6.23A2.41 2.41 0 0 0 25 59.34h.43A6.62 6.62 0 0 0 31.58 64h.14A6.66 6.66 0 0 0 38 59.34h.46A2.39 2.39 0 0 0 40.87 57l.17-6a20.23 20.23 0 0 1 3.53-12.28 17.51 17.51 0 0 0 1.5-1.95l.11-.17A17.54 17.54 0 0 0 49 27 17.31 17.31 0 0 0 31.87 9.59ZM31.63 62a4.66 4.66 0 0 1-4.11-2.71h8.41a4.69 4.69 0 0 1-4.3 2.71Zm6.73-4.84H25.12a.45.45 0 0 1-.44-.43v-1.87h14.17l-.05 1.87a.44.44 0 0 1-.44.48Zm.51-4.16H24.64v-2.65h14.27v.64ZM29 39.31a46.81 46.81 0 0 0-1.76-5.17 18.35 18.35 0 0 1-.91-2.67c.2.08.46.2.67.3A10.64 10.64 0 0 0 31.8 33a10.42 10.42 0 0 0 4.47-1.14c.22-.1.48-.22.69-.3a17.12 17.12 0 0 1-.9 2.9 51.08 51.08 0 0 0-1.64 5.09 35 35 0 0 0-1.06 8.85h-3.29A32.24 32.24 0 0 0 29 39.31Zm15.79-4.25a15.62 15.62 0 0 1-1.76 2.34 22.22 22.22 0 0 0-2.4 4.49l-.17.43a22.21 22.21 0 0 0-1.33 6h-3.82a33.06 33.06 0 0 1 1-8.38 49.46 49.46 0 0 1 1.58-4.9c.93-2.54 1.54-4.22.39-5.2-.87-.74-1.86-.29-2.82.15a8.48 8.48 0 0 1-3.68 1h-.06a8.66 8.66 0 0 1-3.86-1c-1-.45-2-.93-2.86-.17-1.12 1-.49 2.58.46 5a45.23 45.23 0 0 1 1.69 5 30.32 30.32 0 0 1 1 8.56h-3.88a26.81 26.81 0 0 0-1.3-6c-.08-.23-.16-.45-.25-.68a23.8 23.8 0 0 0-2.48-4.7h.09a15.66 15.66 0 0 1-3.71-10.15 15.42 15.42 0 0 1 15.25-15.53 15.42 15.42 0 0 1 15.25 15.54 15.66 15.66 0 0 1-2.3 8.2Z"/></svg>