<svg data-name="Layer 1" xmlns="http://www.w3.org/2000/svg" viewBox="0 0 64 64"><title>icon-caseStudy-technology</title><path d="M64 17.91v-4.37h-8.77v-4.8h-5V0h-4.42v8.74h-3.73V0H37.7v8.74H34V0h-4.41v8.74h-3.73V0h-4.38v8.74h-3.73V0h-4.38v8.74H8.55v4.81H0v4.37h8.55v3.71H0V26h8.55v3.71H0v4.37h8.55v3.71H0v4.37h8.55v3.71H0v4.37h8.55V55h4.82v9h4.38v-9h3.73v9h4.38v-9h3.73v9H34v-9h3.7v9h4.38v-9h3.73v9h4.38v-9h5v-4.76H64v-4.37h-8.77v-3.71H64v-4.37h-8.77v-3.71H64v-4.37h-8.77V26H64v-4.38h-8.77v-3.71Zm-25.21 21H25V25.12h13.79Z"/></svg>