<svg xmlns="http://www.w3.org/2000/svg" width="20" height="20" viewBox="0 0 20 20"><g fill="none" fill-rule="evenodd"><path d="M0 0h20v20H0z"/><path fill="#000" d="M12.841 14.377c-1.427 3.047-2.49 4.115-4.87 3.938-1.518-.113-2.59-1.052-3.127-2.536a.429.429 0 0 1 .236-.545.4.4 0 0 1 .52.246c.431 1.192 1.245 1.903 2.428 1.991 1.99.148 2.843-.758 4.19-3.687a.428.428 0 0 1 .046-.1l.009-.021.024-.053c.183-.401.273-.595.382-.824 1.172-2.446 2.007-3.969 3.096-5.41a.393.393 0 0 1 .568-.068c.175.144.205.41.066.593-1.044 1.382-1.858 2.867-3.007 5.264a29.11 29.11 0 0 0-.188.4c.882.07 1.845-.013 2.75-.343 2.726-.996 3.955-3.869 2.805-9.454-6.225 1.316-7.846 4.26-6.707 7.97a.427.427 0 0 1-.261.532.401.401 0 0 1-.509-.273c-1.311-4.27.692-7.77 7.712-9.138.213-.042.42.1.468.32 1.378 6.237-.025 9.666-3.242 10.84-1.12.41-2.294.482-3.35.362a7.45 7.45 0 0 1-.039-.004ZM.831 7.16H.404C.181 7.16 0 6.963 0 6.719c0-.243.181-.44.404-.44h.761a.39.39 0 0 1 .07-.007h7.337a.39.39 0 0 1 .07.006h.934c.223 0 .405.198.405.441 0 .244-.182.442-.405.442h-.6v3.423c0 1.26-.775 2.363-1.879 2.759-.117.59-.615 1.036-1.213 1.036H3.923c-.598 0-1.097-.445-1.213-1.036-1.104-.396-1.88-1.498-1.88-2.759V7.161Zm7.336 0H1.64v3.423c0 .973.652 1.814 1.542 2.02a.42.42 0 0 1 .316.445l-.005.042a.444.444 0 0 0 .43.443h1.962a.444.444 0 0 0 .43-.442l-.004-.047a.42.42 0 0 1 .316-.44c.89-.207 1.541-1.048 1.541-2.02V7.16ZM2.644 2.986V2.09a.422.422 0 1 1 .844 0v3.263h-.844V2.986Zm3.71 0V2.09a.422.422 0 1 1 .844 0v3.263h-.844V2.986ZM3.226 9.32c-.223 0-.404-.197-.404-.44 0-.244.181-.442.404-.442h3.355c.223 0 .404.198.404.441 0 .244-.181.441-.404.441H3.226Zm0 1.65c-.223 0-.404-.197-.404-.44 0-.244.181-.441.404-.441h3.355c.223 0 .404.197.404.44 0 .244-.181.442-.404.442H3.226Z"/></g></svg>