<svg xmlns="http://www.w3.org/2000/svg" width="24" height="24" viewBox="0 0 24 24" xml:space="preserve"><g fill="none" stroke="#000" stroke-linejoin="round" stroke-miterlimit="10"><circle cx="12" cy="13" r="3.5"/><path stroke-linecap="round" d="m17.5 18.5-3.035-3.035"/><g stroke-linecap="round"><path d="M23.5 18.5a2 2 0 0 1-2 2h-19a2 2 0 0 1-2-2v-14a2 2 0 0 1 2-2h19a2 2 0 0 1 2 2v14zM.5 7.5h23"/><circle cx="4" cy="5" r=".5"/><circle cx="7" cy="5" r=".5"/><circle cx="10" cy="5" r=".5"/></g></g><path fill="none" d="M0 0h24v24H0z"/></svg>