<svg data-name="Layer 1" xmlns="http://www.w3.org/2000/svg" viewBox="0 0 64 64"><title>icon-caseStudy-consumerGoods</title><path d="m62.79 21.35-17.7-8.75a2.36 2.36 0 0 0-2-.06L22.71 21H5.16A5.16 5.16 0 0 0 0 26.16v20.68A5.16 5.16 0 0 0 5.16 52h35.68A5.16 5.16 0 0 0 46 46.84V37a11.8 11.8 0 0 1 1.2.26 12.42 12.42 0 0 1 1.81.64c1.43.63 4.61.89 7.33.85 3.42-.05 5.15-.27 6.25-1.22a5.18 5.18 0 0 0 1.41-2V23.21a2.16 2.16 0 0 0-1.21-1.86ZM5.09 25H42v4h-8.62a4 4 0 0 0-4 4 4 4 0 0 0 4 4H42v3H4V26.09A1.09 1.09 0 0 1 5.09 25Zm36.07 23h-36A1.86 1.86 0 0 1 4 46.62V46h38v.62c.25.61-.24 1.1-.84 1.38Z"/></svg>