<svg data-name="Layer 1" xmlns="http://www.w3.org/2000/svg" viewBox="0 0 64 64"><title>icon-caseStudy-travel</title><circle cx="32" cy="1.23" r="1.23"/><circle cx="32" cy="62.77" r="1.23"/><circle cx="40.05" cy="2.3" r="1.23" transform="rotate(-74.84 40.05 2.307)"/><circle cx="23.95" cy="61.7" r="1.23" transform="rotate(-74.84 23.946 61.69)"/><circle cx="47.35" cy="5.33" r="1.23" transform="rotate(-60.08 47.343 5.34)"/><circle cx="16.65" cy="58.67" r="1.23" transform="rotate(-60.08 16.647 58.662)"/><circle cx="58.62" cy="16.58" r="1.23" transform="rotate(-30.09 58.614 16.573)"/><circle cx="5.38" cy="47.42" r="1.23" transform="rotate(-30.09 5.384 47.422)"/><circle cx="61.72" cy="24.04" r="1.23" transform="rotate(-15 61.425 23.936)"/><circle cx="2.28" cy="39.96" r="1.23" transform="rotate(-15 2.264 39.76)"/><circle cx="62.77" cy="32.08" r="1.23" transform="rotate(-89.85 62.77 32.075)"/><circle cx="1.23" cy="31.92" r="1.23" transform="rotate(-89.85 1.233 31.92)"/><circle cx="61.76" cy="39.82" r="1.23" transform="rotate(-75.27 61.76 39.826)"/><circle cx="2.24" cy="24.18" r="1.23" transform="rotate(-75.27 2.244 24.178)"/><circle cx="58.68" cy="47.33" r="1.23" transform="rotate(-60.12 58.68 47.328)"/><circle cx="5.32" cy="16.67" r="1.23" transform="rotate(-60.12 5.319 16.676)"/><circle cx="53.79" cy="53.72" r="1.23" transform="rotate(-45.1 53.788 53.718)"/><circle cx="10.21" cy="10.28" r="1.23" transform="rotate(-45.1 10.202 10.279)"/><circle cx="47.45" cy="58.61" r="1.23" transform="rotate(-30.14 47.453 58.603)"/><circle cx="16.55" cy="5.39" r="1.23" transform="rotate(-30.14 16.552 5.393)"/><circle cx="39.88" cy="61.74" r="1.23" transform="rotate(-14.85 39.87 61.733)"/><circle cx="24.12" cy="2.26" r="1.23" transform="rotate(-14.85 24.094 2.243)"/><path d="M53.81 14a3.72 3.72 0 0 0 0-7.45 3.72 3.72 0 0 0 0 7.45Zm-.87-4.6a1.23 1.23 0 1 1 0 1.74 1.23 1.23 0 0 1 0-1.72ZM10.19 50A3.72 3.72 0 1 0 13 51.22 3.72 3.72 0 0 0 10.19 50Zm.81 4.62a1.23 1.23 0 1 1 .1-1.74 1.23 1.23 0 0 1-.1 1.74ZM32 7.08a24.72 24.72 0 0 0-14 4.35 8.42 8.42 0 0 0-6.82 7A24.84 24.84 0 1 0 32 7.08Zm10 23.54a58.38 58.38 0 0 0-.48-6.62H48a28.29 28.29 0 0 1 1 6.62Zm6.91 2.49a27.55 27.55 0 0 1-1 6.22h-6.3a56.93 56.93 0 0 0 .46-6.22Zm-7.78-11.62a39.59 39.59 0 0 0-1.65-6.22h4a22.78 22.78 0 0 1 3.68 6.22Zm-16.69 9.13c0-.94.06-1.84.12-2.73L26.43 24H39a55.43 55.43 0 0 1 .52 6.64Zm14.91 2.49a54 54 0 0 1-.48 6.22H25.13a54 54 0 0 1-.48-6.22Zm1.54-20.33h-2.45a18.29 18.29 0 0 0-1.27-2.23 15.48 15.48 0 0 1 3.72 2.23ZM32 9.5c1.12 0 2.43 1.16 3.64 3.28h-7.28C29.57 10.66 30.88 9.5 32 9.5Zm-4.82 5.77h9.64a34.94 34.94 0 0 1 1.79 6.22h-11.2a8.31 8.31 0 0 0-.53-5.43c.12-.27.2-.53.3-.79Zm-.35-4.72a18.29 18.29 0 0 0-1.27 2.23h-1.42l-.55-.36a27.91 27.91 0 0 1 3.24-1.87Zm-13.29 8.79a5.81 5.81 0 1 1 11 2.85l-5.21 11c-5.66-11.97-5.88-11.9-5.79-13.85Zm3.12 13.77 2.68 5.62 2.55-5.36a56.93 56.93 0 0 0 .45 6H16a27.54 27.54 0 0 1-1-6.22ZM15 30.62v-.85l.4.85ZM11.08 24h1.18l.8 1.69a31 31 0 0 0-.59 4.95H9.68a22.24 22.24 0 0 1 1.4-6.64Zm-1.35 9.11h2.71a30 30 0 0 0 .9 6.22H11a21.62 21.62 0 0 1-1.27-6.22Zm7.17 15.35a21.89 21.89 0 0 1-4.75-6.22h2a25.68 25.68 0 0 0 3.17 6.22Zm0-6.22h5.87a38.86 38.86 0 0 0 1.63 6.22h-3.88a22.29 22.29 0 0 1-3.62-6.22ZM23 51h2.5a18.38 18.38 0 0 0 1.29 2.29A15.51 15.51 0 0 1 23 51Zm9 3.34c-1.13 0-2.45-1.18-3.67-3.34h7.34c-1.22 2.12-2.54 3.3-3.67 3.3Zm-4.72-5.83a34.39 34.39 0 0 1-1.76-6.22h13a34.4 34.4 0 0 1-1.76 6.22Zm9.89 4.78a18.41 18.41 0 0 0 1.3-2.29H41a15.51 15.51 0 0 1-3.83 2.24Zm2.43-4.78a38.86 38.86 0 0 0 1.63-6.22h5.87a22.29 22.29 0 0 1-3.62 6.22Zm7.5 0h-.43a25.69 25.69 0 0 0 3.17-6.22h2a21.89 21.89 0 0 1-4.74 6.17Zm5.9-9.17h-2.34a30 30 0 0 0 .9-6.22h2.71A21.62 21.62 0 0 1 53 39.34Zm1.33-8.71h-2.8a30.83 30.83 0 0 0-1-6.64h2.38a22.23 22.23 0 0 1 1.41 6.63Zm-4.53-9.14a26.29 26.29 0 0 0-3.22-6.22h.07V15a22.5 22.5 0 0 1 5.18 6.53Z"/><path d="M21.83 22.4a3.72 3.72 0 1 0-5.26-.29 3.73 3.73 0 0 0 5.26.29Zm-3.39-2a1.22 1.22 0 1 1 1.73.1 1.22 1.22 0 0 1-1.73-.06Z"/></svg>