<svg data-name="Layer 1" xmlns="http://www.w3.org/2000/svg" viewBox="0 0 64 64"><title>icon-caseStudy-financialServices</title><path d="M32.16 21.84c-4.92 0-8.91 4.83-8.91 10.8s4 10.8 8.91 10.8 8.91-4.83 8.91-10.8-3.99-10.8-8.91-10.8Zm4.16 16.67a5.1 5.1 0 0 1-8.33 0c-4.18-5.06-1.24-13.89 4.16-13.89s8.37 8.8 4.17 13.89Z"/><path d="M31.22 30.26c0-.45.29-.89 1.23-.89a4.45 4.45 0 0 1 2.08.54l.42-1.8a5 5 0 0 0-2-.52v-1.48h-1.56v1.59A2.83 2.83 0 0 0 29 30.53c0 3.18 4.15 2.53 4.15 4.29 0 1.27-2.1 1.26-3.78.29L28.91 37a5.36 5.36 0 0 0 2.66.68v1.46h1.21v-1.6a2.93 2.93 0 0 0 2.57-2.92c0-3.37-4.13-2.8-4.13-4.36Z"/><path d="m63.71 27.79-2-3.42c0-4.25.05-4.21-.17-4.74a2.19 2.19 0 0 0-2-1.34h-1.3L51.52 6.64a2.18 2.18 0 0 0-3-.8L26.95 18.3H4.39a2.18 2.18 0 0 0-1.78 2.15v11.9l-1.52.87a2.18 2.18 0 0 0-.8 3l2.31 4c0 4.9-.24 5.51.79 6.37.75.62 1.36.5 3.16.5l5.92 10.27a2.18 2.18 0 0 0 3 .8l19.17-11.07c26.75 0 25.09 0 25.56-.1a2.19 2.19 0 0 0 1.53-2.09V31.45l1.17-.67a2.18 2.18 0 0 0 .81-2.99Zm-53.28-6.71a6.11 6.11 0 0 1-5 5.05v-5.05ZM49.38 8.54l2.53 4.39a6.11 6.11 0 0 1-7-1.82Zm-6.89 4a8.88 8.88 0 0 0 10.81 2.84L55 18.3H32.49ZM5.38 39.05a6.11 6.11 0 0 1 5.06 5.09H5.38Zm9.21 16.29L12 50.94a6.11 6.11 0 0 1 7 1.88Zm6.8-4a8.89 8.89 0 0 0-10.74-2.91l-.87-1.52h19.29ZM59 44.14h-5.19A6.11 6.11 0 0 1 59 39Zm0-7.75a8.91 8.91 0 0 0-8 7.92H13.24a8.91 8.91 0 0 0-7.86-7.91v-7.45a8.91 8.91 0 0 0 7.86-7.87H51A8.91 8.91 0 0 0 59 29Zm0-10.25a6.11 6.11 0 0 1-5.15-5.07H59Z"/></svg>